<?xml version="1.0" encoding="UTF-8"?>
<svg width="200px" height="200px" viewBox="0 0 200 200" version="1.1" xmlns="http://www.w3.org/2000/svg" xmlns:xlink="http://www.w3.org/1999/xlink">
    <!-- Generator: Sketch 54.1 (76490) - https://sketchapp.com -->
    <title>alabama-am</title>
    <desc>Created with Sketch.</desc>
    <g id="alabama-am" stroke="none" stroke-width="1" fill="none" fill-rule="evenodd">
        <g id="alabama-am_BGD" fill="#FFFFFF">
            <g id="alabama-am" transform="translate(19.000000, 0.000000)">
                <g id="g10">
                    <g transform="translate(81.000000, 100.325131) scale(-1, 1) rotate(-180.000000) translate(-81.000000, -100.325131) translate(0.000000, 0.820180)">
                        <g id="g12" transform="translate(0.000000, 0.232588)">
                            <path d="M47.3447603,85.2035263 C68.5922253,84.3114213 93.5462911,84.3114213 114.793498,85.2035263 C103.590932,115.64674 92.4046086,146.107786 80.53374,175.881146 C69.6245869,145.500989 58.2670629,115.570761 47.3447603,85.2035263 Z M99.8049185,195.733584 C99.8049185,193.766146 99.8049185,191.798967 99.8049185,189.831529 C97.104896,190.298773 95.1902315,190.284817 93.3810205,188.758263 C93.2459162,181.467398 97.3057476,174.927017 99.8049185,168.369321 C114.766426,129.111014 130.010776,87.5885893 145.306434,48.1814254 C147.742178,41.9059367 148.776344,34.3186505 154.406634,29.9390143 C157.637276,29.3839037 158.673247,33.2838914 160.830274,32.0847699 C160.579919,24.9144109 156.055731,19.3234036 152.265335,14.9153141 C150.416675,12.765191 147.927818,10.4114499 145.841436,8.47685863 C143.862314,6.64088474 141.431984,4.15560207 138.882536,4.18405536 C137.678974,7.36064191 140.83536,9.49140845 141.023835,12.769145 C141.264651,16.9582398 137.573778,23.3355504 135.670716,28.3289869 C130.170632,42.7616029 123.845999,59.8738937 118.540579,73.3994156 C93.3812783,73.3994156 68.22172,73.3994156 43.0621616,73.3994156 C38.4136985,61.4844379 32.0756587,45.1533852 27.0030611,31.5485248 C24.7633986,25.5426059 21.3100668,20.4414035 22.1850731,13.305571 C22.6343721,9.64212562 26.1893415,7.92686502 23.7909831,4.18405536 C21.0223256,5.2736278 18.5781504,7.79997522 16.296719,10.0862916 C11.9547673,14.4383273 9.2103718,18.2902726 5.59053168,24.0369331 C4.24335659,26.1754784 1.19932359,28.5659685 2.91402351,31.5485248 C5.42685957,33.5425811 5.55760646,29.4392081 8.26706562,29.9390143 C11.0526627,32.1654004 11.8912116,35.8909469 13.0848989,39.0600906 C31.3954965,87.6736132 50.5509081,138.466487 68.22172,188.222018 C67.3376121,190.776354 63.6622091,189.429668 62.3333401,190.368032 C62.3333401,192.156636 62.3333401,193.945239 62.3333401,195.733584 C73.8860433,197.619358 90.0273925,197.836698 99.8049185,195.733584 L99.8049185,195.733584 Z" id="path14"></path>
                            <path d="M28.6088422,173.19837 C30.4304292,168.563662 24.1874007,166.719237 23.255697,163.00377 C21.8958365,157.581104 23.255697,148.778674 23.255697,141.005317 C23.255697,126.632916 23.255697,112.371123 23.255697,97.5443989 C23.255697,90.2139935 24.1906236,82.1020916 23.255697,76.0821915 C22.566098,71.6413071 20.0037839,66.7094031 18.437941,62.6685704 C16.6273893,57.9961314 14.7386627,53.7609584 13.0848989,49.7911943 C10.8417557,50.3264056 9.90762837,53.7692282 9.33776686,55.6935081 C8.60134553,58.1788424 7.97156373,61.2583105 7.73175368,63.7415774 C5.27932778,89.1422786 9.56981616,122.453047 7.73175368,149.053645 C5.80192859,151.593508 1.86122874,148.5833 0.237488017,149.590148 C-0.875522,153.671296 2.15612472,156.088405 4.51993357,158.17498 C11.3314313,164.186868 19.5849091,169.283135 27.5383215,174.271377 C28.014796,174.03362 28.4956537,173.800256 28.6088422,173.19837" id="path16"></path>
                            <path d="M132.994156,173.734873 C133.529416,173.734873 134.064677,173.734873 134.600195,173.734873 C142.468729,169.451373 149.279634,164.085563 156.012415,158.17498 C158.071981,156.366735 162.15476,154.698303 160.830274,150.663155 C160.020164,147.952469 156.62451,152.334689 154.406634,150.126652 C152.028129,125.258061 155.735245,92.1240596 153.871374,67.4976187 C153.384586,61.0704309 151.940466,53.3492772 147.982736,49.7911943 C145.828803,56.6290296 143.820803,62.2801481 141.023835,69.6436327 C140.316343,71.5064059 138.689935,73.5263054 138.347276,75.545688 C137.313883,81.635623 138.347276,89.7749186 138.347276,97.5443989 C138.347276,112.037488 138.347276,126.359754 138.347276,141.541821 C138.347276,149.001959 139.672277,157.550609 138.347276,163.00377 C137.414437,166.843543 131.348411,168.460031 132.994156,173.734873" id="path18"></path>
                            <path d="M74.1100998,108.275503 C79.4632193,108.275503 84.8165966,108.275503 90.1692004,108.275503 C87.4183849,115.533806 85.0179638,123.143317 81.6045186,129.737451 C79.124943,122.564948 76.2142713,115.824283 74.1100998,108.275503 Z M88.5634192,143.687835 C89.1040941,141.357817 87.3809991,141.296311 86.4221199,140.468555 C90.9133051,129.377715 94.7707379,117.299926 99.2696581,105.592727 C100.756578,101.723751 101.801058,97.5149377 103.552257,94.3251195 C104.670219,92.2886804 107.351935,90.9985911 107.299337,88.4230641 C103.476712,88.8724763 94.0818094,87.2278191 92.3104997,88.9595676 C91.9624258,91.6335569 95.8219213,90.0902048 95.5223198,92.715609 C95.1319613,95.5433649 93.703569,97.331193 92.8460179,99.6906713 C85.7086972,99.6906713 78.5711186,99.6906713 71.4335401,99.6906713 C69.6207194,98.2884228 68.9387523,95.7529527 68.22172,93.2521125 C67.9571838,90.4830205 71.6189217,91.6493212 71.9690583,89.4963296 C70.8864194,87.5027901 67.103758,88.46493 64.4746395,88.4230641 C61.5283869,88.3760296 58.3761261,88.459503 55.9096999,88.4230641 C55.5059341,91.8682126 58.9142226,91.4921949 59.6567804,93.788616 C64.7273154,109.632009 70.9343763,124.335978 76.2513992,139.932052 C76.8761274,142.346834 73.2605416,140.511196 74.1100998,143.151331 C77.9110673,144.34916 83.8842741,143.369964 88.5634192,143.687835 L88.5634192,143.687835 Z" id="path20"></path>
                            <path d="M93.3810205,69.6436327 C99.8603525,68.9838575 109.007994,70.9983299 113.723235,68.5706257 C114.065895,66.2594741 111.740245,66.623087 109.975897,66.4243533 C111.327455,55.9749398 114.917516,47.7689689 118.540579,39.5968525 C120.648102,38.9895389 122.260329,41.2151497 122.823435,39.0600906 C123.415161,35.7661245 119.203208,33.9142054 116.935056,32.0847699 C114.363434,30.0113751 111.974357,26.8507596 108.369858,26.7194764 C106.711737,29.6097727 110.591601,29.7312355 110.511157,32.6212734 C107.415104,42.9324261 103.520028,52.4419247 100.340437,62.6685704 C97.0780814,60.379127 96.4855822,56.0382555 94.9873173,52.4742286 C90.7196729,42.3230449 86.2117285,31.0618985 81.6045186,20.817447 C78.1645167,22.9109477 77.617396,27.6175254 76.2513992,31.0117629 C72.0972011,41.334545 67.3626219,52.7946835 62.3333401,62.6685704 C58.1270599,53.291647 55.1235685,42.7099167 51.6271012,32.6212734 C51.8465167,30.0317912 55.4144036,29.597368 53.7684006,26.7194764 C50.2817309,27.0262345 47.1129689,30.0509151 44.6682006,32.0847699 C42.2711314,34.0790846 38.4178239,36.4845637 39.3150811,40.133356 C40.8576933,41.6878207 40.9894457,39.0885181 43.0621616,39.5968525 C47.9782549,46.1155251 49.2442128,56.2933272 52.697622,64.2783393 C52.6904027,67.3112897 47.9779971,65.6283847 48.4152811,69.1071292 C54.1538602,70.3302848 62.1337777,69.3071551 68.7572382,69.6436327 C73.1919581,60.4961964 76.5943165,50.3137425 80.53374,40.6698595 C80.9674144,40.5677792 81.0674534,40.1318055 81.6045186,40.133356 C81.5338725,42.5194528 83.3198786,44.7006134 84.2810784,47.1084184 C87.1816946,54.3747328 89.7865769,62.9339794 93.3810205,69.6436327" id="path22"></path>
                            <path d="M128.176555,39.0600906 C128.301604,32.8150969 133.193976,29.236081 132.994156,24.5731782 C132.738902,18.6140354 122.843288,11.8951044 116.935056,8.47685863 C105.34213,1.76944849 91.5746456,-1.10327964 71.4335401,0.428228512 C62.7012672,1.09237643 52.7164437,4.65620945 45.7387214,8.47685863 C39.4311058,11.930251 28.5789336,19.2882569 28.0735818,24.0369331 C27.7652141,26.9342329 33.1956833,35.7632818 33.9619617,39.0600906 C45.9284861,28.3755046 57.4884086,17.4914612 78.3926985,15.9884245 C98.067385,14.5737195 113.555644,23.8230295 122.823435,34.2310423 C124.209027,35.7873159 125.567032,38.4047087 128.176555,39.0600906" id="path24"></path>
                        </g>
                    </g>
                </g>
            </g>
        </g>
    </g>
</svg>