<?xml version="1.0" encoding="UTF-8"?>
<svg width="200px" height="200px" viewBox="0 0 200 200" version="1.1" xmlns="http://www.w3.org/2000/svg" xmlns:xlink="http://www.w3.org/1999/xlink">
    <!-- Generator: Sketch 54.1 (76490) - https://sketchapp.com -->
    <title>arkansas</title>
    <desc>Created with Sketch.</desc>
    <g id="arkansas" stroke="none" stroke-width="1" fill="none" fill-rule="evenodd">
        <g id="arkansas_BGD">
            <g id="arkansas" transform="translate(0.000000, 56.000000)">
                <g id="g10" transform="translate(100.035572, 43.985692) scale(-1, 1) rotate(-180.000000) translate(-100.035572, -43.985692) translate(0.071149, 0.057238)" fill-rule="nonzero">
                    <g id="g12" transform="translate(0.128068, 0.000000)">
                        <path d="M150.057627,67.9842194 L150.057627,67.9842194 C150.642472,70.6722974 146.50302,74.8074388 143.561718,77.4006485 C141.081462,79.5863395 138.51725,81.846437 136.017784,85.2837312 C134.295977,87.8071133 134.295977,87.8071133 134.295977,87.8071133 C134.295977,87.8071133 130.596937,70.1414356 139.234433,63.5205448 C141.205688,62.0095204 142.736389,63.2742878 142.736389,63.2742878 C142.736389,63.2742878 148.752753,61.0730001 150.057627,67.9842194" id="path14" fill="#FFFFFF"></path>
                        <path d="M139.234433,63.5205448 C141.205688,62.0095204 142.736389,63.2742878 142.736389,63.2742878 C142.736389,63.2742878 141.074632,63.3092017 139.975521,64.1492797 C133.009459,69.4737804 135.097684,84.6072044 135.097684,84.6072044 C140.746492,76.8397379 146.921377,74.7271656 150.057627,67.9842194 L150.057627,67.9842194 C150.642472,70.6722974 146.50302,74.8074388 143.561718,77.4006485 C141.081462,79.5863395 138.51725,81.846437 136.017784,85.2837312 C134.295977,87.8071133 134.295977,87.8071133 134.295977,87.8071133 C134.295977,87.8071133 130.596937,70.1414356 139.234433,63.5205448" id="path16" fill="#CF1841"></path>
                        <path d="M130.104159,27.0476221 C130.114159,27.0747722 130.125159,27.1019224 130.137159,27.1290725 M141.235571,43.6842005 C139.978936,69.5902552 128.263817,78.7207915 127.162572,79.5228078 C126.779079,79.8343135 124.32216,81.8045118 121.702309,83.3111004 L118.458197,85.1768434 L118.680609,83.2936434 C116.429453,84.7103719 112.492064,86.2969474 112.492064,86.2969474 L113.070079,84.0885052 C110.726429,85.1117377 106.942438,86.0993409 106.942438,86.0993409 L107.581499,84.2782418 C104.966202,85.0831198 101.277692,85.798567 101.277692,85.798567 L102.170897,83.7987491 C99.0064721,84.3948597 95.4764828,84.5379491 95.4764828,84.5379491 L96.5986458,82.7224305 C93.9023811,82.9612467 89.9871909,82.6764987 89.9871909,82.6764987 L91.1736726,81.1611817 C88.427319,81.1547427 84.7674116,80.5758029 84.7674116,80.5758029 L85.8844518,79.3406549 C83.0380627,79.1762452 79.6291691,78.591868 79.6291691,78.591868 L80.9199553,77.2825997 C78.6466007,77.0257542 74.6746335,76.1828144 74.6746335,76.1828144 L75.826679,75.1321087 C73.1432212,74.8178843 69.8525774,74.1226128 69.8525774,74.1226128 L70.8001405,73.2423266 C68.0103861,72.8681478 64.7066508,72.1074844 64.7066508,72.1074844 L65.7085718,71.239647 C63.3909625,70.9755039 59.9197424,70.1470161 59.9197424,70.1470161 L60.9526844,69.2124991 C58.4863735,68.9971495 54.8463878,67.9477316 54.8463878,67.9477316 L55.751973,67.1634585 C53.496121,66.9326552 49.9759504,66.0735463 49.9759504,66.0735463 L53.9511904,62.4562456 L64.3334029,36.8649877 L72.4160779,13.9144452 L80.273495,9.13754774 C83.3744554,6.06570391 84.5410153,5.88326489 84.9283508,5.82329611 C85.457842,5.74146327 86.257842,5.72671075 87.184345,5.70955433 C87.7279238,5.69970978 88.5733169,5.68378392 89.0152948,5.64459173 C89.1456399,5.5434275 89.2882226,5.43170328 89.4436121,5.30990556 C91.8124488,3.45432186 96.2218404,0 99.9408015,0 C103.523156,0 105.5556,1.72065036 107.178653,3.82065942 C107.178653,3.82065942 112.958944,3.22722463 112.962929,3.22666659 C116.60946,2.86022887 119.851153,4.82284346 121.42312,8.34926808 C122.048948,9.75339033 122.611594,10.0202807 124.28132,10.8128101 L124.523369,10.9253214 C126.217571,11.7074482 131.30672,14.060654 132.65471,20.2896515 C133.24724,21.2549328 134.683597,23.3072645 136.163497,24.3296384 C136.7556,24.6385685 139.448164,24.9454953 142.215009,24.7088254 L144.893629,24.479453 C144.893629,24.479453 141.563568,36.9210788 141.235571,43.6842005" id="path18" fill="#CF1841"></path>
                        <path d="M191.436495,32.4539699 C195.639981,36.1483958 199.766626,35.8071276 199.766626,40.323173 C199.766626,43.204994 196.998928,44.3103599 195.288505,44.3103599 C193.578081,44.3103599 192.414083,43.8235696 192.414083,43.8235696 C190.575591,45.5008639 187.856274,45.0023403 187.856274,45.0023403 C186.658124,46.0776574 178.951258,50.6304768 175.18605,52.4727532 C170.336531,55.02461 168.106719,57.6847855 165.283525,61.0526814 C161.997861,64.9739041 157.908214,69.853969 148.364279,76.1905412 L145.764493,77.916772 L145.687652,77.1376501 C145.35752,77.3817607 145.006044,77.6340273 144.633223,77.8905867 L142.164635,79.588772 L141.962003,78.2633346 C141.578367,78.5143135 141.165133,78.7684403 140.726428,79.0134094 L137.930413,80.5755167 L137.930413,79.3174744 C137.220061,79.7315752 136.430021,80.1627037 135.614511,80.5549118 L132.920381,81.8504435 L132.920381,80.6713866 C132.160509,81.2009606 131.308143,81.7660207 130.419207,82.3023199 L127.568834,84.0219686 L127.568834,80.6795427 L127.568834,78.7332403 L127.568834,78.0705932 L127.97979,77.5527525 C132.823049,71.4502746 133.996439,67.9100991 134.239342,66.2237902 C129.461114,65.9218715 127.12714,61.6815594 127.01814,61.4775139 L125.646671,58.9164993 L125.723512,58.9106327 C123.653643,57.0992636 123.300317,55.0399206 123.279826,54.9082783 L122.989111,53.0376702 C120.185838,50.1514134 119.755102,46.4349517 119.731765,46.2121614 L119.175237,40.89596 L122.17787,43.915433 C121.424828,40.8065291 122.136603,38.1782625 122.849944,36.5411763 L120.379648,37.7833356 L121.395657,33.772539 C122.786763,28.2803375 125.404906,24.4598498 129.176802,22.4172482 C132.247738,20.7541198 135.17111,20.7888905 136.419634,20.8034857 L136.652291,20.805632 C138.410384,20.805632 139.413017,21.2158694 139.965133,21.5941978 C140.866165,21.9669458 143.513337,22.5473165 145.89683,22.5633425 C148.708641,21.740149 151.950192,22.4467246 152.903589,22.6911214 L156.7371,23.6735734 L156.813941,23.6933197 L156.889359,23.7196482 C160.42689,24.9545099 164.80398,25.1099051 167.780857,24.1062758 C168.422621,23.8894953 173.115613,21.3108808 173.683382,21.0899507 C175.217356,20.4939832 176.544997,19.9792906 177.970824,20.1012027 C179.30985,20.1551475 180.502308,20.7648515 181.616502,21.9662303 C182.249729,22.6507702 184.167907,24.7102563 183.480607,26.9523245 C187.204549,26.9523245 188.744214,30.0866984 191.436495,32.4539699" id="path20" fill="#CF1841"></path>
                        <path d="M167.671287,39.6515112 C171.439341,37.3658007 178.497327,32.1300155 179.479184,31.103635 C180.462464,30.0772545 181.51547,28.8392448 183.268583,28.8392448 C185.89256,28.8392448 188.321589,32.2761098 189.985054,33.6995634 C194.305225,37.3985682 197.885445,36.8393747 197.885445,40.3673876 C197.885445,41.054503 197.256487,42.4198624 195.117747,42.4198624 C190.951258,42.4198624 185.393094,36.940682 185.393094,36.940682 C186.706505,40.9254364 190.088932,42.9983729 190.088932,42.9983729 C186.433293,44.2621387 181.377441,38.8278885 181.377441,38.8278885 C181.95944,42.4307372 185.128419,44.6838233 185.128419,44.6838233 C183.541795,45.8716086 175.509067,50.1665809 174.313763,50.7958882 C163.305581,56.587862 164.917819,62.9315887 147.326926,74.6112632 L147.213088,73.4662616 C147.213088,73.4662616 145.733187,74.8403493 143.570256,76.3287656 L143.342579,74.8403493 C143.342579,74.8403493 141.86211,76.2141509 139.812448,77.3591525 L139.812448,75.8707363 C139.812448,75.8707363 137.42127,77.5882387 134.802558,78.8477118 L134.802558,76.9012664 C134.802558,76.9012664 132.2974,78.9621834 129.450868,80.6795427 L129.450868,78.7332403 C137.982921,67.9826455 135.974952,64.250587 135.974952,64.250587 C131.070505,65.0534618 128.675201,60.5803432 128.675201,60.5803432 C130.157948,60.4657286 131.184629,59.4334814 131.184629,59.4334814 C125.709424,58.2864766 125.139378,54.6162328 125.139378,54.6162328 C126.508001,55.0749775 128.675201,54.157345 128.675201,54.157345 C122.287724,52.5517385 121.603412,46.0139826 121.603412,46.0139826 C123.31412,47.7344899 125.591174,47.0219045 125.591174,47.0219045 C121.599143,40.9430364 125.351971,35.8748089 125.351971,35.8748089 C125.351971,34.4984317 126.04539,32.818848 126.04539,32.818848 L123.219492,34.2395829 C126.299107,22.0819897 134.819491,22.6981328 136.652291,22.6981328 C138.485375,22.6981328 138.999072,23.2321425 138.999072,23.2321425 C140.103163,23.7787441 143.389538,24.4871799 146.182849,24.4552709 C148.627531,23.6266401 151.792241,24.359401 152.438274,24.5248124 L156.273208,25.5072644 C159.866236,26.7621587 164.749907,27.1241749 168.378509,25.9006172 C170.707929,25.1153425 176.432582,21.8461783 177.855563,21.9895539 C178.652432,22.0108742 179.412304,22.3650206 180.239056,23.2563246 C181.795798,24.9357652 182.251152,26.3095668 180.883667,28.1415408 C180.883667,28.1415408 181.035926,26.3095668 178.759156,26.3095668 C175.570255,26.3095668 167.823546,31.7130529 164.786904,33.6977032 C161.750263,35.6823536 156.587687,37.0562983 154.463177,37.0562983 C152.337243,37.0562983 149.908214,37.6670039 149.908214,39.9570071 C149.908214,42.5951469 157.395941,43.1350233 163.339733,41.5063795 C165.516894,40.9099827 165.49128,40.9736575 167.671287,39.6515112" id="path22" fill="#FFFFFF"></path>
                        <path d="M150.493059,42.9037908 C152.300245,43.891394 155.722515,44.2071924 159.278545,43.8351599 C155.866236,44.6698005 152.537883,44.8286298 150.666663,44.0446428 C149.091423,43.3842851 148.755599,42.3000965 148.694411,41.7125713 C148.650299,41.2760055 148.678758,40.8564673 148.771252,40.4593941 C148.791174,41.0658071 149.055848,42.1190884 150.493059,42.9037908" id="path24" fill="#CF1841"></path>
                        <path d="M155.501953,41.5647599 C154.99964,40.8358624 153.771608,39.7418006 153.437207,39.3089551 C153.25222,39.0695665 153.542508,38.1363373 154.692276,37.9444543 C155.759512,37.7660218 156.083952,38.4013389 156.152255,38.7313031 C156.490925,40.3874201 156.07826,41.1881486 155.501953,41.5647599" id="path26" fill="#FFFFFF"></path>
                        <path d="M171.692632,35.1117129 C170.911415,34.6108999 169.324791,34.0313878 168.829594,33.7467829 C168.556381,33.5893845 168.377086,32.6082203 169.297755,32.0102496 C170.152966,31.4543472 170.733543,31.9322659 170.945567,32.2171569 C172.012803,33.647765 172.022763,34.5490853 171.692632,35.1117129" id="path28" fill="#FFFFFF"></path>
                        <path d="M173.828526,33.7864187 C173.048733,33.2856057 171.462109,32.7060935 170.966911,32.4216317 C170.693699,32.2642333 170.514403,31.2830691 171.435072,30.6849553 C172.290284,30.1290529 172.87086,30.6069716 173.082884,30.8918626 C174.15012,32.3223276 174.160081,33.223791 173.828526,33.7864187" id="path30" fill="#FFFFFF"></path>
                        <path d="M169.232297,36.7589584 C168.543575,36.1492544 167.070789,35.3428024 166.629665,34.9887991 C166.384912,34.7929097 166.369259,33.7974366 167.37673,33.3422691 C168.311629,32.9192967 168.806826,33.4769162 168.970469,33.7897097 C169.790106,35.3601162 169.650654,36.2519926 169.232297,36.7589584" id="path32" fill="#FFFFFF"></path>
                        <path d="M159.392383,36.9426853 C159.580217,39.355173 159.723938,45.3212867 157.000352,48.609911 C156.657413,49.022724 156.647453,49.6189776 156.974738,50.043667 C157.302024,50.4684996 157.878331,50.6074394 158.360722,50.3779239 C158.575592,50.2763305 163.612945,47.7754134 165.182493,37.7817617 C165.408747,36.3478625 165.222337,35.2714007 164.613301,34.490991 C164.09249,33.8230496 163.315542,33.4410008 162.306648,33.3554333 C161.524009,33.2890398 160.831017,33.5324349 160.304514,34.059004 C159.526143,34.8359796 159.32408,36.0581064 159.392383,36.9426853" id="path34" fill="#CF1841"></path>
                        <path d="M165.479896,37.5057422 C164.186406,37.8643243 163.590177,38.6128251 163.316965,39.1777421 C162.871572,40.1006689 162.915684,41.2594071 163.446456,42.5286103 C164.993237,46.23062 167.88758,47.9744508 168.009957,48.0469972 L170.268228,49.3821646 L169.795798,46.7916736 C169.38171,44.5208444 169.361789,44.1947436 169.317676,43.4068932 C169.286371,42.8661583 169.243681,42.1256705 169.074347,40.5436738 C168.979007,39.6483632 168.549267,38.4664446 167.625752,37.835134 C166.996794,37.404721 166.255421,37.2908218 165.479896,37.5057422" id="path36" fill="#CF1841"></path>
                        <path d="M160.527922,36.8531113 C160.839555,40.8504575 160.48381,46.1937029 157.874062,49.342815 C157.874062,49.342815 162.564208,47.1137679 164.058338,37.603043 C164.280323,36.1864576 164.139448,34.6596934 162.211309,34.4962853 C160.822479,34.3786658 160.451081,35.8786723 160.527922,36.8531113" id="path38" fill="#FFFFFF"></path>
                        <path d="M167.883311,40.6718819 C168.308783,44.6587826 167.917463,43.1695079 168.61757,47.0088834 C168.61757,47.0088834 165.960864,45.4379046 164.55069,42.0619957 C163.998573,40.7398494 163.933116,39.183895 165.798644,38.6666267 C167.141938,38.2941649 167.780857,39.7000185 167.883311,40.6718819" id="path40" fill="#FFFFFF"></path>
                        <path d="M158.137314,40.9667892 C157.635001,40.2378917 156.406969,39.1438299 156.072568,38.7109844 C155.887581,38.4715958 156.177869,37.5382235 157.326214,37.3464836 C158.394873,37.1680511 158.719313,37.8033682 158.786193,38.1331893 C159.126286,39.7894494 158.713621,40.5901778 158.137314,40.9667892" id="path42" fill="#FFFFFF"></path>
                        <path d="M154.522942,37.1238365 C156.876552,37.0093649 158.279612,34.2614756 160.633223,33.1928837 C162.986833,32.1241488 165.568121,33.3836219 167.541796,32.047739 L165.568121,33.6889748 L164.086798,34.6048902 L162.682315,33.4980935 L160.936318,33.7271796 L159.647097,35.0629194 L159.722515,36.6658072 L156.533614,37.4673942 L154.522942,37.1238365" id="path44" fill="#CF1841"></path>
                        <path d="M24.6585551,43.6884932 L23.0863032,45.5901517 C23.0806113,45.59702 22.5246526,46.2955826 22.0478116,47.4641939 L21.8831727,47.8677061 L21.5595868,48.1578915 C21.4096046,48.2925386 17.8289572,51.4538133 12.8794305,51.4538133 C9.29378845,51.4538133 7.59271415,49.395615 7.41055833,49.1610915 C7.41055833,49.1610915 7.29172518,49.0078427 7.11274262,48.7771825 C5.59654202,48.6953354 3.90541435,48.1111012 2.4400284,46.3476671 C2.4400284,46.3476671 0.00755958715,43.4204867 0.0142298111,43.4202005 L3.80369966,43.2434851 C4.44826741,43.2134363 6.37985043,42.9364152 7.56125203,42.0279404 C10.3254498,39.902347 14.8257556,38.841482 19.7208106,41.8051502 C20.6477405,41.9934559 21.5564562,42.2746266 22.414087,42.6692672 C22.414087,42.6692672 24.6505864,43.6983664 24.6585551,43.6884932" id="path46" fill="#CF1841"></path>
                        <path d="M57.4300946,22.7494661 C57.378725,22.7116061 57.3263593,22.6776836 57.2728552,22.64891 C57.3273554,22.6779865 57.3781558,22.7149378 57.4300946,22.7494661 Z M91.3398768,33.6261585 C86.439699,37.5252023 79.0300941,34.0502756 71.8616844,30.6823797 C77.1119155,41.1052998 73.6836694,52.99088 73.5204535,53.5393418 C73.5085005,53.579693 73.4951245,53.6196149 73.4804677,53.6591076 C69.7309125,63.7542098 61.5460675,69.2901966 60.9541073,69.2110682 C57.530984,68.7533251 54.2097461,68.0916796 52.4505145,67.5281934 C46.9404471,65.7628992 40.2522936,63.6199919 33.8814648,54.4097547 C32.3463528,56.410288 29.9533255,57.6319856 27.3781566,57.6319856 C22.8970467,57.6319856 19.2885089,54.0259889 19.163002,49.4223727 C19.1018138,47.1764411 19.9255776,45.0517062 21.4827458,43.4398038 C21.4874417,43.4349388 21.4921375,43.4300737 21.4968333,43.4252087 C23.0208461,41.8812737 25.0872993,41.0779697 26.9102804,40.3692478 C28.0705792,39.9180868 29.3856983,39.4069714 29.7570964,38.9383535 C29.8262533,38.8510689 29.903948,38.4100673 29.960725,38.0881161 C30.1903941,36.7862885 30.530202,34.8650268 32.6754883,32.3764155 C32.7931689,30.8648187 33.5503371,27.8745359 37.1809311,24.24264 C39.3420125,20.6954531 38.9331901,17.1705882 38.5356091,13.7603379 C38.0986116,10.0122391 37.6035565,5.7643862 41.5849154,2.86905749 C45.394805,0.0987093829 52.8257546,4.0030412 61.4299522,8.5237084 C66.086231,10.9703802 70.9011722,13.5000439 73.5777997,13.9016959 C78.3312681,14.6152972 80.2619688,13.5666091 80.2808945,13.5559919 C80.2807522,13.5559919 80.2633918,13.5657219 80.2302363,13.5875145 C80.9807166,13.0981057 81.969973,13.2074403 82.5966539,13.8492107 C83.2234771,14.4906663 83.3146902,15.4871411 82.8147969,16.2330663 C82.7341139,16.3535476 82.675914,16.4402598 82.8554942,16.8386207 C83.1231569,17.4322988 83.7425806,18.1889556 84.3415134,18.920715 C85.4858748,20.3186987 86.8470985,21.9826856 87.0137296,23.9491636 L87.6258961,24.2017165 C88.4772657,24.5525717 88.9515453,25.4707766 88.7472052,26.3729554 L88.392456,27.9397847 L88.9945193,28.2305424 C89.7329042,28.5871212 90.1449995,29.3741131 90.0472407,30.167544 C90.3193147,30.2448123 90.4909262,30.2768643 90.4910685,30.2770074 C91.2229077,30.4036415 91.8124488,30.9511017 91.9957288,31.6747049 C92.179151,32.3983081 91.9223029,33.1626919 91.3398768,33.6261585 L91.3398768,33.6261585 Z" id="path48" fill="#CF1841"></path>
                        <path d="M6.3892421,45.5540932 C6.3892421,45.5540932 8.40081089,46.4318037 10.6780787,44.9433875 C12.9553608,43.4548282 17.8575591,42.6538136 21.6310204,44.3902038 C21.6310204,44.3902038 20.913838,45.2574688 20.3066519,46.745885 C20.3066519,46.745885 17.1682671,49.5614557 12.8794305,49.5614557 C10.1087297,49.5614557 8.8941869,47.9966297 8.8941869,47.9966297 C8.8941869,47.9966297 12.0444821,47.5386004 13.828317,46.3555371 C13.828317,46.3555371 11.7028528,45.8975078 10.4882673,46.2791273 C9.27372442,46.6608899 6.19947334,47.9202199 3.88424039,45.1342688 C3.88424039,45.1342688 6.76877962,45.0197972 8.70441814,43.5312379 C10.6401136,42.0428217 13.5246528,41.203173 16.8646029,42.5390558 C16.8646029,42.5390558 12.3913907,42.5974363 9.65337578,44.5998298 C7.98330823,45.821098 6.3892421,45.5540932 6.3892421,45.5540932" id="path50" fill="#FFFFFF"></path>
                        <path d="M15.2865169,46.7600509 C16.2014937,46.9672444 16.9411593,47.1133387 17.5456417,47.2014817 C16.3601561,47.8166232 14.7311273,48.4164541 12.8794305,48.4164541 C12.6261825,48.4164541 12.3909922,48.4001419 12.1710989,48.3728118 C12.9675842,48.1038037 13.7866806,47.7546655 14.4552113,47.3113744 L15.2865169,46.7600509" id="path52" fill="#CF1841"></path>
                        <path d="M18.8297398,44.6659371 C18.6729273,44.9831664 18.5087153,45.3509062 18.3521874,45.7632899 C17.6933471,46.3376509 12.5729773,45.1495794 12.0918958,45.110659 C13.9344856,44.4441485 16.4725716,44.1067436 18.8297398,44.6659371" id="path54" fill="#CF1841"></path>
                        <path d="M152.902166,67.8405577 C154.263959,66.047361 155.964422,64.1552895 157.755955,62.5103334 C156.81821,62.9803822 155.795087,63.3648635 154.646741,63.6167008 C155.760935,62.1639139 159.460686,58.9810327 162.872995,58.8021709 C160.280323,62.2164277 157.590889,65.7269837 152.902166,67.8405577" id="path56" fill="#CF1841"></path>
                        <path d="M164.489501,52.8945808 C164.489501,52.8945808 160.554959,52.4338328 155.363924,58.9039075 C149.888292,65.7282715 144.584842,64.2945155 144.584842,64.2945155 C153.253643,63.1476537 154.279612,50.6457874 164.489501,52.8945808" id="path58" fill="#CF1841"></path>
                        <path d="M155.281391,53.3992572 C156.244749,53.3992572 157.025965,54.184532 157.025965,55.1531043 C157.025965,56.1216766 156.244749,56.9069514 155.281391,56.9069514 C154.318032,56.9069514 153.538239,56.1216766 153.538239,55.1531043 C153.538239,54.184532 154.318032,53.3992572 155.281391,53.3992572" id="path60" fill="#CF1841"></path>
                        <path d="M158.744927,53.3464572 C160.317321,52.6368767 162.16435,52.3824637 164.489501,52.8945808 C164.489501,52.8945808 160.554959,52.4338328 155.363924,58.9039075 C149.888292,65.7282715 144.584842,64.2945155 144.584842,64.2945155 C147.612945,63.8938651 149.708997,62.1069643 151.588755,60.0476213 C151.159014,60.0766684 150.767695,60.0902619 150.431871,60.09527 C149.3191,60.759205 147.685517,61.610444 146.067588,62.0006489 C146.067588,62.0006489 147.971537,60.8572212 149.169687,59.2486099 C149.161149,57.6693319 149.457129,50.7068865 155.289929,51.3981516 C155.436496,51.4014426 155.587332,51.4097418 155.739591,51.4237646 C154.78477,51.835719 154.562785,52.195732 154.562785,52.195732 C156.44112,51.8178329 158.029167,52.7952767 158.744927,53.3464572" id="path62" fill="#CF1841"></path>
                        <path d="M156.883667,54.4685645 C156.618993,53.8406881 156.002842,53.3992572 155.281391,53.3992572 C154.318032,53.3992572 153.538239,54.184532 153.538239,55.1531043 C153.538239,55.8379303 153.929559,56.4281742 154.498751,56.7164994 C154.352184,56.8767596 154.208463,57.039023 154.063319,57.2025742 C153.45286,57.32234 152.749907,57.3184766 151.941654,57.1261644 C151.941654,57.1261644 152.169331,50.7605451 157.636424,53.7959011 C157.636424,53.7959011 157.613657,53.8685905 157.565275,53.9912182 C157.333329,54.1410328 157.105652,54.3002913 156.883667,54.4685645" id="path64" fill="#FFFFFF"></path>
                        <path d="M155.413728,55.7586588 C155.287083,55.8831466 155.163283,56.0097807 155.039484,56.138275 C154.599783,56.0348214 154.272497,55.6393222 154.272497,55.1661255 C154.272497,54.6843433 154.611167,54.2824051 155.063675,54.1879661 C154.911416,54.3635369 154.818922,54.5924799 154.818922,54.8436019 C154.818922,55.2528376 155.063675,55.6041222 155.413728,55.7586588" id="path66" fill="#FFFFFF"></path>
                        <path d="M151.134824,57.5851953 L150.25969,57.7569026 C150.25969,56.4665222 150.830306,54.4880247 152.142294,53.5619499 C151.250085,54.8974035 151.13767,56.7733059 151.134824,57.5851953" id="path68" fill="#FFFFFF"></path>
                        <path d="M153.348982,58.0266262 C153.101384,58.3163823 152.853785,58.6075693 152.60334,58.8976115 C151.947346,58.8808701 151.224471,58.7613904 150.427602,58.5102685 C151.040907,58.440727 152.165062,58.2916278 153.348982,58.0266262" id="path70" fill="#FFFFFF"></path>
                        <path d="M155.408036,41.652903 C154.905724,40.9240055 153.677691,39.8298006 153.34329,39.3970982 C153.158303,39.1577096 153.448591,38.2243373 154.596937,38.0324543 C155.665596,37.8541649 155.990035,38.489482 156.058338,38.8193031 C156.397008,40.4755632 155.984343,41.2762917 155.408036,41.652903" id="path72" fill="#FFFFFF"></path>
                        <path d="M158.043397,41.0547892 C157.541085,40.3258917 156.311629,39.2318299 155.978651,38.7989844 C155.793664,38.5597389 156.083952,37.6263665 157.232298,37.4344836 C158.300957,37.2560511 158.625396,37.8915112 158.692276,38.2213324 C159.030946,39.8774494 158.619704,40.6781778 158.043397,41.0547892" id="path74" fill="#FFFFFF"></path>
                        <path d="M139.355671,43.5919079 C138.095336,69.5760893 126.020772,78.0173639 126.020772,78.0173639 C126.020772,78.0173639 123.456703,80.1220663 120.768122,81.6682906 L121.010314,79.6185346 C121.010314,79.6185346 118.480965,81.4247524 115.329488,82.891276 L115.881747,80.78085 C115.881747,80.78085 112.921377,82.2692662 109.961008,83.1853247 L110.644039,81.2388793 C110.644039,81.2388793 107.824401,82.3768695 104.536604,83.1209345 L105.375878,81.2420272 C105.375878,81.2420272 102.74379,81.9255654 99.0858744,82.2834321 L100.166771,80.5347362 C100.166771,80.5347362 97.5215913,80.9289476 93.8067568,80.8572598 L95.0700794,79.2439265 C95.0700794,79.2439265 91.3156861,79.4071915 88.6399124,79.1065606 L90.0172158,77.5835168 C90.0172158,77.5835168 87.1447862,77.6663655 83.6435411,77.2084794 L85.0915667,75.7396664 C85.0915667,75.7396664 82.3358215,75.6943071 78.7490553,75.0217867 L80.2682299,73.6361087 C80.2682299,73.6361087 77.9082158,73.618938 73.9230149,72.9175136 L75.2095321,71.7224307 C75.2095321,71.7224307 72.1804322,71.6621901 68.8641747,71.0039787 L70.3117734,69.749943 C70.3117734,69.749943 67.0036269,69.6423397 63.966416,69.0312048 L65.468088,67.6724276 C64.4065441,67.6492471 61.5715388,67.5310552 58.9075759,66.9276471 L60.3551746,65.6737545 C60.3551746,65.6737545 57.0470281,65.5661512 54.0098172,64.9551594 L55.5318378,63.5701968 L66.0428301,37.6565584 L73.8843098,15.2327281 L81.4374935,10.6412745 C81.4374935,10.6412745 84.2276749,7.84633736 85.2145123,7.69363233 C86.2013497,7.541099 89.465526,7.67473021 89.8450351,7.38839396 C91.5887562,6.07341643 96.4490904,1.89264386 99.9408015,1.89264386 C106.089503,1.89264386 106.241335,7.99898517 111.934398,12.731668 C117.627745,17.4642077 124.080111,15.8611768 129.014013,29.4480903 L133.796368,27.7689359 C129.014013,24.3340742 128.234789,20.061567 124.837848,17.2570142 C119.419848,12.783867 112.88253,12.4935529 108.670364,6.39626911 L108.153822,5.62297092 L113.150193,5.10985223 C116.006685,4.82267175 118.457485,6.32299301 119.705582,9.12335327 C120.61629,11.1660121 121.693487,11.6772134 123.478047,12.5243457 C124.864031,13.1821135 129.773031,15.1359996 130.880537,20.9949393 C130.880537,20.9949393 132.771537,24.2958693 135.120025,25.9054823 C136.13703,26.602614 139.591174,26.8327018 142.374952,26.5943148 C142.374952,26.5943148 139.69804,36.5381714 139.355671,43.5919079" id="path76" fill="#FFFFFF"></path>
                        <path d="M120.314903,59.5516733 C120.314903,59.5516733 118.959229,61.9844798 115.889716,64.1819041 C116.199499,62.9944049 116.284878,61.236122 116.284451,61.2362651 C111.09925,64.5071464 106.273352,64.8109252 106.273352,64.8109252 L107.453857,63.0311789 C102.684024,63.3837513 98.065597,61.5417611 98.065597,61.5417611 C104.688151,62.5433871 109.038489,60.9392115 109.038489,60.9392115 L108.696973,62.0193936 C114.171893,60.1842717 117.052149,56.7992051 117.052149,56.7992051 C117.052292,56.799062 117.366913,57.6149579 117.389823,58.8425221 C119.023974,56.1615986 120.243896,53.5456377 120.243896,53.5456377 C120.244323,53.5447791 120.595372,54.2955694 120.982139,55.4039401 C121.993167,52.773384 122.687439,49.7968378 122.687439,49.7968378 C122.687581,49.7964085 122.888079,52.3232247 124.787332,53.8275239 C124.248449,55.2894685 122.719456,59.0495725 120.417357,61.5700928 C120.344643,60.3979042 120.315472,59.5509579 120.314903,59.5516733" id="path78" fill="#CF1841"></path>
                        <path d="M124.787332,53.8275239 C124.787332,53.8275239 121.977372,51.1045321 121.977372,44.5669192 C121.977372,44.5669192 119.296902,49.5561614 123.035216,55.2276539 L124.787332,53.8275239" id="path80" fill="#CF1841"></path>
                        <path d="M127.877194,36.6002723 C127.09,37.9961096 124.672213,41.4042136 127.731907,45.8505745 C127.731907,45.8505745 126.577727,40.8412998 129.516325,39.3640445 C129.516325,39.3640445 129.230449,36.4963893 131.927425,35.5568642 C131.927425,35.5568642 132.014511,33.367739 134.691565,32.4707114 C134.691565,32.4707114 135.822124,30.149944 138.897755,30.3568513 C138.897755,30.3568513 140.62312,28.0888839 145.067232,28.5101391 C145.067232,28.5101391 144.179292,29.732409 144.062608,30.6823797 C144.062608,30.6823797 145.980786,28.4729359 151.302735,28.3962399 C153.955172,28.5486302 157.309139,30.0680968 161.689075,30.2565456 C168.401276,30.5453 171.395229,27.4402595 171.395229,27.4402595 C170.818921,27.6858009 170.148697,27.9256188 169.414439,28.1730204 C165.573813,29.4678367 160.244749,29.3104383 155.837776,27.7719408 L152.18783,26.8452936 C152.18783,26.8452936 148.825325,25.9837522 146.937029,26.8387115 C146.937029,26.8387115 142.787616,27.0758107 137.854426,25.093736 C137.854426,25.093736 130.32714,24.1510628 127.988755,29.5991928 C127.988755,29.5991928 131.182636,27.9934432 132.722444,29.1976838 C132.722444,29.1976838 127.706151,31.8977813 127.877194,36.6002723 L127.877194,36.6002723" id="path82" fill="#CF1841"></path>
                        <path d="M129.87762,70.591595 L132.648449,65.9482 C132.648449,65.9482 126.234789,72.1393933 118.587973,75.1512827 C118.930342,74.1612469 119.241406,73.262073 119.240694,73.2622161 C119.240694,73.2622161 113.855849,75.515016 113.111203,75.7771558 C113.496262,74.9241998 113.833081,74.1779884 113.832228,74.1782746 L107.237422,76.6396989 C107.226607,76.6425607 108.367838,74.9986063 108.366842,74.9987493 C108.366842,74.9987493 103.011168,76.0089607 102.216291,76.1031135 C102.893914,75.2741965 103.508784,74.5216892 103.508642,74.5216892 C103.508642,74.5216892 97.8528613,75.1172274 97.0191367,75.1604404 C97.8739214,74.2572599 98.6891473,73.3958616 98.6884358,73.3958616 C98.6884358,73.3958616 93.1506202,73.7050778 86.5350387,72.3287006 L88.7254336,70.418886 C88.7254336,70.418886 80.6712182,69.5132731 73.599429,66.7605187 C73.599429,66.7605187 79.1314103,69.9577088 85.6162198,71.3113348 L83.2802541,73.3985803 C83.2802541,73.3985803 90.4186388,74.8168827 95.2971872,75.1472762 C95.2978987,75.1472762 94.4843804,76.0471656 93.6311609,76.9908404 C94.4233345,76.9789639 94.9582331,76.956642 94.972036,76.9560696 L99.9269986,76.7420078 C99.9271409,76.7420078 99.3084287,77.5322907 98.6268207,78.4028468 C99.3847005,78.3340208 99.8246862,78.2706322 99.835074,78.2692013 L104.687582,77.5554712 C104.688436,77.5554712 104.181854,78.375946 103.616931,79.2905736 C104.363284,79.1378972 104.797721,79.0270029 104.807966,79.0244273 L109.388827,77.8422224 C109.389681,77.8420794 109.035074,78.6369411 108.629097,79.5459883 C109.34756,79.2930061 109.786265,79.1175785 109.796938,79.1132858 L114.463178,77.2355233 C114.463747,77.2353802 114.126216,78.1975135 113.754391,79.2569476 C114.428314,78.9501639 114.853217,78.7378192 114.864174,78.7323818 L119.363071,76.4741444 C119.363355,76.4740013 118.976304,77.9539753 118.627816,79.2855655 C121.904373,77.5706387 124.006116,75.7380924 124.042971,75.7210648 L123.27328,78.0867623 C123.27328,78.0867623 126.183561,76.1121282 128.389751,73.8420144 L129.005475,72.5522063 L129.87762,70.591595" id="path84" fill="#CF1841"></path>
                        <path d="M108.60448,7.46340144 C108.60448,7.46340144 113.600851,6.95039722 113.597293,6.95056893 C115.716539,6.73749447 117.474917,7.83303005 118.421342,9.95600495 C119.590748,12.5791203 121.105938,13.2983164 123.024543,14.2088946 L123.301313,14.3379899 C124.885376,15.0690338 129.147346,17.2693199 130.34507,23.4055669 L128.462893,24.4951929 L125.089858,18.9464711 L117.64724,14.5594923 L112.942295,12.236879 L108.60448,7.46340144" id="path86" fill="#CF1841"></path>
                        <path d="M91.1521856,31.623622 L88.8031283,30.8247537 L89.0547114,29.4270562 L87.2096741,28.5137164 L87.800069,25.3553034 L85.9896101,24.6427181 C86.2602611,22.3733198 83.9220185,20.2228288 82.2360705,17.8373849 C86.8305919,16.7533394 85.9099231,13.1762468 88.502737,13.3439333 C103.845177,14.3358435 113.83052,23.280936 113.83052,23.280936 C110.016646,27.2359278 98.7112035,25.7984514 91.1521856,31.623622" id="path88" fill="#CF1841"></path>
                        <path d="M82.5767322,15.2460354 L78.479685,14.3000569 L82.5730324,11.8181851 C83.1807877,11.3180875 83.6997489,10.8328713 84.1576642,10.4046189 C84.5484148,10.039283 85.0689413,9.5535087 85.3216628,9.39482253 C85.6428296,9.36722058 86.2763408,9.35676074 86.7570238,9.34887651 C88.4490906,9.32127456 89.5268565,9.28779164 90.3267142,8.9661123 C90.7837757,8.78228531 91.1883293,8.480338 92.1654904,7.75041021 C93.6731389,6.62448244 97.6778346,3.63402788 99.5768029,3.63402788 C102.015508,3.63402788 102.90601,4.81809289 104.860474,7.7358294 C105.016006,7.96806354 105.176518,8.20763817 105.343149,8.45272174 C106.39089,9.93773243 107.388827,11.5952804 109.229595,13.1626676 C109.229595,13.1626676 106.912413,12.6422371 103.675985,8.44283426 C101.910919,6.15301708 100.933615,5.8194327 99.5768029,5.98125253 C96.217856,6.38190293 94.0163619,10.1009402 91.5759493,10.9024127 C89.9442169,11.43844 89.3380269,11.7653565 88.2562767,12.6815867 C87.1745265,13.5975164 87.3438612,13.6564263 87.0586958,14.9754533 L85.3192437,17.1547053 L82.6103145,18.301567 L81.8403395,17.0400906 L82.5767322,15.2460354" id="path90" fill="#CF1841"></path>
                        <path d="M57.4300946,22.7494661 C57.378725,22.7116061 57.3263593,22.6776836 57.2728552,22.64891 C57.3273554,22.6779865 57.3781558,22.7149378 57.4300946,22.7494661 Z M91.3398768,33.6261585 C86.439699,37.5252023 79.0300941,34.0502756 71.8616844,30.6823797 C78.504018,39.0041746 70.5687638,51.9898263 70.4056902,52.5382881 C70.3935948,52.5786393 54.2097461,68.0916796 52.4505145,67.5281934 C46.9404471,65.7628992 40.2522936,63.6199919 33.8814648,54.4097547 C32.3463528,56.410288 29.9533255,57.6319856 27.3781566,57.6319856 C22.8970467,57.6319856 19.2885089,54.0259889 19.163002,49.4223727 C19.1018138,47.1764411 19.9255776,45.0517062 21.4827458,43.4398038 C21.4874417,43.4349388 21.4921375,43.4300737 21.4968333,43.4252087 C23.0208461,41.8812737 25.0872993,41.0779697 26.9102804,40.3692478 C28.0705792,39.9180868 29.3856983,39.4069714 29.7570964,38.9383535 C29.8262533,38.8510689 29.903948,38.4100673 29.960725,38.0881161 C30.1903941,36.7862885 30.530202,34.8650268 32.6754883,32.3764155 C32.7931689,30.8648187 33.5503371,27.8745359 37.1809311,24.24264 C39.3420125,20.6954531 38.9331901,17.1705882 38.5356091,13.7603379 C38.0986116,10.0122391 37.6035565,5.7643862 41.5849154,2.86905749 C45.394805,0.0987093829 52.8257546,4.0030412 61.4299522,8.5237084 C66.086231,10.9703802 70.9011722,13.5000439 73.5777997,13.9016959 C78.3312681,14.6152972 80.2619688,13.5666091 80.2808945,13.5559919 C80.2807522,13.5559919 80.2633918,13.5657219 80.2302363,13.5875145 C80.9807166,13.0981057 81.969973,13.2074403 82.5966539,13.8492107 C83.2234771,14.4906663 83.3146902,15.4871411 82.8147969,16.2330663 C82.7341139,16.3535476 82.675914,16.4402598 82.8554942,16.8386207 C83.1231569,17.4322988 83.7425806,18.1889556 84.3415134,18.920715 C85.4858748,20.3186987 86.8470985,21.9826856 87.0137296,23.9491636 L87.6258961,24.2017165 C88.4772657,24.5525717 88.9515453,25.4707766 88.7472052,26.3729554 L88.392456,27.9397847 L88.9945193,28.2305424 C89.7329042,28.5871212 90.1449995,29.3741131 90.0472407,30.167544 C90.3193147,30.2448123 90.4909262,30.2768643 90.4910685,30.2770074 C91.2229077,30.4036415 91.8124488,30.9511017 91.9957288,31.6747049 C92.179151,32.3983081 91.9223029,33.1626919 91.3398768,33.6261585 L91.3398768,33.6261585 Z" id="path92" fill="#CF1841"></path>
                        <path d="M87.7660597,31.2889358 C89.014441,31.9418529 90.1720362,32.142035 90.1720362,32.142035 C82.8359994,37.9793682 66.3119158,22.4462954 56.807825,24.4824579 C57.4549968,24.6485847 57.846032,25.4032384 58.6003543,25.4700612 C61.4888636,25.7263343 64.6046231,27.5212481 68.1245091,29.140305 C74.6830291,32.0650529 78.960368,33.9575536 78.960368,33.9575536 C75.4244022,43.4772932 65.3533957,67.769156 65.3533957,67.769156 C60.294271,67.5651105 55.835502,66.6497674 54.5751676,66.2293707 C48.2429017,64.1167984 40.1810022,62.4977415 32.8055488,49.0652215 C31.4512977,46.5987891 28.9341864,46.4318037 26.611312,48.3295988 C26.3055134,48.5794329 26.0897895,48.9440248 26.0897895,49.3705744 C26.0897895,50.0860215 26.6665237,50.665963 27.3781566,50.665963 C28.0895048,50.665963 28.6662391,50.0860215 28.6662391,49.3705744 C28.6662391,49.0553484 28.5531121,48.7673093 28.3668438,48.5426589 C29.0033433,48.2292931 29.6193518,48.1148216 30.1634998,48.224285 C30.8315894,48.3586459 31.3832792,48.8241159 31.8030586,49.6081028 C32.2434713,50.4307239 32.6938448,51.2222947 33.1517601,51.9808117 C32.1599423,54.1954068 29.9501949,55.7396279 27.3781566,55.7396279 C23.8801844,55.7396279 21.140092,52.8867109 21.0443253,49.3705744 C20.9956594,47.5829582 21.6842399,45.9471598 22.832728,44.7583729 C25.2146561,42.3451697 29.7901095,41.9332152 31.2288857,40.1176966 C32.2742077,38.7986982 31.1355382,36.7377812 34.5514043,33.1120382 C34.5514043,33.1120382 34.0581991,29.9443245 38.6695117,25.4216969 C44.0005681,16.9825687 36.5865519,8.83917767 42.6877257,4.4025755 C47.5001055,0.90302879 65.904374,14.6636614 73.3000337,15.7736061 C79.0202755,16.6319996 81.2542136,15.1753492 81.2542136,15.1753492 C79.1457824,18.3213134 86.1219473,21.4735734 85.0259673,25.17544 L86.9121287,25.9528449 L86.2239751,28.9920643 L88.1797203,29.9364545 L87.7660597,31.2889358" id="path94" fill="#FFFFFF"></path>
                        <path d="M41.1748122,27.956383 C39.7768756,29.7514399 39.5911765,30.9257748 39.5668436,31.190061 L39.7970819,32.6686041 L38.3279962,34.3524804 C37.1861962,36.2415471 37.2197785,37.1535991 37.2583413,38.2097421 C37.2584836,38.2150364 37.2583413,38.2097421 37.2583413,38.2097421 C35.2890777,40.667303 36.9047305,43.1114136 36.9047305,43.1114136 C35.766061,45.2869452 36.2215573,47.6912769 36.2215573,47.6912769 L38.0432577,45.1723306 C37.246246,47.6912769 37.7017422,51.3552247 37.7017422,51.3552247 L38.8404117,50.2102231 C38.8404117,52.843784 39.7512619,54.5611434 39.7512619,54.5611434 L40.4344351,53.4161418 C41.3452853,56.0495596 43.2811088,58.3395628 43.2811088,58.3395628 L43.5087858,57.1945612 C46.1276403,61.5454814 53.505655,64.1976439 53.505655,64.1976439 C47.4935598,62.2715171 40.6790456,60.0885448 34.2010664,48.2905354 C33.3687647,46.7745029 32.4872279,45.8869192 30.6588395,45.5294818 C28.6419061,45.1351273 26.4324433,45.8156606 24.4374238,47.4454492 C23.5686938,48.1553159 23.0705081,49.1806947 23.0705081,50.2590166 C23.0705081,50.8722979 23.1978649,51.450093 23.4407678,51.9549125 C22.9579503,51.2034068 22.6643893,50.3045191 22.6377796,49.3266459 C22.6024897,48.0311142 23.0777653,46.8052671 23.9641403,45.8874915 C24.9657767,44.8727013 26.5915326,44.2406753 28.1637844,43.6295404 C29.8884375,42.9591664 31.5174663,42.3258526 32.4755595,41.1167469 C33.0948409,40.3354787 33.3831368,39.3737746 33.5184623,38.6065291 C33.7235139,37.4439275 33.8209881,36.2182235 35.7087149,34.2143991 L36.2475978,33.6424707 L36.132194,32.9016967 C36.1228024,32.7179699 36.0711482,30.209183 39.7825675,26.5692741 C41.7763063,24.1510628 42.4351466,21.229606 42.4351466,17.2152321 C42.4351466,13.2007294 41.0226955,9.12497018 42.6507282,6.81234455 C43.2019911,6.0292018 43.4848797,5.51565385 44.6232646,5.51565385 C52.3840613,5.51565385 69.7782978,20.3660613 79.3027373,17.5612223 C79.3027373,17.5612223 78.3329756,20.136832 74.0556367,20.8249491 L75.5351102,19.4571572 C75.5351102,19.4571572 72.7876182,20.348032 69.1947332,19.2582629 L70.9539648,18.2813914 C70.9539648,18.2813914 67.6219122,18.7135215 64.7133388,17.2799085 L66.5599414,16.5263996 C66.5599414,16.5263996 63.5955872,16.6730662 60.4589099,14.7804224 L61.5153311,14.4993948 C61.5153311,14.4993948 58.7379566,14.4055281 56.2855909,12.3981408 L57.039344,12.2547652 C57.039344,12.2547652 47.6054061,7.25792502 44.7538943,7.25792502 C44.0005681,7.25792502 43.5447872,8.66719848 43.5447872,9.98975975 C43.5447872,11.3122209 43.7280672,12.5018807 43.7280672,12.5018807 L44.3997143,11.4772316 C44.3997143,11.4772316 45.1675549,14.7508029 44.1410163,17.5034142 L45.4262529,16.0650793 C45.4262529,16.0650793 45.604837,19.3004743 43.6088214,22.5118303 L45.540376,21.570445 C45.540376,21.570445 44.7363916,24.4213587 41.1748122,27.956383" id="path96" fill="#CF1841"></path>
                        <path d="M29.6056912,52.677371 C30.1886865,52.157241 30.6184268,51.5096182 30.8821052,50.8021841 C31.0675197,51.1354394 31.2546417,51.4655467 31.4440405,51.7886426 C30.6016357,53.2242588 29.0599779,54.1290133 27.3824255,54.1290133 C26.7274273,54.1290133 26.1055845,53.9919336 25.5402342,53.7455336 C26.954962,54.043732 28.4591953,53.7006035 29.6056912,52.677371" id="path98" fill="#CF1841"></path>
                        <path d="M63.4410514,27.4060611 L64.6313751,26.8608904 C66.117252,27.4595765 67.3260744,27.9789912 68.8658823,28.7101781 C68.9798631,28.764409 70.1514034,30.8479342 70.1514034,30.8479342 C73.5823532,37.1865096 70.7479171,42.2156737 65.2813929,44.1044542 C65.2813929,44.1044542 73.4609729,37.4817031 67.59701,32.6728967 L69.077195,32.5011894 C69.077195,32.5011894 68.7356795,31.5278951 66.4014213,29.8677716 L67.7677678,29.5814497 C67.7677678,29.5814497 66.7999983,28.207505 63.4410514,27.4060611" id="path100" fill="#CF1841"></path>
                        <path d="M72.0227659,29.0291245 C79.367056,42.5970071 60.950123,46.8928379 63.2843812,51.7017873 C63.2843812,51.7017873 65.0266793,49.7278687 67.1729617,48.1099565 C69.50537,46.3516736 72.9344699,43.9270233 74.8984684,40.7673226 C75.4678032,39.851264 76.2430433,37.7459893 80.1210937,38.3194917 C80.1210937,38.3194917 79.5668426,43.6106526 82.6981125,46.3777159 C82.6981125,46.3777159 79.0945551,37.0864901 85.2539289,33.7316154 L83.371894,33.3874853 L79.6078244,32.2404805 L75.729774,30.6921098 L72.0227659,29.0291245" id="path102" fill="#CF1841"></path>
                        <path d="M56.0340078,27.1188806 L53.7146909,27.5471473 C53.7814288,27.0884026 53.982496,26.6405327 54.1714679,26.3005522 C55.0592658,25.7599603 55.7509769,24.9133002 56.807825,24.4824579 C58.7287072,24.4522661 61.1240113,25.0542433 61.1240113,25.0542433 L62.3215922,26.1724872 C52.9117027,28.2800513 53.4638194,35.0710755 53.4638194,35.0710755 C50.6874409,30.1296253 56.0340078,27.1188806 56.0340078,27.1188806" id="path104" fill="#CF1841"></path>
                        <path d="M83.3862661,24.6843571 C83.1355369,25.5317327 83.5638542,26.4320514 84.3770879,26.7673099 L84.922232,26.9919603 L84.5558143,28.6100155 C84.3785109,29.3930009 84.7635696,30.1951602 85.4833134,30.5427244 L86.1142632,30.8475049 C86.0352878,31.1458464 86.0391298,31.4501976 86.1148324,31.7336577 C82.6954088,31.7834529 77.9699731,29.564422 73.3603681,27.3986205 C67.451866,24.6226856 61.3421543,21.7520255 56.4512259,22.7998693 C56.4512259,22.7998693 61.7555303,19.7024125 74.3538936,25.9664384 C79.929845,28.7389391 82.8369954,29.4678367 82.8369954,29.4678367 C82.8369954,29.4678367 82.4961915,28.4521879 83.1806454,27.3051831 C83.1806454,27.3051831 81.8687991,25.9288059 83.3862661,24.6843571 L83.3862661,24.6843571" id="path106" fill="#CF1841"></path>
                        <path d="M136.44724,22.8177555 C136.44724,22.8177555 125.274703,21.520936 123.161719,36.6424836 C123.161719,36.6424836 121.904373,20.8823279 136.404408,20.9252548 L136.44724,22.8177555" id="path108" fill="#CF1841"></path>
                        <path d="M188.486655,34.1148089 C190.64674,35.2330528 193.256488,36.0073097 194.710774,36.243121 C195.366769,36.4471666 198.569899,37.054295 195.139092,36.6523568 C186.464599,35.6361357 182.235499,31.8004805 183.168974,30.7426204 C184.10245,29.6846171 189.578081,33.4265488 188.486655,34.1148089" id="path110" fill="#CF1841"></path>
                        <path d="M145.343291,70.0594454 L145.343291,70.0594454 C145.418709,72.8101966 140.585553,76.0961022 137.214084,78.0917704 C134.372391,79.7740728 131.433935,81.5134679 128.340516,84.4213312 C126.180715,86.5774027 126.180715,86.5774027 126.180715,86.5774027 C126.180715,86.5774027 125.824259,68.5279593 135.538666,63.6437448 C137.755671,62.5290781 139.024828,64.0588472 139.024828,64.0588472 C139.024828,64.0588472 145.343291,63.0245968 145.343291,70.0594454" id="path112" fill="#FFFFFF"></path>
                        <path d="M138.542295,65.7040894 L138.694127,67.041117 C139.986051,66.773826 141.201846,65.7804992 141.201846,65.7804992 L140.897898,67.2703463 C142.53148,66.9648504 143.671288,65.9715236 143.671288,65.9715236 C141.84788,70.7853381 135.76862,75.3317184 132.99523,77.3565769 C132.99523,77.3565769 133.603127,75.7519721 135.084735,74.1473673 C135.084735,74.1473673 134.628954,72.657377 136.148698,71.2055917 C136.148698,71.2055917 135.274703,69.7538064 136.300673,68.0727918 C137.326357,66.3917772 138.542295,65.7040894 138.542295,65.7040894" id="path114" fill="#CF1841"></path>
                        <path d="M135.538666,63.6437448 C137.755671,62.5290781 139.024828,64.0588472 139.024828,64.0588472 C139.024828,64.0588472 137.385696,63.7813968 136.150121,64.4004016 C128.318175,68.3244861 127.562003,83.584115 127.562003,83.584115 C134.552967,77.012733 141.012021,76.095816 145.343291,70.0594454 L145.343291,70.0594454 C145.418709,72.8101966 140.585553,76.0961022 137.214084,78.0917704 C134.372391,79.7740728 131.433935,81.5134679 128.340516,84.4213312 C126.180715,86.5774027 126.180715,86.5774027 126.180715,86.5774027 C126.180715,86.5774027 125.824259,68.5279593 135.538666,63.6437448" id="path116" fill="#CF1841"></path>
                        <path d="M90.9677672,28.4589131 L89.1308409,27.5495798 C92.8468138,25.5918303 97.5157571,25.2333912 104.625255,24.8483376 C100.307077,25.7008644 95.8528614,26.4100156 90.7491973,29.6727407 L90.9677672,28.4589131" id="path118" fill="#FFFFFF"></path>
                        <path d="M30.3950188,9.88574805 L30.623265,9.88574805 C30.8828167,9.88574805 31.1033788,9.98065926 31.1033788,10.2258573 C31.1033788,10.4001402 30.9773027,10.574137 30.623265,10.574137 C30.5209526,10.574137 30.4502305,10.56631 30.3950188,10.5582684 L30.3950188,9.88574805 Z M30.3950188,8.78597702 L30.0803977,8.78597702 L30.0803977,10.7720583 C30.2457481,10.7956537 30.4028452,10.8194066 30.6389178,10.8194066 C30.9378861,10.8194066 31.1346844,10.7561896 31.2526495,10.6691627 C31.370757,10.5820212 31.433795,10.4475458 31.433795,10.2576661 C31.433795,9.99652788 31.2607605,9.83824236 31.0481671,9.77502545 L31.0481671,9.75925699 C31.2212016,9.72750545 31.3393091,9.56927716 31.3785833,9.27650188 C31.4258263,8.96795815 31.4732116,8.84923685 31.5045172,8.78597702 L31.174101,8.78597702 C31.1267157,8.84923685 31.079615,9.03123229 31.0403407,9.29248497 C30.9930978,9.54562448 30.8671639,9.64047846 30.6154386,9.64047846 L30.3950188,9.64047846 L30.3950188,8.78597702 Z M30.725435,11.3258144 C29.9464952,11.3258144 29.3092842,10.6534514 29.3092842,9.82235943 C29.3092842,8.97584238 29.9464952,8.311378 30.733546,8.311378 C31.5203123,8.30349378 32.1496968,8.97584238 32.1496968,9.8144752 C32.1496968,10.6534514 31.5203123,11.3258144 30.733546,11.3258144 L30.725435,11.3258144 Z M30.733546,11.6028212 C31.7013155,11.6028212 32.4724289,10.8114079 32.4724289,9.82235943 C32.4724289,8.81759978 31.7013155,8.03418516 30.725435,8.03418516 C29.7576656,8.03418516 28.970757,8.81759978 28.970757,9.82235943 C28.970757,10.8114079 29.7576656,11.6028212 30.725435,11.6028212 L30.733546,11.6028212 L30.733546,11.6028212 Z" id="path120" fill="#CF1841"></path>
                    </g>
                </g>
            </g>
        </g>
    </g>
</svg>