<?xml version="1.0" encoding="UTF-8"?>
<svg width="200px" height="200px" viewBox="0 0 200 200" version="1.1" xmlns="http://www.w3.org/2000/svg" xmlns:xlink="http://www.w3.org/1999/xlink">
    <title>auburn</title>
    <g id="auburn" stroke="none" stroke-width="1" fill="none" fill-rule="evenodd">
        <g id="Group" transform="translate(0.000000, 0.000000)" fill-rule="nonzero">
            <g id="auburn" transform="translate(0.000000, 12.000000)">
                <g id="g12" transform="translate(100.000000, 88.899601) scale(-1, 1) rotate(-180.000000) translate(-100.000000, -88.899601) translate(0.000000, 0.899601)">
                    <path d="M99.9501292,31.743511 C74.2325998,31.743511 65.8278005,35.2980688 56.7604317,40.3218033 C56.0044469,40.7409343 55.3327466,41.1591313 54.700145,41.5780288 L81.6140454,41.5780288 L81.6140454,69.7893979 L65.2406188,69.7893979 L72.5057049,82.6701459 L129.390222,82.6701459 L136.752938,69.4127638 L118.345446,69.4127638 L118.345446,41.5780288 L145.200113,41.5780288 C144.566809,41.1591313 143.895109,40.7409343 143.138422,40.3218033 C134.072458,35.2980688 125.666956,31.743511 99.9501292,31.743511 L99.9501292,31.743511 Z M100.860167,132.832538 L113.157738,111.258616 L88.383258,111.258616 L100.860167,132.832538 Z M199.900258,124.409289 L199.900258,152.620658 L137.971785,152.620658 L137.971785,140.760068 L118.204504,175.724934 L81.7549877,175.724934 L61.9287078,140.65406 L61.9287078,152.620658 L0,152.620658 L0,124.409289 L12.4743105,124.409289 C12.4743105,124.409289 12.464688,89.9798372 12.4533564,69.4127638 L0.596740986,69.4127638 L0.596740986,41.5780288 L13.0249455,41.5780288 C14.2498797,33.8440695 17.7279012,25.4303941 27.2419074,18.4383083 C42.3016671,7.37154529 60.4289127,0 99.9501292,0 C139.470643,0.00191542401 157.598825,7.37154529 172.657649,18.4383083 C180.615974,24.2869486 184.290543,33.8006386 185.988874,41.5780288 L199.362711,41.5780288 L199.362711,69.4127638 L187.444186,69.4127638 L187.444186,124.409289 L199.900258,124.409289 L199.900258,124.409289 Z" id="path14" fill="#FFFFFF"></path>
                    <path d="M145.876964,35.4075799 C135.671287,29.7522301 126.032423,26.1194501 99.9501292,26.1194501 C73.8680696,26.1194501 64.2280347,29.7522301 54.0225916,35.4075799 C50.4756206,37.3717749 47.9971893,39.429603 46.2487551,41.5780288 L18.755399,41.5780288 C19.9464086,35.1740807 22.9964993,28.5443389 30.5858933,22.9655535 C44.9505403,12.4100136 61.7720792,5.62403754 99.9501292,5.62403754 C138.128413,5.62403754 154.949718,12.4100136 169.313663,22.9655535 C176.903244,28.5443389 179.954107,35.1740807 181.144157,41.5780288 L153.651737,41.5780288 C151.903303,39.429603 149.423701,37.3717749 145.876964,35.4075799" id="path16" fill="#0C2950"></path>
                    <path d="M157.59625,130.786618 C157.59625,128.271365 157.59625,118.138202 157.59625,106.047615 L178.307283,69.4127638 L181.787997,69.4127638 C181.787997,90.6957457 181.787997,130.031715 181.787997,130.031715 L194.262096,130.031715 L194.262096,146.997531 L143.609947,146.997531 L143.609947,130.786618 L143.609947,130.786618 L157.59625,130.786618" id="path18" fill="#0C2950"></path>
                    <path d="M42.3042424,105.94184 C42.3042424,118.079127 42.3042424,128.26436 42.3042424,130.786618 L56.2905459,130.786618 L56.2905459,146.997531 L5.63816199,146.997531 L5.63816199,130.031715 L18.1124725,130.031715 C18.1124725,130.031715 18.1124725,90.6957457 18.1124725,69.4127638 L21.6523026,69.4127638 L42.3042424,105.94184" id="path20" fill="#0C2950"></path>
                    <path d="M78.6231177,105.634555 L122.84928,105.634555 L100.894817,144.148141 L78.6231177,105.634555 Z M86.5606066,170.102741 L114.910855,170.102741 L175.013399,63.7887029 L193.724549,63.7887029 L193.724549,47.2013892 L123.983608,47.2013892 L123.983608,63.7887029 L146.320628,63.7887029 L132.712903,88.2942067 L69.2085438,88.2942067 L55.5998815,64.1660375 L75.9768199,64.1660375 L75.9768199,47.2013892 L6.23491936,47.2013892 L6.23491936,63.7887029 L24.9458583,63.7887029 L85.048637,170.102741 L113.398885,170.102741 L86.5606066,170.102741 Z" id="path22" fill="#0C2950"></path>
                </g>
            </g>
        </g>
    </g>
</svg>