<?xml version="1.0" encoding="UTF-8"?>
<svg width="200px" height="200px" viewBox="0 0 200 200" version="1.1" xmlns="http://www.w3.org/2000/svg" xmlns:xlink="http://www.w3.org/1999/xlink">
    <!-- Generator: Sketch 54.1 (76490) - https://sketchapp.com -->
    <title>austin-peay</title>
    <desc>Created with Sketch.</desc>
    <g id="austin-peay" stroke="none" stroke-width="1" fill="none" fill-rule="evenodd">
        <g id="austin-peay_BGD" transform="translate(0.000000, 0.000000)">
            <g id="austin-peay" transform="translate(11.000000, 0.000000)">
                <g id="g10" transform="translate(89.500000, 100.309995) scale(-1, 1) rotate(-180.000000) translate(-89.500000, -100.309995) translate(0.000000, 0.807508)" fill-rule="nonzero">
                    <g id="g12">
                        <path d="M134.862789,111.182913 C154.787309,98.6248179 178.41623,100.867237 178.41623,100.867237 C178.41623,100.867237 154.251461,23.5565593 89.2111097,0.000535966962 C24.1670728,23.5565593 0,100.867237 0,100.867237 C0,100.867237 23.6233459,98.6421975 43.54828,111.200293 L42.3103925,113.222723 L44.5590195,116.81846 L44.5590195,116.81846 C44.5590195,116.81846 44.7545142,117.154617 45.0336344,117.775708 C33.7701806,123.92944 33.133429,131.689408 33.8873484,136.034295 C35.4081803,144.374648 42.1838715,149.808044 51.2451416,150.061419 C51.4312831,152.221971 51.5261969,154.401275 51.5261969,156.574633 C51.5261969,165.547054 49.9610412,174.323725 47.003049,181.95792 C45.8507682,184.915645 46.8353373,188.317463 49.4007735,190.22464 C59.9306729,198.042235 87.9859849,198.130047 89.1774752,198.130047 C90.3648188,198.130047 118.424278,198.042235 128.950952,190.223725 C131.509938,188.327982 132.500542,184.929823 131.353744,181.964323 C128.393909,174.323725 126.828754,165.547054 126.828754,156.574633 C126.828754,154.527963 126.940254,152.372899 127.169245,150.061877 C136.301701,149.825423 143.135031,144.390656 144.649965,136.079573 C145.409276,131.692609 144.769299,123.92944 133.51142,117.776622 C133.798004,117.135408 134.004419,116.78736 134.008105,116.779128 L136.139518,113.222723 L134.862789,111.182913" id="path14" fill="#A9AFB3"></path>
                        <path d="M125.936748,110.690798 C125.588885,111.054396 125.220288,111.409305 124.822203,111.744547 L129.689528,114.170823 C129.689528,114.170823 128.252921,116.472241 127.342486,120.395903 C133.068182,122.779645 141.001775,127.520603 139.678051,135.184069 C138.334514,142.536075 131.40028,146.263988 122.744697,144.700743 C122.169685,148.569065 121.776669,152.536175 121.776669,156.574633 C121.776669,166.157625 123.455629,175.558131 126.63524,183.760363 C126.975732,184.641689 126.686844,185.641013 125.922005,186.206763 C118.292504,191.872495 96.6567724,193.113303 89.1774752,193.113303 C81.6963352,193.113303 60.0629071,191.872495 52.42926,186.206763 C51.6658031,185.641013 51.3755328,184.641689 51.7215534,183.760363 C54.8993217,175.558131 56.5801247,166.157625 56.5801247,156.574633 C56.5801247,152.536175 56.2801788,148.56815 55.7051672,144.698914 C47.0514274,146.263988 40.208928,142.536075 38.8684783,135.183154 C37.5414825,127.520603 45.476596,122.779645 51.2004492,120.395903 C50.2923179,116.472241 48.8534068,114.170823 48.8534068,114.170823 L53.723036,111.744547 C53.4396769,111.50535 53.1719832,111.252431 52.9093578,110.998141 C41.0073555,103.586221 28.2529262,95.8504932 7.37862401,95.8504932 C21.8942566,58.6431681 51.8238391,18.8248859 89.2111097,5.336939 C126.593773,18.8248859 156.523862,58.6431681 171.039679,95.8504932 C150.360918,95.8504932 137.673343,103.374465 125.936748,110.690798" id="path16" fill="#000000"></path>
                        <path d="M98.4790246,119.20952 C98.4605947,119.014686 98.4214313,118.828085 98.4214313,118.62822 C98.4214313,114.507895 101.628687,111.166906 105.591568,111.166906 C109.556751,111.166906 112.769076,114.507895 112.769076,118.62822 C112.769076,120.902197 111.769256,122.913651 110.22852,124.281604 C108.757817,123.839798 106.950309,123.029819 104.774664,121.60058 C102.168682,119.886408 100.076433,119.287271 98.4790246,119.20952" id="path18" fill="#FFFFFF"></path>
                        <path d="M89.1774752,123.45013 C87.2303608,123.45013 85.5532437,116.892552 85.0731459,114.365657 C85.0505693,114.272357 84.9819181,114.19735 84.8888473,114.177226 C84.7976195,114.149328 84.7008627,114.186374 84.6414265,114.262295 C84.5796864,114.341417 83.1278744,116.204231 82.4150996,118.414177 L79.2728088,119.635319 C78.9880675,119.068197 78.0481448,117.668686 75.7287471,117.668686 C73.5153212,117.668686 70.6471746,118.923215 67.2049378,121.393398 C67.1141708,121.461086 67.0763896,121.579542 67.1215427,121.680618 C67.1639314,121.785352 67.2740498,121.851669 67.3837075,121.826057 L71.8008837,121.126301 C71.7677099,121.557131 71.7285465,122.363451 71.8068734,123.089733 C71.3636353,123.283652 70.010423,123.81693 68.480284,123.81693 C66.961203,123.81693 65.6955325,123.304233 64.7146033,122.291646 C62.9144669,120.428375 62.1086214,116.925939 62.3187217,111.879467 C62.3210255,111.798058 62.285548,111.718935 62.216436,111.673657 C62.1477848,111.626549 62.063929,111.615115 61.9856021,111.646673 C61.8552108,111.699269 59.0133267,112.892969 57.8011028,117.014666 C57.4140758,114.478167 57.0643692,108.203693 62.5702893,106.263587 C62.6670461,106.231114 62.7320113,106.140558 62.7320113,106.039024 C62.7320113,106.039024 62.7320113,104.502307 62.7564309,102.629889 C66.0304951,102.685229 69.5763998,103.477828 73.2992311,104.988477 C76.2664382,106.196812 78.9152696,106.947792 81.1733879,107.224035 C81.8898487,108.48451 82.7892257,109.557011 83.8480211,110.411353 C83.922662,110.477212 84.0323196,110.48453 84.1198615,110.434678 C84.2074033,110.383911 84.2557817,110.286952 84.2391948,110.187706 C84.2355088,110.165752 83.8839593,107.870737 83.8332772,106.969288 L89.272389,105.457724 L94.689385,106.963799 C92.3589295,121.300097 90.2367313,123.45013 89.1774752,123.45013" id="path20" fill="#FFFFFF"></path>
                        <path d="M83.7867418,86.9645134 C82.7256427,86.9645134 81.5848345,86.7125099 80.4901009,86.2318282 C80.413617,86.1988985 80.326536,86.2053015 80.253738,86.253324 C80.1850868,86.3004317 80.1459234,86.3800117 80.1496093,86.4618785 C80.1551383,86.6082326 80.3988732,90.046639 89.272389,90.046639 C97.2096681,90.046639 97.4050246,90.9206473 97.7008238,92.2410356 C97.7008238,92.2474386 97.7026668,92.2529268 97.7045098,92.2575004 C97.4160825,92.2387488 96.9562576,92.2145089 96.375717,92.2145089 C94.398654,92.2145089 91.5807287,92.4765742 89.2908189,93.7068632 C88.7287082,93.3021027 86.4153003,91.8399339 82.4726929,91.8399339 C78.2287574,91.8399339 76.9704588,90.5817461 76.9589402,90.5698548 C76.9105618,90.5222898 76.8396068,90.5003366 76.7820135,90.4939336 C76.7133623,90.4939336 76.652083,90.5204603 76.6037046,90.5698548 C76.5774421,90.6009551 75.9651101,91.264122 75.747177,92.4756595 C71.5700497,91.9455833 67.404441,91.9629628 63.8806522,92.5534101 C65.0758285,89.179491 67.3726495,86.2318282 70.7066108,83.787715 C70.7176688,84.7161487 70.849903,86.7481837 71.7285465,87.9405122 C71.7769248,88.00317 71.8474191,88.0374718 71.923903,88.0374718 C71.9404898,88.0374718 71.9575375,88.0374718 71.9722813,88.0347276 C72.0671951,88.0141466 72.141836,87.9423416 72.1602659,87.8508703 C72.1786958,87.7694608 74.0069377,79.8000234 78.7494009,75.5667315 C80.3560237,74.132004 82.1598461,73.3421493 83.8222193,73.3421493 C86.9829399,73.3421493 89.0304971,76.0501573 89.0304971,80.2418298 C89.0304971,86.0918771 85.7449142,86.9645134 83.7867418,86.9645134" id="path22" fill="#FFFFFF"></path>
                        <path d="M96.5825922,86.6315578 C94.7672512,86.8648096 93.2596888,86.6626581 92.1373104,86.036537 C91.9451792,85.1863112 91.5341933,82.7856468 92.1838458,80.0081207 C92.5635009,81.2256037 93.4720929,83.3106921 95.3293618,83.9509912 C98.8324171,85.1588698 98.8715805,85.8041999 98.8646693,85.8755475 C98.8549937,85.9510113 98.7080156,86.3557718 96.5825922,86.6315578" id="path24" fill="#FFFFFF"></path>
                        <path d="M122.260913,119.697062 C122.260913,119.697062 122.056342,115.797641 121.151436,114.065174 C120.248373,112.330421 119.342085,109.729434 120.146087,108.645957 C120.146087,108.645957 125.983745,109.836913 122.260913,119.697062" id="path26" fill="#FFFFFF"></path>
                        <path d="M63.519427,126.110573 C63.519427,126.110573 67.566163,128.715218 74.9689762,124.465461 C82.3704072,120.221193 84.8796324,122.838644 84.8796324,122.838644 C84.8796324,122.838644 71.923903,133.727388 63.519427,126.110573" id="path28" fill="#FFFFFF"></path>
                        <path d="M102.017557,112.16623 L110.894759,120.941072 C110.630751,121.559875 110.29026,122.136145 109.880195,122.650671 L100.411395,113.480672 C100.880435,112.967061 101.421812,112.52434 102.017557,112.16623" id="path30" fill="#9FA7AA"></path>
                        <path d="M111.496033,118.404115 L104.171086,111.315089 C104.632754,111.217215 105.105941,111.166906 105.591568,111.166906 C105.725645,111.166906 105.854193,111.180169 105.984584,111.187487 L111.393748,116.542217 C111.473917,116.983109 111.519992,117.435892 111.519992,117.901481 C111.519992,118.06933 111.505248,118.237638 111.496033,118.404115" id="path32" fill="#9FA7AA"></path>
                        <path d="M115.027194,126.110573 C115.027194,126.110573 110.978615,128.715218 103.579488,124.465461 C96.1766746,120.221193 93.6651457,122.838644 93.6651457,122.838644 C93.6651457,122.838644 106.623179,133.727388 115.027194,126.110573" id="path34" fill="#FFFFFF"></path>
                        <path d="M70.4813058,184.65175 C65.8650872,184.15186 61.2488685,182.530531 61.2488685,182.530531 C61.2488685,182.530531 66.3189224,173.571831 65.0219212,152.237979 C67.1639314,152.446533 70.3753341,152.715459 70.4813058,152.938192 L70.4813058,184.65175" id="path36" fill="#FFFFFF"></path>
                        <path d="M83.1799387,104.700342 C80.7785282,104.700342 77.6459131,103.91872 73.8558128,102.377428 C68.485813,100.196752 63.2217848,99.6666761 58.4788608,100.823788 C55.6848944,101.832717 54.0372651,103.887162 54.0372651,106.331733 C54.0372651,106.583279 54.0543127,106.833453 54.0856434,107.080883 C53.2645933,106.110829 52.812601,104.906152 52.812601,103.644306 C52.812601,102.345871 53.3060604,101.07945 54.2012908,100.080126 C55.3554606,98.7254363 57.1703409,97.5321932 59.5993962,96.5264662 C62.3541992,95.385819 65.9374243,94.7834805 69.9657306,94.7834805 C79.4534214,94.7834805 88.0979463,98.0297971 88.0979463,101.595806 C88.0924174,101.704199 87.8763273,104.700342 83.1799387,104.700342" id="path38" fill="#FFFFFF"></path>
                        <path d="M124.81437,107.078139 C124.846162,106.830709 124.862748,106.582364 124.862748,106.331733 C124.862748,103.887162 123.217423,101.832717 120.458934,100.835679 C118.785503,100.424516 117.072908,100.224194 115.332669,100.224194 C112.020823,100.224194 108.558775,100.949104 105.042358,102.377428 C101.256404,103.91872 98.1196423,104.700342 95.7219178,104.700342 C91.024147,104.700342 90.8098999,101.706029 90.802528,101.577512 C90.802528,99.8711144 92.8445562,98.1295008 96.4056655,96.8196317 C99.9197787,95.5234833 104.485776,94.7834805 108.932901,94.7834805 C112.957521,94.7834805 116.540746,95.385819 119.297392,96.5264662 C121.730594,97.5335652 123.5487,98.7272658 124.695498,100.072351 C125.594414,101.078536 126.08603,102.344041 126.08603,103.644306 C126.08603,104.905238 125.633577,106.107171 124.81437,107.078139" id="path40" fill="#FFFFFF"></path>
                        <path d="M89.2221677,128.665366 C91.7498227,128.674514 104.074329,128.334698 117.253521,135.577853 C130.179302,142.840217 134.713508,137.655624 134.803353,137.650135 C134.654071,137.659282 130.750627,147.058874 113.958723,137.209244 C106.483112,132.918782 97.2557427,131.763042 89.2184817,131.799173 C81.1844458,131.745663 71.9533907,132.899573 64.4690254,137.124175 C47.6471726,146.781716 43.7548787,137.479084 43.6170234,137.484572 C43.7027222,137.479999 48.2277131,142.61657 61.1723846,135.492785 C74.3621732,128.362139 88.3098897,128.662622 89.2221677,128.665366" id="path42" fill="#A9AFB3"></path>
                        <path d="M110.686502,144.518716 L114.751668,148.286419 C111.008103,148.596964 101.602425,149.254642 89.276075,149.254642 L89.272389,149.254642 L89.2650171,149.254642 C76.9423533,149.254642 67.5422042,148.596964 63.7931104,148.289163 L67.8582763,144.518716 L61.8049894,142.965075 C61.7902456,142.9262 61.7755017,142.887325 61.76214,142.847535 C62.6260396,142.411674 63.523113,141.928248 64.4690254,141.375762 C71.9533907,137.06975 81.1844458,135.893429 89.2184817,135.948312 C97.2557427,135.910351 106.483112,137.089874 113.958723,141.461745 C114.912007,142.030696 115.816453,142.529672 116.687263,142.976967 L110.686502,144.518716" id="path44" fill="#C21B32"></path>
                        <path d="M80.5684278,52.9829237 C74.9187549,55.4599667 67.3781785,59.5533075 60.697355,65.7262485 C64.4109714,57.7860819 70.4550433,48.2131526 84.7437122,38.9031574 L86.0351845,44.9334947 C83.0255887,47.5884035 81.4079079,50.7455356 80.5684278,52.9829237" id="path46" fill="#FFFFFF"></path>
                        <path d="M97.8514879,52.9829237 C103.497475,55.4599667 111.038512,59.5533075 117.722561,65.7262485 C114.007101,57.7860819 107.961186,48.2131526 93.6725176,38.9031574 L92.3847313,44.9334947 C95.3911019,47.5884035 97.0101649,50.7455356 97.8514879,52.9829237" id="path48" fill="#FFFFFF"></path>
                        <path d="M93.2596888,66.9574523 L89.2111097,60.0756087 L85.1588447,66.9574523 C85.1588447,66.9574523 70.684495,71.6673097 61.8722584,84.0849967 L62.223808,77.496776 C62.223808,77.496776 62.907095,66.6414189 84.7828756,57.1014192 C86.0835628,57.3575389 87.6210737,57.5061797 89.272389,57.5061797 C90.8900698,57.5061797 92.3902602,57.3639419 93.6725176,57.1201708 C115.512821,66.6533102 116.194265,77.496776 116.194265,77.496776 L116.548118,84.0849967 C107.734499,71.6673097 93.2596888,66.9574523 93.2596888,66.9574523" id="path50" fill="#FFFFFF"></path>
                        <path d="M51.5317259,95.5326305 C43.5835732,90.7143795 34.9242123,86.1394422 23.5414252,84.0461214 C25.1666622,80.5070966 28.1075146,74.7178778 32.6067958,68.0098296 L46.839484,65.7843328 L43.5277768,54.0110612 C51.2787761,45.4488897 61.3658981,36.8080987 74.2004512,30.1735478 C74.2004512,30.1735478 44.3189706,64.6816462 51.5317259,95.5326305" id="path52" fill="#C21B32"></path>
                        <path d="M145.81335,68.0098296 C150.310696,74.7178778 153.253945,80.5070966 154.874851,84.0461214 C143.493953,86.1394422 134.834684,90.7143795 126.88819,95.5326305 C134.09749,64.6816462 104.215779,30.1735478 104.215779,30.1735478 C117.052175,36.8080987 127.1416,45.4488897 134.890434,54.0110612 L131.577206,65.7843328 L145.81335,68.0098296" id="path54" fill="#C21B32"></path>
                        <path d="M141.519193,17.466903 L143.441888,17.466903 L144.983085,14.9716572 L146.545016,17.466903 L148.447438,17.466903 L148.447438,11.0090746 L146.650987,11.0090746 L146.650987,14.7831349 L145.003358,12.2246368 L144.940697,12.2246368 L143.292606,14.7831349 L143.292606,11.0090746 L141.519193,11.0090746 L141.519193,17.466903 Z M136.746321,15.894557 L134.803353,15.894557 L134.803353,17.466903 L140.506473,17.466903 L140.506473,15.894557 L138.561201,15.894557 L138.561201,11.0090746 L136.746321,11.0090746 L136.746321,15.894557 L136.746321,15.894557 Z" id="path56" fill="#A9AFB3"></path>
                    </g>
                </g>
            </g>
        </g>
    </g>
</svg>