<?xml version="1.0" encoding="UTF-8"?>
<svg width="200px" height="200px" viewBox="0 0 200 200" version="1.1" xmlns="http://www.w3.org/2000/svg" xmlns:xlink="http://www.w3.org/1999/xlink">
    <!-- Generator: Sketch 54.1 (76490) - https://sketchapp.com -->
    <title>bellarmine</title>
    <desc>Created with Sketch.</desc>
    <g id="bellarmine" stroke="none" stroke-width="1" fill="none" fill-rule="evenodd">
        <g id="bellarmine_BGD">
            <g id="bellarmine" transform="translate(30.000000, 0.000000)">
                <g transform="translate(0.000000, 0.697908)" fill-rule="nonzero" id="g10">
                    <g transform="translate(70.328882, 99.484351) scale(-1, 1) rotate(-180.000000) translate(-70.328882, -99.484351) translate(0.000000, 0.099703)">
                        <g id="g12">
                            <path d="M0,106.616939 C1.95052678,101.522115 19.2930024,56.4187025 19.2930024,56.4187025 C19.2930024,56.4187025 23.501227,58.4498208 24.8897748,59.1788104 C26.484706,54.6057239 28.581146,48.9430778 37.5670033,48.9430778 C39.7172769,48.9430778 42.5694327,49.4895035 43.9995386,49.8555175 C33.8123361,37.0650298 30.5731157,11.3612858 29.3892888,0 C84.5670277,39.5525579 115.564674,39.4194964 122.357805,39.4194964 C132.679911,39.4194964 136.086386,38.7143085 139.757554,37.7712305 C133.613367,51.3026086 125.133494,60.8246708 122.126487,64.2746474 C120.358291,66.3309601 114.815352,71.4327476 114.815352,75.2654501 C114.815352,82.2633954 119.710498,85.6436129 125.701879,95.2783531 C130.024036,102.217427 133.815403,111.872044 133.815403,128.359388 C133.815403,155.185647 112.735024,167.04597 87.326733,167.04597 C50.2981932,167.04597 38.2878104,146.504366 36.7777854,144.378674 C35.6989403,144.674929 33.5461093,145.451015 33.5461093,145.451015 C33.5461093,145.451015 16.6132163,107.754355 15.2545902,104.909802 C10.1422431,105.281133 3.83612082,105.904281 0,106.616939 L0,106.616939" id="path14" fill="#231F20"></path>
                            <path d="M119.539151,196.185296 L117.92082,195.462383 C112.598585,193.089812 102.697686,188.668778 87.1543633,191.367989 C83.7128515,191.959233 80.9796154,192.793557 78.3132557,193.58357 C75.9581332,194.300152 73.7119566,194.957231 71.2454588,195.385154 C62.6841322,196.887951 56.1157983,196.08781 51.7102693,193.034106 C48.7632334,190.971716 46.8625634,187.918012 46.1982751,184.179377 C46.0299973,183.250099 45.9734785,182.35627 45.9734785,181.532074 C45.9734785,177.99474 47.2497559,175.247419 48.2387078,173.14958 C48.7182229,172.168394 49.149275,171.236584 49.2926181,170.551653 C49.1427536,170.517469 48.9255013,170.478222 48.9255013,170.478222 C48.0914008,170.387067 47.0064179,170.256664 45.9060906,169.827474 C44.9420735,169.460321 43.8730744,169.028599 42.8232561,168.4133 C40.6199161,167.153584 39.3351993,165.458348 38.9505642,163.285812 C38.9306164,163.136419 38.9306164,162.976897 38.9306164,162.833833 C38.9306164,162.047619 39.2502931,161.257606 39.6364626,160.399226 C38.5184891,159.154702 33.6758981,153.862628 33.6758981,153.862628 L37.4171389,153.220743 L42.8232561,152.305391 C47.6368205,151.449544 51.3256342,153.408117 53.5308922,154.57288 L54.0353421,154.84508 L54.1453109,154.879263 C62.9478016,160.709407 74.2164065,163.683351 87.5629102,163.683351 C91.4026114,163.683351 95.0653395,163.321261 98.5542914,162.708495 C98.5652883,162.68444 98.6102988,162.565432 98.6102988,162.565432 L99.7456627,162.326149 C109.304509,160.22831 112.735024,164.545528 115.219935,167.69292 L118.079635,171.1353 L115.642036,172.255751 C115.642036,172.255751 115.117638,172.492502 114.952813,172.576061 C117.095542,173.987703 118.978694,175.914626 120.495624,178.482168 L122.036594,181.052242 C122.036594,181.052242 117.745892,181.800476 116.691982,181.984052 C119.768935,184.898491 121.760904,188.947308 122.448721,193.983641 L122.958158,197.66657 L119.539151,196.185296 L119.539151,196.185296" id="path16" fill="#231F20"></path>
                            <path d="M86.994525,162.716091 C115.403301,162.716091 129.38724,148.19707 129.38724,129.506426 C129.38724,106.638208 105.567232,98.6452771 87.3766026,94.1240986 C87.5629102,96.1473674 88.110964,99.239686 88.4205389,101.070136 C89.1313721,104.467572 90.1239045,104.467572 92.2092197,106.878124 C94.2546393,109.218791 98.5094088,113.329897 98.5094088,120.050325 C98.5094088,128.299884 93.0534221,134.612391 83.0585371,134.612391 C74.7309582,134.612391 70.3003665,129.72925 65.0317103,129.72925 C60.8224628,129.72925 56.6951804,130.623079 55.1817029,130.995297 C56.5827821,132.460112 58.308525,134.146486 59.8010317,135.71132 C60.3764498,136.320288 60.408929,136.654524 60.408929,137.043201 C60.408929,137.937029 59.7396538,138.529539 58.9678263,138.529539 C58.01877,138.529539 57.5667471,138.156056 56.6277926,137.239438 C55.5812988,136.188619 52.9564971,133.360271 51.749142,131.958758 C51.1682254,132.123344 49.4739387,132.719652 48.6897077,133.067815 C51.2606759,136.284839 54.5973338,139.825971 57.3620261,142.098524 C58.0512491,142.650521 58.1777132,143.02527 58.1777132,143.544349 C58.1777132,144.487554 57.4369583,145.175017 56.5518374,145.175017 C55.7786033,145.175017 55.4938352,144.945863 54.6472034,144.267262 C52.0048834,142.222597 47.9979273,137.600261 45.7103206,134.512374 C44.9869561,134.89472 43.8871402,135.597376 43.1529067,136.093666 C46.7178138,141.098348 51.6467175,146.132148 56.9100032,149.685941 C57.619174,150.169571 58.0862857,150.360744 58.0862857,151.254572 C58.0862857,152.016732 57.4569061,152.813076 56.4528654,152.813076 C55.7786033,152.813076 55.3315673,152.507958 54.7346669,152.11042 C51.7317516,150.131589 45.5314295,145.102853 40.633854,138.177578 C39.8537149,138.911885 39.2502931,139.627202 38.8771664,140.136152 C42.4795396,145.04588 54.187764,162.716091 86.994525,162.716091 L86.994525,162.716091" id="path18" fill="#BDBCBC"></path>
                            <path d="M82.0544964,70.7338899 C78.377191,68.584143 53.9344521,57.5799203 49.5423495,56.1263723 C45.1792736,54.6957398 41.51207,53.2525734 37.4231488,53.2525734 C32.0800718,53.2525734 30.4717142,55.8682254 28.8308775,61.210815 C31.0411224,62.2998681 38.2663281,66.1380146 40.2268416,67.2929022 C46.0374138,70.6809692 48.907983,73.8950814 50.5463902,76.0616667 C52.7605992,79.0077569 55.2267134,82.3959504 57.5967967,86.7958418 C59.2850735,89.9709597 60.1306823,91.362598 64.2615451,94.6800196 C71.7648696,100.634869 85.0989698,111.315617 86.8661428,112.83981 C88.647893,114.359573 90.3411568,115.994039 90.3411568,119.81598 C90.3411568,122.786758 87.8062481,126.762903 82.7503688,126.762903 C78.9776718,126.762903 74.1725469,123.920756 70.2164833,121.433607 C62.9613559,116.954461 53.0238849,110.352282 47.4170107,108.864171 C45.7936923,109.347295 31.2549222,113.84176 31.2549222,113.84176 C31.2549222,113.84176 27.1824964,105.785653 26.7369949,104.909802 C26.1684818,104.889039 21.9727886,104.690649 19.9897698,104.728251 C19.9897698,104.728251 34.0081062,136.230399 34.9970581,138.143395 C38.2312916,132.776624 49.7861989,125.482044 65.8009804,125.482044 C71.2279405,125.482044 75.5600718,130.290109 82.5929599,130.290109 C90.8646594,130.290109 94.1563068,125.145276 94.1563068,119.799141 C94.1563068,114.620252 91.0119664,111.997636 88.9474941,109.796361 C86.8661428,107.583818 84.7732831,105.504211 84.1389166,101.904334 C82.5465429,92.9550312 82.3182937,81.4290707 82.0544964,70.7338899 L82.0544964,70.7338899" id="path20" fill="#BDBCBC"></path>
                            <path d="M21.6505544,62.4031775 C21.6505544,62.4031775 8.65873847,96.2803023 6.72469422,101.309925 C8.13327942,101.160025 11.5308421,100.770336 17.4448873,100.770336 C28.5736017,100.770336 45.7662001,102.036889 56.1721893,108.169365 C63.1201713,112.26224 70.7434385,117.274518 75.9581332,120.421783 C77.5405331,121.396006 79.6385075,122.992997 82.093497,122.992997 C84.6433665,122.992997 86.2168154,121.156216 86.2168154,119.111298 C86.2168154,117.900578 85.7223394,116.801143 84.4085959,115.71956 C83.0001002,114.582144 69.76689,104.516061 62.5866948,98.8891177 C57.4959067,94.8891704 56.7800866,93.8249318 53.8280637,88.9901535 C45.8861428,75.9503812 41.7152565,72.9979609 36.860262,70.3823088 C29.8148425,66.5698631 21.6505544,62.4031775 21.6505544,62.4031775 L21.6505544,62.4031775" id="path22" fill="#BDBCBC"></path>
                            <path d="M87.1168972,90.5420733 C103.644184,94.2076576 119.245944,100.770336 127.715843,110.137181 C127.173927,108.624255 124.543115,102.433035 123.376678,100.642339 C114.913812,94.9796928 101.878418,89.4980913 86.9395406,86.6069476 C86.9761116,86.9699231 87.088382,89.9709597 87.1168972,90.5420733 L87.1168972,90.5420733" id="path24" fill="#BDBCBC"></path>
                            <path d="M86.7997779,83.1955854 C98.0209428,85.3834403 112.41637,90.2626568 120.120068,94.8297929 C118.926267,93.105311 115.747018,89.5227793 114.394274,87.1465366 C109.775456,85.3340645 96.0229632,80.8899882 86.7138488,79.0918224 C86.7337966,79.8148615 86.7862236,82.5244542 86.7997779,83.1955854 L86.7997779,83.1955854" id="path26" fill="#BDBCBC"></path>
                            <path d="M86.7587314,75.6338696 C94.037387,77.0285464 106.784561,80.3544505 111.839417,82.0794388 C111.407342,80.5596766 110.627075,77.1788261 110.372357,75.2838078 C106.925858,75.7842759 97.269191,74.8941187 86.6887861,72.1809811 C86.7013175,72.980616 86.7337966,74.8204348 86.7587314,75.6338696 L86.7587314,75.6338696" id="path28" fill="#BDBCBC"></path>
                            <path d="M79.8133068,63.3987965 C86.4815077,66.6296205 99.621756,71.9197957 111.496212,70.2541849 C112.203081,69.1236054 114.415756,66.4308512 114.836323,65.9446893 C100.687175,66.0243237 90.0988418,62.5501655 80.2737692,57.7332385 C80.2238996,59.061068 79.8592124,62.3795025 79.8133068,63.3987965 L79.8133068,63.3987965" id="path30" fill="#BDBCBC"></path>
                            <path d="M82.4081868,53.9587742 C94.5144726,60.5842486 109.353483,63.4709611 118.904785,61.4260429 C119.870336,60.4132057 121.971635,57.7771703 123.639964,55.6071667 C106.291491,56.7935788 94.3660147,52.0636292 83.1224725,46.6449503 C83.0001002,48.0049374 82.5140637,52.8638972 82.4081868,53.9587742 L82.4081868,53.9587742" id="path32" fill="#BDBCBC"></path>
                            <path d="M84.9530693,42.7241309 C97.9274693,48.7591213 112.195537,52.8979538 127.048997,50.9454569 C128.816937,48.8288804 130.971558,45.2003912 131.898621,43.4303317 C130.787424,43.5252852 127.767247,43.743425 122.748322,43.743425 C105.267503,43.743425 88.647893,37.3014007 85.4760605,36.1747459 C85.3437143,37.9066975 85.0904025,41.1870239 84.9530693,42.7241309 L84.9530693,42.7241309" id="path34" fill="#BDBCBC"></path>
                            <path d="M52.1772531,52.5221912 C58.7406,55.1793696 73.4582612,61.6806448 75.6709357,62.8176811 C75.7558418,60.8968354 75.8682401,58.2989081 75.9906124,56.5531566 C70.5736262,54.1017108 58.1287388,48.8881314 41.5854677,36.5125271 C43.3486767,40.9428036 46.8625634,47.8516192 52.1772531,52.5221912 L52.1772531,52.5221912" id="path36" fill="#BDBCBC"></path>
                            <path d="M78.1449778,52.7689437 C78.2398579,51.5068219 78.5805054,48.2719466 78.7418782,46.4742872 C72.6814467,43.7533001 51.0259053,33.2005495 37.0225299,20.802283 C37.5360586,23.553402 38.4236091,26.8896877 38.9056816,28.6897526 C47.9979273,36.6065944 61.3105452,45.4372685 78.1449778,52.7689437 L78.1449778,52.7689437" id="path38" fill="#BDBCBC"></path>
                            <path d="M35.6989403,13.5630293 C50.0419403,28.2629683 73.6904743,39.3473318 80.5925508,42.5682806 C80.7158181,40.9086203 81.1305028,36.1544892 81.2678359,34.5581312 C72.1644655,31.0863785 54.8046122,22.7156591 35.0235273,9.06608284 C35.1159778,9.88802554 35.5614793,12.5932124 35.6989403,13.5630293 L35.6989403,13.5630293" id="path40" fill="#BDBCBC"></path>
                            <path d="M44.9235322,164.832921 C45.7003467,165.279835 46.602858,165.633062 47.4494899,165.953372 C48.0539347,166.200251 48.755689,166.281278 49.4514335,166.357241 C50.708786,166.514231 53.0628855,166.802889 53.4908687,169.119754 C53.5484105,169.438798 53.5748797,169.759108 53.5748797,170.068023 C53.5748797,171.724012 52.8265804,173.282515 52.0648547,174.916981 C51.154799,176.805922 50.1667421,178.902495 50.1667421,181.542202 C50.1667421,182.154969 50.2167396,182.776597 50.3215935,183.44507 C50.8000857,186.126556 52.0763631,188.199075 54.1128318,189.604386 C57.5368253,191.976957 63.203543,192.578329 70.5186418,191.28443 C72.7354081,190.905882 74.8633044,190.265262 77.1160024,189.598056 C79.7393975,188.801713 82.7288865,187.918012 86.4065755,187.274861 C101.189195,184.714915 111.481251,188.199075 117.38632,190.680526 C116.100069,186.960881 113.813869,184.269266 110.478234,182.652525 L104.715613,179.85203 C104.715613,179.85203 113.045749,178.406205 115.023653,178.050446 C113.421817,176.234935 111.542246,175.024595 109.409363,174.506782 L103.447903,173.03437 C103.447903,173.03437 110.252542,170.079417 111.387394,169.574265 C109.409363,167.153584 107.318932,165.262111 101.7696,166.190123 C101.759626,166.245829 92.0983558,167.824589 87.5629102,167.824589 C73.3358889,167.824589 61.33548,164.631619 51.8051493,158.354561 L51.9949094,158.465973 L51.5418636,158.229222 C49.5899174,157.202459 46.940053,155.790817 43.5334499,156.385859 C43.5334499,156.385859 42.5809411,156.545381 41.8876262,156.670719 C42.6993493,157.558218 44.4140954,159.414242 44.4140954,159.414242 L44.1329077,160.19286 L43.5533977,161.884299 C43.5533977,161.884299 43.2612132,162.607211 43.1702971,162.84776 C43.3426668,163.470655 43.7047966,164.127733 44.9235322,164.832921 L44.9235322,164.832921" id="path42" fill="#BDBCBC"></path>
                            <path d="M83.5820397,118.571709 C83.5820397,117.49405 82.6938499,116.623643 81.5974866,116.623643 C80.5026577,116.623643 79.6269992,117.49405 79.6269992,118.571709 C79.6269992,119.649748 80.5026577,120.533575 81.5974866,120.533575 C82.6938499,120.533575 83.5820397,119.649748 83.5820397,118.571709 L83.5820397,118.571709" id="path44" fill="#231F20"></path>
                            <path d="M73.8403388,49.4998851 C72.7554838,49.4998851 71.8848123,48.6299845 71.8848123,47.5529588 C71.8848123,46.4742872 72.7554838,45.5979298 73.8403388,45.5979298 C74.9406661,45.5979298 75.8223346,46.4742872 75.8223346,47.5529588 C75.8223346,48.6299845 74.9406661,49.4998851 73.8403388,49.4998851 L73.8403388,49.4998851" id="path46" fill="#231F20"></path>
                            <path d="M71.919721,59.8969119 C70.8433055,59.8969119 69.9542205,59.0115656 69.9542205,57.9280831 C69.9542205,56.8519436 70.8433055,55.9755862 71.919721,55.9755862 C73.03616,55.9755862 73.8977527,56.8519436 73.8977527,57.9280831 C73.8977527,59.0115656 73.03616,59.8969119 71.919721,59.8969119 L71.919721,59.8969119" id="path48" fill="#231F20"></path>
                            <path d="M76.0571052,38.3424707 C74.9691813,38.3424707 74.0840603,37.4724436 74.0840603,36.3949114 C74.0840603,35.3201646 74.9691813,34.4364641 76.0571052,34.4364641 C77.1510389,34.4364641 78.0461338,35.3201646 78.0461338,36.3949114 C78.0461338,37.4724436 77.1510389,38.3424707 76.0571052,38.3424707 L76.0571052,38.3424707" id="path50" fill="#231F20"></path>
                        </g>
                    </g>
                </g>
            </g>
        </g>
    </g>
</svg>