<?xml version="1.0" encoding="UTF-8"?>
<svg width="200px" height="200px" viewBox="0 0 200 200" version="1.1" xmlns="http://www.w3.org/2000/svg" xmlns:xlink="http://www.w3.org/1999/xlink">
    <!-- Generator: Sketch 54.1 (76490) - https://sketchapp.com -->
    <title>belmont</title>
    <desc>Created with Sketch.</desc>
    <defs>
        <polygon id="path-1" points="0 1.43991337 198.871034 1.43991337 198.871034 195.697674 0 195.697674"></polygon>
    </defs>
    <g id="belmont" stroke="none" stroke-width="1" fill="none" fill-rule="evenodd">
        <g id="belmont_BGD" transform="translate(0.000000, 0.000000)">
            <g id="Group-74" transform="translate(0.500000, 1.000000)">
                <g id="Group-3" transform="translate(0.000000, 0.862912)">
                    <mask id="mask-2" fill="white">
                        <use xlink:href="#path-1"></use>
                    </mask>
                    <g id="Clip-2"></g>
                    <path d="M95.0135632,11.3140884 C89.1468966,8.60885581 79.9468966,6.79232093 70.8595402,9.30876279 C70.8595402,9.30876279 70.8342529,10.3309953 70.8204598,10.7868558 C66.2135632,10.6878558 62.8365517,9.27653023 58.477931,7.39783256 L54.1331034,5.5836 C44.7354023,1.87685581 34.7124138,3.47927442 29.3744828,6.53676279 C22.0871264,10.7154837 18.1377011,17.2057395 18.1377011,24.5800884 C18.1377011,26.5739023 18.4273563,28.6321814 19.0158621,30.7249953 C19.0158621,30.7249953 20.0848276,30.7894605 20.6181609,30.821693 C20.8641379,33.5361349 21.694023,36.6258558 24.0388506,38.2881349 C24.0388506,38.2881349 23.4503448,38.7877395 20.7216092,38.8637163 C20.4089655,39.4047628 22.4434483,41.2282047 22.0250575,41.6978791 C21.6388506,41.6196 21.3032184,41.527507 21.1101149,41.4054837 L21.1262069,41.4192977 L14.7170115,44.6793907 L14.7170115,44.7300419 C14.7170115,46.0400651 14.9744828,47.4698093 15.5009195,48.8373907 C12.5445977,50.9946698 10.1997701,54.2501581 9.5537931,57.1649023 C9.5537931,57.1649023 10.1675862,57.643786 10.3629885,57.7980419 C9.3354023,58.8133674 6.45954023,61.6521349 6.45954023,61.6521349 C6.66183908,63.0795767 7.18597701,64.396507 8.02275862,65.6213442 C5.72850575,68.4462977 3.76068966,72.0310186 2.57678161,75.7285535 C0.891724138,81.0008791 -0.000229885057,88.8034605 -0.000229885057,98.2913442 C-0.000229885057,152.002298 43.7928736,195.698135 97.6227586,195.698135 C151.254943,195.698135 194.884828,152.002298 194.884828,98.2913442 C194.884828,93.1019023 194.473333,87.8940419 193.664138,82.8151116 C193.664138,82.8151116 195.356092,77.4299721 195.231954,77.2480884 C193.314713,76.6103442 189.188276,74.7684837 188.629655,74.3310419 C189.006667,73.8843907 189.365287,73.4308326 189.684828,72.9289256 C190.367586,73.1476465 191.473333,73.4929953 191.473333,73.4929953 C193.333103,71.5337163 194.553793,68.8952512 195.298621,66.4340651 C196.183678,66.4271581 197.473333,66.4133442 197.473333,66.4133442 C198.445747,63.491693 198.871034,60.7473209 198.871034,58.2055535 C198.871034,49.9655302 194.413563,43.8505535 189.705517,40.7055767 C185.567586,37.942786 178.70092,36.9182512 170.287126,37.7263674 C169.158391,36.9412744 167.829655,36.1561814 166.572184,35.474693 C166.717011,35.1730884 167.105517,34.3534605 167.105517,34.3534605 C161.222759,29.1548093 152.31931,26.6222512 145.912414,26.6176465 C145.910115,26.6176465 145.910115,26.6176465 145.910115,26.6153442 C146.02046,25.8970186 146.133103,25.1763907 146.133103,24.4442512 C146.133103,22.0935767 145.553793,19.6968558 144.397471,17.3300651 C141.048046,10.4737395 133.250345,4.74555349 124.043448,2.37646047 C113.569885,-0.317260465 100.507816,2.84153023 95.0135632,11.3140884" id="Fill-1" fill="#FEFEFE" mask="url(#mask-2)"></path>
                </g>
                <path d="M190.948046,80.2102605 C189.826207,81.0506093 188.348046,82.3168884 186.348046,83.1088884 C187.253793,83.325307 188.803218,83.799586 189.672184,84.3176093 C190.442299,89.1501907 190.842299,94.1070977 190.842299,99.1537953 C190.842299,150.714377 149.108966,192.513098 97.623908,192.513098 C46.1411494,192.513098 4.04229885,150.714377 4.04229885,99.1537953 C4.04229885,89.0580977 5.0583908,82.1050744 6.4262069,77.8296558 C7.86988506,73.3240047 10.7296552,68.8459814 13.6583908,66.4630744 C11.7365517,65.0655628 10.702069,63.6657488 10.4606897,61.948214 C14.6744828,62.6066791 19.2216092,62.3833535 20.9802299,59.0242605 C19.5434483,58.0918186 15.1618391,58.0757023 13.4997701,58.9045395 C14.2009195,55.7457488 18.4285057,51.3437023 21.9342529,51.3437023 C19.948046,50.4089581 18.7457471,47.862586 18.7595402,45.5625628 C20.8629885,47.0867023 25.9204598,47.1350512 28.456092,46.0460512 C26.6422989,45.309307 25.5595402,43.9440279 24.6170115,41.9824465 C26.9526437,42.8020744 29.977931,42.5188884 32.3158621,40.5296791 C29.0354023,38.3539814 27.8331034,34.5597488 28.1089655,31.5137721 C27.2101149,32.4991674 26.4721839,33.7309116 26.3710345,35.8467488 C24.6882759,34.6541442 24.2514943,30.0587023 24.7181609,27.1324465 C24.1549425,27.9797023 23.4905747,29.0848186 22.9066667,30.4892372 C19.8767816,19.7304698 26.8055172,13.537214 31.3802299,10.9125628 C36.0514943,8.23726047 44.9388506,7.17128372 52.6514943,10.2126558 C60.3250575,13.2425163 65.0422989,16.4151209 74.04,15.6116093 C73.6905747,15.2616558 72.6377011,14.308493 71.9365517,14.0759581 C82.9227586,11.0322837 93.5572414,15.1304233 96.8308046,17.9392605 C99.1710345,8.83356279 112.373333,4.41770233 123.04,7.16207442 C135.389425,10.3369814 145.072184,20.5339814 141.233103,29.3933302 C142.566437,30.0610047 144.736552,31.5644233 144.736552,31.5644233 C149.908966,31.2328884 158.757241,33.238214 164.430805,38.2526791 C163.428506,38.0846093 161.092874,38.0846093 161.092874,38.0846093 C161.092874,38.0846093 167.102069,40.9256791 169.104368,42.7652372 C177.281379,41.7614233 183.957241,42.5971674 187.462989,44.9386326 C191.853793,47.869493 197.308966,54.9675628 193.637701,65.9980047 C193.131954,64.5659581 192.476782,64.126214 192.04,63.5805628 C191.711264,65.8782837 190.61931,69.3801209 188.543448,71.5650279 C188.325057,70.144493 187.890575,69.5965395 187.561839,68.6134465 C187.014713,71.1298884 185.485977,73.2088884 183.628506,74.302493 C184.283678,77.364586 186.577931,79.662307 190.948046,80.2102605" id="Fill-4" fill="#0D2C6B"></path>
                <path d="M164.431494,101.192044 C163.553333,102.281044 162.629195,103.35623 161.548736,104.449835 C161.645287,107.974695 161.468276,110.465812 160.498161,114.04823 C163.62,109.487323 165.042989,104.615602 164.431494,101.192044" id="Fill-6" fill="#FEFEFE"></path>
                <path d="M168.347816,95.492407 C167.722529,96.5491744 166.989195,97.6911279 166.166207,98.858407 C166.848966,100.914384 167.14092,102.680267 166.966207,105.123035 C168.430575,101.333407 168.692644,99.261314 168.347816,95.492407" id="Fill-8" fill="#FEFEFE"></path>
                <path d="M163.852414,128.852414 C162.893793,130.26374 161.905287,131.622112 160.808736,132.941344 C160.808736,133.832344 160.838621,136.420158 160.689195,137.311158 C162.767356,135.229856 164.151264,131.949042 163.852414,128.852414" id="Fill-10" fill="#FEFEFE"></path>
                <path d="M179.258391,69.9262326 C179.258391,71.5654884 180.24,74.4111628 181.334253,75.3942558 C181.223908,74.1924419 181.267586,73.0136512 181.442299,72.6613953 C181.771034,72.0052326 185.483678,71.0198372 186.030805,66.4243953 C184.502069,67.7367209 181.550345,70.0344419 179.258391,69.9262326" id="Fill-12" fill="#FEFEFE"></path>
                <path d="M44.476092,29.288114 C47.5772414,25.3096953 54.9450575,19.3650907 62.4071264,19.9475791 C62.0209195,19.558486 60.4691954,18.8056256 59.4025287,18.5132302 C59.9312644,18.094207 60.7289655,17.5761837 61.6117241,17.3712767 C57.814023,16.1625558 54.9933333,14.9400209 52.9082759,13.6599279 C52.6186207,14.339114 51.9404598,16.4733698 51.7450575,17.1548581 C49.7289655,13.1488116 44.1358621,11.362207 40.1151724,12.3015558 C36.1611494,13.222486 31.876092,17.1548581 32.4554023,23.4632302 C33.4255172,22.0081605 34.5887356,21.2299744 35.4622989,20.9398814 C34.8806897,22.9774395 35.2668966,25.3096953 35.6554023,26.4723698 C37.2071264,23.5599279 39.7289655,21.3266721 41.9565517,20.6497884 C40.4048276,23.2698349 39.5312644,28.9013233 41.568046,31.0355791 C42.0531034,28.4132302 43.6025287,27.1515558 44.2829885,26.7647651 C43.8944828,28.0264395 44.1864368,28.4132302 44.476092,29.288114" id="Fill-14" fill="#FEFEFE"></path>
                <path d="M31.911954,29.9085907 C31.7717241,31.3222186 31.1602299,35.9821256 35.157931,39.138614 C36.8016092,39.0879628 39.2912644,38.3834512 41.4085057,37.5822419 C38.7763218,36.7833349 35.3924138,33.863986 35.3924138,31.982986 C35.0613793,33.1594744 34.7786207,33.7235442 34.6866667,34.2899163 C33.4177011,33.2538698 32.2429885,31.5110093 31.911954,29.9085907" id="Fill-16" fill="#FEFEFE"></path>
                <path d="M66.316092,27.2118767 C71.2149425,22.7154349 81.4195402,20.5420395 87.8747126,25.241086 C89.8885057,23.8665977 91.4448276,23.0423651 93.1827586,22.2158302 C90.6195402,18.734714 84.3206897,15.8222721 78.8103448,15.7071558 C79.7275862,16.9895512 80.4586207,18.0900628 80.7321839,18.9142953 C76.7068966,17.1737372 71.4885057,17.9058767 68.8333333,19.1905744 C70.2977011,20.198993 71.1206897,21.2995047 71.5781609,22.1237372 C61.6931034,20.1069 50.6149425,24.6885279 46.7712644,36.335993 C48.0517241,35.8755279 49.3344828,35.2354814 50.0678161,34.9592023 C50.1597701,39.8171093 42.9275862,47.5183884 39.8149425,48.9872721 C40.1804598,49.1691558 42.7436782,49.6296209 43.3850575,49.8115047 C39.9068966,51.5543651 34.2310345,56.6885512 34.3229885,62.6469698 C37.0701149,61.7306442 38.1689655,61.2701791 40.8218391,60.9962023 C37.4356322,64.0214581 33.5,70.4380395 35.1482759,77.3173884 C36.9758621,75.5745279 37.5275862,74.9321791 38.4402299,74.747993 C36.9758621,77.7755512 35.8793103,82.9972256 36.4287356,86.2089698 C37.3436782,84.9242721 37.9850575,84.1898302 38.6241379,83.5497837 C37.8011494,86.6648302 38.808046,89.690086 39.6310345,91.7990163 C40.6402299,89.6002953 41.8287356,88.225807 43.0195402,87.3071791 C44.483908,88.5918767 45.7666667,92.2571791 45.0333333,95.7405977 C46.5896552,95.4689233 47.6885057,95.1005512 49.4264368,93.5418767 C49.791954,96.0191791 49.1528736,101.153365 47.1390805,102.343667 C49.5183908,102.159481 54.9206897,100.142644 56.3827586,96.7513186 C56.2931034,98.309993 55.7436782,101.609226 55.1022989,102.893923 C56.2931034,102.159481 57.391954,101.701319 58.0310345,101.332947 C56.0172414,104.544691 54.7367816,110.687295 56.3827586,115.08704 C56.8425287,112.978109 58.1229885,111.419435 59.3137931,110.042644 C59.8632184,112.153877 61.3275862,113.618156 62.4264368,114.536784 C63.1574713,111.327342 65.3551724,108.578365 67.5528736,106.927598 C65.8126437,110.411016 64.8057471,114.813063 65.7206897,121.227342 C66.7275862,119.212807 67.4609195,119.120714 69.1988506,118.022505 C67.9183908,121.964086 68.6494253,125.445202 70.116092,127.646226 C70.8471264,125.353109 71.5781609,124.162807 72.9528736,123.154388 C72.9528736,126.087551 73.4103448,132.04597 77.8034483,135.621481 C77.7114943,134.1549 78.2609195,132.872505 78.4448276,132.41204 C80.8241379,135.989853 83.4793103,139.655156 91.0770115,140.665877 C89.0632184,138.37276 82.8402299,130.581691 83.6632184,125.537295 C82.6563218,126.36383 82.1988506,127.646226 81.9229885,128.928621 C79.3597701,125.905667 76.1574713,118.388574 78.5367816,110.869179 C77.3482759,111.511528 76.5229885,112.243667 76.0655172,113.804644 C75.0586207,110.22683 75.2402299,104.544691 77.8034483,101.701319 C77.0724138,101.701319 75.4241379,101.793412 74.9666667,101.885505 C75.8816092,100.600807 76.4310345,99.6844814 76.8885057,98.2179 C75.2402299,98.7658535 73.9597701,98.6737605 72.4034483,98.4941791 C76.1574713,95.7405977 79.5436782,92.8074349 77.9873563,83.1814116 C80.9137931,85.8590163 81.8954023,91.5089233 81.191954,94.9186674 C82.0149425,94.0921326 83.0218391,93.083714 83.4793103,92.0752953 C84.6701149,97.2094814 82.6563218,105.368923 80.4586207,108.668156 C81.3735632,108.394179 82.2885057,108.212295 83.0218391,107.659737 C81.191954,111.327342 81.5574713,117.19597 85.6770115,121.137551 C86.3183908,120.495202 87.0517241,118.844435 87.2333333,117.928109 C87.6908046,121.777598 90.254023,128.104388 94.1896552,130.673784 C94.9229885,129.207202 95.562069,127.922505 96.2954023,127.188063 C97.2103448,131.405923 98.7666667,133.514853 101.513793,135.439598 C103.985057,134.249295 106.548276,131.956179 108.104598,129.115109 C108.562069,130.763574 108.562069,131.682202 108.288506,133.328365 C110.302299,132.688319 112.955172,130.489598 114.056322,128.104388 C114.237931,129.389086 114.511494,129.296993 114.511494,130.94776 C117.442529,129.389086 119.911494,126.545714 121.196552,123.246481 C121.745977,123.704644 122.111494,124.252598 122.477011,124.98704 C124.122989,123.794435 126.414943,118.752342 126.414943,114.170714 C127.054023,114.813063 127.695402,114.994947 128.244828,116.095458 C130.350575,108.302086 125.681609,96.8480163 125.681609,93.083714 C125.681609,89.7844814 127.350575,86.7730395 129.15977,84.7423884 C132.18046,81.3487605 133.095402,76.7556209 133.095402,73.8316674 C133.644828,74.563807 134.562069,75.8485047 134.743678,76.4908535 C136.757471,74.0135512 137.58046,70.2561558 137.306897,65.9462023 C137.948276,66.3122721 138.681609,67.5071791 139.044828,68.1472256 C140.785057,66.4066674 142.706897,61.8204349 142.065517,54.9456907 L143.348276,55.2196674 C144.722989,51.7362488 146.918391,37.8923651 137.674713,30.6492488 C140.054023,26.8918535 139.589655,21.2626674 136.3,19.0984814 C133.371264,17.1737372 130.716092,18.0900628 130.168966,19.922714 C129.617241,21.7576674 130.26092,23.3163419 131.541379,23.8665977 C132.950575,24.4721093 135.201149,24.5987372 136.116092,24.2326674 C135.566667,25.8834349 131.814943,27.2579233 128.612644,25.8834349 C124.732184,24.2188535 123.442529,21.683993 123.849425,17.9979698 C124.122989,15.5229698 126.686207,12.3158302 129.067816,12.1293419 C125.771264,9.29057442 120.097701,7.91378372 115.06092,8.27985349 C120.005747,10.7571558 120.644828,15.6127605 118.722989,19.3724581 C117.035632,22.673993 113.281609,24.0715047 109.067816,23.8412721 C105.585057,23.6547837 103.435632,21.2074116 103.798851,19.0340163 C104.458621,19.7707605 107.054023,20.4821791 108.562069,20.198993 C110.026437,19.922714 111.948276,18.4561326 111.674713,16.7132721 C111.375862,14.8253651 109.01954,13.6304581 105.541379,14.0563884 C102.334483,14.450086 98.883908,17.5029698 99.545977,22.5865047 C96.9252874,22.9226442 78.0218391,32.2033186 82.2885057,51.8283419 C81.7413793,51.7362488 80.2310345,50.7278302 79.6356322,50.3617605 C79.1781609,52.3762953 80.0931034,57.5127837 81.4655172,59.5733651 C80.7321839,59.7115047 80.1390805,59.6677605 79.2701149,59.6194116 C79.1321839,61.4543651 78.9022989,64.4335744 79.2701149,67.6890628 C74.5988506,57.6048767 74.6448276,42.5223419 80.0931034,35.6015512 C77.7114943,36.1955512 75.3321839,36.2439 72.5873563,35.3252721 C73.1367816,35.1433884 74.2356322,34.5931326 74.5988506,34.4089465 C73.5482759,32.9861093 73.0908046,30.2394349 73.5942529,28.5426209 C72.3114943,28.2663419 70.116092,28.8142953 69.6563218,29.5510395 C69.9321839,28.2663419 70.6494253,26.8296907 71.0310345,26.5234814 C69.8103448,26.2955512 67.3367816,26.5856442 66.316092,27.2118767" id="Fill-18" fill="#FEFEFE"></path>
                <path d="M76.9855172,25.2917372 C78.265977,25.657807 81.1004598,27.3960628 82.1510345,28.7245047 C82.7924138,28.4505279 83.8935632,27.8542256 84.8613793,27.4236907 C85.0131034,27.8956674 85.0958621,28.3998767 85.0958621,28.9225047 C85.0958621,31.6139233 82.9188506,33.7942256 80.2314943,33.7942256 C77.5418391,33.7942256 75.3648276,31.6139233 75.3648276,28.9225047 C75.3648276,27.4812488 75.9901149,26.1827372 76.9855172,25.2917372" id="Fill-20" fill="#FEFEFE"></path>
                <path d="M147.388966,43.6596907 C148.386667,44.0856209 149.575172,45.3426907 149.653333,45.4509 C150.92,44.8039465 153.425747,44.3020395 155.002759,44.5967372 C155.138391,45.0549 155.214253,45.542993 155.214253,46.0495047 C155.214253,48.6580395 153.611954,50.7715744 151.182069,50.7715744 C148.754483,50.7715744 146.786667,48.6580395 146.786667,46.0495047 C146.786667,45.1769233 147.005057,44.3619 147.388966,43.6596907" id="Fill-22" fill="#FEFEFE"></path>
                <path d="M59.8967816,128.9277 C59.4393103,129.816398 58.7105747,131.688188 58.6071264,132.418026 C57.2577011,130.025909 56.7197701,128.499467 56.4186207,127.025979 C54.1956322,125.745886 52.1128736,124.410537 50.1657471,123.033747 C50.0898851,126.38363 51.6485057,131.688188 52.6875862,133.458677 C53.0002299,132.625235 53.9335632,130.960653 53.9335632,130.960653 C55.3887356,133.562281 60.5795402,137.618979 64.4232184,138.556026 C62.243908,135.123258 60.4163218,130.279165 59.8967816,128.9277" id="Fill-24" fill="#FEFEFE"></path>
                <path d="M48.2363218,121.619428 C44.2708046,118.610288 40.9213793,115.416963 38.1489655,112.113126 C37.0041379,115.253498 35.9673563,119.726916 37.3167816,124.72066 C37.8363218,122.535753 38.5604598,121.808219 39.0822989,121.287893 C39.3926437,126.488847 41.8868966,130.856358 45.7282759,133.248474 C45.3144828,130.752753 45.417931,128.567847 45.834023,126.903265 C46.5604598,128.567847 47.5972414,128.880963 48.325977,129.504893 C47.7029885,126.797358 47.7305747,123.302428 48.2363218,121.619428" id="Fill-26" fill="#FEFEFE"></path>
                <path d="M37.171954,110.916147 C33.8914943,106.778867 31.496092,102.487333 29.9029885,98.205007 C27.863908,101.105937 25.6845977,107.971472 26.5144828,113.068821 C27.034023,110.886216 28.0731034,109.115728 29.6294253,107.554751 C28.9029885,110.262286 29.1098851,114.523891 29.6294253,117.125519 C30.3581609,113.798658 31.7075862,113.068821 32.3305747,112.131774 C32.2271264,116.190774 32.7466667,118.7901 34.096092,120.767798 C34.096092,116.501588 35.8845977,112.302147 37.171954,110.916147" id="Fill-28" fill="#FEFEFE"></path>
                <path d="M28.7611494,94.6414674 C28.3289655,93.0390488 28.0094253,91.4481419 27.7956322,89.8687465 C26.305977,91.3284209 23.6048276,97.0497 24.5404598,102.460165 C25.06,99.0273977 27.0645977,95.8732116 28.7611494,94.6414674" id="Fill-30" fill="#FEFEFE"></path>
                <path d="M27.494023,86.4336767 C27.0342529,84.0484674 27.5813793,81.2488395 28.0503448,78.7899558 C25.3721839,81.1360256 21.9445977,89.0422116 22.2572414,93.6169326 C23.3997701,90.600886 26.1882759,87.0507 27.494023,86.4336767" id="Fill-32" fill="#FEFEFE"></path>
                <path d="M12.182069,106.828598 C13.5314943,122.64097 20.5935632,135.538598 37.0050575,146.46083 C34.4096552,142.404133 32.1245977,131.795016 32.7452874,128.049133 C31.2924138,128.67076 30.4602299,130.231737 30.0464368,131.689109 C28.2809195,128.983877 27.9682759,126.384551 28.1751724,123.472109 C27.0349425,124.722272 26.3062069,126.073737 25.6855172,127.112086 C24.3337931,124.929481 23.9177011,120.350156 24.3337931,118.685574 C23.2947126,119.935737 22.5682759,121.079993 22.1544828,122.64097 C20.6993103,119.415412 20.3866667,114.734784 20.9062069,108.9099 C19.1383908,110.675784 17.2717241,112.964295 16.5429885,114.004947 C14.5705747,111.82004 13.428046,110.051853 12.182069,106.828598" id="Fill-34" fill="#FEFEFE"></path>
                <path d="M80.2114943,158.006993 C78.045977,157.394574 75.9333333,156.510481 74.9149425,156.135202 C75.1218391,158.732226 77.3034483,163.624667 80.937931,165.496458 C80.108046,162.89483 80.108046,161.336156 80.2114943,158.006993" id="Fill-36" fill="#FEFEFE"></path>
                <path d="M83.845977,158.838823 C84.5747126,161.021428 85.4045977,161.748963 86.8597701,162.996823 C86.2344828,161.85487 86.4436782,160.190288 86.754023,158.942428 C85.5793103,158.917102 84.9586207,159.023009 83.845977,158.838823" id="Fill-38" fill="#FEFEFE"></path>
                <path d="M75.0177011,168.407979 C69.5142529,164.247677 65.0475862,159.670653 63.7993103,154.052979 C62.865977,155.09363 62.3464368,157.069026 62.3464368,158.422793 C59.2314943,156.030677 57.6728736,150.620212 57.9855172,148.3317 C56.9464368,149.475956 55.803908,151.453653 55.5947126,153.115933 C53.6222989,151.350049 52.7901149,148.228095 52.9993103,145.522863 C52.0636782,146.563514 51.1303448,148.228095 50.6108046,150.309398 C48.1165517,148.95563 46.2475862,145.419258 45.2085057,141.364863 C43.9625287,144.795328 43.6521839,150.516607 46.8705747,156.030677 C48.2222989,154.052979 48.5326437,153.532653 49.0521839,153.012328 C49.1556322,156.652305 51.0245977,160.504095 53.6222989,163.103421 C53.6222989,161.125723 54.4544828,157.902467 54.974023,157.17263 C56.3234483,161.542444 57.9855172,163.312933 60.4751724,164.869305 C60.4751724,163.207026 60.6843678,161.749653 61.3073563,161.022119 C63.282069,164.247677 68.0590805,168.304374 75.0177011,168.407979" id="Fill-40" fill="#FEFEFE"></path>
                <path d="M144.509655,35.2025581 C144.875172,37.2815581 147.072874,40.2147209 147.438391,41.1932093 C151.10046,40.7051163 158.056782,41.1932093 160.132644,44.1263721 L158.05908,45.1048605 L159.521149,46.8154884 L157.447586,46.4494186 C156.957931,48.5284186 156.226897,51.5836047 152.808506,51.5836047 L153.295862,53.050186 C150.976322,52.9281628 149.633793,53.6603023 148.049885,52.1960233 C147.314253,56.2296977 145.024598,61.4997209 142.555632,64.9071628 C146.33954,64.2970465 150.856782,62.0960233 151.465977,60.0193256 L151.833793,63.3185581 C154.029195,61.8519767 157.325747,56.8375116 157.447586,55.129186 C157.569425,59.8973023 156.957931,64.6631163 154.762529,68.5747674 C153.785517,68.2086977 153.295862,67.2302093 152.686667,66.4980698 C152.197011,67.7183023 151.10046,71.6299535 150.123448,72.9745116 C149.268276,71.385907 148.78092,70.5294419 148.049885,69.6752791 C147.194713,71.7519767 145.484368,75.1755349 143.776322,77.6206047 C143.410805,76.1517209 143.042989,75.2975581 142.79931,74.1993488 C140.723448,82.6327674 135.59931,89.5996047 130.838391,92.2887209 C136.574023,91.7983256 145.606207,87.8889767 147.684368,79.5752791 C148.171724,80.9198372 148.415402,81.8983256 148.293563,82.9988372 C151.22,80.797814 153.785517,77.008186 155.493563,72.9745116 C156.346437,73.8309767 156.714253,74.441093 157.201609,75.5416047 C159.521149,73.0965349 163.18092,66.8618372 163.551034,63.6846279 C165.868276,67.3522326 166.47977,74.1993488 165.624598,77.4985814 C165.013103,76.8884651 164.038391,76.1517209 163.551034,75.6659302 C163.18092,78.599093 162.695862,84.2213721 160.741839,86.7884651 C160.254483,86.1760465 159.39931,85.1998605 158.665977,84.3433953 C158.05908,87.3985814 155.615402,91.3102326 153.785517,93.5112558 C153.417701,92.2887209 153.052184,91.9226512 151.955632,90.4560698 C151.465977,92.776814 149.755632,96.8127907 148.534943,98.4013953 C148.171724,96.6907674 148.169425,97.1788605 146.948736,95.343907 C146.217701,101.700628 140.482069,110.012023 135.231494,111.358884 C142.79931,111.60293 151.344138,107.935326 155.247586,99.0115116 L155.247586,101.700628 C157.813103,100.478093 161.962529,95.7122791 162.206207,94.4897442 C161.962529,95.7122791 162.695862,97.4252093 162.449885,98.0330233 C166.111954,94.2456977 168.309655,88.6211163 168.553333,84.8337907 C169.162529,85.443907 170.017701,85.9343023 170.383218,86.7884651 C172.215402,81.6542791 172.578621,72.8524884 169.408506,69.6752791 C170.261379,69.5532558 171.606207,69.6752791 172.45908,70.0413488 C172.337241,69.306907 171.362529,67.8426279 170.751034,67.3522326 L173.070575,66.4980698 C166.845287,64.2970465 165.25908,58.5527442 166.845287,53.050186 L170.751034,55.0071628 C167.82,46.2053721 159.521149,38.3820698 153.785517,37.527907 C154.638391,36.7911628 155.128046,36.425093 156.592414,35.937 C152.197011,34.346093 147.557931,34.2263721 144.509655,35.2025581" id="Fill-42" fill="#FEFEFE"></path>
                <path d="M149.643908,112.884635 C151.110575,112.884635 154.151954,112.824774 155.126667,112.580728 C154.882989,115.147821 154.882989,117.95896 153.418621,120.650379 C156.335862,118.251356 159.489885,110.094216 159.855402,106.062844 C157.105977,108.56317 153.745057,110.890821 149.643908,112.884635" id="Fill-44" fill="#FEFEFE"></path>
                <path d="M158.064828,135.950484 C157.034943,137.014158 155.94069,137.700251 154.821149,138.681042 C154.970575,140.911995 154.74069,144.851274 154.531494,146.61946 C157.053333,144.091507 157.917701,138.628088 158.064828,135.950484" id="Fill-46" fill="#FEFEFE"></path>
                <path d="M151.08069,141.989714 C147.158851,144.856109 142.86,147.259737 138.26,148.951947 C137.331264,152.1729 135.365747,159.146644 133.733563,161.078295 C137.593333,158.996993 139.604828,155.156714 141.682989,152.032458 C141.682989,153.22276 142.128966,154.859714 141.97954,155.750714 C144.505977,154.413063 146.584138,151.288807 147.324368,149.060156 C147.91977,149.803807 148.66,151.139156 148.515172,151.588109 C149.850805,148.613505 150.931264,144.368016 151.08069,141.989714" id="Fill-48" fill="#FEFEFE"></path>
                <path d="M134.067126,150.227665 C129.793563,151.376526 125.536092,151.933688 120.977471,151.8462 C123.055632,152.592153 126.538391,153.966642 128.023448,154.413293 C126.984368,156.791595 126.241839,159.4692 124.756782,160.956502 C129.064828,159.022549 132.582069,153.943619 134.067126,150.227665" id="Fill-50" fill="#FEFEFE"></path>
                <path d="M112.773563,139.350098 L112.773563,136.538958 C108.502299,140.818981 101.056322,143.261749 95.9298851,143.383772 C103.008046,145.950865 112.286207,145.828842 119.362069,141.673144 C118.998851,142.893377 118.752874,144.72833 118.021839,145.950865 C123.75977,144.36226 129.73908,140.082237 132.424138,135.928842 C132.791954,136.905028 133.522989,138.00554 133.644828,139.350098 C135.598851,137.2734 136.941379,132.871353 137.063218,129.572121 C137.550575,130.301958 138.527586,131.773144 138.771264,132.627307 C139.748276,127.983516 138.405747,119.0574 135.474713,114.779679 C135.355172,117.956888 134.256322,126.758679 130.350575,131.158423 C130.472414,129.447795 129.982759,127.495423 129.73908,126.514633 C129.495402,128.227563 125.957471,133.727819 124.247126,135.316423 C124.614943,132.74933 124.247126,131.648819 124.003448,130.182237 C121.683908,133.849842 117.532184,137.63947 112.773563,139.350098" id="Fill-52" fill="#FEFEFE"></path>
                <path d="M170.192184,44.7625047 C171.173793,45.7455977 175.98069,52.7492721 176.964598,55.3762256 C178.824368,56.1405977 182.537011,55.4844349 184.284138,53.186714 C184.72092,54.8282721 183.847356,58.7652488 182.537011,59.423714 L184.284138,59.3132023 C183.192184,61.0629698 181.989885,62.3775977 179.258851,62.7045279 C179.477241,63.4712023 179.587586,64.564807 179.695632,65.4396907 C181.663448,64.8940395 186.141609,63.2501791 186.141609,59.3132023 C186.796782,60.0775744 187.343908,61.1734814 187.343908,62.0483651 C188.651954,60.2985977 190.401379,57.1236907 188.651954,54.1721093 L190.61977,55.7031558 C191.822069,53.4054349 189.527816,48.6994814 185.157701,47.0602256 C180.78069,45.4163651 176.665747,45.7455977 174.125517,45.7455977 C172.486437,45.7455977 170.73931,45.0894349 170.192184,44.7625047" id="Fill-54" fill="#FEFEFE"></path>
                <path d="M78.7085057,29.1094535 L79.7705747,30.3227791 L81.0326437,29.2521977 C81.2165517,29.5054535 81.3245977,29.8162674 81.3245977,30.1501047 C81.3245977,30.9881512 80.6464368,31.6673372 79.8096552,31.6673372 C78.9728736,31.6673372 78.2947126,30.9881512 78.2947126,30.1501047 C78.2947126,29.7471977 78.4533333,29.3788256 78.7085057,29.1094535" id="Fill-56" fill="#0D2C6B"></path>
                <path d="M149.906667,46.5016814 L150.966437,47.7173093 L152.230805,46.6467279 C152.414713,46.8976814 152.522759,47.2084953 152.522759,47.5446349 C152.522759,48.3826814 151.844598,49.0618674 151.007816,49.0618674 C150.171034,49.0618674 149.492874,48.3826814 149.492874,47.5446349 C149.492874,47.1394256 149.649195,46.7756581 149.906667,46.5016814" id="Fill-58" fill="#0D2C6B"></path>
                <path d="M67.2983908,36.6774279 C64.8593103,31.9968 61.6891954,29.8602419 55.7535632,30.7857767 L57.4386207,32.0129163 C57.4386207,32.0129163 56.3466667,32.0129163 55.8593103,32.5033116 C56.8317241,33.3528698 57.3305747,34.0596837 57.5604598,35.2983349 C56.9535632,35.5423814 56.188046,35.5331721 55.496092,35.5423814 C56.5903448,36.7580093 57.4386207,38.9498233 56.8317241,41.0173116 C56.2248276,43.0848 52.4616092,46.6142651 50.3949425,49.6556372 C47.0937931,54.5135442 45.4041379,60.6791721 45.5351724,64.4987302 C46.2616092,63.0390558 47.234023,62.1871953 47.9627586,61.5793814 C47.234023,64.9845209 48.2478161,70.3259163 49.7052874,72.1309395 C50.3144828,70.7932884 50.88,69.8516372 51.3650575,69.2438233 C50.5788506,73.4962186 51.1788506,78.2413116 53.5512644,81.5313349 C53.8455172,80.4791721 54.3351724,79.1691488 55.0110345,78.2459163 C54.8891954,82.7492651 56.188046,87.4045674 58.1673563,90.1719628 C58.5857471,89.0967767 59.2983908,87.924893 59.5052874,87.6163814 C59.8363218,91.2241256 62.7834483,96.7428 67.6432184,98.0804512 C63.4317241,94.0582884 62.942069,87.1305907 64.3627586,83.5988233 C63.1489655,83.7231488 62.663908,84.2089395 62.2983908,84.3309628 C61.8685057,82.6042186 61.634023,81.1882884 61.8133333,78.8583349 C61.034023,79.6042884 60.4891954,80.0946837 59.8363218,81.2412419 C58.1374713,77.2282884 58.9098851,68.2584279 60.7190805,64.8624977 C59.2616092,65.1065442 58.4754023,65.5324744 57.1949425,66.9322884 C57.2777011,64.277707 58.8018391,60.3522419 60.3558621,58.9017767 C58.6386207,58.9340093 56.5696552,60.1864744 55.1535632,61.4941953 C55.1535632,59.0422186 55.8616092,55.3308698 56.8317241,53.790614 C55.0110345,54.1566837 54.1949425,55.1973349 53.463908,55.4413814 C53.1926437,50.6962884 55.771954,41.0932884 67.2983908,36.6774279" id="Fill-60" fill="#0D2C6B"></path>
                <path d="M71.7983908,42.1286442 C68.3708046,43.6873186 64.1110345,50.6564581 63.2834483,56.3800395 C64.2167816,55.753807 65.5662069,55.2357837 66.3983908,55.1321791 C64.8397701,57.3147837 64.3202299,60.6439465 64.2167816,62.3085279 C65.4627586,61.580993 66.1891954,61.3737837 66.7087356,61.1619698 C65.8788506,62.9324581 64.3202299,68.3406209 65.4627586,72.3996209 C66.6075862,69.0704581 67.9570115,68.4442256 69.2029885,67.2999698 C69.5133333,70.5255279 68.3708046,75.6228767 66.8144828,77.1815512 C69.2029885,76.8707372 70.7593103,76.2445047 71.2788506,74.8953419 C70.7593103,77.1815512 70.242069,80.7179233 68.9937931,81.7608767 C71.2788506,81.3441558 71.488046,81.3441558 72.6282759,80.3035047 C72.5271264,82.5920163 72.1087356,86.4392023 71.071954,87.7929698 C73.563908,86.3355977 77.4075862,81.5513651 76.888046,78.5353186 L79.4834483,79.4723651 C71.1754023,67.9239 67.6443678,55.1321791 71.7983908,42.1286442" id="Fill-62" fill="#0D2C6B"></path>
                <path d="M120.43908,83.0453442 C120.285057,83.6324372 120.23908,84.6132279 120.464368,85.0161349 C127.604598,97.9413907 123.117241,115.086809 119.547126,120.310786 C115.427586,119.852623 104.533333,121.4136 101.604598,122.511809 C99.0413793,119.30467 89.062069,112.7016 86.1333333,111.695484 C87.3241379,106.651088 88.8321839,93.4794837 88.1494253,87.2148558 C87.5977011,82.1750651 84.7609195,77.3148558 81.8321839,74.2896 C81.5609195,74.0110186 81.3724138,73.7393442 81.4643678,73.3709721 C83.0206897,72.1783674 92.816092,61.8202047 91.7172414,44.7691814 C90.6183908,45.4115302 89.8873563,46.0515767 88.8804598,47.2441814 C88.6965517,45.2273442 89.4298851,42.2941814 90.0712644,41.0094837 C89.7034483,41.2834605 88.0551724,43.0263209 87.2321839,44.3087163 C88.1494253,34.5929023 95.4712644,27.257693 102.611494,26.8893209 C101.324138,28.4157628 99.9885057,30.6098791 99.0413793,32.6658558 C99.9563218,31.7495302 102.611494,31.2913674 104.625287,31.1992744 C103.250575,31.8416233 101.147126,34.9589721 100.689655,37.249786 C101.42069,36.4255535 103.068966,35.6013209 104.717241,35.6013209 C103.250575,36.6097395 102.154023,38.8084605 102.154023,40.643414 C110.94023,38.3502977 125.498851,41.4676465 130.167816,45.593414 C129.983908,43.7584605 130.167816,41.2834605 127.786207,39.9089721 C129.802299,39.632693 130.990805,39.7270884 132.455172,40.4592279 C131.721839,38.6242744 130.714943,37.0679023 129.891954,36.1515767 C131.54023,35.9650884 134.103448,36.3357628 135.386207,37.5260651 C134.834483,35.785507 134.011494,34.1324372 132.728736,33.4923907 C136.94023,34.5929023 141.517241,38.2582047 141.243678,47.9763209 C140.326437,47.1520884 139.777011,46.9702047 139.045977,46.7860186 C139.687356,49.4452047 139.135632,52.0099953 137.397701,55.0352512 C137.032184,54.0268326 135.843678,52.7444372 135.565517,52.1941814 C134.926437,66.3120419 126.413793,75.6640884 121.56092,81.2564372 C121.064368,81.8320186 120.593103,82.4559488 120.43908,83.0453442" id="Fill-64" fill="#0D2C6B"></path>
                <path d="M95.317931,75.4200419 C99.9570115,74.6879023 107.462759,80.1259953 107.097241,86.848786 C108.196092,85.1059256 108.288046,80.4322047 108.014483,78.7814372 C110.483448,78.6893442 113.963908,79.0577163 115.06046,79.8819488 C116.304138,80.8143907 115.52023,84.281693 115.885747,85.9324605 C116.253563,87.5832279 120.005287,95.560786 118.632874,100.876856 C117.906437,103.683391 114.690345,108.624181 109.752414,108.025577 C104.442069,107.38553 101.237471,105.460786 100.506437,102.893693 C99.7616092,100.273647 99.9570115,96.7510884 98.5845977,94.8240419 C96.8581609,92.4042977 91.9018391,88.9577163 91.3524138,86.5748093 C90.8029885,84.1919023 92.5432184,79.331693 92.6328736,78.4153674 C92.7248276,77.4990419 91.9937931,76.2166465 91.4443678,75.8482744 C92.3593103,75.8482744 94.6673563,75.5236465 95.317931,75.4200419" id="Fill-66" fill="#D91A31"></path>
                <path d="M98.8963218,108.75104 C98.6618391,107.982063 98.0112644,104.793342 98.1285057,103.430365 C97.2457471,104.144086 96.5354023,104.673621 95.5928736,105.797156 C95.0618391,103.847086 94.9445977,96.343807 95.2963218,94.0967372 C92.4641379,97.5824581 89.8365517,105.394249 89.5009195,107.8209 C89.2066667,109.948249 89.9285057,111.138551 90.8710345,111.727947 C91.8158621,112.319644 100.489425,114.389435 104.16069,117.532109 C107.746897,116.634202 113.99977,116.456923 117.188276,116.811481 C119.130805,117.0279 120.018161,115.441598 120.551494,113.606644 C120.806667,112.727156 122.441149,104.259202 122.321609,100.538644 C121.436552,102.723551 118.956092,107.922202 117.71931,109.282877 C117.602069,108.633621 116.714713,106.566133 116.714713,106.566133 L113.411264,111.173086 L111.995172,109.697295 L110.402069,111.232947 L109.045747,109.282877 L106.448046,110.76097 L105.034253,108.633621 L102.496322,109.637435 L101.611264,107.569947 L98.8963218,108.75104 Z" id="Fill-68" fill="#FEFEFE"></path>
                <path d="M102.611724,52.3765256 C99.0301149,55.7125953 95.7910345,60.3932233 94.5772414,67.5810837 C90.3841379,59.288107 93.0002299,48.7112233 99.7726437,43.2109674 C101.147356,44.4933628 104.441609,46.2339209 106.089885,46.5102 C107.738161,46.7864791 113.322069,44.2170837 117.715172,45.1357116 C123.064598,46.2523395 124.643908,48.900014 126.685287,49.7173395 C128.062299,50.2675953 129.984138,50.4540837 132.271494,50.5461767 C133.554253,55.7701535 130.168046,66.0385256 124.124368,71.1727116 C125.956552,66.5887814 126.230115,60.6303628 125.862299,57.2367349 C124.489885,58.6112233 122.843908,59.8038279 121.834713,60.3540837 C121.653103,58.7954093 121.745057,55.1278047 121.745057,55.1278047 L119.453103,56.4102 L118.264598,54.027293 L116.161149,55.3119907 L114.878391,53.3849442 L113.230115,54.6696419 L111.949655,52.2867349 L109.935862,54.3035721 L107.556552,52.2867349 C106.181839,53.843107 104.809425,55.5859674 103.984138,57.0525488 C103.158851,55.6780605 102.887586,54.3933628 102.611724,52.3765256" id="Fill-70" fill="#FEFEFE"></path>
                <path d="M114.235172,31.3993465 C115.892644,33.4668349 117.331724,36.3700674 117.770805,39.259486 C121.929425,32.8037651 131.016782,29.161486 136.071954,28.8207419 C133.630575,28.3096256 129.14092,28.8207419 127.331724,29.0970209 C126.453563,28.8783 124.586897,27.775486 123.706437,27.0065093 C123.377701,28.2175326 123.048966,29.8683 123.048966,30.8583 C121.947816,31.4085558 120.407586,31.9588116 119.529425,32.6195791 C120.506437,29.2743 121.076552,24.7824628 120.846667,19.961393 C119.996092,23.9858581 114.94092,28.4224395 108.538621,26.1247186 C110.628276,27.3288349 111.446667,28.4730907 112.327126,29.3318581 C113.805287,29.3318581 115.94092,29.0970209 117.476552,28.3257419 C116.644368,30.1284628 115.444368,30.9573 114.235172,31.3993465" id="Fill-72" fill="#0D2C6B"></path>
            </g>
        </g>
    </g>
</svg>