<?xml version="1.0" encoding="UTF-8"?>
<svg width="200px" height="200px" viewBox="0 0 200 200" version="1.1" xmlns="http://www.w3.org/2000/svg" xmlns:xlink="http://www.w3.org/1999/xlink">
    <title>brown_BGD</title>
    <defs>
        <polygon id="path-1" points="0 0 164.16408 0 164.16408 200 0 200"></polygon>
    </defs>
    <g id="brown_BGD" stroke="none" stroke-width="1" fill="none" fill-rule="evenodd">
        <g id="brown_bgd" transform="translate(18.000000, 0.000000)">
            <g id="Group-4">
                <mask id="mask-2" fill="white">
                    <use xlink:href="#path-1"></use>
                </mask>
                <g id="Clip-2"></g>
                <path d="M158.608232,193.135862 L156.977254,195.75595 L155.370828,193.135862 L153.36455,193.135862 L153.36455,199.919328 L155.216499,199.919328 L155.216499,195.955876 L156.935164,198.642605 L157.001806,198.642605 L158.720471,195.955876 L158.720471,199.919328 L160.589958,199.919328 L160.589958,193.135862 L158.608232,193.135862 Z M146.36362,193.135862 L146.36362,194.787885 L148.390944,194.787885 L148.390944,199.919328 L150.284983,199.919328 L150.284983,194.787885 L152.312306,194.787885 L152.312306,193.135862 L146.36362,193.135862 L146.36362,193.135862 Z" id="Fill-1" fill="#FFFFFE" mask="url(#mask-2)"></path>
                <path d="M132.14079,0 L0,0 L0,67.5014468 L15.2575367,67.5014468 L15.2575367,132.281089 L0,132.281089 L0,200.021045 L131.635713,200.021045 L164.16408,168.874625 L164.16408,105.161256 L154.234405,96.9712913 L162.03504,89.8300626 L162.03504,31.6514968 L132.144298,0 L132.14079,0 Z M130.629066,3.5074797 L158.52756,33.0439663 L158.52756,88.2832641 L148.892513,97.1045755 L160.6566,106.809772 L160.6566,167.373424 L130.225706,196.510058 L3.5074797,196.510058 L3.5074797,135.785062 L18.7650164,135.785062 L18.7650164,63.9939671 L3.5074797,63.9939671 L3.5074797,3.5074797 L130.629066,3.5074797 L130.629066,3.5074797 Z M146.977429,161.53347 L124.732993,182.830887 L17.5373985,182.830887 L17.5373985,148.061241 L32.5844864,148.061241 L32.5844864,51.7177882 L17.5373985,51.7177882 L17.5373985,17.1866505 L124.732993,17.1866505 L144.848389,38.4840673 L144.848389,82.2609214 L128.047561,97.6412199 L146.977429,113.260027 L146.977429,161.53347 Z M133.39296,97.5044282 L148.355869,83.8042125 L148.355869,37.0880904 L126.244717,13.6791708 L14.0299188,13.6791708 L14.0299188,54.5237719 L28.9367075,54.5237719 L28.9367075,145.258764 L14.0299188,145.258764 L14.0299188,186.341874 L126.143,186.341874 L150.484909,163.034671 L150.484909,111.608004 L133.39296,97.5044282 Z M79.6373266,76.0947721 L96.1224812,76.0947721 L96.1224812,59.6096175 L79.6373266,59.6096175 L79.6373266,76.0947721 Z M73.4992371,81.7067396 L102.260571,81.7067396 L102.260571,53.99765 L73.4992371,53.99765 L73.4992371,81.7067396 Z M69.9917574,84.6880974 L105.592676,84.6880974 L105.592676,51.0162922 L69.9917574,51.0162922 L69.9917574,84.6880974 Z M79.6373266,139.874783 L96.1224812,139.874783 L96.1224812,123.740376 L79.6373266,123.740376 L79.6373266,139.874783 Z M73.4992371,145.48675 L102.260571,145.48675 L102.260571,117.777661 L73.4992371,117.777661 L73.4992371,145.48675 Z M69.9917574,148.468108 L105.592676,148.468108 L105.592676,114.796303 L69.9917574,114.796303 L69.9917574,148.468108 Z" id="Fill-3" fill="#FFFFFE" mask="url(#mask-2)"></path>
            </g>
            <path d="M79.6373266,139.874783 L96.1224812,139.874783 L96.1224812,123.740376 L79.6373266,123.740376 L79.6373266,139.874783 Z M73.4992371,145.48675 L102.260571,145.48675 L102.260571,117.777661 L73.4992371,117.777661 L73.4992371,145.48675 Z M79.6373266,76.0947721 L96.1224812,76.0947721 L96.1224812,59.6096175 L79.6373266,59.6096175 L79.6373266,76.0947721 Z M73.4992371,81.7067396 L102.260571,81.7067396 L102.260571,53.99765 L73.4992371,53.99765 L73.4992371,81.7067396 Z M150.484909,163.034671 L126.143,186.341874 L14.0299188,186.341874 L14.0299188,145.258764 L28.9367075,145.258764 L28.9367075,54.5237719 L14.0299188,54.5237719 L14.0299188,13.6791708 L126.244717,13.6791708 L148.355869,37.0880904 L148.355869,83.80772 L133.39296,97.5079357 L150.484909,111.611512 L150.484909,163.038179 L150.484909,163.034671 Z M148.892513,97.108083 L158.52756,88.2867715 L158.52756,33.0439663 L130.629066,3.5074797 L3.5074797,3.5074797 L3.5074797,63.9939671 L18.7650164,63.9939671 L18.7650164,135.788569 L3.5074797,135.788569 L3.5074797,196.513565 L130.225706,196.513565 L160.6566,167.376931 L160.6566,106.813279 L148.892513,97.108083 L148.892513,97.108083 Z" id="Fill-5" fill="#AD252A"></path>
            <path d="M69.9917574,84.6880974 L105.592676,84.6880974 L105.592676,51.0162922 L69.9917574,51.0162922 L69.9917574,84.6880974 Z M69.9917574,148.468108 L105.592676,148.468108 L105.592676,114.796303 L69.9917574,114.796303 L69.9917574,148.468108 Z M128.047561,97.6447274 L144.848389,82.2644289 L144.848389,38.4840673 L124.732993,17.1866505 L17.5373985,17.1866505 L17.5373985,51.7177882 L32.5844864,51.7177882 L32.5844864,148.064748 L17.5373985,148.064748 L17.5373985,182.834394 L124.732993,182.834394 L146.977429,161.536978 L146.977429,113.263534 L128.047561,97.6447274 L128.047561,97.6447274 Z" id="Fill-6" fill="#423228"></path>
        </g>
    </g>
</svg>