<?xml version="1.0" encoding="UTF-8"?>
<svg width="200px" height="200px" viewBox="0 0 200 200" version="1.1" xmlns="http://www.w3.org/2000/svg" xmlns:xlink="http://www.w3.org/1999/xlink">
    <title>byu_BGD</title>
    <g id="byu_BGD" stroke="none" stroke-width="1" fill="none" fill-rule="evenodd">
        <g id="BYU_bgd" transform="translate(0.000000, 36.000000)">
            <path d="M158.745132,45.9593422 C155.897872,43.1114425 148.453654,38.6200806 148.453654,38.6200806 L114.659644,78.2039672 L114.48749,96.0842978 L127.414395,94.6405087 C127.414395,94.6405087 129.186493,101.303954 130.319253,108.131234 C96.3274893,114.966193 70.8896647,107.877163 70.8896647,107.877163 L73.4348551,94.857461 L85.4158734,96.0772581 L85.4158734,77.7675026 C85.4158734,77.7675026 59.1044795,46.9071489 50.9767656,37.0054174 C45.8908646,39.1864606 40.4408165,43.3968724 40.4408165,43.3968724 L32.3476614,33.1463532 C53.3843609,14.6292451 90.4851349,12.9147454 90.4851349,12.9147454 C90.4851349,12.9147454 91.0067166,19.4930738 91.391343,27.0780869 C85.3198767,27.6777457 78.6602712,28.7074695 78.6602712,28.7074695 L107.223746,61.9319 L132.068311,32.3227022 L121.104857,29.915747 C121.104857,29.915747 122.338094,21.7854732 123.269901,15.6116105 C150.454224,18.211199 167.649779,35.0400466 167.649779,35.0400466 C167.649779,35.0400466 162.270768,41.7073319 158.745132,45.9593422 Z M100.00096,0 C44.7664242,0 0,27.7590229 0,62.0054974 C0,96.2558118 44.7664242,124.018035 100.00096,124.018035 C155.228456,124.018035 200,96.2558118 200,62.0054974 C200,27.7590229 155.228456,0 100.00096,0 L100.00096,0 Z" id="Fill-1" fill="#FFFFFE"></path>
            <path d="M121.104857,29.915747 L132.068311,32.3227022 L107.223746,61.9319 L78.6602712,28.7074695 C78.6602712,28.7074695 85.3198767,27.6777457 91.391343,27.0780869 C91.0067166,19.4930738 90.4851349,12.9147454 90.4851349,12.9147454 C90.4851349,12.9147454 53.3843609,14.6292451 32.3476614,33.1463532 L40.4408165,43.3968724 C40.4408165,43.3968724 45.8908646,39.1864606 50.9767656,37.0054174 C59.1044795,46.9071489 85.4158734,77.7675026 85.4158734,77.7675026 L85.4158734,96.0772581 L73.4348551,94.857461 L70.8896647,107.877163 C70.8896647,107.877163 96.3274893,114.966193 130.319253,108.131234 C129.186493,101.303954 127.414395,94.6405087 127.414395,94.6405087 L114.48749,96.0842978 L114.659644,78.2039672 L148.453654,38.6200806 C148.453654,38.6200806 155.897872,43.1114425 158.745132,45.9593422 C162.270768,41.7073319 167.649779,35.0400466 167.649779,35.0400466 C167.649779,35.0400466 150.454224,18.211199 123.269901,15.6116105 C122.338094,21.7854732 121.104857,29.915747 121.104857,29.915747" id="Fill-2" fill="#213C84"></path>
            <path d="M161.971259,125.886769 L162.407723,125.886769 C162.596517,125.886769 162.725152,125.900848 162.79363,125.927727 C162.863387,125.954606 162.918425,125.996205 162.956824,126.051243 C162.995863,126.107561 163.016342,126.169639 163.016342,126.240036 C163.016342,126.348193 162.974743,126.435869 162.893466,126.501147 C162.812829,126.567705 162.661154,126.601624 162.437802,126.601624 L161.971259,126.601624 L161.971259,125.886769 Z M161.971259,127.921257 L161.971259,126.922892 L162.195251,126.922892 C162.329006,126.922252 162.430122,126.949131 162.50116,127.004169 C162.599077,127.078407 162.731552,127.25952 162.897946,127.55071 L163.107219,127.921257 L163.568642,127.921257 L163.281932,127.461113 C163.144337,127.242881 163.028501,127.087367 162.933145,126.99393 C162.882587,126.945292 162.817309,126.904973 162.734112,126.870414 C162.937625,126.854415 163.100819,126.782737 163.223055,126.655382 C163.34593,126.528026 163.408008,126.378271 163.408008,126.207397 C163.408008,126.085802 163.370889,125.972526 163.296652,125.86309 C163.224335,125.755573 163.125778,125.680056 163.001622,125.635898 C162.879387,125.593659 162.679074,125.5719 162.401963,125.5719 L161.595592,125.5719 L161.595592,127.921257 L161.971259,127.921257 Z M161.481676,124.817366 C161.134168,125.00488 160.862178,125.27303 160.667624,125.621818 C160.471791,125.971246 160.375155,126.334753 160.375155,126.71362 C160.375155,127.088646 160.470511,127.449594 160.663145,127.795822 C160.855138,128.141409 161.123928,128.4102 161.469516,128.601553 C161.815104,128.794186 162.174771,128.888263 162.551718,128.888263 C162.929945,128.888263 163.290892,128.794186 163.63648,128.601553 C163.981428,128.4102 164.249578,128.141409 164.440292,127.795822 C164.631645,127.449594 164.728282,127.088646 164.728282,126.71362 C164.728282,126.334753 164.630365,125.971246 164.435812,125.621818 C164.242539,125.27303 163.970548,125.00488 163.6224,124.817366 C163.274893,124.629213 162.918425,124.535776 162.551718,124.535776 C162.186291,124.535776 161.830464,124.629213 161.481676,124.817366 Z M163.443847,125.132235 C163.733757,125.28839 163.960309,125.512382 164.123503,125.803572 C164.285417,126.095401 164.367334,126.398751 164.367334,126.71362 C164.367334,127.026569 164.286697,127.327998 164.127983,127.614708 C163.967988,127.902698 163.743996,128.12669 163.455366,128.287964 C163.166097,128.447319 162.865307,128.528596 162.551718,128.528596 C162.238769,128.528596 161.93734,128.447319 161.64935,128.287964 C161.36136,128.12669 161.136728,127.902698 160.976734,127.614708 C160.814819,127.327998 160.736102,127.026569 160.736102,126.71362 C160.736102,126.398751 160.816739,126.095401 160.979934,125.803572 C161.144408,125.512382 161.37032,125.28839 161.65959,125.132235 C161.948859,124.974801 162.247089,124.897364 162.551718,124.897364 C162.856347,124.897364 163.153297,124.974801 163.443847,125.132235 L163.443847,125.132235 Z" id="Fill-3" fill="#FFFFFE"></path>
        </g>
    </g>
</svg>