<?xml version="1.0" encoding="UTF-8"?>
<svg width="200px" height="200px" viewBox="0 0 200 200" version="1.1" xmlns="http://www.w3.org/2000/svg" xmlns:xlink="http://www.w3.org/1999/xlink">
    <title>cal-st-fullerton</title>
    <g id="cal-st-fullerton" stroke="none" stroke-width="1" fill="none" fill-rule="evenodd">
        <g id="Group-3" transform="translate(35.000000, 1.000000)">
            <polygon id="Fill-1" fill="#FFFFFF" points="1.7289 -0.0005 22.9119 33.8785 22.9119 86.1815 6.4159 102.1635 22.6749 117.6265 22.6749 171.3175 -0.0001 198.9315 94.7499 198.9315 69.9259 171.3175 69.9259 120.0575 102.9189 135.3415 102.9189 69.4955 70.1169 82.3515 70.1169 41.1795 101.5299 41.1795 130.1699 60.8025 130.1699 -0.0005"></polygon>
            <polygon id="Fill-2" fill="#193051" points="22.0874 11.4487 34.6334 31.0357 34.6334 91.0737 22.9834 102.3507 34.5384 113.1337 34.5384 175.4337 22.9834 188.5857 71.5834 188.5857 59.9814 175.3507 59.9814 108.6827 71.7814 108.6827 93.2194 118.9737 93.2194 85.5467 71.7814 93.8167 59.9254 93.8167 59.9254 30.6237 106.1704 30.6237 120.3824 40.9327 120.3824 11.4607"></polygon>
        </g>
    </g>
</svg>