<?xml version="1.0" encoding="UTF-8"?>
<svg width="200px" height="200px" viewBox="0 0 200 200" version="1.1" xmlns="http://www.w3.org/2000/svg" xmlns:xlink="http://www.w3.org/1999/xlink">
    <title>california-baptist_BGD</title>
    <defs>
        <polygon id="path-1" points="0 0 200 0 200 77.9257238 0 77.9257238"></polygon>
    </defs>
    <g id="california-baptist_BGD" stroke="none" stroke-width="1" fill="none" fill-rule="evenodd">
        <g id="california-baptist_bgd" transform="translate(0.000000, 61.000000)">
            <polyline id="Fill-1" fill="#FFFFFE" points="172.102982 3.66219142 172.102982 16.4495757 176.90602 16.4495757 176.90602 56.9248758 173.379719 60.4406428 158.939002 60.4406428 155.307886 56.9454174 155.307886 18.2704007 150.072949 16.4601099 160.10039 16.4495757 160.110924 16.4495757 160.110924 3.66219142 135.876098 3.66219142 135.876098 16.4495757 140.679136 16.4495757 140.679136 63.5798145 151.415524 74.2951348 180.798382 74.2951348 191.534771 63.5066023 191.534771 16.4495757 196.337809 16.4495757 196.337809 3.66219142 172.102982 3.66219142"></polyline>
            <polyline id="Fill-2" fill="#FFFFFE" points="14.3775117 3.66219142 3.64112315 14.4717922 3.64112315 63.5692804 14.3775117 74.2951348 45.6022627 74.2951348 56.3281172 63.5587462 56.3281172 52.6864673 39.8680073 52.6864673 39.8680073 56.9248758 36.3417062 60.4406428 22.361858 60.4406428 18.7307423 56.9454174 18.7307423 18.2704007 12.8785046 16.4601099 36.3627745 16.4495757 39.8680073 20.0701573 39.8680073 25.8149469 56.3281172 25.8149469 56.3281172 14.450724 45.5917286 3.66219142 14.3775117 3.66219142"></polyline>
            <g id="Group-9">
                <mask id="mask-2" fill="white">
                    <use xlink:href="#path-1"></use>
                </mask>
                <g id="Clip-4"></g>
                <path d="M108.052291,27.6984499 L104.43171,31.2874291 L88.5783661,31.2874291 L88.5783661,18.2704007 L82.9873748,16.4601099 L104.43171,16.4495757 L108.052291,20.0385549 L108.052291,27.6984499 Z M108.052291,57.290937 L108.052291,57.3014711 L104.410642,60.7961698 L88.5783661,60.7961698 L88.5783661,44.0748134 L104.410642,44.0748134 L108.052291,47.5695121 L108.052291,57.290937 Z M69.1571113,3.66219142 L69.1571113,16.4495757 L73.4892736,16.4495757 L73.4892736,61.5077505 L69.1571113,61.5077505 L69.1571113,74.2951348 L112.404995,74.2951348 L123.141384,63.5587462 L123.141384,43.3632327 L123.13085,43.3632327 L117.354458,37.5868408 L123.13085,31.8215096 L123.141384,31.8215096 L123.141384,14.4612581 L112.394988,3.66219142 L69.1571113,3.66219142 L69.1571113,3.66219142 Z" id="Fill-3" fill="#FFFFFE" mask="url(#mask-2)"></path>
                <path d="M58.1694837,27.6463059 L38.0366482,27.6463059 L38.0366482,20.8128137 L35.5885157,18.2909422 L20.5615746,18.2909422 L20.5615746,56.1711586 L23.1045144,58.6092837 L35.5885157,58.6092837 L38.0366482,56.1606245 L38.0366482,50.8451008 L58.1694837,50.8451008 L58.1694837,64.3229976 L46.3554533,76.1264939 L13.6137871,76.1264939 L1.81029079,64.333005 L1.81029079,13.7186017 L13.6137871,1.83135906 L46.3554533,1.83135906 L58.1694837,13.6975334 L58.1694837,27.6463059 Z M12.8495357,0 L-0.0316023997,12.9543503 L-0.0316023997,65.0972564 L12.8495357,77.9573262 L47.1197046,77.9573262 L60.0008427,65.0761881 L60.0008427,49.0137418 L36.1952818,49.0137418 L36.1952818,55.3968998 L34.8242643,56.7784514 L23.8371634,56.7784514 L22.3929337,55.3863657 L22.3929337,20.1117672 L34.8137302,20.1223013 L36.1952818,21.5559968 L36.1952818,29.4876724 L60.0008427,29.4876724 L60.0008427,12.9332821 L47.1197046,0 L12.8495357,0 L12.8495357,0 Z" id="Fill-5" fill="#966E2F" mask="url(#mask-2)"></path>
                <path d="M198.169168,18.2909422 L193.365603,18.2909422 L193.365603,64.2703269 L181.562107,76.1264939 L150.651273,76.1264939 L138.847777,64.333005 L138.847777,18.2909422 L134.045265,18.2909422 L134.045265,1.83135906 L161.942283,1.83135906 L161.942283,18.2909422 L157.139245,18.2909422 L157.139245,56.1711586 L159.681658,58.6092837 L172.626001,58.6092837 L175.074661,56.1606245 L175.074661,18.2909422 L170.271623,18.2909422 L170.271623,1.83135906 L198.169168,1.83135906 L198.169168,18.2909422 Z M168.440264,0 L168.440264,20.1223013 L173.232767,20.1223013 L173.232767,55.4074339 L171.862277,56.7784514 L160.424842,56.7784514 L158.981139,55.3863657 L158.981139,20.1223013 L163.773643,20.1223013 L163.773643,0 L132.213906,0 L132.213906,20.1223013 L137.00641,20.1223013 L137.00641,65.0972564 L149.898082,77.9573262 L182.326358,77.9573262 L195.207496,65.0240442 L195.207496,20.1223013 L200,20.1223013 L200,0 L168.440264,0 L168.440264,0 Z" id="Fill-6" fill="#966E2F" mask="url(#mask-2)"></path>
                <path d="M104.379039,26.1704739 L102.924802,27.6147035 L92.2510916,27.6147035 L92.2510916,20.1223013 L102.924802,20.1223013 L104.379039,21.5770651 L104.379039,26.1704739 Z M90.4097251,18.2909422 L90.4097251,29.4460626 L103.677993,29.4460626 L106.210398,26.9347252 L106.210398,20.8028063 L103.677993,18.2909422 L90.4097251,18.2909422 L90.4097251,18.2909422 Z" id="Fill-7" fill="#966E2F" mask="url(#mask-2)"></path>
                <path d="M124.972743,32.5852343 L119.950068,37.5868408 L124.972743,42.5989813 L124.972743,64.3229976 L113.158713,76.1264939 L67.3152181,76.1264939 L67.3152181,59.666384 L71.6579146,59.666384 L71.6579146,18.2909422 L67.3152181,18.2909422 L67.3152181,1.83135906 L113.158713,1.83135906 L124.972743,13.6975334 L124.972743,32.5852343 Z M65.4838591,0 L65.4838591,20.1223013 L69.8270822,20.1223013 L69.8270822,57.8350249 L65.4838591,57.8350249 L65.4838591,77.9573262 L113.922437,77.9573262 L126.804102,65.0761881 L126.804102,41.8457908 L122.555159,37.5868408 L126.804102,33.348959 L126.804102,12.9438162 L113.922437,0 L65.4838591,0 L65.4838591,0 Z" id="Fill-8" fill="#966E2F" mask="url(#mask-2)"></path>
            </g>
            <path d="M104.379039,55.7318852 L102.935336,57.1234442 L92.2510916,57.1234442 L92.2510916,47.7370048 L102.935336,47.7370048 L104.379039,49.1290905 L104.379039,55.7318852 Z M90.4097251,45.9061725 L90.4097251,58.9653374 L103.677993,58.9653374 L106.210398,56.5166782 L106.210398,48.354305 L103.677993,45.9061725 L90.4097251,45.9061725 L90.4097251,45.9061725 Z" id="Fill-10" fill="#966E2F"></path>
            <path d="M123.141384,31.8215096 L123.13085,31.8215096 L117.354458,37.5868408 L123.13085,43.3632327 L123.141384,43.3632327 L123.141384,63.5587462 L112.404995,74.2951348 L69.1571113,74.2951348 L69.1571113,61.5077505 L73.4892736,61.5077505 L73.4892736,16.4495757 L69.1571113,16.4495757 L69.1571113,3.66219142 L112.394988,3.66219142 L123.141384,14.4612581 L123.141384,31.8215096 Z M67.3152181,1.83135906 L67.3152181,18.2909422 L71.6579146,18.2909422 L71.6579146,59.666384 L67.3152181,59.666384 L67.3152181,76.1264939 L113.158713,76.1264939 L124.972743,64.3229976 L124.972743,42.5989813 L119.950068,37.5868408 L124.972743,32.5852343 L124.972743,13.6975334 L113.158713,1.83135906 L67.3152181,1.83135906 L67.3152181,1.83135906 Z" id="Fill-11" fill="#171F3B"></path>
            <path d="M106.210398,56.5166782 L103.677993,58.9653374 L90.4097251,58.9653374 L90.4097251,45.9061725 L103.677993,45.9061725 L106.210398,48.354305 L106.210398,56.5166782 Z M88.5783661,44.0748134 L88.5783661,60.7961698 L104.410642,60.7961698 L108.052291,57.3014711 L108.052291,47.5695121 L104.410642,44.0748134 L88.5783661,44.0748134 L88.5783661,44.0748134 Z" id="Fill-12" fill="#171F3B"></path>
            <path d="M56.3281172,25.8149469 L39.8680073,25.8149469 L39.8680073,20.0701573 L36.3627745,16.4495757 L12.8785046,16.4601099 L18.7307423,18.2704007 L18.7307423,56.9454174 L22.361858,60.4406428 L36.3417062,60.4406428 L39.8680073,56.9248758 L39.8680073,52.6864673 L56.3281172,52.6864673 L56.3281172,63.5587462 L45.6022627,74.2951348 L14.3775117,74.2951348 L3.64112315,63.5692804 L3.64112315,14.4717922 L14.3775117,3.66219142 L45.5917286,3.66219142 L56.3281172,14.450724 L56.3281172,25.8149469 Z M13.6137871,1.83135906 L1.81029079,13.7186017 L1.81029079,64.333005 L13.6137871,76.1264939 L46.3554533,76.1264939 L58.1694837,64.3229976 L58.1694837,50.8451008 L38.0366482,50.8451008 L38.0366482,56.1606245 L35.5885157,58.6092837 L23.1045144,58.6092837 L20.5615746,56.1711586 L20.5615746,18.2909422 L35.5885157,18.2909422 L38.0366482,20.8128137 L38.0366482,27.6463059 L58.1694837,27.6463059 L58.1694837,13.6975334 L46.3554533,1.83135906 L13.6137871,1.83135906 L13.6137871,1.83135906 Z" id="Fill-13" fill="#171F3B"></path>
            <path d="M106.210398,26.9347252 L103.677993,29.4460626 L90.4097251,29.4460626 L90.4097251,18.2909422 L103.677993,18.2909422 L106.210398,20.8028063 L106.210398,26.9347252 Z M82.9873748,16.4601099 L88.5783661,18.2704007 L88.5783661,31.2874291 L104.43171,31.2874291 L108.052291,27.6984499 L108.052291,20.0385549 L104.43171,16.4495757 L82.9873748,16.4601099 L82.9873748,16.4601099 Z" id="Fill-14" fill="#171F3B"></path>
            <path d="M196.337809,16.4495757 L191.534771,16.4495757 L191.534771,63.5066023 L180.798382,74.2951348 L151.415524,74.2951348 L140.679136,63.5798145 L140.679136,16.4495757 L135.876098,16.4495757 L135.876098,3.66219142 L160.110924,3.66219142 L160.110924,16.4495757 L160.10039,16.4495757 L150.072949,16.4601099 L155.307886,18.2704007 L155.307886,56.9454174 L158.939002,60.4406428 L173.379719,60.4406428 L176.90602,56.9248758 L176.90602,16.4495757 L172.102982,16.4495757 L172.102982,3.66219142 L196.337809,3.66219142 L196.337809,16.4495757 Z M170.271623,1.83135906 L170.271623,18.2909422 L175.074661,18.2909422 L175.074661,56.1606245 L172.626001,58.6092837 L159.681658,58.6092837 L157.139245,56.1711586 L157.139245,18.2909422 L161.942283,18.2909422 L161.942283,1.83135906 L134.045265,1.83135906 L134.045265,18.2909422 L138.847777,18.2909422 L138.847777,64.333005 L150.651273,76.1264939 L181.562107,76.1264939 L193.365603,64.2703269 L193.365603,18.2909422 L198.169168,18.2909422 L198.169168,1.83135906 L170.271623,1.83135906 L170.271623,1.83135906 Z" id="Fill-15" fill="#171F3B"></path>
        </g>
    </g>
</svg>