<?xml version="1.0" encoding="UTF-8"?>
<svg width="200px" height="200px" viewBox="0 0 200 200" version="1.1" xmlns="http://www.w3.org/2000/svg" xmlns:xlink="http://www.w3.org/1999/xlink">
    <title>colgate_BGD</title>
    <defs>
        <polygon id="path-1" points="0.0547945205 0.189041096 199.290411 0.189041096 199.290411 185.333333 0.0547945205 185.333333"></polygon>
    </defs>
    <g id="colgate_BGD" stroke="none" stroke-width="1" fill="none" fill-rule="evenodd">
        <g id="colgate_bgd" transform="translate(0.000000, 7.000000)">
            <g id="Group-3">
                <mask id="mask-2" fill="white">
                    <use xlink:href="#path-1"></use>
                </mask>
                <g id="Clip-2"></g>
                <path d="M101.590868,185.388128 C72.6767123,185.388128 46.36621,175.216438 27.5077626,156.745205 C10.026484,139.622831 0,116.311416 0,92.7881279 C0,68.169863 9.76986301,45.1552511 27.509589,27.9817352 C46.0228311,10.0593607 71.9872146,0.189041096 100.619178,0.189041096 C135.556164,0.189041096 170.449315,14.3808219 193.956164,38.1525114 L199.290411,43.5461187 L167.147032,74.9589041 L161.874886,69.6876712 C146.367123,54.1799087 123.46758,44.9205479 100.619178,44.9205479 C84.9863014,44.9205479 70.8812785,50.0027397 60.9013699,59.230137 C51.4146119,68.0009132 46.1899543,79.9187215 46.1899543,92.7881279 C46.1899543,104.60274 51.5872146,116.491324 60.9981735,125.408219 C71.3780822,135.240183 85.7945205,140.655708 101.590868,140.655708 C123.49863,140.655708 146.598174,131.16621 161.874886,115.889498 L167.147032,110.617352 L199.290411,142.030137 L193.956164,147.424658 C170.8,170.842009 135.407306,185.388128 101.590868,185.388128 M100.619178,3.33150685 C72.8073059,3.33150685 47.6191781,12.8876712 29.6940639,30.2383562 C12.5716895,46.8146119 3.14155251,69.0292237 3.14155251,92.7881279 C3.14155251,115.472146 12.8237443,137.964384 29.7077626,154.500457 C47.9753425,172.392694 73.5031963,182.245662 101.590868,182.245662 C134.598174,182.245662 169.134247,168.056621 191.721461,145.215525 L194.83379,142.069406 L167.172603,115.035616 L164.096804,118.110502 C148.252055,133.955251 124.30137,143.798174 101.590868,143.798174 C84.9863014,143.798174 69.8027397,138.076712 58.8374429,127.688584 C48.8027397,118.181735 43.0474886,105.461187 43.0474886,92.7881279 C43.0474886,79.0319635 48.6310502,66.2958904 58.7680365,56.9223744 C69.3305936,47.1570776 84.1926941,41.7789954 100.619178,41.7789954 C124.282192,41.7789954 148.011872,51.3808219 164.096804,67.4648402 L167.172603,70.5415525 L194.83379,43.5086758 L191.721461,40.3616438 C168.792694,17.1744292 134.734247,3.33150685 100.619178,3.33150685" id="Fill-1" fill="#FFFFFE" mask="url(#mask-2)"></path>
            </g>
            <path d="M167.207306,121.221918 L188.593607,142.121461 C166.964384,163.994521 133.912329,177.846575 101.590868,177.846575 C43.5086758,177.846575 7.54063927,135.560731 7.54063927,92.7881279 C7.54063927,47.8292237 43.7515982,7.72968037 100.619178,7.72968037 C133.912329,7.72968037 166.964384,21.5826484 188.593607,43.4547945 L167.207306,64.3543379 C151.168037,48.3150685 126.379909,37.3789954 100.619178,37.3789954 C63.6794521,37.3789954 38.6484018,62.4109589 38.6484018,92.7881279 C38.6484018,120.493151 63.4365297,148.198174 101.590868,148.198174 C126.379909,148.198174 151.168037,137.261187 167.207306,121.221918" id="Fill-4" fill="#FFFFFE"></path>
        </g>
    </g>
</svg>