<?xml version="1.0" encoding="UTF-8"?>
<svg width="200px" height="200px" viewBox="0 0 200 200" version="1.1" xmlns="http://www.w3.org/2000/svg" xmlns:xlink="http://www.w3.org/1999/xlink">
    <!-- Generator: Sketch 54.1 (76490) - https://sketchapp.com -->
    <title>eastern-mich</title>
    <desc>Created with Sketch.</desc>
    <g id="eastern-mich" stroke="none" stroke-width="1" fill="none" fill-rule="evenodd">
        <g id="eastern-mich_BGD" fill="#FFFFFF">
            <g id="eastern-mich" transform="translate(4.000000, 0.000000)">
                <g id="g10" transform="translate(96.500000, 100.432755) scale(-1, 1) rotate(-180.000000) translate(-96.500000, -100.432755) translate(0.000000, 0.918191)" fill-rule="nonzero">
                    <g id="g12">
                        <polyline id="path14" points="180.35669 5.9233234 182.388396 5.9233234 182.388396 0 183.259775 0 183.259775 5.9233234 185.303571 5.9233234 185.303571 6.65594926 180.35669 6.65594926 180.35669 5.9233234"></polyline>
                        <path d="M192.250422,6.65594926 L191.146615,6.65594926 L189.958783,3.43382245 C189.662581,2.59534576 189.425317,1.86507409 189.2482,1.19595391 L189.224625,1.19595391 C189.050832,1.88388947 188.830192,2.61768941 188.553938,3.43382245 L187.411141,6.65594926 L186.30945,6.65594926 L185.846709,0 L186.670635,0 L186.847752,2.85288169 C186.908201,3.86184983 186.955352,4.96843519 186.976509,5.7927898 L186.995551,5.7927898 C187.182037,5.00371779 187.442877,4.15585148 187.758121,3.20803785 L188.848931,0.0411587255 L189.505412,0.0411587255 L190.680247,3.26918032 C191.016649,4.1840595 191.28716,5.02370726 191.523215,5.7927898 L191.544372,5.7927898 C191.544372,4.97668385 191.606031,3.85010903 191.65439,2.92344088 L191.810048,0 L192.666012,0 L192.250422,6.65594926" id="path16"></path>
                        <polyline id="path18" points="0 33.6467215 23.7925425 33.6467215 23.7925425 165.010909 0 165.010909 0 198.656426 175.655233 198.656426 175.655233 135.754042 137.764609 135.754042 137.764609 165.010909 75.7848763 165.010909 75.7848763 119.369606 121.562341 119.369606 121.562341 85.7252933 75.7848763 85.7252933 75.7848763 33.6467215 137.764609 33.6467215 137.764609 63.1962052 175.655233 63.1962052 175.655233 0 0 0 0 33.6467215"></polyline>
                    </g>
                </g>
            </g>
        </g>
    </g>
</svg>