<?xml version="1.0" encoding="UTF-8"?>
<svg width="200px" height="200px" viewBox="0 0 200 200" version="1.1" xmlns="http://www.w3.org/2000/svg" xmlns:xlink="http://www.w3.org/1999/xlink">
    <!-- Generator: Sketch 54.1 (76490) - https://sketchapp.com -->
    <title>elon</title>
    <desc>Created with Sketch.</desc>
    <g id="elon" stroke="none" stroke-width="1" fill="none" fill-rule="evenodd">
        <g id="elon_BGD" transform="translate(0.000000, 0.000000)">
            <g id="elon" transform="translate(10.000000, 0.000000)">
                <g id="g10" transform="translate(89.950247, 99.950022) scale(-1, 1) rotate(-180.000000) translate(-89.950247, -99.950022) " fill-rule="nonzero">
                    <g id="g12">
                        <path d="M6.20973119,0 L0,0.00281109438 L27.8220889,33.8584699 L27.8220889,166.027982 L0.027907263,199.900045 L6.20973119,199.888651 L175.476613,199.888651 L175.476613,139.7923 L175.434821,131.192001 L146.507061,162.862165 L86.3056695,162.862165 L86.3056695,120.35342 L115.377908,120.35342 L143.753827,140.870961 L143.777111,135.67256 L143.777111,67.8418774 L143.767758,62.5303333 L115.362982,83.3309324 L86.3056695,83.3309324 L86.3056695,41.3111434 C86.3056695,38.066166 87.3412913,37.0234873 90.571739,37.0234873 L145.852733,37.0234873 L179.753627,70.3830067 L179.799398,62.8153907 L179.799398,0 L6.20973119,0" id="path14" fill="#FFFFFF"></path>
                        <path d="M169.747856,144.73283 L148.668653,167.802495 L81.3864656,167.802495 L81.3864656,115.412891 L116.970146,115.412891 L138.04736,130.732231 L138.858305,130.732231 L138.858305,72.7842061 L138.04736,72.7842061 L116.970146,88.2714621 L81.3864656,88.2714621 L81.3864656,41.3111434 C81.3864656,35.3449267 84.6242765,32.0829577 90.571739,32.0829577 L147.860096,32.0829577 L174.07303,57.8738616 L174.880991,57.8738616 L174.880991,4.94056959 L11.1274823,4.94056959 L11.1274823,5.76015978 L32.7410937,32.0829577 L32.7410937,167.802495 L11.1274823,194.132329 L11.1274823,194.949121 L170.558205,194.949121 L170.558205,144.73283 L169.747856,144.73283" id="path16" fill="#B09645"></path>
                    </g>
                </g>
            </g>
        </g>
    </g>
</svg>