<?xml version="1.0" encoding="UTF-8"?>
<svg width="200px" height="200px" viewBox="0 0 200 200" version="1.1" xmlns="http://www.w3.org/2000/svg" xmlns:xlink="http://www.w3.org/1999/xlink">
    <!-- Generator: Sketch 54.1 (76490) - https://sketchapp.com -->
    <title>fairfield</title>
    <desc>Created with Sketch.</desc>
    <g id="fairfield" stroke="none" stroke-width="1" fill="none" fill-rule="evenodd">
        <g id="fairfield_BGD">
            <g id="fairfield" transform="translate(1.000000, 11.000000)">
                <g id="g10" transform="translate(99.500000, 89.797148) scale(-1, 1) rotate(-180.000000) translate(-99.500000, -89.797148) translate(0.000000, 0.797148)" fill-rule="nonzero">
                    <g id="g12">
                        <polyline id="path14" fill="#BCBDBD" points="0 162.38468 2.74514279 177.032406 196.424055 162.30354 181.991975 98.7755953 153.595986 119.486174 93.9473661 119.486174 89.3009501 99.0113058 150.620548 99.0113058 142.494232 63.3011597 80.9226045 63.3011597 65.9554871 0 3.07996985 0 33.3078688 133.17341 0 162.38468"></polyline>
                        <polyline id="path16" fill="#FFFFFF" points="2.55208014 177.00705 198.973429 176.92591 184.537339 113.398675 156.14937 134.099415 97.2819023 134.099415 92.6295716 113.64108 153.946863 113.64108 145.826563 77.9181542 84.4451107 77.9181542 69.4779933 14.6233842 5.61951866 14.6233842 35.859147 147.812008 2.55208014 177.00705"></polyline>
                        <polyline id="path18" fill="#231F20" points="18.4445108 24.943327 47.1863647 151.5495 29.9264153 166.672908 186.166411 166.599882 178.038091 130.868031 159.43759 144.428486 89.1541832 144.428486 79.8124291 103.305923 141.129821 103.305923 137.70927 88.2361699 76.3917775 88.2361699 61.4246601 24.943327 18.4445108 24.943327"></polyline>
                    </g>
                </g>
            </g>
        </g>
    </g>
</svg>