<?xml version="1.0" encoding="UTF-8"?>
<svg width="200px" height="200px" viewBox="0 0 200 200" version="1.1" xmlns="http://www.w3.org/2000/svg" xmlns:xlink="http://www.w3.org/1999/xlink">
    <!-- Generator: Sketch 54.1 (76490) - https://sketchapp.com -->
    <title>furman</title>
    <desc>Created with Sketch.</desc>
    <g id="furman" stroke="none" stroke-width="1" fill="none" fill-rule="evenodd">
        <g id="furman_BGD">
            <g id="furman" transform="translate(0.000000, 2.000000)">
                <g id="g10" transform="translate(99.951618, 98.018411) scale(-1, 1) rotate(-180.000000) translate(-99.951618, -98.018411) translate(0.000000, 0.091060)" fill-rule="nonzero">
                    <g id="g12">
                        <path d="M99.8364755,0 C99.8364755,0 105.468793,41.7071717 136.842183,68.025898 C136.842183,68.025898 159.767001,88.8717349 199.653599,97.9682269 L199.729071,97.9943796 C159.824282,107.034885 136.87005,127.846046 136.87005,127.846046 C105.452344,154.123121 99.8838872,195.80046 99.8838872,195.80046 L99.8413134,195.786899 C99.8413134,195.786899 94.2709217,154.112467 62.8582471,127.832098 C62.8582471,127.832098 39.9024663,107.022487 6.06329786e-14,97.9806252 L0.0783895481,97.9542787 C39.9581993,88.8601114 62.8874682,68.0193114 62.8874682,68.0193114 C94.2658902,41.6972918 99.8101572,0 99.8101572,0 L99.8364755,0" id="path14" fill="#FFFFFF"></path>
                        <path d="M172.162937,98.0067779 C116.157907,117.433782 99.8215747,168.628187 99.8215747,168.628187 L99.8149951,168.610945 C99.8149951,168.610945 83.4475064,117.405111 27.4461532,97.9806252 L27.4622151,97.9626089 C83.4637618,78.5363796 99.8281543,27.2714597 99.8281543,27.2714597 L99.8413134,27.2551869 C99.8413134,27.2551869 116.194095,78.5427724 172.195642,97.9740386 L172.162937,98.0067779" id="path16" fill="#512884"></path>
                        <path d="M156.566034,97.9806252 C115.438023,79.37191 99.8494411,41.4940756 99.8494411,41.4940756 L99.8476995,41.4940756 C99.8476995,41.4940756 84.2624072,79.3341339 43.1293652,97.9420742 L43.0966608,97.9707453 C84.2266065,116.57946 99.8149951,154.422037 99.8149951,154.422037 L99.8281543,154.422037 C99.8281543,154.422037 115.410157,116.61065 156.538167,98.000385 L156.566034,97.9806252" id="path18" fill="#FFFFFF"></path>
                        <path d="M80.9046908,74.7587666 L80.9780338,80.381017 C82.7963211,80.7151905 84.75665,82.4974489 84.7761953,84.407565 L84.7761953,108.100366 C84.6879514,109.747599 83.606384,111.303782 80.9780338,111.265424 L80.9780338,118.935141 L119.808802,118.935141 L119.808802,103.64627 L114.231831,103.656731 C114.164874,108.461661 110.044313,111.366742 107.683016,111.265424 L95.7043034,111.265424 L95.7043034,98.8864774 L100.031154,98.9176669 C101.724623,98.9879886 103.418285,100.613137 103.550844,103.588153 L108.941265,103.620117 L108.941265,86.917256 L103.616446,86.941859 C103.616446,90.9995964 101.793515,92.0840619 100.10798,92.0807686 L95.7043034,92.0807686 L95.6388946,84.5712615 C95.5767755,81.6652117 98.4141243,80.3728806 100.103142,80.3728806 L100.168357,74.8930172 L80.9046908,74.7587666" id="path20" fill="#512884"></path>
                        <path d="M111.620123,12.1709265 L112.97513,12.1709265 C113.331976,12.1709265 113.593611,12.2627128 113.763906,12.4395632 C113.937298,12.6166461 114.025735,12.8360963 114.025735,13.0982239 C114.025735,13.3634511 113.937298,13.5699606 113.752489,13.7042112 C113.565938,13.8452614 113.338362,13.9173073 113.056988,13.9173073 L111.620123,13.9173073 L111.620123,12.1709265 Z M114.915914,9.33339675 L114.063277,9.33339675 L113.056988,11.5614522 L111.620123,11.5614522 L111.620123,9.33339675 L110.849344,9.33339675 L110.849344,14.5659137 L113.056988,14.5659137 C113.655924,14.5659137 114.102561,14.4119034 114.393998,14.1038439 C114.693369,13.7959975 114.839088,13.4583564 114.839088,13.0817962 C114.839088,12.8064954 114.758778,12.5377812 114.600094,12.2823177 C114.43154,12.0267573 114.179581,11.8499069 113.835701,11.7385157 L114.915914,9.33339675 Z M116.653892,11.9513988 C116.653892,13.0130049 116.279049,13.9238939 115.519687,14.6805595 C114.770389,15.4341836 113.862019,15.8142114 112.796707,15.8142114 C111.739523,15.8142114 110.829799,15.4341836 110.073727,14.6773049 C109.316108,13.9204069 108.93991,13.0095372 108.93991,11.9513988 C108.93991,10.8865187 109.316108,9.97911673 110.065406,9.22223807 C110.81664,8.46882707 111.729847,8.08856674 112.796707,8.08856674 C113.85215,8.08856674 114.763809,8.46882707 115.519687,9.22549263 C116.279049,9.98221631 116.653892,10.8931053 116.653892,11.9513988 Z M117.29037,11.9513988 C117.29037,10.7130779 116.851666,9.65478444 115.974646,8.77334142 C115.089305,7.88864384 114.030573,7.4529204 112.796707,7.4529204 C111.561294,7.4529204 110.505658,7.88864384 109.620317,8.77334142 C108.743297,9.65478444 108.304787,10.7130779 108.304787,11.9513988 C108.304787,13.183288 108.743297,14.2414265 109.620317,15.1261241 C110.505658,16.0075671 111.561294,16.4498771 112.796707,16.4498771 C114.030573,16.4498771 115.089305,16.0075671 115.974646,15.1261241 C116.851666,14.2414265 117.29037,13.183288 117.29037,11.9513988 L117.29037,11.9513988 Z" id="path22" fill="#FFFFFF"></path>
                    </g>
                </g>
            </g>
        </g>
    </g>
</svg>