<svg width="200" height="200" viewBox="0 0 200 200" fill="none" xmlns="http://www.w3.org/2000/svg">
<path d="M194.971 37.5358C194.971 37.5358 190.232 37.5358 186.557 37.5358C184.429 37.5358 183.172 37.5358 182.689 37.5358C164.894 37.4391 157.447 33.8607 147.969 29.3153L147.582 29.1219C137.427 24.1896 124.758 18 100.387 18H100.097H99.8066C75.3385 18 62.766 24.1896 52.6112 29.1219L52.2244 29.3153C42.7466 33.8607 35.2998 37.4391 17.5048 37.5358C17.0213 37.5358 15.764 37.5358 13.6364 37.5358C9.96132 37.5358 5.22244 37.5358 5.22244 37.5358H0L1.06383 42.5648C1.25725 43.3385 5.51257 62.1006 21.6634 70.1277C23.0174 72.6422 25.1451 75.9304 28.53 79.0251C28.53 81.5397 28.7234 86.1818 28.8201 89.0832C29.1103 98.8511 31.0445 107.555 34.5261 114.905C38.4913 124.286 44.5841 132.023 52.5145 138.019H52.6112C54.1586 139.18 56.5764 141.017 57.06 141.694C57.8337 142.952 58.7041 146.046 59.381 148.851C60.9284 154.847 63.1528 162.971 68.8588 169.644C75.6286 177.574 86.3636 181.83 100 182.023C113.636 181.83 124.371 177.574 131.141 169.644C136.847 162.971 138.975 154.75 140.619 148.851C141.296 146.143 142.166 142.952 142.94 141.694C143.424 141.017 145.841 139.18 147.389 138.019H147.485C155.416 132.023 161.509 124.19 165.474 114.905C169.052 107.555 170.89 98.8511 171.18 89.0832C171.373 86.1818 171.47 81.5397 171.47 79.0251C174.758 75.9304 176.983 72.7389 178.337 70.1277C194.584 62.1973 198.743 43.4352 198.936 42.5648L200 37.5358H194.971Z" fill="white"/>
<path d="M71.9534 167.323C66.8277 161.327 64.8934 153.977 63.3461 148.077C62.4756 144.692 61.6052 141.598 60.5414 139.76C59.671 138.406 57.4466 136.762 55.0288 134.924C49.8064 130.959 42.9399 124.286 38.2977 113.358V113.261C35.2996 107.071 33.172 99.2378 32.9786 88.9864C32.7851 84.9245 32.6884 77.0908 32.6884 77.0908C28.5298 73.6092 26.112 69.8374 24.758 66.9361C8.89731 60.0695 4.93213 41.5976 4.93213 41.5976C4.93213 41.5976 15.7639 41.5976 17.2145 41.5976C36.2668 41.5009 44.584 37.439 54.2551 32.7001C64.7967 27.4777 76.6923 21.8684 100.097 21.9651C123.501 21.9651 135.3 27.5744 145.938 32.7001C155.609 37.3423 163.926 41.5009 182.979 41.5976C184.526 41.5976 195.261 41.5976 195.261 41.5976C195.261 41.5976 191.296 60.1663 175.628 66.9361C174.274 69.8374 171.857 73.6092 167.698 77.0908C167.698 77.0908 167.601 84.9245 167.408 88.9864C167.118 99.2378 164.99 107.071 162.089 113.261V113.358C157.447 124.286 150.58 130.959 145.358 134.924C142.94 136.762 140.619 138.503 139.845 139.76C138.685 141.598 137.911 144.692 137.04 148.077C135.493 153.977 133.559 161.327 128.433 167.323C122.34 174.383 112.669 178.058 100.29 178.251C87.7174 178.058 78.0463 174.383 71.9534 167.323Z" fill="#0039A6"/>
<path d="M141.973 70.2244L146.905 71.9652C145.841 72.352 138.008 75.6402 132.592 82.7002C130.561 81.5396 128.336 80.766 126.692 80.1857C127.853 80.1857 129.207 80.1857 130.561 80.2824H130.948L131.141 79.9923C134.429 74.4797 140.425 71.0948 141.973 70.2244ZM123.598 72.0619C123.598 70.8046 123.404 69.1605 122.63 67.8066C122.147 67.9033 121.663 68.0967 121.47 68.1934C119.923 69.0638 118.665 70.9013 117.601 72.9323C117.408 73.2224 117.408 73.5126 117.408 73.706C117.408 74.4797 117.988 75.1567 119.149 75.1567H119.246C119.729 75.1567 120.309 75.1567 120.986 75.1567C122.824 75.1567 125.048 75.2534 127.079 75.5435C129.497 71.8685 132.882 69.5474 134.719 68.3868C132.398 67.8066 130.174 67.5164 128.24 67.4197C127.659 69.5474 126.402 72.352 124.178 73.8994C124.178 73.8994 124.081 73.9961 123.888 73.9961C123.791 73.9961 123.694 73.9961 123.598 73.8994C123.501 73.8027 123.501 73.6093 123.501 73.5126V73.4159C123.501 73.1257 123.598 72.6422 123.598 72.0619ZM76.7891 73.5126C76.7891 73.706 76.7891 73.8994 76.6924 73.9961C76.5957 74.0928 76.4022 74.0928 76.4022 74.0928C76.2088 74.0928 76.1121 73.9961 76.1121 73.9961C73.8877 72.4487 72.6305 69.5474 72.0502 67.5164C70.116 67.6131 67.9883 67.9033 65.5705 68.4836C67.408 69.6441 70.793 71.9652 73.2108 75.6402C75.2417 75.3501 77.4661 75.2534 79.3036 75.2534C79.8839 75.2534 80.4641 75.2534 81.0444 75.2534H81.1411C82.3017 75.2534 82.8819 74.5764 82.8819 73.8027C82.8819 73.5126 82.7852 73.3191 82.6885 73.029C81.6247 70.9981 80.3674 69.2572 78.82 68.2901C78.5299 68.1934 78.1431 68 77.6595 67.9033C76.8858 69.2572 76.6924 70.9013 76.6924 72.1586C76.6924 72.6422 76.6924 73.1257 76.7891 73.5126ZM88.1044 153.106C88.3945 152.913 88.5879 152.72 88.8781 152.526C90.0386 151.752 91.3926 151.366 92.7465 151.366C94.1972 151.366 95.5512 151.752 96.7117 152.139C97.8723 152.526 98.9361 152.816 100.097 152.816C101.257 152.816 102.321 152.526 103.482 152.139C104.642 151.752 105.996 151.366 107.447 151.366C108.897 151.366 110.155 151.752 111.315 152.526C111.605 152.72 111.799 152.913 112.089 153.106C117.118 146.337 113.153 135.892 112.959 138.309C112.572 142.758 110.832 145.466 109.188 147.014C107.93 145.66 106.576 144.499 106.576 144.499C106.576 144.499 104.642 146.627 103.288 148.367C102.031 146.627 99.9999 144.499 99.9999 144.499C99.9999 144.499 98.0657 146.143 96.8084 147.787C95.5512 146.143 93.5202 144.499 93.5202 144.499C93.5202 144.499 92.1663 145.66 90.909 147.11C89.2649 145.466 87.5241 142.758 87.1373 138.309C87.0405 135.795 83.0754 146.337 88.1044 153.106ZM74.468 122.159C74.9516 125.737 76.6924 133.184 82.1082 137.923C82.6885 138.406 82.9786 138.406 83.0754 137.536C83.0754 136.665 82.3017 127.381 84.526 121.675C80.851 121.675 77.4661 121.868 74.468 122.159ZM118.182 137.826C123.598 133.087 125.338 125.64 125.822 122.062C122.824 121.868 119.342 121.578 115.764 121.482C117.988 127.284 117.215 136.569 117.215 137.342C117.215 138.309 117.601 138.309 118.182 137.826ZM92.8432 124.576L96.3249 128.928C96.3249 128.928 98.2591 126.511 100.097 124.093C101.934 126.511 103.868 128.928 103.868 128.928L107.35 124.576C108.704 126.801 109.961 128.928 109.961 128.928C111.992 126.511 112.863 123.416 113.153 121.385C108.994 121.191 104.642 121.095 100.097 121.095C95.5512 121.095 91.1991 121.191 87.0405 121.385C87.4274 123.319 88.2978 126.414 90.232 128.928C90.3287 128.928 91.586 126.801 92.8432 124.576ZM111.992 100.398C112.186 99.4313 112.089 98.6576 111.605 98.2708C110.735 97.6905 108.897 98.7543 107.543 100.785C106.189 102.816 105.899 104.847 106.77 105.524C107.06 105.718 107.447 105.718 107.93 105.621C108.027 105.621 108.317 105.427 108.607 105.041C109.671 103.783 110.638 102.526 111.605 101.172C111.799 100.882 111.895 100.592 111.992 100.398ZM115.957 29.7988C114.313 32.3133 111.605 36.5687 109.284 41.4042C109.381 45.853 109.574 54.0735 109.865 60.0696C110.928 61.0367 112.282 62.294 113.636 63.4545C115.667 61.617 119.246 58.1354 120.696 55.7176C120.696 55.7176 129.497 56.7814 141.683 64.4217C140.619 61.5203 138.975 57.8453 138.491 56.8781C136.944 56.1044 134.623 54.7505 132.398 53.1064C128.433 50.3017 129.69 44.6924 129.69 44.6924C135.783 48.6576 144.681 52.0425 150 53.6866C148.162 50.4952 147.292 47.4971 147.292 47.4971C159.574 52.7195 175.822 54.9439 182.302 49.3346C146.035 49.4313 144.004 33.9574 115.957 29.7988ZM115.571 86.5687C114.894 84.2476 113.83 82.0232 113.056 81.6364C111.799 80.9594 107.93 80.1857 104.932 80.6692C105.899 79.0251 108.511 77.7679 110.542 77.0909C109.188 76.2205 107.543 76.0271 106.286 76.0271C105.609 76.0271 104.932 76.1238 104.352 76.2205C105.416 73.6093 108.994 71.675 111.025 71.2882C108.897 69.9342 104.255 68.5803 100.193 74.8665C96.2282 68.5803 91.4893 69.9342 89.3616 71.2882C91.3926 71.5783 95.3578 73.3191 96.0347 76.2205C95.8413 76.2205 95.6479 76.1238 95.4545 76.1238C94.2939 76.0271 91.7794 75.8336 89.8452 77.1876C91.7794 77.8646 94.1972 79.2186 95.1643 80.8627C90.7156 80.089 86.3636 82.1199 84.9129 83.4739L84.0425 84.3443C81.3345 79.412 75.822 83.1837 73.9844 84.2476C76.3055 85.5048 77.7562 87.4391 78.6266 89.3733L79.3036 90.7273L78.82 90.5338C76.7891 89.7601 68.3752 87.3423 60.1547 94.7892C63.4429 95.6596 67.6982 96.9168 70.793 98.6576C63.8297 97.9806 55.8026 100.495 55.8026 100.495C55.8026 100.495 66.9245 101.269 73.5009 104.267C63.056 104.46 55.7059 108.232 55.7059 108.232C55.7059 108.232 61.0251 107.845 64.5067 107.845C68.1817 107.845 73.0173 108.232 77.6595 109.393C68.3752 110.456 59.9612 115.582 59.9612 115.582C59.9612 115.582 75.0483 114.228 86.1701 113.841C86.2668 113.841 83.9458 111.424 82.6885 107.458C87.1373 109.876 91.8761 111.424 96.0347 111.52C94.4874 110.36 92.94 108.812 91.3926 107.072C91.2959 106.878 91.1024 106.781 91.1024 106.395C91.1024 105.814 91.7794 105.621 91.9728 105.621C92.1663 105.621 92.3597 105.621 92.5531 105.718C92.7465 105.814 92.94 105.814 93.1334 105.814C93.3268 105.814 93.5202 105.814 93.6169 105.718C93.9071 105.524 94.1005 105.137 94.1005 104.46C94.1005 103.59 93.7137 102.236 92.8432 100.979C91.6827 99.2379 90.1353 98.2708 89.2649 98.2708C89.0715 98.2708 88.8781 98.3675 88.7814 98.4642C88.4912 98.6576 88.2978 99.0445 88.2978 99.6247C88.2978 100.205 88.2011 100.882 87.3307 100.979C86.8471 100.979 86.557 100.689 86.2669 100.302C83.9458 96.8201 82.205 93.9188 82.205 92.3714C82.205 92.1779 82.205 91.8878 82.3984 91.6944C82.8819 91.0174 83.7523 90.9207 84.6227 90.9207C89.0715 90.9207 98.646 94.6925 100.29 95.3694C101.837 94.7892 111.509 91.0174 115.957 90.9207C116.344 90.9207 116.634 90.9207 116.924 91.0174C116.441 89.7601 116.054 88.116 115.571 86.5687ZM90.909 165.582C81.9148 165.582 78.7233 159.876 78.7233 159.876C75.9187 155.427 74.5647 150.012 73.3075 145.176C72.2436 141.017 71.2765 137.149 69.5357 134.248C67.8916 131.54 65.1837 129.412 61.9922 126.897C55.4158 121.675 46.615 114.228 43.7137 98.4642H46.5183C49.9032 81.0561 58.8974 68.9671 60.4448 67.0329C59.1875 64.6151 58.8974 61.617 58.8974 61.617C59.7678 61.8104 61.0251 62.1973 62.1856 62.3907C65.9574 60.263 69.3423 58.9091 72.0502 57.8453C72.5338 54.6538 73.2108 52.0425 73.8877 50.3984C74.8549 47.8839 76.2088 46.53 76.8858 46.0464C79.5937 43.822 81.8181 42.7582 81.8181 42.7582C80.6576 46.8201 79.9806 52.0425 79.6904 56.0077C81.1411 58.4255 84.6227 61.8104 86.6537 63.648C88.0077 62.4874 89.4583 61.2302 90.4255 60.263C90.7156 54.1702 90.909 45.9497 91.0057 41.5977C88.5879 36.7621 85.9767 32.5068 84.3326 29.9923C56.2862 34.1509 54.352 49.6247 17.8916 49.6247C18.3752 50.3984 19.3423 51.8491 20.6962 53.2998C22.9206 55.7176 26.6924 58.5222 31.3345 59.6828C31.3345 59.6828 31.6247 61.4236 32.7852 63.5512C33.8491 65.5822 35.5899 68.1934 38.6846 70.6112C39.555 69.1605 40.4255 67.8066 41.3926 66.4526C38.9748 64.3249 37.5241 62.1006 36.557 60.3598C35.4932 58.2321 35.1063 56.4913 35.1063 56.4913C33.7523 56.2012 30.0773 55.3307 26.6924 53.2031C32.205 53.8801 40.6189 53.1064 52.9013 47.8839C52.9013 47.8839 52.0309 51.1721 49.9999 54.4603C54.1585 53.6866 60.1547 52.4294 64.9903 49.4313C60.2514 56.4913 55.6092 58.4255 53.9651 60.3598C51.9342 62.6808 42.263 74.8665 40.5222 81.9265C36.3636 119.064 61.7988 126.704 67.2146 135.505C72.6305 144.692 70.793 166.162 90.1353 171.191C90.1353 171.191 99.2262 173.803 102.128 161.133C102.128 161.133 97.5821 165.582 90.909 165.582ZM143.81 99.0445C143.133 97.8839 141.876 96.53 140.425 94.9826C133.946 96.0464 128.723 97.8839 126.692 98.7543C129.497 98.4642 136.654 98.1741 143.81 99.0445ZM144.777 107.168C145.261 105.137 145.261 103.203 144.777 101.462C134.333 101.656 125.629 103.59 123.888 103.977C126.112 104.073 135.203 104.557 144.777 107.168ZM130.367 88.5029C131.238 88.5029 132.108 88.5996 133.075 88.6963C130.948 87.1489 128.723 85.6015 126.402 84.1509C123.984 85.4081 122.63 87.3424 121.76 89.3733L121.083 90.7273L122.437 90.147C124.661 89.1799 127.369 88.5029 130.367 88.5029ZM141.393 114.132C141.393 114.132 142.94 112.197 144.101 109.393C144.101 109.296 144.197 109.199 144.197 109.103C132.592 107.555 122.437 108.426 119.826 108.716C126.015 109.586 134.139 111.52 141.102 114.518L141.393 114.132Z" fill="white"/>
<path d="M142.553 172.546C140.812 172.546 139.362 171.095 139.362 169.354C139.362 167.613 140.812 166.163 142.553 166.163C144.294 166.163 145.745 167.517 145.745 169.354C145.648 171.192 144.294 172.546 142.553 172.546ZM142.553 166.84C141.102 166.84 139.942 168 139.942 169.451C139.942 170.901 141.102 172.062 142.553 172.062C144.004 172.062 145.164 170.901 145.164 169.451C145.164 168 144.004 166.84 142.553 166.84ZM141.199 167.807H142.65C143.52 167.807 143.81 168.29 143.81 168.677C143.81 169.257 143.423 169.644 142.843 169.644C143.133 169.741 143.327 170.031 143.617 170.515L144.004 171.192H143.327L143.037 170.708C142.65 169.934 142.456 169.838 142.07 169.838H141.779V171.288H141.199V167.807ZM142.456 169.257C142.843 169.257 143.133 169.064 143.133 168.774C143.133 168.484 142.843 168.29 142.553 168.29H141.683V169.354H142.456V169.257Z" fill="white"/>
</svg>
