<?xml version="1.0" encoding="UTF-8"?>
<svg width="200px" height="200px" viewBox="0 0 200 200" version="1.1" xmlns="http://www.w3.org/2000/svg" xmlns:xlink="http://www.w3.org/1999/xlink">
    <!-- Generator: Sketch 54.1 (76490) - https://sketchapp.com -->
    <title>howard</title>
    <desc>Created with Sketch.</desc>
    <g id="howard" stroke="none" stroke-width="1" fill="none" fill-rule="evenodd">
        <g id="howard_BGD">
            <g id="howard" transform="translate(28.000000, 5.000000)">
                <g fill-rule="nonzero" id="Shape">
                    <path d="M71.6291153,0 L72.4192609,0 L72.5321389,0.0161702128 C72.7901456,0.0808510638 73.0481523,0.145531915 73.2900336,0.242553191 C77.9825308,2.55489362 83.3361702,3.86468085 88.4479283,4.80255319 C90.3023516,5.12595745 92.1567749,5.40085106 94.0111982,5.64340426 C98.5908175,6.3387234 103.170437,8.00425532 106.847032,10.8825532 C109.136842,12.6612766 111.168645,15.0382979 112.168421,17.8034043 C112.861814,19.6791489 113.023068,21.7004255 112.636058,23.6731915 C115.603135,21.7004255 118.86047,20.2289362 122.391937,19.6144681 C122.778947,19.5174468 123.149832,19.6144681 123.294961,20.0187234 C123.375588,20.5038298 123.375588,21.0051064 123.423964,21.4902128 C123.601344,23.3659574 124.020605,25.2255319 125.16551,26.7778723 C126.213662,28.1685106 127.842329,29.2357447 129.083987,30.4646809 C130.583651,31.8714894 131.809183,33.5046809 132.825084,35.2995745 C132.954087,35.5259574 133.066965,35.8008511 133.276596,35.9625532 C135.598656,37.8221277 137.614334,40.1182979 139.259127,42.5923404 C142.048824,46.812766 143.79037,51.6961702 144,56.773617 L144,58.7140426 C143.806495,63.1608511 142.387458,67.4782979 140.065398,71.2621277 C137.066069,76.2587234 132.66383,80.4306383 128.003583,83.8425532 C126.649048,84.8451064 125.246137,85.7344681 123.875476,86.6723404 C127.116685,88.0629787 130.309518,89.6476596 133.26047,91.5880851 C134.59888,92.493617 135.985666,93.5123404 137.049944,94.7412766 C137.243449,94.9514894 137.130571,95.226383 136.88869,95.3395745 C135.179395,96.293617 133.405599,97.1991489 131.841433,98.3795745 C130.325644,99.7217021 128.535722,100.853617 126.439418,100.853617 C125.068757,100.885957 123.843225,100.368511 122.730571,99.6085106 C123.681971,101.241702 124.665622,102.794043 125.310638,104.588936 C126.229787,106.998298 126.471669,109.650213 126.036282,112.188936 C125.600896,114.76 124.584994,117.120851 123.278835,119.368511 C121.247032,122.974468 119.860246,127.081702 120.247256,131.269787 C120.327884,131.997447 119.924748,132.676596 119.263606,132.951489 C116.522284,134.115745 113.716461,135.829787 112.13617,138.417021 C111.910414,138.724255 111.813662,139.257872 111.442777,139.403404 C111.039642,139.306383 111.023516,138.853617 110.894513,138.514043 C109.894737,135.102128 110.523628,131.172766 111.604031,127.841702 C111.136394,128.165106 110.733259,128.601702 110.346249,129.022128 C108.975588,130.509787 107.766181,132.320851 107.31467,134.325957 C106.992161,135.700426 107.121165,137.155745 107.669429,138.449362 C108.346697,140.034043 109.523852,141.311489 110.862262,142.346383 C111.120269,142.556596 111.233147,142.702128 111.200896,143.057872 C111.136394,145.354043 111.120269,147.860426 110.523628,150.091915 C110.007615,152.064681 108.959462,153.859574 107.540426,155.331064 C105.637626,157.32 103.283315,158.710638 100.848376,159.939574 C97.687794,161.637447 94.5110862,163.674894 91.9471445,166.197447 C91.4795073,166.634043 91.1086226,167.151489 90.6571109,167.571915 C90.3346025,167.588085 90.1894737,167.474894 90.1894737,167.151489 C90.2055991,163.642553 91.3343785,160.020426 92.6405375,156.802553 C91.2698768,158.354894 90.1088466,160.149787 89.1735722,161.993191 C88.1899216,163.982128 87.4159015,166.197447 87.5932811,168.445106 C87.7222844,171.194043 86.9160134,173.942979 85.2228443,176.109787 C82.4976484,179.731915 78.0470325,181.898723 75.0799552,185.181277 C74.0801792,186.297021 73.2577828,187.558298 72.7901456,188.981277 C72.6772676,189.353191 72.5805151,189.450213 72.2418813,189.628085 L71.7581187,189.628085 C71.2259798,189.369362 71.2421053,188.900426 71.0163494,188.415319 C70.4035834,186.911489 69.3715566,185.569362 68.2266517,184.437447 C65.6788354,181.931064 62.324748,180.006809 59.825308,177.338723 C58.0353863,175.462979 56.793729,173.134468 56.5034714,170.547234 C56.2615901,169.011064 56.600224,167.539574 56.2615901,166.019574 C55.6972004,163.125106 54.068533,160.34383 52.3431131,157.999149 C52.0367301,157.578723 51.7142217,157.174468 51.3594625,156.786383 C52.6656215,160.020426 53.7944009,163.642553 53.8105263,167.151489 C53.8105263,167.458723 53.6653975,167.588085 53.3428891,167.555745 C52.9075028,167.16766 52.568869,166.666383 52.1334826,166.278298 C49.2470325,163.4 45.5865622,161.15234 41.9744681,159.325106 C39.9587906,158.241702 37.9431131,156.931915 36.3789474,155.250213 C35.1856663,153.988936 34.2503919,152.485106 33.7021277,150.835745 C32.8797312,148.410213 32.8636058,145.612766 32.7991041,143.074043 C32.7829787,142.718298 32.8797312,142.572766 33.137738,142.362553 C34.6696529,141.165957 36.0403135,139.629787 36.5885778,137.737872 C37.0400896,136.298723 36.9110862,134.778723 36.4111982,133.371915 C35.7339306,131.44766 34.3955207,129.701277 32.9442329,128.294468 C32.7829787,128.116596 32.5894737,128.003404 32.4120941,127.857872 C33.2344905,130.364255 33.7343785,132.98383 33.6053751,135.635745 C33.524748,136.83234 33.331243,138.061277 32.8958567,139.193191 C32.718477,139.468085 32.4443449,139.468085 32.2830907,139.160851 C31.3316909,137.171915 29.5901456,135.635745 27.7518477,134.48766 C26.8004479,133.889362 25.7845465,133.404255 24.7525196,132.96766 C24.0913774,132.692766 23.6882419,131.997447 23.768869,131.285957 C24.1558791,127.065532 22.7529675,122.893617 20.6727884,119.271489 C19.0279955,116.457872 17.8024636,113.24 17.7702128,109.941277 C17.7218365,107.693617 18.2378499,105.494468 19.1731243,103.457021 C19.7697648,102.114894 20.5599104,100.885957 21.2855543,99.6246809 C20.2051512,100.35234 19.0602464,100.869787 17.7379619,100.869787 C15.8996641,100.934468 14.2709966,100.093617 12.8680851,98.9940426 C11.3200448,97.6034043 9.35274356,96.6331915 7.54669653,95.6144681 C7.27256439,95.4204255 6.75655095,95.3395745 6.85330347,94.9029787 C7.90145577,93.6255319 9.3043673,92.6068085 10.6427772,91.6851064 C13.593729,89.7123404 16.8349384,88.1276596 20.0922732,86.7046809 C20.0922732,86.64 20.043897,86.5914894 19.9793953,86.5591489 C16.4156775,84.3114894 12.980963,81.7404255 9.96550952,78.7812766 C6.45016797,75.3370213 3.46696529,71.3268085 1.69316909,66.7021277 C0.693393057,64.147234 0.129003359,61.4306383 0,58.6655319 L0,56.4178723 C0.225755879,53.1191489 1.01590146,49.8851064 2.38656215,46.8612766 C4.2893617,42.6731915 7.14356103,38.8570213 10.7234043,35.9625532 C11.0136618,35.72 11.1587906,35.2995745 11.3522956,34.9923404 C12.5778275,32.8740426 14.1419933,31.0306383 16.012542,29.4782979 C17.1735722,28.4757447 18.4152296,27.5378723 19.2053751,26.2119149 C20.2051512,24.6110638 20.5115342,22.573617 20.6244121,20.7140426 C20.6566629,20.4068085 20.6244121,20.0187234 20.8662934,19.7923404 C21.1243001,19.533617 21.4306831,19.6144681 21.7531915,19.6629787 C25.2362822,20.293617 28.4452408,21.732766 31.3639418,23.7055319 C31.025308,21.9106383 31.1059351,20.0510638 31.6703247,18.3046809 C32.5733483,15.4102128 34.6212766,12.92 36.9594625,11.0442553 C40.6360582,8.11744681 45.2318029,6.40340426 49.8275476,5.67574468 C56.2615901,4.8187234 63.0665174,3.57361702 69.0490482,1.0187234 C69.9359462,0.679148936 70.7260918,0.113191489 71.6291153,0 Z" stroke="#FFFFFF" stroke-width="7.6" fill="#00263D"></path>
                    <path d="M71.6291153,0 L72.4192609,0 L72.5321389,0.0161702128 C72.7901456,0.0808510638 73.0481523,0.145531915 73.2900336,0.242553191 C77.9825308,2.55489362 83.3361702,3.86468085 88.4479283,4.80255319 C90.3023516,5.12595745 92.1567749,5.40085106 94.0111982,5.64340426 C98.5908175,6.3387234 103.170437,8.00425532 106.847032,10.8825532 C109.136842,12.6612766 111.168645,15.0382979 112.168421,17.8034043 C112.861814,19.6791489 113.023068,21.7004255 112.636058,23.6731915 C115.603135,21.7004255 118.86047,20.2289362 122.391937,19.6144681 C122.778947,19.5174468 123.149832,19.6144681 123.294961,20.0187234 C123.375588,20.5038298 123.375588,21.0051064 123.423964,21.4902128 C123.601344,23.3659574 124.020605,25.2255319 125.16551,26.7778723 C126.213662,28.1685106 127.842329,29.2357447 129.083987,30.4646809 C130.583651,31.8714894 131.809183,33.5046809 132.825084,35.2995745 C132.954087,35.5259574 133.066965,35.8008511 133.276596,35.9625532 C135.598656,37.8221277 137.614334,40.1182979 139.259127,42.5923404 C142.048824,46.812766 143.79037,51.6961702 144,56.773617 L144,58.7140426 C143.806495,63.1608511 142.387458,67.4782979 140.065398,71.2621277 C137.066069,76.2587234 132.66383,80.4306383 128.003583,83.8425532 C126.649048,84.8451064 125.246137,85.7344681 123.875476,86.6723404 C127.116685,88.0629787 130.309518,89.6476596 133.26047,91.5880851 C134.59888,92.493617 135.985666,93.5123404 137.049944,94.7412766 C137.243449,94.9514894 137.130571,95.226383 136.88869,95.3395745 C135.179395,96.293617 133.405599,97.1991489 131.841433,98.3795745 C130.325644,99.7217021 128.535722,100.853617 126.439418,100.853617 C125.068757,100.885957 123.843225,100.368511 122.730571,99.6085106 C123.681971,101.241702 124.665622,102.794043 125.310638,104.588936 C126.229787,106.998298 126.471669,109.650213 126.036282,112.188936 C125.600896,114.76 124.584994,117.120851 123.278835,119.368511 C121.247032,122.974468 119.860246,127.081702 120.247256,131.269787 C120.327884,131.997447 119.924748,132.676596 119.263606,132.951489 C116.522284,134.115745 113.716461,135.829787 112.13617,138.417021 C111.910414,138.724255 111.813662,139.257872 111.442777,139.403404 C111.039642,139.306383 111.023516,138.853617 110.894513,138.514043 C109.894737,135.102128 110.523628,131.172766 111.604031,127.841702 C111.136394,128.165106 110.733259,128.601702 110.346249,129.022128 C108.975588,130.509787 107.766181,132.320851 107.31467,134.325957 C106.992161,135.700426 107.121165,137.155745 107.669429,138.449362 C108.346697,140.034043 109.523852,141.311489 110.862262,142.346383 C111.120269,142.556596 111.233147,142.702128 111.200896,143.057872 C111.136394,145.354043 111.120269,147.860426 110.523628,150.091915 C110.007615,152.064681 108.959462,153.859574 107.540426,155.331064 C105.637626,157.32 103.283315,158.710638 100.848376,159.939574 C97.687794,161.637447 94.5110862,163.674894 91.9471445,166.197447 C91.4795073,166.634043 91.1086226,167.151489 90.6571109,167.571915 C90.3346025,167.588085 90.1894737,167.474894 90.1894737,167.151489 C90.2055991,163.642553 91.3343785,160.020426 92.6405375,156.802553 C91.2698768,158.354894 90.1088466,160.149787 89.1735722,161.993191 C88.1899216,163.982128 87.4159015,166.197447 87.5932811,168.445106 C87.7222844,171.194043 86.9160134,173.942979 85.2228443,176.109787 C82.4976484,179.731915 78.0470325,181.898723 75.0799552,185.181277 C74.0801792,186.297021 73.2577828,187.558298 72.7901456,188.981277 C72.6772676,189.353191 72.5805151,189.450213 72.2418813,189.628085 L71.7581187,189.628085 C71.2259798,189.369362 71.2421053,188.900426 71.0163494,188.415319 C70.4035834,186.911489 69.3715566,185.569362 68.2266517,184.437447 C65.6788354,181.931064 62.324748,180.006809 59.825308,177.338723 C58.0353863,175.462979 56.793729,173.134468 56.5034714,170.547234 C56.2615901,169.011064 56.600224,167.539574 56.2615901,166.019574 C55.6972004,163.125106 54.068533,160.34383 52.3431131,157.999149 C52.0367301,157.578723 51.7142217,157.174468 51.3594625,156.786383 C52.6656215,160.020426 53.7944009,163.642553 53.8105263,167.151489 C53.8105263,167.458723 53.6653975,167.588085 53.3428891,167.555745 C52.9075028,167.16766 52.568869,166.666383 52.1334826,166.278298 C49.2470325,163.4 45.5865622,161.15234 41.9744681,159.325106 C39.9587906,158.241702 37.9431131,156.931915 36.3789474,155.250213 C35.1856663,153.988936 34.2503919,152.485106 33.7021277,150.835745 C32.8797312,148.410213 32.8636058,145.612766 32.7991041,143.074043 C32.7829787,142.718298 32.8797312,142.572766 33.137738,142.362553 C34.6696529,141.165957 36.0403135,139.629787 36.5885778,137.737872 C37.0400896,136.298723 36.9110862,134.778723 36.4111982,133.371915 C35.7339306,131.44766 34.3955207,129.701277 32.9442329,128.294468 C32.7829787,128.116596 32.5894737,128.003404 32.4120941,127.857872 C33.2344905,130.364255 33.7343785,132.98383 33.6053751,135.635745 C33.524748,136.83234 33.331243,138.061277 32.8958567,139.193191 C32.718477,139.468085 32.4443449,139.468085 32.2830907,139.160851 C31.3316909,137.171915 29.5901456,135.635745 27.7518477,134.48766 C26.8004479,133.889362 25.7845465,133.404255 24.7525196,132.96766 C24.0913774,132.692766 23.6882419,131.997447 23.768869,131.285957 C24.1558791,127.065532 22.7529675,122.893617 20.6727884,119.271489 C19.0279955,116.457872 17.8024636,113.24 17.7702128,109.941277 C17.7218365,107.693617 18.2378499,105.494468 19.1731243,103.457021 C19.7697648,102.114894 20.5599104,100.885957 21.2855543,99.6246809 C20.2051512,100.35234 19.0602464,100.869787 17.7379619,100.869787 C15.8996641,100.934468 14.2709966,100.093617 12.8680851,98.9940426 C11.3200448,97.6034043 9.35274356,96.6331915 7.54669653,95.6144681 C7.27256439,95.4204255 6.75655095,95.3395745 6.85330347,94.9029787 C7.90145577,93.6255319 9.3043673,92.6068085 10.6427772,91.6851064 C13.593729,89.7123404 16.8349384,88.1276596 20.0922732,86.7046809 C20.0922732,86.64 20.043897,86.5914894 19.9793953,86.5591489 C16.4156775,84.3114894 12.980963,81.7404255 9.96550952,78.7812766 C6.45016797,75.3370213 3.46696529,71.3268085 1.69316909,66.7021277 C0.693393057,64.147234 0.129003359,61.4306383 0,58.6655319 L0,56.4178723 C0.225755879,53.1191489 1.01590146,49.8851064 2.38656215,46.8612766 C4.2893617,42.6731915 7.14356103,38.8570213 10.7234043,35.9625532 C11.0136618,35.72 11.1587906,35.2995745 11.3522956,34.9923404 C12.5778275,32.8740426 14.1419933,31.0306383 16.012542,29.4782979 C17.1735722,28.4757447 18.4152296,27.5378723 19.2053751,26.2119149 C20.2051512,24.6110638 20.5115342,22.573617 20.6244121,20.7140426 C20.6566629,20.4068085 20.6244121,20.0187234 20.8662934,19.7923404 C21.1243001,19.533617 21.4306831,19.6144681 21.7531915,19.6629787 C25.2362822,20.293617 28.4452408,21.732766 31.3639418,23.7055319 C31.025308,21.9106383 31.1059351,20.0510638 31.6703247,18.3046809 C32.5733483,15.4102128 34.6212766,12.92 36.9594625,11.0442553 C40.6360582,8.11744681 45.2318029,6.40340426 49.8275476,5.67574468 C56.2615901,4.8187234 63.0665174,3.57361702 69.0490482,1.0187234 C69.9359462,0.679148936 70.7260918,0.113191489 71.6291153,0 Z" fill="#00263D"></path>
                    <path d="M16.7704367,37.3046809 C16.9961926,37.4340426 17.2058231,37.547234 17.1735722,37.8382979 C17.0284434,38.226383 16.8026876,38.5659574 16.6091825,38.9540426 C15.4481523,41.2178723 14.593505,43.7080851 14.3677492,46.2468085 C14.1097424,49.0280851 14.7547592,51.906383 16.1415454,54.3157447 C17.6895857,56.9838298 20.0600224,58.9080851 22.8174692,60.2340426 C25.6071669,61.56 28.7032475,62.3038298 31.7832027,62.5140426 C31.7025756,62.5625532 31.6219485,62.5948936 31.5574468,62.6434043 C28.993505,63.7106383 26.8004479,65.6995745 25.2362822,67.9634043 C24.8976484,68.3676596 25.1234043,68.9982979 25.6555431,69.0468085 C26.8488242,69.0791489 28.1227324,69.3540426 29.0257559,70.1948936 C29.4611422,70.6153191 29.6223964,71.1812766 29.4288914,71.7634043 C28.8967525,73.2187234 28.3807391,74.5931915 28.2356103,76.1617021 C28.0904815,77.7787234 28.4613662,79.3634043 29.1708847,80.786383 C27.493841,80.7540426 25.7684211,80.1395745 24.2365062,79.4765957 C20.9791713,78.0374468 17.9475924,75.9838298 15.2868981,73.6229787 C12.7713326,71.3591489 10.5460246,68.7880851 8.86898096,65.8289362 C7.67569989,63.7268085 6.77267637,61.3982979 6.36954087,59.0051064 C5.70839866,55.3021277 6.30503919,51.4859574 7.86920493,48.0902128 C9.65912654,44.1931915 12.6262038,40.7651064 15.819037,37.9676596 C16.1092945,37.7251064 16.3350504,37.4178723 16.7704367,37.3046809 Z" fill="#FFFFFF"></path>
                    <path d="M127.229563,37.3046809 C127.713326,37.4340426 128.068085,37.9191489 128.455095,38.2102128 C132.067189,41.4280851 135.389026,45.4706383 136.953191,50.1114894 C138.243225,53.8791489 138.243225,58.0025532 136.969317,61.7702128 C135.421277,66.4919149 132.115566,70.68 128.390594,73.9140426 C125.713774,76.2425532 122.682195,78.2476596 119.408735,79.6382979 C117.989698,80.2204255 116.393281,80.7540426 114.845241,80.786383 C115.361254,79.7353191 115.716013,78.6195745 115.796641,77.4553191 C115.941769,75.466383 115.312878,73.6876596 114.63561,71.8604255 C114.409854,71.2297872 114.538858,70.6638298 115.006495,70.1948936 C115.893393,69.3540426 117.183427,69.0629787 118.376708,69.0468085 C118.908847,68.9982979 119.134602,68.3676596 118.795969,67.9634043 C117.393057,65.9582979 115.538634,64.1957447 113.361702,63.0638298 C112.990817,62.853617 112.587682,62.7404255 112.232923,62.5140426 C114.03897,62.4008511 115.828891,62.0774468 117.570437,61.5923404 C120.731019,60.7029787 123.8271,59.1506383 126.084658,56.7251064 C128.100336,54.5744681 129.341993,51.7608511 129.632251,48.8178723 C129.970885,45.5353191 129.019485,42.1719149 127.568197,39.2612766 C127.342441,38.7761702 127.036058,38.3234043 126.842553,37.8382979 C126.810302,37.547234 127.019933,37.4340426 127.229563,37.3046809 Z" fill="#FFFFFF"></path>
                    <path d="M42.5711086,59.1829787 C44.4094065,60.9778723 45.7800672,63.4034043 46.1509518,65.9744681 C46.3283315,67.2680851 46.2799552,68.5778723 46.5057111,69.8553191 C46.8604703,72.1029787 47.4571109,74.5608511 48.6826428,76.4851064 C49.1825308,77.2289362 49.9726764,78.1182979 50.956327,78.0051064 C51.3110862,77.9565957 51.8109742,77.6655319 52.1334826,77.8757447 C52.5043673,78.1344681 52.4398656,78.506383 52.4398656,78.9106383 C52.2141097,83.2280851 50.5854423,87.4485106 48.537514,91.2 C48.344009,91.5395745 48.1827548,91.8306383 47.731243,91.7821277 C47.1991041,91.7497872 47.1346025,91.0868085 46.9572228,90.6987234 C46.0219485,88.0629787 44.4739082,85.2978723 42.0228443,83.826383 C39.7169093,82.3225532 38.0237402,79.8970213 37.5399776,77.1480851 C37.2819709,75.4987234 37.4270997,73.8008511 37.9914894,72.2485106 C38.3301232,71.1812766 38.9428891,70.2757447 39.3944009,69.2570213 C40.7489362,66.2170213 41.3294513,62.9829787 41.4584546,59.6519149 C41.4745801,59.0859574 42.1518477,58.8110638 42.5711086,59.1829787 Z" fill="#6B818E"></path>
                    <path d="M102.364166,59.2314894 C102.557671,59.4093617 102.52542,59.7489362 102.557671,59.9914894 C102.670549,63.1123404 103.29944,66.2978723 104.557223,69.16 C104.976484,70.1302128 105.556999,70.987234 105.911758,71.9897872 C106.589026,73.72 106.766405,75.6119149 106.411646,77.4391489 C105.944009,79.8161702 104.557223,81.9021277 102.654423,83.373617 C102.009406,83.8748936 101.299888,84.2306383 100.687122,84.7965957 C98.8165733,86.4944681 97.6232923,88.9361702 96.8331467,91.2970213 C96.7202688,91.6851064 96.3977604,91.8629787 96.0268757,91.7821277 C95.6721165,91.6851064 95.5269877,91.2808511 95.3496081,91.0059574 C93.3661814,87.3353191 91.7536394,83.0987234 91.5601344,78.9106383 C91.5601344,78.5225532 91.4956327,78.1344681 91.8665174,77.8757447 C92.1890258,77.6493617 92.6889138,77.9565957 93.043673,78.0051064 C93.656439,78.0859574 94.2530795,77.7302128 94.6723404,77.293617 C95.3818589,76.5821277 95.8656215,75.5957447 96.2526316,74.6740426 C96.9944009,72.8306383 97.4136618,70.8417021 97.6394177,68.8689362 C97.7522956,67.6561702 97.7200448,66.3302128 98.0264278,65.1497872 C98.5263158,62.9182979 99.7679731,60.8646809 101.36439,59.2476596 C101.590146,58.9565957 102.106159,58.9242553 102.364166,59.2314894 Z" fill="#6B818E"></path>
                    <path d="M33.7021277,89.9387234 C35.2824188,90.3753191 36.7659574,91.2970213 37.8463606,92.5421277 C39.1202688,94.013617 39.7652856,95.9055319 39.9426652,97.8297872 C40.0071669,98.6868085 40.0716685,99.6408511 39.9104143,100.497872 C39.5879059,100.966809 38.9912654,100.30383 38.6203807,100.190638 C37.4754759,99.6570213 36.3305711,99.252766 35.2340426,98.5897872 C33.9762598,97.8621277 32.8958567,96.8595745 32.4120941,95.4689362 C31.8638298,93.8680851 32.2024636,91.96 32.7991041,90.4238298 C32.9119821,90.0357447 33.3151176,89.8417021 33.7021277,89.9387234 Z" fill="#FFFFFF"></path>
                    <path d="M60.7928331,89.8417021 C61.131467,89.8255319 61.3733483,90.0034043 61.631355,90.1974468 C63.0020157,91.2485106 64.3888018,92.267234 65.7272116,93.3668085 C66.2916013,93.8357447 66.7914894,94.3370213 67.4042553,94.7412766 C68.6781635,95.6144681 70.2100784,96.1480851 71.7581187,96.1965957 C73.4674132,96.2612766 75.1928331,95.7114894 76.5957447,94.7412766 C77.2730123,94.2885106 77.8212766,93.7387234 78.450168,93.2212766 C79.756327,92.1540426 81.1108623,91.1514894 82.4653975,90.132766 C82.9652856,89.7608511 83.6425532,89.9225532 83.9973124,90.4076596 C84.3359462,90.8442553 84.3198208,91.3293617 84.2714446,91.8629787 C83.8683091,95.4204255 83.5296753,98.9778723 83.1265398,102.535319 C83.0942889,102.842553 83.0459127,103.182128 83.0942889,103.489362 C83.1910414,103.796596 83.5135498,104.071489 83.8521837,104.022979 C84.2714446,103.925957 84.3681971,103.570213 84.5617021,103.246809 C86.4806271,99.7055319 88.3511758,96.1480851 90.2055991,92.5744681 C90.4474804,92.0570213 90.9957447,91.6851064 91.5762598,91.8791489 C92.0600224,92.0246809 92.35028,92.4289362 92.4631579,92.8978723 C92.8662934,94.5957447 93.350056,96.2774468 93.9466965,97.9106383 C94.1240761,98.347234 94.0273236,98.7514894 93.9628219,99.2042553 C93.0759239,104.621277 91.8987682,109.989787 90.4958567,115.293617 C89.9475924,117.460426 88.9316909,119.481702 87.3836506,121.082553 C86.6096305,121.858723 85.7066069,122.683404 84.6584546,123.039149 C82.2396417,124.009362 79.8369541,125.011915 77.4342665,125.982128 C76.8053751,126.224681 76.2571109,126.628936 75.6282195,126.88766 C73.419037,127.874043 70.8550952,127.906383 68.6297872,127.000851 C67.9041433,126.742128 67.2913774,126.273191 66.5818589,125.998298 C64.050168,124.979574 61.5346025,123.928511 59.019037,122.909787 C58.4868981,122.699574 58.0031355,122.295319 57.5516237,121.939574 C55.5520717,120.257872 54.2297872,117.961702 53.568645,115.439149 C52.2141097,110.313191 51.0692049,105.138723 50.1823068,99.9157447 C50.1178052,99.1719149 49.8114222,98.4765957 50.1178052,97.7812766 C50.6821948,96.212766 51.1337066,94.6119149 51.5368421,92.9948936 C51.64972,92.5421277 51.956103,92.1217021 52.4237402,92.0085106 C52.9558791,91.8468085 53.4880179,92.1540426 53.7298992,92.6553191 C55.6326988,96.293617 57.5193729,99.9157447 59.4866741,103.521702 C59.6479283,103.796596 59.8091825,104.022979 60.1639418,104.022979 C60.6477044,103.958298 60.9057111,103.473191 60.825084,103.004255 C60.4219485,99.3982979 60.0671892,95.7761702 59.6801792,92.1702128 C59.6479283,91.7982979 59.5673012,91.4102128 59.5995521,91.0382979 C59.6479283,90.4238298 60.1478163,89.8417021 60.7928331,89.8417021 Z" fill="#6B818E"></path>
                    <path d="M110.297872,89.9387234 C110.701008,89.8417021 111.088018,90.0195745 111.217021,90.4076596 C111.765286,91.8144681 112.071669,93.4476596 111.74916,94.9191489 C111.458903,96.2612766 110.58813,97.3446809 109.475476,98.1208511 C108.153191,99.0748936 106.718029,99.5438298 105.282867,100.222979 C105.008735,100.35234 104.766853,100.514043 104.492721,100.659574 C104.234714,100.708085 104.025084,100.514043 104.041209,100.255319 C103.86383,98.1208511 104.170213,95.76 105.218365,93.8680851 C106.298768,91.9438298 108.185442,90.5208511 110.297872,89.9387234 Z" fill="#FFFFFF"></path>
                    <path d="M28.9128779,101.985532 C30.4609183,103.214468 32.2508399,104.08766 34.2181411,104.411064 C35.9758119,104.669787 37.8947368,104.055319 39.475028,103.279149 C39.6201568,103.214468 39.781411,103.182128 39.9587906,103.198298 C40.0555431,103.634894 39.8942889,103.974468 39.7652856,104.378723 C39.1363942,106.173617 38.2978723,107.90383 37.3464726,109.553191 C36.4595745,111.024681 35.4597984,112.51234 34.2181411,113.708936 C34.0085106,113.919149 33.7827548,113.773617 33.7666293,113.514894 C33.9601344,112.868085 34.2503919,112.269787 34.3471445,111.590638 C34.5245241,110.604255 34.4761478,109.569362 33.7988802,108.760851 C32.3798432,107.079149 30.3319149,106.222128 29.0257559,104.314043 C28.5742441,103.618723 28.1227324,102.729362 28.1066069,101.888511 C28.2839866,101.387234 28.6387458,101.82383 28.9128779,101.985532 Z" fill="#6B818E"></path>
                    <path d="M115.474132,101.726809 C115.683763,101.532766 115.97402,101.759149 115.941769,102.034043 C115.748264,103.214468 115.103247,104.346383 114.280851,105.203404 C113.232699,106.319149 111.862038,107.111489 110.781635,108.162553 C110.281747,108.631489 109.862486,109.132766 109.701232,109.811915 C109.410974,111.057021 109.797984,112.221277 110.233371,113.369362 C110.362374,113.660426 110.055991,113.951489 109.797984,113.692766 C108.636954,112.593191 107.685554,111.202553 106.847032,109.844255 C105.831131,108.146383 104.944233,106.335319 104.283091,104.475745 C104.137962,104.039149 103.960582,103.667234 104.041209,103.182128 C104.412094,103.149787 104.653975,103.34383 104.976484,103.473191 C106.379395,104.10383 107.943561,104.572766 109.491601,104.427234 C110.346249,104.362553 111.104143,104.08766 111.910414,103.812766 C113.26495,103.34383 114.329227,102.551489 115.474132,101.726809 Z" fill="#6B818E"></path>
                    <path d="M56.1164614,131.237447 C60.4058231,132.078298 64.7113102,132.870638 69.0167973,133.711489 C70.7583427,134.083404 72.5966405,134.099574 74.3381859,133.76 C78.8694289,132.935319 83.4167973,132.062128 87.9480403,131.237447 C88.7220605,131.108085 89.4799552,131.188936 90.124972,131.674043 C91.237626,132.547234 92.1567749,133.695319 92.8340426,134.940426 C93.2694289,135.716596 93.4790594,136.573617 93.4468085,137.479149 C93.4306831,138.28766 93.1726764,139.06383 92.9469205,139.82383 C92.3019037,141.893617 91.4956327,143.914894 90.3346025,145.742128 C90.0765957,146.194894 89.5283315,146.469787 89.125196,146.809362 C88.7543113,147.068085 88.3995521,147.504681 87.8996641,147.326809 C87.4320269,147.165106 87.2385218,146.69617 87.4642777,146.243404 C88.2382979,144.43234 88.7220605,142.524255 88.6575588,140.535319 C88.6736842,140.292766 88.5930571,140.001702 88.7865622,139.82383 C89.4315789,139.177021 90.1088466,138.562553 90.7538634,137.931915 C90.9151176,137.754043 91.0763718,137.59234 90.8989922,137.349787 C90.737738,137.074894 90.4636058,137.188085 90.2217245,137.236596 C88.0770437,137.802553 85.9807391,138.497872 83.9328108,139.354894 C82.9169093,139.80766 81.868757,140.163404 80.868981,140.648511 C78.9823068,141.537872 77.2246361,142.605106 75.7088466,144.044255 C75.0477044,144.658723 74.6284434,145.612766 74.1930571,146.388936 C73.5802912,147.617872 72.9191489,149.008511 72.8223964,150.399149 C72.2741321,150.382979 71.7097424,150.366809 71.1614782,150.382979 C71.000224,148.555745 69.9843225,146.728511 69.1135498,145.14383 C68.6942889,144.319149 68.0170213,143.785532 67.3236282,143.203404 C65.6788354,141.861277 63.743785,140.842553 61.7764838,140.017872 C59.0512878,138.950638 56.3905935,137.851064 53.5202688,137.188085 C53.1816349,137.058723 52.8430011,137.479149 53.0848824,137.754043 C53.7460246,138.481702 54.5200448,139.11234 55.1973124,139.82383 C55.3908175,139.985532 55.3101904,140.308936 55.3263158,140.535319 C55.2779395,142.572766 55.8100784,144.497021 56.5840985,146.356596 C56.8098544,146.938723 56.1970885,147.520851 55.6165733,147.294468 C55.2456887,147.100426 54.9231803,146.809362 54.5845465,146.566809 C54.2459127,146.308085 53.875028,146.097872 53.6492721,145.725957 C52.262486,143.542979 51.3110862,141.020426 50.6660694,138.514043 C50.343561,137.220426 50.5531915,135.862128 51.2465845,134.714043 C51.8916013,133.549787 52.7784994,132.482553 53.8266517,131.657872 C54.5361702,131.140426 55.3263158,131.091915 56.1164614,131.237447 Z" fill="#6B818E"></path>
                    <path d="M71.4517357,154.668085 C71.8548712,154.603404 72.2418813,154.635745 72.6450168,154.700426 C74.3704367,154.959149 76.1119821,155.169362 77.837402,155.444255 C78.0631579,155.994043 78.1276596,156.57617 78.2727884,157.158298 C78.33729,157.481702 78.4340426,157.772766 78.2889138,158.09617 C78.0792833,158.581277 77.5632699,158.775319 77.0633819,158.710638 C75.4992161,158.516596 73.9511758,158.322553 72.3870101,158.128511 C72.1128779,158.09617 71.8548712,158.09617 71.5807391,158.128511 C70.0326988,158.338723 68.468533,158.516596 66.9043673,158.710638 C66.2593505,158.82383 65.5659574,158.371064 65.6143337,157.675745 C65.6949608,157.028936 65.856215,156.382128 65.9852184,155.751489 C66.04972,155.476596 66.162598,155.428085 66.4206047,155.395745 C68.0976484,155.137021 69.774692,154.910638 71.4517357,154.668085 Z" fill="#6B818E"></path>
                </g>
            </g>
        </g>
    </g>
</svg>