<?xml version="1.0" encoding="UTF-8"?>
<svg width="200px" height="200px" viewBox="0 0 200 200" version="1.1" xmlns="http://www.w3.org/2000/svg" xmlns:xlink="http://www.w3.org/1999/xlink">
    <!-- Generator: Sketch 56.3 (81716) - https://sketch.com -->
    <title>idaho-st</title>
    <desc>Created with Sketch.</desc>
    <defs>
        <polygon id="path-1" points="0 2.08091954 199.933333 2.08091954 199.933333 190.804598 0 190.804598"></polygon>
    </defs>
    <g id="idaho-st" stroke="none" stroke-width="1" fill="none" fill-rule="evenodd">
        <g id="idaho-st_BGD">
            <g id="Group-16" transform="translate(0.000000, 3.000000)">
                <g id="Group-3" transform="translate(0.000000, 0.218621)">
                    <mask id="mask-2" fill="white">
                        <use xlink:href="#path-1"></use>
                    </mask>
                    <g id="Clip-2"></g>
                    <path d="M199.934713,70.7062069 L192.686437,65.1429885 C188.405977,61.8510345 177.412874,52.4165517 172.511724,44.4533333 C176.157701,38.2763218 183.371494,24.5935632 184.314023,11.7222989 L185.01977,2.08091954 L175.815172,5.00735632 C175.656552,5.05793103 159.702529,9.99816092 135.304828,10.3383908 L135.302529,10.3383908 C135.12092,10.3383908 134.943908,10.3062069 134.764598,10.2418391 C130.392184,8.7108046 124.53931,6.75678161 121.488736,6.14758621 C120.863448,6.02114943 120.208276,5.95908046 119.491034,5.95908046 C114.817471,5.95908046 105.534713,9.23034483 99.9668966,11.3682759 C94.3990805,9.23034483 85.1163218,5.95908046 80.4427586,5.95908046 C79.7255172,5.95908046 79.0726437,6.02114943 78.4427586,6.14758621 C75.3944828,6.75678161 69.5416092,8.7108046 65.1691954,10.2418391 C64.9898851,10.3062069 64.8151724,10.3383908 64.6312644,10.3383908 L64.6312644,10.3383908 C40.2335632,9.99816092 24.2772414,5.05793103 24.1186207,5.00735632 L14.9163218,2.08091954 L15.622069,11.7222989 C16.5622989,24.5935632 23.7783908,38.2763218 27.422069,44.4533333 C22.5209195,52.4165517 11.5278161,61.8510345 7.24735632,65.1429885 L-0.00091954023,70.7062069 L7.60137931,75.7751724 C8.90942529,76.6464368 10.3278161,77.3291954 11.7071264,77.8625287 C6.40367816,103.646437 19.0933333,123.448736 19.6841379,124.347586 L25.3117241,132.94069 L30.3806897,124.749885 C32.2013793,126.956782 34.5301149,129.375172 37.4404598,131.703908 C44.0082759,136.95908 48.4128736,143.515402 51.7209195,148.929195 C54.7622989,147.35908 56.2266667,145.057931 56.2266667,145.057931 C56.2335632,145.338391 56.2266667,145.625747 56.2082759,145.922299 C56.0174713,148.892414 54.6611494,151.432644 54.514023,151.701609 L51.5048276,156.591264 L56.1577011,160.186667 C59.1852874,162.529195 62.3278161,163.942989 64.5209195,164.738391 C77.3875862,184.630345 97.4174713,190.129195 98.2933333,190.361379 L99.9668966,190.805057 L99.9668966,190.805057 L99.9691954,190.805057 L101.64046,190.361379 C102.516322,190.129195 122.546207,184.630345 135.412874,164.738391 C137.605977,163.942989 140.748506,162.529195 143.778391,160.186667 L148.428966,156.591264 L145.422069,151.701609 C145.272644,151.432644 143.918621,148.892414 143.727816,145.922299 C143.709425,145.625747 143.702529,145.338391 143.707126,145.057931 C143.707126,145.057931 145.171494,147.35908 148.212874,148.929195 C151.52092,143.515402 155.925517,136.95908 162.493333,131.703908 C165.403678,129.375172 167.734713,126.956782 169.553103,124.749885 L174.624368,132.94069 L180.249655,124.347586 C180.84046,123.448736 193.530115,103.646437 188.228966,77.8625287 C189.608276,77.3291954 191.024368,76.6464368 192.332414,75.7751724 L199.934713,70.7062069 Z" id="Fill-1" fill="#FEFEFE" mask="url(#mask-2)"></path>
                </g>
                <path d="M180.289885,73.3694253 C180.834713,73.3027586 185.462299,72.6843678 188.646207,70.5924138 C188.673793,70.5717241 188.678391,70.5349425 188.653103,70.5142529 C187.581839,69.6843678 169.945057,55.9096552 165.004828,44.42 C164.997931,44.4062069 164.997931,44.3901149 165.007126,44.3763218 C165.450805,43.7073563 176.648506,26.6452874 177.784138,11.5372414 C177.788736,11.5027586 177.758851,11.4751724 177.726667,11.4866667 C176.584138,11.8383908 160.282989,16.7533333 135.395632,17.0981609 C134.443908,17.111954 133.49908,16.9510345 132.602529,16.636092 C129.751954,15.6383908 123.11977,13.3648276 120.207126,12.7832184 C116.510575,12.0429885 100.538161,18.3878161 99.9818391,18.6085057 L99.9772414,18.6085057 C99.9749425,18.6085057 99.968046,18.603908 99.9657471,18.603908 C99.9634483,18.603908 99.9565517,18.6085057 99.9542529,18.6085057 L99.9496552,18.6085057 C99.3956322,18.3878161 83.4209195,12.0429885 79.7243678,12.7832184 C76.8117241,13.3648276 70.1795402,15.6383908 67.3289655,16.636092 C66.4324138,16.9510345 65.4875862,17.111954 64.5358621,17.0981609 C39.6485057,16.7533333 23.3473563,11.8383908 22.2048276,11.4866667 C22.1726437,11.4751724 22.1450575,11.5027586 22.1473563,11.5372414 C23.2829885,26.6452874 34.4806897,43.7073563 34.9243678,44.3763218 C34.9335632,44.3901149 34.9335632,44.4062069 34.9289655,44.42 C29.9864368,55.9096552 12.3496552,69.6843678 11.2783908,70.5142529 C11.2531034,70.5349425 11.2577011,70.5717241 11.2852874,70.5924138 C14.4691954,72.6843678 19.0990805,73.3027586 19.643908,73.3694253 C19.6714943,73.3717241 19.6875862,73.4016092 19.6783908,73.4314943 C11.5128736,98.9188506 24.2967816,119.638391 25.1128736,120.921149 C25.1312644,120.951034 25.1726437,120.951034 25.1933333,120.921149 C27.4691954,117.265977 30.5358621,114.429195 30.9404598,114.061379 C30.9657471,114.04069 30.997931,114.047586 31.0117241,114.077471 C31.3151724,114.732644 34.3933333,121.114253 41.5243678,126.817701 C48.6278161,132.50046 52.5473563,138.015402 52.9657471,138.617701 C52.9841379,138.647586 53.0232184,138.645287 53.043908,138.617701 C54.5634483,136.544138 55.0025287,133.265977 55.0645977,132.728046 C55.0691954,132.691264 55.1082759,132.672874 55.1404598,132.691264 C68.2186207,140.748736 60.6071264,154.442989 60.1726437,155.19931 C60.1611494,155.22 60.168046,155.245287 60.1864368,155.25908 C64.1634483,158.318851 68.4622989,159.362529 68.7795402,159.436092 C68.7933333,159.438391 68.8025287,159.447586 68.8071264,159.45908 C80.1542529,178.732644 99.2898851,184.075172 99.9404598,184.252184 L99.9404598,184.256782 C99.9427586,184.256782 99.9450575,184.256782 99.9496552,184.256782 C99.9496552,184.256782 99.951954,184.256782 99.951954,184.254483 C99.9542529,184.256782 99.9565517,184.256782 99.9565517,184.256782 C99.9611494,184.256782 99.9634483,184.256782 99.9657471,184.256782 L99.9657471,184.252184 L99.9657471,184.252184 L99.968046,184.252184 L99.968046,184.256782 C99.9703448,184.256782 99.9726437,184.256782 99.9749425,184.256782 C99.9749425,184.256782 99.9795402,184.256782 99.9795402,184.254483 C99.9795402,184.256782 99.9818391,184.256782 99.9841379,184.256782 C99.9864368,184.256782 99.9887356,184.256782 99.9910345,184.256782 L99.9910345,184.252184 C100.643908,184.075172 119.777241,178.732644 131.124368,159.45908 C131.128966,159.447586 131.14046,159.438391 131.151954,159.436092 C131.469195,159.362529 135.768046,158.318851 139.745057,155.25908 C139.763448,155.245287 139.772644,155.22 139.758851,155.19931 C139.326667,154.442989 131.712874,140.748736 144.793333,132.691264 C144.823218,132.672874 144.864598,132.691264 144.866897,132.728046 C144.931264,133.265977 145.370345,136.544138 146.887586,138.617701 C146.908276,138.645287 146.947356,138.647586 146.965747,138.617701 C147.386437,138.015402 151.305977,132.50046 158.407126,126.817701 C165.538161,121.114253 168.616322,114.732644 168.922069,114.077471 C168.935862,114.047586 168.965747,114.04069 168.991034,114.061379 C169.395632,114.429195 172.462299,117.265977 174.738161,120.921149 C174.758851,120.951034 174.80023,120.951034 174.82092,120.921149 C175.634713,119.638391 188.418621,98.9188506 180.253103,73.4314943 C180.243908,73.4016092 180.26,73.3717241 180.289885,73.3694253" id="Fill-4" fill="#231F20"></path>
                <path d="M83.8809195,65.2 C79.274023,62.2735632 74.565977,59.537931 69.7751724,57.0022989 C69.6717241,56.9471264 69.5636782,57.0712644 69.6234483,57.1793103 C70.8349425,59.3954023 72.736092,62.5310345 74.6809195,64.1517241 C77.4878161,66.491954 80.6234483,66.7471264 83.8648276,65.4390805 C83.9567816,65.4 83.9682759,65.2551724 83.8809195,65.2 M119.221149,108.416092 C118.834943,108.747126 117.683218,109.664368 116.995862,109.473563 C116.163678,109.23908 103.667126,103.503448 99.9682759,103.503448 L99.965977,103.503448 C96.2648276,103.503448 83.7705747,109.23908 82.936092,109.473563 C82.2510345,109.664368 81.0970115,108.747126 80.7108046,108.416092 C80.6533333,108.367816 80.5636782,108.4 80.5544828,108.478161 C80.3728736,109.767816 79.5268966,117.965517 85.7912644,125.648276 C85.8487356,125.71954 85.965977,125.685057 85.9682759,125.593103 C85.9889655,123.83908 86.1245977,114.006897 86.5498851,112.517241 C87.0188506,110.878161 95.3567816,107.365517 99.965977,107.365517 L99.9682759,107.365517 C104.575172,107.365517 112.913103,110.878161 113.382069,112.517241 C113.809655,114.006897 113.942989,123.83908 113.963678,125.593103 C113.965977,125.685057 114.083218,125.71954 114.142989,125.648276 C120.405057,117.965517 119.55908,109.767816 119.377471,108.478161 C119.368276,108.4 119.278621,108.367816 119.221149,108.416092 M113.733793,143.043678 C113.253333,143.372414 112.531494,143.726437 112.237241,143.864368 C112.175172,143.894253 112.103908,143.845977 112.103908,143.777011 C111.86023,134.471264 109.071724,131.701149 108.32,131.11954 C108.253333,131.066667 108.15908,131.124138 108.170575,131.209195 C108.869425,135.931034 106.876322,145.066667 106.207356,145.4 C105.526897,145.742529 102.802759,146.875862 99.9682759,146.875862 L99.965977,146.875862 C97.1291954,146.875862 94.4050575,145.742529 93.7245977,145.4 C93.0556322,145.066667 91.0648276,135.931034 91.7613793,131.209195 C91.7751724,131.124138 91.6809195,131.066667 91.611954,131.11954 C90.8602299,131.701149 88.0717241,134.471264 87.828046,143.777011 C87.828046,143.845977 87.7567816,143.894253 87.6947126,143.864368 C87.4004598,143.726437 86.6786207,143.372414 86.1981609,143.043678 C86.1268966,142.993103 86.0303448,143.048276 86.0441379,143.135632 C86.1544828,143.754023 86.5843678,145.501149 88.0510345,146.875862 C89.8671264,148.577011 92.4786207,150.96092 99.965977,150.96092 L99.9682759,150.96092 C107.453333,150.96092 110.064828,148.577011 111.88092,146.875862 C113.347586,145.501149 113.777471,143.754023 113.887816,143.135632 C113.903908,143.048276 113.807356,142.993103 113.733793,143.043678 M130.156782,57.0022989 C125.365977,59.537931 120.66023,62.2735632 116.051034,65.2 C115.965977,65.2551724 115.975172,65.4 116.067126,65.4390805 C119.308506,66.7471264 122.444138,66.491954 125.251034,64.1517241 C127.195862,62.5310345 129.097011,59.3954023 130.308506,57.1793103 C130.368276,57.0712644 130.26023,56.9471264 130.156782,57.0022989" id="Fill-6" fill="#FEFEFE"></path>
                <path d="M95.7510345,33.251954 C95.3441379,31.6611494 94.9924138,30.5048276 94.7464368,30.1048276 C93.4981609,28.0749425 85.5395402,24.4841379 83.3510345,23.8611494 C82.6498851,23.6611494 79.4498851,24.7255172 75.4406897,26.2565517 C75.6751724,26.2496552 75.9073563,26.2450575 76.1418391,26.2450575 C82.6154023,26.2450575 89.2085057,28.6013793 95.7510345,33.251954 L95.7510345,33.251954 Z M68.2728736,48.9209195 C72.0291954,53.3071264 90.403908,63.4427586 92.8406897,64.7668966 L92.8429885,64.7645977 L92.8406897,64.7645977 C92.8406897,64.7645977 92.8406897,64.7645977 92.8406897,64.7645977 C92.8383908,64.7645977 92.8383908,64.7622989 92.836092,64.7622989 C85.5786207,59.8542529 75.6108046,52.4473563 69.8383908,45.7048276 C66.7556322,42.1025287 66.0981609,40.114023 65.9832184,39.6795402 L65.9809195,39.6818391 C65.9809195,39.6818391 65.9832184,39.6818391 65.9832184,39.6818391 C65.7188506,40.5278161 64.6728736,44.7232184 68.2728736,48.9209195 L68.2728736,48.9209195 Z M86.6866667,97.2703448 C81.0062069,96.16 74.8383908,93.2082759 74.0958621,92.8450575 C74.0613793,92.8289655 74.02,92.8542529 74.0222072,92.8910345 C74.2222989,97.6128736 82.0544828,102.750805 82.9303448,102.417471 C83.82,102.077241 97.8728736,98.9094253 97.9901149,97.8634483 C98.2131034,92.9714943 94.0291954,88.6243678 92.1073563,87.6082759 C90.3855172,86.6933333 89.2981609,88.6887356 89.0912644,89.1117241 C89.0751724,89.1462069 89.0268966,89.1485057 89.0062069,89.1186207 C88.3947126,88.1944828 87.9234483,86.9829885 87.5832184,85.8910345 L87.5625287,85.8864368 C85.2383908,85.2243678 83.0131034,84.7714943 80.9533333,84.5347126 C82.4131034,85.76 83.6682759,87.0266667 84.3096552,87.6933333 C84.5510345,87.9462069 84.3970115,87.9462069 84.2177011,87.8427586 C79.4682759,85.097931 74.0521839,84.8174713 74.9257471,85.7944828 C76.5717241,88.4703448 85.2177011,95.8335632 86.7556322,97.1324138 C86.9050575,97.2588506 86.7878161,97.2887356 86.6866667,97.2703448 L86.6866667,97.2703448 Z M69.265977,72.4197701 C73.3970115,73.4657471 78.2567816,73.2243678 82.5602299,71.7691954 L82.5970115,71.8151724 C82.5993103,71.8197701 82.603908,71.8243678 82.6062069,71.8289655 C83.065977,72.4956322 83.2544828,73.2611494 83.1464368,74.0013793 C84.7510345,71.9324138 84.911954,69.9875862 84.9258718,69.6289655 C84.928046,69.5967816 84.8981609,69.576092 84.8682759,69.5852874 C75.4843678,72.2427586 66.9211494,69.4151724 65.803908,68.6933333 C65.7671264,68.6703448 65.7510345,68.6312644 65.7878161,68.6082759 C66.3855172,68.2565517 69.3464368,66.4542529 69.0383908,65.6496552 C68.9763218,65.4841379 68.5809195,65.1163218 67.9671264,64.6496552 L67.957931,64.6565517 C66.2177011,65.8657471 61.728046,66.5783908 61.236092,66.6542529 C62.311954,69.297931 65.2337931,71.3990805 69.265977,72.4197701 L69.265977,72.4197701 Z M174.208506,67.3186207 C167.769425,62.3324138 153.962529,44.3002299 153.275172,43.4036782 C153.261379,43.3829885 153.268276,43.3577011 153.288966,43.3416092 C163.606207,36.0864368 168.762529,21.3255172 169.27977,19.7806897 C168.937241,20.3186207 166.215402,24.5232184 162.047586,29.268046 C156.652184,35.4082759 151.449885,39.5462069 146.58092,41.5645977 C147.036092,41.8887356 149.394713,44.1186207 151.774023,49.2588506 C153.275172,52.5048276 154.486667,56.2726437 155.374023,60.4565517 C156.47977,65.668046 157.047586,71.543908 157.125747,77.914023 C157.144138,78.2128736 157.146437,78.5232184 157.16023,78.8266667 C157.185517,79.3944828 157.215402,79.9577011 157.224598,80.5393103 C157.236092,81.4450575 157.229195,82.3668966 157.197011,83.3094253 C157.197011,83.3324138 157.18092,83.3485057 157.162529,83.3554023 C157.155632,83.3577011 157.148736,83.3508046 157.141839,83.3485057 C157.130345,83.3485057 157.118851,83.3508046 157.111954,83.3416092 C157.111954,83.3393103 157.109655,83.3416092 157.109655,83.3393103 C156.815402,82.914023 155.732644,81.3967816 154.263678,79.8887356 L154.25908,79.8864368 C153.116552,78.714023 151.737241,77.5462069 150.311954,76.897931 C150.298161,76.8910345 150.282069,76.8933333 150.268276,76.9025287 C150.254483,76.9117241 150.245287,76.9255172 150.245287,76.943908 C150.256782,78.2933333 150.206207,97.1829885 137.302759,108.835862 C137.275172,108.858851 137.245287,108.87954 137.226897,108.874943 C137.208506,108.872644 137.206207,108.847356 137.236092,108.78069 C137.261379,108.732414 137.286667,108.672644 137.318851,108.603678 C137.321149,108.596782 137.323448,108.589885 137.328046,108.582989 C137.826897,107.474943 139.18092,104.148506 139.656782,99.8841379 L139.638391,99.7967816 C138.254483,93.1025287 135.254483,88.5232184 130.718851,86.1898851 C131.484368,88.4910345 132.286667,91.3048276 132.882069,93.5577011 C133.509655,96.0036782 130.642989,99.1508046 128.065977,102.417471 C128.05908,102.426667 128.056782,102.431264 128.056782,102.442759 C128.017701,102.893333 126.870575,116.104828 123.647586,123.109425 C120.369425,130.231264 116.30046,141.982989 119.010805,149.672644 C119.013103,149.674943 119.013103,149.674943 119.013103,149.677241 C119.022299,149.732414 119.39931,152.297931 113.137241,154.534713 C108.10046,156.337011 102.197011,159.137011 99.9901149,160.208276 L99.9901149,160.210575 L99.9855172,160.210575 C99.9809195,160.212874 99.9763218,160.212874 99.9717241,160.210575 L99.9671264,160.210575 L99.9671264,160.208276 L99.9648276,160.208276 L99.9648276,160.208276 L99.9648276,160.210575 L99.9602299,160.210575 C99.9533333,160.212874 99.9487356,160.212874 99.9441379,160.210575 L99.9395402,160.210575 L99.9395402,160.208276 C97.7326437,159.137011 91.8291954,156.337011 86.7924138,154.534713 C80.5326437,152.297931 80.9073563,149.732414 80.9165517,149.677241 C80.9165517,149.674943 80.9188506,149.674943 80.9188506,149.672644 C83.6291954,141.982989 79.5602299,130.231264 76.282069,123.109425 C73.0613793,116.104828 71.911954,102.893333 71.8751724,102.442759 C71.8728736,102.431264 71.8705747,102.426667 71.8636782,102.417471 C69.2866667,99.1508046 66.42,96.0036782 67.0475862,93.5577011 C67.6429885,91.3048276 68.4452874,88.4910345 69.2131034,86.1898851 C64.6774713,88.5232184 61.6751724,93.1025287 60.2912644,99.7967816 L60.2728736,99.8841379 C60.7487356,104.148506 62.1027586,107.474943 62.6016092,108.582989 L62.6108046,108.603678 C62.6429885,108.672644 62.6705747,108.732414 62.6935632,108.78069 C62.7234483,108.847356 62.7211494,108.872644 62.7050575,108.874943 C62.6866667,108.87954 62.6544828,108.858851 62.6268966,108.835862 C49.7257471,97.1829885 49.6728736,78.2933333 49.6866667,76.943908 C49.6866667,76.9255172 49.6774713,76.9117241 49.6613793,76.9025287 C49.6475862,76.8933333 49.6314943,76.8910345 49.6177011,76.897931 C48.1924138,77.5462069 46.8131034,78.714023 45.6705747,79.8864368 C45.6705747,79.8864368 45.6682759,79.8887356 45.6682759,79.8887356 C44.1970115,81.3967816 43.1142529,82.914023 42.82,83.3393103 L42.82,83.3416092 C42.8131034,83.3508046 42.7993103,83.3485057 42.7901149,83.3485057 C42.7809195,83.3508046 42.7763218,83.3577011 42.7671264,83.3554023 C42.7487356,83.3485057 42.7349425,83.3324138 42.7326437,83.3094253 C42.7027586,82.3668966 42.6935632,81.4450575 42.7073563,80.5393103 C42.7142529,79.9577011 42.7441379,79.3944828 42.7717241,78.8266667 C42.7832184,78.5232184 42.7855172,78.2128736 42.803908,77.914023 C42.8843678,71.543908 43.4521839,65.668046 44.5556322,60.4565517 C45.4429885,56.2726437 46.6544828,52.5048276 48.1556322,49.2588506 C50.5349425,44.1186207 52.8958621,41.8887356 53.3487356,41.5645977 C48.482069,39.5462069 43.2774713,35.4082759 37.8843678,29.268046 C33.7142529,24.5232184 30.9947126,20.3186207 30.6498851,19.7806897 C31.1671264,21.3255172 36.3234483,36.0864368 46.6406897,43.3416092 C46.6613793,43.3577011 46.6705747,43.3829885 46.6544828,43.4036782 C45.9694253,44.3002299 32.1625287,62.3324138 25.7211494,67.3186207 C25.6843678,67.3485057 25.7073563,67.4013793 25.7533333,67.4013793 L30.6981609,67.4013793 C30.7303448,67.4013793 30.7556322,67.4289655 30.7441379,67.4588506 C30.4108046,68.5347126 25.5418391,84.605977 27.5901149,99.36 C27.603908,99.4634483 27.7487356,99.4887356 27.7947126,99.3944828 C28.5878161,97.8381609 32.2613793,90.8243678 35.9602299,87.3255172 C36.003908,87.2841379 36.0774713,87.3117241 36.0797701,87.3714943 C36.1970115,89.3416092 38.0062069,110.065747 62.7165517,121.362299 C62.7510345,121.376092 62.7878161,121.355402 62.7878161,121.32092 C62.7694253,120.835862 62.5717241,118.022069 60.4774713,112.957701 C60.4544828,112.90023 60.5050575,112.84046 60.5625287,112.861149 C62.0636782,113.392184 74.5602299,118.743908 72.1257471,149.13931 C72.1234483,149.16 72.1303448,149.178391 72.1487356,149.187586 C72.3441379,149.272644 73.5257471,149.73931 75.3487356,149.187586 C75.3717241,149.18069 75.3993103,149.189885 75.4062069,149.215172 C75.6452874,149.994483 79.5165517,161.665747 99.9441379,171.016194 C99.9487356,171.016194 99.9556322,171.016194 99.9602299,171.016194 C99.9625287,171.016194 99.9648276,171.012874 99.9648276,171.012874 C99.9671264,171.012874 99.9671264,171.016194 99.9694253,171.016194 C99.9763218,171.016194 99.9809195,171.016194 99.9878161,171.016194 C120.413103,161.665747 124.286667,149.994483 124.523448,149.215172 C124.532644,149.189885 124.557931,149.18069 124.583218,149.187586 C126.403908,149.73931 127.587816,149.272644 127.78092,149.187586 C127.79931,149.178391 127.808506,149.16 127.806207,149.13931 C125.369425,118.743908 137.865977,113.392184 139.367126,112.861149 C139.426897,112.84046 139.477471,112.90023 139.452184,112.957701 C137.357931,118.022069 137.162529,120.835862 137.144138,121.32092 C137.141839,121.355402 137.178621,121.376092 137.213103,121.362299 C161.923448,110.065747 163.732644,89.3416092 163.849885,87.3714943 C163.854483,87.3117241 163.925747,87.2841379 163.969425,87.3255172 C167.668276,90.8243678 171.341839,97.8381609 172.134943,99.3944828 C172.183218,99.4887356 172.325747,99.4634483 172.33954,99.36 C174.390115,84.605977 169.518851,68.5347126 169.185517,67.4588506 C169.176322,67.4289655 169.201609,67.4013793 169.233793,67.4013793 L174.178621,67.4013793 C174.222299,67.4013793 174.245287,67.3485057 174.208506,67.3186207 L174.208506,67.3186207 Z M117.332644,71.8151724 L117.369425,71.7691954 C121.675172,73.2243678 126.532644,73.4657471 130.665977,72.4197701 C134.695862,71.3990805 137.617701,69.297931 138.693563,66.6542529 C138.201609,66.5783908 133.714253,65.8657471 131.971724,64.6565517 L131.962529,64.6496552 C131.348736,65.1163218 130.953333,65.4841379 130.891264,65.6496552 C130.585517,66.4542529 133.544138,68.2565517 134.141839,68.6082759 C134.178621,68.6312644 134.162529,68.6703448 134.125747,68.6933333 C133.008506,69.4151724 124.445287,72.2427586 115.061379,69.5852874 C115.031494,69.576092 115.003908,69.5967816 115.003908,69.6289655 C115.02,69.9875862 115.178621,71.9324138 116.783218,74.0013793 C116.675172,73.2611494 116.863678,72.4956322 117.323448,71.8289655 C117.328046,71.8243678 117.330345,71.8197701 117.332644,71.8151724 L117.332644,71.8151724 Z M107.088966,64.7645977 L107.088966,64.7645977 L107.088966,64.7645977 L107.088966,64.7668966 C109.525747,63.4427586 127.90046,53.3071264 131.656782,48.9209195 C135.256782,44.7232184 134.210805,40.5278161 133.948736,39.6818391 C133.948736,39.6818391 133.948736,39.6818391 133.948736,39.6818391 L133.948736,39.6795402 C133.831494,40.114023 133.176322,42.1025287 130.091264,45.7048276 C124.321149,52.4473563 114.351034,59.8542529 107.093563,64.7622989 C107.093563,64.7622989 107.091264,64.7645977 107.088966,64.7645977 L107.088966,64.7645977 Z M124.488966,26.2565517 C120.47977,24.7255172 117.27977,23.6611494 116.578621,23.8611494 C114.390115,24.4841379 106.431494,28.0749425 105.185517,30.1048276 C104.937241,30.5048276 104.585517,31.6611494 104.18092,33.251954 C110.721149,28.6013793 117.314253,26.2450575 123.790115,26.2450575 C124.022299,26.2450575 124.254483,26.2496552 124.488966,26.2565517 L124.488966,26.2565517 Z M116.99931,102.417471 C117.877471,102.750805 125.709655,97.6128736 125.907453,92.8910345 C125.909655,92.8542529 125.870575,92.8289655 125.836092,92.8450575 C125.093563,93.2082759 118.923448,96.16 113.242989,97.2703448 C113.141839,97.2887356 113.024598,97.2588506 113.176322,97.1324138 C114.711954,95.8335632 123.36023,88.4703448 125.003908,85.7944828 C125.877471,84.8174713 120.463678,85.097931 115.714253,87.8427586 C115.534943,87.9462069 115.378621,87.9462069 115.622299,87.6933333 C116.261379,87.0266667 117.518851,85.76 118.978621,84.5347126 C116.916552,84.7714943 114.693563,85.2243678 112.367126,85.8864368 L112.346437,85.8910345 C112.006207,86.9829885 111.537241,88.1944828 110.923448,89.1186207 C110.902759,89.1485057 110.856782,89.1462069 110.838391,89.1117241 C110.633793,88.6887356 109.544138,86.6933333 107.822299,87.6082759 C105.90046,88.6243678 101.716552,92.9714943 101.941839,97.8634483 C102.056782,98.9094253 116.109655,102.077241 116.99931,102.417471 L116.99931,102.417471 Z" id="Fill-8" fill="#FEFEFE"></path>
                <path d="M99.965977,61.5845977 C84.8694253,59.3225287 80.9705747,48.9041379 80.6303448,47.4581609 C80.6234483,47.4328736 80.6349425,47.4144828 80.6533333,47.4052874 C80.6533333,47.4052874 80.6510345,47.4029885 80.6510345,47.4029885 L80.6556322,47.4052874 C80.6694253,47.3983908 80.6901149,47.3983908 80.7062069,47.4144828 C85.4924138,52.025977 94.6349425,56.3294253 99.965977,56.3524138 C105.297011,56.3294253 114.43954,52.025977 119.225747,47.4144828 C119.241839,47.3983908 119.262529,47.3983908 119.278621,47.4052874 C119.278621,47.4052874 119.278621,47.4029885 119.28092,47.4029885 C119.28092,47.4029885 119.278621,47.4052874 119.278621,47.4052874 C119.297011,47.4144828 119.308506,47.4328736 119.301609,47.4581609 C118.961379,48.9041379 115.062529,59.3225287 99.965977,61.5845977 L99.965977,61.5845977 Z M169.317701,19.6926437 C169.301609,19.6489655 169.262529,19.6305747 169.221149,19.6443678 C158.913103,23.2581609 139.926897,25.5868966 139.122299,25.6834483 C139.094713,25.688046 139.069425,25.7064368 139.057931,25.734023 C139.046437,25.7593103 139.048736,25.7914943 139.069425,25.8144828 C141.60046,29.0650575 144.352184,33.7662069 144.876322,34.6765517 C144.88092,34.6857471 144.878621,34.6903448 144.876322,34.6926437 C144.869425,34.6995402 144.864828,34.6972414 144.862529,34.6949425 C143.630345,34.1524138 132.57977,29.3110345 124.602759,26.2581609 L124.591264,26.2558621 C124.322299,26.2489655 124.055632,26.2443678 123.788966,26.2443678 C117.303908,26.2443678 110.697011,28.6075862 104.142989,33.2765517 L104.133793,33.2811494 L104.131494,33.2949425 C103.786667,34.6489655 103.375172,36.4190805 102.913103,38.5547126 C102.908506,38.58 102.915402,38.6075862 102.933793,38.6282759 C102.949885,38.6489655 102.97977,38.6581609 103.002759,38.6558621 C105.52,38.3891954 108.041839,37.6167816 109.922299,36.5363218 C112.678621,34.9547126 113.198161,33.2581609 113.149885,32.1156322 C113.149885,32.1133333 113.149885,32.1041379 113.154483,32.1041379 C113.490115,32.0857471 116.54069,31.9662069 120.336092,32.7202299 C125.267126,33.6995402 129.211954,35.6512644 132.062529,38.5271264 C132.069425,38.534023 132.067126,38.5409195 132.064828,38.5455172 C132.062529,38.5478161 132.055632,38.5524138 132.051034,38.5524138 C130.970575,38.288046 121.382069,35.9891954 116.913103,36.9041379 C116.883218,36.9087356 116.862529,36.9248276 116.853333,36.9524138 C116.777471,37.134023 116.051034,38.78 113.784368,40.6351724 C110.834943,43.0489655 106.706207,44.7271264 101.510805,45.6236782 C101.476322,45.6305747 101.451034,45.6558621 101.444138,45.688046 C100.683218,49.4857471 100.090115,52.6535632 99.9774713,53.2512644 C99.9774713,53.2535632 99.9774713,53.2581609 99.9728736,53.2604598 L99.9613793,53.2604598 C99.9544828,53.2581609 99.9544828,53.2535632 99.9544828,53.2512644 C99.8418391,52.6535632 99.2487356,49.4857471 98.4878161,45.688046 C98.4809195,45.6558621 98.4556322,45.6305747 98.4211494,45.6236782 C93.2257471,44.7271264 89.0970115,43.0489655 86.1475862,40.6351724 C83.8809195,38.78 83.1544828,37.134023 83.0786207,36.9524138 C83.0694253,36.9248276 83.0487356,36.9087356 83.0188506,36.9041379 C78.5498851,35.9891954 68.9613793,38.288046 67.8809195,38.5524138 C67.8763218,38.5524138 67.8694253,38.5478161 67.8671264,38.5455172 C67.8648276,38.5409195 67.8625287,38.534023 67.8694253,38.5271264 C70.72,35.6512644 74.6648276,33.6995402 79.5958621,32.7202299 C83.3912644,31.9662069 86.4418391,32.0857471 86.7774713,32.1041379 C86.782069,32.1041379 86.782069,32.1133333 86.782069,32.1156322 C86.7337931,33.2581609 87.2533333,34.9547126 90.0096552,36.5363218 C91.8901149,37.6167816 94.411954,38.3891954 96.9291954,38.6558621 C96.9521839,38.6581609 96.982069,38.6489655 96.9981609,38.6282759 C97.0165517,38.6075862 97.0257471,38.58 97.0188506,38.5547126 C96.5567816,36.4190805 96.1452874,34.6489655 95.8004598,33.2949425 L95.7981609,33.2811494 L95.7889655,33.2765517 C89.2349425,28.6075862 82.628046,26.2443678 76.1429885,26.2443678 C75.8763218,26.2443678 75.6096552,26.2489655 75.3406897,26.2558621 L75.3291954,26.2581609 C67.3521839,29.3110345 56.303908,34.1524138 55.0694253,34.6949425 C55.0671264,34.6972414 55.0625287,34.6995402 55.0556322,34.6926437 C55.0533333,34.6903448 55.0510345,34.6857471 55.0556322,34.6765517 C55.5797701,33.7662069 58.3314943,29.0650575 60.8625287,25.8144828 C60.8832184,25.7914943 60.8855172,25.7593103 60.874023,25.734023 C60.8625287,25.7064368 60.8372414,25.688046 60.8096552,25.6834483 C60.0073563,25.5868966 41.0188506,23.2581609 30.7108046,19.6443678 C30.6694253,19.6305747 30.6303448,19.6489655 30.6142529,19.6926437 L30.6073563,19.7087356 L30.6165517,19.7248276 C30.6418391,19.7662069 33.4418391,24.2098851 37.8855172,29.2673563 C43.2786207,35.4098851 48.4809195,39.5455172 53.3521839,41.563908 C52.8970115,41.8903448 50.536092,44.117931 48.1590805,49.2581609 C46.6556322,52.5041379 45.4441379,56.271954 44.5567816,60.4558621 C43.4533333,65.6673563 42.8855172,71.5432184 42.8050575,77.9156322 L42.8050575,77.9156322 C44.3406897,52.5891954 65.8924138,39.6742529 65.92,39.6581609 C65.9475862,39.6443678 65.9751724,39.6581609 65.9843678,39.6811494 C65.9843678,39.6811494 65.9843678,39.6811494 65.9843678,39.6811494 C65.9866667,39.6811494 65.9866667,39.6834483 65.9866667,39.6857471 C66.103908,40.1271264 66.765977,42.1110345 69.8418391,45.7041379 C75.611954,52.4466667 85.5797701,59.8512644 92.8372414,64.7593103 C92.8372414,64.7593103 92.8395402,64.7616092 92.8418391,64.7616092 C92.8418391,64.7616092 92.8418391,64.763908 92.8418391,64.763908 C92.8441379,64.763908 92.8441379,64.763908 92.8441379,64.763908 L92.8441379,64.763908 L92.8441379,64.7662069 C92.8648276,64.7777011 92.8694253,64.8006897 92.857931,64.8236782 C90.0648276,70.9708046 84.0809195,73.9248276 83.1544828,74.1271264 C83.1085057,74.1363218 83.0855172,74.0834483 83.1131034,74.0489655 C83.1268966,74.0328736 83.136092,74.0167816 83.1498851,74.0006897 C83.2556322,73.2627586 83.0671264,72.4949425 82.6096552,71.8305747 C82.6050575,71.825977 82.6027586,71.8190805 82.5981609,71.8144828 L82.5636782,71.7685057 C78.257931,73.2236782 73.4004598,73.4650575 69.2671264,72.4190805 C65.2372414,71.3983908 62.3154023,69.2972414 61.2395402,66.6535632 C61.7314943,66.5777011 66.2188506,65.8650575 67.9613793,64.6558621 L67.9705747,64.6489655 C65.2924138,62.6121839 58.4211494,58.6167816 56.5108046,60.5294253 C54.4050575,62.6351724 52.6602299,67.7110345 52.3222989,68.7363218 C52.3062069,68.7845977 52.3613793,68.8167816 52.3981609,68.78 C54.1567816,67.0328736 57.3889655,65.9041379 57.9843678,65.7064368 C58.0234483,65.6949425 58.0556322,65.734023 58.0395402,65.7708046 C55.1291954,72.5386207 56.4602299,81.6374713 56.6142529,82.6006897 C56.6188506,82.6374713 56.6648276,82.6512644 56.6924138,82.625977 C64.7383908,75.4466667 72.4602299,76.242069 73.5774713,76.4052874 C73.6234483,76.4098851 73.6257471,76.471954 73.5843678,76.4926437 C61.1544828,82.9386207 59.4694253,92.7501149 60.2717241,99.9041379 L60.2947126,99.796092 C61.6763218,93.1041379 64.6763218,88.5271264 69.2096552,86.1914943 C69.3062069,85.9018391 69.4027586,85.6167816 69.4970115,85.3455172 C70.9682759,81.1616092 73.4556322,80.2558621 76.9544828,81.842069 C78.2648276,82.4328736 79.6855172,83.4696552 80.9521839,84.534023 C83.0142529,84.7708046 85.2395402,85.225977 87.565977,85.8857471 L87.5843678,85.8926437 C87.1981609,84.6558621 86.982069,83.5822989 86.9268966,83.2811494 C86.9177011,83.2443678 86.9544828,83.2167816 86.9889655,83.2305747 C87.9889655,83.6144828 98.0510345,87.4765517 99.9544828,87.4926437 L99.965977,87.4926437 L99.9774713,87.4926437 C101.88092,87.4765517 111.942989,83.6144828 112.942989,83.2305747 C112.977471,83.2167816 113.014253,83.2443678 113.007356,83.2811494 C112.949885,83.5822989 112.733793,84.6558621 112.347586,85.8926437 L112.365977,85.8857471 C114.692414,85.225977 116.917701,84.7708046 118.97977,84.534023 C120.246437,83.4696552 121.667126,82.4328736 122.977471,81.842069 C126.476322,80.2558621 128.963678,81.1616092 130.434943,85.3455172 C130.529195,85.6167816 130.625747,85.9018391 130.722299,86.1914943 C135.255632,88.5271264 138.255632,93.1041379 139.637241,99.796092 L139.66023,99.9041379 C140.462529,92.7501149 138.777471,82.9386207 126.347586,76.4926437 C126.306207,76.471954 126.308506,76.4098851 126.354483,76.4052874 C127.471724,76.242069 135.193563,75.4466667 143.23954,82.625977 C143.267126,82.6512644 143.313103,82.6374713 143.317701,82.6006897 C143.471724,81.6374713 144.802759,72.5386207 141.892414,65.7708046 C141.876322,65.734023 141.908506,65.6949425 141.947586,65.7064368 C142.542989,65.9041379 145.775172,67.0328736 147.533793,68.78 C147.570575,68.8167816 147.625747,68.7845977 147.609655,68.7363218 C147.271724,67.7110345 145.526897,62.6351724 143.421149,60.5294253 C141.510805,58.6167816 134.63954,62.6121839 131.961379,64.6489655 L131.970575,64.6558621 C133.713103,65.8650575 138.202759,66.5777011 138.692414,66.6535632 C137.616552,69.2972414 134.694713,71.3983908 130.664828,72.4190805 C126.531494,73.4650575 121.674023,73.2236782 117.368276,71.7685057 L117.333793,71.8144828 C117.329195,71.8190805 117.326897,71.825977 117.322299,71.8305747 C116.864828,72.4949425 116.676322,73.2627586 116.782069,74.0006897 C116.795862,74.0167816 116.807356,74.0328736 116.818851,74.0489655 C116.846437,74.0834483 116.823448,74.1363218 116.777471,74.1271264 C115.851034,73.9248276 109.867126,70.9708046 107.074023,64.8236782 C107.062529,64.8006897 107.067126,64.7777011 107.087816,64.7662069 L107.087816,64.763908 L107.087816,64.763908 C107.087816,64.763908 107.087816,64.763908 107.090115,64.763908 C107.090115,64.763908 107.090115,64.7616092 107.090115,64.7616092 C107.092414,64.7616092 107.094713,64.7593103 107.094713,64.7593103 C114.352184,59.8512644 124.32,52.4466667 130.090115,45.7041379 C133.165977,42.1110345 133.828046,40.1271264 133.945287,39.6857471 C133.945287,39.6834483 133.947586,39.6811494 133.947586,39.6811494 L133.947586,39.6811494 C133.956782,39.6581609 133.984368,39.6443678 134.011954,39.6581609 C134.03954,39.6742529 155.591264,52.5891954 157.126897,77.9156322 L157.126897,77.9156322 C157.046437,71.5432184 156.478621,65.6673563 155.375172,60.4558621 C154.487816,56.271954 153.276322,52.5041379 151.775172,49.2581609 C149.395862,44.117931 147.034943,41.8903448 146.57977,41.563908 C151.451034,39.5455172 156.653333,35.4098851 162.046437,29.2673563 C166.490115,24.2098851 169.290115,19.7662069 169.315402,19.7248276 L169.324598,19.7087356 L169.317701,19.6926437 Z" id="Fill-10" fill="#F37820"></path>
                <polygon id="Fill-12" fill="#231F20" points="156.374253 144.789885 154.813333 144.789885 154.813333 144.405977 158.355862 144.405977 158.355862 144.789885 156.79954 144.789885 156.79954 148.746207 156.374253 148.746207"></polygon>
                <path d="M159.488046,144.405977 L159.931724,144.405977 L161.067356,146.955402 C161.166207,147.178391 161.278851,147.486437 161.278851,147.486437 L161.290345,147.486437 C161.290345,147.486437 161.407586,147.178391 161.506437,146.955402 L162.644368,144.405977 L163.081149,144.405977 L163.425977,148.746207 L163.00069,148.746207 L162.75931,145.709425 C162.743218,145.474943 162.747816,145.104828 162.747816,145.104828 L162.736322,145.104828 C162.736322,145.104828 162.605287,145.486437 162.506437,145.709425 L161.488046,147.937011 L161.088046,147.937011 L160.067356,145.709425 C159.968506,145.493333 159.832874,145.091034 159.832874,145.091034 L159.821379,145.091034 C159.821379,145.091034 159.828276,145.474943 159.809885,145.709425 L159.568506,148.746207 L159.143218,148.746207 L159.488046,144.405977 Z" id="Fill-14" fill="#231F20"></path>
            </g>
        </g>
    </g>
</svg>