<?xml version="1.0" encoding="UTF-8"?>
<svg width="200px" height="200px" viewBox="0 0 200 200" version="1.1" xmlns="http://www.w3.org/2000/svg" xmlns:xlink="http://www.w3.org/1999/xlink">
    <!-- Generator: Sketch 55.2 (78181) - https://sketchapp.com -->
    <title>umkc</title>
    <desc>Created with Sketch.</desc>
    <g id="umkc" stroke="none" stroke-width="1" fill="none" fill-rule="evenodd">
        <g id="umkc_BGD">
            <g id="BGD" transform="translate(0.000000, 6.002401)">
                <path d="M195.621106,110.615675 C191.162179,90.2646773 180.758017,67.7413823 178.199851,63.7254902 C176.705022,61.4099519 174.761208,59.4175428 172.483279,57.8660035 C169.482079,55.8223289 166.509461,55.2077974 163.908421,56.0938661 C162.155799,56.665628 160.563927,57.6452416 159.263705,58.9521523 C157.209453,58.3858447 155.026418,58.506288 153.046933,59.2951466 C150.45236,60.3576452 148.392859,62.4171461 147.330361,65.011719 L147.201738,65.011719 C144.138792,64.8508245 141.209872,66.2828608 139.455782,68.7989482 C137.999622,71.0424336 137.05771,73.5802274 136.697536,76.2304922 C135.076321,76.2813176 133.459033,76.4196696 131.852741,76.6449437 L131.852741,64.5543932 C131.854669,64.3125531 131.952301,64.0813203 132.124278,63.9112788 L132.896016,63.1395415 C135.196936,60.8386212 134.53953,57.1943063 132.553021,55.0077174 L127.536729,50.020008 C128.465672,47.8191277 129.851941,44.6035557 131.381124,41.0021151 C135.33985,31.7412679 140.270394,20.2080832 141.785286,16.4923112 C142.871944,13.7731139 143.226733,10.8165447 142.814269,7.9174527 C142.536246,4.90122089 140.787478,2.21656855 138.140971,0.743154405 C136.097296,-0.257245755 130.795175,-1.65780598 125.678843,7.14571543 C123.162702,11.3732185 119.876027,15.0913302 115.989253,18.1072429 C112.573601,20.9655291 109.057909,24.0096038 106.814154,29.354599 C106.67124,29.6833019 106.442577,30.2692506 106.185331,31.0552793 C105.985251,30.483622 105.756588,29.9262562 105.527925,29.354599 C103.284171,24.0096038 99.8113531,21.0084034 96.3528268,18.1072429 C92.4692891,15.0878811 89.1831976,11.3704294 86.6632367,7.14571543 C81.5469045,-1.65780598 76.2447836,-0.257245755 74.201109,0.743154405 C71.5427729,2.22491293 69.7921857,4.92841916 69.5278111,7.96032699 C69.1153471,10.859419 69.4701354,13.8159882 70.5567941,16.5351855 C72.5147202,21.3513977 82.3186417,44.54639 84.6338535,50.020008 L79.6604356,54.9934259 C77.3911779,57.2737871 77.3911779,60.9592204 79.6604356,63.2395815 L80.0891785,63.6683245 C80.2620117,63.8436289 80.3594602,64.0795568 80.3607157,64.3257303 L80.3607157,67.3126393 C67.3127808,64.8350154 53.8526496,65.6553957 41.2021952,69.6993083 C23.9524381,75.0728863 10.1897902,85.2626765 2.41525182,98.4250843 C1.81648447,99.4469369 1.47786252,100.600215 1.42914309,101.783571 C1.40555136,102.571048 1.50684654,103.357291 1.72926313,104.113074 C8.87497856,129.265992 21.2656491,144.300577 30.4550392,152.475276 C40.7877437,161.678957 49.5912651,164.680158 49.9628423,164.808781 L51.1347396,165.194649 L52.3495112,165.008861 C54.9166509,164.570957 57.4089751,163.772259 59.7524724,162.636483 C65.0831761,168.19585 72.8148402,173.555136 82.7330932,178.600011 C89.3810395,181.985281 96.280495,184.852091 103.369919,187.17487 C104.29707,187.456388 105.259336,187.605539 106.228206,187.617911 C107.200431,187.617911 108.166181,187.459739 109.086492,187.146287 C135.63997,178.071228 149.688447,165.709141 154.81907,160.478477 C155.710465,161.535578 156.66497,162.537807 157.677357,163.479678 C157.90602,163.694049 158.120391,163.922712 158.334762,164.151375 L159.020751,164.894529 L159.192248,164.894529 C166.037844,171.182759 172.69765,173.941005 181.758418,176.513463 C183.29681,176.96036 184.949127,176.785891 186.360258,176.027554 C187.349801,175.437346 188.202362,174.643246 188.861259,173.698051 L188.861259,173.612302 C200.780312,158.634883 202.509575,142.099697 195.621106,110.615675 Z" id="Path" fill="#FFCD00" fill-rule="nonzero"></path>
                <path d="M192.934317,111.201624 C188.646887,91.4651575 178.314183,69.0704853 175.856057,65.1975076 C173.655176,61.7103984 168.710341,57.3943863 164.837364,58.7234894 C162.947537,59.3662099 161.320841,60.6113354 160.20694,62.2677642 C158.32136,61.3206374 156.127789,61.196473 154.147373,61.9247699 C151.174756,63.153833 150.21723,65.3261305 149.145372,68.0843766 C146.530041,67.6127594 143.32876,67.9271709 141.713828,70.4138798 C140.047221,73.0028558 139.177576,76.0242494 139.212828,79.1030698 C135.775661,78.9601389 132.336409,79.3310385 129.008746,80.20351 L129.008746,64.5543932 C128.995912,63.5829799 129.371472,62.6466509 130.052021,61.9533528 L130.823758,61.1816155 C131.967073,60.038301 131.481164,58.080375 130.380724,56.8941862 L124.835649,51.3491111 C124.467783,50.9703034 124.355947,50.4111235 124.54982,49.919968 C127.522438,42.9171669 136.997656,20.8654891 139.169954,15.5204939 C140.956383,11.1473161 140.441891,5.04487509 136.869033,3.27273767 C135.196936,2.45812611 131.824158,2.04367461 128.022638,8.51769279 C125.353628,13.0234551 121.863371,16.9887742 117.732807,20.2080832 C114.431487,23.0663694 111.315955,25.6674098 109.329446,30.4121649 C108.712191,31.9625583 108.23393,33.5647357 107.900303,35.1997942 C107.785972,35.7428686 107.685932,36.6289373 107.685932,36.6289373 C106.715941,36.849246 105.798373,37.2570538 104.984851,37.8294175 C104.884811,37.1291374 104.627565,35.8429086 104.47036,35.1569199 C104.102008,33.514649 103.590319,31.9078516 102.941176,30.3549991 C100.954668,25.6102441 97.8391357,22.9663294 94.5235237,20.1509175 C90.4324673,16.9201471 86.9731167,12.9617585 84.3194421,8.4748185 C80.5322129,2.00080032 77.1737266,2.41525182 75.4873378,3.22986337 C71.9144801,5.0020008 71.3999886,11.1044418 73.1864174,15.4776196 C75.2158006,20.4796204 85.5913794,45.0751729 87.635054,49.8770937 C87.8080947,50.3699138 87.6985014,50.91788 87.3492254,51.3062368 L81.6326531,57.0228091 C80.4708401,58.2158301 80.4708401,60.1172174 81.6326531,61.3102384 L82.061396,61.7389813 C82.7427509,62.4223611 83.1277838,63.3464401 83.1332533,64.3114389 L83.1332533,70.8854971 C71.1427428,67.5270108 55.9795347,68.0272109 42.0168067,72.3146401 C25.4101641,77.4595553 12.2191734,87.1920197 4.85908649,99.7684788 C4.48797042,100.392573 4.28143452,101.100696 4.25828735,101.826445 C4.25137311,102.310298 4.31886604,102.79239 4.45892643,103.255588 C11.3045218,127.836849 23.352198,142.442691 32.2986337,150.403018 C42.2168868,159.249414 50.4916252,162.064826 50.8774939,162.179157 L51.4205682,162.364946 L51.977934,162.279197 C54.9413269,161.736262 57.7919438,160.697478 60.4098782,159.20654 C72.2860573,172.840565 96.9387755,182.258618 104.227405,184.502372 C105.545189,184.938445 106.968388,184.938445 108.286172,184.502372 C141.942491,173.069228 155.076316,156.162465 155.076316,156.162465 C156.416787,158.085109 157.943853,159.870675 159.635283,161.493169 C159.949694,161.793289 160.235523,162.079117 160.478477,162.336363 L160.478477,162.336363 C167.123992,168.638884 173.340765,171.29709 182.558738,173.926714 C183.393848,174.172628 184.292172,174.080229 185.059738,173.669468 C185.749693,173.236922 186.339274,172.66196 186.789001,171.983079 C197.821986,157.863145 199.694163,142.199737 192.934317,111.201624 Z" id="Path" fill="#004987" fill-rule="nonzero"></path>
                <path d="M106.799863,104.656148 L101.18333,104.656148 C99.1499478,104.671188 97.4285917,103.158854 97.1817298,101.140456 C93.5945807,100.18293 92.7799691,96.8530269 91.4651575,94.2234036 C89.5358143,90.221803 84.7910593,90.5219231 83.8335334,85.5627965 L80.9037901,101.897902 C80.2341006,107.763986 82.2571716,113.617755 86.405991,117.818556 C92.2083119,122.691934 96.0955811,121.605785 94.5378151,117.56131 C92.9800492,113.516835 89.5501058,105.099183 88.8212428,96.524324 C92.5513062,105.099183 96.9673584,118.132967 105.585091,125.407306 C102.821663,121.13787 102.700033,115.675583 105.27068,111.287372 C106.441682,109.283422 106.975043,106.970533 106.799863,104.656148 Z" id="Path" fill="#FFCD00" fill-rule="nonzero"></path>
                <path d="M110.487052,154.347453 C112.630767,154.204539 114.774481,153.990167 116.889613,153.704339 C118.332639,153.754054 119.691759,154.394856 120.648259,155.476476 C122.658587,155.123954 124.659388,154.709503 126.65066,154.233122 C124.921397,151.832161 120.934088,149.331161 118.075802,149.445492 C116.775282,149.645573 115.46047,149.802778 114.15995,149.945693 C112.902304,151.489167 111.716115,152.91831 110.487052,154.347453 Z" id="Path" fill="#FFCD00" fill-rule="nonzero"></path>
                <path d="M120.762591,160.221231 C119.899987,161.619031 118.575246,162.670734 117.018236,163.193849 C112.280884,163.819224 107.504947,164.10578 102.726805,164.051335 C102.726805,165.409021 102.726805,166.780998 102.726805,168.138684 C107.894797,168.212729 113.060559,167.878221 118.175842,167.138284 C121.177042,166.609501 125.207226,162.30778 126.836449,158.977877 C124.807066,159.463786 122.782446,159.878237 120.762591,160.221231 Z" id="Path" fill="#FFCD00" fill-rule="nonzero"></path>
                <path d="M96.3099526,147.044532 C96.3099526,147.730521 96.3099526,148.473675 96.3099526,149.11679 C98.0106328,149.259704 99.7113131,149.345452 101.411993,149.402618 L101.411993,147.316069 C101.749723,145.666802 102.705991,144.209387 104.084491,143.243011 C101.640656,143.243011 99.1968216,143.157263 96.7672783,142.971474 C95.3783071,143.832602 94.4062118,145.228697 94.0804893,146.830161 C94.8093523,146.915909 95.5667981,146.987366 96.3099526,147.044532 Z" id="Path" fill="#FFCD00" fill-rule="nonzero"></path>
                <path d="M101.354828,162.750815 C102.526725,161.478877 103.698622,160.192648 104.856228,158.877837 C105.494579,160.249814 106.137693,161.6075 106.785571,162.950895 C108.657749,162.950895 110.529926,162.793689 112.387812,162.636483 C111.173041,159.978277 109.943978,157.305779 108.743497,154.604699 C110.972961,152.032241 113.202424,149.388327 115.389013,146.672955 L117.275482,146.430001 C116.948972,144.847063 115.967643,143.476317 114.574401,142.657063 C112.144858,142.9286 109.686732,143.114389 107.242897,143.185846 C108.628778,144.119351 109.589421,145.562884 109.915395,147.201738 L109.915395,147.201738 C107.057109,150.574516 104.198822,153.81867 101.340536,156.934202 L101.340536,155.662265 C99.6255645,155.662265 97.9105928,155.519351 96.2099125,155.390728 L96.0812897,171.211342 L93.8947007,171.011262 L93.8947007,171.011262 C94.2447912,172.717316 95.1988277,174.239715 96.5814897,175.298691 C99.0681987,175.48448 101.540616,175.570228 104.027325,175.570228 C102.640237,174.609583 101.677691,173.150404 101.340536,171.49717 C101.340536,168.638884 101.354828,165.651975 101.354828,162.750815 Z" id="Path" fill="#FFCD00" fill-rule="nonzero"></path>
                <path d="M115.174641,168.638884 C113.373921,168.838964 111.544618,168.99617 109.729606,169.110501 C110.086892,169.839364 110.458469,170.539644 110.815755,171.311382 L110.815755,171.311382 C110.483841,173.031874 109.513912,174.563341 108.100383,175.598811 C110.472761,175.513062 112.845138,175.327274 115.246098,175.055737 C116.889613,173.497971 118.104385,171.825873 118.104385,170.582519 L116.303664,170.825473 L115.174641,168.638884 Z" id="Path" fill="#FFCD00" fill-rule="nonzero"></path>
                <path d="M93.3802092,153.947293 C96.2384954,154.261705 99.0967816,154.447493 101.955068,154.504659 C103.155548,153.189847 104.356028,151.860744 105.556508,150.503058 C101.004556,150.565257 96.4537597,150.31217 91.9367747,149.745613 C89.3929,149.745613 86.1058709,151.674956 84.1622363,153.775796 C83.2094743,154.728558 82.2567122,155.68132 81.3039502,156.634082 C82.1328531,157.948894 82.9760476,159.235123 83.819242,160.521351 C85.7485851,163.665466 89.3786086,167.138284 92.079689,167.452695 C92.9943406,167.567027 93.8947007,167.667067 94.8093523,167.752815 L94.8093523,163.679758 L93.1944206,163.50826 C91.0935803,163.293889 87.9208826,159.6067 87.9494655,158.00606 C87.9780484,156.405419 91.2936603,153.732922 93.3802092,153.947293 Z" id="Path" fill="#FFCD00" fill-rule="nonzero"></path>
                <path d="M158.120391,117.46127 C158.549134,107.585891 158.120391,102.240896 156.333962,96.0241239 C155.70229,93.7381779 154.739314,91.5570382 153.475676,89.5501058 C150.71743,85.2626765 146.501458,81.0467044 145.443892,79.2888584 C144.604906,77.8657299 144.220941,76.220164 144.343452,74.5726862 C143.527494,76.3525975 142.946209,78.2309638 142.614189,80.1606357 C142.347618,82.4618751 142.651936,84.7933487 143.500257,86.9490653 C144.087872,88.6919887 145.188871,90.2164486 146.658663,91.3222432 C146.658663,91.3222432 147.058824,88.463957 144.986566,83.1761276 C146.915281,85.4471613 148.207306,88.1890139 148.730921,91.1221632 C149.088207,93.6517464 149.945693,103.912994 154.81907,102.941176 C155.065212,105.558369 155.136827,108.189047 155.033442,110.815755 C148.016349,115.517636 145.115189,124.163951 149.574115,130.823758 C147.795317,124.832096 150.066596,118.375666 155.204939,114.817356 C154.41891,129.537529 156.762705,141.385125 164.508661,145.472475 C159.792488,140.198937 157.620191,128.808666 158.120391,117.46127 Z" id="Path" fill="#FFCD00" fill-rule="nonzero"></path>
                <path d="M32.5987538,145.32956 C32.5987538,145.32956 32.2986337,132.13857 36.5003144,126.15046 C40.7019951,120.162351 49.0053164,115.917796 53.4213685,114.903104 C58.2661636,113.802664 53.4213685,120.233808 53.5642829,123.94958 C53.6643229,126.036129 56.2367804,126.893615 57.9517521,128.837249 C61.696107,133.124678 60.2240896,136.34025 55.6222489,138.841251 C58.9950266,144.557823 58.2232893,148.173555 54.0501915,149.474075 C54.6504316,154.261705 55.593666,155.633682 52.2494712,157.262905 C47.9048762,159.378037 32.5987538,145.32956 32.5987538,145.32956 Z" id="Path" fill="#FFCD00" fill-rule="nonzero"></path>
                <path d="M51.1347396,112.645058 C51.1347396,112.645058 51.7921454,101.683531 59.638141,95.2095124 C54.8933859,104.941977 54.8933859,111.816155 54.8933859,111.816155 C53.6009113,111.864647 52.3277232,112.145426 51.1347396,112.645058 L51.1347396,112.645058 Z" id="Path" fill="#FFCD00" fill-rule="nonzero"></path>
                <path d="M113.288172,72.7148002 C112.673641,70.4567541 111.773281,67.4412622 110.744298,64.7544732 C109.715315,62.0676842 103.770079,61.0244098 100.740296,60.7528726 C103.455668,60.4384611 106.928486,59.0521923 106.656948,54.1788144 C106.333696,51.9684851 105.778015,49.7984547 104.999143,47.7047962 C104.485098,45.2491134 104.812302,42.6918911 105.928086,40.4447493 C103.247598,41.8020956 101.283605,44.2505753 100.540216,47.1617218 C100.394547,46.486042 100.351189,45.7923152 100.411593,45.1037558 C100.517536,44.4533384 100.719839,43.8223458 101.011833,43.2315783 C99.7282502,43.8256193 98.5802923,44.6768592 97.6390556,45.7325787 C96.3176208,47.4449651 95.3155059,49.381419 94.6807294,51.4491511 C91.9966564,47.5643739 90.565386,42.9513943 90.5790888,38.2295775 C90.5790888,36.0001143 91.2650775,33.9421483 91.2222032,32.0556794 C87.1606691,28.922977 84.2834248,24.5038118 83.0617961,19.5220946 C83.0617961,19.5220946 86.5346138,25.6959927 90.850626,28.5399874 C90.045552,24.7669553 88.3281319,21.2486976 85.8486252,18.2930315 C83.090379,14.8630881 81.0181215,12.0333848 79.8033499,10.1326245 C77.1880181,6.04527525 75.2872578,9.6324244 76.9450637,13.8912708 C78.2455839,17.2926313 87.0776882,39.6158463 90.5362145,48.3193277 C91.150746,49.8770937 91.8510261,51.6492311 90.6648374,52.8497113 L84.4623564,59.1951066 L84.7624764,59.1951066 L84.7624764,59.1951066 C89.1415991,60.4039137 93.6680139,60.9955705 98.2107129,60.9529526 C96.9847239,61.3235556 95.8667147,61.9855348 94.9522666,62.8822958 C94.0814131,63.7405272 93.514403,64.859494 93.3373349,66.0692849 C91.6066502,64.2557517 89.2129025,63.223964 86.706111,63.2109987 C86.706111,64.3114389 85.9629566,80.8037501 86.706111,84.219402 C87.1777282,86.405991 89.3071514,88.1781284 91.3222432,89.6215629 C93.1252552,90.8739216 94.3666081,92.7821169 94.7807695,94.9379752 C94.9713808,96.2577297 95.9066542,97.3488819 97.1817298,97.7390956 C98.7252044,98.1678386 105.084891,98.18213 105.084891,95.6096724 C105.195462,93.2043068 105.166831,90.7945595 104.999143,88.3924999 C104.87052,87.635054 103.870119,86.9633568 103.241297,86.5203224 C101.807383,85.5144278 100.318788,84.5888275 98.7823701,83.7477848 C98.169249,83.3019216 97.4590123,83.0080305 96.7101126,82.890299 C95.0094323,83.0475047 95.2809695,86.7346939 95.2809695,86.7346939 C94.2656157,85.3568714 93.7240766,83.6871257 93.737495,81.9756474 C93.7700675,80.9862386 94.0034573,80.0137811 94.4234837,79.1173612 L94.8093523,78.3170411 C95.8976827,76.2544116 97.2369525,74.3343116 98.7966615,72.6004688 C98.7966615,72.6004688 97.4961413,76.1876179 99.1682387,77.0308123 L106.028126,79.6318527 C106.028126,79.6318527 109.515235,78.2741668 112.630767,77.1165609 C114.045618,76.6306523 113.616875,74.0439033 113.288172,72.7148002 Z" id="Path" fill="#FFCD00" fill-rule="nonzero"></path>
                <path d="M120.834048,22.5518779 C117.737834,24.6318698 115.192593,27.4321254 113.416795,30.7122849 C112.648794,32.3744215 112.059538,34.1134425 111.658949,35.9000743 C113.444824,35.8235596 115.21527,36.259972 116.76099,37.1577202 C116.844472,37.2458996 116.844472,37.3839524 116.76099,37.4721317 C115.603384,39.0584805 114.86023,40.2160864 115.832047,41.9167667 C116.437497,43.311511 116.953043,44.7435822 117.375522,46.204196 C119.919396,41.9167667 118.618876,35.5427885 118.290173,31.6555194 C118.27319,28.4432025 119.154286,25.290065 120.834048,22.5518779 Z" id="Path" fill="#FFCD00" fill-rule="nonzero"></path>
                <path d="M107.543017,131.695535 C107.543017,130.852341 106.113874,130.380724 106.113874,130.380724 C106.113874,130.380724 104.684731,130.852341 104.684731,131.695535 L104.684731,135.568513 C104.684731,136.411708 106.113874,136.897616 106.113874,136.897616 C106.113874,136.897616 107.543017,136.411708 107.543017,135.568513 L107.543017,131.695535 Z" id="Path" fill="#FFCD00" fill-rule="nonzero"></path>
                <path d="M102.998342,131.566912 C103.126965,130.738009 101.812153,130.037729 101.812153,130.037729 C101.812153,130.037729 100.38301,130.309267 100.197222,131.13817 L99.5826902,134.953982 C99.4540673,135.782885 100.768879,136.483165 100.768879,136.483165 C100.768879,136.483165 102.198022,136.211628 102.383811,135.382725 L102.998342,131.566912 Z" id="Path" fill="#FFCD00" fill-rule="nonzero"></path>
                <path d="M98.5251243,130.738009 C98.7966615,129.937689 97.5961813,129.051621 97.5961813,129.051621 C97.5961813,129.051621 96.0955811,129.051621 95.8240439,129.894815 L94.6235637,133.582004 C94.3520265,134.382324 95.5525067,135.268393 95.5525067,135.268393 C95.5525067,135.268393 96.9816498,135.268393 97.3246441,134.425199 L98.5251243,130.738009 Z" id="Path" fill="#FFCD00" fill-rule="nonzero"></path>
                <path d="M94.3234437,129.251701 C94.7093123,128.494255 93.6660378,127.436689 93.6660378,127.436689 C93.6660378,127.436689 92.2368948,127.2509 91.779569,128.008346 L89.9359744,131.481164 C89.5501058,132.23861 90.5933802,133.296176 90.5933802,133.296176 C90.5933802,133.296176 92.0225233,133.481964 92.4655577,132.73881 L94.3234437,129.251701 Z" id="Path" fill="#FFCD00" fill-rule="nonzero"></path>
                <path d="M90.2503859,127.193735 C90.7505859,126.522037 89.8931001,125.321557 89.8931001,125.321557 C89.8931001,125.321557 88.463957,124.907106 87.9494655,125.578803 L85.6485451,128.622878 C85.1483451,129.308866 86.0058309,130.509347 86.0058309,130.509347 C86.0058309,130.509347 87.434974,130.923798 87.9494655,130.252101 L90.2503859,127.193735 Z" id="Path" fill="#FFCD00" fill-rule="nonzero"></path>
                <path d="M86.6489453,124.435488 C87.2491854,123.835248 86.5774881,122.506145 86.5774881,122.506145 C86.5774881,122.506145 85.2198022,121.877322 84.6195621,122.506145 L81.8470245,125.264391 C81.2467844,125.864632 81.8470245,127.193735 81.8470245,127.193735 C81.8470245,127.193735 83.2047105,127.822558 83.8049506,127.193735 L86.6489453,124.435488 Z" id="Path" fill="#FFCD00" fill-rule="nonzero"></path>
                <path d="M83.5048305,121.219917 C84.1908192,120.719716 83.7477848,119.304865 83.7477848,119.304865 C83.7477848,119.304865 82.5044303,118.490253 81.8184417,118.990453 L78.6028697,121.291374 C77.916881,121.791574 78.3599154,123.192134 78.3599154,123.192134 C78.3599154,123.192134 79.6032699,124.021037 80.2892586,123.520837 L83.5048305,121.219917 Z" id="Path" fill="#FFCD00" fill-rule="nonzero"></path>
                <path d="M80.9037901,117.56131 C81.6755274,117.189733 81.4611559,115.76059 81.4611559,115.76059 C81.4611559,115.76059 80.3607157,114.76019 79.6032699,115.146058 L76.0875779,116.903904 C75.3301321,117.289773 75.5445035,118.747499 75.5445035,118.747499 C75.5445035,118.747499 76.6449437,119.747899 77.4023895,119.362031 L80.9037901,117.56131 Z" id="Path" fill="#FFCD00" fill-rule="nonzero"></path>
                <path d="M78.9172812,113.55971 C79.7318928,113.288172 79.7461842,111.816155 79.7461842,111.816155 C79.7461842,111.816155 78.8315326,110.658549 78.0169211,110.930086 L74.3154405,112.173441 C73.5008289,112.444978 73.4865375,113.916995 73.4865375,113.916995 C73.4865375,113.916995 74.401189,115.074601 75.2158006,114.803064 L78.9172812,113.55971 Z" id="Path" fill="#FFCD00" fill-rule="nonzero"></path>
                <path d="M77.6024696,109.300863 C78.445664,109.157949 78.6886183,107.714514 78.6886183,107.714514 C78.6886183,107.714514 77.9597553,106.428286 77.1165609,106.5712 L73.2150003,107.185731 C72.3718059,107.328646 72.1288515,108.786372 72.1288515,108.786372 C72.1288515,108.786372 72.8577145,110.0726 73.7009089,109.929686 L77.6024696,109.300863 Z" id="Path" fill="#FFCD00" fill-rule="nonzero"></path>
                <path d="M76.9593552,104.899102 C77.816841,104.899102 78.2884582,103.469959 78.2884582,103.469959 C78.2884582,103.469959 77.7739667,102.040816 76.8593152,102.040816 L72.9005888,102.112273 C72.043103,102.112273 71.5714857,103.541417 71.5714857,103.541417 C71.5714857,103.541417 72.0859772,104.97056 73.0006288,104.97056 L76.9593552,104.899102 Z" id="Path" fill="#FFCD00" fill-rule="nonzero"></path>
                <path d="M77.0308123,100.454468 C77.8740067,100.568799 78.5599954,99.2682787 78.5599954,99.2682787 C78.5599954,99.2682787 78.2741668,97.8391357 77.416681,97.7105128 L73.8438232,97.1817298 C72.9863374,97.0673984 72.3003487,98.38221 72.3003487,98.38221 C72.3003487,98.38221 72.5861773,99.8113531 73.4436632,99.939976 L77.0308123,100.454468 Z" id="Path" fill="#FFCD00" fill-rule="nonzero"></path>
                <path d="M77.7882582,96.0812897 C78.6171612,96.324244 79.5032299,95.1380552 79.5032299,95.1380552 C79.5032299,95.1380552 79.5032299,93.7089121 78.6171612,93.4230835 L76.0447036,92.6370548 C75.2158006,92.3941005 74.3297319,93.5802893 74.3297319,93.5802893 C74.3297319,93.5802893 74.401189,95.0094323 75.2158006,95.2809695 L77.7882582,96.0812897 Z" id="Path" fill="#FFCD00" fill-rule="nonzero"></path>
                <path d="M78.9029898,91.7224032 C79.674727,92.079689 80.7465843,91.050706 80.7465843,91.050706 C80.7465843,91.050706 80.9180815,89.6215629 80.1463443,89.2214028 L79.0887784,88.6926199 C78.3170411,88.3210427 77.2451838,89.3643172 77.2451838,89.3643172 C77.2451838,89.3643172 77.0736866,90.7934602 77.8454239,91.1936203 L78.9029898,91.7224032 Z" id="Path" fill="#FFCD00" fill-rule="nonzero"></path>
                <path d="M109.243697,131.481164 C109.100783,130.652261 110.429886,129.951981 110.429886,129.951981 C110.429886,129.951981 111.859029,130.209227 112.044818,131.03813 L112.687932,134.853942 C112.902304,135.768593 111.473161,136.411708 111.473161,136.411708 C111.473161,136.411708 110.044018,136.168753 109.858229,135.33985 L109.243697,131.481164 Z" id="Path" fill="#FFCD00" fill-rule="nonzero"></path>
                <path d="M113.702624,130.666552 C113.431087,129.866232 114.631567,128.965872 114.631567,128.965872 C114.631567,128.965872 116.132167,128.965872 116.403704,129.794775 L117.632767,133.467673 C117.904305,134.267993 116.718116,135.154062 116.718116,135.154062 C116.718116,135.154062 115.288973,135.154062 114.945978,134.33945 L113.702624,130.666552 Z" id="Path" fill="#FFCD00" fill-rule="nonzero"></path>
                <path d="M167.209741,100.397302 C167.09541,99.5683988 165.780598,99.4540673 165.780598,99.4540673 C165.780598,99.4540673 164.537243,100.297262 164.637283,101.126165 C164.637283,101.28337 166.295089,113.445378 166.395129,113.616875 C166.523752,114.445778 168.038644,114.545818 168.038644,114.545818 C168.038644,114.545818 169.39633,113.702624 169.239124,112.888012 C169.053336,112.716515 167.109701,100.554508 167.209741,100.397302 Z" id="Path" fill="#FFCD00" fill-rule="nonzero"></path>
                <path d="M162.922312,102.741096 C162.836563,101.912193 161.493169,101.797862 161.493169,101.797862 C161.493169,101.797862 160.192648,102.641056 160.264106,103.469959 C160.264106,103.641457 161.578917,115.789173 161.693249,115.96067 C161.80758,116.789573 163.351055,116.889613 163.351055,116.889613 C163.351055,116.889613 164.780198,116.06071 164.622992,115.231807 C164.451495,115.06031 162.922312,102.898302 162.922312,102.741096 Z" id="Path" fill="#FFCD00" fill-rule="nonzero"></path>
                <path d="M24.9385468,132.281484 C24.4097639,131.552621 23.052078,132.081404 23.052078,132.081404 C23.052078,132.081404 22.2946321,133.510547 22.8234151,134.225119 C22.8234151,134.468073 28.2541588,141.499457 28.4113645,141.542331 C28.9687303,142.22832 30.2978334,141.542331 30.2978334,141.542331 C30.2978334,141.542331 30.9838221,140.113188 30.4407477,139.498657 C30.2978334,139.512948 25.010004,132.524438 24.9385468,132.281484 Z" id="Path" fill="#FFCD00" fill-rule="nonzero"></path>
                <path d="M24.8670897,124.121077 C24.381181,123.34934 22.9949123,123.778083 22.9949123,123.778083 C22.9949123,123.778083 22.1803007,125.207226 22.6805008,125.907506 C22.6805008,126.179043 28.5828617,134.696736 28.7400675,134.711027 C29.2831418,135.411307 30.6265363,134.853942 30.6265363,134.868233 C30.6265363,134.882524 31.3696907,133.53913 30.8551992,132.853141 C30.6979935,132.910307 24.909964,124.335448 24.8670897,124.121077 Z" id="Path" fill="#FFCD00" fill-rule="nonzero"></path>
                <path d="M26.6249357,118.233007 C26.1676099,117.446979 24.7670497,117.804265 24.7670497,117.804265 C24.7670497,117.804265 23.9095638,119.090493 24.381181,119.890813 C24.381181,120.148059 29.8119248,128.465672 29.9691305,128.565712 C30.4693306,129.280284 31.841308,128.808666 31.841308,128.808666 C31.841308,128.808666 32.6273366,127.55102 32.1271366,126.836449 C31.9699308,126.807866 26.66781,118.504545 26.6249357,118.233007 Z" id="Path" fill="#FFCD00" fill-rule="nonzero"></path>
                <path d="M30.4979135,115.431887 C30.0548791,114.66015 28.6543189,114.96027 28.6543189,114.96027 C28.6543189,114.96027 27.7682502,116.175041 28.2398674,116.96107 C28.2398674,117.175442 32.1557194,123.54942 32.2843423,123.635168 C32.770251,124.34974 34.1565198,123.94958 34.1565198,123.963871 C34.1565198,123.978163 34.9711313,122.7491 34.4995141,122.034528 C34.3708912,121.963071 30.5693706,115.646259 30.4979135,115.431887 Z" id="Path" fill="#FFCD00" fill-rule="nonzero"></path>
                <path d="M56.1796147,121.805865 C57.1800149,118.947579 59.2379809,116.518036 57.1371406,113.316755 C63.7969474,114.202824 64.7830561,124.635569 64.7830561,124.635569 C62.4707616,124.549058 60.1559603,124.716797 57.880295,125.135769 C55.2363803,125.55022 55.7365803,122.906305 56.1796147,121.805865 Z" id="Path" fill="#3D7CC9" fill-rule="nonzero"></path>
                <path d="M117.975762,129.137369 C117.589893,128.394215 118.618876,127.322358 118.618876,127.322358 C118.618876,127.322358 120.048019,127.122277 120.505345,127.879723 L122.306065,131.323958 C122.691934,132.067113 121.662951,133.124678 121.662951,133.124678 C121.662951,133.124678 120.233808,133.33905 119.776482,132.581604 L117.975762,129.137369 Z" id="Path" fill="#3D7CC9" fill-rule="nonzero"></path>
                <path d="M121.94878,126.993655 C121.448579,126.307666 122.306065,125.107186 122.306065,125.107186 C122.306065,125.107186 123.735208,124.678443 124.2497,125.364431 L126.579203,128.494255 C127.079403,129.165952 126.221917,130.380724 126.221917,130.380724 C126.221917,130.380724 124.792774,130.795175 124.278283,130.123478 L121.94878,126.993655 Z" id="Path" fill="#3D7CC9" fill-rule="nonzero"></path>
                <path d="M125.55022,124.335448 C124.935689,123.735208 125.55022,122.420397 125.55022,122.420397 C125.55022,122.420397 126.979363,121.777282 127.508146,122.420397 L130.366432,125.164351 C130.966672,125.7503 130.366432,127.079403 130.366432,127.079403 C130.366432,127.079403 129.023038,127.708226 128.408506,127.079403 L125.55022,124.335448 Z" id="Path" fill="#3D7CC9" fill-rule="nonzero"></path>
                <path d="M128.622878,121.034128 C127.922598,120.533928 128.365632,119.119076 128.365632,119.119076 C128.365632,119.119076 129.594695,118.290173 130.294975,118.790373 L133.481964,121.062711 C134.182244,121.562911 133.73921,122.977763 133.73921,122.977763 C133.73921,122.977763 132.510147,123.806666 131.809867,123.306465 L128.622878,121.034128 Z" id="Path" fill="#3D7CC9" fill-rule="nonzero"></path>
                <path d="M131.223918,117.36123 C130.466472,116.975362 130.680844,115.517636 130.680844,115.517636 C130.680844,115.517636 131.766993,114.502944 132.524438,114.888813 L136.04013,116.66095 C136.811868,117.046819 136.597496,118.504545 136.597496,118.504545 C136.597496,118.504545 135.511347,119.519236 134.753902,119.133368 L131.223918,117.36123 Z" id="Path" fill="#3D7CC9" fill-rule="nonzero"></path>
                <path d="M133.181844,113.345338 C132.367233,113.073801 132.33865,111.616075 132.33865,111.616075 C132.33865,111.616075 133.267593,110.444178 134.082204,110.701423 L137.826559,111.930486 C138.641171,112.187732 138.669754,113.65975 138.669754,113.65975 C138.669754,113.65975 137.755102,114.817356 136.94049,114.56011 L133.181844,113.345338 Z" id="Path" fill="#3D7CC9" fill-rule="nonzero"></path>
                <path d="M134.482364,109.086492 C133.63917,108.943577 133.381924,107.500143 133.381924,107.500143 C133.381924,107.500143 134.096496,106.199623 134.93969,106.342537 L138.512548,106.928486 C139.355742,107.0714 139.612988,108.514835 139.612988,108.514835 C139.612988,108.514835 138.898417,109.815355 138.040931,109.67244 L134.482364,109.086492 Z" id="Path" fill="#3D7CC9" fill-rule="nonzero"></path>
                <path d="M135.082604,104.67044 C134.225119,104.67044 133.73921,103.241297 133.73921,103.241297 C133.73921,103.241297 134.253701,101.812153 135.168353,101.812153 L137.869433,101.812153 C138.726919,101.812153 139.212828,103.241297 139.212828,103.241297 C139.212828,103.241297 138.698336,104.67044 137.783685,104.67044 L135.082604,104.67044 Z" id="Path" fill="#3D7CC9" fill-rule="nonzero"></path>
                <path d="M135.354142,100.197222 C134.510947,100.311553 133.810667,99.011033 133.810667,99.011033 C133.810667,99.011033 134.082204,97.5818899 134.93969,97.4389756 C135.111187,97.4389756 135.94009,97.2674784 136.111587,97.2388956 C136.954782,97.1245641 137.655062,98.4250843 137.655062,98.4250843 C137.655062,98.4250843 137.369233,99.8542274 136.526039,99.9971417 C136.354542,100.040016 135.525639,100.168639 135.354142,100.197222 Z" id="Path" fill="#3D7CC9" fill-rule="nonzero"></path>
                <path d="M184.045047,96.524324 C183.830675,95.695421 182.501572,95.5810896 182.501572,95.5810896 C182.501572,95.5810896 181.415423,96.424284 181.615503,97.253187 C181.615503,97.4103927 184.87395,109.5724 184.988281,109.729606 C185.216944,110.558509 186.717544,110.672841 186.717544,110.672841 C186.717544,110.672841 187.918024,109.829646 187.660779,109.000743 C187.546447,108.843537 184.030755,96.6815298 184.045047,96.524324 Z" id="Path" fill="#3D7CC9" fill-rule="nonzero"></path>
                <path d="M179.757617,96.7529869 C179.571829,95.9383754 178.242726,95.8240439 178.242726,95.8240439 C178.242726,95.8240439 177.113703,96.6672383 177.2852,97.4818499 C177.2852,97.6533471 180.143486,109.815355 180.229235,109.97256 C180.443606,110.801463 181.929915,110.915795 181.929915,110.915795 C181.929915,110.915795 183.158978,110.0726 182.944606,109.243697 C182.830275,109.086492 179.729034,96.9244841 179.757617,96.7529869 Z" id="Path" fill="#3D7CC9" fill-rule="nonzero"></path>
                <path d="M175.541645,97.453267 C175.370148,96.6386555 174.112502,96.524324 174.112502,96.524324 C174.112502,96.524324 172.954896,97.3675184 173.097811,98.1964214 C173.097811,98.3536272 175.527354,110.515635 175.627394,110.672841 C175.813182,111.501744 177.299491,111.616075 177.299491,111.616075 C177.299491,111.616075 178.571429,110.772881 178.371349,109.943978 C178.199851,109.786772 175.498771,97.6247642 175.541645,97.453267 Z" id="Path" fill="#3D7CC9" fill-rule="nonzero"></path>
                <path d="M171.325673,98.5108329 C171.182759,97.6962213 169.89653,97.5818899 169.89653,97.5818899 C169.89653,97.5818899 168.69605,98.4250843 168.810381,99.2396959 C168.810381,99.411193 170.839764,111.573201 170.939804,111.730406 C171.09701,112.559309 172.59761,112.673641 172.59761,112.673641 C172.59761,112.673641 173.912422,111.830446 173.726634,111.001543 C173.583719,110.844338 171.282799,98.6823301 171.325673,98.5108329 Z" id="Path" fill="#3D7CC9" fill-rule="nonzero"></path>
                <path d="M34.9139656,114.331447 C34.4709312,113.574001 33.070371,113.831247 33.070371,113.831247 C33.070371,113.831247 32.1843023,114.988853 32.6416281,115.76059 C32.7130852,115.946379 35.4999143,120.419596 35.5713714,120.519636 C36.0572801,121.248499 37.4435488,120.905505 37.4435488,120.905505 C37.4435488,120.905505 38.2867433,119.762191 37.8151261,119.047619 C37.7007946,118.876122 34.9854227,114.431487 34.9139656,114.331447 Z" id="Path" fill="#3D7CC9" fill-rule="nonzero"></path>
                <path d="M40.0874636,114.617275 C39.6301378,113.902704 38.2295775,114.131367 38.2295775,114.131367 C38.2295775,114.131367 37.3435088,115.231807 37.8008346,115.96067 C37.9008746,116.117876 38.9155662,117.732807 39.0156062,117.875722 C39.472932,118.590293 40.8734923,118.290173 40.8734923,118.304465 C40.8734923,118.318756 41.7309781,117.218316 41.2736523,116.518036 C41.1736123,116.375121 40.1732121,114.774481 40.0874636,114.617275 Z" id="Path" fill="#3D7CC9" fill-rule="nonzero"></path>
                <path d="M152.132281,73.2578746 C152.546733,69.6993083 155.290688,63.8969874 161.250214,67.1983079 C161.250214,67.1983079 163.822672,62.4821357 166.409421,62.9108786 C168.99617,63.3396216 171.082719,65.2689647 173.455096,70.0565941 C176.973984,77.5623297 180.084528,85.2528139 182.773109,93.0943806 C178.791304,93.2249828 174.834438,93.7758782 170.968387,94.7378952 C166.983912,95.9322694 163.201943,97.7196713 159.749614,100.040016 C158.884601,95.9452603 157.440971,91.9945256 155.462185,88.3067513 C153.204139,84.019322 148.859544,81.0895787 147.273195,77.3309324 C145.686846,73.5722861 147.201738,70.785457 152.132281,73.2578746 Z" id="Path" fill="#3D7CC9" fill-rule="nonzero"></path>
                <path d="M59.109358,127.193735 C59.109358,127.193735 65.8977877,125.764592 67.8557137,126.364832 C69.8136397,126.965072 72.4861373,131.181044 70.1709255,133.510547 C68.348207,135.148159 66.2792497,136.488882 64.0399017,137.483565 C64.0399017,137.483565 64.8402218,138.912708 69.2991482,136.568913 C70.5567941,139.770194 69.2991482,143.714629 61.2530727,147.058824 C63.0901982,147.261655 64.9478757,146.960277 66.6266507,146.187046 C66.6266507,146.187046 68.2415823,150.174355 61.295947,153.91871 C58.2661636,155.533642 56.7941462,156.176756 56.7941462,156.176756 C57.0314099,154.255384 56.8510396,152.305434 56.2653633,150.460184 C58.2661636,149.374035 62.1391414,146.558623 58.4805351,139.427199 C60.8100383,137.111988 65.4976276,134.03933 59.109358,127.193735 Z" id="Path" fill="#3D7CC9" fill-rule="nonzero"></path>
                <path d="M100.254387,100.968959 C100.254387,100.968959 104.541817,100.668839 106.128166,99.1396559 C107.428686,100.568799 112.459269,100.868919 112.459269,100.868919 C112.459269,100.868919 112.130567,102.097982 106.185331,102.097982 C100.240096,102.097982 100.254387,100.968959 100.254387,100.968959 Z" id="Path" fill="#3D7CC9" fill-rule="nonzero"></path>
                <path d="M119.019036,67.269765 C118.284036,66.2916941 117.461243,65.3827951 116.56091,64.5543932 C114.545818,62.9966272 112.845138,63.9112788 113.130967,65.8692048 C113.702624,69.7421826 114.945978,72.7005088 117.418396,78.6314526 C117.944487,79.6786396 118.255489,80.8205984 118.333048,81.9899388 C118.347537,83.6993307 117.811364,85.3679803 116.803864,86.7489853 C116.803864,86.7489853 117.103984,83.0617961 115.374721,82.9045904 C114.631471,83.0181125 113.925986,83.3071653 113.316755,83.7477848 C111.776079,84.5894248 110.28276,85.5149962 108.843537,86.5203224 C108.214714,86.9633568 107.228606,87.635054 107.099983,88.3924999 C106.988059,90.7978423 107.016691,93.2076682 107.185731,95.6096724 C107.185731,98.18213 113.545418,98.1678386 115.088893,97.7390956 C116.345022,97.4521608 117.290808,96.4152143 117.46127,95.1380552 C117.896617,92.9523753 119.135816,91.009433 120.934088,89.6930201 C122.963471,88.263877 125.078603,86.4774481 125.55022,84.2908592 C126.279083,80.9323729 125.55022,64.9545532 125.55022,63.3682044 L119.019036,67.269765 Z" id="Path" fill="#3D7CC9" fill-rule="nonzero"></path>
                <path d="M32.0699708,91.5794889 C36.3524646,93.2805721 39.7440663,96.6721738 41.4451495,100.954668 C43.9032756,107.442977 43.1601212,116.46087 43.1601212,116.46087 C44.2849567,115.764817 45.4440208,115.125662 46.6329389,114.545818 C47.1056722,109.656576 46.3949115,104.725367 44.5606814,100.168639 C42.5350574,95.0288284 37.5942912,91.631345 32.0699708,91.5794889 L32.0699708,91.5794889 Z" id="Path" fill="#3D7CC9" fill-rule="nonzero"></path>
                <path d="M123.420797,96.524324 C122.634768,105.099183 119.133368,113.502544 117.704225,117.56131 C116.275081,121.620077 120.048019,122.691934 125.85034,117.818556 C129.971373,113.603745 131.967299,107.752529 131.281084,101.897902 L128.337049,85.5627965 C127.365232,90.5219231 122.620477,90.221803 120.691134,94.2234036 C119.462071,96.7958612 118.190133,99.7827703 115.074601,100.897502 C114.938727,103.01437 113.179929,104.660504 111.058709,104.656148 L108.614875,104.656148 C108.882343,107.475666 108.159753,110.300336 106.5712,112.645058 C102.955468,118.36163 106.5712,125.407306 106.5712,125.407306 C115.26039,118.132967 119.676442,105.099183 123.420797,96.524324 Z" id="Path" fill="#3D7CC9" fill-rule="nonzero"></path>
                <path d="M93.7089121,31.6126451 C93.3373349,36.0715715 92.0368147,41.2021952 94.6235637,46.1613217 C95.7179411,43.3036001 98.0787289,41.1170986 101.011833,40.2446693 C100.891509,36.9434959 100.103946,33.7008735 98.6966215,30.7122849 C96.9208236,27.4321254 94.3755824,24.6318698 91.2793689,22.5518779 C91.2793689,22.5518779 94.0804893,27.2394672 93.7089121,31.6126451 Z" id="Path" fill="#3D7CC9" fill-rule="nonzero"></path>
                <path d="M135.196936,13.7912308 C136.826159,9.50380152 134.93969,5.94523524 132.33865,10.0325845 C131.123878,11.9333448 129.051621,14.7630481 126.293374,18.1929915 C123.80843,21.1451222 122.090315,24.6648028 121.291374,28.4399474 C125.578803,25.5816612 129.080204,19.4220545 129.080204,19.4220545 C127.858575,24.4037718 124.981331,28.822937 120.919796,31.9556394 C120.919796,33.899274 121.477162,35.9000743 121.562911,38.1295375 C121.577471,42.860167 120.124452,47.478869 117.404104,51.3491111 C115.76059,46.2613617 113.902704,44.7035957 112.902304,42.4026754 C112.326609,41.1558742 112.326609,39.719333 112.902304,38.4725319 C109.057909,38.3724919 104.87052,42.1168467 107.057109,48.7194878 C110.115475,57.9231693 106.542617,58.5234094 107.057109,60.3384211 C107.385811,61.4388613 110.644258,61.6246499 114.102784,60.4527525 C118.408747,58.9816018 122.994655,58.5171442 127.508146,59.0950666 C127.508146,59.0950666 125.292974,56.7798548 122.677642,54.1359401 L121.248499,52.706797 C120.233808,51.7349797 120.491054,50.3058366 121.377122,48.1764134 C125.164351,39.5300978 133.882124,17.149717 135.196936,13.7912308 Z" id="Path" fill="#3D7CC9" fill-rule="nonzero"></path>
                <path d="M153.161265,153.447093 C150.109866,148.418038 148.129661,142.813132 147.344652,136.983365 C147.344652,136.983365 144.986566,142.32836 146.858743,146.830161 C148.16348,149.676534 150.381728,152.005443 153.161265,153.447093 L153.161265,153.447093 Z" id="Path" fill="#3D7CC9" fill-rule="nonzero"></path>
                <polygon id="Path" fill="#FFCD00" fill-rule="nonzero" points="151.489167 174.255416 151.489167 169.567827 149.731321 169.567827 149.731321 168.939004 154.01875 168.939004 154.01875 169.567827 152.260904 169.567827 152.260904 174.255416"></polygon>
                <path d="M154.604699,174.255416 L154.604699,168.939004 L155.662265,168.939004 L156.919911,172.711942 L157.177157,173.497971 C157.177157,173.297891 157.334362,173.012062 157.462985,172.640485 L158.734923,168.939004 L159.678157,168.939004 L159.678157,174.255416 L158.992168,174.255416 L158.992168,169.810781 L157.448694,174.255416 L156.819871,174.255416 L155.276396,169.739324 L155.276396,174.255416 L154.604699,174.255416 Z" id="Path" fill="#FFCD00" fill-rule="nonzero"></path>
            </g>
        </g>
    </g>
</svg>