<?xml version="1.0" encoding="UTF-8"?>
<svg width="200px" height="200px" viewBox="0 0 200 200" version="1.1" xmlns="http://www.w3.org/2000/svg" xmlns:xlink="http://www.w3.org/1999/xlink">
    <!-- Generator: Sketch 54.1 (76490) - https://sketchapp.com -->
    <title>kentucky</title>
    <desc>Created with Sketch.</desc>
    <g id="kentucky" stroke="none" stroke-width="1" fill="none" fill-rule="evenodd">
        <g id="kentucky_BGD" transform="translate(0.000000, -0.000000)">
            <g id="kentucky" transform="translate(0.000000, 27.000000)">
                <g id="g10" transform="translate(99.953637, 73.458285) scale(-1, 1) rotate(-180.000000) translate(-99.953637, -73.458285) translate(0.000000, 0.027823)" fill-rule="nonzero">
                    <g id="g12" transform="translate(0.000000, 0.166887)">
                        <path d="M192.764019,10.2932819 C193.761701,10.2932819 194.646263,10.2164951 194.646263,9.16692163 C194.646263,8.04043159 193.10338,8.22905145 191.975888,8.22905145 L190.698187,8.22905145 L190.698187,10.2932819 L192.764019,10.2932819 Z M193.630037,7.0257932 C194.735276,7.06215611 195.844223,7.66565809 195.844223,9.29824348 C195.844223,11.0451282 194.492346,11.4964659 192.990259,11.4964659 L189.496518,11.4964659 L189.496518,3.19513369 L190.698187,3.19513369 L190.698187,7.0257932 L192.239216,7.0257932 L194.360681,3.19513369 L195.732958,3.19513369 L193.630037,7.0257932 Z M192.350482,0.0183981783 C196.484001,0.0183981783 199.753356,3.28580919 199.753356,7.40034419 C199.753356,11.5146567 196.484001,14.7821453 192.350482,14.7821453 C188.218818,14.7821453 184.951502,11.5146567 184.951502,7.40034419 C184.951502,3.28580919 188.218818,0.0183981783 192.350482,0.0183981783 Z M192.350482,13.5830036 C195.732958,13.5830036 198.549833,10.8927414 198.549833,7.40034419 C198.549833,3.92591513 195.732958,1.22159547 192.350482,1.22159547 C188.971715,1.22159547 186.152986,3.92591513 186.152986,7.40034419 C186.152986,10.8927414 188.971715,13.5830036 192.350482,13.5830036 L192.350482,13.5830036 Z" id="path14" fill="#FFFFFF"></path>
                        <path d="M172.630501,6.53308593 L123.771161,6.53308593 L123.771161,19.5618008 L128.655722,19.5618008 L109.11525,39.1030189 L81.4308742,39.1030189 L81.4308742,19.5618008 L91.2018521,19.5618008 L91.2018521,6.53308593 L45.5994425,6.53308593 L45.5994425,19.5618008 L55.3717186,19.5618008 L55.3717186,78.1848987 L45.5994425,78.1848987 L45.5994425,91.2141699 L91.2018521,91.2141699 L91.2018521,78.1848987 L81.4308742,78.1848987 L81.4308742,58.6442369 L109.11525,58.6442369 L128.658689,78.1848987 L123.771161,78.1848987 L123.771161,91.2141699 L172.630501,91.2141699 L172.630501,78.1848987 L159.601665,78.1848987 L131.10097,49.6872041 L161.228554,19.5618008 L172.630501,19.5618008 L172.630501,6.53308593 Z M29.3155301,61.8998395 L16.2860079,74.9285544 L16.2860079,127.041189 L6.51302719,127.041189 L6.51302719,140.067493 L52.1151586,140.067493 L52.1151586,127.041189 L42.3436243,127.041189 L42.3436243,74.9285544 L52.1151586,74.9285544 L52.1151586,61.8998395 L29.3155301,61.8998395 Z M94.4582267,74.9285544 L94.4582267,127.041189 L84.6865069,127.041189 L84.6865069,140.067493 L130.284837,140.067493 L130.284837,127.041189 L120.515157,127.041189 L120.515157,74.9285544 L107.485579,61.8998395 L84.6865069,61.8998395 L84.6865069,74.9285544 L94.4582267,74.9285544 Z M135.986459,49.6872041 L161.228554,74.9285544 L175.886319,74.9285544 L175.886319,94.4712559 L123.771161,94.4712559 L123.771161,123.781692 L133.544735,123.781692 L133.544735,143.324023 L81.4273508,143.324023 L81.4273508,123.781692 L91.2018521,123.781692 L91.2018521,94.4712559 L45.5994425,94.4712559 L45.5994425,123.781692 L55.3717186,123.781692 L55.3717186,143.324023 L3.25646723,143.324023 L3.25646723,123.783361 L13.0266293,123.783361 L13.0295222,123.783361 L13.0295222,73.3025147 L27.6866011,58.6442369 L52.1151586,58.6442369 L52.1151586,22.8170325 L42.3408427,22.8170325 L42.3408427,3.27414561 L94.4582267,3.27414561 L94.4582267,22.8170325 L84.6865069,22.8170325 L84.6865069,35.8466746 L107.485579,35.8466746 L120.515157,22.8170325 L120.518124,22.8170325 L120.518124,3.27414561 L175.886319,3.27414561 L175.886319,22.8170325 L162.858967,22.8170325 L135.986459,49.6872041 L135.986459,49.6872041 Z" id="path16" fill="#3258AF"></path>
                        <polyline id="path18" fill="#FFFFFF" points="52.1151586 74.9285544 42.3436243 74.9285544 42.3436243 127.041189 52.1151586 127.041189 52.1151586 140.067493 6.51302719 140.067493 6.51302719 127.041189 16.2860079 127.041189 16.2860079 74.9285544 29.3155301 61.8998395 52.1151586 61.8998395 52.1151586 74.9285544"></polyline>
                        <polyline id="path20" fill="#FFFFFF" points="84.6865069 61.8998395 107.485579 61.8998395 120.515157 74.9285544 120.515157 127.041189 130.284837 127.041189 130.284837 140.067493 84.6865069 140.067493 84.6865069 127.041189 94.4582267 127.041189 94.4582267 74.9285544 84.6865069 74.9285544 84.6865069 61.8998395"></polyline>
                        <polyline id="path22" fill="#FFFFFF" points="131.10097 49.6872041 159.601665 78.1848987 172.630501 78.1848987 172.630501 91.2141699 123.771161 91.2141699 123.771161 78.1848987 128.658689 78.1848987 109.11525 58.6442369 81.4308742 58.6442369 81.4308742 78.1848987 91.2018521 78.1848987 91.2018521 91.2141699 45.5994425 91.2141699 45.5994425 78.1848987 55.3717186 78.1848987 55.3717186 19.5618008 45.5994425 19.5618008 45.5994425 6.53308593 91.2018521 6.53308593 91.2018521 19.5618008 81.4308742 19.5618008 81.4308742 39.1030189 109.11525 39.1030189 128.655722 19.5618008 123.771161 19.5618008 123.771161 6.53308593 172.630501 6.53308593 172.630501 19.5618008 161.228554 19.5618008 131.10097 49.6872041"></polyline>
                        <path d="M175.886319,3.27414561 L120.518124,3.27414561 L120.518124,22.8170325 L120.515157,22.8170325 L107.485579,35.8466746 L84.6865069,35.8466746 L84.6865069,22.8170325 L94.4582267,22.8170325 L94.4582267,3.27414561 L42.3408427,3.27414561 L42.3408427,22.8170325 L52.1151586,22.8170325 L52.1151586,58.6442369 L27.6866011,58.6442369 L13.0295222,73.3025147 L13.0295222,123.783361 L13.0266293,123.783361 L3.25646723,123.783361 L3.25646723,143.324023 L55.3717186,143.324023 L55.3717186,123.781692 L45.5994425,123.781692 L45.5994425,94.4712559 L91.2018521,94.4712559 L91.2018521,123.781692 L81.4273508,123.781692 L81.4273508,143.324023 L133.544735,143.324023 L133.544735,123.781692 L123.771161,123.781692 L123.771161,94.4712559 L175.886319,94.4712559 L175.886319,74.9285544 L161.228554,74.9285544 L135.986459,49.6872041 L162.858967,22.8170325 L175.886319,22.8170325 L175.886319,3.27414561 Z M164.486412,26.0744894 L140.873246,49.6872041 L162.857483,71.6701704 L179.143621,71.6701704 L179.142137,97.7287128 L127.029019,97.7268585 L127.029019,120.526275 L136.801109,120.526275 L136.801109,146.582407 L78.1722744,146.582407 L78.1707908,146.582407 L78.1707908,120.526275 L78.1722744,120.526275 L87.9430669,120.526275 L87.9430669,97.7268585 L48.8560025,97.7268585 L48.8560025,120.526275 L58.6269805,120.526275 L58.6310602,120.526275 L58.6310602,146.582407 L58.6269805,146.582407 L0,146.582407 L0,120.526275 L9.77298075,120.526275 L9.77298075,71.6736936 L9.77709758,71.6736936 L9.77298075,71.6701704 L26.0569303,55.3880781 L48.8587841,55.3880781 L48.8587841,26.0744894 L39.0844682,26.0744894 L39.0844682,0.0183981783 L97.7147866,0.0183981783 L97.7147866,26.0744894 L87.9430669,26.0744894 L87.9430669,32.591072 L105.856094,32.591072 L117.257855,21.1885823 L117.257855,0.0183981783 L179.143621,0.0183981783 L179.143621,26.0744894 L179.142137,26.0744894 L164.486412,26.0744894 L164.486412,26.0744894 Z" id="path24" fill="#FFFFFF"></path>
                    </g>
                </g>
            </g>
        </g>
    </g>
</svg>