<?xml version="1.0" encoding="UTF-8"?>
<svg width="200px" height="200px" viewBox="0 0 200 200" version="1.1" xmlns="http://www.w3.org/2000/svg" xmlns:xlink="http://www.w3.org/1999/xlink">
    <!-- Generator: Sketch 54.1 (76490) - https://sketchapp.com -->
    <title>lehigh</title>
    <desc>Created with Sketch.</desc>
    <g id="lehigh" stroke="none" stroke-width="1" fill="none" fill-rule="evenodd">
        <g id="lehigh_BGD" transform="translate(0.000000, -0.000000)">
            <g id="lehigh" transform="translate(0.000000, 2.000000)">
                <g id="g10" transform="translate(99.847370, 98.497166) scale(-1, 1) rotate(-180.000000) translate(-99.847370, -98.497166) translate(0.000000, 0.351740)" fill-rule="nonzero">
                    <g id="g12">
                        <path d="M196.548413,116.794191 C194.10045,133.55153 169.879521,124.148291 175.885113,139.77951 C175.885113,139.77951 157.927904,154.996022 117.251447,158.402179 L117.51071,159.41597 C118.32197,162.556624 119.358453,163.226055 120.972463,163.34122 L135.454871,163.34122 L143.254879,193.521222 L52.3558193,193.521222 L44.5572291,163.34122 L61.4900949,163.34122 L59.1833938,154.421332 C48.226393,153.71616 41.1072756,152.494165 41.1072756,152.494165 L48.7719795,147.652702 C33.2829861,145.372664 17.5355808,140.0921 1.23346675,133.19242 C1.23346675,133.19242 25.6228774,131.256743 48.5559461,113.298966 L29.8052908,40.7502645 C29.8052908,40.7502645 27.6452972,32.446424 19.5856289,32.446424 L10.7291105,32.446424 L2.93031039,2.2692584 L136.938398,2.2692584 L155.208765,59.9521051 L127.510764,59.9521051 C125.341921,51.5684433 120.402312,32.446424 99.6442711,32.446424 L84.6972333,32.446424 L88.8806112,48.6319095 C97.929279,59.2111922 128.5637,87.7987422 176.073461,58.4061728 C176.073461,58.4061728 181.241697,84.5832031 137.10916,100.342635 C137.10916,100.342635 145.993874,104.875479 155.426047,104.875479 C177.113916,104.875479 174.061764,83.0219533 174.061764,83.0219533 C180.708989,88.0738898 199.713461,100.952499 196.548413,116.794191" id="path14" fill="#5B2D05"></path>
                        <path d="M143.287216,100.397098 C146.529986,101.490313 150.939155,102.606221 155.426047,102.606221 C161.060048,102.606221 165.31434,101.006393 168.071489,97.8509896 C172.957202,92.2595369 171.825977,83.4196408 171.814063,83.3311397 L171.431126,80.5025091 C169.195906,83.4701318 166.460883,86.2789064 163.250449,88.8993326 C157.901807,93.2653857 151.203524,97.1214231 143.287216,100.397098 L143.287216,100.397098 Z M146.185059,195.79048 L50.5985056,195.79048 L50.1586098,194.089104 L42.3600197,163.909102 L41.6269357,161.071961 L44.5572291,161.071961 L58.5593477,161.071961 L57.3963528,156.574859 C47.3851789,155.861744 41.0037974,154.778741 40.7234305,154.730519 L34.8998327,153.73091 L39.8954916,150.575507 L42.5543817,148.895688 C30.0142895,146.478361 16.4268779,142.087346 0.349031231,135.282407 L1.05396274,130.930537 C1.28554623,130.911815 24.2411827,128.876858 45.9837417,112.415657 L27.6084785,41.3180329 C27.5389257,41.0622875 25.7505232,34.7156824 19.5856289,34.7156824 L10.7291105,34.7156824 L8.97179675,34.7156824 L8.53190101,33.0143626 L0.733299507,2.83723676 L0,0 L2.93031039,0 L136.938398,0 L138.600063,0 L139.101569,1.58405015 L157.371936,59.266789 L158.308005,62.2213635 L155.208765,62.2213635 L127.510764,62.2213635 L125.753791,62.2213635 L125.314122,60.5205543 C123.144711,52.1379705 118.637397,34.7156824 99.6442711,34.7156824 L87.6274132,34.7156824 L90.945069,47.5507213 C96.8434389,54.3243442 112.349849,69.0319752 135.695412,69.0319752 C148.229093,69.0319752 161.412917,64.8077507 174.879831,56.4768493 L177.665346,54.7531773 L178.299604,57.9670713 C178.359172,58.2649114 179.689525,65.3722287 175.1737,74.4730896 C174.40896,76.015618 173.520546,77.5241075 172.512995,78.9968562 L175.434665,81.2150563 C175.873767,81.54807 176.366196,81.9151225 176.902875,82.3156466 C180.644315,85.1074018 186.906334,89.7798048 191.747797,95.5936448 C197.805582,102.867753 200.172986,110.130514 198.785334,117.1811 C197.356269,126.75964 189.674829,129.078255 184.062386,130.772823 C181.071503,131.675988 178.246276,132.529229 177.476998,134.100691 C176.977761,135.120155 177.15533,136.756858 178.003466,138.965413 L178.580992,140.469364 L177.352189,141.510954 C176.613545,142.136702 159.198121,156.551599 120.223608,160.409338 C120.501592,160.986864 120.750643,161.047 121.057561,161.071961 L135.454871,161.071961 L137.211844,161.071961 L137.65208,162.773338 L145.452089,192.95334 L146.185059,195.79048 L146.185059,195.79048 Z M143.254879,193.521222 L135.454871,163.34122 L120.972463,163.34122 C119.358453,163.226055 118.32197,162.556624 117.51071,159.41597 L117.251447,158.402179 C157.927904,154.996022 175.885113,139.77951 175.885113,139.77951 C169.879521,124.148291 194.10045,133.55153 196.548413,116.794191 C199.713461,100.952499 180.708989,88.0738898 174.061764,83.0219533 C174.061764,83.0219533 177.113916,104.875479 155.426047,104.875479 C145.993874,104.875479 137.10916,100.342635 137.10916,100.342635 C181.241697,84.5832031 176.073461,58.4061728 176.073461,58.4061728 C160.821208,67.8423165 147.313448,71.3012336 135.695412,71.3012336 C111.124449,71.3012336 95.0246283,55.8153604 88.8806112,48.6319095 L84.6972333,32.446424 L99.6442711,32.446424 C120.402312,32.446424 125.341921,51.5684433 127.510764,59.9521051 L155.208765,59.9521051 L136.938398,2.2692584 L2.93031039,2.2692584 L10.7291105,32.446424 L19.5856289,32.446424 C27.6452972,32.446424 29.8052908,40.7502645 29.8052908,40.7502645 L48.5559461,113.298966 C25.6228774,131.256743 1.23346675,133.19242 1.23346675,133.19242 C17.5355808,140.0921 33.2829861,145.372664 48.7719795,147.652702 L41.1072756,152.494165 C41.1072756,152.494165 48.226393,153.71616 59.1833938,154.421332 L61.4900949,163.34122 L44.5572291,163.34122 L52.3558193,193.521222 L143.254879,193.521222 L143.254879,193.521222 Z" id="path16" fill="#FFFFFF"></path>
                        <path d="M128.766231,122.36749 C128.8258,121.899456 128.865512,121.425181 128.865512,120.93729 C128.865512,120.664412 128.843386,120.397774 128.8258,120.130001 C127.423965,120.524285 126.002842,120.879424 124.671922,121.185206 C121.185206,121.983985 118.357711,122.438404 118.357711,122.438404 C118.357711,122.438404 120.462448,121.921581 124.443862,119.145143 C125.483749,118.417846 126.654687,117.535104 127.949866,116.470255 C126.215585,112.433811 122.208075,109.604046 117.535104,109.604046 C111.278192,109.604046 106.20413,114.678108 106.20413,120.93729 C106.20413,125.199525 108.561322,128.903522 112.034422,130.842036 C110.291632,131.396302 108.56813,131.859798 106.884907,132.230254 C103.879842,129.395951 101.996925,125.390142 101.996925,120.93729 C101.996925,112.354387 108.954471,105.39911 117.535104,105.39911 C118.959064,105.39911 120.331398,105.607315 121.640193,105.962454 C122.296576,106.143994 122.94218,106.348228 123.563389,106.612596 C128.559162,108.716766 132.208129,113.360804 132.929186,118.927862 C131.593727,120.156665 130.203239,121.305477 128.766231,122.36749" id="path18" fill="#FFFFFF"></path>
                        <path d="M143.532296,51.0964376 L133.549828,51.0964376 C133.549828,51.0964376 125.175697,23.5889978 97.3551567,23.5889978 L73.5512033,23.5889978 L82.9084904,59.8057379 C77.0753616,81.1010261 66.9550365,96.2437874 55.7880726,107.009149 L37.531208,36.3721843 C37.531208,36.3721843 34.2279053,23.5889978 17.2971385,23.5889978 L14.0755858,11.124472 L130.873238,11.124472 L143.532296,51.0964376" id="path20" fill="#CBA569"></path>
                        <path d="M69.3320847,159.41597 L68.1435606,154.82526 C76.7627713,155.051052 86.7741721,154.838309 97.1622697,153.636169 L88.8034564,158.759587 C95.8421286,159.136284 102.400853,159.162948 108.528418,158.932051 L108.65266,159.41597 C111.957267,172.190193 123.02444,172.203809 123.02444,172.203809 L128.885935,172.203809 L132.108282,184.663172 L58.9252656,184.663172 L55.7060957,172.203809 L61.5683843,172.203809 C61.5683843,172.203809 72.6321537,172.190193 69.3320847,159.41597" id="path22" fill="#CBA569"></path>
                        <path d="M121.640193,105.962454 C111.23621,102.55573 100.400501,100.260375 92.398529,92.8155052 C107.563983,86.3571958 121.806416,82.4319461 137.694629,80.1025524 C151.689145,78.0466042 162.376785,72.4341609 168.94799,68.7744144 C154.858732,85.9759604 120.84652,84.5565393 100.225201,93.3056651 C125.235265,105.878491 149.914585,113.116858 170.318622,108.388291 C175.397222,106.463393 177.597836,100.750535 178.980949,96.2392489 C185.186803,101.202684 189.688445,111.063179 187.979126,117.291159 C185.412594,126.628023 166.035964,120.522016 156.273615,116.408418 C153.020065,116.683565 148.857111,116.159934 148.857111,116.159934 C153.267982,121.870523 160.968143,128.087156 168.710853,130.511291 C157.746363,134.110902 149.723967,125.135418 142.812941,118.027533 C137.388846,112.189866 130.621918,109.04978 123.563389,106.612596 C122.94218,106.348228 122.296576,106.143994 121.640193,105.962454" id="path24" fill="#CBA569"></path>
                        <path d="M122.058871,94.5009969 C127.18626,92.2209595 134.437108,89.6130143 141.535916,88.8346587 L127.162433,95.254958 C125.678338,96.093449 122.897362,95.9845246 122.058871,94.5009969" id="path26" fill="#963A0E"></path>
                        <path d="M108.561322,151.742473 L114.228228,145.714755 C101.336003,148.881505 78.711497,147.191475 61.6495103,144.386104 C44.8909803,141.624984 26.2857278,133.19242 26.2857278,133.19242 C80.1451009,122.615974 90.2648588,60.6879121 90.2648588,60.6879121 C90.2648588,60.6879121 98.5391422,73.0502646 117.654808,77.0379189 C108.810373,82.0212103 92.1699012,86.8649424 82.7099303,87.7499532 C85.201576,97.7341228 95.0444843,102.957388 102.10358,106.845195 C102.10358,106.845195 96.2040753,111.338327 96.2040753,121.442767 C96.2040753,124.396774 96.2131524,129.890082 100.626293,133.214545 C95.427989,133.693926 91.0500222,133.174833 88.3774031,131.813278 C88.3774031,131.813278 108.184625,152.677975 140.954986,126.856083 C140.954986,126.856083 147.107513,137.051294 158.17582,140.032532 C158.17582,140.032532 147.302101,151.050349 108.561322,151.742473" id="path28" fill="#963A0E"></path>
                        <path d="M117.535104,113.77778 C113.578085,113.77778 110.373892,116.980271 110.373892,120.93729 C110.373892,124.889204 113.578085,128.098502 117.535104,128.098502 C118.443942,128.098502 119.305126,127.914125 120.107876,127.603804 C117.423911,128.914301 114.707041,129.989929 112.034422,130.842036 C108.561322,128.903522 106.20413,125.199525 106.20413,120.93729 C106.20413,114.678108 111.278192,109.604046 117.535104,109.604046 C122.208075,109.604046 126.215585,112.433811 127.949866,116.470255 C126.654687,117.535104 125.483749,118.417846 124.443862,119.145143 C123.647352,116.062356 120.870914,113.77778 117.535104,113.77778" id="path30" fill="#006838"></path>
                        <path d="M128.766231,122.36749 C126.38351,124.135242 123.88222,125.66529 121.338381,126.982594 C123.283703,125.75606 124.58569,123.633736 124.671922,121.185206 C126.002842,120.879424 127.423965,120.524285 128.8258,120.130001 C128.843386,120.397774 128.865512,120.664412 128.865512,120.93729 C128.865512,121.425181 128.8258,121.899456 128.766231,122.36749" id="path32" fill="#006838"></path>
                        <path d="M61.6495103,144.386104 C78.711497,147.191475 101.336003,148.881505 114.228228,145.714755 L108.561322,151.742473 C147.302101,151.050349 158.17582,140.032532 158.17582,140.032532 C147.107513,137.051294 140.954986,126.856083 140.954986,126.856083 C108.184625,152.677975 88.3774031,131.813278 88.3774031,131.813278 C91.0500222,133.174833 95.427989,133.693926 100.626293,133.214545 C96.2131524,129.890082 96.2040753,124.396774 96.2040753,121.442767 C96.2040753,111.338327 102.10358,106.845195 102.10358,106.845195 C95.0444843,102.957388 85.201576,97.7341228 82.7099303,87.7499532 C92.1699012,86.8649424 108.810373,82.0212103 117.654808,77.0379189 C98.5391422,73.0502646 90.2648588,60.6879121 90.2648588,60.6879121 C90.2648588,60.6879121 80.1451009,122.615974 26.2857278,133.19242 C26.2857278,133.19242 44.8909803,141.624984 61.6495103,144.386104 Z M55.7060957,172.203809 L58.9252656,184.663172 L132.108282,184.663172 L128.885935,172.203809 L123.02444,172.203809 C123.02444,172.203809 111.957267,172.190193 108.65266,159.41597 L108.528418,158.932051 C102.400853,159.162948 95.8421286,159.136284 88.8034564,158.759587 L97.1622697,153.636169 C86.7741721,154.838309 76.7627713,155.051052 68.1435606,154.82526 L69.3320847,159.41597 C72.6321537,172.190193 61.5683843,172.203809 61.5683843,172.203809 L55.7060957,172.203809 Z M168.710853,130.511291 C160.968143,128.087156 153.267982,121.870523 148.857111,116.159934 C148.857111,116.159934 153.020065,116.683565 156.273615,116.408418 C166.035964,120.522016 185.412594,126.628023 187.979126,117.291159 C189.688445,111.063179 185.186803,101.202684 178.980949,96.2392489 C177.597836,100.750535 175.397222,106.463393 170.318622,108.388291 C149.914585,113.116858 125.235265,105.878491 100.225201,93.3056651 C120.84652,84.5565393 154.858732,85.9759604 168.94799,68.7744144 C162.376785,72.4341609 151.689145,78.0466042 137.694629,80.1025524 C121.806416,82.4319461 107.563983,86.3571958 92.398529,92.8155052 C100.400501,100.260375 111.23621,102.55573 121.640193,105.962454 C120.331398,105.607315 118.959064,105.39911 117.535104,105.39911 C108.954471,105.39911 101.996925,112.354387 101.996925,120.93729 C101.996925,125.390142 103.879842,129.395951 106.884907,132.230254 C108.56813,131.859798 110.291632,131.396302 112.034422,130.842036 C114.707041,129.989929 117.423911,128.914301 120.107876,127.603804 C119.305126,127.914125 118.443942,128.098502 117.535104,128.098502 C113.578085,128.098502 110.373892,124.889204 110.373892,120.93729 C110.373892,116.980271 113.578085,113.77778 117.535104,113.77778 C120.870914,113.77778 123.647352,116.062356 124.443862,119.145143 C120.462448,121.921581 118.357711,122.438404 118.357711,122.438404 C118.357711,122.438404 121.185206,121.983985 124.671922,121.185206 C124.58569,123.633736 123.283703,125.75606 121.338381,126.982594 C123.88222,125.66529 126.38351,124.135242 128.766231,122.36749 C130.203239,121.305477 131.593727,120.156665 132.929186,118.927862 C132.208129,113.360804 128.559162,108.716766 123.563389,106.612596 C130.621918,109.04978 137.388846,112.189866 142.812941,118.027533 C149.723967,125.135418 157.746363,134.110902 168.710853,130.511291 Z M141.535916,88.8346587 C134.437108,89.6130143 127.18626,92.2209595 122.058871,94.5009969 C122.897362,95.9845246 125.678338,96.093449 127.162433,95.254958 L141.535916,88.8346587 Z M97.3551567,23.5889978 C125.175697,23.5889978 133.549828,51.0964376 133.549828,51.0964376 L143.532296,51.0964376 L130.873238,11.124472 L14.0755858,11.124472 L17.2971385,23.5889978 C34.2279053,23.5889978 37.531208,36.3721843 37.531208,36.3721843 L55.7880726,107.009149 C66.9550365,96.2437874 77.0753616,81.1010261 82.9084904,59.8057379 L73.5512033,23.5889978 L97.3551567,23.5889978 Z M48.5559461,113.298966 L29.8052908,40.7502645 C29.8052908,40.7502645 27.6452972,32.446424 19.5856289,32.446424 L10.7291105,32.446424 L2.93031039,2.2692584 L136.938398,2.2692584 L155.208765,59.9521051 L127.510764,59.9521051 C125.341921,51.5684433 120.402312,32.446424 99.6442711,32.446424 L84.6972333,32.446424 L88.8806112,48.6319095 C97.929279,59.2111922 128.5637,87.7987422 176.073461,58.4061728 C176.073461,58.4061728 181.241697,84.5832031 137.10916,100.342635 C137.10916,100.342635 145.993874,104.875479 155.426047,104.875479 C177.113916,104.875479 174.061764,83.0219533 174.061764,83.0219533 C180.708989,88.0738898 199.713461,100.952499 196.548413,116.794191 C194.10045,133.55153 169.879521,124.148291 175.885113,139.77951 C175.885113,139.77951 157.927904,154.996022 117.251447,158.402179 L117.51071,159.41597 C118.32197,162.556624 119.358453,163.226055 120.972463,163.34122 L135.454871,163.34122 L143.254879,193.521222 L52.3558193,193.521222 L44.5572291,163.34122 L61.4900949,163.34122 L59.1833938,154.421332 C48.226393,153.71616 41.1072756,152.494165 41.1072756,152.494165 L48.7719795,147.652702 C33.2829861,145.372664 17.5355808,140.0921 1.23346675,133.19242 C1.23346675,133.19242 25.6228774,131.256743 48.5559461,113.298966 L48.5559461,113.298966 Z" id="path34" fill="#5B2D05"></path>
                        <path d="M154.106473,7.41650377 C154.106473,5.18516468 152.292201,3.37153365 150.056981,3.37153365 C147.821762,3.37153365 146.011461,5.18516468 146.011461,7.41650377 C146.011461,9.65234735 147.821762,11.4666194 150.056981,11.4666194 C152.292201,11.4666194 154.106473,9.65234735 154.106473,7.41650377 Z M144.907466,7.41650377 C144.907466,4.57530148 147.2136,2.2692584 150.056981,2.2692584 C152.902631,2.2692584 155.208765,4.57530148 155.208765,7.41650377 C155.208765,10.2644231 152.902631,12.5706704 150.056981,12.5706704 C147.2136,12.5706704 144.907466,10.2644231 144.907466,7.41650377 L144.907466,7.41650377 Z" id="path36" fill="#5B2D05"></path>
                        <path d="M149.045459,9.25965218 L150.424601,9.25965218 C150.77974,9.25965218 151.067936,8.9733285 151.067936,8.61875688 C151.067936,8.25907942 150.77974,7.97145092 150.424601,7.97145092 L149.045459,7.97145092 L149.045459,9.25965218 Z M147.940898,4.47557892 L149.045459,4.47557892 L149.045459,6.86626534 L149.836863,6.86626534 L150.95504,4.47557892 L152.172497,4.47557892 L151.010637,6.97110508 C151.689145,7.21289456 152.172497,7.85554854 152.172497,8.61875688 C152.172497,9.57922049 151.391872,10.3659157 150.424601,10.3659157 L147.940898,10.3659157 L147.940898,4.47557892 L147.940898,4.47557892 Z" id="path38" fill="#5B2D05"></path>
                    </g>
                </g>
            </g>
        </g>
    </g>
</svg>