<?xml version="1.0" encoding="UTF-8"?>
<svg width="200px" height="200px" viewBox="0 0 200 200" version="1.1" xmlns="http://www.w3.org/2000/svg" xmlns:xlink="http://www.w3.org/1999/xlink">
    <!-- Generator: Sketch 54.1 (76490) - https://sketchapp.com -->
    <title>lipscomb</title>
    <desc>Created with Sketch.</desc>
    <g id="lipscomb" stroke="none" stroke-width="1" fill="none" fill-rule="evenodd">
        <g id="lipscomb_BGD">
            <g id="lipscomb" transform="translate(17.000000, 2.000000)">
                <g id="g10" transform="translate(83.344504, 98.097727) scale(-1, 1) rotate(-180.000000) translate(-83.344504, -98.097727) translate(0.000000, 0.447823)" fill-rule="nonzero">
                    <g id="g12">
                        <path d="M155.957471,85.2560791 L111.585479,85.2560791 L106.99357,57.0263003 L82.5956478,57.0263003 L82.5956478,140.196652 L102.378399,145.969814 L102.378399,184.858111 L9.95158262,184.858111 L9.95158262,144.601471 L18.5236271,143.642387 C22.1884218,143.234373 25.5781796,142.531542 28.6307032,141.684414 L28.6307032,54.715294 L9.95158262,48.9406394 L9.95158262,9.95158262 L155.957471,9.95158262 L155.957471,85.2560791" id="path14" fill="#FAB20B"></path>
                        <path d="M112.329982,194.809693 L0,194.809693 L0,135.701025 L8.84515322,134.710842 L17.4172599,133.753002 C17.8379631,133.705732 18.2587906,133.653486 18.6791206,133.596265 L18.6791206,62.0545862 L7.01227074,58.449501 L0,56.2812999 L0,48.9406394 L0,9.95158262 L0,0 L9.95158262,0 L155.957471,0 L165.909054,0 L165.909054,9.95158262 L165.909054,85.2560791 L165.909054,95.2076617 L155.957471,95.2076617 L111.585479,95.2076617 L103.121782,95.2076617 L101.762769,86.8533081 L98.5298731,66.9778829 L92.5472305,66.9778829 L92.5472305,132.734209 L105.166584,136.416295 L112.329982,138.507371 L112.329982,145.969814 L112.329982,184.858111 L112.329982,194.809693 Z M102.378399,184.858111 L102.378399,145.969814 L82.5956478,140.196652 L82.5956478,57.0263003 L106.99357,57.0263003 L111.585479,85.2560791 L155.957471,85.2560791 L155.957471,9.95158262 L9.95158262,9.95158262 L9.95158262,48.9406394 L28.6307032,54.715294 L28.6307032,141.684414 C25.5781796,142.531542 22.1884218,143.234373 18.5236271,143.642387 L9.95158262,144.601471 L9.95158262,184.858111 L102.378399,184.858111 L102.378399,184.858111 Z" id="path16" fill="#FFFFFF"></path>
                        <path d="M115.19442,47.3870729 L72.9550522,47.3870729 L72.9550522,147.428965 L92.7378033,153.20337 L92.7378033,175.216271 L19.5960345,175.216271 L19.5960345,153.227005 C38.0201458,151.163296 50.4308889,142.601203 50.862912,142.326291 C48.7403638,142.466857 46.6184376,142.525322 44.4983773,142.525322 C42.4224772,142.525322 40.3462038,142.466857 38.2737868,142.377293 L38.2737868,47.6072517 L19.5960345,41.8316019 L19.5960345,19.5960345 L146.316875,19.5960345 L146.316875,75.6203348 L119.785334,75.6203348 L115.19442,47.3870729" id="path18" fill="#22174B"></path>
                    </g>
                </g>
            </g>
        </g>
    </g>
</svg>