<?xml version="1.0" encoding="UTF-8"?>
<svg width="200px" height="200px" viewBox="0 0 200 200" version="1.1" xmlns="http://www.w3.org/2000/svg" xmlns:xlink="http://www.w3.org/1999/xlink">
    <!-- Generator: Sketch 54.1 (76490) - https://sketchapp.com -->
    <title>ualr</title>
    <desc>Created with Sketch.</desc>
    <g id="ualr" stroke="none" stroke-width="1" fill="none" fill-rule="evenodd">
        <g id="ualr_BGD" transform="translate(0.000000, 0.000000)" fill="#FFFFFF">
            <g id="ualr" transform="translate(10.000000, 0.000000)">
                <g id="g10" transform="translate(90.500000, 100.447454) scale(-1, 1) rotate(-180.000000) translate(-90.500000, -100.447454) translate(0.000000, 0.899943)">
                    <g id="g12">
                        <path d="M128.856557,42.9622999 C129.089499,42.9132961 129.218053,42.8951713 129.218053,42.8951713 C129.218053,42.8951713 125.280863,40.3671085 119.866471,40.019718 C115.993054,39.7710066 111.802783,40.5040508 107.647419,42.9626356 L88.49918,42.9626356 C89.6219338,39.1775898 92.628363,29.0854435 94.7590778,22.332072 C95.982527,18.454993 97.0760792,15.8688303 97.0760792,15.8688303 C97.0760792,15.8688303 97.8477416,14.2033364 99.6401199,12.8699275 C100.33559,12.352064 101.130076,11.8098999 101.913822,11.448446 C103.00771,10.9436725 104.003923,10.7134215 104.003923,10.7134215 C104.003923,10.7134215 105.469713,10.6543147 107.058686,10.3939229 C109.196114,10.0430753 111.752099,9.42488811 113.118536,9.02144526 C116.460281,8.03522553 120.644511,6.97167366 123.863743,5.79692327 C127.729104,4.38618231 130.225007,3.14127583 130.225007,3.14127583 C130.225007,3.14127583 130.755001,2.84798429 131.202089,3.16684511 C131.937836,3.69103216 133.010914,4.71538093 134.566993,5.73150645 C136.096892,6.73068201 138.098381,7.71911698 140.081074,8.52768089 C143.492634,9.9192902 147.233469,10.5032754 149.296718,10.8660383 C150.283868,11.0396329 150.887369,11.3175788 150.887369,11.3175788 C150.887369,11.3175788 141.992944,16.2595523 133.237143,19.4119782 C126.0344,22.0048201 118.664839,22.9173327 118.664839,22.9173327 C118.664839,22.9173327 119.710393,24.6146791 120.442113,26.1805543 C121.409124,28.2490883 122.129097,30.328363 122.129097,30.328363 C122.129097,30.328363 126.135767,29.3278448 129.951787,28.7800755 C134.244097,28.1638686 138.401139,27.9922208 138.401139,27.9922208 C138.401139,27.9922208 141.810014,27.6199927 143.617497,29.0092525 C145.625699,30.5523039 146.215103,33.8727527 146.215103,33.8727527 C146.215103,33.8727527 146.84512,37.8004467 147.372764,42.961293 L128.856557,42.9622999 Z M71.3789468,42.9622999 C69.8127975,41.7788228 68.3527141,40.3808699 67.3810034,38.7926073 C66.051824,36.6196548 65.0596386,34.2617629 64.6055023,32.5242064 C64.1772112,30.8865037 64.2493762,29.8046928 64.2493762,29.8046928 C64.2493762,29.8046928 67.3531444,27.9332147 70.9704591,24.7187956 C74.3051553,21.7557059 78.0288715,17.6154828 81.2605228,13.5760868 C86.1412292,7.47513811 88.0940488,0 88.0940488,0 C88.0940488,0 83.2928918,3.41385819 76.2982531,7.41062753 C72.6064238,9.51980794 68.303709,11.704508 63.7734226,13.8250667 C58.5449814,16.2729109 53.9280969,17.6961042 48.1985282,19.4791068 C39.8693398,22.0708747 32.177956,21.5949665 24.8949592,21.8322661 C20.306001,21.9815936 15.6122524,22.6085747 11.8641008,23.8534745 C4.47359488,26.3077294 0.650193605,29.039796 0.650193605,29.039796 L16.4794412,38.2629627 C16.4794412,38.2629627 19.6717877,36.4709649 23.4093327,35.6959653 C26.0034143,35.1579296 29.8919688,35.3468966 29.8919688,35.3468966 C29.8919688,35.3468966 26.8113271,38.1347471 22.7548126,42.9616286 L71.3789468,42.9622999 L71.3789468,42.9622999 L71.3789468,42.9622999 Z" id="path14"></path>
                        <path d="M123.095437,93.7246068 L136.467787,95.0138114 L140.737608,83.6553177 L123.095437,93.7246068 Z M119.467046,96.6651748 C119.667765,95.360195 119.787257,94.0756893 119.81948,92.8395163 C119.991333,86.2830665 117.617607,81.0779154 117.617607,81.0779154 C117.617607,81.0779154 115.183463,77.3552992 114.048961,71.8188685 C113.171233,67.5360642 113.265216,61.9737889 114.646421,57.4291831 C115.698017,53.9653477 118.40773,49.3737519 121.147652,46.9645067 C124.407162,44.0984514 127.769382,43.1932223 128.856557,42.9629712 L147.372764,42.9622999 C147.638264,45.5595052 147.877248,48.470201 147.997411,51.3493464 C148.322322,59.1453256 147.58456,66.7389121 147.58456,66.7389121 L156.526312,67.6250096 C156.526312,67.6250096 155.147456,82.2822024 151.493891,96.6641679 L119.467046,96.6651748 L119.467046,96.6651748 Z M47.0297902,96.6651748 C47.0200563,95.6273668 47.0294545,94.4277788 47.0831588,93.1989899 C47.2123845,90.2137813 47.6950512,86.918103 47.6950512,86.918103 C47.6950512,86.918103 47.8145431,85.8161872 46.4853637,85.3328613 C45.1561843,84.8495354 44.43252,85.6691756 44.43252,85.6691756 C44.43252,85.6691756 42.7978979,89.5230281 41.6294955,93.3956767 C41.2898163,94.5217588 40.996457,95.6569034 40.7578089,96.6628253 L0.359643718,96.6655105 C1.60155375,82.8907231 5.95307894,69.5562992 11.7167163,58.9899229 C15.2535082,52.5056364 19.3482198,47.0148531 22.7548126,42.9616286 L71.3789468,42.9622999 C72.1388614,43.5385989 72.9242856,44.0632089 73.690242,44.5354585 C76.6829095,46.3784741 81.781118,47.6122976 84.8936131,47.0252581 C87.2005449,46.5906004 88.0537706,44.4656448 88.0537706,44.4656448 C88.0537706,44.4656448 88.2168972,43.9131765 88.49918,42.961293 L107.647419,42.9622999 C106.41927,43.6893026 105.193807,44.567009 103.980763,45.6145507 C98.6640457,50.2064821 94.7268553,56.2413427 92.1463677,62.9847455 C88.644517,72.137058 87.9732143,81.480687 87.9732143,81.480687 C87.9732143,81.480687 88.7677011,83.6200752 86.8132032,86.7620291 C85.9730679,88.1569612 84.0105144,88.7903195 82.7407453,89.2243059 C79.8491088,90.2137813 75.7189188,87.5793197 75.1550245,84.1963742 C74.5911303,80.8127574 75.4409995,79.7511187 77.0440704,77.9681833 C78.2604709,76.6155421 78.8122818,77.2676964 80.2361148,75.7623377 C81.2672358,74.6718337 82.6440777,72.4169842 82.8434546,70.9784185 C83.2489214,68.057989 81.7727267,64.1182119 79.9387277,61.1185706 C78.1530625,58.1981412 76.0324172,56.1930101 74.6733648,55.0528309 C67.6901383,49.1945186 60.8566123,48.2631093 55.1783982,47.9680792 C51.7423353,47.7895171 47.4533822,47.4864315 47.4533822,47.4864315 L62.1146336,64.886163 C62.1146336,64.886163 57.135917,71.4919522 54.1143834,80.1018656 C52.3371095,85.1660467 51.4986524,90.8145823 51.6809111,96.6655105 L47.0297902,96.6651748 L47.0297902,96.6651748 L47.0297902,96.6651748 Z" id="path16"></path>
                        <path d="M44.3919062,122.120002 L50.5950789,119.703373 C50.5950789,119.703373 51.1237298,119.449626 51.4825411,118.858559 C51.7235388,118.462836 51.843702,117.649238 51.843702,117.649238 C51.843702,117.649238 50.5467451,114.474391 49.6079283,111.614041 C48.8557336,109.3216 48.4197225,107.217454 48.4197225,107.217454 C48.4197225,107.217454 47.8202492,106.305512 47.0818162,106.126614 C45.5096252,105.746667 42.7663466,105.991015 41.1954983,106.394122 C39.6243143,106.796558 39.4380278,109.432698 39.4380278,109.432698 C39.4380278,109.432698 39.5387232,111.92384 40.0213898,114.261929 C40.6638265,117.370654 41.7338831,120.549193 41.7338831,120.549193 C41.7338831,120.549193 42.3729632,121.653794 42.8932228,121.961243 C43.6551514,122.41134 44.3919062,122.120002 44.3919062,122.120002 L44.3919062,122.120002 Z M78.7787166,128.8869 C78.4648826,127.992411 78.4823365,126.674006 78.6837273,125.923844 C78.9076067,125.088093 79.7779507,123.842857 80.7382493,123.326974 C82.162418,122.561708 83.7842853,122.724159 83.7842853,122.724159 C83.7842853,122.724159 89.9582564,124.680958 96.4262581,123.423304 C102.385077,122.264664 108.495945,118.110075 112.459317,113.231505 C116.049444,108.812765 118.569514,102.517781 119.467046,96.6671887 L151.493891,96.6651748 C150.395976,100.985907 149.093313,105.282808 147.560058,109.149415 C144.223683,117.565998 139.985078,124.191255 136.13415,128.888914 L129.647351,128.8869 C130.161569,128.309594 130.659676,127.723561 131.139993,127.13048 C136.625879,120.358212 139.851153,112.815979 139.851153,112.815979 C139.851153,112.815979 140.899056,110.288252 138.562923,108.918493 C136.226789,107.549069 134.856661,109.755251 134.856661,109.755251 C134.856661,109.755251 131.596143,114.922138 126.046148,120.279672 C122.818525,123.395781 118.712837,126.554852 114.449729,128.884886 L78.7787166,128.8869 Z M45.2370763,128.8869 C44.9084736,128.334767 44.7144671,128.000467 44.7144671,128.000467 C44.7144671,128.000467 44.4754834,127.603401 44.7661574,126.998908 C44.8708807,126.781076 44.9037745,126.556195 45.1320174,126.323594 C45.3219961,126.129928 45.6408649,125.865777 45.6408649,125.865777 C45.6408649,125.865777 48.1663057,124.800111 50.2178068,123.99826 C51.455689,123.514598 52.7298216,123.167208 52.7298216,123.167208 C52.7298216,123.167208 53.4518077,122.930244 54.022415,123.093367 C54.3953236,123.200101 54.7034516,123.731088 54.7034516,123.731088 C54.7034516,123.731088 55.9567738,125.915453 57.4943926,128.032353 C57.7031678,128.319663 57.9183203,128.605631 58.1334728,128.884886 L64.0677888,128.8869 C63.2699456,127.956833 62.4536415,126.925738 61.6504278,125.795292 C57.2134524,119.550991 53.1618049,110.25066 52.0612041,101.505818 C51.8567924,99.8826483 51.7305875,98.2661918 51.6809111,96.6655105 L47.0297902,96.6651748 C47.0479154,98.5679348 47.1311569,99.9272888 47.1311569,99.9272888 C47.1311569,99.9272888 47.1163883,100.524398 46.858608,100.852657 C46.4769724,101.338332 45.8019775,101.618929 45.8019775,101.618929 L41.0491543,101.578652 C41.0491543,101.578652 40.5748789,101.325242 40.3134065,100.927505 C40.0724088,100.560983 40.0422002,100.04812 40.0422002,100.04812 C40.0422002,100.04812 40.2996448,98.5937793 40.7578089,96.6628253 L0.359643718,96.6651748 C0.010489105,100.534467 -0.0928287469,104.439337 0.0867974276,108.32709 C0.404748548,115.211463 1.56654867,122.176054 3.4111912,128.888578 L45.2370763,128.8869 L45.2370763,128.8869 L45.2370763,128.8869 Z" id="path18"></path>
                        <path d="M114.449729,128.8869 C113.193722,129.57094 111.924288,130.185502 110.659554,130.705413 C104.887022,133.078409 98.5687208,134.209862 93.4557436,134.067885 C86.363766,133.871533 81.3675956,131.746242 81.3675956,131.746242 C81.3675956,131.746242 79.6772553,130.825574 78.8760555,129.123192 C78.8408121,129.047673 78.8082539,128.968125 78.7787166,128.88455 L114.449729,128.8869 L114.449729,128.8869 Z M175.266735,142.312619 L149.276243,129.922023 C149.276243,129.922023 147.041476,133.195213 144.049144,136.499618 C142.069137,138.686668 139.589009,140.831426 137.990973,142.311947 L175.266735,142.312619 L175.266735,142.312619 Z M108.877917,142.312619 C109.349507,142.177019 109.818076,142.034035 110.282953,141.882324 C117.937147,139.384469 124.596805,134.554567 129.647351,128.8869 L136.13415,128.8869 C136.041845,129.00169 135.949541,129.113459 135.857573,129.223885 C133.632876,131.897617 131.167181,133.975247 130.04577,135.239279 C129.268065,136.116314 129.620499,137.546153 129.620499,137.546153 L134.321297,142.312619 L128.828698,142.312619 L126.438524,139.922505 C126.438524,139.922505 125.304023,139.367687 124.510879,139.65634 C123.338448,140.083614 122.25463,141.055971 120.517299,142.009197 C120.333698,142.10989 120.143383,142.210583 119.949041,142.311276 L108.877917,142.312619 L108.877917,142.312619 Z M58.655075,142.312619 C58.9668951,141.94811 59.8268339,140.964676 60.8623184,139.958754 C62.3445548,138.519182 64.1285417,137.02255 64.1285417,137.02255 C64.1285417,137.02255 64.6998204,136.588899 65.2559947,136.598297 C65.8658732,136.608702 66.4646752,137.062827 66.4646752,137.062827 C66.4646752,137.062827 68.4748912,138.606784 70.5807678,139.991312 C71.9639871,140.900569 73.7550227,141.855808 73.7550227,141.855808 C73.7550227,141.855808 73.9970274,142.029 74.2329903,142.310269 L85.4158866,142.312619 C76.9306202,139.779185 70.9758295,135.290632 70.9758295,135.290632 C70.9758295,135.290632 67.7099417,133.135804 64.0677888,128.887235 L58.1338085,128.8869 C59.3586003,130.471806 60.5840634,131.826797 60.5840634,131.826797 C60.5840634,131.826797 60.9150156,132.417193 60.8841357,133.074381 C60.8545984,133.70539 60.4632289,134.404535 60.4632289,134.404535 L55.1867895,139.439179 C55.1867895,139.439179 54.430567,140.000374 53.6219829,139.84967 C52.9295341,139.720112 52.1659273,138.875299 52.1659273,138.875299 C52.1659273,138.875299 50.5306339,137.091692 49.1662111,135.100322 C47.6295992,132.858227 46.0355909,130.229472 45.2370763,128.887235 L3.4111912,128.8869 C4.68377976,133.519444 6.2814131,138.030486 8.15122613,142.312619 L58.655075,142.312619 L58.655075,142.312619 L58.655075,142.312619 Z" id="path20"></path>
                        <path d="M75.2050366,153.133412 L78.6286805,145.359921 C78.6286805,145.359921 78.9750727,145.005482 79.4953323,144.906132 C79.9088547,144.82692 80.5220898,144.997427 80.5220898,144.997427 C80.5220898,144.997427 82.5682205,145.869763 84.7821768,146.595423 C87.3895166,147.44997 90.2287914,148.179322 90.2287914,148.179322 C90.2287914,148.179322 90.7661693,148.485093 91.079332,149.062734 C91.4290807,149.709854 91.5576352,150.636228 91.5576352,150.636228 L91.4770788,156.798633 C91.4770788,156.798633 91.2854219,157.730378 90.728912,158.264386 C90.2942435,158.681926 89.4635063,158.731937 89.4635063,158.731937 C89.4635063,158.731937 86.0999441,158.469464 82.7340322,157.779718 C79.5174853,157.120851 76.292547,156.033367 76.292547,156.033367 C76.292547,156.033367 75.5161854,155.688662 75.1650941,154.986161 C74.6643023,154.18666 75.2050366,153.133412 75.2050366,153.133412 L75.2050366,153.133412 Z M95.5854515,157.080573 L95.7868423,149.870963 C95.7868423,149.870963 95.9506402,149.201019 96.3755748,148.729441 C96.6303342,148.445822 97.2368562,148.259876 97.2368562,148.259876 C97.2368562,148.259876 100.053978,148.237053 102.650577,147.910136 C104.995437,147.61477 107.185562,147.132116 107.185562,147.132116 C107.185562,147.132116 108.052886,147.044513 108.720832,147.36673 C109.062525,147.531531 109.401197,148.098768 109.401197,148.098768 L111.978664,154.382004 C111.978664,154.382004 112.212613,155.459082 111.695374,156.193469 C111.20633,156.88825 109.964756,157.241682 109.964756,157.241682 C109.964756,157.241682 106.978801,158.009298 103.757891,158.460066 C100.968292,158.850754 97.8813068,158.933323 97.8813068,158.933323 C97.8813068,158.933323 97.3402368,159.085705 96.4135034,158.360716 C95.4871056,157.635727 95.5854515,157.080573 95.5854515,157.080573 L95.5854515,157.080573 Z M8.15136039,142.312619 C10.107033,146.791774 12.3606298,151.020204 14.8516664,154.874057 C24.1576003,169.27079 36.1751609,178.558703 36.1751609,178.558703 C36.1751609,178.558703 47.9353776,188.367197 65.5533818,194.172142 C80.290826,199.028225 99.4652455,200.502704 116.048772,196.640125 C133.499622,192.575824 150.570179,182.620989 162.170626,170.994988 C174.398405,158.741335 180.69321,144.899755 180.69321,144.899755 L175.266735,142.312619 L137.990973,142.312619 C137.785554,142.501921 137.594569,142.681826 137.421037,142.84864 C136.536596,143.700502 135.340334,143.346063 135.340334,143.346063 L134.321297,142.312619 L128.828698,142.312619 L131.35246,144.836318 C131.35246,144.836318 131.753564,145.893593 131.708251,146.605492 C131.65354,147.452655 131.15107,147.977936 131.15107,147.977936 C131.15107,147.977936 128.450419,149.965614 125.089542,151.772716 C122.063645,153.399913 118.342614,154.86533 118.342614,154.86533 C118.342614,154.86533 117.70924,154.905271 117.16045,154.654882 C116.871454,154.522974 116.489818,154.01951 116.489818,154.01951 L113.952294,147.575165 C113.952294,147.575165 113.386386,145.729128 114.634673,144.963862 C115.90612,144.184835 118.126454,143.255104 119.949041,142.311276 L108.877917,142.312619 C101.741633,144.351314 93.864567,144.473152 87.3529306,142.846291 C86.694047,142.681826 86.0479181,142.503599 85.4158866,142.314632 L74.2329903,142.312619 C74.4014872,142.510984 74.5666277,142.767079 74.6384571,143.054725 C74.7864794,143.644785 74.3991377,144.433546 74.3991377,144.433546 L71.2980548,151.965375 C71.2980548,151.965375 70.9080279,152.658813 70.2310191,152.906853 C69.7251925,153.092464 68.881365,152.851472 68.881365,152.851472 C68.881365,152.851472 66.7922709,151.712971 64.6239632,150.160287 C61.8363786,148.164554 58.8118242,145.641861 58.8118242,145.641861 C58.8118242,145.641861 58.055266,145.03569 57.9844436,144.234174 C57.9142925,143.444742 58.5298771,142.459966 58.5298771,142.459966 C58.5298771,142.459966 58.5738474,142.40727 58.655075,142.312283 L8.15136039,142.312619 L8.15136039,142.312619 L8.15136039,142.312619 Z" id="path22"></path>
                    </g>
                </g>
            </g>
        </g>
    </g>
</svg>