<?xml version="1.0" encoding="UTF-8"?>
<svg width="200px" height="200px" viewBox="0 0 200 200" version="1.1" xmlns="http://www.w3.org/2000/svg" xmlns:xlink="http://www.w3.org/1999/xlink">
    <!-- Generator: Sketch 54.1 (76490) - https://sketchapp.com -->
    <title>long-beach-st</title>
    <desc>Created with Sketch.</desc>
    <g id="long-beach-st" stroke="none" stroke-width="1" fill="none" fill-rule="evenodd">
        <g id="long-beach-st_BGD" fill="#FFFFFF">
            <g id="long-beach-st" transform="translate(18.000000, 0.000000)">
                <path d="M162.887218,147.067669 L162.887218,147.067669 L162.796992,147.007519 C162.466165,146.706767 162.135338,146.466165 161.774436,146.195489 C161.654135,146.075188 161.533835,145.954887 161.383459,145.864662 C161.263158,145.744361 161.142857,145.654135 161.052632,145.56391 C160.87218,145.383459 160.661654,145.203008 160.541353,145.052632 C160.240602,144.691729 159.93985,144.270677 159.699248,143.819549 C159.218045,142.917293 158.887218,141.894737 158.556391,140.81203 L158.526316,140.691729 C157.744361,138.135338 156.81203,135.669173 155.789474,133.383459 C153.593985,128.481203 150.977444,124.601504 147.849624,121.533835 C145.022556,118.766917 141.654135,116.270677 137.172932,113.654135 C133.744361,111.669173 130.496241,110.075188 127.24812,108.781955 C127.518797,108.601504 127.819549,108.390977 128.090226,108.180451 C129.112782,107.428571 130.135338,106.616541 131.067669,105.774436 C133.233083,103.849624 134.917293,101.984962 136.180451,100.06015 C136.721805,99.2481203 137.172932,98.406015 137.593985,97.593985 C137.744361,97.2932331 137.924812,96.9924812 138.105263,96.6917293 C138.676692,95.6691729 139.18797,94.556391 139.699248,93.1428571 C140.090226,92.1203008 140.481203,91.0075188 140.932331,89.593985 C141.082707,89.1428571 141.203008,88.7218045 141.323308,88.3007519 C141.533835,87.5789474 141.714286,86.9172932 141.984962,86.2857143 C142.887218,84.2406015 144.030075,82.6165414 145.413534,81.443609 L145.503759,81.3533835 C145.924812,81.0225564 146.526316,80.5112782 146.766917,79.6691729 C147.067669,78.5864662 146.165414,77.7443609 145.62406,77.2631579 C145.593985,77.2330827 145.56391,77.2030075 145.533835,77.1729323 C144.721805,76.3609023 144.030075,75.5488722 143.458647,74.7368421 C142.195489,72.962406 141.323308,70.9473684 140.390977,68.8120301 L140.270677,68.5714286 C139.488722,66.7669173 138.37594,64.4210526 136.721805,62.2255639 C134.225564,58.9172932 130.857143,55.9398496 126.105263,52.8421053 C121.714286,49.9849624 117.142857,47.7593985 112.601504,46.2556391 C106.887218,44.3909774 100.661654,43.4285714 94.0150376,43.4586466 C89.924812,43.4586466 85.6240602,43.8496241 81.2932331,44.5714286 C78.7368421,44.9924812 76.1503759,45.5338346 73.593985,46.1654135 C72.3909774,46.4661654 71.0676692,46.7969925 69.7744361,47.2481203 C69.2030075,47.4586466 68.6015038,47.6691729 67.9699248,47.9398496 C67.7894737,48 67.6090226,48.0902256 67.4586466,48.1804511 C67.0977444,48.3609023 66.7669173,48.5112782 66.4360902,48.5413534 C66.2857143,48.5413534 65.8646617,48 65.6842105,47.7293233 C65.5338346,47.5488722 65.4135338,47.3684211 65.2631579,47.1879699 C64.5413534,46.3157895 63.6992481,45.443609 62.6766917,44.3909774 C60.7218045,42.4360902 58.9473684,40.8120301 57.2330827,39.4285714 C55.3383459,37.8947368 53.3233083,36.4511278 51.2781955,35.1879699 C49.8045113,34.2857143 48.2706767,33.4736842 46.7969925,32.6917293 C46.1052632,32.3308271 45.4135338,31.9699248 44.7218045,31.5789474 C44.3007519,31.3383459 43.2180451,30.8270677 42.1954887,30.8270677 C41.8947368,30.8270677 41.593985,30.887218 41.3233083,30.9774436 C40.9022556,31.1278195 39.9097744,31.6691729 40.2105263,33.3834586 C40.3609023,34.2556391 40.7518797,34.8270677 41.1428571,35.3082707 C42.6766917,37.1729323 44.1503759,39.0977444 45.5037594,41.112782 C51.1879699,49.4135338 55.0676692,58.1353383 57.0225564,67.0075188 C59.0676692,76.3308271 58.8571429,86.075188 56.4210526,95.1578947 C55.1879699,99.7593985 53.3233083,104.270677 50.887218,108.511278 C50.3157895,109.533835 49.6842105,110.496241 48.962406,111.639098 L48.8421053,111.849624 C48.6315789,112.210526 48.3909774,112.541353 48.1804511,112.81203 C48.1203008,112.87218 48.0601504,112.932331 48,112.992481 C47.6691729,113.323308 47.1578947,113.834586 47.0075188,114.616541 C46.7669173,115.789474 47.5488722,116.661654 47.8195489,116.992481 C48.1203008,117.353383 48.4511278,117.744361 48.7819549,118.255639 C49.5639098,119.368421 50.2857143,120.451128 50.887218,121.383459 C53.1729323,124.902256 55.037594,128.511278 56.4210526,132.120301 C57.5639098,135.12782 58.7368421,138.586466 58.9473684,142.135338 C57.112782,141.864662 55.2180451,141.503759 53.3834586,140.842105 C51.2180451,140.090226 49.2330827,139.037594 47.4586466,137.744361 C44.1503759,135.308271 41.5338346,131.93985 40.1503759,128.270677 C38.4360902,123.819549 38.406015,118.917293 38.3759398,114.195489 C38.3458647,108.421053 38.6466165,103.338346 39.3383459,98.7368421 C40.1804511,93.0827068 41.4736842,89.0526316 43.4887218,85.7443609 C44.1503759,84.6315789 44.7819549,83.8195489 45.443609,83.1278195 C45.8345865,82.7368421 46.1654135,82.4661654 46.4360902,82.2857143 C46.4661654,82.2556391 46.5263158,82.2255639 46.5864662,82.2255639 C47.0977444,81.9548872 48.6616541,81.1428571 48.1804511,79.6390977 C47.9097744,78.8270677 47.2180451,78.3759398 46.7368421,78.075188 C46.6766917,78.0150376 46.5864662,77.9849624 46.5263158,77.9548872 C46.1052632,77.6541353 45.7443609,77.3233083 45.3533835,76.9323308 C44.6616541,76.2406015 44.0300752,75.3984962 43.3684211,74.3759398 C40.7218045,70.3458647 39.5488722,65.443609 38.8270677,61.6541353 C37.9548872,57.112782 37.3834586,52.2406015 36.9924812,46.2857143 C36.3308271,35.3684211 37.5338346,26.2857143 40.7518797,18.4661654 C42.5263158,14.1052632 44.8721805,10.4360902 47.6992481,7.54887218 C49.2030075,6.01503759 50.9473684,4.66165414 53.0526316,3.42857143 C53.7443609,3.03759398 54.1353383,2.28571429 54.0451128,1.56390977 C53.9548872,0.872180451 53.4736842,0.30075188 52.7518797,0.0601503759 C52.2105263,0.030075188 51.7293233,0 51.3684211,0 C51.2180451,0 51.037594,0 50.887218,0 C50.7669173,0 50.6466165,0 50.5263158,0 L50.4661654,0 C50.1353383,0 49.8045113,0 49.4736842,0 C48.3909774,0 47.4285714,0.030075188 46.4661654,0.0902255639 C41.2030075,0.421052632 36.5112782,1.77443609 32.5413534,4.06015038 C31.6090226,4.60150376 30.6466165,5.23308271 29.593985,6.04511278 C29.0225564,6.46616541 28.6015038,6.82706767 28.2105263,7.21804511 C28,7.42857143 27.8195489,7.66917293 27.6691729,7.84962406 C27.6390977,7.90977444 27.6090226,7.93984962 27.5488722,8 C27.4285714,7.90977444 27.3383459,7.78947368 27.2481203,7.69924812 C27.0977444,7.54887218 26.9473684,7.39849624 26.7669173,7.2481203 C25.8045113,6.43609023 24.7819549,5.71428571 23.7293233,5.05263158 C21.5338346,3.69924812 19.1879699,2.67669173 16.7218045,2.01503759 C14.4962406,1.41353383 12.0902256,1.08270677 8.93233083,0.932330827 C7.66917293,0.872180451 6.52631579,0.842105263 5.41353383,0.842105263 L4.96240602,0.842105263 C4.5112782,0.842105263 4.06015038,0.842105263 3.60902256,0.872180451 L3.03759398,0.872180451 L2.85714286,0.872180451 C2.76691729,0.872180451 2.67669173,0.872180451 2.61654135,0.872180451 C2.2556391,0.872180451 1.77443609,0.902255639 1.32330827,1.11278195 C0.721804511,1.38345865 0.330827068,1.89473684 0.30075188,2.4962406 C0.270676692,3.18796992 0.631578947,3.81954887 1.35338346,4.27067669 C1.65413534,4.45112782 1.95488722,4.60150376 2.22556391,4.72180451 C2.43609023,4.81203008 2.64661654,4.93233083 2.82706767,5.02255639 C3.7593985,5.56390977 4.69172932,6.19548872 5.59398496,6.91729323 C13.3834586,13.0225564 16.6616541,21.8646617 18.0451128,28.2406015 C18.9172932,32.2105263 19.3684211,36.6616541 19.4586466,42.2556391 C19.5488722,47.6390977 19.3684211,52.8421053 18.887218,57.7142857 C18.6165414,60.3609023 18.2556391,62.9172932 17.7744361,65.3233083 C17.3834586,67.3383459 16.8120301,69.9548872 15.9097744,72.4511278 C15.1578947,74.5263158 14.1052632,76.1804511 12.8421053,77.4135338 C12.4210526,77.8045113 12.0300752,78.1353383 11.6390977,78.406015 C11.518797,78.4962406 11.3984962,78.556391 11.2180451,78.6466165 C10.8571429,78.8571429 10.406015,79.1278195 10.0150376,79.518797 C9.62406015,79.9398496 9.44360902,80.481203 9.5037594,81.0526316 C9.65413534,82.1052632 10.6766917,82.6766917 11.1578947,82.9473684 L11.1879699,82.9774436 C12.4210526,83.6691729 13.5037594,84.9022556 14.6165414,86.7969925 C15.6691729,88.6015038 16.5714286,90.6766917 17.3233083,92.962406 C18.9473684,97.9548872 19.6691729,103.24812 20.0902256,107.308271 C20.6315789,112.601504 20.8421053,117.834586 20.7218045,122.827068 C20.5714286,128.270677 19.8496241,133.022556 18.5263158,137.353383 C17.0225564,142.315789 14.8270677,146.225564 12.0601504,148.992481 C10.5864662,150.466165 8.7518797,151.759398 6.67669173,152.81203 C6.22556391,153.052632 5.71428571,153.293233 5.23308271,153.503759 L5.14285714,153.533835 C4.48120301,153.774436 3.4887218,154.135338 3.2481203,155.067669 C3.12781955,155.548872 3.21804511,156.06015 3.54887218,156.481203 C4.06015038,157.112782 4.81203008,157.142857 5.08270677,157.142857 L5.14285714,157.142857 C5.47368421,157.172932 5.80451128,157.172932 6.13533835,157.172932 C6.79699248,157.172932 7.4887218,157.172932 8.27067669,157.142857 C10.6165414,157.022556 13.3834586,156.842105 16.1203008,156.330827 C18.7067669,155.849624 21.1729323,155.037594 23.4586466,153.864662 C25.6842105,152.75188 27.7894737,151.308271 29.7744361,149.593985 C29.8947368,149.473684 30.0451128,149.353383 30.1654135,149.233083 C30.1954887,149.203008 30.1954887,149.203008 30.2255639,149.172932 C30.2255639,149.172932 30.2255639,149.172932 30.2255639,149.172932 C30.3458647,149.263158 30.4661654,149.353383 30.556391,149.413534 C31.3383459,149.954887 32.1503759,150.345865 32.962406,150.766917 C33.2932331,150.917293 33.6240602,151.097744 33.924812,151.24812 C37.9849624,153.413534 42.887218,155.849624 48.3007519,157.323308 C50.9473684,158.045113 53.593985,158.586466 55.8496241,159.007519 C56.4511278,159.12782 57.0526316,159.24812 57.6541353,159.338346 L57.924812,159.398496 C58.0451128,159.428571 58.1654135,159.428571 58.2556391,159.458647 C58.2556391,159.518797 58.2556391,159.609023 58.2556391,159.669173 C58.2556391,160.270677 58.2857143,160.87218 58.2857143,161.473684 L58.2857143,161.62406 C58.3157895,162.947368 58.2255639,164.030075 58.0150376,165.082707 C57.8045113,166.195489 57.5037594,167.398496 57.112782,168.75188 C56.3909774,171.278195 55.6390977,173.593985 54.7669173,175.759398 C53.0827068,180.06015 50.887218,184.330827 48.0601504,188.842105 C46.887218,190.706767 45.5338346,192.721805 43.7894737,195.18797 C43.6691729,195.368421 43.5488722,195.518797 43.4285714,195.699248 C43.2481203,195.969925 43.037594,196.210526 42.8571429,196.481203 C42.3157895,197.263158 42.3157895,197.924812 42.406015,198.345865 C42.5263158,198.857143 42.8571429,199.308271 43.3383459,199.578947 C43.6691729,199.789474 44.0601504,199.879699 44.4511278,199.879699 C45.2631579,199.879699 45.9548872,199.458647 46.4360902,199.157895 C46.5263158,199.097744 46.6466165,199.037594 46.7368421,198.977444 C51.3984962,196.631579 55.6992481,193.744361 59.5488722,190.406015 C60.5714286,189.533835 61.5338346,188.631579 62.3759398,187.879699 L64.2105263,186.195489 C66.2556391,187.037594 68.4210526,187.879699 70.7368421,188.601504 C75.8796992,190.195489 80.9924812,191.488722 85.9849624,192.511278 C91.7293233,193.654135 96.9022556,194.225564 101.864662,194.285714 C104.631579,194.315789 107.338346,194.165414 109.864662,193.864662 C112.270677,193.56391 114.827068,193.022556 117.714286,192.240602 C128.390977,189.293233 137.413534,184.75188 144.511278,178.736842 C148.06015,175.729323 151.037594,172.240602 153.353383,168.360902 C154.496241,166.466165 155.518797,164.421053 156.390977,162.315789 C156.81203,161.293233 157.203008,160.210526 157.56391,159.157895 C157.714286,158.706767 157.864662,158.225564 157.984962,157.774436 C158.165414,157.172932 158.345865,156.571429 158.526316,156.030075 C159.157895,154.285714 160.090226,152.902256 161.293233,151.909774 C161.56391,151.669173 161.894737,151.428571 162.225564,151.18797 L162.37594,151.097744 C162.857143,150.796992 163.639098,150.285714 163.879699,149.413534 C164.240602,148.150376 163.24812,147.368421 162.887218,147.067669 Z M102.315789,60.7819549 C107.518797,61.593985 111.729323,63.037594 115.24812,65.2030075 C115.969925,65.6541353 116.842105,66.2556391 117.473684,67.0075188 C118.015038,67.6992481 118.43609,68.5714286 118.646617,69.5338346 C119.037594,71.3082707 118.616541,73.2631579 117.533835,74.9473684 C116.992481,75.7593985 116.330827,76.5112782 115.518797,77.1428571 C115.157895,77.443609 114.766917,77.7142857 114.345865,77.9548872 C114.225564,78.0150376 114.075188,78.1052632 113.954887,78.1654135 C113.56391,78.3458647 113.112782,78.5864662 112.721805,78.9172932 C112.300752,79.3082707 112.090226,79.8496241 112.240602,80.3909774 C112.481203,81.4135338 113.533835,81.7142857 114.285714,81.924812 L114.37594,81.9548872 C115.458647,82.3458647 116.481203,82.8270677 117.383459,83.3984962 C118.616541,84.1804511 120.240602,85.5338346 120.962406,87.4285714 C121.56391,89.0526316 121.353383,90.9774436 120.360902,92.5714286 C119.368421,94.1654135 117.834586,95.3383459 115.93985,96.6917293 C114.075188,98.0150376 112,99.2180451 109.804511,100.180451 C105.714286,102.015038 101.022556,103.24812 95.8496241,103.819549 C93.4135338,104.090226 90.887218,104.240602 88.1203008,104.240602 C87.4887218,104.240602 86.887218,104.240602 86.2556391,104.240602 C83.6691729,104.180451 80.9323308,104.090226 78.1654135,103.729323 C80.0300752,94.0150376 79.9097744,83.8195489 77.8045113,74.1353383 L76.2406015,68.3609023 C76.1203008,68 76,67.6090226 75.8796992,67.2180451 C75.518797,66.0451128 75.1578947,64.8120301 74.7067669,63.6090226 C74.9473684,63.518797 75.1578947,63.4285714 75.3984962,63.3082707 L75.3984962,63.3082707 C75.6691729,63.1879699 75.9398496,63.0977444 76.2105263,62.9774436 C77.443609,62.4962406 78.7067669,62.1052632 79.6992481,61.8345865 C82.075188,61.1729323 84.5714286,60.7218045 87.0977444,60.4210526 C92.1804511,59.9097744 97.3533835,60 102.315789,60.7819549 Z M73.112782,63.3383459 C73.112782,63.3383459 73.0827068,63.2481203 73.0827068,63.3082707 C73.112782,63.3383459 73.112782,63.3383459 73.112782,63.3383459 Z M101.864662,174.947368 L101.593985,174.947368 C96.9022556,174.947368 91.9398496,174.315789 86.406015,173.052632 C84.5112782,172.631579 82.4962406,172.06015 80.2406015,171.338346 C79.3082707,171.037594 78.3759398,170.766917 77.443609,170.496241 C76.8120301,170.315789 76.1503759,170.105263 75.4887218,169.894737 C76.4210526,167.729323 77.0827068,165.804511 77.593985,163.93985 C77.9548872,162.586466 78.2857143,161.233083 78.4962406,160.210526 C78.5263158,160.030075 78.5864662,159.849624 78.6165414,159.669173 C78.7067669,159.308271 78.7969925,158.947368 78.8571429,158.556391 C80.2105263,158.496241 81.5639098,158.466165 82.9172932,158.466165 C86.7669173,158.466165 89.6842105,158.736842 92.3308271,159.398496 C95.518797,160.180451 99.9699248,161.834586 102.887218,165.233083 C103.488722,165.924812 103.969925,166.676692 104.330827,167.458647 L104.390977,167.609023 C104.721805,168.330827 105.353383,169.804511 106.857143,169.924812 C106.917293,169.924812 106.977444,169.924812 107.037594,169.924812 C107.368421,169.924812 109.022556,169.804511 109.082707,167.308271 C109.082707,166.857143 109.052632,166.43609 109.052632,166.045113 C109.022556,165.774436 109.022556,165.503759 109.022556,165.233083 C108.992481,162.827068 108.962406,160.090226 108.330827,157.443609 C107.669173,154.586466 106.586466,152.150376 105.082707,150.255639 C104.902256,150.015038 104.661654,149.804511 104.451128,149.593985 C104.270677,149.413534 103.969925,149.112782 103.879699,148.962406 C103.969925,148.781955 104.150376,148.541353 104.330827,148.330827 C104.451128,148.180451 104.571429,148.030075 104.661654,147.879699 C105.052632,147.308271 105.413534,146.706767 105.744361,146.075188 C106.917293,143.879699 107.729323,141.353383 108.210526,138.616541 C108.661654,135.969925 108.661654,133.353383 108.631579,130.706767 C108.631579,130.586466 108.631579,130.466165 108.631579,130.345865 C108.631579,129.864662 108.631579,129.293233 108.511278,128.721805 C108.300752,127.789474 107.548872,126.857143 106.496241,126.887218 C105.984962,126.887218 105.473684,127.12782 105.112782,127.548872 C104.601504,128.150376 104.541353,128.87218 104.511278,129.293233 C104.511278,129.383459 104.511278,129.443609 104.481203,129.503759 C104.421053,129.954887 104.270677,130.43609 104.06015,130.917293 C102.736842,134.015038 99.7894737,136.721805 95.7293233,138.526316 C93.8045113,139.398496 91.6691729,140.06015 89.2330827,140.541353 C87.0977444,140.992481 84.9323308,141.172932 82.6766917,141.383459 L81.6541353,141.473684 C81.0225564,141.533835 80.3909774,141.593985 79.7593985,141.684211 C79.7593985,141.684211 79.7593985,141.684211 79.7593985,141.654135 C79.6992481,140.902256 79.6090226,140.210526 79.518797,139.578947 C79.4285714,138.917293 79.3082707,138.285714 79.1879699,137.684211 C79.0676692,137.022556 78.9473684,136.421053 78.887218,135.789474 C78.7067669,134.315789 78.4962406,133.052632 78.2857143,131.849624 C78.0451128,130.466165 77.7443609,129.082707 77.5037594,127.93985 C77.4736842,127.789474 77.443609,127.639098 77.3834586,127.488722 C77.3533835,127.368421 77.3233083,127.218045 77.2932331,127.097744 C77.3233083,127.097744 77.3233083,127.097744 77.3533835,127.067669 C79.6691729,126.345865 82.1654135,125.62406 84.6616541,125.052632 C89.6842105,123.909774 94.7669173,123.308271 99.8195489,123.278195 L100.210526,123.278195 C105.263158,123.278195 110.195489,123.819549 114.887218,124.932331 C117.293233,125.503759 119.699248,126.225564 122.075188,127.097744 C123.969925,127.819549 126.43609,128.781955 128.75188,130.075188 C132.390977,132.090226 135.007519,134.977444 136.150376,138.165414 C136.932331,140.390977 136.902256,142.075188 136,143.368421 C135.548872,144.030075 134.857143,144.691729 133.894737,145.323308 C133.473684,145.62406 132.992481,145.864662 132.481203,146.105263 C132.150376,146.285714 131.819549,146.466165 131.458647,146.646617 C131.157895,146.796992 130.496241,147.18797 130.285714,147.93985 C130.165414,148.360902 130.225564,148.781955 130.43609,149.172932 C130.827068,149.834586 131.518797,150.015038 131.819549,150.105263 L132,150.135338 C132.240602,150.195489 132.481203,150.255639 132.661654,150.345865 C133.714286,150.766917 134.766917,151.428571 135.729323,152.240602 C137.413534,153.684211 138.315789,155.639098 138.165414,157.473684 L138.165414,157.473684 C138.165414,157.533835 138.165414,157.593985 138.135338,157.654135 L138.135338,157.654135 C138.135338,157.654135 138.135338,157.654135 138.135338,157.654135 L138.135338,157.654135 C138.045113,158.646617 137.744361,159.578947 137.263158,160.330827 L137.082707,160.601504 C136.541353,161.503759 136,162.37594 135.338346,163.037594 C133.954887,164.451128 132.210526,165.744361 129.834586,167.157895 C128.781955,167.789474 127.639098,168.360902 126.556391,168.902256 C126.225564,169.052632 125.924812,169.233083 125.593985,169.383459 C124.75188,169.804511 123.969925,170.195489 123.157895,170.556391 C121.052632,171.458647 118.736842,172.270677 116.240602,172.932331 C111.518797,174.255639 106.616541,174.917293 101.864662,174.947368 Z M139.729323,157.804511 C139.849624,156.721805 139.669173,158.37594 139.729323,157.804511 L139.729323,157.804511 Z M160.631579,147.037594 C160.300752,146.706767 161.203008,147.488722 160.631579,147.037594 L160.631579,147.037594 Z" id="Shape" fill-rule="nonzero"></path>
            </g>
        </g>
    </g>
</svg>