<?xml version="1.0" encoding="UTF-8"?>
<svg width="200px" height="200px" viewBox="0 0 200 200" version="1.1" xmlns="http://www.w3.org/2000/svg" xmlns:xlink="http://www.w3.org/1999/xlink">
    <!-- Generator: Sketch 54.1 (76490) - https://sketchapp.com -->
    <title>louisville</title>
    <desc>Created with Sketch.</desc>
    <g id="louisville" stroke="none" stroke-width="1" fill="none" fill-rule="evenodd">
        <g id="louisville_BGD" transform="translate(0.000000, 0.000000)">
            <g id="louisville" transform="translate(11.000000, 0.000000)">
                <g id="g10" transform="translate(89.500000, 100.010209) scale(-1, 1) rotate(-180.000000) translate(-89.500000, -100.010209) translate(0.000000, 0.507722)" fill-rule="nonzero">
                    <g id="g12">
                        <path d="M156.102615,69.8257701 C158.031667,69.5033878 159.918562,68.9945593 161.711282,68.2836911 C160.594104,69.9342478 158.634454,72.3702512 155.741555,74.3916663 C155.960163,73.3990949 156.186591,71.8088789 156.102615,69.8257701" id="path14" fill="#FFFFFF"></path>
                        <path d="M154.172543,61.8387569 C156.304904,62.7238675 158.571217,63.8442393 160.997322,65.2639418 C160.111671,65.6815811 158.389327,66.3514312 155.755155,66.7904271 C155.465151,65.2639418 154.960619,63.5960964 154.172543,61.8387569" id="path16" fill="#FFFFFF"></path>
                        <path d="M147.754722,77.7022715 C148.227635,76.03985 148.829402,73.3218045 148.833482,70.3322255 C150.416093,70.359684 152.027943,70.3040891 153.627214,70.1522203 C153.523519,72.1119386 153.139681,74.2221698 152.291428,76.3374858 C150.923345,76.9395373 149.412129,77.4171784 147.754722,77.7022715" id="path18" fill="#FFFFFF"></path>
                        <path d="M138.099601,59.715644 C138.267212,61.0594121 138.49296,63.2713412 138.561296,65.8470097 C136.477552,65.3863182 134.236397,64.7818938 131.842591,64.0272955 C132.927471,62.2072423 135.011554,60.5431258 138.099601,59.715644" id="path20" fill="#FFFFFF"></path>
                        <path d="M139.061748,59.4929256 C140.769812,59.1505427 142.760061,59.0674895 145.019235,59.3197002 C145.352756,60.7641492 146.010959,63.9110209 146.226847,67.0565366 C144.643896,66.9185664 142.932431,66.6900852 141.085655,66.3534652 C140.80857,63.4852457 139.758369,60.9255099 139.061748,59.4929256" id="path22" fill="#FFFFFF"></path>
                        <path d="M139.115465,77.4893839 C139.73729,75.7801814 140.676997,72.8112811 141.033977,69.6508497 C142.675406,69.8983146 144.431068,70.1051003 146.247586,70.2278157 C146.044277,73.486894 145.093011,76.3469777 144.403869,78.017196 C142.377582,78.0856725 140.62872,77.8870227 139.115465,77.4893839" id="path24" fill="#FFFFFF"></path>
                        <path d="M136.434035,76.4381668 C132.802698,74.4737025 131.218726,70.9522437 130.977,67.324341 C132.160133,67.7067251 134.89766,68.5165792 138.465421,69.20304 C138.113541,72.2326201 137.029681,75.0611773 136.434035,76.4381668" id="path26" fill="#FFFFFF"></path>
                        <path d="M148.599235,67.2023035 C148.082464,63.5998253 146.979905,60.8655081 146.338701,59.5091973 C148.177318,59.810562 150.180146,60.3326112 152.350585,61.1258547 C152.731704,62.2285988 153.366448,64.3839161 153.584036,67.0741642 C152.131637,67.2117953 150.47015,67.2687462 148.599235,67.2023035" id="path28" fill="#FFFFFF"></path>
                        <path d="M121.084232,105.132226 C119.753547,102.046373 116.680799,99.8852929 113.102159,99.8852929 C108.297887,99.8852929 104.407485,103.765406 104.407485,108.551987 C104.407485,112.173788 106.63572,115.266081 109.797543,116.56273 L109.800943,116.56273 C107.307183,118.829237 105.763669,120.056391 105.753809,120.074019 C101.131768,117.926837 97.923027,113.261277 97.923027,107.841119 C97.923027,100.383952 103.985568,94.3329272 111.46345,94.3329272 C116.891927,94.3329272 121.548987,97.521495 123.707866,102.110782 C122.824935,103.158948 121.947104,104.165418 121.089332,105.136294 L121.084232,105.132226" id="path30" fill="#FFFFFF"></path>
                        <path d="M117.54299,105.607494 C118.435441,105.607494 119.241535,105.945809 119.849422,106.501418 C118.179435,108.332997 116.570985,110.014742 115.084248,111.510039 C114.455623,110.886292 114.066345,110.026267 114.066345,109.074375 C114.066345,107.161438 115.622438,105.607494 117.54299,105.607494" id="path32" fill="#FFFFFF"></path>
                        <path d="M149.885043,106.468197 C131.233345,108.581479 127.401079,88.9287014 127.401079,88.9287014 C127.401079,88.9287014 105.595718,87.3527231 106.901245,66.5131309 C108.222411,45.410819 132.558591,47.5220672 142.479577,49.892984 C152.397162,52.2720366 160.202446,60.4482078 160.202446,60.4482078 C137.05484,48.9716011 125.41491,57.8067746 125.41491,66.7751724 C125.41491,75.7425532 132.430078,86.2899802 148.695109,82.0725688 C164.96218,77.8541404 169.588982,62.6865783 169.588982,62.6865783 C177.392905,77.5897258 168.533001,104.361017 149.885043,106.468197" id="path34" fill="#FAB20B"></path>
                        <path d="M136.316741,132.388277 C121.226345,139.58442 99.4393422,145.603918 80.0203076,157.248326 C60.5941333,168.893751 43.5335469,184.729129 43.5335469,184.729129 C43.5335469,184.729129 36.051925,160.125359 48.3922153,141.54685 C48.3922153,141.54685 40.6457483,141.938048 36.5805955,147.431768 C36.5805955,147.431768 36.446303,135.267005 48.5207281,122.967663 C48.5207281,122.967663 43.2717615,122.967663 34.0864949,130.03092 C34.0864949,130.03092 24.7697576,123.22767 20.4378897,118.12447 C20.4378897,118.12447 24.8992224,116.946131 26.3438696,116.162718 C26.3438696,116.162718 17.0261464,106.608201 11.379266,96.0099253 C11.379266,96.0099253 16.8928058,96.1428106 19.2562178,95.881786 C19.2562178,95.881786 12.0382512,75.3371176 25.1603278,61.0733108 L95.9623566,21.0151906 C95.9623566,21.0151906 87.4978497,42.2686933 100.36987,48.300056 C100.36987,48.300056 88.0244802,48.300056 82.2424234,56.9403086 C82.2424234,56.9403086 92.4867308,55.1070347 99.0565236,60.3485439 C99.0565236,60.3485439 87.2360643,60.6105854 81.1912021,69.2562619 C81.1912021,69.2562619 90.6470937,67.423327 98.0042825,72.3997436 C98.0042825,72.3997436 89.3385068,75.8035719 83.8182353,81.8278158 C83.8182353,81.8278158 92.0287764,80.7288007 99.2676518,83.5946472 C90.2193976,86.7425358 83.8182353,94.4973388 83.8182353,103.570824 C83.8182353,113.430435 91.3705732,121.728643 101.661458,124.257192 C99.5294372,127.706106 95.2640356,132.258104 86.7077338,136.317544 C86.7077338,136.317544 99.8442596,135.006998 107.198389,130.293639 C114.556597,125.574518 117.709581,117.456315 124.543539,116.406115 C132.660585,115.159299 133.209655,119.814011 132.157074,123.742939 C132.157074,123.742939 140.140507,117.745815 130.859026,107.37941 C132.647666,109.199463 138.66465,114.27351 149.57192,113.414841 C149.57192,113.414841 151.411557,125.189422 136.316741,132.388277" id="path36" fill="#EE2722"></path>
                        <path d="M130.977,67.324341 C131.218726,70.9522437 132.802698,74.4737025 136.434035,76.4381668 C137.029681,75.0611773 138.113541,72.2326201 138.465421,69.20304 C134.89766,68.5165792 132.160133,67.7067251 130.977,67.324341 L130.977,67.324341 Z M138.561296,65.8470097 C138.49296,63.2713412 138.267212,61.0594121 138.099601,59.715644 C135.011554,60.5431258 132.927471,62.2072423 131.842591,64.0272955 C134.236397,64.7818938 136.477552,65.3863182 138.561296,65.8470097 Z M146.226847,67.0565366 C146.010959,63.9110209 145.352756,60.7641492 145.019235,59.3197002 C142.760061,59.0674895 140.769812,59.1505427 139.061748,59.4929256 C139.758369,60.9255099 140.80857,63.4852457 141.085655,66.3534652 C142.932431,66.6900852 144.643896,66.9185664 146.226847,67.0565366 L146.226847,67.0565366 Z M141.033977,69.6508497 C140.676997,72.8112811 139.73729,75.7801814 139.115465,77.4893839 C140.62872,77.8870227 142.377582,78.0856725 144.403869,78.017196 C145.093011,76.3469777 146.044277,73.486894 146.247586,70.2278157 C144.431068,70.1051003 142.675406,69.8983146 141.033977,69.6508497 L141.033977,69.6508497 Z M153.584036,67.0741642 C153.366448,64.3839161 152.731704,62.2285988 152.350585,61.1258547 C150.180146,60.3326112 148.177318,59.810562 146.338701,59.5091973 C146.979905,60.8655081 148.082464,63.5998253 148.599235,67.2023035 C150.47015,67.2687462 152.131637,67.2117953 153.584036,67.0741642 Z M148.833482,70.3322255 C148.829402,73.3218045 148.227635,76.03985 147.754722,77.7022715 C149.412129,77.4171784 150.923345,76.9395373 152.291428,76.3374858 C153.139681,74.2221698 153.523519,72.1119386 153.627214,70.1522203 C152.027943,70.3040891 150.416093,70.359684 148.833482,70.3322255 L148.833482,70.3322255 Z M169.588982,62.6865783 C169.588982,62.6865783 164.96218,77.8541404 148.695109,82.0725688 C132.430078,86.2899802 125.41491,75.7425532 125.41491,66.7751724 C125.41491,57.8067746 137.05484,48.9716011 160.202446,60.4482078 C160.202446,60.4482078 152.397162,52.2720366 142.479577,49.892984 C132.558591,47.5220672 108.222411,45.410819 106.901245,66.5131309 C105.595718,87.3527231 127.401079,88.9287014 127.401079,88.9287014 C127.401079,88.9287014 131.233345,108.581479 149.885043,106.468197 C168.533001,104.361017 177.392905,77.5897258 169.588982,62.6865783 Z M160.997322,65.2639418 C158.571217,63.8442393 156.304904,62.7238675 154.172543,61.8387569 C154.960619,63.5960964 155.465151,65.2639418 155.755155,66.7904271 C158.389327,66.3514312 160.111671,65.6815811 160.997322,65.2639418 Z M156.102615,69.8257701 C156.186591,71.8088789 155.960163,73.3990949 155.741555,74.3916663 C158.634454,72.3702512 160.594104,69.9342478 161.711282,68.2836911 C159.918562,68.9945593 158.031667,69.5033878 156.102615,69.8257701 Z M97.923027,107.841119 C97.923027,113.261277 101.131768,117.926837 105.753809,120.074019 C105.763669,120.056391 107.307183,118.829237 109.800943,116.56273 L109.797543,116.56273 C106.63572,115.266081 104.407485,112.173788 104.407485,108.551987 C104.407485,103.765406 108.297887,99.8852929 113.102159,99.8852929 C116.680799,99.8852929 119.753547,102.046373 121.084232,105.132226 L121.089332,105.136294 C121.947104,104.165418 122.824935,103.158948 123.707866,102.110782 C121.548987,97.521495 116.891927,94.3329272 111.46345,94.3329272 C103.985568,94.3329272 97.923027,100.383952 97.923027,107.841119 L97.923027,107.841119 Z M119.849422,106.501418 C119.241535,105.945809 118.435441,105.607494 117.54299,105.607494 C115.622438,105.607494 114.066345,107.161438 114.066345,109.074375 C114.066345,110.026267 114.455623,110.886292 115.084248,111.510039 C116.570985,110.014742 118.179435,108.332997 119.849422,106.501418 L119.849422,106.501418 Z M95.9623566,21.0151906 L25.1603278,61.0733108 C12.0382512,75.3371176 19.2562178,95.881786 19.2562178,95.881786 C16.8928058,96.1428106 11.379266,96.0099253 11.379266,96.0099253 C17.0261464,106.608201 26.3438696,116.162718 26.3438696,116.162718 C24.8992224,116.946131 20.4378897,118.12447 20.4378897,118.12447 C24.7697576,123.22767 34.0864949,130.03092 34.0864949,130.03092 C43.2717615,122.967663 48.5207281,122.967663 48.5207281,122.967663 C36.446303,135.267005 36.5805955,147.431768 36.5805955,147.431768 C40.6457483,141.938048 48.3922153,141.54685 48.3922153,141.54685 C36.051925,160.125359 43.5335469,184.729129 43.5335469,184.729129 C43.5335469,184.729129 60.5941333,168.893751 80.0203076,157.248326 C99.4393422,145.603918 121.226345,139.58442 136.316741,132.388277 C151.411557,125.189422 149.57192,113.414841 149.57192,113.414841 C138.66465,114.27351 132.647666,109.199463 130.859026,107.37941 C140.140507,117.745815 132.157074,123.742939 132.157074,123.742939 C133.209655,119.814011 132.660585,115.159299 124.543539,116.406115 C117.709581,117.456315 114.556597,125.574518 107.198389,130.293639 C99.8442596,135.006998 86.7077338,136.317544 86.7077338,136.317544 C95.2640356,132.258104 99.5294372,127.706106 101.661458,124.257192 C91.3705732,121.728643 83.8182353,113.430435 83.8182353,103.570824 C83.8182353,94.4973388 90.2193976,86.7425358 99.2676518,83.5946472 C92.0287764,80.7288007 83.8182353,81.8278158 83.8182353,81.8278158 C89.3385068,75.8035719 98.0042825,72.3997436 98.0042825,72.3997436 C90.6470937,67.423327 81.1912021,69.2562619 81.1912021,69.2562619 C87.2360643,60.6105854 99.0565236,60.3485439 99.0565236,60.3485439 C92.4867308,55.1070347 82.2424234,56.9403086 82.2424234,56.9403086 C88.0244802,48.300056 100.36987,48.300056 100.36987,48.300056 C87.4978497,42.2686933 95.9623566,21.0151906 95.9623566,21.0151906 L95.9623566,21.0151906 Z M174.645519,96.2594242 C170.447434,104.142027 164.182604,109.761514 156.942028,112.376505 C157.160636,113.945026 158.810564,129.892611 139.527862,139.086778 C133.759744,141.834655 127.189271,144.371 120.23598,147.055146 C108.705864,151.506463 95.6346149,156.551356 83.8573331,163.613258 C65.3623668,174.698327 48.7726541,190.008605 48.6070833,190.164203 L39.8688917,198.262745 C39.8688917,198.262745 33.7599771,185.938995 33.9846706,163.442066 C31.8858319,166.279098 30.3646889,167.819143 30.3646889,167.819143 C30.3646889,167.819143 26.7675199,150.683049 31.0766431,137.036209 C16.7771443,126.389797 7.14463268,113.954518 7.14463268,113.954518 C7.14463268,113.954518 10.2337,113.140935 13.2858114,112.335148 C5.59017156,101.888741 0,88.5391985 0,88.5391985 C0,88.5391985 7.192604,89.1436229 10.1641059,88.5544532 C10.1641059,88.5544532 1.98995298,63.4032094 27.8492375,49.313984 L115.317815,1.14979632 C114.479082,4.36412758 102.725599,38.9841905 122.141573,41.6686757 C131.458413,40.0350687 140.719155,41.8354603 144.21824,42.6724339 C154.016492,45.0223331 161.690543,51.5798129 164.504226,54.2503995 C166.109616,49.3004243 166.785498,47.0712066 166.785498,47.0712066 C180.997044,60.3956639 180.956586,84.4122982 174.645519,96.2594242 L174.645519,96.2594242 Z" id="path38" fill="#231F20"></path>
                        <path d="M130.340895,8.62869292 C130.031172,8.79581645 129.53514,8.88093759 128.851778,8.88093759 L127.798177,8.88093759 L127.798177,6.42628956 L128.911275,6.42628956 C129.433146,6.42628956 129.825484,6.47608762 130.085229,6.5781923 C130.565963,6.76185869 130.807009,7.11580124 130.807009,7.63622323 C130.807009,8.12867831 130.651978,8.45919644 130.340895,8.62869292 L130.340895,8.62869292 Z M129.012249,9.73716601 C129.871721,9.73716601 130.503066,9.65519751 130.903224,9.48902316 C131.620924,9.19386199 131.977904,8.61479421 131.977904,7.75036216 C131.977904,7.13512384 131.755216,6.6842632 131.307121,6.39503441 C131.069814,6.24184349 130.738333,6.13099279 130.313357,6.06214332 C130.849167,5.97712388 131.241505,5.75267665 131.489351,5.388666 C131.736857,5.02424857 131.86027,4.67003483 131.86027,4.32321113 L131.86027,3.81936589 C131.86027,3.65912392 131.86639,3.48793247 131.876929,3.30690345 C131.889849,3.12482694 131.909227,3.00578278 131.936766,2.9479133 L131.977904,2.8640939 L130.847467,2.8640939 C130.840327,2.88554537 130.834548,2.90924776 130.829788,2.93030261 C130.823668,2.95360838 130.817888,2.97942947 130.812789,3.00790149 L130.78729,3.229969 L130.78729,3.77302555 C130.78729,4.56725216 130.568682,5.09336924 130.131127,5.34656308 C129.871721,5.49578778 129.417507,5.56968825 128.766443,5.56968825 L127.798177,5.56968825 L127.798177,2.8640939 L126.587845,2.8640939 L126.587845,9.73716601 L129.012249,9.73716601 Z M125.293537,10.0806676 C124.242996,9.03006059 123.717385,7.76226082 123.717385,6.27269185 C123.717385,4.77397007 124.239936,3.49772937 125.284358,2.44273582 C126.334899,1.38616256 127.611868,0.856353848 129.113224,0.856353848 C130.6139,0.856353848 131.891548,1.38616256 132.94107,2.44273582 C133.992291,3.49772937 134.517222,4.77397007 134.517222,6.27269185 C134.517222,7.76226082 133.992291,9.03006059 132.94107,10.0806676 C131.884749,11.135512 130.6088,11.664002 129.113224,11.664002 C127.622747,11.664002 126.349858,11.135512 125.293537,10.0806676 Z M133.575814,1.84102331 C132.348823,0.613895912 130.864806,0 129.124103,0 C127.3834,0 125.901423,0.613895912 124.681571,1.84102331 C123.465799,3.06285564 122.858593,4.54423454 122.858593,6.28248874 C122.858593,8.00460688 123.471239,9.47526005 124.698231,10.69655 C125.920462,11.9142805 127.39394,12.520366 129.124103,12.520366 C130.864806,12.520366 132.348823,11.9142805 133.575814,10.69655 C134.801786,9.48095513 135.416471,8.01003077 135.416471,6.28248874 C135.416471,4.54965843 134.801786,3.06854733 133.575814,1.84102331 L133.575814,1.84102331 Z" id="path40" fill="#231F20"></path>
                    </g>
                </g>
            </g>
        </g>
    </g>
</svg>