<?xml version="1.0" encoding="UTF-8"?>
<svg width="200px" height="200px" viewBox="0 0 200 200" version="1.1" xmlns="http://www.w3.org/2000/svg" xmlns:xlink="http://www.w3.org/1999/xlink">
    <!-- Generator: Sketch 54.1 (76490) - https://sketchapp.com -->
    <title>maryland</title>
    <desc>Created with Sketch.</desc>
    <g id="maryland" stroke="none" stroke-width="1" fill="none" fill-rule="evenodd">
        <g id="maryland_BGD" transform="translate(0.000000, -0.000000)">
            <g id="maryland" transform="translate(9.000000, 0.000000)">
                <g id="g10" transform="translate(91.433617, 100.066561) scale(-1, 1) rotate(-180.000000) translate(-91.433617, -100.066561) translate(0.391117, 0.525277)" fill-rule="nonzero">
                    <g id="g12" transform="translate(0.078224, 0.627451)">
                        <polyline id="path16" fill="#231F20" points="179.165514 26.1882346 123.324867 26.1882346 123.324867 91.4564683 100.928689 40.8282343 79.0519146 40.8282343 56.6385273 91.4745075 56.6385273 26.1882346 1.57307514 26.1882346 15.9669864 57.8588221 15.975591 162.643133 2.76129052 197.946662 54.6203603 197.946662 89.9656612 116.020389 125.337558 197.946662 176.978384 197.946662 163.994843 162.828231 163.994843 57.8988221 179.165514 26.1882346"></polyline>
                        <polyline id="path18" fill="#FCD213" points="172.816893 30.1952934 127.319742 30.1952934 127.319742 110.374115 98.330103 44.835293 81.6489357 44.835293 52.641305 110.38588 52.641305 30.1952934 7.78636992 30.1952934 19.9634264 56.9874496 19.972031 163.370976 8.53184014 193.939603 51.9951787 193.939603 89.9640967 105.930978 127.960393 193.939603 171.232866 193.939603 159.996839 163.547447 159.996839 56.9874496 172.816893 30.1952934"></polyline>
                        <polyline id="path20" fill="#FFFFFF" points="168.197793 33.1113717 157.08927 56.3254888 157.08927 164.0698 167.056512 191.025093 129.871394 191.025093 89.9640967 98.5913701 50.0857424 191.025093 12.7261857 191.025093 22.8803818 163.898819 22.870995 56.3552927 12.3045609 33.1113717 49.7337365 33.1113717 49.7337365 124.141173 83.5395984 47.7498027 96.4370936 47.7498027 130.227311 124.131762 130.227311 33.1113717 168.197793 33.1113717"></polyline>
                        <polyline id="path22" fill="#231F20" points="140.03967 13.3074506 130.32509 13.3074506 138.344566 8.11058803 138.344566 2.83372542 148.198384 2.83372542 140.03967 8.31764685 140.03967 13.3074506"></polyline>
                        <polyline id="path24" fill="#231F20" points="160.071933 9.9458821 168.391788 4.44784303 168.391788 2.83372542 172.644801 2.83372542 170.091585 4.54901949 170.091585 13.3074506 158.401079 13.3074506 158.401079 12.3788232 156.983668 13.3074506 148.35796 13.3074506 148.35796 2.83372542 160.071933 2.83372542 160.071933 9.9458821"></polyline>
                        <polyline id="path26" fill="#231F20" points="119.936223 13.3074506 119.936223 2.83372542 130.023147 2.83372542 130.023147 13.3074506 119.936223 13.3074506"></polyline>
                        <polyline id="path28" fill="#FCD213" points="130.32509 13.3074506 130.023147 13.3074506 130.023147 2.83372542 138.344566 2.83372542 138.344566 8.11058803 130.32509 13.3074506"></polyline>
                        <polyline id="path30" fill="#FCD213" points="140.03967 13.3074506 140.03967 8.31764685 148.198384 2.83372542 148.35796 2.83372542 148.35796 13.3074506 140.03967 13.3074506"></polyline>
                        <polygon id="path32" fill="#FCD213" points="158.401079 13.3074506 156.983668 13.3074506 158.401079 12.3788232"></polygon>
                        <polyline id="path34" fill="#FCD213" points="160.071933 9.9458821 160.071933 2.83372542 168.391788 2.83372542 168.391788 4.44784303 160.071933 9.9458821"></polyline>
                        <polyline id="path36" fill="#FCD213" points="172.644801 2.83372542 175.633722 2.83372542 171.99711 8.16078411 175.599303 13.3074506 170.091585 13.3074506 170.091585 4.54901949 172.644801 2.83372542"></polyline>
                        <path d="M61.2967383,8.11215666 C61.3045607,9.86509779 63.8679457,11.3113723 67.4114715,11.5247056 C67.5491449,12.1741173 67.7486149,12.773333 67.9973657,13.3074506 L60.8915405,13.3074506 L60.8845004,8.11215666 L61.2967383,8.11215666" id="path38" fill="#FFFFFF"></path>
                        <path d="M85.8941266,12.068235 L85.8941266,13.3074506 L74.1950158,13.3074506 C74.371801,12.9239212 74.5321592,12.5152938 74.6565346,12.068235 L85.8941266,12.068235" id="path40" fill="#FFFFFF"></path>
                        <path d="M119.446544,8.11215666 C119.446544,8.11058803 119.446544,8.11058803 119.446544,8.10196058 C119.446544,6.34274494 116.883159,4.90117635 113.333376,4.68235282 C113.185533,4.00235284 112.975112,3.38274501 112.712281,2.83372542 L119.936223,2.83372542 L119.936223,8.11215666 L119.446544,8.11215666" id="path42" fill="#FFFFFF"></path>
                        <path d="M94.7208694,4.13568617 L94.7208694,2.83372542 L106.578774,2.83372542 C106.387909,3.23450972 106.218163,3.66666658 106.088312,4.13568617 L94.7208694,4.13568617" id="path44" fill="#FFFFFF"></path>
                        <path d="M74.6565346,4.13568617 C74.5259013,3.66666658 74.3545918,3.23450972 74.1652909,2.83372542 L85.8941266,2.83372542 L85.8941266,4.13568617 L74.6565346,4.13568617" id="path46" fill="#E51635"></path>
                        <path d="M61.2951739,8.10196058 C61.2951739,8.11058803 61.2967383,8.11058803 61.2967383,8.11215666 L60.8845004,8.11215666 L60.8782425,2.83372542 L68.0294374,2.83372542 C67.7666063,3.38274501 67.556185,4.00235284 67.4114715,4.68235282 C63.8616878,4.90117635 61.2951739,6.34274494 61.2951739,8.10196058" id="path48" fill="#E51635"></path>
                        <path d="M119.446544,8.11215666 L119.936223,8.11215666 L119.936223,13.3074506 L112.745917,13.3074506 C112.993885,12.773333 113.191791,12.1741173 113.333376,11.5247056 C116.876119,11.3113723 119.434811,9.86039191 119.446544,8.11215666" id="path50" fill="#E51635"></path>
                        <path d="M106.088312,12.068235 C106.210341,12.5152938 106.369917,12.9239212 106.549831,13.3074506 L94.7208694,13.3074506 L94.7208694,12.068235 L106.088312,12.068235" id="path52" fill="#E51635"></path>
                        <path d="M61.2967383,8.11215666 C61.2967383,8.11058803 61.2951739,8.11058803 61.2951739,8.10196058 C61.2951739,6.34274494 63.8616878,4.90117635 67.4114715,4.68235282 C67.556185,4.00235284 67.7666063,3.38274501 68.0294374,2.83372542 L74.1652909,2.83372542 C74.3545918,3.23450972 74.5259013,3.66666658 74.6565346,4.13568617 L85.8941266,4.13568617 L85.8941266,2.83372542 L90.3106269,2.83372542 L90.3106269,8.11215666 L61.2967383,8.11215666" id="path54" fill="#FFFFFF"></path>
                        <path d="M119.446544,8.10196058 C119.446544,8.11058803 119.446544,8.11058803 119.446544,8.11215666 L90.3106269,8.11215666 L90.3106269,2.83372542 L94.7208694,2.83372542 L94.7208694,4.13568617 L106.088312,4.13568617 C106.218163,3.66666658 106.387909,3.23450972 106.578774,2.83372542 L112.712281,2.83372542 C112.975112,3.38274501 113.185533,4.00235284 113.333376,4.68235282 C116.883159,4.90117635 119.446544,6.34274494 119.446544,8.10196058" id="path56" fill="#E51635"></path>
                        <path d="M119.446544,8.11215666 C119.434811,9.86039191 116.876119,11.3113723 113.333376,11.5247056 C113.191791,12.1741173 112.993885,12.773333 112.745917,13.3074506 L106.549831,13.3074506 C106.369917,12.9239212 106.210341,12.5152938 106.088312,12.068235 L94.7208694,12.068235 L94.7208694,13.3074506 L90.3106269,13.3074506 L90.3106269,8.11215666 L119.446544,8.11215666" id="path58" fill="#FFFFFF"></path>
                        <path d="M61.2967383,8.11215666 L90.3106269,8.11215666 L90.3106269,13.3074506 L85.8941266,13.3074506 L85.8941266,12.068235 L74.6565346,12.068235 C74.5321592,12.5152938 74.371801,12.9239212 74.1950158,13.3074506 L67.9973657,13.3074506 C67.7486149,12.773333 67.5491449,12.1741173 67.4114715,11.5247056 C63.8679457,11.3113723 61.3045607,9.86509779 61.2967383,8.11215666" id="path60" fill="#E51635"></path>
                        <polyline id="path62" fill="#231F20" points="5.15493046 13.3074506 8.7594706 8.16705862 5.11660093 2.83372542 11.8344375 2.83372542 11.8344375 13.3074506 5.15493046 13.3074506"></polyline>
                        <polyline id="path64" fill="#231F20" points="51.9247775 13.3074506 40.2319246 13.3074506 40.2319246 12.3788232 38.8090387 13.3074506 30.1802014 13.3074506 30.1802014 2.83372542 41.9004325 2.83372542 41.9004325 9.9458821 50.2218513 4.44784303 50.2218513 2.83372542 54.4811224 2.83372542 51.9247775 4.54901949 51.9247775 13.3074506"></polyline>
                        <polyline id="path66" fill="#231F20" points="21.8564358 13.3074506 12.1363803 13.3074506 20.1558563 8.11058803 20.1558563 2.83372542 30.0214076 2.83372542 21.8564358 8.31764685 21.8564358 13.3074506"></polyline>
                        <polyline id="path68" fill="#FCD213" points="12.1363803 13.3074506 11.8344375 13.3074506 11.8344375 2.83372542 20.1558563 2.83372542 20.1558563 8.11058803 12.1363803 13.3074506"></polyline>
                        <polyline id="path70" fill="#FCD213" points="21.8564358 13.3074506 21.8564358 8.31764685 30.0214076 2.83372542 30.1809836 2.83372542 30.1809836 13.3074506 21.8564358 13.3074506"></polyline>
                        <polygon id="path72" fill="#FCD213" points="40.2319246 13.3074506 38.8090387 13.3074506 40.2319246 12.3788232"></polygon>
                        <polyline id="path74" fill="#FCD213" points="41.9012147 9.9458821 41.9012147 2.83372542 50.2226336 2.83372542 50.2226336 4.44784303 41.9012147 9.9458821"></polyline>
                        <polyline id="path76" fill="#FCD213" points="60.8915405 13.3074506 51.9247775 13.3074506 51.9247775 4.54901949 54.4819046 2.83372542 60.8790247 2.83372542 60.8852826 8.11215666 60.8915405 13.3074506"></polyline>
                        <path d="M5.11660093,2.83372542 L175.633722,2.83372542 L171.99711,8.16078411 L175.599303,13.3074506 L5.15493046,13.3074506 L8.7594706,8.16705862 L5.11660093,2.83372542 Z M180.701824,0.053333332 L0.0406762343,0.053333332 L4.81778706,8.14666646 L0.0578854103,16.0862741 L180.701824,16.0862741 L175.9341,8.15215666 L180.701824,0.053333332 L180.701824,0.053333332 Z" id="path78" fill="#231F20"></path>
                    </g>
                </g>
            </g>
        </g>
    </g>
</svg>