<?xml version="1.0" encoding="UTF-8"?>
<svg width="200px" height="200px" viewBox="0 0 200 200" version="1.1" xmlns="http://www.w3.org/2000/svg" xmlns:xlink="http://www.w3.org/1999/xlink">
    <!-- Generator: Sketch 54.1 (76490) - https://sketchapp.com -->
    <title>michigan-st</title>
    <desc>Created with Sketch.</desc>
    <g id="michigan-st" stroke="none" stroke-width="1" fill="none" fill-rule="evenodd">
        <g id="michigan-st_BGD" transform="translate(-0.000000, 0.000000)" fill="#FFFFFF">
            <g id="michigan-st" transform="translate(14.000000, 0.000000)">
                <g id="g10" transform="translate(86.500000, 99.876411) scale(-1, 1) rotate(-180.000000) translate(-86.500000, -99.876411) translate(0.000000, 0.313092)" fill-rule="nonzero">
                    <g id="g12">
                        <path d="M161.785456,184.986071 C161.785456,184.986071 146.284329,151.775009 146.143822,151.846197 C117.170755,166.342255 83.1380881,165.630822 54.6890527,148.868195 C35.7189788,137.33322 22.6497827,117.866136 21.4546506,94.3747745 C20.5105322,75.8107146 26.409024,61.4073754 25.5589088,46.6067935 C25.096515,38.5580172 23.5922441,33.4257222 19.9012682,26.6196472 C15.162627,18.7537827 9.48419745,11.9417975 0,11.4156708 C2.10999572,14.0359338 16.7505176,21.2169724 10.992688,54.195489 C8.71010214,67.2737343 -9.36078935,99.7010769 8.10428457,140.35846 C24.0557425,177.479768 93.0555837,221.460542 161.785456,184.986071" id="path14"></path>
                        <path d="M82.7247395,119.893436 C91.6617747,123.096424 101.6725,123.155527 111.162729,121.065829 C129.073914,117.920186 142.482891,107.16893 149.019146,91.203645 C155.858288,74.4974852 160.771415,61.0187016 172.519044,46.7397203 C172.853081,46.3295146 154.172197,49.4690054 154.240241,49.9840146 C158.810715,83.0887348 127.346289,84.4560139 118.66884,72.0558055 C125.196479,64.9133487 136.405054,61.2461054 145.103933,62.6432656 C143.258776,29.7635323 152.478152,-0.0695187701 151.957655,0.000858257099 C144.461044,1.0307676 110.109805,21.1311521 100.066383,29.8595472 C85.3102121,27.2445133 73.7523565,21.8220422 56.6601359,19.4729939 C56.1354416,19.4017627 59.7979182,32.0120835 59.2705729,38.3005126 C59.2705729,55.5926492 45.9462096,71.8009375 55.3750214,93.0428693 C61.0266971,105.780998 69.5512673,115.178158 82.7247395,119.893436" id="path16"></path>
                        <path d="M95.0869791,129.866246 C96.088869,129.852624 97.607721,129.619947 97.6353364,129.726508 C97.9201074,130.869679 98.8548365,139.066762 105.879554,145.045395 C113.693854,151.69789 123.965049,151.038748 123.859889,151.100488 C113.626472,154.212514 103.078239,154.431349 95.7972495,153.791982 L95.0869791,129.866246" id="path18"></path>
                        <path d="M29.9955029,100.031526 C28.4404194,90.1804377 29.3733811,82.4750742 30.9344295,76.2681588 C30.9509988,76.2011461 30.6401589,84.5219281 35.4461377,89.2578594 C39.6359598,93.3860623 44.975249,94.1928515 46.8670205,94.1258387 C46.8670205,94.151765 47.8187607,97.3494799 47.6842181,97.3571698 L29.9955029,100.031526" id="path20"></path>
                        <path d="M49.8053086,101.862182 C50.3213869,103.17629 50.9488108,104.331546 51.7160795,105.827357 L33.5329366,112.839304 C32.4024689,110.586358 31.55147,107.209137 31.1286216,105.378482 L49.8053086,101.862182" id="path22"></path>
                        <path d="M54.1937413,108.757461 C54.2436701,108.814147 57.1139136,112.452388 57.1658307,112.415476 L40.5050745,124.872151 C38.7703799,122.689514 37.3551413,120.29683 36.2220225,117.764848 L54.1937413,108.757461" id="path24"></path>
                        <path d="M60.396843,115.540246 C60.4883055,115.633844 64.099086,118.889124 64.099086,118.889124 L49.6656847,135.213201 C46.4094871,132.402403 45.4206316,131.133995 43.4373976,128.739334 L60.396843,115.540246" id="path26"></path>
                        <path d="M67.8919078,121.20315 C67.9210697,121.002331 72.0393124,123.495424 72.1307749,123.679105 L61.4100001,143.094556 C57.307222,141.125041 54.6864016,139.012712 53.4876684,138.16989 L67.8919078,121.20315" id="path28"></path>
                        <path d="M75.844285,125.502949 C80.9608829,127.232317 80.9383487,127.285487 80.9383487,127.19123 L74.8534413,149.006395 C71.4585035,148.0201 66.8743322,146.068602 65.7955607,145.346622 L75.844285,125.502949" id="path30"></path>
                        <path d="M84.9012819,128.459638 C85.0859743,128.366919 89.5148361,129.442418 89.5709507,129.443956 L90.1360741,153.089118 C89.950498,152.905437 84.616511,152.101284 80.0893381,150.835293 L84.9012819,128.459638" id="path32"></path>
                        <path d="M157.912218,5.28772061 L157.013057,5.28772061 L157.013057,3.77718812 L157.956182,3.77718812 C158.167827,3.77718812 158.354949,3.84156427 158.510259,3.98574047 C158.665568,4.11877719 158.743334,4.30759924 158.743334,4.52645618 C158.743334,5.03454438 158.445528,5.28772061 157.912218,5.28772061 Z M158.33352,3.40213663 L159.166182,1.72166429 L158.655406,1.72166429 L157.856103,3.3566339 L157.013057,3.3566339 L157.013057,1.72166429 L156.522827,1.72166429 L156.522827,5.69797025 L157.900288,5.69797025 C158.311869,5.69797025 158.622488,5.58639957 158.845179,5.37784722 C159.078254,5.16755912 159.187832,4.89120309 159.187832,4.52645618 C159.187832,3.9642964 158.943491,3.6098321 158.33352,3.40213663 Z M157.84572,6.96817977 C156.035248,6.96817977 154.570744,5.5091482 154.570744,3.7110982 C154.570744,1.91047975 156.035248,0.451443783 157.84572,0.451443783 C159.653761,0.451443783 161.120917,1.91047975 161.120917,3.7110982 C161.120917,5.5091482 159.653761,6.96817977 157.84572,6.96817977 L157.84572,6.96817977 Z M157.84572,0.000858257099 C155.767709,0.000858257099 154.116082,1.64699455 154.116082,3.7110982 C154.116082,5.77522163 155.767709,7.42048264 157.84572,7.42048264 C159.9213,7.42048264 161.575578,5.77522163 161.575578,3.7110982 C161.575578,1.64699455 159.9213,0.000858257099 157.84572,0.000858257099 L157.84572,0.000858257099 Z" id="path34"></path>
                    </g>
                </g>
            </g>
        </g>
    </g>
</svg>