<?xml version="1.0" encoding="UTF-8"?>
<svg width="200px" height="200px" viewBox="0 0 200 200" version="1.1" xmlns="http://www.w3.org/2000/svg" xmlns:xlink="http://www.w3.org/1999/xlink">
    <!-- Generator: Sketch 54.1 (76490) - https://sketchapp.com -->
    <title>milwaukee</title>
    <desc>Created with Sketch.</desc>
    <defs>
        <path d="M5.92837311,9.53482442 C5.92837311,9.53482442 7.85831266,-0.999582603 0.0392915633,0.111191922 C0.0392915633,0.111191922 5.19837722,5.91393257 5.92837311,9.53482442 Z" id="path-1"></path>
        <linearGradient x1="-1394.088%" y1="-145.08194%" x2="36.9299027%" y2="47.7092114%" id="linearGradient-3">
            <stop stop-color="#A7A5A6" offset="0%"></stop>
            <stop stop-color="#444141" offset="100%"></stop>
        </linearGradient>
        <path d="M30.3822013,10.8933223 L23.6054406,10.8496676 C23.5035928,6.01737176 20.7123408,-3.11862904 0.00206797702,1.08657975 C0.00206797702,1.08657975 19.5847763,4.8405689 21.6356925,17.2256424 L30.3822013,10.8933223 Z" id="path-4"></path>
        <linearGradient x1="144.427616%" y1="83.039671%" x2="-40.585062%" y2="9.10245809%" id="linearGradient-6">
            <stop stop-color="#A7A5A6" offset="0%"></stop>
            <stop stop-color="#444141" offset="100%"></stop>
        </linearGradient>
        <path d="M0.0242987299,7.21316622 C0.0242987299,7.21316622 8.68033353,14.7426857 37.9194606,0.0292938944 C37.9194606,0.0292938944 11.9260235,9.7996662 0.0242987299,7.21316622 L0.0242987299,7.21316622 Z" id="path-7"></path>
        <linearGradient x1="-2.71763598%" y1="60.5496885%" x2="105.917952%" y2="37.5506751%" id="linearGradient-9">
            <stop stop-color="#E7E6E6" offset="0%"></stop>
            <stop stop-color="#B3B2B2" offset="100%"></stop>
        </linearGradient>
        <path d="M5.92837311,9.53482442 C5.92837311,9.53482442 7.85831266,-0.999582603 0.0392915633,0.111191922 C0.0392915633,0.111191922 5.19837722,5.91393257 5.92837311,9.53482442 Z" id="path-10"></path>
        <linearGradient x1="77.2181703%" y1="87.3353713%" x2="14.3536747%" y2="-64.3467793%" id="linearGradient-12">
            <stop stop-color="#A7A5A6" offset="0%"></stop>
            <stop stop-color="#444141" offset="100%"></stop>
        </linearGradient>
        <path d="M8.51644635,0.491232073 C2.15793402,4.0377705 6.97787145,8.80273722 1.17512794,12.8008595 L0.0444615058,14.4197244 C2.49656525,14.1646126 4.69482482,13.7225505 6.35024042,11.9034673 C6.35024042,11.9034673 8.3313624,10.5904973 8.41563247,5.90966596 C8.49990253,1.23008341 14.0803385,2.16561488 14.0803385,2.16561488 C14.0803385,2.16561488 11.4912313,-1.16764526 8.51644635,0.491232073 Z" id="path-13"></path>
        <linearGradient x1="188.434537%" y1="-66.3784676%" x2="31.1538571%" y2="59.8558253%" id="linearGradient-15">
            <stop stop-color="#C8C7C7" offset="0%"></stop>
            <stop stop-color="#4F4C4D" offset="100%"></stop>
        </linearGradient>
        <path d="M0.0299856667,1.68208351 C0.0299856667,1.68208351 3.17486171,2.43612813 5.47445216,4.70481797 L6.44174841,5.3722817 C6.44174841,5.3722817 5.5607902,1.54997481 3.01872945,0.0379832023 C3.01872945,0.0379832023 1.11980955,0.601019137 0.0299856667,1.68208351 Z" id="path-16"></path>
        <linearGradient x1="59.8048702%" y1="60.802173%" x2="-454.903241%" y2="-480.492689%" id="linearGradient-18">
            <stop stop-color="#F7F7F7" offset="0%"></stop>
            <stop stop-color="#3B3839" offset="100%"></stop>
        </linearGradient>
        <path d="M3.08490471,0.0369945984 C5.09084242,-0.0349653589 7.56931287,5.26353527 7.56931287,5.26353527 C4.89386761,3.07148824 0.00568693679,1.48555947 0.00568693679,1.48555947 C0.00568693679,1.48555947 0.613155185,0.125396599 3.08490471,0.0369945984 L3.08490471,0.0369945984 Z" id="path-19"></path>
        <linearGradient x1="91.9002051%" y1="89.3707664%" x2="-344.419002%" y2="-291.802374%" id="linearGradient-21">
            <stop stop-color="#F7F7F7" offset="0%"></stop>
            <stop stop-color="#3B3839" offset="100%"></stop>
        </linearGradient>
        <path d="M12.5014381,22.008404 C12.5014381,22.008404 -10.1801339,19.1863041 13.7158576,0.049378163 C13.7158576,0.049378163 -16.2537824,20.1944199 12.5014381,22.008404 Z" id="path-22"></path>
        <linearGradient x1="101.634845%" y1="2.628006%" x2="-1.24661029%" y2="143.14067%" id="linearGradient-24">
            <stop stop-color="#A7A5A6" offset="0%"></stop>
            <stop stop-color="#444141" offset="100%"></stop>
        </linearGradient>
        <polygon id="path-25" points="19.9508083 0.0335605007 0.0134418506 8.39215441 0.23574938 9.53139032"></polygon>
        <linearGradient x1="2.53863707%" y1="49.9991783%" x2="101.299917%" y2="49.9991783%" id="linearGradient-27">
            <stop stop-color="#E7E6E6" offset="0%"></stop>
            <stop stop-color="#B3B2B2" offset="100%"></stop>
        </linearGradient>
        <path d="M12.9744878,3.60850828 L12.3871823,3.87069644 L0.576965588,9.14500229 C0.404806501,8.86959806 0.221273541,8.59721167 0.0201627759,8.33299427 L3.1583179,7.09115168 L3.1583179,7.05561397 L20.963083,0.0414693319 L12.9744878,3.60850828 L12.9744878,3.60850828 Z" id="path-28"></path>
        <linearGradient x1="4.73968748%" y1="49.9997142%" x2="99.3292849%" y2="49.9997142%" id="linearGradient-30">
            <stop stop-color="#E7E6E6" offset="0%"></stop>
            <stop stop-color="#B3B2B2" offset="100%"></stop>
        </linearGradient>
        <path d="M0.0407908466,2.12659104 C-0.915855321,25.2342185 18.4918505,44.6963431 18.4918505,44.6963431 C-0.163370184,25.2077864 9.25574813,0.026015892 9.25574813,0.026015892 C9.25574813,0.026015892 5.23373963,0.742493558 0.0407908466,2.12659104 Z" id="path-31"></path>
        <linearGradient x1="58.8528981%" y1="121.737409%" x2="45.8355724%" y2="12.0458463%" id="linearGradient-33">
            <stop stop-color="#A7A5A6" offset="0%"></stop>
            <stop stop-color="#444141" offset="100%"></stop>
        </linearGradient>
        <path d="M28.5934012,0.033300493 C28.5934012,0.033300493 -2.11243852,4.57775636 2.03282141,36.9929854 C2.03282141,36.9929854 -5.12496404,19.4078554 7.45505714,2.00951953 C16.0433657,0.547374368 23.4337986,0.0290857673 28.5934012,0.033300493 L28.5934012,0.033300493 Z" id="path-34"></path>
        <linearGradient x1="-11.1623092%" y1="138.057181%" x2="106.385113%" y2="-92.89371%" id="linearGradient-36">
            <stop stop-color="#A7A5A6" offset="0%"></stop>
            <stop stop-color="#444141" offset="100%"></stop>
        </linearGradient>
        <path d="M0.0367582915,4.35360343 C17.6531307,40.4099647 56.9593249,46.8577434 56.9593249,46.8577434 C14.8662215,34.0196291 9.80210766,0.00265362098 9.80210766,0.00265362098 C9.80210766,0.00265362098 4.57679503,1.85748266 0.0367582915,4.35360343 Z" id="path-37"></path>
        <linearGradient x1="62.1908233%" y1="88.137166%" x2="37.5051883%" y2="17.2811889%" id="linearGradient-39">
            <stop stop-color="#A7A5A6" offset="0%"></stop>
            <stop stop-color="#444141" offset="100%"></stop>
        </linearGradient>
        <path d="M2.98362554,4.24953986 C20.5999979,40.3059012 59.9061922,46.7536798 59.9061922,46.7536798 C59.9061922,46.7536798 18.0435131,41.7326127 0.0314849501,6.07471078 C3.34086857,3.46073802 12.1992549,0.0276288773 12.1992549,0.0276288773 C12.1992549,0.0276288773 12.2039079,0.0551016593 12.2111458,0.0957384826 C10.7659917,0.634735733 6.65206167,2.23330823 2.98362554,4.24953986 Z" id="path-40"></path>
        <linearGradient x1="56.1662713%" y1="67.5216027%" x2="-6.30688584%" y2="-70.07443%" id="linearGradient-42">
            <stop stop-color="#A7A5A6" offset="0%"></stop>
            <stop stop-color="#444141" offset="100%"></stop>
        </linearGradient>
        <path d="M6.08088642,9.22471499 C6.08088642,9.22471499 17.0902791,8.03266681 26.8924901,1.42931311 L25.1269547,0.00936572112 C25.1269547,0.00936572112 18.712607,5.46697955 0.0475634714,6.32342271 C0.0475634714,6.32342271 1.4842905,8.28085842 6.08088642,9.22471499 Z" id="path-43"></path>
        <linearGradient x1="118.413096%" y1="47.2683684%" x2="-39.3610014%" y2="54.4004187%" id="linearGradient-45">
            <stop stop-color="#E7E6E6" offset="0%"></stop>
            <stop stop-color="#8F8D8D" offset="100%"></stop>
        </linearGradient>
        <path d="M0.0242987299,7.21316622 C0.0242987299,7.21316622 8.68033353,14.7426857 37.9194606,0.0292938944 C37.9194606,0.0292938944 11.9260235,9.7996662 0.0242987299,7.21316622 L0.0242987299,7.21316622 Z" id="path-46"></path>
        <linearGradient x1="-5.63172758%" y1="57.3712712%" x2="67.4107423%" y2="46.8908452%" id="linearGradient-48">
            <stop stop-color="#E7E6E6" offset="0%"></stop>
            <stop stop-color="#B3B2B2" offset="100%"></stop>
        </linearGradient>
        <path d="M0.0320536438,0.0452676521 C0.723791956,0.305426572 1.63473583,0.564544856 2.78970099,0.751859279 C1.84722047,0.610332826 0.909392893,0.385555519 0.0320536438,0.0452676521 Z" id="path-49"></path>
        <linearGradient x1="-6107.7709%" y1="-86.4070209%" x2="1578.24334%" y2="83.8522903%" id="linearGradient-51">
            <stop stop-color="#EBEBEB" offset="0%"></stop>
            <stop stop-color="#535051" offset="100%"></stop>
        </linearGradient>
        <path d="M12.6508494,0.0249752563 L17.0752862,2.64581622 C13.4170349,3.86335996 6.99855122,4.98204332 6.99855122,4.98204332 C20.425926,7.00243749 21.327047,7.67104592 30.9746767,4.83479337 L31.2926282,4.9201255 C31.2926282,4.9201255 17.452175,10.3824222 4.92075131,8.92605255 C-8.85611157,7.32555487 10.5751175,0.713876077 12.6508494,0.0249752563 L12.6508494,0.0249752563 Z" id="path-52"></path>
        <linearGradient x1="-72.0595486%" y1="52.9525588%" x2="84.623488%" y2="48.7713107%" id="linearGradient-54">
            <stop stop-color="#A7A5A6" offset="0%"></stop>
            <stop stop-color="#444141" offset="100%"></stop>
        </linearGradient>
        <path d="M5.54114442,2.26598419 C12.3070482,3.05270477 19.4529428,1.82215308 24.5975526,0.522919429 C25.3673571,0.368905349 26.1599093,0.206045865 26.9814131,0.0301784347 C26.9814131,0.0301784347 11.3040794,6.03828853 2.1145065,4.13392524 C-0.645725823,3.56157562 -0.102881857,1.66449677 0.656582703,0.357458356 C0.799273117,1.18684499 2.18016477,1.87574581 5.54114442,2.26598419 L5.54114442,2.26598419 Z" id="path-55"></path>
        <linearGradient x1="4.27762544%" y1="50.7363389%" x2="115.420979%" y2="46.4672407%" id="linearGradient-57">
            <stop stop-color="#C4C3C3" offset="0%"></stop>
            <stop stop-color="#444141" offset="100%"></stop>
        </linearGradient>
        <path d="M8.06562736,29.0795234 C8.06562736,29.0795234 -3.74562337,13.8855661 8.62036219,0.0197200461 C8.62036219,0.0197200461 -10.3781427,14.537004 8.06562736,29.0795234 Z" id="path-58"></path>
        <linearGradient x1="-86.975455%" y1="8.83668964%" x2="129.155784%" y2="71.897275%" id="linearGradient-60">
            <stop stop-color="#A7A5A6" offset="0%"></stop>
            <stop stop-color="#444141" offset="100%"></stop>
        </linearGradient>
        <path d="M12.509193,3.48410029 C12.509193,3.48410029 16.8628016,2.68733758 18.6453978,2.88672338 C18.6453978,2.88672338 8.99673401,-2.12232444 0.0387745691,1.09428045 C0.0387745691,1.09428045 6.96649757,0.17643978 12.509193,3.48410029 Z" id="path-61"></path>
        <linearGradient x1="161.461517%" y1="57.9472446%" x2="-39.4951375%" y2="43.939645%" id="linearGradient-63">
            <stop stop-color="#A7A5A6" offset="0%"></stop>
            <stop stop-color="#444141" offset="100%"></stop>
        </linearGradient>
        <path d="M0.0403255518,4.85768735 C0.0403255518,4.85768735 15.8758596,-1.71600824 24.9801284,0.475050188 L27.5537258,2.66558829 L22.8025486,1.67074058 C22.8025486,1.67074058 16.1803692,1.61922912 0.0403255518,4.85768735 L0.0403255518,4.85768735 Z" id="path-64"></path>
        <linearGradient x1="101.661092%" y1="49.1618171%" x2="-258.012327%" y2="53.7369704%" id="linearGradient-66">
            <stop stop-color="#A7A5A6" offset="0%"></stop>
            <stop stop-color="#444141" offset="100%"></stop>
        </linearGradient>
        <path d="M22.3693074,42.5110082 C22.3693074,42.5110082 -0.862553213,24.1331739 0.0343284185,1.06561094 C1.30179153,0.698786859 2.59587985,0.342889457 3.91664507,0.000624381408 C2.99536131,23.0823921 22.3693074,42.5110082 22.3693074,42.5110082 Z" id="path-67"></path>
        <linearGradient x1="56.1406172%" y1="93.0668978%" x2="9.85693162%" y2="-155.27094%" id="linearGradient-69">
            <stop stop-color="#A7A5A6" offset="0%"></stop>
            <stop stop-color="#444141" offset="100%"></stop>
        </linearGradient>
        <polygon id="path-70" points="0.0465294829 0.0188875376 47.6492924 10.4323727 43.5696908 10.876464"></polygon>
        <linearGradient x1="107.238586%" y1="53.159513%" x2="2.86697945%" y2="47.2042033%" id="linearGradient-72">
            <stop stop-color="#FFFFFF" offset="0%"></stop>
            <stop stop-color="#B3B2B2" offset="100%"></stop>
        </linearGradient>
        <polygon id="path-73" points="0.0480804656 0.0396482194 55.8927658 12.4032846 51.8121302 12.8473759"></polygon>
        <linearGradient x1="88.1029088%" y1="52.0949184%" x2="-0.857449684%" y2="46.9909307%" id="linearGradient-75">
            <stop stop-color="#FFFFFF" offset="0%"></stop>
            <stop stop-color="#B3B2B2" offset="100%"></stop>
        </linearGradient>
        <polygon id="path-76" points="0.0398085576 0.00936572112 59.7852155 13.6554816 55.7050969 14.0985842"></polygon>
        <linearGradient x1="75.0802593%" y1="51.4244674%" x2="-8.07672006%" y2="46.5187478%" id="linearGradient-78">
            <stop stop-color="#FFFFFF" offset="0%"></stop>
            <stop stop-color="#B3B2B2" offset="100%"></stop>
        </linearGradient>
        <path d="M0.00827190807,0.0154534398 C0.00827190807,0.0154534398 1.73761769,1.16686479 3.05388506,3.54794329 C1.98525794,4.29688879 0.882509192,4.43305597 0.361895978,4.45033052 C0.588856455,3.56011873 0.807545025,1.89348865 0.00827190807,0.0154534398 L0.00827190807,0.0154534398 Z" id="path-79"></path>
        <linearGradient x1="49.9239462%" y1="80.1429007%" x2="270.684895%" y2="841.035268%" id="linearGradient-81">
            <stop stop-color="#F7F7F7" offset="0%"></stop>
            <stop stop-color="#3B3839" offset="100%"></stop>
        </linearGradient>
        <path d="M0.034638615,1.59612701 C0.034638615,1.59612701 0.147860357,1.34408504 0.258497127,0.912169205 C0.779110341,0.894894653 1.88185908,0.758727474 2.95048621,0.00978197539 C3.18985455,0.442686418 3.41681503,0.910139966 3.61585781,1.42437009 C3.61585781,1.42437009 2.42160109,1.08189688 0.034638615,1.59612701 L0.034638615,1.59612701 Z" id="path-82"></path>
        <linearGradient x1="408.22867%" y1="-46.9828089%" x2="-401.177999%" y2="184.379486%" id="linearGradient-84">
            <stop stop-color="#F7F7F7" offset="0%"></stop>
            <stop stop-color="#3B3839" offset="100%"></stop>
        </linearGradient>
        <path d="M3.63446961,2.77209736 C3.63446961,2.77209736 2.0152436,2.34325139 0.139588449,2.42863555 C0.139588449,2.42863555 0.160268219,1.894061 0.0429105231,1.12882955 C0.4678798,0.983504781 1.22217442,0.654247652 1.81309885,0.0282532587 C2.59944711,0.76705256 3.31703513,1.68983625 3.63446961,2.77209736 Z" id="path-85"></path>
        <linearGradient x1="459.162228%" y1="-190.714034%" x2="-537.669498%" y2="424.267214%" id="linearGradient-87">
            <stop stop-color="#F7F7F7" offset="0%"></stop>
            <stop stop-color="#3B3839" offset="100%"></stop>
        </linearGradient>
        <path d="M1.23199731,3.15806913 C1.09602782,2.27092721 0.774457393,1.07377993 0.0103398851,0.0270565277 C0.0103398851,0.0270565277 1.61353907,0.754668995 3.00218563,2.05749283 C2.4112612,2.68348723 1.65696658,3.01274436 1.23199731,3.15806913 L1.23199731,3.15806913 Z" id="path-88"></path>
        <linearGradient x1="14.3966699%" y1="-51.9484836%" x2="449.566715%" y2="1026.00083%" id="linearGradient-90">
            <stop stop-color="#F7F7F7" offset="0%"></stop>
            <stop stop-color="#3B3839" offset="100%"></stop>
        </linearGradient>
        <path d="M0.104443182,0.0474393928 C0.294212903,0.0826363616 0.490055255,0.113242421 0.678306818,0.154560602 C0.623653139,0.226484843 0.564444986,0.298409083 0.509791306,0.370333324 L0.104443182,0.0474393928 Z" id="path-91"></path>
        <linearGradient x1="-112221.058%" y1="-9519.26553%" x2="-3578.20106%" y2="-258.077088%" id="linearGradient-93">
            <stop stop-color="#EBEBEB" offset="0%"></stop>
            <stop stop-color="#535051" offset="100%"></stop>
        </linearGradient>
        <path d="M30.3822013,10.8933223 L23.6054406,10.8496676 C23.5035928,6.01737176 20.7123408,-3.11862904 0.00206797702,1.08657975 C0.00206797702,1.08657975 19.5847763,4.8405689 21.6356925,17.2256424 L30.3822013,10.8933223 Z" id="path-94"></path>
        <linearGradient x1="81.512176%" y1="63.0713301%" x2="-13.8393207%" y2="8.68938694%" id="linearGradient-96">
            <stop stop-color="#A7A5A6" offset="0%"></stop>
            <stop stop-color="#444141" offset="100%"></stop>
        </linearGradient>
        <path d="M60.5653599,1.82423435 L62.7708574,0.227899214 C64.7468094,0.0052031784 67.3659023,-0.134242003 69.6685947,0.265362098 C68.6894076,1.00889629 61.8873142,5.69175685 44.715867,6.47951806 L39.6131337,6.47951806 L45.6593815,12.1067555 L44.6574467,11.9184004 C44.6574467,11.9184004 43.641036,12.2264286 41.8113933,12.7009585 C40.4082709,12.5667165 39.051161,12.1291292 37.516722,11.7071514 L34.9581175,9.5285806 C25.8538487,7.33752218 10.0183147,13.9112178 10.0183147,13.9112178 L2.69509105,15.9029945 L11.6018681,10.724271 L8.45595802,8.44423823 L8.29465581,8.28762256 C3.3113482,7.7142323 0.427554248,6.64601977 0.427554248,6.64601977 L0.0294686725,6.54351716 C2.38747947,5.99406152 5.43619458,5.12981359 8.2414054,3.87584759 C10.2700909,5.03459542 13.2453928,5.95711895 17.4154684,5.58249011 L14.0979163,9.18360988 C14.0979163,9.18360988 22.4318637,6.53363112 31.8003166,6.45922567 C31.8003166,6.45922567 36.081546,6.4805587 38.3707965,7.38226951 L33.9391218,3.68697221 C33.9391218,3.68697221 47.6725572,4.1968837 60.3135837,0.655600478 C60.4143975,1.03647314 60.4991846,1.42567088 60.5653599,1.82423435 L60.5653599,1.82423435 Z" id="path-97"></path>
        <linearGradient x1="-215.229547%" y1="44.7620696%" x2="89.1550111%" y2="50.766992%" id="linearGradient-99">
            <stop stop-color="#EBEBEB" offset="0%"></stop>
            <stop stop-color="#535051" offset="100%"></stop>
        </linearGradient>
        <path d="M55.2170543,1.03454796 C55.2170543,1.03454796 65.1691937,2.9440624 71.6269689,8.52629235 L71.3689888,8.66657004 C71.3689888,8.66657004 45.3755517,18.4369423 33.473827,15.8504424 C33.473827,15.8504424 31.6167836,16.3645164 29.0307783,16.5924156 C30.3594536,15.5392923 31.398612,14.3259111 31.940939,12.9337487 L0.0134418506,3.88105077 L0.247640248,3.93084519 L36.8487655,13.0617989 L40.8673618,12.6237953 L40.9474959,12.6410699 L45.4494819,12.1644588 L11.3139023,2.29569434 L14.6712629,3.04365124 L47.9863727,11.2864224 L50.4684621,11.0161173 L50.4839719,11.0191351 L55.1653549,10.5404947 L22.5383645,0.0294499897 L57.3594785,8.84337404 L61.4395972,8.40027137 L58.5459803,7.73868724 C58.935794,4.18387575 55.2170543,1.03454796 55.2170543,1.03454796 L55.2170543,1.03454796 Z" id="path-100"></path>
        <linearGradient x1="-184.903587%" y1="45.2893415%" x2="111.083245%" y2="51.2076138%" id="linearGradient-102">
            <stop stop-color="#EBEBEB" offset="0%"></stop>
            <stop stop-color="#535051" offset="100%"></stop>
        </linearGradient>
        <polygon id="path-103" points="20.4714215 0.0497944173 0.182498972 9.18277737 0.0454954944 10.7691744"></polygon>
        <linearGradient x1="-1.33134223%" y1="49.9995146%" x2="96.8880508%" y2="49.9995146%" id="linearGradient-105">
            <stop stop-color="#E7E6E6" offset="0%"></stop>
            <stop stop-color="#B3B2B2" offset="100%"></stop>
        </linearGradient>
        <path d="M0.0392915633,5.81715345 C0.0392915633,5.81715345 24.5386153,7.0201283 45.0529473,1.60778213 L40.7463851,0.801289474 L36.4879035,0.00416254272 C36.4879035,0.00416254272 19.9570122,5.01534366 0.0392915633,5.81715345 Z" id="path-106"></path>
        <linearGradient x1="117.997427%" y1="47.828064%" x2="16.2351266%" y2="51.404532%" id="linearGradient-108">
            <stop stop-color="#E7E6E6" offset="0%"></stop>
            <stop stop-color="#8F8D8D" offset="100%"></stop>
        </linearGradient>
    </defs>
    <g id="milwaukee" stroke="none" stroke-width="1" fill="none" fill-rule="evenodd">
        <g id="milwaukee_BGD">
            <g id="milwaukee" transform="translate(-1.000000, 60.000000)">
                <g id="g10" transform="translate(100.684634, 40.527556) scale(-1, 1) rotate(-180.000000) translate(-100.684634, -40.527556) translate(0.258497, 0.098859)">
                    <g id="g12" transform="translate(0.465295, 0.000000)">
                        <path d="M5.72617666,40.1914833 C5.68103843,40.0063542 5.64720617,39.8193519 5.61140393,39.632766 C5.64754878,39.8193519 5.68103843,40.0063542 5.72617666,40.1914833 Z M5.85583882,41.0418907 C5.81279905,40.8774703 5.77786822,40.7118011 5.74106609,40.5463921 C5.77786822,40.7118011 5.81279905,40.8774703 5.85583882,41.0418907 Z M6.02246607,41.8813195 C5.98051664,41.7270453 5.94510925,41.5711581 5.90769334,41.4156871 C5.94510925,41.5711581 5.98051664,41.7270453 6.02246607,41.8813195 Z M6.23422691,42.7113826 C6.19121299,42.5642367 6.15305881,42.4152697 6.11366385,42.2672913 C6.15305881,42.4152697 6.19121299,42.5642367 6.23422691,42.7113826 Z M6.49556751,43.5312994 C6.44665985,43.3886283 6.40266364,43.2449165 6.35701305,43.1012047 C6.40266364,43.2449165 6.44665985,43.3886283 6.49556751,43.5312994 Z M6.79444189,44.3402376 C6.74010579,44.2026135 6.69042264,44.0640008 6.63955041,43.9253882 C6.69042264,44.0640008 6.74010579,44.2026135 6.79444189,44.3402376 Z M7.13090175,45.1396019 C7.07129231,45.0060883 7.01576713,44.8711179 6.95920795,44.7365637 C7.01576713,44.8711179 7.07129231,45.0060883 7.13090175,45.1396019 Z M7.50448179,45.9296525 C7.43928882,45.7983242 7.3776631,45.6662156 7.3154687,45.5345231 C7.3776631,45.6662156 7.43928882,45.7983242 7.50448179,45.9296525 Z M7.91404464,46.7072675 C7.84357833,46.5796335 7.77673097,46.451167 7.70905642,46.3227006 C7.77673097,46.451167 7.84357833,46.5796335 7.91404464,46.7072675 Z M8.36015898,47.4755688 C8.28462612,47.3515771 8.21235033,47.2261805 8.14002283,47.1015643 C8.21235033,47.2265447 8.28462612,47.3515771 8.36015898,47.4755688 Z M8.84142894,48.2330475 C8.76103633,48.1119175 8.68369399,47.9897469 8.60593805,47.8676283 C8.68369399,47.9897469 8.76103633,48.1119175 8.84142894,48.2330475 Z M9.35800959,48.9798077 C9.27296404,48.8616955 9.19060685,48.7428029 9.10840477,48.6239103 C9.19060685,48.7428029 9.27296404,48.8616955 9.35800959,48.9798077 Z M5.62298461,39.3321784 C5.57341351,39.0439743 5.53509639,38.7541052 5.50821188,38.4626752 C5.53509639,38.7541052 5.57341351,39.0439743 5.62298461,39.3321784 Z M9.90912547,49.7155371 C9.81984056,49.600703 9.73283043,49.4852965 9.64618219,49.3698379 C9.73283043,49.4852965 9.81984056,49.600703 9.90912547,49.7155371 Z M10.494363,50.4407561 C10.4010972,50.3287837 10.3093824,50.2165512 10.2184948,50.1039544 C10.3093824,50.2165512 10.4010972,50.3287837 10.494363,50.4407561 Z M11.1139806,51.1553606 C11.0168374,51.0466142 10.9208832,50.9377117 10.8259631,50.8283409 C10.92109,50.9377117 11.0164238,51.0466142 11.1139806,51.1553606 Z M11.7666858,51.8588304 C11.6653033,51.7529457 11.5653166,51.6466447 11.4663639,51.5399276 C11.5653166,51.6466447 11.6653033,51.7529457 11.7666858,51.8588304 Z M13.1696014,53.2311166 C13.0619632,53.1322562 12.9551522,53.0328755 12.8497371,52.9329745 C12.9551522,53.0328755 13.0617564,53.1322562 13.1696014,53.2311166 Z M13.9192431,53.901286 C13.8090199,53.8055475 13.6991586,53.7092887 13.5909,53.6130299 C13.6991586,53.7092887 13.8090199,53.8055475 13.9192431,53.901286 Z M12.4522719,52.5510612 C12.347684,52.4485586 12.2440783,52.3455357 12.1412999,52.2419924 C12.2440783,52.3455357 12.347684,52.4485586 12.4522719,52.5510612 Z M68.292873,71.2502437 C68.3890339,71.2687254 68.4851948,71.2872071 68.5813558,71.3056888 C68.4851948,71.2872071 68.3890339,71.2687254 68.292873,71.2502437 Z M66.5526703,71.0884249 C66.6514162,71.1092168 66.7501621,71.1300087 66.849425,71.1508006 C66.7501621,71.1300087 66.6514162,71.1092168 66.5526703,71.0884249 Z M64.8274605,70.9130778 C64.9282744,70.937335 65.0296053,70.9604371 65.1309361,70.9835392 C65.0296053,70.9604371 64.9282744,70.937335 64.8274605,70.9130778 Z M63.1141415,70.7236821 C63.2206424,70.7514046 63.3276602,70.7779721 63.434161,70.8045395 C63.3276602,70.7779721 63.2206424,70.7514046 63.1141415,70.7236821 Z M61.4251213,70.5217988 C61.5311051,70.5506764 61.637606,70.5795541 61.7441068,70.6084317 C61.637606,70.5795541 61.5311051,70.5506764 61.4251213,70.5217988 Z M59.7516109,70.3063872 C59.8581117,70.337575 59.9640956,70.3687629 60.0711134,70.3999507 C59.9640956,70.3687629 59.8581117,70.337575 59.7516109,70.3063872 Z M58.0946443,70.0774473 C58.2016621,70.1109454 58.30868,70.1444435 58.4156978,70.1779415 C58.30868,70.1444435 58.2016621,70.1109454 58.0946443,70.0774473 Z M56.4630105,69.8360199 C56.5664093,69.870673 56.6698082,69.9064813 56.773207,69.9411345 C56.6698082,69.9064813 56.5664093,69.870673 56.4630105,69.8360199 Z M54.8453354,69.5810641 C54.9466663,69.6168724 55.0479972,69.6538358 55.1493281,69.6907992 C55.0479972,69.6538358 54.9466663,69.6168724 54.8453354,69.5810641 Z M53.2447212,69.3125801 C53.3460521,69.3514649 53.4479,69.3903496 53.5497478,69.4280907 C53.447383,69.3903496 53.3460521,69.3514649 53.2447212,69.3125801 Z M51.6729553,69.0326491 C51.7687026,69.0722851 51.8643466,69.1096562 51.9605075,69.1481597 C51.8643466,69.1096562 51.7687026,69.0722851 51.6729553,69.0326491 Z M50.1209902,68.7407508 C50.2114642,68.7784919 50.301111,68.8173766 50.3917918,68.8562614 C50.301111,68.8173766 50.2114642,68.7784919 50.1209902,68.7407508 Z M48.5907907,68.4358445 C48.6748022,68.473963 48.7584002,68.5120815 48.8426186,68.5513551 C48.7584002,68.5132366 48.6748022,68.473963 48.5907907,68.4358445 Z M47.0808055,68.118971 C47.1591819,68.1559344 47.2369378,68.1940529 47.3154692,68.2310162 C47.2369378,68.1940529 47.1591819,68.1559344 47.0808055,68.118971 Z M45.5952742,67.7896098 C45.6661542,67.8254181 45.7366205,67.8623814 45.8077072,67.8981897 C45.7366205,67.8623814 45.6661542,67.8254181 45.5952742,67.7896098 Z M44.1341451,67.4493219 C44.1967531,67.48282 44.2591543,67.5163181 44.3217623,67.5498161 C44.2591543,67.5163181 44.1967531,67.48282 44.1341451,67.4493219 Z M42.6992792,67.0975871 C42.7523745,67.1276198 42.8044876,67.1576526 42.8576346,67.1876853 C42.8044876,67.1576526 42.7523745,67.1276198 42.6992792,67.0975871 Z M41.3060314,66.7396084 C41.3444585,66.7604003 41.3822075,66.7811922 41.4208041,66.8019841 C41.3822075,66.7811922 41.3444585,66.7604003 41.3060314,66.7396084 Z M39.9362034,66.370703 C39.9748278,66.3822541 40.0122418,66.3938052 40.0509762,66.4042011 C40.0122418,66.39265 39.9748278,66.3822541 39.9362034,66.370703 Z M24.9050091,60.8855124 C24.9494189,60.9243315 24.9944491,60.9622038 25.0388589,61.0010229 C24.9944491,60.9622038 24.9494189,60.9243315 24.9050091,60.8855124 Z M23.8009162,60.3433412 C23.8697798,60.3822317 23.9408665,60.4205417 24.0103505,60.4588517 C23.9406597,60.4205417 23.8697798,60.3822317 23.8009162,60.3433412 Z M22.7232934,59.7892027 C22.8103552,59.8349907 22.8992265,59.8802583 22.9870638,59.925526 C22.8992265,59.8802583 22.8103552,59.8349907 22.7232934,59.7892027 Z M21.6761732,59.2236172 C21.7731096,59.2772099 21.8722691,59.3302823 21.9702395,59.3838751 C21.8722691,59.3302823 21.7731096,59.2772099 21.6761732,59.2236172 Z M70.0501365,71.398014 C70.1421614,71.4141855 70.2352204,71.4292019 70.3272454,71.4453733 C70.2352204,71.4292019 70.1421614,71.4141855 70.0501365,71.398014 Z M19.6687879,58.0581052 C19.7756506,58.123145 19.8844779,58.1876644 19.9923229,58.2521838 C19.8844779,58.1876644 19.7756506,58.123145 19.6687879,58.0581052 Z M18.7067133,57.4560975 C18.8181773,57.5279014 18.9315024,57.5986646 19.0439486,57.6694278 C18.9315024,57.5986646 18.8181773,57.5279014 18.7067133,57.4560975 Z M17.7763304,56.8436834 C17.8898107,56.9206904 18.005514,56.9966568 18.1206486,57.0731436 C18.005514,56.9966568 17.8898107,56.9206904 17.7763304,56.8436834 Z M16.8754162,56.219302 C16.9905509,56.3009919 17.1072365,56.3826818 17.2239738,56.4638514 C17.1072365,56.3826818 16.9905509,56.3009919 16.8754162,56.219302 Z M16.0074346,55.5850345 C16.121742,55.670887 16.2376521,55.7556988 16.3533554,55.8410309 C16.2376521,55.7556988 16.1215352,55.670887 16.0074346,55.5850345 Z M15.1709379,54.9398404 C15.2830222,55.0282944 15.396761,55.1167485 15.5108616,55.2052025 C15.396761,55.1167485 15.2830222,55.0282944 15.1709379,54.9398404 Z M20.6583666,58.647105 C20.7611451,58.7064213 20.8659915,58.7652172 20.9695454,58.8245334 C20.8659915,58.7652172 20.7611451,58.7064213 20.6583666,58.647105 Z M14.3647887,54.2816383 C14.4752187,54.3742549 14.5868895,54.4663512 14.6989738,54.5584474 C14.5868895,54.4663512 14.4752187,54.3742549 14.3647887,54.2816383 Z M197.848531,34.5826651 L190.054843,37.8183656 L191.140014,37.3681866 C191.140531,37.3772922 191.140531,37.3854612 191.141048,37.3946188 L190.058979,37.8478156 L187.524156,38.910825 C187.522605,38.8976089 187.522088,38.8843928 187.520537,38.8711767 L177.849642,42.8874061 C178.085392,43.7888047 178.225497,44.6861449 178.300978,45.5367605 L198.679341,38.7614417 L178.253415,49.4808217 C178.159322,50.3436128 178.045583,50.8710069 178.045583,50.8710069 C178.373358,50.6881152 180.257285,56.9493079 180.257285,56.9493079 C171.567128,64.0761014 162.220906,66.113666 162.220906,66.113666 L161.862629,68.6096307 C147.978231,73.3455637 135.768895,74.6369926 126.115578,74.4834988 C121.058858,75.9825345 109.895918,78.8942331 105.374286,76.895172 C103.203944,75.9346653 104.77509,73.3616935 106.035005,71.779407 C104.01304,71.2143418 102.933039,70.7855999 102.933039,70.7855999 C72.163092,75.7405867 79.8678573,64.4366816 79.8678573,64.4366816 C40.8667931,57.7734914 23.5499155,41.0927258 17.0189855,32.5237154 C15.2460572,35.0450195 14.3887773,37.70759 14.5945927,40.4728191 C16.5797472,67.1667893 74.3990921,71.3038365 75.041199,71.7398628 C73.959647,71.6784653 72.8868839,71.6082224 71.8208418,71.532256 C71.8446235,71.533817 71.8684052,71.5353779 71.892187,71.5374592 C74.0950995,71.7497489 77.4095497,71.9672417 77.6153134,72.1451904 C61.364633,71.6951155 3.881293,67.9441442 2.65504984,39.0744649 C1.2751198,6.58509055 78.6555058,-0.0660559107 122.8611,3.44304201 C122.727198,3.50380993 122.579338,3.57312147 122.416484,3.64893178 C122.442334,3.57413609 122.465599,3.52413875 122.485762,3.50380993 C120.848441,4.32697356 119.360014,5.11212278 118.004972,5.85825856 L118.005489,5.85825856 C108.439545,11.1274653 105.560921,14.4794569 104.461791,16.1355245 C112.11434,20.3084736 119.155285,17.855227 119.155285,17.855227 C121.568097,15.427424 122.816121,13.5095844 123.446337,12.0787104 C124.399674,9.9173621 123.93955,8.86938993 123.93955,8.86938993 C125.358182,7.29849834 127.155771,6.30052873 128.713991,5.67573106 C140.848364,2.34407349 153.697739,8.40516236 157.422682,12.0787104 C157.271203,11.9293271 155.684031,13.9081479 154.968511,14.3321029 C155.927018,16.2089414 157.132649,19.5352813 157.914861,22.9751025 C157.914861,22.9751025 157.334793,22.3366725 156.363361,21.5948033 C155.32472,20.80033 154.28918,19.7970532 152.770251,18.9885313 L150.168219,19.814744 C150.682111,20.9667797 151.059,22.2321927 151.151025,23.5443823 C151.151025,23.5443823 149.469243,22.006791 146.806205,20.8834248 L146.251471,21.0592402 L144.492139,25.4529081 L141.173036,26.353058 L140.872145,31.4556589 L136.951261,33.2554383 C136.647785,33.8560412 139.816443,34.6771548 139.816443,34.6771548 C142.459318,33.7340787 146.295932,33.3905649 146.295932,33.3905649 C147.414708,30.8499569 146.576143,26.2146534 146.576143,26.2146534 C151.004199,27.472782 154.660899,33.2269769 154.660899,33.2269769 L158.828907,33.475949 C159.057935,30.8326824 157.69307,26.8764457 157.69307,26.8764457 C164.62648,29.4434858 167.109604,34.4982695 167.109604,34.4982695 C169.846571,34.7289785 171.931092,35.4800052 173.519298,36.5379155 L185.427744,33.4444698 L188.178154,32.7300214 L188.218479,32.7196671 L188.18229,32.7290328 C188.160059,32.6903732 188.130073,32.6487477 188.104223,32.6090995 L189.912669,32.2796343 L196.844528,30.480063 L188.855933,34.0471019 L188.268628,34.3092901 L176.458411,39.5835959 C176.286252,39.3081917 176.102719,39.0358053 175.901608,38.7715879 C176.363801,39.3803598 176.749996,40.0225881 177.060709,40.6852129 L197.848531,34.5826651 L197.848531,34.5826651 Z" id="path14" fill="#FFFFFF" fill-rule="nonzero"></path>
                        <path d="M104.33461,79.2771871 C103.03437,78.7017155 102.146691,77.6787707 101.833909,76.3956669 C101.618323,75.5121672 101.679845,74.5719528 102.023646,73.560455 C97.2745369,74.2790139 93.1680515,74.6432364 89.799834,74.6432364 C87.545222,74.6432364 85.5842628,74.4814175 83.9076504,74.1546579 L84.8253152,74.9476223 L77.5439682,74.745739 C70.1126928,74.5402134 50.9742376,73.5458861 33.8126133,68.7745715 C24.2264541,66.1095035 16.5654265,62.6306584 11.0422735,58.434295 C4.08102339,53.1452642 0.390370987,46.668868 0.0722984411,39.1853967 C-0.189834086,33.014167 2.04313544,27.4000415 6.70882764,22.4996881 C14.1092902,14.7256193 27.5638589,8.8000836 46.6981264,4.88570127 C62.1013498,1.7357491 81.1867097,0.00060975007 100.438025,0.00060975007 C108.354241,0.00060975007 115.966464,0.285565 123.064795,0.849174325 L133.074321,1.64428763 L131.240025,2.47984523 C132.82513,2.23269426 134.456764,2.10789602 136.1189,2.10789602 C146.386923,2.10789602 155.815864,6.85211767 159.232162,10.2206033 L160.434691,13.1561213 C158.812209,14.3122703 158.049352,15.0162408 158.14612,15.2680328 C158.925483,17.2959362 160.046583,20.6880569 160.434691,22.3950002 L161.155898,25.5683146 C165.20448,27.6632183 167.545947,30.4507691 168.647662,32.0591236 C170.613791,32.3521666 172.377775,32.9178041 173.914282,33.7482834 L196.198802,27.9607881 L199.166811,41.4156871 L181.009511,50.9684104 C181.251982,51.5836342 181.486697,52.2935039 181.748813,53.0859479 C182.257535,54.6229668 182.711973,56.1318886 182.731102,56.1953674 L183.233621,57.864547 L181.889952,58.9660599 C175.009276,64.6089068 167.792036,67.2172602 164.535489,68.1855717 L164.420717,68.981658 L164.193756,70.5613429 L162.691888,71.0733357 C150.974213,75.0704173 139.174853,77.096535 127.620549,77.0970553 C127.232286,77.0970553 126.848676,77.0944537 126.468685,77.0902912 C122.359098,78.2927457 115.056554,80.1747353 109.62036,80.1747353 C107.430372,80.1747353 105.701543,79.8807558 104.33461,79.2771871 Z" id="path16" fill="#FFFFFF" fill-rule="nonzero"></path>
                        <polygon id="path18" fill="#FFFFFF" fill-rule="nonzero" points="177.911165 42.941259 197.848531 34.5826651 178.133472 44.0804949"></polygon>
                        <path d="M163.265751,12.3262256 L162.528001,12.3262256 L162.528001,12.9689222 L163.135986,12.9689222 C163.476685,12.9689222 163.669007,12.919544 163.669007,12.6260327 C163.669007,12.4138471 163.5258,12.3262256 163.265751,12.3262256 Z M164.270271,12.6323286 C164.270271,13.2254389 163.941463,13.4248247 163.395517,13.4435041 L161.926736,13.4435041 L161.926736,10.8102275 L162.528001,10.8102275 L162.528001,11.852268 L162.949351,11.852268 L163.507705,10.8102275 L164.18962,10.8102275 L163.575948,11.9146542 C164.016427,11.9459773 164.270271,12.1394835 164.270271,12.6323286 L164.270271,12.6323286 Z" id="path22" fill="#FFFFFF" fill-rule="nonzero"></path>
                        <path d="M163.036206,10.298651 C161.945348,10.298651 161.225692,11.0473884 161.225692,12.1394835 C161.225692,13.2311103 161.945348,13.9804721 163.036206,13.9804721 C164.121377,13.9804721 164.871536,13.2561376 164.871536,12.1640425 C164.871536,11.0724157 164.121377,10.298651 163.036206,10.298651 L163.036206,10.298651 Z M163.049131,14.572958 C161.337363,14.572958 160.624428,13.2691456 160.624428,12.1394835 C160.624428,10.9850023 161.349771,9.7055407 163.049131,9.7055407 C164.512225,9.7055407 165.473317,10.8039317 165.473317,12.1394835 C165.473317,13.4058851 164.636303,14.572958 163.049131,14.572958 L163.049131,14.572958 Z" id="path26" fill="#FFFFFF" fill-rule="nonzero"></path>
                        <path d="M163.049131,17.1745472 C160.193255,17.1745472 158.039457,15.010129 158.039457,12.1394835 C158.039457,9.26836965 160.193255,7.1039515 163.049131,7.1039515 C165.857961,7.1039515 168.058288,9.31571858 168.058288,12.1394835 C168.058288,15.010129 165.90449,17.1745472 163.049131,17.1745472 Z M163.036206,10.298651 C164.121377,10.298651 164.871536,11.0724157 164.871536,12.1640425 C164.871536,13.2561376 164.121377,13.9804721 163.036206,13.9804721 C161.945348,13.9804721 161.225692,13.2311103 161.225692,12.1394835 C161.225692,11.0473884 161.945348,10.298651 163.036206,10.298651 L163.036206,10.298651 Z M163.049131,14.572958 C164.636303,14.572958 165.473317,13.4058851 165.473317,12.1394835 C165.473317,10.8039317 164.512225,9.7055407 163.049131,9.7055407 C161.349771,9.7055407 160.624428,10.9850023 160.624428,12.1394835 C160.624428,13.2691456 161.337363,14.572958 163.049131,14.572958 L163.049131,14.572958 Z" id="path28" fill="#FFFFFF" fill-rule="nonzero"></path>
                        <path d="M188.178154,32.7300214 L196.844528,30.480063 L179.039763,37.4942076 L179.039763,37.5297453 L175.901608,38.7715879 C176.363801,39.3803598 176.749996,40.0225881 177.060709,40.6852129 L197.848531,34.5826651 L190.054843,37.8183656 C190.056394,37.8285118 190.056911,37.8387101 190.058979,37.8478156 L187.524156,38.910825 C187.522605,38.8976089 187.522088,38.8843928 187.520537,38.8711767 L177.849642,42.8874061 C178.085392,43.7888047 178.225497,44.6861449 178.300978,45.5367605 L198.679341,38.7614417 L178.390418,47.8944247 L178.253415,49.4808217 C178.159322,50.3436128 178.045583,50.8710069 178.045583,50.8710069 C178.373358,50.6881152 180.257285,56.9493079 180.257285,56.9493079 C171.567128,64.0761014 162.220906,66.113666 162.220906,66.113666 L161.862629,68.6096307 C147.978231,73.3455637 135.768895,74.6369926 126.115578,74.4834988 C121.058858,75.9825345 109.895918,78.8942331 105.374286,76.895172 C103.203944,75.9346653 104.77509,73.3616935 106.035005,71.779407 C104.01304,71.2143418 102.933039,70.7855999 102.933039,70.7855999 C72.163092,75.7405867 79.8678573,64.4366816 79.8678573,64.4366816 C40.8667931,57.7734914 23.5499155,41.0927258 17.0189855,32.5237154 C15.2460572,35.0450195 14.3887773,37.70759 14.5945927,40.4728191 C16.5797472,67.1667893 74.3990921,71.3038365 75.041199,71.7398628 C35.7319545,69.5129025 6.50445981,57.3728466 5.50821188,38.4626752 C4.53541481,19.9995089 46.8097972,4.98671577 97.7568925,4.98671577 C104.721322,4.98671577 111.492913,5.29220478 118.005489,5.85825856 C108.439545,11.1274653 105.560921,14.4794569 104.461791,16.1355245 C112.11434,20.3084736 119.155285,17.855227 119.155285,17.855227 C121.568097,15.427424 122.816121,13.5095844 123.446337,12.0787104 C124.399674,9.9173621 123.93955,8.86938993 123.93955,8.86938993 C125.358182,7.29849834 127.155771,6.30052873 128.713991,5.67573106 C140.848364,2.34407349 153.697739,8.40516236 157.422682,12.0787104 C157.271203,11.9293271 155.684031,13.9081479 154.968511,14.3321029 C155.927018,16.2089414 157.132649,19.5352813 157.914861,22.9751025 C157.914861,22.9751025 157.334793,22.3366725 156.363361,21.5948033 C155.32472,20.80033 154.28918,19.7970532 152.770251,18.9885313 L150.168219,19.814744 C150.682111,20.9667797 151.059,22.2321927 151.151025,23.5443823 C151.151025,23.5443823 149.469243,22.006791 146.806205,20.8834248 L146.251471,21.0592402 L144.492139,25.4529081 L141.173036,26.353058 L140.872145,31.4556589 L136.951261,33.2554383 C136.647785,33.8560412 139.816443,34.6771548 139.816443,34.6771548 C142.459318,33.7340787 146.295932,33.3905649 146.295932,33.3905649 C147.414708,30.8499569 146.576143,26.2146534 146.576143,26.2146534 C151.004199,27.472782 154.660899,33.2269769 154.660899,33.2269769 L158.828907,33.475949 C159.057935,30.8326824 157.69307,26.8764457 157.69307,26.8764457 C164.62648,29.4434858 167.109604,34.4982695 167.109604,34.4982695 C169.846571,34.7289785 171.931092,35.4800052 173.519298,36.5379155 L185.427744,33.4444698" id="path30" fill="#231F20" fill-rule="nonzero"></path>
                        <g id="g32" transform="translate(167.868034, 38.087266)">
                            <g id="g34-Clipped">
                                <mask id="mask-2" fill="white">
                                    <use xlink:href="#path-1"></use>
                                </mask>
                                <g id="path36"></g>
                                <g id="g34" mask="url(#mask-2)" fill="url(#linearGradient-3)" fill-rule="nonzero">
                                    <path d="M5.92837311,9.53482442 C5.92837311,9.53482442 7.85831266,-0.999582603 0.0392915633,0.111191922 C0.0392915633,0.111191922 5.19837722,5.91393257 5.92837311,9.53482442" id="path46"></path>
                                </g>
                            </g>
                        </g>
                        <g id="g48" transform="translate(143.982900, 38.659616)">
                            <g id="g50-Clipped">
                                <mask id="mask-5" fill="white">
                                    <use xlink:href="#path-4"></use>
                                </mask>
                                <g id="path52"></g>
                                <g id="g50" mask="url(#mask-5)" fill="url(#linearGradient-6)" fill-rule="nonzero">
                                    <path d="M30.3822013,10.8933223 L23.6054406,10.8496676 C23.5035928,6.01737176 20.7123408,-3.11862904 0.00206797702,1.08657975 C0.00206797702,1.08657975 19.5847763,4.8405689 21.6356925,17.2256424 L30.3822013,10.8933223" id="path62"></path>
                                </g>
                            </g>
                        </g>
                        <g id="g64" transform="translate(122.217442, 47.348923)">
                            <g id="g66-Clipped">
                                <mask id="mask-8" fill="white">
                                    <use xlink:href="#path-7"></use>
                                </mask>
                                <g id="path68"></g>
                                <g id="g66" mask="url(#mask-8)" fill="url(#linearGradient-9)" fill-rule="nonzero">
                                    <path d="M0.0242987299,7.21316622 C0.0242987299,7.21316622 8.68033353,14.7426857 37.9194606,0.0292938944 C37.9194606,0.0292938944 11.9260235,9.7996662 0.0242987299,7.21316622" id="path78"></path>
                                </g>
                            </g>
                        </g>
                        <g id="g80" transform="translate(167.868034, 38.087266)">
                            <g id="g82-Clipped">
                                <mask id="mask-11" fill="white">
                                    <use xlink:href="#path-10"></use>
                                </mask>
                                <g id="path84"></g>
                                <g id="g82" mask="url(#mask-11)" fill="url(#linearGradient-12)" fill-rule="nonzero">
                                    <path d="M5.92837311,9.53482442 C5.92837311,9.53482442 7.85831266,-0.999582603 0.0392915633,0.111191922 C0.0392915633,0.111191922 5.19837722,5.91393257 5.92837311,9.53482442" id="path94"></path>
                                </g>
                            </g>
                        </g>
                        <g id="g96" transform="translate(128.317974, 18.627379)">
                            <g id="g98-Clipped">
                                <mask id="mask-14" fill="white">
                                    <use xlink:href="#path-13"></use>
                                </mask>
                                <g id="path100"></g>
                                <g id="g98" mask="url(#mask-14)" fill="url(#linearGradient-15)" fill-rule="nonzero">
                                    <path d="M8.51644635,0.491232073 C2.15793402,4.0377705 6.97787145,8.80273722 1.17512794,12.8008595 L0.0444615058,14.4197244 C2.49656525,14.1646126 4.69482482,13.7225505 6.35024042,11.9034673 C6.35024042,11.9034673 8.3313624,10.5904973 8.41563247,5.90966596 C8.49990253,1.23008341 14.0803385,2.16561488 14.0803385,2.16561488 C14.0803385,2.16561488 11.4912313,-1.16764526 8.51644635,0.491232073" id="path110"></path>
                                </g>
                            </g>
                        </g>
                        <g id="g112" transform="translate(149.152842, 13.892486)">
                            <g id="g114-Clipped">
                                <mask id="mask-17" fill="white">
                                    <use xlink:href="#path-16"></use>
                                </mask>
                                <g id="path116"></g>
                                <g id="g114" mask="url(#mask-17)" fill="url(#linearGradient-18)" fill-rule="nonzero">
                                    <path d="M0.0299856667,1.68208351 C0.0299856667,1.68208351 3.17486171,2.43612813 5.47445216,4.70481797 L6.44174841,5.3722817 C6.44174841,5.3722817 5.5607902,1.54997481 3.01872945,0.0379832023 C3.01872945,0.0379832023 1.11980955,0.601019137 0.0299856667,1.68208351" id="path126"></path>
                                </g>
                            </g>
                        </g>
                        <g id="g128" transform="translate(140.880934, 14.620931)">
                            <g id="g130-Clipped">
                                <mask id="mask-20" fill="white">
                                    <use xlink:href="#path-19"></use>
                                </mask>
                                <g id="path132"></g>
                                <g id="g130" mask="url(#mask-20)" fill="url(#linearGradient-21)" fill-rule="nonzero">
                                    <path d="M3.08490471,0.0369945984 C5.09084242,-0.0349653589 7.56931287,5.26353527 7.56931287,5.26353527 C4.89386761,3.07148824 0.00568693679,1.48555947 0.00568693679,1.48555947 C0.00568693679,1.48555947 0.613155185,0.125396599 3.08490471,0.0369945984" id="path142"></path>
                                </g>
                            </g>
                        </g>
                        <g id="g144" transform="translate(120.614759, 15.921726)">
                            <g id="g146-Clipped">
                                <mask id="mask-23" fill="white">
                                    <use xlink:href="#path-22"></use>
                                </mask>
                                <g id="path148"></g>
                                <g id="g146" mask="url(#mask-23)" fill="url(#linearGradient-24)" fill-rule="nonzero">
                                    <path d="M12.5014381,22.008404 C12.5014381,22.008404 -10.1801339,19.1863041 13.7158576,0.049378163 C13.7158576,0.049378163 -16.2537824,20.1944199 12.5014381,22.008404" id="path158"></path>
                                </g>
                            </g>
                        </g>
                        <path d="M178.330964,48.5824409 L178.506949,47.8944247 L178.330964,48.5844702 C178.330964,48.5844702 178.330964,48.5834816 178.330964,48.5824409" id="path160" fill="#FBBC09" fill-rule="nonzero"></path>
                        <g id="g162" transform="translate(177.897723, 34.549105)">
                            <g id="g164-Clipped">
                                <mask id="mask-26" fill="white">
                                    <use xlink:href="#path-25"></use>
                                </mask>
                                <g id="path166"></g>
                                <g id="g164" mask="url(#mask-26)" fill="url(#linearGradient-27)" fill-rule="nonzero">
                                    <polygon id="path176" points="19.9508083 0.0335605007 0.0134418506 8.39215441 0.23574938 9.53139032"></polygon>
                                </g>
                            </g>
                        </g>
                        <g id="g178" transform="translate(175.881445, 30.438594)">
                            <g id="g180-Clipped">
                                <mask id="mask-29" fill="white">
                                    <use xlink:href="#path-28"></use>
                                </mask>
                                <g id="path182"></g>
                                <g id="g180" mask="url(#mask-29)" fill="url(#linearGradient-30)" fill-rule="nonzero">
                                    <path d="M12.9744878,3.60850828 L12.3871823,3.87069644 L0.576965588,9.14500229 C0.404806501,8.86959806 0.221273541,8.59721167 0.0201627759,8.33299427 L3.1583179,7.09115168 L3.1583179,7.05561397 L20.963083,0.0414693319 L12.9744878,3.60850828 L12.9744878,3.60850828" id="path192"></path>
                                </g>
                            </g>
                        </g>
                        <path d="M176.627985,39.5578453 C176.442278,39.3651635 176.250483,39.1746262 176.054121,38.9839817 C176.250483,39.1746262 176.443801,39.3651635 176.627985,39.5578453" id="path194" fill="#FBBC09" fill-rule="nonzero"></path>
                        <g id="g196" transform="translate(43.582616, 9.105562)">
                            <g id="g198-Clipped">
                                <mask id="mask-32" fill="white">
                                    <use xlink:href="#path-31"></use>
                                </mask>
                                <g id="path200"></g>
                                <g id="g198" mask="url(#mask-32)" fill="url(#linearGradient-33)" fill-rule="nonzero">
                                    <path d="M0.0407908466,2.12659104 C-0.915855321,25.2342185 18.4918505,44.6963431 18.4918505,44.6963431 C-0.163370184,25.2077864 9.25574813,0.026015892 9.25574813,0.026015892 C9.25574813,0.026015892 5.23373963,0.742493558 0.0407908466,2.12659104" id="path210"></path>
                                </g>
                            </g>
                        </g>
                        <g id="g212" transform="translate(57.489761, 5.255210)">
                            <g id="g214-Clipped">
                                <mask id="mask-35" fill="white">
                                    <use xlink:href="#path-34"></use>
                                </mask>
                                <g id="path216"></g>
                                <g id="g214" mask="url(#mask-35)" fill="url(#linearGradient-36)" fill-rule="nonzero">
                                    <path d="M28.5934012,0.033300493 C28.5934012,0.033300493 -2.11243852,4.57775636 2.03282141,36.9929854 C2.03282141,36.9929854 -5.12496404,19.4078554 7.45505714,2.00951953 C16.0433657,0.547374368 23.4337986,0.0290857673 28.5934012,0.033300493" id="path226"></path>
                                </g>
                            </g>
                        </g>
                        <g id="g228" transform="translate(20.421273, 15.609535)">
                            <g id="g230-Clipped">
                                <mask id="mask-38" fill="white">
                                    <use xlink:href="#path-37"></use>
                                </mask>
                                <g id="path232"></g>
                                <g id="g230" mask="url(#mask-38)" fill="url(#linearGradient-39)" fill-rule="nonzero">
                                    <path d="M0.0367582915,4.35360343 C17.6531307,40.4099647 56.9593249,46.8577434 56.9593249,46.8577434 C14.8662215,34.0196291 9.80210766,0.00265362098 9.80210766,0.00265362098 C9.80210766,0.00265362098 4.57679503,1.85748266 0.0367582915,4.35360343" id="path242"></path>
                                </g>
                            </g>
                        </g>
                        <g id="g244" transform="translate(17.474406, 15.713599)">
                            <g id="g246-Clipped">
                                <mask id="mask-41" fill="white">
                                    <use xlink:href="#path-40"></use>
                                </mask>
                                <g id="path248"></g>
                                <g id="g246" mask="url(#mask-41)" fill="url(#linearGradient-42)" fill-rule="nonzero">
                                    <path d="M2.98362554,4.24953986 C20.5999979,40.3059012 59.9061922,46.7536798 59.9061922,46.7536798 C59.9061922,46.7536798 18.0435131,41.7326127 0.0314849501,6.07471078 C3.34086857,3.46073802 12.1992549,0.0276288773 12.1992549,0.0276288773 C12.1992549,0.0276288773 12.2039079,0.0551016593 12.2111458,0.0957384826 C10.7659917,0.634735733 6.65206167,2.23330823 2.98362554,4.24953986" id="path258"></path>
                                </g>
                            </g>
                        </g>
                        <g id="g260" transform="translate(149.721536, 54.217119)">
                            <g id="g262-Clipped">
                                <mask id="mask-44" fill="white">
                                    <use xlink:href="#path-43"></use>
                                </mask>
                                <g id="path264"></g>
                                <g id="g262" mask="url(#mask-44)" fill="url(#linearGradient-45)" fill-rule="nonzero">
                                    <path d="M6.08088642,9.22471499 C6.08088642,9.22471499 17.0902791,8.03266681 26.8924901,1.42931311 L25.1269547,0.00936572112 C25.1269547,0.00936572112 18.712607,5.46697955 0.0475634714,6.32342271 C0.0475634714,6.32342271 1.4842905,8.28085842 6.08088642,9.22471499" id="path274"></path>
                                </g>
                            </g>
                        </g>
                        <path d="M134.876563,57.2734659 C134.51415,57.4951213 135.459215,58.6096421 135.459215,58.6096421 C129.619248,58.6840476 124.968885,60.004094 124.968885,60.004094 C124.968885,60.004094 128.793092,57.5455922 134.876563,57.2734659" id="path276" fill="#FBBC09" fill-rule="nonzero"></path>
                        <g id="g278" transform="translate(122.217442, 47.348923)">
                            <g id="g280-Clipped">
                                <mask id="mask-47" fill="white">
                                    <use xlink:href="#path-46"></use>
                                </mask>
                                <g id="path282"></g>
                                <g id="g280" mask="url(#mask-47)" fill="url(#linearGradient-48)" fill-rule="nonzero">
                                    <path d="M0.0242987299,7.21316622 C0.0242987299,7.21316622 8.68033353,14.7426857 37.9194606,0.0292938944 C37.9194606,0.0292938944 11.9260235,9.7996662 0.0242987299,7.21316622" id="path292"></path>
                                </g>
                            </g>
                        </g>
                        <g id="g294" transform="translate(124.026922, 55.465882)">
                            <g id="g296-Clipped">
                                <mask id="mask-50" fill="white">
                                    <use xlink:href="#path-49"></use>
                                </mask>
                                <g id="path298"></g>
                                <g id="g296" mask="url(#mask-50)" fill="url(#linearGradient-51)" fill-rule="nonzero">
                                    <path d="M0.0320536438,0.0452676521 C0.723791956,0.305426572 1.63473583,0.564544856 2.78970099,0.751859279 C1.84722047,0.610332826 0.909392893,0.385555519 0.0320536438,0.0452676521" id="path308"></path>
                                </g>
                            </g>
                        </g>
                        <g id="g310" transform="translate(82.874179, 58.119503)">
                            <g id="g312-Clipped">
                                <mask id="mask-53" fill="white">
                                    <use xlink:href="#path-52"></use>
                                </mask>
                                <g id="path314"></g>
                                <g id="g312" mask="url(#mask-53)" fill="url(#linearGradient-54)" fill-rule="nonzero">
                                    <path d="M12.6508494,0.0249752563 L17.0752862,2.64581622 C13.4170349,3.86335996 6.99855122,4.98204332 6.99855122,4.98204332 C20.425926,7.00243749 21.327047,7.67104592 30.9746767,4.83479337 L31.2926282,4.9201255 C31.2926282,4.9201255 17.452175,10.3824222 4.92075131,8.92605255 C-8.85611157,7.32555487 10.5751175,0.713876077 12.6508494,0.0249752563" id="path324"></path>
                                </g>
                            </g>
                        </g>
                        <g id="g326" transform="translate(82.253786, 64.779571)">
                            <g id="g328-Clipped">
                                <mask id="mask-56" fill="white">
                                    <use xlink:href="#path-55"></use>
                                </mask>
                                <g id="path330"></g>
                                <g id="g328" mask="url(#mask-56)" fill="url(#linearGradient-57)" fill-rule="nonzero">
                                    <path d="M5.54114442,2.26598419 C12.3070482,3.05270477 19.4529428,1.82215308 24.5975526,0.522919429 C25.3673571,0.368905349 26.1599093,0.206045865 26.9814131,0.0301784347 C26.9814131,0.0301784347 11.3040794,6.03828853 2.1145065,4.13392524 C-0.645725823,3.56157562 -0.102881857,1.66449677 0.656582703,0.357458356 C0.799273117,1.18684499 2.18016477,1.87574581 5.54114442,2.26598419" id="path340"></path>
                                </g>
                            </g>
                        </g>
                        <g id="g342" transform="translate(91.197786, 25.807765)">
                            <g id="g344-Clipped">
                                <mask id="mask-59" fill="white">
                                    <use xlink:href="#path-58"></use>
                                </mask>
                                <g id="path346"></g>
                                <g id="g344" mask="url(#mask-59)" fill="url(#linearGradient-60)" fill-rule="nonzero">
                                    <path d="M8.06562736,29.0795234 C8.06562736,29.0795234 -3.74562337,13.8855661 8.62036219,0.0197200461 C8.62036219,0.0197200461 -10.3781427,14.537004 8.06562736,29.0795234" id="path356"></path>
                                </g>
                            </g>
                        </g>
                        <g id="g358" transform="translate(131.626737, 7.596640)">
                            <g id="g360-Clipped">
                                <mask id="mask-62" fill="white">
                                    <use xlink:href="#path-61"></use>
                                </mask>
                                <g id="path362"></g>
                                <g id="g360" mask="url(#mask-62)" fill="url(#linearGradient-63)" fill-rule="nonzero">
                                    <path d="M12.509193,3.48410029 C12.509193,3.48410029 16.8628016,2.68733758 18.6453978,2.88672338 C18.6453978,2.88672338 8.99673401,-2.12232444 0.0387745691,1.09428045 C0.0387745691,1.09428045 6.96649757,0.17643978 12.509193,3.48410029" id="path372"></path>
                                </g>
                            </g>
                        </g>
                        <g id="g374" transform="translate(115.031222, 63.114554)">
                            <g id="g376-Clipped">
                                <mask id="mask-65" fill="white">
                                    <use xlink:href="#path-64"></use>
                                </mask>
                                <g id="path378"></g>
                                <g id="g376" mask="url(#mask-65)" fill="url(#linearGradient-66)" fill-rule="nonzero">
                                    <path d="M0.0403255518,4.85768735 C0.0403255518,4.85768735 15.8758596,-1.71600824 24.9801284,0.475050188 L27.5537258,2.66558829 L22.8025486,1.67074058 C22.8025486,1.67074058 16.1803692,1.61922912 0.0403255518,4.85768735" id="path388"></path>
                                </g>
                            </g>
                        </g>
                        <path d="M122.416484,3.64893178 C122.442334,3.57413609 122.465599,3.52413875 122.485762,3.50380993 C120.84689,4.32798818 119.356912,5.11375137 118.000837,5.8602878 C111.489811,5.29423402 104.720805,4.98671577 97.7568925,4.98671577 C46.8097972,4.98671577 4.53541481,19.9995089 5.50821188,38.4626752 C6.4779897,56.8639758 34.1811785,68.8536598 71.892187,71.5374592 C74.0950995,71.7497489 77.4095497,71.9672417 77.6153134,72.1451904 C61.364633,71.6951155 3.881293,67.9441442 2.65504984,39.0744649 C1.2751198,6.58509055 78.6555058,-0.0660559107 122.8611,3.44304201 C122.727198,3.50380993 122.579338,3.57312147 122.416484,3.64893178" id="path390" fill="#FBBC09" fill-rule="nonzero"></path>
                        <g id="g392" transform="translate(39.705159, 11.290897)">
                            <g id="g394-Clipped">
                                <mask id="mask-68" fill="white">
                                    <use xlink:href="#path-67"></use>
                                </mask>
                                <g id="path396"></g>
                                <g id="g394" mask="url(#mask-68)" fill="url(#linearGradient-69)" fill-rule="nonzero">
                                    <path d="M22.3693074,42.5110082 C22.3693074,42.5110082 -0.862553213,24.1331739 0.0343284185,1.06561094 C1.30179153,0.698786859 2.59587985,0.342889457 3.91664507,0.000624381408 C2.99536131,23.0823921 22.3693074,42.5110082 22.3693074,42.5110082" id="path406"></path>
                                </g>
                            </g>
                        </g>
                        <g id="g408" transform="translate(82.046988, 40.896982)">
                            <g id="g410-Clipped">
                                <mask id="mask-71" fill="white">
                                    <use xlink:href="#path-70"></use>
                                </mask>
                                <g id="path412"></g>
                                <g id="g410" mask="url(#mask-71)" fill="url(#linearGradient-72)" fill-rule="nonzero">
                                    <polygon id="path422" points="0.0465294829 0.0188875376 47.6492924 10.4323727 43.5696908 10.876464"></polygon>
                                </g>
                            </g>
                        </g>
                        <g id="g424" transform="translate(84.942156, 37.150694)">
                            <g id="g426-Clipped">
                                <mask id="mask-74" fill="white">
                                    <use xlink:href="#path-73"></use>
                                </mask>
                                <g id="path428"></g>
                                <g id="g426" mask="url(#mask-74)" fill="url(#linearGradient-75)" fill-rule="nonzero">
                                    <polygon id="path438" points="0.0480804656 0.0396482194 55.8927658 12.4032846 51.8121302 12.8473759"></polygon>
                                </g>
                            </g>
                        </g>
                        <g id="g440" transform="translate(90.422295, 33.456437)">
                            <g id="g442-Clipped">
                                <mask id="mask-77" fill="white">
                                    <use xlink:href="#path-76"></use>
                                </mask>
                                <g id="path444"></g>
                                <g id="g442" mask="url(#mask-77)" fill="url(#linearGradient-78)" fill-rule="nonzero">
                                    <polygon id="path454" points="0.0398085576 0.00936572112 59.7852155 13.6554816 55.7050969 14.0985842"></polygon>
                                </g>
                            </g>
                        </g>
                        <g id="g456" transform="translate(148.118854, 28.513418)">
                            <g id="g458-Clipped">
                                <mask id="mask-80" fill="white">
                                    <use xlink:href="#path-79"></use>
                                </mask>
                                <g id="path460"></g>
                                <g id="g458" mask="url(#mask-80)" fill="url(#linearGradient-81)" fill-rule="nonzero">
                                    <path d="M0.00827190807,0.0154534398 C0.00827190807,0.0154534398 1.73761769,1.16686479 3.05388506,3.54794329 C1.98525794,4.29688879 0.882509192,4.43305597 0.361895978,4.45033052 C0.588856455,3.56011873 0.807545025,1.89348865 0.00827190807,0.0154534398" id="path470"></path>
                                </g>
                            </g>
                        </g>
                        <g id="g472" transform="translate(148.222253, 32.051579)">
                            <g id="g474-Clipped">
                                <mask id="mask-83" fill="white">
                                    <use xlink:href="#path-82"></use>
                                </mask>
                                <g id="path476"></g>
                                <g id="g474" mask="url(#mask-83)" fill="url(#linearGradient-84)" fill-rule="nonzero">
                                    <path d="M0.034638615,1.59612701 C0.034638615,1.59612701 0.147860357,1.34408504 0.258497127,0.912169205 C0.779110341,0.894894653 1.88185908,0.758727474 2.95048621,0.00978197539 C3.18985455,0.442686418 3.41681503,0.910139966 3.61585781,1.42437009 C3.61585781,1.42437009 2.42160109,1.08189688 0.034638615,1.59612701" id="path486"></path>
                                </g>
                            </g>
                        </g>
                        <g id="g488" transform="translate(160.992011, 31.219070)">
                            <g id="g490-Clipped">
                                <mask id="mask-86" fill="white">
                                    <use xlink:href="#path-85"></use>
                                </mask>
                                <g id="path492"></g>
                                <g id="g490" mask="url(#mask-86)" fill="url(#linearGradient-87)" fill-rule="nonzero">
                                    <path d="M3.63446961,2.77209736 C3.63446961,2.77209736 2.0152436,2.34325139 0.139588449,2.42863555 C0.139588449,2.42863555 0.160268219,1.894061 0.0429105231,1.12882955 C0.4678798,0.983504781 1.22217442,0.654247652 1.81309885,0.0282532587 C2.59944711,0.76705256 3.31703513,1.68983625 3.63446961,2.77209736" id="path502"></path>
                                </g>
                            </g>
                        </g>
                        <g id="g504" transform="translate(159.802924, 29.189831)">
                            <g id="g506-Clipped">
                                <mask id="mask-89" fill="white">
                                    <use xlink:href="#path-88"></use>
                                </mask>
                                <g id="path508"></g>
                                <g id="g506" mask="url(#mask-89)" fill="url(#linearGradient-90)" fill-rule="nonzero">
                                    <path d="M1.23199731,3.15806913 C1.09602782,2.27092721 0.774457393,1.07377993 0.0103398851,0.0270565277 C0.0103398851,0.0270565277 1.61353907,0.754668995 3.00218563,2.05749283 C2.4112612,2.68348723 1.65696658,3.01274436 1.23199731,3.15806913" id="path518"></path>
                                </g>
                            </g>
                        </g>
                        <g id="g520" transform="translate(175.002555, 54.373214)">
                            <g id="g522-Clipped">
                                <mask id="mask-92" fill="white">
                                    <use xlink:href="#path-91"></use>
                                </mask>
                                <g id="path524"></g>
                                <g id="g522" mask="url(#mask-92)" fill="url(#linearGradient-93)" fill-rule="nonzero">
                                    <path d="M0.104443182,0.0474393928 C0.294212903,0.0826363616 0.490055255,0.113242421 0.678306818,0.154560602 C0.623653139,0.226484843 0.564444986,0.298409083 0.509791306,0.370333324 L0.104443182,0.0474393928" id="path534"></path>
                                </g>
                            </g>
                        </g>
                        <g id="g536" transform="translate(143.982900, 38.659616)">
                            <g id="g538-Clipped">
                                <mask id="mask-95" fill="white">
                                    <use xlink:href="#path-94"></use>
                                </mask>
                                <g id="path540"></g>
                                <g id="g538" mask="url(#mask-95)" fill="url(#linearGradient-96)" fill-rule="nonzero">
                                    <path d="M30.3822013,10.8933223 L23.6054406,10.8496676 C23.5035928,6.01737176 20.7123408,-3.11862904 0.00206797702,1.08657975 C0.00206797702,1.08657975 19.5847763,4.8405689 21.6356925,17.2256424 L30.3822013,10.8933223" id="path550"></path>
                                </g>
                            </g>
                        </g>
                        <g id="g552" transform="translate(105.053232, 54.061024)">
                            <g id="g554-Clipped">
                                <mask id="mask-98" fill="white">
                                    <use xlink:href="#path-97"></use>
                                </mask>
                                <g id="path556"></g>
                                <g id="g554" mask="url(#mask-98)" fill="url(#linearGradient-99)" fill-rule="nonzero">
                                    <path d="M60.5653599,1.82423435 L62.7708574,0.227899214 C64.7468094,0.0052031784 67.3659023,-0.134242003 69.6685947,0.265362098 C68.6894076,1.00889629 61.8873142,5.69175685 44.715867,6.47951806 L39.6131337,6.47951806 L45.6593815,12.1067555 L44.6574467,11.9184004 C44.6574467,11.9184004 43.641036,12.2264286 41.8113933,12.7009585 C40.4082709,12.5667165 39.051161,12.1291292 37.516722,11.7071514 L34.9581175,9.5285806 C25.8538487,7.33752218 10.0183147,13.9112178 10.0183147,13.9112178 L2.69509105,15.9029945 L11.6018681,10.724271 L8.45595802,8.44423823 L8.29465581,8.28762256 C3.3113482,7.7142323 0.427554248,6.64601977 0.427554248,6.64601977 L0.0294686725,6.54351716 C2.38747947,5.99406152 5.43619458,5.12981359 8.2414054,3.87584759 C10.2700909,5.03459542 13.2453928,5.95711895 17.4154684,5.58249011 L14.0979163,9.18360988 C14.0979163,9.18360988 22.4318637,6.53363112 31.8003166,6.45922567 C31.8003166,6.45922567 36.081546,6.4805587 38.3707965,7.38226951 L33.9391218,3.68697221 C33.9391218,3.68697221 47.6725572,4.1968837 60.3135837,0.655600478 C60.4143975,1.03647314 60.4991846,1.42567088 60.5653599,1.82423435" id="path566"></path>
                                </g>
                            </g>
                        </g>
                        <g id="g568" transform="translate(88.767913, 38.711647)">
                            <g id="g570-Clipped">
                                <mask id="mask-101" fill="white">
                                    <use xlink:href="#path-100"></use>
                                </mask>
                                <g id="path572"></g>
                                <g id="g570" mask="url(#mask-101)" fill="url(#linearGradient-102)" fill-rule="nonzero">
                                    <path d="M55.2170543,1.03454796 C55.2170543,1.03454796 65.1691937,2.9440624 71.6269689,8.52629235 L71.3689888,8.66657004 C71.3689888,8.66657004 45.3755517,18.4369423 33.473827,15.8504424 C33.473827,15.8504424 31.6167836,16.3645164 29.0307783,16.5924156 C30.3594536,15.5392923 31.398612,14.3259111 31.940939,12.9337487 L0.0134418506,3.88105077 L0.247640248,3.93084519 L36.8487655,13.0617989 L40.8673618,12.6237953 L40.9474959,12.6410699 L45.4494819,12.1644588 L11.3139023,2.29569434 L14.6712629,3.04365124 L47.9863727,11.2864224 L50.4684621,11.0161173 L50.4839719,11.0191351 L55.1653549,10.5404947 L22.5383645,0.0294499897 L57.3594785,8.84337404 L61.4395972,8.40027137 L58.5459803,7.73868724 C58.935794,4.18387575 55.2170543,1.03454796 55.2170543,1.03454796" id="path582"></path>
                                </g>
                            </g>
                        </g>
                        <g id="g586" transform="translate(178.207919, 38.711647)">
                            <g id="g588-Clipped">
                                <mask id="mask-104" fill="white">
                                    <use xlink:href="#path-103"></use>
                                </mask>
                                <g id="path590"></g>
                                <g id="g588" mask="url(#mask-104)" fill="url(#linearGradient-105)" fill-rule="nonzero">
                                    <polygon id="path600" points="20.4714215 0.0497944173 0.182498972 9.18277737 0.0454954944 10.7691744"></polygon>
                                </g>
                            </g>
                        </g>
                        <path d="M162.528001,12.9689222 L162.528001,12.3262256 L163.265751,12.3262256 C163.5258,12.3262256 163.669007,12.4138471 163.669007,12.6260327 C163.669007,12.919544 163.476685,12.9689222 163.135986,12.9689222 L162.528001,12.9689222 Z M162.528001,10.8102275 L161.926736,10.8102275 L161.926736,13.4435041 L163.395517,13.4435041 C163.941463,13.4248247 164.270271,13.2254389 164.270271,12.6323286 C164.270271,12.1394835 164.016427,11.9459773 163.575948,11.9146542 L164.18962,10.8102275 L163.507705,10.8102275 L162.949351,11.852268 L162.528001,11.852268 L162.528001,10.8102275 Z M161.225692,12.1394835 C161.225692,11.0473884 161.945348,10.298651 163.036206,10.298651 C164.121377,10.298651 164.871536,11.0724157 164.871536,12.1640425 C164.871536,13.2561376 164.121377,13.9804721 163.036206,13.9804721 C161.945348,13.9804721 161.225692,13.2311103 161.225692,12.1394835 L161.225692,12.1394835 Z M165.473317,12.1394835 C165.473317,10.8039317 164.512225,9.7055407 163.049131,9.7055407 C161.349771,9.7055407 160.624428,10.9850023 160.624428,12.1394835 C160.624428,13.2691456 161.337363,14.572958 163.049131,14.572958 C164.636303,14.572958 165.473317,13.4058851 165.473317,12.1394835 L165.473317,12.1394835 Z" id="path604" fill="#231F20" fill-rule="nonzero"></path>
                        <g id="g606" transform="translate(113.221742, 65.976302)">
                            <g id="g608-Clipped">
                                <mask id="mask-107" fill="white">
                                    <use xlink:href="#path-106"></use>
                                </mask>
                                <g id="path610"></g>
                                <g id="g608" mask="url(#mask-107)" fill="url(#linearGradient-108)" fill-rule="nonzero">
                                    <path d="M0.0392915633,5.81715345 C0.0392915633,5.81715345 24.5386153,7.0201283 45.0529473,1.60778213 L40.7463851,0.801289474 L36.4879035,0.00416254272 C36.4879035,0.00416254272 19.9570122,5.01534366 0.0392915633,5.81715345" id="path620"></path>
                                </g>
                            </g>
                        </g>
                    </g>
                </g>
            </g>
        </g>
    </g>
</svg>