<?xml version="1.0" encoding="UTF-8"?>
<svg width="200px" height="200px" viewBox="0 0 200 200" version="1.1" xmlns="http://www.w3.org/2000/svg" xmlns:xlink="http://www.w3.org/1999/xlink">
    <!-- Generator: Sketch 54.1 (76490) - https://sketchapp.com -->
    <title>mississippi-st</title>
    <desc>Created with Sketch.</desc>
    <g id="mississippi-st" stroke="none" stroke-width="1" fill="none" fill-rule="evenodd">
        <g id="mississippi-st_BGD" fill="#FFFFFF">
            <g id="mississippi-st" transform="translate(0.000000, 37.000000)">
                <g id="g10" transform="translate(99.753084, 63.288891) scale(-1, 1) rotate(-180.000000) translate(-99.753084, -63.288891) translate(0.000000, 1.066670)" fill-rule="nonzero">
                    <g id="g12" transform="translate(0.000000, 1.777778)">
                        <path d="M34.2846411,26.0562956 L27.1504191,15.1473774 L27.1504191,0.196759254 L75.4482944,0.196759254 L75.4482944,42.1991101 C60.877233,39.986962 46.9605914,35.8834559 34.2846411,30.4181721 L34.2846411,26.0562956" id="path14"></path>
                        <path d="M123.584194,0.196759254 L171.88049,0.196759254 L171.88049,15.1473774 L164.74923,26.0562956 L164.74923,30.4181721 C152.0717,35.8834559 138.153478,39.986962 123.584194,42.1991101 L123.584194,0.196759254" id="path16"></path>
                        <path d="M72.3974303,122.248491 L27.1427154,122.248491 L27.1427154,107.74301 L34.2846411,96.2761457 L34.2846411,92.0517508 C15.0331848,84.6605411 1.37191305,75.1565413 1.37191305,75.1565413 L8.81866645,58.8766405 L0,30.6905671 C5.51312579,34.408888 17.7862712,41.4228138 17.7862712,41.4228138 L17.7862712,75.6503685 C54.8657764,96.0533309 88.9937756,96.4568865 88.9937756,96.4568865 L72.3974303,122.248491" id="path18"></path>
                        <path d="M82.0177757,43.0601471 L99.5146642,15.4830218 L117.011553,43.0601471 C111.253923,43.6983693 105.412738,44.0509619 99.5146642,44.0509619 C93.6187631,44.0509619 87.7777756,43.6983693 82.0177757,43.0601471" id="path20"></path>
                        <path d="M199.034069,30.6905671 L190.213724,58.8766405 L197.659254,75.1565413 C197.659254,75.1565413 183.996835,84.6605411 164.74923,92.0517508 L164.74923,96.2761457 L171.888193,107.74301 L171.888193,122.248491 L126.635849,122.248491 L110.036343,96.4568865 C110.036343,96.4568865 144.168293,96.0533309 181.246218,75.6503685 L181.246218,41.4228138 C181.246218,41.4228138 193.522366,34.408888 199.034069,30.6905671" id="path22"></path>
                        <path d="M111.216787,61.3195046 C110.489874,61.3742207 109.80859,61.4228133 109.179849,61.4652824 L108.780837,61.4931343 L108.645923,61.8719985 L100.780047,84.8325905 C98.5748124,84.8572818 96.3658248,84.8402942 94.1906149,84.7762942 L85.9683929,61.6272577 C85.9683929,61.6272577 85.8380225,61.2661713 85.8340719,61.2645911 L85.4482942,61.2314059 L83.5895288,61.0577763 L83.5895288,56.2962949 C86.8055287,56.6042455 90.0586644,56.8193566 93.2863187,56.9289862 L93.2863187,61.6936281 L91.899652,61.6450355 C91.899652,61.6450355 90.9993064,61.6094799 90.996936,61.6094799 L92.5894298,65.9683934 L92.9945656,65.9814304 C95.7422198,66.0849366 98.5378741,66.1141712 101.31101,66.0756527 L101.734516,66.0671588 C101.734516,66.0671588 103.252343,61.7438009 103.248392,61.7438009 L102.379652,61.7554552 L100.993775,61.7809367 L100.993775,57.0162949 C104.394269,56.9738257 107.821824,56.8140233 111.216787,56.5540727 L111.216787,61.3195046 Z M99.9806395,71.1326402 L100.259356,70.3302698 L99.4028617,70.33106 C97.9591087,70.3379736 96.4821704,70.3201958 95.020047,70.2854303 L94.1380717,70.2593563 L94.4367384,71.0917513 L96.6913556,77.3657265 C96.6913556,77.3657265 97.273084,78.982319 97.2717013,78.9807388 L97.8311087,77.3580228 L99.9806395,71.1326402 Z M148.300243,72.2638994 C150.665083,71.5045908 153.068638,70.6666649 155.443749,69.7754057 L155.837231,69.630418 L155.837231,67.9290847 C157.732934,67.2114551 159.627255,66.4497761 161.504589,65.6604428 L161.504589,72.059455 C154.305576,75.1142697 146.844046,77.6574795 139.314762,79.6296276 L139.314762,74.8734796 L141.236145,74.3664179 C141.236145,74.3664179 141.683552,74.248492 141.682169,74.248492 L141.682169,56.7423196 C141.682169,56.7423196 141.682169,55.9537764 141.678219,55.9537764 L140.915947,56.1574307 L139.314762,56.5825171 L139.314762,51.8587641 C146.837922,49.9020234 154.295502,47.3734309 161.504589,44.3403446 L161.504589,51.1273074 C159.631206,51.9235543 157.732934,52.6820728 155.837231,53.4050357 L155.837231,52.1643444 L155.837231,51.2932333 L155.019255,51.6017765 C152.692934,52.4768382 150.306367,53.30469 147.928293,54.0740727 L147.50933,54.2060233 L147.50933,61.4891836 L148.300243,61.232196 C150.657379,60.4736775 153.016885,59.6397022 155.339453,58.7755047 L155.339453,63.0293318 C152.887305,63.9545663 150.399009,64.8264675 147.928293,65.6219243 L147.50933,65.7592082 L147.50933,72.5185167 L148.300243,72.2638994 L148.300243,72.2638994 Z M135.09649,80.6759486 C126.756935,82.6188621 118.223009,83.8958991 109.706861,84.4722942 L109.706861,76.4691339 C111.26538,76.3679981 112.835553,76.2346648 114.394269,76.0849364 L114.394269,79.3009363 L115.059355,79.2329857 C116.377281,79.0994548 117.671306,78.9513067 118.908244,78.7970351 L119.436639,78.7290845 L119.436639,61.1512083 C119.436639,61.1512083 119.436639,60.4736775 119.428935,60.4760479 L118.753775,60.5509121 L117.067849,60.7545664 L117.067849,55.9954554 C120.644343,55.5895295 124.237627,55.0532332 127.775404,54.4027641 L127.775404,59.1519985 L125.921972,59.4868133 L125.424392,59.5762948 L125.424392,77.8441462 L126.127997,77.7222697 C127.492342,77.4868129 128.759305,77.2515536 130.003947,77.0046401 L130.491454,76.911208 L130.491454,73.6959982 C132.027058,73.3858747 133.568589,73.0500722 135.09649,72.6937266 L135.09649,80.6759486 Z M56.1611838,74.7531833 C54.6627147,75.7599981 53.1658258,76.751603 51.697579,77.7005413 C48.0371346,76.5663191 44.3926902,75.2969858 40.8626163,73.9219735 L36.2885917,67.536986 L36.2885917,60.1489368 L39.3378756,58.0942208 C42.5578261,59.3704677 45.9814309,60.6010849 49.540937,61.7477515 L50.3310605,62.0031589 L50.3310605,53.9583196 L49.9128876,53.8202456 C47.4915544,53.0447394 45.0903692,52.2060234 42.7739249,51.3372827 L41.9567397,51.0324926 L41.9567397,54.3055789 C40.0501718,53.5778752 38.1497274,52.8201468 36.2885917,52.0278506 L36.2885917,48.6759494 C37.6851349,47.8317025 39.1087398,46.9584186 40.5309619,46.0632087 C44.0910606,47.4498754 47.7400482,48.7192087 51.3819246,49.8457271 L56.1611838,55.8797023 L56.1611838,64.854912 L52.7940728,67.0556033 C49.6758506,66.1141712 46.3982211,64.9985169 42.7739249,63.6442453 L41.9567397,63.3341219 L41.9567397,69.5895291 L42.3488384,69.7376773 C44.7699742,70.6465168 47.1875544,71.4876032 49.540937,72.2423686 L50.3310605,72.5023192 L50.3310605,70.4505661 C52.2530357,71.0593562 54.2060233,71.6357513 56.1611838,72.1752081 L56.1611838,74.7531833 Z M85.267751,84.2561954 C76.7569364,83.5269115 68.2376279,82.0979733 59.9235541,80.0045412 L59.9235541,72.0292328 C61.449875,72.4104673 62.9860725,72.7762945 64.5145663,73.109529 L64.5145663,76.325529 L64.9937762,76.428245 C66.2121465,76.6921462 67.4613316,76.9475536 68.8017761,77.2021709 L69.5199983,77.3349116 L69.5199983,59.564838 C69.5199983,59.564838 69.5199983,59.0656775 69.5146649,59.0656775 L69.0309119,58.9706652 L67.1774798,58.6064183 L67.1774798,53.8611345 C70.7067637,54.5724431 74.290171,55.1705665 77.8563931,55.6412826 L77.8563931,60.3958503 L76.1866648,60.1696775 C76.1866648,60.1696775 75.5008376,60.0732824 75.4953068,60.0732824 L75.4953068,78.3395536 L76.0130351,78.4104672 C77.3556524,78.6018746 78.6658746,78.7778746 79.9089363,78.9228622 L80.5840968,79.0022696 L80.5840968,75.7838993 C82.1343189,75.9630598 83.7052819,76.1210845 85.267751,76.2569857 L85.267751,84.2561954 Z M99.5146642,92.3263187 C127.713775,92.3263187 154.743107,84.6658744 176.778465,72.9244426 L176.778465,29.6936289 C154.743107,41.433678 127.713775,49.0917519 99.5146642,49.0917519 C71.317134,49.0917519 44.2862211,41.433678 22.2514562,29.6936289 L22.2514562,72.9244426 C44.2862211,84.6658744 71.317134,92.3263187 99.5146642,92.3263187 L99.5146642,92.3263187 Z" id="path24"></path>
                    </g>
                </g>
            </g>
        </g>
    </g>
</svg>