<?xml version="1.0" encoding="UTF-8"?>
<svg width="200px" height="200px" viewBox="0 0 200 200" version="1.1" xmlns="http://www.w3.org/2000/svg" xmlns:xlink="http://www.w3.org/1999/xlink">
    <!-- Generator: Sketch 54.1 (76490) - https://sketchapp.com -->
    <title>northwestern</title>
    <desc>Created with Sketch.</desc>
    <g id="northwestern" stroke="none" stroke-width="1" fill="none" fill-rule="evenodd">
        <g id="northwestern_BGD" fill="#FFFFFF">
            <g id="northwestern" transform="translate(36.000000, 0.000000)">
                <g id="g10" transform="translate(63.999998, 100.164612) scale(-1, 1) rotate(-180.000000) translate(-63.999998, -100.164612) translate(0.000000, 0.576137)" fill-rule="nonzero">
                    <g id="g12">
                        <polyline id="path14" points="80.9874852 199.137444 80.9874852 174.345675 106.56492 129.544853 106.56492 76.7958829 34.1762453 199.137444 0 199.137444 0 0.15817942 45.6564501 0.15817942 45.6564501 24.3161311 22.9823994 61.3785993 23.0884917 125.848557 95.707895 0.15817942 127.838356 0.15817942 127.838356 199.137444 80.9874852 199.137444"></polyline>
                        <path d="M57.2929627,2.57041146 L57.2929627,4.84021387 L57.643896,4.84021387 L58.0109114,4.81899576 C58.2669934,4.80324268 58.4593216,4.76787642 58.5852703,4.71451017 C58.8156703,4.62641141 58.9724703,4.46920153 59.0522242,4.24543199 C59.1041626,4.11040319 59.1423165,3.84613159 59.1621729,3.46000814 C59.1781729,3.07162955 59.2144395,2.7745596 59.2689216,2.57041146 L60.8644087,2.57041146 L60.8031985,2.75141557 C60.7836703,2.81153902 60.7673421,2.87647729 60.7606139,2.94142379 C60.7487164,3.00154725 60.7438754,3.06488058 60.7438754,3.13014807 L60.7438754,3.70209867 C60.7438754,4.35731676 60.5590139,4.83539083 60.1836293,5.14242785 C59.9794857,5.3070369 59.6763062,5.43049369 59.2734344,5.51344019 C59.7121626,5.55813155 60.0817216,5.70633731 60.3807985,5.94167886 C60.6814344,6.18344841 60.8333113,6.57375292 60.8333113,7.11195044 C60.8333113,7.82150598 60.54966,8.33012325 59.9794857,8.64362118 C59.6452088,8.82716027 59.2233831,8.93901212 58.7160601,8.97604916 C58.6301524,8.9786006 58.1891268,8.98279813 57.3993832,8.98534957 C56.607014,8.98757179 56.0115678,8.99012323 55.6156704,8.99012323 L55.6156704,2.57041146 L57.2929627,2.57041146 Z M59.1875267,6.99427966 C59.1875267,6.64512741 59.0765934,6.39017268 58.8573524,6.23199984 C58.6397524,6.07156363 58.3336191,5.99986816 57.9426447,5.99986816 L57.2929627,5.99986816 L57.2929627,7.85847717 L57.698378,7.85847717 C58.1150344,7.85847717 58.4384806,7.8141068 58.6685524,7.72441133 C59.0172703,7.59162944 59.1875267,7.34471587 59.1875267,6.99427966 L59.1875267,6.99427966 Z M63.9198343,5.79507804 C63.9198343,7.38843603 63.3525317,8.75325081 62.2269523,9.88716025 C61.0974344,11.0166252 59.74006,11.5853495 58.1461319,11.5853495 C56.627855,11.5853495 55.3015781,11.0599997 54.173373,10.0121808 C52.9727166,8.89053476 52.3727577,7.4848887 52.3727577,5.79507804 C52.3727577,4.1621645 52.9275884,2.79096289 54.0403679,1.67567074 C55.1503576,0.560377764 56.5211883,0 58.1461319,0 C59.7166754,0 61.0637933,0.546553896 62.1862549,1.63772835 C63.34326,2.76041968 63.9198343,4.14576944 63.9198343,5.79507804 L63.9198343,5.79507804 Z M58.1461319,10.5934977 C59.4564088,10.5934977 60.5820703,10.1096294 61.514419,9.14576109 C62.4400395,8.19990926 62.8993625,7.07979406 62.8993625,5.79507804 C62.8993625,4.4666254 62.4374959,3.33011514 61.5076908,2.38200817 C60.5772293,1.43872424 59.4564088,0.967078165 58.1461319,0.967078165 C56.829455,0.967078165 55.7060909,1.43614811 54.7759576,2.37300406 C53.8439371,3.31372008 53.3769012,4.44926738 53.3769012,5.79507804 C53.3769012,7.08493809 53.8345833,8.20730844 54.754132,9.14576109 C55.6887781,10.1096294 56.8176396,10.5934977 58.1461319,10.5934977 L58.1461319,10.5934977 Z" id="path16"></path>
                    </g>
                </g>
            </g>
        </g>
    </g>
</svg>