<?xml version="1.0" encoding="UTF-8"?>
<svg width="200px" height="200px" viewBox="0 0 200 200" version="1.1" xmlns="http://www.w3.org/2000/svg" xmlns:xlink="http://www.w3.org/1999/xlink">
    <!-- Generator: Sketch 54.1 (76490) - https://sketchapp.com -->
    <title>north-texas</title>
    <desc>Created with Sketch.</desc>
    <g id="north-texas" stroke="none" stroke-width="1" fill="none" fill-rule="evenodd">
        <g id="north-texas_BGD" transform="translate(0.000000, 0.000000)" fill="#FFFFFF">
            <g id="north-texas" transform="translate(13.000000, 2.000000)">
                <g id="g10" transform="translate(87.500000, 97.907351) scale(-1, 1) rotate(-180.000000) translate(-87.500000, -97.907351) translate(0.000000, 0.858740)" fill-rule="nonzero">
                    <g id="g12" transform="translate(-0.000000, 0.000000)">
                        <path d="M168.941269,30.6875443 C167.481836,31.2122318 164.864634,30.1145128 164.864634,30.1145128 C164.255437,33.8357676 160.053149,38.9916806 160.053149,38.9916806 C160.053149,38.9916806 168.429856,31.1969654 168.934424,30.7072635 C169.023408,30.8955012 171.621542,36.5265836 166.355847,41.433829 C158.495442,48.7578276 143.431254,62.5382774 143.453744,62.4624343 C144.517151,59.0940213 150.55192,48.2014816 147.361701,28.0179644 L155.116499,26.5519414 L156.05083,24.9827228 C156.05083,24.9827228 164.923305,23.8001574 166.302555,22.4994724 C166.302555,22.4994724 169.363698,20.3715102 166.085473,17.4434765 C166.085473,17.4434765 171.09595,18.4199934 173.91801,21.1788724 C173.91801,21.1788724 176.494142,23.3953019 173.461357,26.4751196 L168.941269,30.6875443" id="path22"></path>
                        <path d="M127.124225,78.1614704 L16.0145555,181.944703 C10.6683357,187.154391 12.7785247,193.772804 12.7785247,193.772804 L3.67865209,173.728692 C1.24090944,167.439585 4.99302219,163.447301 7.61868217,161.335437 C10.2445377,159.225041 96.3089127,89.5183656 96.3089127,89.5183656 L96.3866513,86.6118616 L10.8077274,152.372248 C6.56231642,155.587507 7.0558347,160.774687 7.0558347,160.774687 L0.86466898,148.009067 C-2.13762259,140.822565 5.27317472,136.225004 8.36868913,134.112162 C11.4641546,131.997362 96.7631216,72.5319538 96.7631216,72.5319538 L97.5126396,68.9639021 C97.5126396,68.9639021 14.830092,124.028941 11.7916838,125.89615 C8.13434862,128.150403 8.41601682,133.363027 8.41601682,133.363027 L2.364282,120.407555 C-0.167988916,115.123981 7.0558347,111.439962 10.2445377,109.515015 C12.1178928,108.385197 58.376357,80.761666 96.4844358,58.0767449 L47.0142893,58.0718518 C39.7292477,58.0718518 37.2889871,60.2321573 37.2889871,60.2321573 L43.9203883,54.0350407 C45.0466211,53.0011277 48.0317368,49.247138 52.3943914,49.247138 C55.4882923,49.247138 70.6370641,49.2280549 70.6370641,49.2280549 L74.2262434,47.6759622 L58.3025297,46.4316458 C55.1372461,46.2907244 54.2562079,45.9545681 50.0333851,48.3017903 C49.9942713,48.3257665 57.0968471,41.3887635 57.0968471,41.3887635 C59.0676933,39.7011807 60.6469126,38.0302835 64.0238997,38.3104626 C67.4023535,38.5952902 87.3816785,41.9260264 87.3816785,41.9260264 L90.5469622,40.4947933 L69.5824585,35.9197408 C64.7988417,34.860824 61.3685621,37.3270954 61.3685621,37.3270954 C61.3685621,37.3270954 65.3342117,33.426753 67.959725,30.8901677 C70.6805782,28.2635493 73.1237234,26.6259251 81.752226,29.0640612 C85.179572,30.0348531 102.225363,35.4241182 102.225363,35.4241182 L113.200693,30.6372921 C124.247894,15.3608735 137.965101,7.26239429 137.965101,7.26239429 C135.336166,4.16310199 137.56663,0.526546825 137.56663,0.526546825 C139.849408,5.15493424 144.956203,7.69494472 148.819668,7.12822537 C152.177587,6.63641945 151.278458,2.54783931 151.395311,2.69707899 C153.459541,5.32369741 155.169792,8.47877111 153.084538,11.1415006 C150.550453,14.3831823 144.066853,11.5780634 144.066853,11.5780634 L137.742153,23.1355759 L146.317852,28.0389558 C151.008084,57.8917855 127.124225,78.1614704 127.124225,78.1614704" id="path24"></path>
                        <path d="M121.235644,121.248679 C119.794789,122.90891 68.2022305,180.92498 68.2022305,180.92498 C63.7339687,185.875334 65.3087877,189.757034 65.4398189,190.053066 L59.4187395,176.546631 C58.0795811,172.833254 60.581397,170.425846 62.4265902,168.297346 C64.2717833,166.174228 118.479099,109.499847 118.479099,109.499847 L118.118274,106.38245 L66.7916894,157.66463 C62.6637175,161.894719 63.7897058,165.093341 63.9847859,165.554761 L58.4741415,153.132637 C57.2195666,149.283721 61.1637036,146.742243 63.8899349,144.114645 C66.7892448,141.320683 123.904671,87.8752611 128.576813,83.6128779 C138.570387,74.5014283 143.453744,62.4624343 143.453744,62.4624343 C149.20445,92.0069985 126.816693,114.810333 121.235644,121.248679" id="path26"></path>
                    </g>
                </g>
            </g>
        </g>
    </g>
</svg>