<?xml version="1.0" encoding="UTF-8"?>
<svg width="200px" height="200px" viewBox="0 0 200 200" version="1.1" xmlns="http://www.w3.org/2000/svg" xmlns:xlink="http://www.w3.org/1999/xlink">
    <!-- Generator: Sketch 54.1 (76490) - https://sketchapp.com -->
    <title>northwestern-st</title>
    <desc>Created with Sketch.</desc>
    <g id="northwestern-st" stroke="none" stroke-width="1" fill="none" fill-rule="evenodd">
        <g id="northwestern-st_BGD">
            <g id="northwestern-st" transform="translate(1.000000, 27.000000)">
                <g id="g10" transform="translate(99.500000, 72.652510) scale(-1, 1) rotate(-180.000000) translate(-99.500000, -72.652510) translate(0.000000, 0.152510)" fill-rule="nonzero">
                    <g id="g12">
                        <path d="M32.227719,85.2765006 C32.9765715,85.570589 33.1260796,87.7392924 33.5758362,89.0420246 C34.0264671,90.3447568 31.1795323,92.6612992 31.1795323,92.6612992 C30.5791945,92.2261278 29.232508,89.0420246 29.6806749,87.015199 C30.1303917,84.9887709 31.4777538,84.9887709 32.227719,85.2765006" id="path14" fill="#FFFFFF"></path>
                        <path d="M31.2773365,96.1681049 L29.5468646,94.9138575 C28.4797211,94.1404845 27.7845597,92.5154473 27.3890107,91.2882242 C26.9824136,90.0272208 26.5787971,88.1573748 26.9642517,86.4147023 C27.6280569,83.4237436 29.746805,82.3586666 31.5081562,82.3586666 C32.0842516,82.3586666 32.6777538,82.4695459 33.2242019,82.6793819 L33.2342962,82.6833561 L33.2443906,82.6873303 C35.1273116,83.4265255 35.564629,85.3981101 35.9157467,86.981816 C36.0115639,87.4134106 36.1104412,87.8593123 36.2055828,88.1343247 C36.610789,89.3059093 36.7259603,91.7349207 32.9350017,94.8192723 L31.2773365,96.1681049 L31.2773365,96.1681049 Z M31.1795323,92.6612992 C31.1795323,92.6612992 34.0264671,90.3447568 33.5758362,89.0420246 C33.1260796,87.7392924 32.9765715,85.570589 32.227719,85.2765006 C32.022493,85.1978121 31.7725576,85.1405841 31.5081562,85.1405841 C30.8073912,85.1405841 30.0071528,85.5435647 29.6806749,87.015199 C29.232508,89.0420246 30.5791945,92.2261278 31.1795323,92.6612992 L31.1795323,92.6612992 Z" id="path16" fill="#FFFFFF"></path>
                        <path d="M19.9439637,74.4230483 C21.1419369,74.5685029 20.3926075,77.6067541 21.291922,79.2011903 C22.1907595,80.7916522 19.6423244,83.543366 19.6423244,83.543366 C18.4461794,83.3991037 17.3972375,77.7522087 17.3972375,76.8826608 C17.3972375,76.0154974 18.7439638,74.2791834 19.9439637,74.4230483" id="path18" fill="#FFFFFF"></path>
                        <path d="M20.7189265,86.4747122 L19.3099647,86.3050152 C16.6638843,85.9866844 15.7993439,82.7564808 15.3839241,81.2041708 C15.0060602,79.7925464 14.6153201,77.7903607 14.6153201,76.8826608 C14.6153201,75.3108774 15.6425232,73.985095 16.0843712,73.4879266 C17.1477393,72.2917021 18.4679181,71.6327851 19.8014501,71.6327851 C19.959622,71.6327851 20.1189066,71.6419257 20.2750914,71.6606043 C21.7087327,71.8350702 22.8170089,72.8429192 23.243755,74.357872 C23.4303422,75.0203657 23.4797411,75.7102813 23.5272324,76.377544 C23.5598206,76.8349708 23.6141474,77.5976136 23.7220461,77.8471913 C24.3344654,78.9392926 24.7371678,80.7852936 23.1982905,83.3855916 C22.5412811,84.495974 21.76914,85.3408821 21.6832583,85.4334802 L20.7189265,86.4747122 L20.7189265,86.4747122 Z M19.6423244,83.543366 C19.6423244,83.543366 22.1907595,80.7916522 21.291922,79.2011903 C20.3926075,77.6067541 21.1419369,74.5685029 19.9439637,74.4230483 C19.8964724,74.4174845 19.8489414,74.4143051 19.8014501,74.4143051 C18.6397611,74.4143051 17.3972375,76.0496752 17.3972375,76.8826608 C17.3972375,77.7522087 18.4461794,83.3991037 19.6423244,83.543366 L19.6423244,83.543366 Z" id="path20" fill="#FFFFFF"></path>
                        <path d="M29.4546242,68.579432 C29.832647,68.7594618 30.2019665,68.9339277 30.5805854,69.1151498 C30.5969193,68.0309968 30.6093187,67.1892681 30.6178631,66.5375045 C30.1613107,67.3375045 29.7055134,68.1390942 29.4546242,68.579432 L29.4546242,68.579432 Z M168.602082,45.778439 L164.624735,46.0892189 C164.624735,46.0892189 162.42861,44.6771971 162.291104,44.5877783 C162.163136,44.517833 159.959062,43.2894177 159.110577,42.8149021 C158.059012,42.7755578 154.289514,42.6324878 153.671134,42.609835 C153.269345,42.7016383 152.519817,42.8761042 151.689216,43.0664669 C151.190856,43.7110769 150.808143,44.2038737 150.280771,44.8842512 C150.341973,45.4533521 150.362242,45.6464966 150.423046,46.2144052 C151.603772,47.2206645 154.864974,49.9998 155.21629,50.2994523 C155.443215,50.4254334 155.869643,50.6587171 156.489216,50.9965213 C157.083752,50.8089406 157.516141,50.6718318 157.68862,50.6169883 C158.050269,50.4405353 164.631889,47.2460992 164.631889,47.2460992 C164.631889,47.2460992 167.7532,46.5963227 170.195724,46.0860396 L168.602082,45.778439 Z M35.6133523,71.5004453 C35.2583399,71.0207633 34.1520906,69.522502 33.0531139,68.0353684 C32.7181313,68.4530534 32.3622843,69.2129143 31.9283847,69.2129143 C31.5207543,69.2129143 31.0506897,69.2129143 30.7870832,69.2129143 C32.0173663,69.7955273 33.3944949,70.4472908 35.6133523,71.5004453 Z M38.3358162,70.3860887 C37.9863677,70.8192729 37.3913155,71.5548914 36.9315043,72.1259793 C38.3564819,72.7999982 39.2489608,73.2228496 40.0488813,73.6035749 C40.5174356,72.714951 40.6124183,72.5341264 41.0921003,71.6244393 C39.842622,71.0644791 39.4124183,70.8705397 38.3358162,70.3860887 Z M37.6016682,59.448384 L39.2817079,59.3220055 C39.2821848,59.3168391 39.2841719,59.3108778 39.2857218,59.305314 C39.4502921,58.5883741 39.4898748,58.0768987 39.2677188,57.9242907 C38.9754188,57.7235952 38.7423736,57.6055624 38.5587273,57.547937 C38.1098053,57.4028798 37.9404263,57.5940373 37.6209429,57.4903115 C37.227858,57.363933 37.5212708,58.5653239 37.6016682,59.448384 L37.6016682,59.448384 Z M192.835365,14.7138794 C192.835365,14.7138794 182.638843,19.0159161 182.227914,19.1883949 C181.894084,19.3962837 177.642917,22.0538494 176.723294,22.6270039 C176.398207,23.1658216 176.03934,23.7655235 175.641526,24.4240431 C175.698356,25.0826025 175.741277,25.5666164 175.816786,26.4539685 C177.224039,27.3132631 180.145053,29.094962 180.145053,29.094962 C180.145053,29.094962 183.912166,33.9660995 184.519022,34.7509976 C185.191451,35.1196812 187.76234,36.5317428 187.76234,36.5317428 L188.460204,39.7718818 C188.460204,39.7718818 187.660601,40.9088912 187.62086,40.966914 C187.837452,41.4692488 188.647785,43.3645295 188.647785,43.3645295 L186.489812,46.4977634 L183.798108,46.547043 C183.798108,46.547043 181.514948,45.3313451 181.206553,45.1676094 C180.836558,45.0348722 174.950815,42.9174356 174.950815,42.9174356 C174.950815,42.9174356 172.898158,39.332776 172.426424,38.5092092 C172.184,38.3412608 172.072326,38.2640825 171.717035,38.0197507 C171.19324,38.1858709 170.893985,38.2811714 170.668252,38.3522693 C170.387278,38.5236751 169.949325,38.7919315 169.351213,39.1570383 C169.265371,39.4046687 169.240731,39.4742166 169.133428,39.7845991 L171.08554,41.1914545 L172.32389,43.4483844 L171.580721,45.7979124 L174.899549,45.1274703 C174.826821,45.613511 173.560651,54.1182301 173.560651,54.1182301 C173.560651,54.1182301 169.05474,58.3972166 167.796121,59.5902618 C167.797313,61.2212603 167.798505,65.7883739 167.798505,66.4437142 C168.017482,67.120515 169.634174,72.1076981 169.634174,72.1076981 L167.454343,74.942472 C167.454343,74.942472 126.323693,74.942472 117.1688,74.942472 C117.371085,76.6024819 116.030201,76.5055122 116.491999,77.2506687 C117.104816,78.2346727 118.634076,77.2506687 119.348631,80.0091386 C119.96105,84.1482344 119.04262,83.0640814 118.839143,84.5420744 C118.634076,86.0208622 121.286435,87.2997494 121.897662,89.2709367 C122.509287,91.2433161 122.206058,93.1171363 122.000593,94.4941854 C123.223842,96.07193 123.939192,96.8611998 125.468452,97.6492772 C126.662689,98.2668629 126.243812,99.0573249 126.001388,99.3760532 C134.975456,103.407449 141.055933,106.138497 141.055933,106.138497 L141.055933,116.536112 C141.055933,116.536112 134.986584,113.809038 125.958467,109.752605 C126.200891,110.644409 126.407548,111.405064 126.531542,111.854543 C126.738993,112.160156 126.913062,112.412913 127.195625,112.827022 C128.066365,113.264577 131.535814,115.003673 131.535814,115.003673 L131.655436,119.627617 C131.655436,119.627617 129.876599,121.251065 129.461298,121.629406 C129.160851,122.161547 128.131939,123.978139 127.702729,124.738 C127.665372,125.807448 127.482163,131.25643 127.482163,131.25643 C127.482163,131.25643 124.617583,136.668054 124.019868,137.79791 C124.07034,138.396817 124.387478,142.07332 124.387478,142.07332 L36.2385287,142.07332 L36.2385287,105.784001 L37.6061988,102.973867 C37.6061988,102.973867 41.2518619,99.9141555 41.9664172,99.314851 C42.3030292,98.6475882 43.43368,96.406555 44.1128653,95.0593121 C43.6284142,94.0164904 42.487828,91.5652237 42.487828,91.5652237 L43.4686527,89.5372059 C43.4686527,89.5372059 44.9112756,88.4697444 45.5284638,88.0147022 C45.9135607,87.1205145 46.91982,84.787678 46.91982,84.787678 C46.91982,84.787678 47.404271,84.1979115 47.6145045,83.9423725 C47.5568791,83.4312945 47.3530043,81.6377526 47.3530043,81.6377526 C47.3530043,81.6377526 48.4633868,80.5071018 48.6378527,80.3294565 C48.8914046,79.9050154 50.0844498,77.9139573 50.4508681,77.3023329 C50.5005452,77.029705 50.5959252,76.5047174 50.6984587,75.940783 C49.4561339,75.3828098 48.6211612,75.0080458 48.2861389,74.8582197 C46.9949318,77.3063071 43.7023337,83.5497247 43.7023337,83.5497247 L41.358767,82.4965702 L41.2149021,83.2520595 C41.2149021,83.2520595 40.3171376,85.570589 39.5676493,86.1472408 C38.8187571,86.7258796 36.1241124,89.6214583 35.6732828,90.3447568 C35.2226121,91.0672605 33.2755878,82.8208623 32.3773464,82.8208623 C31.4777538,82.8208623 32.6768,78.6197695 31.9283847,78.4755072 C31.1795323,78.3300527 31.1795323,79.0561331 30.7293385,79.3438629 C30.2803768,79.6343746 30.7293385,83.2520595 30.7293385,83.6840516 C30.7293385,84.12121 29.5310077,87.1602561 28.632806,87.1602561 C27.7331737,87.1602561 26.8343361,81.5141559 26.086517,81.3714833 C25.3356377,81.2240417 26.2357072,79.6343746 25.7858314,79.2011903 C25.3356377,78.7640318 24.886358,80.0663666 23.3876596,79.6343746 C21.891147,79.2011903 20.5427119,75.2910066 20.9929056,73.5523081 C20.9988271,73.5284631 21.0098355,73.452954 21.0225529,73.3603558 L19.8613805,72.8381502 C19.7056726,72.8449063 19.5504416,72.843714 19.4953199,72.8305993 C18.894545,72.6887215 17.0948033,77.7522087 15.2976052,77.3182296 C13.5003673,76.8826608 15.148097,75.2910066 14.1019371,74.7115729 C13.0508094,74.1329341 13.350263,72.540485 12.9009833,72.3970176 C12.4524984,72.2527553 13.6504716,70.3705894 12.9009833,69.935418 C12.8002381,69.87819 12.7370489,69.7394916 12.7069247,69.6250355 L9.53069027,68.1967196 C9.53069027,68.1967196 29.1446391,64.9359149 30.587421,64.6970674 C30.4439933,64.5007435 27.2834568,60.2225519 27.2834568,60.2225519 L30.1498254,60.0087417 C29.6150216,59.1650258 28.7812015,58.07054 28.7812015,58.07054 C28.7812015,58.07054 28.3319218,53.2923981 28.3319218,52.8588164 L28.9035264,53.1139579 L22.1547535,41.9684043 L45.5841022,52.4947826 C45.6091394,52.0997503 45.6341767,51.6872317 45.651663,51.4126167 C45.4640823,50.9615487 45.057525,49.9890698 45.057525,49.9890698 L44.9780416,46.9098846 C44.9780416,46.9098846 46.1142562,45.0543456 46.7028304,44.0949815 C46.1082949,42.461996 44.6414296,38.4342564 44.3350212,37.5968595 C43.7484341,37.0125376 41.9723785,35.2457418 41.9723785,35.2457418 C41.9723785,35.2457418 41.3516135,33.7132232 41.131842,33.1728159 C41.005066,33.0329252 39.7298748,31.6196316 39.7298748,31.6196316 L41.036462,28.3671727 L42.6201678,26.4513456 C42.6201678,26.4513456 62.7584684,28.8234469 64.1641315,28.9887723 C65.360356,28.5042417 72.7276683,25.5189661 72.7276683,25.5189661 L88.81351,22.0887824 L98.6098336,22.6440531 L101.455338,24.216671 C100.211821,25.5618076 98.4715326,27.4472323 98.42424,27.4984593 C100.222153,29.0376545 101.904816,30.4795223 102.692099,31.1531438 C102.895576,31.1666162 102.96274,31.1706699 103.215497,31.1860499 C103.339093,30.8304016 103.652258,29.9298154 103.652258,29.9298154 L104.677196,28.5679079 L108.718129,27.7328557 C108.718129,27.7328557 109.797116,28.1503023 110.006952,28.2296267 C110.028015,28.2245 110.038745,28.2201682 110.061796,28.2138095 C110.01649,28.0723689 109.964826,27.9149521 109.914354,27.760357 L110.695278,26.1075006 L111.691204,25.4422646 C111.691204,25.4422646 112.17645,25.2438742 112.336609,25.1771479 C112.780921,24.4360054 113.791155,22.7600193 113.791155,22.7600193 L118.358666,20.5197412 C118.358666,20.5197412 121.139391,19.9844605 122.432585,19.7365519 C123.513956,18.3399896 129.346047,10.8140683 129.346047,10.8140683 C129.346047,10.8140683 133.406852,9.9560852 134.487031,9.72912047 C134.869346,9.39131621 136.16254,8.24405345 136.16254,8.24405345 L142.180225,8.56667639 C142.180225,8.56667639 145.40566,11.8116639 146.381318,12.7932436 C146.44093,12.8016291 146.442917,12.8016291 146.504914,12.8079878 C146.619768,12.6907895 148.209038,11.0779928 148.209038,11.0779928 C148.209038,11.0779928 150.87332,12.2030399 151.597016,12.5091701 C151.824735,12.4482858 151.842619,12.443954 152.078685,12.3807647 C152.705014,11.3709287 154.370985,8.68232467 154.370985,8.68232467 L157.51018,8.2960753 L163.442023,11.9184498 L163.04858,14.6972674 C162.767606,14.9253449 162.535912,15.1105411 162.423046,15.2024239 C162.880473,16.8464179 163.387974,18.6821655 163.723394,19.886378 C164.112465,20.0953 164.202678,20.1414401 164.67481,20.3938395 C165.016191,20.1240333 165.157671,20.0127168 165.366712,19.8469146 C165.694978,19.1753597 166.742172,17.0277591 166.742172,17.0277591 C166.742172,17.0277591 177.323791,12.4223743 179.672127,11.399185 C179.869245,9.78793816 180.597313,3.84982007 180.597313,3.84982007 C180.597313,3.84982007 190.391649,7.53788357 190.656726,7.63878769 C190.886831,7.6991553 193.186682,8.31081946 193.186682,8.31081946 L194.820462,11.8287528 L192.835365,14.7138794 L192.835365,14.7138794 Z" id="path22" fill="#FFFFFF"></path>
                        <path d="M153.797512,45.4354683 L153.946544,45.5622443 C155.035068,46.489815 156.237651,47.5147529 156.771382,47.9697951 C157.349226,47.6888215 158.626921,47.0684539 159.908988,46.4460992 C159.403473,46.1639333 158.806951,45.8312954 158.337999,45.5697952 L156.098158,45.4851454 L153.934621,45.403675 C153.890508,45.4136104 153.844805,45.4243406 153.797512,45.4354683 L153.797512,45.4354683 Z M42.9031286,86.2406337 C42.8220556,86.3900624 42.7378032,86.537504 42.6511663,86.6817663 C42.8021847,86.5696948 42.9611514,86.4520594 43.1169388,86.3368086 L42.9031286,86.2406337 Z M127.420166,144.855237 L33.4566112,144.855237 L33.4566112,105.142968 L33.7372669,104.566714 L35.1046191,101.756182 L35.3640528,101.223644 L35.8178232,100.842918 C35.8178232,100.842918 38.5386975,98.5593617 39.7404461,97.5511153 L40.2670631,96.5063066 L41.022155,95.0100324 L39.9658212,92.7383981 L39.4090005,91.5421736 L39.9837049,90.3538974 L40.6911068,88.8902114 C39.8056622,89.775656 38.3499245,91.3653231 38.0205058,91.8382491 C37.4900736,92.6728243 36.5918322,93.1703901 35.6124383,93.1715824 C35.6113255,93.1715824 35.6102525,93.1715824 35.6093384,93.1715824 C33.5342267,93.1719798 32.7977339,91.2540464 32.4832183,90.434573 C32.2430593,89.809039 31.9794925,89.0165899 31.7006649,88.175656 C31.0578035,89.0416272 30.0611617,89.9421736 28.632806,89.9421736 C27.1744454,89.9421736 26.066209,89.0245383 25.3387376,87.2143048 C25.056055,86.5108771 24.8036159,85.670738 24.5597212,84.8580207 C24.4270237,84.4160933 24.2458414,83.8124172 24.1030098,83.4058598 C23.7982706,83.1455518 23.5472622,82.8268236 23.3612711,82.463982 C23.1136805,82.4313939 22.865136,82.3789349 22.6173467,82.3073998 C20.7246493,81.7593621 19.6003969,79.9149508 18.9693388,78.3527054 C18.0776548,79.3573751 16.9667557,80.1263765 15.5196022,80.1263765 C15.2249574,80.1263765 14.9307498,80.0918013 14.6444904,80.0226508 C13.8971879,79.8414287 11.6230499,79.0565306 11.6333032,76.244012 C10.9364329,75.4428198 10.6742173,74.5124671 10.54303,73.9187264 C10.1346048,73.3182297 9.94412295,72.5575739 10.0430002,71.7555869 C10.0540087,71.6673604 10.0678388,71.5803261 10.083656,71.4956763 L8.38982592,70.7338283 L0.00015524093,66.9611508 L9.07445581,65.4525567 C9.07445581,65.4525567 19.4370984,63.729755 25.6526173,62.6968688 C25.4411916,62.4107287 25.2361246,62.1329344 25.0459606,61.8750109 L22.0521405,57.822552 L25.9367306,57.5328351 C25.6088618,54.0081457 25.5590257,53.1946335 25.551435,52.9486326 L19.7750616,43.4094376 L15.1502828,35.772319 L23.2946641,39.4313353 L42.2215588,47.9340276 L42.196919,46.9822144 L42.1758559,46.1591643 L42.6054634,45.4573262 C42.6054634,45.4573262 43.1157466,44.6243407 43.6296065,43.7853938 C43.0720307,42.2545444 42.3268743,40.2082454 41.9338291,39.1320408 C41.1803268,38.3817576 40.0107293,37.2185584 40.0107293,37.2185584 L39.607073,36.817088 L39.3934615,36.2897557 C39.3934615,36.2897557 39.009239,35.3407641 38.7386776,34.6733821 C38.3188863,34.2084443 37.6645395,33.4835958 37.6645395,33.4835958 L36.5008635,32.194336 L37.1483746,30.5827712 L38.4552002,27.3299943 L38.6166309,26.9285637 L38.8923587,26.5950912 L40.4757069,24.6791052 L41.4410322,23.5115344 L42.9456522,23.6888221 L63.7810218,26.1424335 C65.955289,25.2617182 71.6828596,22.9400888 71.6828596,22.9400888 L71.9089898,22.848683 L72.1474398,22.7977342 L88.2332815,19.3677094 L88.5981101,19.2902529 L88.970887,19.3113557 L98.7676081,19.8667854 L99.4002956,19.9029901 L99.9550894,20.2091202 L102.800991,21.7812215 L105.907201,23.498062 L103.651463,25.9390356 L104.114056,25.8435761 L108.135914,25.0122597 L108.17963,24.9192642 L108.509088,24.2220759 L109.150519,23.7940978 L110.146048,23.1288618 L110.378934,22.9730347 L110.427022,22.953601 C110.886833,22.1901236 111.408641,21.3237551 111.408641,21.3237551 L111.831492,20.6228311 L112.565919,20.2623741 L117.13343,18.021619 L117.467657,17.8580025 L117.832883,17.7879777 C117.832883,17.7879777 119.518725,17.4633677 120.876698,17.202543 C122.739391,14.7981715 127.14714,9.10998487 127.14714,9.10998487 L127.772277,8.30291087 L128.770985,8.09176333 C128.770985,8.09176333 131.635168,7.48697448 133.193837,7.15862873 C133.700146,6.70950803 134.316539,6.16305996 134.316539,6.16274202 L135.170985,5.40439132 L136.311571,5.46603066 L142.329256,5.78877283 L143.398307,5.84635852 L144.153002,6.60550406 C144.153002,6.60550406 145.305908,7.76516622 146.441725,8.90773947 L147.552108,7.78066548 L149.291203,8.51513143 C149.291203,8.51513143 150.01172,8.81907579 150.805361,9.15457503 C151.415396,8.17017367 152.006355,7.21716822 152.006355,7.21716822 L152.708193,6.0840535 L154.031193,5.92103314 L157.170786,5.53526067 L158.132932,5.41683047 L158.960354,5.92198694 L164.891799,9.54388451 L166.452852,10.4974066 L166.196518,12.3087528 L165.906404,14.3571581 C167.317234,13.74303 173.816588,10.9142173 177.104019,9.48319897 C177.392147,7.12882247 177.836061,3.51155083 177.836061,3.51155083 L178.266861,0.000465724777 L181.577343,1.24674016 C181.953696,1.38816489 190.284347,4.52466953 191.506006,4.98603068 C192.069543,5.13506197 193.901237,5.62189752 193.901237,5.62189752 L195.160651,5.95691987 L195.709483,7.13875789 L197.343661,10.6566515 L198.012514,12.0972873 L197.112365,13.4056629 L195.12687,16.2909882 L194.665867,16.9609931 L193.916736,17.2768997 C193.916736,17.2768997 185.033676,21.0248976 183.512365,21.6660501 C183.187278,21.8686532 182.515246,22.2891996 181.749027,22.7676497 C180.71773,23.4121802 179.516737,24.1624634 178.76244,24.6334817 L178.637253,24.8413307 C178.626523,24.8596516 178.615395,24.8778136 178.604268,24.8961345 C180.003175,25.7498255 181.593637,26.7194429 181.593637,26.7194429 L182.03159,26.9866263 L182.345549,27.3931836 L186.36542,32.5905208 C187.356975,33.135101 189.101237,34.0932331 189.101237,34.0932331 L190.214402,34.7044204 L190.481863,35.945553 L191.179727,39.1860894 L191.436061,40.3763527 L190.788669,41.29677 C191.012017,41.8181808 191.205559,42.2704411 191.205559,42.2704411 L191.808043,43.679681 L190.938892,44.9422741 L188.781317,48.0759054 L187.970189,49.2530539 L186.540681,49.2792834 L183.848977,49.3285631 L183.127268,49.3416779 L182.490606,49.0026813 C182.490606,49.0026813 180.697859,48.0476888 180.077492,47.7178329 L177.466066,46.778737 C177.096468,49.2586177 176.312365,54.5275694 176.312365,54.5275694 L176.170885,55.4754084 L175.4762,56.1351203 C175.4762,56.1351203 172.35171,59.1030288 170.578833,60.7852941 C170.579628,62.4850456 170.580026,64.9446581 170.580423,66.0045686 C171.030696,67.3947325 172.280572,71.2496753 172.280572,71.2496753 L172.732037,72.6426211 L171.839439,73.8034756 L169.659211,76.6382495 L168.824238,77.7243895 L167.454343,77.7243895 L121.449376,77.7243895 C121.680673,78.171086 121.881765,78.6948813 122.041527,79.3112747 L122.078884,79.4551396 L122.100742,79.6017864 C122.469545,82.0971664 122.426226,83.4197694 121.860702,84.5730729 C121.97794,84.7002463 122.102332,84.8302016 122.204865,84.9379015 C123.037851,85.8110262 124.073916,86.8971662 124.554393,88.4470917 C125.166813,90.4218557 125.092098,92.2571264 124.920812,93.6921984 C125.554294,94.4421238 125.978735,94.78271 126.742968,95.17655 C128.111671,95.8843493 128.677195,96.8611998 128.906107,97.6309961 L142.195724,103.600594 L143.83785,104.338199 L143.83785,106.138497 L143.83785,116.536112 L143.83785,120.835764 L139.915744,119.073618 L134.359063,116.577046 L134.436559,119.555288 L134.469147,120.825432 L133.530846,121.681865 C133.530846,121.681865 132.321904,122.785094 131.663782,123.385591 L131.083156,124.412516 L130.459609,125.51495 C130.397612,127.322401 130.262491,131.35022 130.262491,131.35022 L130.240633,131.991254 L129.940583,132.55797 L126.861398,138.376152 C126.97029,139.649475 127.159063,141.833678 127.159063,141.833678 L127.420166,144.855237 L127.420166,144.855237 Z M153.671134,42.6102324 C154.289514,42.6328852 158.059012,42.7755578 159.110577,42.8149021 C159.959062,43.2894177 162.163136,44.517833 162.291104,44.5877783 C162.42861,44.6771971 164.624735,46.0892189 164.624735,46.0892189 L168.602082,45.778439 L170.195724,46.0860396 C167.7532,46.5963227 164.631889,47.2460992 164.631889,47.2460992 C164.631889,47.2460992 158.050269,50.4405353 157.68862,50.6169883 C157.516141,50.6718318 157.083752,50.8089406 156.489216,50.9965213 C155.869643,50.6587171 155.443215,50.4254334 155.21629,50.2994523 C154.864974,49.9998 151.603772,47.2206645 150.423046,46.2144052 C150.362242,45.6464966 150.341973,45.4533521 150.280771,44.8842512 C150.808143,44.2038737 151.190856,43.7110769 151.689216,43.0664669 C152.519817,42.8761042 153.269345,42.7016383 153.671134,42.6102324 L153.671134,42.6102324 Z M37.568007,57.4811709 C37.5841421,57.4811709 37.6015092,57.4839529 37.6209429,57.4903115 C37.6960547,57.514554 37.7628207,57.5225023 37.827083,57.5225023 C37.9536205,57.5225023 38.0695867,57.4911064 38.2178232,57.4911064 C38.3139186,57.4911064 38.423844,57.5042211 38.5587273,57.547937 C38.7423736,57.6059598 38.9754188,57.7235952 39.2677188,57.9242907 C39.4898748,58.0768987 39.4502921,58.5883741 39.2857218,59.305314 C39.2841719,59.3108778 39.2821848,59.3168391 39.2817079,59.3220055 L37.6016682,59.448384 C37.5251655,58.6082449 37.2561143,57.4811709 37.568007,57.4811709 L37.568007,57.4811709 Z M30.6178631,66.5375045 C30.6093187,67.1892681 30.5969193,68.0309968 30.5805854,69.1151498 C30.2019665,68.9339277 29.832647,68.7594618 29.4546242,68.579432 C29.7055134,68.1390942 30.1613107,67.3375045 30.6178631,66.5375045 L30.6178631,66.5375045 Z M30.7870832,69.2129143 C31.0506897,69.2129143 31.5207543,69.2129143 31.9283847,69.2129143 C32.3622843,69.2129143 32.7181313,68.4530534 33.0531139,68.0353684 C34.1520906,69.522502 35.2583399,71.0207633 35.6133523,71.5004453 C33.3944949,70.4472908 32.0173663,69.7955273 30.7870832,69.2129143 L30.7870832,69.2129143 Z M38.3358162,70.3860887 C39.4124183,70.8705397 39.842622,71.0644791 41.0921003,71.6244393 C40.6124183,72.5341264 40.5174356,72.714951 40.0488813,73.6035749 C39.2489608,73.2228496 38.3564819,72.7999982 36.9315043,72.1259793 C37.3913155,71.5548914 37.9863677,70.8192729 38.3358162,70.3860887 L38.3358162,70.3860887 Z M124.387478,142.07332 C124.387478,142.07332 124.07034,138.396817 124.019868,137.79791 C124.617583,136.668054 127.482163,131.25643 127.482163,131.25643 C127.482163,131.25643 127.665372,125.807448 127.702729,124.738 C128.131939,123.978139 129.160851,122.161547 129.461298,121.629406 C129.876599,121.251065 131.655436,119.627617 131.655436,119.627617 L131.535814,115.003673 C131.535814,115.003673 128.066365,113.264577 127.195625,112.827022 C126.913062,112.412913 126.738993,112.160156 126.531542,111.854543 C126.407548,111.405064 126.200891,110.644409 125.958467,109.752605 C134.986584,113.809038 141.055933,116.536112 141.055933,116.536112 L141.055933,106.138497 C141.055933,106.138497 134.975456,103.407449 126.001388,99.3760532 C126.243812,99.0573249 126.662689,98.2668629 125.468452,97.6492772 C123.939192,96.8611998 123.223842,96.07193 122.000593,94.4941854 C122.206058,93.1171363 122.509287,91.2433161 121.897662,89.2709367 C121.286435,87.2997494 118.634076,86.0208622 118.839143,84.5420744 C119.04262,83.0640814 119.96105,84.1482344 119.348631,80.0091386 C118.634076,77.2506687 117.104816,78.2346727 116.491999,77.2506687 C116.030201,76.5055122 117.371085,76.6024819 117.1688,74.942472 C126.323693,74.942472 167.454343,74.942472 167.454343,74.942472 L169.634174,72.1076981 C169.634174,72.1076981 168.017482,67.120515 167.798505,66.4437142 C167.798505,65.7883739 167.797313,61.2212603 167.796121,59.5902618 C169.05474,58.3972166 173.560651,54.1182301 173.560651,54.1182301 C173.560651,54.1182301 174.826821,45.613511 174.899549,45.1274703 L171.580721,45.7979124 L172.32389,43.4483844 L171.08554,41.1914545 L169.133428,39.7845991 C169.240731,39.4742166 169.265371,39.4046687 169.351213,39.1570383 C169.949325,38.7919315 170.387278,38.5236751 170.668252,38.3522693 C170.893985,38.2816483 171.19324,38.1858709 171.717035,38.0197507 C172.072326,38.2640825 172.184,38.3412608 172.426424,38.5092092 C172.898158,39.332776 174.950815,42.9174356 174.950815,42.9174356 C174.950815,42.9174356 180.836558,45.0348722 181.206553,45.1676094 C181.514948,45.3313451 183.798108,46.547043 183.798108,46.547043 L186.489812,46.4977634 L188.647785,43.3645295 C188.647785,43.3645295 187.837452,41.4692488 187.62086,40.966914 C187.660601,40.9088912 188.460204,39.7718818 188.460204,39.7718818 L187.76234,36.5317428 C187.76234,36.5317428 185.191451,35.1196812 184.519022,34.7509976 C183.912166,33.9664174 180.145053,29.094962 180.145053,29.094962 C180.145053,29.094962 177.224039,27.3132631 175.816786,26.4539685 C175.741277,25.5666164 175.698356,25.0826025 175.641526,24.4240431 C176.03934,23.7655235 176.398207,23.1658216 176.723294,22.6270039 C177.642917,22.0538494 181.894084,19.3962837 182.227914,19.1883949 C182.638843,19.0159161 192.835365,14.7138794 192.835365,14.7138794 L194.820462,11.8287528 L193.186682,8.31081946 C193.186682,8.31081946 190.886831,7.6991553 190.656726,7.63878769 C190.391649,7.53788357 180.597313,3.85013006 180.597313,3.85013006 C180.597313,3.85013006 179.869245,9.78793816 179.672127,11.399185 C177.323791,12.4223743 166.742172,17.0277591 166.742172,17.0277591 C166.742172,17.0277591 165.694978,19.1753597 165.366712,19.8469146 C165.157671,20.0127168 165.016191,20.1240333 164.67481,20.3938395 C164.202678,20.1414401 164.112465,20.0953 163.723394,19.886378 C163.387974,18.6821655 162.880473,16.8464179 162.423046,15.2024239 C162.535912,15.1105411 162.767606,14.9253449 163.04858,14.6972674 L163.442023,11.9184498 L157.51018,8.2960753 L154.370985,8.68232467 C154.370985,8.68232467 152.705014,11.3709287 152.078685,12.3807647 C151.842619,12.443954 151.824735,12.4482858 151.597016,12.5091701 C150.87332,12.2030399 148.209038,11.0779928 148.209038,11.0779928 C148.209038,11.0779928 146.619768,12.6907895 146.504914,12.8079878 C146.442917,12.8016291 146.44093,12.8016291 146.381318,12.7932436 C145.40566,11.8116639 142.180225,8.56667639 142.180225,8.56667639 L136.16254,8.24405345 C136.16254,8.24405345 134.869346,9.39131621 134.487031,9.72912047 C133.406852,9.9560852 129.346047,10.8140683 129.346047,10.8140683 C129.346047,10.8140683 123.513956,18.3399896 122.432585,19.7368698 C121.139391,19.9844605 118.358666,20.5197412 118.358666,20.5197412 L113.791155,22.7600193 C113.791155,22.7600193 112.780921,24.4360054 112.336609,25.1771479 C112.17645,25.2438742 111.691204,25.4422646 111.691204,25.4422646 L110.695278,26.1075006 L109.914354,27.760357 C109.964826,27.9149521 110.01649,28.0723689 110.061796,28.2138095 C110.038745,28.2201682 110.028015,28.2245 110.006952,28.2296267 C109.797116,28.1503023 108.718129,27.7328557 108.718129,27.7328557 L104.677196,28.5679079 L103.652258,29.9298154 C103.652258,29.9298154 103.339093,30.8304016 103.215497,31.1860499 C102.96274,31.1706699 102.895576,31.1666162 102.692099,31.1531438 C101.904816,30.4795223 100.222153,29.0376545 98.42424,27.4984593 C98.4715326,27.4472323 100.211821,25.5618076 101.455338,24.216671 L98.6098336,22.6440531 L88.81351,22.0887824 L72.7276683,25.5189661 C72.7276683,25.5189661 65.360356,28.5042417 64.1641315,28.9887723 C62.7584684,28.8234469 42.6201678,26.4513456 42.6201678,26.4513456 L41.036462,28.3671727 L39.7298748,31.6196316 C39.7298748,31.6196316 41.005066,33.0329252 41.131842,33.1728159 C41.3516135,33.7132232 41.9723785,35.2460597 41.9723785,35.2460597 C41.9723785,35.2460597 43.7484341,37.0125376 44.3350212,37.5968595 C44.6414296,38.4342564 46.1082949,42.461996 46.7028304,44.0949815 C46.1142562,45.0543456 44.9780416,46.910282 44.9780416,46.910282 L45.057525,49.9890698 C45.057525,49.9890698 45.4640823,50.9615487 45.651663,51.4130141 C45.6341767,51.6872317 45.6091394,52.0997503 45.5841022,52.4947826 L22.1547535,41.9684043 L28.9035264,53.1139579 L28.3319218,52.8588164 C28.3319218,53.2923981 28.7812015,58.07054 28.7812015,58.07054 C28.7812015,58.07054 29.6150216,59.1650258 30.1498254,60.0087417 L27.2834568,60.2225519 C27.2834568,60.2225519 30.4439933,64.501141 30.587421,64.6970674 C29.1446391,64.9359149 9.53069027,68.1967196 9.53069027,68.1967196 L12.7069247,69.6250355 C12.7370489,69.7394916 12.8002381,69.87819 12.9009833,69.935418 C13.6504716,70.3705894 12.4524984,72.2527553 12.9009833,72.3970176 C13.350263,72.540485 13.0508094,74.1329341 14.1019371,74.7115729 C15.148097,75.2910066 13.5003673,76.8826608 15.2976052,77.3182296 C15.371485,77.3361133 15.4452455,77.3444591 15.5191253,77.3444591 C17.2158962,77.3444591 18.8707795,72.8278174 19.4695276,72.8278174 C19.47839,72.8278174 19.4869344,72.8286122 19.4953199,72.8305993 C19.5289811,72.8385476 19.6005559,72.8421244 19.6868748,72.8421244 C19.7410427,72.8421244 19.8012911,72.8405347 19.8613805,72.8381502 L21.0225529,73.3603558 C21.0098355,73.452954 20.9988271,73.5284631 20.9929056,73.5523081 C20.5427119,75.2910066 21.891147,79.2011903 23.3876596,79.6343746 C23.6062389,79.6975638 23.8024833,79.7233959 23.9796119,79.7233959 C24.8382309,79.7233959 25.2494778,79.1101818 25.5835463,79.1101818 C25.6530942,79.1101818 25.7193834,79.1368088 25.7858314,79.2011903 C26.2357072,79.6343746 25.3356377,81.2240417 26.086517,81.3714833 C26.8343361,81.5141559 27.7331737,87.1602561 28.632806,87.1602561 C29.5310077,87.1602561 30.7293385,84.12121 30.7293385,83.6840516 C30.7293385,83.2520595 30.2803768,79.6343746 30.7293385,79.3438629 C31.1389957,79.0819652 31.1757965,78.4564312 31.7445794,78.4564312 C31.800496,78.4564312 31.8614995,78.4623925 31.9283847,78.4755072 C32.6768,78.6197695 31.4777538,82.8208623 32.3773464,82.8208623 C33.238032,82.8208623 35.0613007,90.3904597 35.6088615,90.3896649 C35.6327463,90.3896649 35.654485,90.3753579 35.6732828,90.3447568 C36.1241124,89.6214583 38.8187571,86.7258796 39.5676493,86.1472408 C40.3171376,85.570589 41.2149021,83.2520595 41.2149021,83.2520595 L41.358767,82.4965702 L43.7023337,83.5497247 C43.7023337,83.5497247 46.9949318,77.3063071 48.2861389,74.8582197 C48.6211612,75.0080458 49.4561339,75.3828098 50.6984587,75.940783 C50.5959252,76.5047174 50.5005452,77.029705 50.4508681,77.3023329 C50.0844498,77.9139573 48.8914046,79.9050154 48.6378527,80.3294565 C48.4633868,80.5071018 47.3530043,81.6377526 47.3530043,81.6377526 C47.3530043,81.6377526 47.5568791,83.4312945 47.6145045,83.9423725 C47.404271,84.1979115 46.91982,84.787678 46.91982,84.787678 C46.91982,84.787678 45.9135607,87.1205145 45.5284638,88.0147022 C44.9112756,88.4697444 43.4686527,89.5372059 43.4686527,89.5372059 L42.487828,91.5652237 C42.487828,91.5652237 43.6284142,94.0164904 44.1128653,95.0593121 C43.43368,96.406555 42.3030292,98.6475882 41.9664172,99.314851 C41.2518619,99.9141555 37.6061988,102.973867 37.6061988,102.973867 L36.2385287,105.784001 L36.2385287,142.07332 L124.387478,142.07332 L124.387478,142.07332 Z" id="path24" fill="#FFFFFF"></path>
                        <path d="M64.5877778,113.211721 C63.9880759,114.515248 65.1874797,116.106505 65.1874797,116.106505 C65.1874797,116.106505 67.4328846,114.225531 67.4328846,112.48882 C67.4328846,110.749724 67.8839526,108.582213 67.4328846,107.277096 C66.9834062,105.974364 67.1340271,105.830897 66.2350704,105.685442 C65.3357162,105.542372 65.3361136,106.553798 64.4379517,108.147042 C63.5374053,109.737901 65.1874797,111.909386 64.5877778,113.211721 L64.5877778,113.211721 Z M73.7239922,111.039838 C74.3248864,111.039838 74.6579216,111.089913 74.6579216,111.089913 C74.6579216,111.089913 73.875408,113.644905 74.3248864,113.066664 C74.7739673,112.48882 74.6579216,115.57953 74.6579216,115.57953 C74.6579216,115.57953 77.3206141,113.644905 76.8719305,110.318129 C76.4208625,106.989366 75.6725267,105.395725 75.0744144,105.107598 C74.4747125,104.817881 74.0256315,106.121011 74.1750602,106.698855 C74.2461978,106.974265 73.9843002,107.117335 73.7474398,107.159063 C73.884946,107.957076 73.2196703,111.039838 73.7239922,111.039838 Z M83.4611007,106.119819 C83.9117714,106.119819 83.9117714,106.119819 83.9117714,106.119819 L84.3608523,110.749724 C84.3608523,110.749724 87.0573252,108.291701 86.9074991,106.264876 C86.7588652,104.238447 87.0573252,103.369694 86.4580207,102.647191 C85.859511,101.923892 86.7588652,100.618378 85.859511,100.618378 C84.9605543,100.618378 84.2126159,101.636162 84.6616968,102.356679 C85.1103804,103.08117 83.9117714,103.947936 83.9117714,103.947936 C83.9117714,103.947936 83.0128146,106.119819 83.4611007,106.119819 L83.4611007,106.119819 Z M86.9074991,119.724587 C86.9074991,119.724587 87.5083932,116.106505 87.8068532,115.382809 C88.1053132,114.65951 87.35658,113.500643 88.4061578,113.066664 C89.4545432,112.633082 87.6570271,110.606257 88.4061578,109.882163 C89.154891,109.160852 88.256729,107.712268 87.8068532,107.712268 C87.35658,107.712268 84.9605543,110.749724 84.9605543,113.355983 C84.9605543,115.962243 86.9074991,119.724587 86.9074991,119.724587 Z M94.2481844,116.395824 C94.3988054,117.553897 94.8474889,121.315844 95.7468431,121.606753 C95.7468431,121.606753 96.9450547,120.301239 97.0960731,119.144359 C97.2443095,117.987081 97.2443095,114.515248 96.9450547,113.936212 C96.6454025,113.355983 96.9450547,111.475407 96.0453031,111.33035 C95.1455515,111.185293 93.9497244,112.34257 94.3988054,113.066664 C94.8462967,113.79036 94.0991531,115.238149 94.2481844,116.395824 L94.2481844,116.395824 Z M98.4437134,113.211721 C98.8919995,113.355983 98.5919498,117.118725 100.090609,117.118725 C100.090609,117.118725 101.138994,114.515248 100.991552,112.922799 C100.840137,111.33035 100.690708,108.291701 99.789764,108.000792 C98.8919995,107.712268 97.843614,108.291701 98.4437134,109.302332 C99.0446076,110.318129 97.9926453,113.066664 98.4437134,113.211721 L98.4437134,113.211721 Z M44.2948822,101.041627 L47.2894176,95.1062073 L45.6524579,91.5874791 L45.7764519,91.3307478 L47.8875299,89.7688999 L49.421956,86.2128145 L50.6026813,84.775358 L50.3586674,82.6157953 L50.9575745,82.0041708 L51.774266,80.6414287 C54.1826117,82.4174843 55.1030289,84.5500227 55.1030289,84.5500227 L55.0402371,85.2562323 L53.3305501,85.2562323 L53.3305501,102.67342 L56.8353687,102.67342 C57.0841516,102.810926 57.4756071,103.117732 57.9326364,103.801289 C58.7167397,104.97804 60.3433666,106.897961 59.257624,111.088323 C60.186387,112.4304 65.4028796,107.947538 64.6803759,103.758368 C65.99821,102.479481 66.8510664,103.405064 66.8510664,103.405064 C66.8510664,103.405064 70.4631875,107.246893 69.7418761,108.992744 C70.7930434,110.165521 71.5477379,109.168403 71.5477379,109.168403 C71.5477379,109.168403 73.7168387,105.154096 72.6318909,102.881667 L72.5285625,102.67342 L73.5209122,102.67342 C73.5209122,102.67342 74.047092,101.919918 74.9273702,100.658915 C75.821558,101.101637 78.2644789,107.810429 79.8612995,108.121607 C80.5889697,108.18877 80.5853929,104.842521 81.8102314,103.168204 C83.0354674,101.491503 84.5651246,95.6669623 85.8245383,92.7574741 L87.0764012,92.2917016 L89.727966,93.4891184 L89.727966,102.67342 L91.4078467,102.67342 C91.8561328,103.149923 92.2567289,104.459809 91.9686018,105.851562 C91.6073499,107.59503 90.343962,109.341676 90.5243892,112.311572 C90.59195,113.409237 90.6332814,114.075308 90.7060087,114.492993 C90.6873301,114.498954 90.6714334,114.505313 90.65196,114.515248 C89.9036242,114.948035 90.3523077,116.106505 90.202879,117.553897 C90.0526555,119.001289 90.3523077,120.881865 90.9524071,120.881865 C91.5513142,120.881865 90.202879,122.764031 90.9524071,122.618576 C91.7019351,122.473122 91.4030777,124.212615 91.4030777,124.212615 C91.4030777,124.212615 93.3508173,123.052953 93.1990041,120.73641 C93.0499728,118.42265 92.9943345,116.066763 92.3008422,115.671731 C92.1331323,115.57953 91.9968184,115.43646 91.8716321,115.281468 C92.6477871,115.169396 93.2168879,113.88415 93.0559341,112.311572 C92.8731224,110.564925 96.6148014,109.95648 97.5439618,108.163733 C98.4763016,106.373768 100.102134,104.453847 99.7408818,103.405064 C100.885442,103.563236 101.367509,106.200097 101.186287,109.341676 C101.005065,112.484846 103.534225,114.57963 104.258716,114.753698 C104.980425,114.930151 105.343664,112.484846 103.896669,111.611721 C104.046893,110.36264 106.684548,108.209436 106.825631,103.974165 C106.825631,103.974165 107.312069,104.25196 107.312069,105.925879 C107.312069,107.602581 106.49657,106.419073 106.49657,110.460405 C106.597911,113.320216 106.597911,113.91038 107.616888,114.008144 C108.639043,114.105114 108.779332,109.969595 111.055735,109.128661 C112.207846,108.587379 113.329754,105.433082 113.840037,104.546445 C113.866266,104.502332 113.929853,104.446296 114.011324,104.385094 C117.018576,105.736709 119.89031,107.027121 122.569296,108.230102 L123.870836,113.004667 L125.206554,114.96115 L128.701835,116.714155 L128.747935,118.458417 L127.156678,119.911373 L124.850071,123.985292 L124.627915,130.544656 L121.084945,137.23795 L121.262193,139.294582 L39.1151108,139.294582 L39.1151108,106.404369 L39.9515142,104.686734 L44.2948822,101.041627 L44.2948822,101.041627 Z" id="path26" fill="#FFFFFF"></path>
                        <path d="M190.909086,12.495181 L180.863582,16.7324785 L174.583602,20.6552603 L172.701039,23.7810625 L173.069842,28.0639834 L178.158366,31.168643 L182.575654,36.8794824 L185.209335,38.3272718 L185.394531,39.1848177 L184.36999,40.6473909 L185.404069,43.058916 L184.929951,43.7460496 L184.513458,43.7547927 L182.408739,42.6340774 L176.953398,40.6728256 L174.626921,36.6112261 L172.204665,34.9420756 L169.432286,35.8199693 L166.950021,37.3360746 L165.735118,40.8258311 L168.830199,43.0120208 L165.3993,43.2488812 L163.809236,42.2263278 L159.932435,40.0659702 L153.386583,39.8175847 L150.008938,40.5985087 L147.303722,44.0882254 L147.678884,47.5803267 L153.537999,52.5754582 L156.176847,54.020863 L158.789067,53.1934413 L165.595624,49.8877285 L171.480175,48.6609029 L170.854641,52.7912555 L164.919221,58.4254332 L164.922798,66.8689501 L166.450865,71.587877 L166.00854,72.1633365 L116.399401,72.1633365 C116.52101,70.6630881 117.3226,67.9721791 116.898556,62.1718812 C116.560752,57.5066056 115.309287,55.6280165 114.660305,54.8983593 C115.23338,54.8983593 115.658219,54.8983593 115.658219,54.8983593 L115.658219,37.4835559 L95.4678565,37.4835559 C95.4678565,37.4835559 95.417782,37.5531039 95.3275684,37.6830194 C94.9591631,38.1965614 93.9167388,39.5516731 92.8981596,39.9725772 C91.6343743,40.4959751 90.7040216,38.9838043 89.6214583,38.9838043 C88.536113,38.9838043 87.5219054,38.818161 84.7395905,39.1559652 C82.5279661,39.5819165 81.2542454,39.5289806 79.2608028,40.2777933 L79.2608028,37.4835559 L53.3305501,37.4835559 L53.3305501,53.8463971 L52.557177,55.6280165 L48.5766505,53.839641 L48.4160942,53.2923981 L48.5619461,50.9532029 L47.920118,49.4175845 L47.8740177,47.6383495 L49.8618964,44.3946338 L46.838747,36.0966111 L44.4391444,33.7108784 L43.6288116,31.7095273 L43.0414296,31.0593534 L43.5588663,29.7685437 L43.8652746,29.3976744 L64.5738682,31.8378929 L73.6011904,28.1788766 L89.0436143,24.8861991 L96.5865848,25.3146541 L94.3566792,27.7274111 L101.520514,33.8639634 L105.235566,34.1003866 C105.235566,34.1003866 106.128164,31.5370484 106.239044,31.2186381 L106.356281,31.0629302 L108.463385,30.6273216 L109.907995,31.1860499 L113.650469,30.0041721 L112.991552,27.9546938 L113.08733,27.8887226 L114.343564,27.370054 L115.850568,24.8663282 L119.3073,23.1709483 L124.074711,22.2545449 L131.007647,13.3083355 L135.859311,12.2849873 L137.2149,11.0838745 L140.89021,11.2807548 L145.01937,15.43686 L147.595029,15.7321009 L148.902927,14.4043315 L151.377642,15.4487825 L153.9533,14.7652654 L156.120016,11.2679977 L156.846891,11.1793738 L160.306802,13.2908094 L159.169395,14.2104318 L161.262192,21.7481564 L164.990359,23.7349224 L167.691998,21.6000789 L168.890607,19.1396717 L182.336409,13.2877096 L183.017184,7.74247373 L189.751411,10.2795825 L191.116935,10.6428611 L191.54694,11.5671731 L190.909086,12.495181" id="path28" fill="#FFFFFF"></path>
                        <path d="M36.4198302,61.7923482 C36.4738391,61.4958753 36.5691794,61.3233964 36.7211516,61.4000978 C37.0244998,61.5427704 37.2497557,61.3583691 37.399701,61.0281157 L38.8429995,60.9160442 C38.7490502,61.2319905 38.6528356,61.5590645 38.5550313,61.8952791 L36.3830294,62.0641813 C36.3928058,61.9672116 36.403854,61.8730238 36.4198302,61.7923482" id="path30" fill="#FFFFFF"></path>
                        <path d="M27.1860897,69.271732 C28.7246888,70.002184 39.3253045,75.0291089 40.7777436,75.718627 C41.3464471,74.6408327 42.736611,72.0039724 43.3299542,70.8788855 C42.0884242,70.3209123 38.8298053,68.8576237 37.843854,68.4149014 C37.6001183,68.7169382 36.5427909,70.0252342 36.5427909,70.0252342 L33.9712262,66.5438632 C34.0542863,66.1830088 34.1157667,65.9111757 34.1753792,66.0284136 C34.2174259,66.1098841 34.418797,66.0260291 34.6834765,65.8682547 L36.578161,68.4331826 L37.5493682,67.2321891 L38.3192042,67.5779417 C38.3246488,67.5823133 38.3285038,67.5886719 38.3330343,67.5930435 C38.4890204,67.7245885 38.6897556,67.8171866 38.9255827,67.8720301 C38.9544352,67.8787862 38.9850363,67.8827603 39.0134516,67.8895164 L44.6728255,70.4317916 L41.2160943,76.9871814 L25.8235463,69.6882248 L26.8428806,67.8962725 L18.2715544,69.3218065 L42.5108782,80.2122186 L47.0950808,71.5199187 L57.836859,76.3461481 C57.836859,76.7006439 57.836859,77.0515629 57.836859,77.3965207 C51.8008929,74.6853434 47.881966,72.9243896 47.5417773,72.7717816 C46.8327857,74.1154477 42.9575747,81.463684 42.9575747,81.463684 L14.9936211,68.9001473 L28.6930147,66.6225517 C28.6930147,66.6225517 27.4461195,68.8151001 27.1860897,69.271732" id="path32" fill="#FFFFFF"></path>
                        <path d="M30.8056525,62.0550904 L30.3056525,61.5820837 L30.7912003,61.5550904 C30.7972666,61.7066684 30.8021435,61.8711203 30.8056525,62.0550904" id="path34" fill="#FFFFFF"></path>
                        <path d="M50.269646,67.1030286 C50.5597603,67.2329839 53.3774453,68.4987564 57.836859,70.5013395 C57.836859,70.852656 57.836859,71.2039724 57.836859,71.5529043 L48.9919511,67.5799288 L52.9180315,58.591156 L28.6784295,47.7015388 L33.0734617,54.9520105 L33.8345943,53.0459997 L49.5308482,59.7122688 L46.5692984,66.4914042 L43.918131,65.2999487 C44.1549914,65.0547425 44.3823138,64.8059596 44.6008931,64.5551896 C45.1835061,64.8178821 45.7045195,65.052358 46.0582204,65.2093377 C46.5665165,64.0484832 47.757972,61.3214093 48.2444101,60.2074501 C46.7624429,59.577147 35.9528655,54.985791 34.3832282,54.3197205 C34.3126072,54.4965709 34.1444601,54.9170379 33.9600588,55.3792336 L31.529418,54.2915039 L26.2321305,45.551514 L54.1961238,58.116243 C54.1961238,58.116243 50.8772963,65.7132621 50.269646,67.1030286" id="path36" fill="#FFFFFF"></path>
                        <path d="M114.919023,97.1982092 L114.919023,96.1478366 C128.80874,102.388472 139.410627,107.15191 139.410627,107.15191 L139.410627,114.045899 C139.410627,114.045899 127.630797,108.7535 112.505909,101.958467 L114.846694,101.958467 L138.425431,112.551612 L138.425431,107.75956 L114.919023,97.1982092" id="path38" fill="#FFFFFF"></path>
                        <path d="M111.055735,50.45365 L111.055735,41.9298549 L97.9155465,41.9298549 L71.0740171,80.3779414 L71.0740171,50.1873808 L74.6579216,50.1873808 L74.6579216,41.9298549 L57.9326364,41.9298549 L57.9326364,50.1873808 L61.7001475,50.1873808 L61.7001475,89.7017365 L57.9326364,89.7017365 L57.9326364,98.2267238 L71.0740171,98.2267238 L97.9155465,59.7778425 L97.9155465,89.9676083 L94.3304497,89.9676083 L94.3304497,98.2267238 L111.055735,98.2267238 L111.055735,89.9676083 L107.288224,89.9676083 L107.288224,50.45365 L111.055735,50.45365 Z M113.356778,87.7440614 L113.356778,100.449873 L92.0294065,100.449873 L92.0294065,87.7440614 C92.0294065,87.7440614 95.0243394,87.7440614 95.6137085,87.7440614 C95.6137085,84.9208126 95.6137085,74.6185774 95.6137085,67.0501722 C89.6286118,75.6228496 72.297266,100.449873 72.297266,100.449873 L55.6315932,100.449873 L55.6315932,87.4789844 C55.6315932,87.4789844 58.7016379,87.4789844 59.3983095,87.4789844 C59.3983095,83.7551892 59.3983095,56.1339281 59.3983095,52.4117225 C58.7016379,52.4117225 55.6315932,52.4117225 55.6315932,52.4117225 L55.6315932,39.7050363 L76.9597596,39.7050363 L76.9597596,52.4117225 C76.9597596,52.4117225 73.9644293,52.4117225 73.3746628,52.4117225 C73.3746628,55.2333816 73.3746628,65.5368091 73.3746628,73.1064065 C79.3597596,64.5325369 96.6915028,39.7050363 96.6915028,39.7050363 L113.356778,39.7050363 L113.356778,52.6756072 C113.356778,52.6756072 110.287131,52.6756072 109.589664,52.6756072 C109.589664,56.3997999 109.589664,84.0206636 109.589664,87.7440614 C110.287131,87.7440614 113.356778,87.7440614 113.356778,87.7440614 L113.356778,87.7440614 Z" id="path40" fill="#FFFFFF"></path>
                        <path d="M53.3981109,77.1540964 C54.4898148,77.6445087 55.7285629,78.2012896 57.0972663,78.8164908 C57.3396906,78.9249856 57.5864864,79.0354675 57.836859,79.1483338 C57.836859,82.1019354 57.836859,84.5567788 57.836859,85.9703903 C57.6540472,85.9703903 54.0697453,85.9703903 54.0697453,85.9703903 L54.0697453,101.958467 L73.127867,101.958467 C73.127867,101.958467 86.3817167,82.9718807 94.052258,71.9848964 C94.052258,78.8494764 94.052258,83.1479363 94.052258,86.2358647 C93.5733707,86.2358647 90.4671612,86.2358647 90.4671612,86.2358647 L90.4671612,101.958467 L108.60884,101.958467 C110.444905,102.784697 112.251562,103.594632 114.011324,104.385094 C113.929853,104.446296 113.866266,104.502332 113.840037,104.546445 C113.329754,105.433082 112.207846,108.587379 111.055735,109.128661 C108.779332,109.969595 108.639043,114.105114 107.616888,114.008144 C106.597911,113.91038 106.597911,113.320216 106.49657,110.460405 C106.49657,106.419073 107.312069,107.602581 107.312069,105.925879 C107.312069,104.25196 106.825631,103.974165 106.825631,103.974165 C106.684548,108.209436 104.046893,110.36264 103.896669,111.611721 C105.343664,112.484846 104.980425,114.930151 104.258716,114.753698 C103.534225,114.57963 101.005065,112.484846 101.186287,109.341676 C101.367509,106.200097 100.885442,103.563236 99.7408818,103.405064 C100.102134,104.453847 98.4763016,106.373768 97.5439618,108.163733 C96.6148014,109.95648 92.8731224,110.564925 93.0559341,112.311572 C93.2168879,113.88415 92.6477871,115.169396 91.8716321,115.281468 C91.9968184,115.43646 92.1331323,115.57953 92.3008422,115.671731 C92.9943345,116.066763 93.0499728,118.42265 93.1990041,120.73641 C93.3508173,123.052953 91.4030777,124.212615 91.4030777,124.212615 C91.4030777,124.212615 91.7019351,122.473122 90.9524071,122.618576 C90.202879,122.764031 91.5513142,120.881865 90.9524071,120.881865 C90.3523077,120.881865 90.0526555,119.001289 90.202879,117.553897 C90.3523077,116.106505 89.9036242,114.948035 90.65196,114.515248 C90.6714334,114.505313 90.6873301,114.498954 90.7060087,114.492993 C90.6332814,114.075308 90.59195,113.409237 90.5243892,112.311572 C90.343962,109.341676 91.6073499,107.59503 91.9686018,105.851562 C92.2567289,104.459809 91.8561328,103.149923 91.4078467,102.67342 L89.727966,102.67342 L89.727966,93.4891184 L87.0764012,92.2917016 L85.8245383,92.7574741 C84.5651246,95.6669623 83.0354674,101.491503 81.8102314,103.168204 C80.5853929,104.842521 80.5889697,108.18877 79.8612995,108.121607 C78.2644789,107.810429 75.821558,101.101637 74.9273702,100.658915 C74.047092,101.919918 73.5209122,102.67342 73.5209122,102.67342 L72.5285625,102.67342 L72.6318909,102.881667 C73.7168387,105.154096 71.5477379,109.168403 71.5477379,109.168403 C71.5477379,109.168403 70.7930434,110.165521 69.7418761,108.992744 C70.4631875,107.246893 66.8510664,103.405064 66.8510664,103.405064 C66.8510664,103.405064 65.99821,102.479481 64.6803759,103.758368 C65.4028796,107.947538 60.186387,112.4304 59.257624,111.088323 C60.3433666,106.897961 58.7167397,104.97804 57.9326364,103.801289 C57.4756071,103.117732 57.0841516,102.810926 56.8353687,102.67342 L53.3305501,102.67342 L53.3305501,85.2562323 L55.0402371,85.2562323 L55.1030289,84.5500227 C55.1030289,84.5500227 54.1826117,82.4174843 51.774266,80.6414287 L53.1962232,78.2684531 L53.3981109,77.1540964" id="path42" fill="#F4731C"></path>
                        <path d="M32.227719,85.2765006 C32.9765715,85.570589 33.1260796,87.7392924 33.5758362,89.0420246 C34.0264671,90.3447568 31.1795323,92.6612992 31.1795323,92.6612992 C30.5791945,92.2261278 29.232508,89.0420246 29.6806749,87.015199 C30.1303917,84.9887709 31.4777538,84.9887709 32.227719,85.2765006" id="path44" fill="#F4731C"></path>
                        <path d="M19.6423244,83.543366 C18.4461794,83.3991037 17.3972375,77.7522087 17.3972375,76.8826608 C17.3972375,76.0154974 18.7439638,74.2791834 19.9439637,74.4230483 C21.1419369,74.5685029 20.3926075,77.6067541 21.291922,79.2011903 C22.1907595,80.7916522 19.6423244,83.543366 19.6423244,83.543366" id="path46" fill="#F4731C"></path>
                        <path d="M41.2149021,83.2520595 C41.2149021,83.2520595 40.3171376,85.570589 39.5676493,86.1472408 C38.8187571,86.7258796 36.1241124,89.6214583 35.6732828,90.3447568 C35.2226121,91.0672605 33.2755878,82.8208623 32.3773464,82.8208623 C31.4777538,82.8208623 32.6768,78.6197695 31.9283847,78.4755072 C31.1795323,78.3300527 31.1795323,79.0561331 30.7293385,79.3438629 C30.2803768,79.6343746 30.7293385,83.2520595 30.7293385,83.6840516 C30.7293385,84.12121 29.5310077,87.1602561 28.632806,87.1602561 C27.7331737,87.1602561 26.8343361,81.5141559 26.086517,81.3714833 C25.3356377,81.2240417 26.2357072,79.6343746 25.7858314,79.2011903 C25.3356377,78.7640318 24.886358,80.0663666 23.3876596,79.6343746 C21.891147,79.2011903 20.5427119,75.2910066 20.9929056,73.5523081 C20.9988271,73.5284631 21.0098355,73.452954 21.0225529,73.3603558 L41.358767,82.4965702 L41.2149021,83.2520595" id="path48" fill="#F4731C"></path>
                        <path d="M19.4953199,72.8305993 C18.894545,72.6887215 17.0948033,77.7522087 15.2976052,77.3182296 C13.5003673,76.8826608 15.148097,75.2910066 14.1019371,74.7115729 C13.0508094,74.1329341 13.350263,72.540485 12.9009833,72.3970176 C12.4524984,72.2527553 13.6504716,70.3705894 12.9009833,69.9358154 C12.8002381,69.87819 12.7370489,69.7394916 12.7069247,69.6250355 L19.8613805,72.8381502 C19.7056726,72.8449063 19.5504416,72.843714 19.4953199,72.8305993" id="path50" fill="#F4731C"></path>
                        <path d="M64.4379517,108.147042 C65.3361136,106.553798 65.3357162,105.542372 66.2350704,105.685442 C67.1340271,105.830897 66.9834062,105.974364 67.4328846,107.277096 C67.8839526,108.582213 67.4328846,110.749724 67.4328846,112.48882 C67.4328846,114.225531 65.1874797,116.106505 65.1874797,116.106505 C65.1874797,116.106505 63.9880759,114.515248 64.5877778,113.211721 C65.1874797,111.909386 63.5374053,109.737901 64.4379517,108.147042" id="path52" fill="#F4731C"></path>
                        <path d="M73.7474398,107.159063 C73.9843002,107.117335 74.2461978,106.974265 74.1750602,106.698855 C74.0256315,106.121011 74.4747125,104.817881 75.0744144,105.107598 C75.6725267,105.395725 76.4208625,106.989366 76.8719305,110.318129 C77.3206141,113.644905 74.6579216,115.57953 74.6579216,115.57953 C74.6579216,115.57953 74.7739673,112.48882 74.3248864,113.066664 C73.875408,113.644905 74.6579216,111.089913 74.6579216,111.089913 C74.6579216,111.089913 74.3248864,111.039838 73.7239922,111.039838 C73.2196703,111.039838 73.884946,107.957076 73.7474398,107.159063" id="path54" fill="#F4731C"></path>
                        <path d="M84.6616968,102.356679 C84.2126159,101.636162 84.9605543,100.618378 85.859511,100.618378 C86.7588652,100.618378 85.859511,101.923892 86.4580207,102.647191 C87.0573252,103.369694 86.7588652,104.238447 86.9074991,106.264876 C87.0573252,108.291701 84.3608523,110.749724 84.3608523,110.749724 L83.9117714,106.119819 C83.9117714,106.119819 83.9117714,106.119819 83.4611007,106.119819 C83.0128146,106.119819 83.9117714,103.947936 83.9117714,103.947936 C83.9117714,103.947936 85.1103804,103.08117 84.6616968,102.356679" id="path56" fill="#F4731C"></path>
                        <path d="M87.8068532,107.712268 C88.256729,107.712268 89.154891,109.160852 88.4061578,109.882163 C87.6570271,110.606257 89.4545432,112.633082 88.4061578,113.066664 C87.35658,113.500643 88.1053132,114.65951 87.8068532,115.382809 C87.5083932,116.106505 86.9074991,119.724587 86.9074991,119.724587 C86.9074991,119.724587 84.9605543,115.962243 84.9605543,113.355983 C84.9605543,110.749724 87.35658,107.712268 87.8068532,107.712268" id="path58" fill="#F4731C"></path>
                        <path d="M94.3988054,113.066664 C93.9497244,112.34257 95.1455515,111.185293 96.0453031,111.33035 C96.9450547,111.475407 96.6454025,113.355983 96.9450547,113.936212 C97.2443095,114.515248 97.2443095,117.987081 97.0960731,119.144359 C96.9450547,120.301239 95.7468431,121.606753 95.7468431,121.606753 C94.8474889,121.315844 94.3988054,117.553897 94.2481844,116.395824 C94.0991531,115.238149 94.8462967,113.79036 94.3988054,113.066664" id="path60" fill="#F4731C"></path>
                        <path d="M99.789764,108.000792 C100.690708,108.291701 100.840137,111.33035 100.991552,112.922799 C101.138994,114.515248 100.090609,117.118725 100.090609,117.118725 C98.5919498,117.118725 98.8919995,113.355983 98.4437134,113.211721 C97.9926453,113.066664 99.0446076,110.318129 98.4437134,109.302332 C97.843614,108.291701 98.8919995,107.712268 99.789764,108.000792" id="path62" fill="#F4731C"></path>
                        <path d="M126.001388,99.3760532 C122.655139,97.8718306 118.907101,96.1883732 114.919023,94.3960235 L114.919023,86.2358647 C114.919023,86.2358647 111.33194,86.2358647 111.15191,86.2358647 C111.15191,80.7538976 111.15191,59.6665658 111.15191,54.1845987 C111.33194,54.1845987 114.919023,54.1845987 114.919023,54.1845987 L114.919023,38.1965614 L95.8609017,38.1965614 C95.8609017,38.1965614 82.6070521,57.1831084 74.9361134,68.1708875 C74.9361134,61.3067049 74.9361134,57.0058605 74.9361134,53.920714 C75.4150006,53.920714 78.5212102,53.920714 78.5212102,53.920714 L78.5212102,38.1965614 L54.0697453,38.1965614 L54.0697453,53.920714 C54.0697453,53.920714 57.6540472,53.920714 57.836859,53.920714 C57.836859,56.4959747 57.836859,62.5208131 57.836859,68.7507186 C57.5829096,68.6374548 57.3357164,68.5261781 57.0972663,68.419273 C55.8704407,67.8676585 54.8435158,67.4062576 54.0574254,67.0537489 L53.3325372,64.1780411 C54.6126166,61.2474898 56.32747,57.3222042 56.32747,57.3222042 L52.557177,55.6280165 L53.3305501,53.8463971 L53.3305501,37.4835559 L79.2608028,37.4835559 L79.2608028,40.2777933 C81.2542454,39.5289806 82.5279661,39.5819165 84.7395905,39.1559652 C87.5219054,38.818161 88.536113,38.9838043 89.6214583,38.9838043 C90.7040216,38.9838043 91.6343743,40.4959751 92.8981596,39.9725772 C93.9167388,39.5516731 94.9591631,38.1965614 95.3275684,37.6830194 C95.417782,37.5531039 95.4678565,37.4835559 95.4678565,37.4835559 L115.658219,37.4835559 L115.658219,54.8983593 C115.658219,54.8983593 115.23338,54.8983593 114.660305,54.8983593 C115.309287,55.6280165 116.560752,57.5066056 116.898556,62.1718812 C117.3226,67.9721791 116.52101,70.6630881 116.399401,72.1633365 C116.382312,72.3676087 116.377146,72.5512153 116.39026,72.714951 L117.037255,74.293093 C117.107995,74.5382992 117.146942,74.7489301 117.1688,74.942472 C117.371085,76.6024819 116.030201,76.5055122 116.491999,77.2506687 C117.104816,78.2346727 118.634076,77.2506687 119.348631,80.0091386 C119.96105,84.1482344 119.04262,83.0640814 118.839143,84.5420744 C118.634076,86.0208622 121.286435,87.2997494 121.897662,89.2709367 C122.509287,91.2433161 122.206058,93.1171363 122.000593,94.4941854 C123.223842,96.07193 123.939192,96.8611998 125.468452,97.6492772 C126.662689,98.2668629 126.243812,99.0573249 126.001388,99.3760532" id="path64" fill="#F4731C"></path>
                        <path d="M44.6008931,64.5551896 C44.3823138,64.8059596 44.1549914,65.0547425 43.918131,65.2999487 C43.4185781,65.8169879 42.8840526,66.3117718 42.330451,66.7294569 C42.2986577,66.7536993 42.268454,66.7739675 42.23984,66.79821 C41.2149021,67.5521096 40.1359155,68.0309968 39.1193234,67.9113744 C39.0814496,67.9070028 39.0480666,67.8970674 39.0134516,67.8895164 C38.9850363,67.8827603 38.9544352,67.8787862 38.9255827,67.8720301 C38.6897556,67.8171866 38.4890204,67.7245885 38.3330343,67.5930435 C38.3285038,67.5886719 38.3246488,67.5823133 38.3192042,67.5779417 C37.7140577,67.0521593 37.6685932,65.9858901 37.863089,64.7427704 C37.8789459,64.6513645 37.895081,64.5575741 37.9127661,64.4681554 C38.0622743,63.6375543 38.307242,62.7453536 38.5550313,61.8952791 C38.6528356,61.5590645 38.7490502,61.2319905 38.8429995,60.9160442 C39.0170283,60.3274699 39.175995,59.780227 39.2817079,59.3220055 C39.2821848,59.3168391 39.2841719,59.3108778 39.2857218,59.305314 C39.4502921,58.5883741 39.4898748,58.0768987 39.2677188,57.9242907 C38.9754188,57.7235952 38.7423736,57.6059598 38.5587273,57.547937 C38.1098053,57.4028798 37.9404263,57.5940373 37.6209429,57.4903115 C37.227858,57.363933 37.5212708,58.5653239 37.6016682,59.448384 C37.6130343,59.5747625 37.6209429,59.6959747 37.6209429,59.8048669 C37.6209429,60.2376537 37.5471824,60.7034262 37.399701,61.0281157 C37.2497557,61.3583691 37.0244998,61.5427704 36.7211516,61.4000978 C36.5691794,61.3233964 36.4738391,61.4958753 36.4198302,61.7923482 C36.403854,61.8730238 36.3928058,61.9672116 36.3830294,62.0641813 C36.2866558,63.0048668 36.4224531,64.5818166 36.4224531,64.5818166 C36.4224531,64.5818166 35.3488317,65.468056 34.6834765,65.8682547 C34.418797,66.0260291 34.2174259,66.1098841 34.1753792,66.0284136 C34.1157667,65.9111757 34.0542863,66.1830088 33.9712262,66.5438632 C33.8525973,67.0632869 33.6908486,67.765125 33.4255332,67.765125 C33.3462088,67.765125 33.2679574,67.8132124 33.1884741,67.8851449 C33.1434865,67.9264762 33.0984592,67.9789352 33.0531139,68.0353684 C32.7181313,68.4530534 32.3622843,69.2129143 31.9283847,69.2129143 C31.5207543,69.2129143 31.0506897,69.2129143 30.7870832,69.2129143 C30.6619366,69.2129143 30.5791945,69.2129143 30.5791945,69.2129143 C30.5799893,69.1783391 30.5805854,69.147738 30.5805854,69.1151498 C30.5969193,68.0309968 30.6093187,67.1892681 30.6178631,66.5375045 C30.6358661,65.1397897 30.6403569,64.596521 30.6419068,64.3811211 C30.6478283,63.5107783 30.6483052,62.6781902 30.6397608,62.0335802 C30.637416,61.8575245 30.6341572,61.7001475 30.6301036,61.5550904 C30.6200489,61.1751599 30.604033,60.9092881 30.5791945,60.8202667 C30.5371478,60.6521594 30.3677687,60.3501227 30.1498254,60.0087417 C29.6150216,59.1650258 28.7812015,58.07054 28.7812015,58.07054 C28.7812015,58.07054 28.3319218,53.2923981 28.3319218,52.8588164 L28.9035264,53.1139579 L31.529418,54.2915039 L33.9600588,55.3792336 L47.0593133,61.2518614 C47.0593133,61.2518614 46.7223038,61.8014888 46.1619462,62.5800282 C45.7442612,63.1618464 45.2093382,63.858518 44.6008931,64.5551896" id="path66" fill="#F4731C"></path>
                        <path d="M39.2817079,59.3220055 C39.175995,59.780227 39.0170283,60.3274699 38.8429995,60.9160442 L37.399701,61.0281157 C37.5471824,60.7034262 37.6209429,60.2376537 37.6209429,59.8048669 C37.6209429,59.6959747 37.6130343,59.5747625 37.6016682,59.448384 L39.2817079,59.3220055" id="path68" fill="#432C91"></path>
                        <path d="M34.3832282,54.3197205 C35.9528655,54.985791 46.7624429,59.577147 48.2444101,60.2074501 C47.757972,61.3214093 46.5665165,64.0484832 46.0582204,65.2093377 C45.7045195,65.052358 45.1835061,64.8178821 44.6008931,64.5551896 C45.2093382,63.858518 45.7442612,63.1618464 46.1619462,62.5800282 C46.7223038,61.8014888 47.0593133,61.2518614 47.0593133,61.2518614 L33.9600588,55.3792336 C34.1444601,54.9170379 34.3126072,54.4965709 34.3832282,54.3197205" id="path70" fill="#432C91"></path>
                        <path d="M37.5493682,67.2321891 L36.578161,68.4331826 L34.6834765,65.8682547 C35.3488317,65.468056 36.4224531,64.5818166 36.4224531,64.5818166 C36.4224531,64.5818166 36.2866558,63.0048668 36.3830294,62.0641813 L38.5550313,61.8952791 C38.307242,62.7453536 38.0622743,63.6375543 37.9127661,64.4681554 C37.895081,64.5575741 37.8789459,64.6513645 37.863089,64.7427704 C37.6685932,65.9858901 37.7140577,67.0521593 38.3192042,67.5779417 L37.5493682,67.2321891" id="path72" fill="#432C91"></path>
                        <polyline id="path74" fill="#432C91" points="97.9155465 59.7778425 71.0740171 98.2267238 57.9326364 98.2267238 57.9326364 89.7017365 61.7001475 89.7017365 61.7001475 50.1873808 57.9326364 50.1873808 57.9326364 41.9298549 74.6579216 41.9298549 74.6579216 50.1873808 71.0740171 50.1873808 71.0740171 80.3779414 97.9155465 41.9298549 111.055735 41.9298549 111.055735 50.45365 107.288224 50.45365 107.288224 89.9676083 111.055735 89.9676083 111.055735 98.2267238 94.3304497 98.2267238 94.3304497 89.9676083 97.9155465 89.9676083 97.9155465 59.7778425"></polyline>
                        <path d="M168.602082,45.778439 L164.624735,46.0892189 C164.624735,46.0892189 162.42861,44.6771971 162.291104,44.5877783 C162.163136,44.517833 159.959062,43.2894177 159.110577,42.8149021 C158.059012,42.7759552 154.289514,42.6324878 153.671134,42.6102324 C153.269345,42.7016383 152.519817,42.8761042 151.689216,43.0664669 C151.190856,43.7110769 150.808143,44.2038737 150.280771,44.8842512 C150.341973,45.4533521 150.362242,45.6464966 150.423046,46.2144052 C151.603772,47.2206645 154.864974,49.9998 155.21629,50.2994523 C155.443215,50.4254334 155.869643,50.6587171 156.489216,50.9965213 C157.083752,50.8089406 157.516141,50.6718318 157.68862,50.6169883 C158.050269,50.4405353 164.631889,47.2460992 164.631889,47.2460992 C164.631889,47.2460992 167.7532,46.5963227 170.195724,46.0860396 L168.602082,45.778439 Z M192.835365,14.7138794 C192.835365,14.7138794 182.638843,19.0159161 182.227914,19.1883949 C181.894084,19.3962837 177.642917,22.0538494 176.723294,22.6270039 C176.398207,23.1658216 176.03934,23.7655235 175.641526,24.4240431 C175.698356,25.0826025 175.741277,25.5666164 175.816786,26.4539685 C177.224039,27.3132631 180.145053,29.094962 180.145053,29.094962 C180.145053,29.094962 183.912166,33.9664174 184.519022,34.7509976 C185.191451,35.1196812 187.76234,36.5317428 187.76234,36.5317428 L188.460204,39.7718818 C188.460204,39.7718818 187.660601,40.9088912 187.62086,40.966914 C187.837452,41.4692488 188.647785,43.3645295 188.647785,43.3645295 L186.489812,46.4981608 L183.798108,46.547043 C183.798108,46.547043 181.514948,45.3313451 181.206553,45.1676094 C180.836558,45.0348722 174.950815,42.9174356 174.950815,42.9174356 C174.950815,42.9174356 172.898158,39.332776 172.426424,38.5092092 C172.184,38.3412608 172.072326,38.2640825 171.717035,38.0200686 C171.19324,38.1858709 170.893985,38.2816483 170.668252,38.3527462 C170.387278,38.5236751 169.949325,38.7919315 169.351213,39.1570383 C169.265371,39.4046687 169.240731,39.4742166 169.133428,39.7849965 L171.08554,41.1914545 L172.32389,43.4483844 L171.580721,45.7979124 L174.899549,45.1274703 C174.826821,45.613511 173.560651,54.1182301 173.560651,54.1182301 C173.560651,54.1182301 169.05474,58.3972166 167.796121,59.5902618 C167.797313,61.2212603 167.798505,65.7883739 167.798505,66.4437142 C168.017482,67.120515 169.634174,72.1076981 169.634174,72.1076981 L167.454343,74.942472 C167.454343,74.942472 126.323693,74.942472 117.1688,74.942472 C117.146942,74.7489301 117.107995,74.5382992 117.037255,74.293093 L116.39026,72.714951 C116.377146,72.5512153 116.382312,72.3676087 116.399401,72.1633365 L166.00854,72.1633365 L166.450865,71.587877 L164.922798,66.8689501 L164.919221,58.4254332 L170.854641,52.7912555 L171.480175,48.6609029 L165.595624,49.8877285 L158.789067,53.1934413 L156.176847,54.020863 L153.537999,52.5754582 L147.678884,47.5803267 L147.303722,44.0882254 L150.008938,40.5985087 L153.386583,39.8175847 L159.932435,40.0659702 L163.809236,42.2263278 L165.3993,43.2488812 L168.830199,43.0120208 L165.735118,40.8258311 L166.950021,37.3360746 L169.432286,35.8199693 L172.204665,34.9420756 L174.626921,36.6112261 L176.953398,40.6728256 L182.408739,42.6340774 L184.513458,43.7547927 L184.929951,43.7460496 L185.404069,43.058916 L184.36999,40.6473909 L185.394531,39.1848177 L185.209335,38.3272718 L182.575654,36.8794824 L178.158366,31.168643 L173.069842,28.0639834 L172.701039,23.7810625 L174.583602,20.6552603 L180.863582,16.7324785 L190.909086,12.495181 L191.54694,11.5671731 L191.116935,10.6428611 L189.751411,10.2795825 L183.017184,7.74247373 L182.336409,13.2877096 L168.890607,19.1396717 L167.691998,21.6000789 L164.990359,23.7349224 L161.262192,21.7481564 L159.169395,14.2104318 L160.306802,13.2908094 L156.846891,11.1793738 L156.120016,11.2679977 L153.9533,14.7652654 L151.377642,15.4487825 L148.902927,14.4043315 L147.595029,15.7321009 L145.01937,15.43686 L140.89021,11.2807548 L137.2149,11.0838745 L135.859311,12.2849873 L131.007647,13.3083355 L124.074711,22.2545449 L119.3073,23.1709483 L115.850568,24.8663282 L114.343564,27.370054 L113.08733,27.8887226 L112.991552,27.9546938 L113.650469,30.0041721 L109.907995,31.1860499 L108.463385,30.6273216 L106.356281,31.0629302 L106.239044,31.2186381 C106.128164,31.5370484 105.235566,34.1003866 105.235566,34.1003866 L101.520514,33.8639634 L94.3566792,27.7274111 L96.5865848,25.3146541 L89.0436143,24.8861991 L73.6011904,28.1788766 L64.5738682,31.8378929 L43.8652746,29.3976744 L43.5588663,29.7685437 L43.0414296,31.0593534 L43.6288116,31.7095273 L44.4391444,33.7108784 L46.838747,36.0966111 L49.8618964,44.3946338 L47.8740177,47.6383495 L47.920118,49.4175845 L48.5619461,50.9532029 L48.4160942,53.2923981 L48.5766505,53.839641 L45.5841022,52.4947826 C45.6091394,52.0997503 45.6341767,51.6876291 45.651663,51.4130141 C45.4640823,50.9615487 45.057525,49.9890698 45.057525,49.9890698 L44.9780416,46.9098846 C44.9780416,46.9098846 46.1142562,45.0543456 46.7028304,44.0949815 C46.1082949,42.461996 44.6414296,38.4342564 44.3350212,37.5968595 C43.7484341,37.0125376 41.9723785,35.2460597 41.9723785,35.2460597 C41.9723785,35.2460597 41.3516135,33.7132232 41.131842,33.1728159 C41.005066,33.0329252 39.7298748,31.6196316 39.7298748,31.6196316 L41.036462,28.3676496 L42.6201678,26.4516635 C42.6201678,26.4516635 62.7584684,28.8234469 64.1641315,28.9887723 C65.360356,28.5042417 72.7276683,25.5189661 72.7276683,25.5189661 L88.81351,22.0887824 L98.6098336,22.6440531 L101.455338,24.216671 C100.211821,25.5618076 98.4715326,27.4472323 98.42424,27.4984593 C100.222153,29.0376545 101.904816,30.4795223 102.692099,31.1531438 C102.895576,31.1666162 102.96274,31.1706699 103.215497,31.1860499 C103.339093,30.8304016 103.652258,29.9298154 103.652258,29.9298154 L104.677196,28.5683848 L108.718129,27.7328557 C108.718129,27.7328557 109.797116,28.1503023 110.006952,28.2296267 C110.028015,28.2245 110.038745,28.2206451 110.061796,28.2138095 C110.01649,28.0723689 109.964826,27.9149521 109.914354,27.760357 L110.695278,26.1075006 L111.691204,25.4422646 C111.691204,25.4422646 112.17645,25.2438742 112.336609,25.1771479 C112.780921,24.4360054 113.791155,22.7600193 113.791155,22.7600193 L118.358666,20.5197412 C118.358666,20.5197412 121.139391,19.9844605 122.432585,19.7365519 C123.513956,18.3399896 129.346047,10.8140683 129.346047,10.8140683 C129.346047,10.8140683 133.406852,9.9560852 134.487031,9.72912047 C134.869346,9.39131621 136.16254,8.24405345 136.16254,8.24405345 L142.180225,8.56667639 C142.180225,8.56667639 145.40566,11.8116639 146.381318,12.7932436 C146.44093,12.8016291 146.442917,12.8016291 146.504914,12.8079878 C146.619768,12.6911075 148.209038,11.0779928 148.209038,11.0779928 C148.209038,11.0779928 150.87332,12.2030399 151.597016,12.5091701 C151.824735,12.4482858 151.842619,12.443954 152.078685,12.3807647 C152.705014,11.3709287 154.370985,8.68232467 154.370985,8.68232467 L157.51018,8.2965522 L163.442023,11.9184498 L163.04858,14.6972674 C162.767606,14.9253449 162.535912,15.1105411 162.423046,15.2024239 C162.880473,16.8464179 163.387974,18.6826424 163.723394,19.886378 C164.112465,20.0953 164.202678,20.1414401 164.67481,20.3938395 C165.016191,20.1240333 165.157671,20.0127168 165.366712,19.8469146 C165.694978,19.1753597 166.742172,17.0277591 166.742172,17.0277591 C166.742172,17.0277591 177.323791,12.4223743 179.672127,11.399185 C179.869245,9.78793816 180.597313,3.85013006 180.597313,3.85013006 C180.597313,3.85013006 190.391649,7.53788357 190.656726,7.63910562 C190.886831,7.6991553 193.186682,8.31081946 193.186682,8.31081946 L194.820462,11.8287528 L192.835365,14.7138794 L192.835365,14.7138794 Z" id="path76" fill="#432C91"></path>
                        <path d="M139.410627,107.15191 C139.410627,107.15191 128.80874,102.388472 114.919023,96.1478366 L114.919023,97.1982092 L138.425431,107.75956 L138.425431,112.551612 L114.846694,101.958467 L112.505909,101.958467 C127.630797,108.7535 139.410627,114.045899 139.410627,114.045899 L139.410627,107.15191 Z M113.356778,87.7440614 C113.356778,87.7440614 110.287131,87.7440614 109.589664,87.7440614 C109.589664,84.0206636 109.589664,56.3997999 109.589664,52.6756072 C110.287131,52.6756072 113.356778,52.6756072 113.356778,52.6756072 L113.356778,39.7050363 L96.6915028,39.7050363 C96.6915028,39.7050363 79.3597596,64.5325369 73.3746628,73.1064065 C73.3746628,65.5368091 73.3746628,55.2333816 73.3746628,52.4117225 C73.9644293,52.4117225 76.9597596,52.4117225 76.9597596,52.4117225 L76.9597596,39.7050363 L55.6315932,39.7050363 L55.6315932,52.4117225 C55.6315932,52.4117225 58.7016379,52.4117225 59.3983095,52.4117225 C59.3983095,56.1339281 59.3983095,83.7551892 59.3983095,87.4789844 C58.7016379,87.4789844 55.6315932,87.4789844 55.6315932,87.4789844 L55.6315932,100.449873 L72.297266,100.449873 C72.297266,100.449873 89.6286118,75.6228496 95.6137085,67.0501722 C95.6137085,74.6185774 95.6137085,84.9208126 95.6137085,87.7440614 C95.0243394,87.7440614 92.0294065,87.7440614 92.0294065,87.7440614 L92.0294065,100.449873 L113.356778,100.449873 L113.356778,87.7440614 Z M40.0488813,73.6035749 C40.5174356,72.714951 40.6124183,72.5341264 41.0921003,71.6248368 C39.842622,71.0644791 39.4124183,70.8705397 38.3358162,70.3860887 C37.9863677,70.8192729 37.3913155,71.5548914 36.9315043,72.1259793 C38.3564819,72.7999982 39.2489608,73.2228496 40.0488813,73.6035749 Z M125.958467,109.752605 C124.87034,109.264975 123.737304,108.755089 122.569296,108.230102 C119.89031,107.027121 117.018576,105.736709 114.011324,104.385094 C112.251562,103.594632 110.444905,102.784697 108.60884,101.958467 L90.4671612,101.958467 L90.4671612,86.2358647 C90.4671612,86.2358647 93.5733707,86.2358647 94.052258,86.2358647 C94.052258,83.1479363 94.052258,78.8494764 94.052258,71.9848964 C86.3817167,82.9718807 73.127867,101.958467 73.127867,101.958467 L54.0697453,101.958467 L54.0697453,85.9703903 C54.0697453,85.9703903 57.6540472,85.9703903 57.836859,85.9703903 C57.836859,84.5567788 57.836859,82.1019354 57.836859,79.1483338 C57.5864864,79.0354675 57.3396906,78.9249856 57.0972663,78.8164908 C55.7285629,78.2012896 54.4898148,77.6445087 53.3981109,77.1540964 C52.3572764,76.6863369 51.4515635,76.2801769 50.6984587,75.940783 C49.4561339,75.3828098 48.6211612,75.0080458 48.2861389,74.8582197 C46.9949318,77.3063071 43.7023337,83.5497247 43.7023337,83.5497247 L41.358767,82.4965702 L21.0225529,73.3603558 L19.8613805,72.8381502 L12.7069247,69.6250355 L9.53069027,68.1967196 C9.53069027,68.1967196 29.1446391,64.9359149 30.587421,64.6970674 C30.4439933,64.5007435 27.2834568,60.2225519 27.2834568,60.2225519 L30.1498254,60.0087417 C30.3677687,60.3501227 30.5371478,60.6521594 30.5791945,60.8202667 C30.604033,60.9092881 30.6200489,61.1751599 30.6301036,61.5550904 L30.3056525,61.5809225 L30.6397608,62.0335802 C30.6483052,62.6781902 30.6478283,63.5107783 30.6419068,64.3811211 C30.6403569,64.596521 30.6358661,65.1397897 30.6178631,66.5375045 C30.1613107,67.3375045 29.7055134,68.1390942 29.4546242,68.579432 C29.832647,68.7594618 30.2019665,68.9339277 30.5805854,69.1151498 C30.5805854,69.147738 30.5799893,69.1783391 30.5791945,69.2129143 C30.5791945,69.2129143 30.6619366,69.2129143 30.7870832,69.2129143 C32.0173663,69.7955273 33.3944949,70.4472908 35.6133523,71.5004453 C35.2583399,71.0207633 34.1520906,69.522502 33.0531139,68.0353684 C33.0984592,67.9789352 33.1434865,67.9264762 33.1884741,67.8851449 C33.2679574,67.8132124 33.3462088,67.765125 33.4255332,67.765125 C33.6908486,67.765125 33.8525973,67.0632869 33.9712262,66.5438632 L36.5427909,70.0252342 C36.5427909,70.0252342 37.6001183,68.7169382 37.843854,68.4149014 C38.8298053,68.8576237 42.0884242,70.3209123 43.3299542,70.8788855 C42.736611,72.0039724 41.3464471,74.6408327 40.7777436,75.718627 C39.3253045,75.0291089 28.7246888,70.002184 27.1860897,69.271732 C27.4461195,68.8151001 28.6930147,66.6225517 28.6930147,66.6225517 L14.9936211,68.9001473 L42.9575747,81.463684 C42.9575747,81.463684 46.8327857,74.1154477 47.5417773,72.7717816 C47.881966,72.9243896 51.8008929,74.6853434 57.836859,77.3965207 C57.836859,77.0515629 57.836859,76.7006439 57.836859,76.3461481 L47.0950808,71.5199187 L42.5108782,80.2122186 L18.2715544,69.3218065 L26.8428806,67.8962725 L25.8235463,69.6882248 L41.2160943,76.9871814 L44.6728255,70.4317916 L39.0134516,67.8895164 C39.0480666,67.8970674 39.0814496,67.9070028 39.1193234,67.9113744 C40.1359155,68.0309968 41.2149021,67.5521096 42.23984,66.79821 C42.268454,66.7739675 42.2986577,66.7536993 42.330451,66.7294569 C42.8840526,66.3117718 43.4185781,65.8169879 43.918131,65.2999487 L46.5692984,66.4914042 L49.5308482,59.7122688 L33.8345943,53.0459997 L33.0734617,54.9520105 L28.6784295,47.7015388 L52.9180315,58.591156 L48.9919511,67.5799288 L57.836859,71.5529043 C57.836859,71.2039724 57.836859,70.852656 57.836859,70.5013395 C53.3774453,68.4987564 50.5597603,67.2329839 50.269646,67.1030286 C50.8772963,65.7132621 54.1961238,58.116243 54.1961238,58.116243 L26.2321305,45.551514 L31.529418,54.2915039 L28.9035264,53.1139579 L22.1547535,41.9684043 L45.5841022,52.4947826 L48.5766505,53.839641 L52.557177,55.6280165 L56.32747,57.3222042 C56.32747,57.3222042 54.6126166,61.2474898 53.3325372,64.1780411 L54.0574254,67.0537489 C54.8435158,67.4062576 55.8704407,67.8676585 57.0972663,68.419273 C57.3357164,68.5261781 57.5829096,68.6374548 57.836859,68.7507186 C57.836859,62.5208131 57.836859,56.4959747 57.836859,53.920714 C57.6540472,53.920714 54.0697453,53.920714 54.0697453,53.920714 L54.0697453,38.1965614 L78.5212102,38.1965614 L78.5212102,53.920714 C78.5212102,53.920714 75.4150006,53.920714 74.9361134,53.920714 C74.9361134,57.0058605 74.9361134,61.3067049 74.9361134,68.1708875 C82.6070521,57.1831084 95.8609017,38.1965614 95.8609017,38.1965614 L114.919023,38.1965614 L114.919023,54.1845987 C114.919023,54.1845987 111.33194,54.1845987 111.15191,54.1845987 C111.15191,59.6665658 111.15191,80.7538976 111.15191,86.2358647 C111.33194,86.2358647 114.919023,86.2358647 114.919023,86.2358647 L114.919023,94.3960235 C118.907101,96.1883732 122.655139,97.8718306 126.001388,99.3760532 C134.975456,103.407449 141.055933,106.138497 141.055933,106.138497 L141.055933,116.536112 C141.055933,116.536112 134.986584,113.809038 125.958467,109.752605 L125.958467,109.752605 Z" id="path78" fill="#432C91"></path>
                        <path d="M44.1128653,95.0593121 C43.6284142,94.0164904 42.487828,91.5652237 42.487828,91.5652237 L43.4686527,89.5372059 C43.4686527,89.5372059 44.9112756,88.4697444 45.5284638,88.0147022 C45.9135607,87.1205145 46.91982,84.787678 46.91982,84.787678 C46.91982,84.787678 47.404271,84.1979115 47.6145045,83.9423725 C47.5568791,83.4312945 47.3530043,81.6377526 47.3530043,81.6377526 C47.3530043,81.6377526 48.4633868,80.5071018 48.6378527,80.3294565 C48.8914046,79.9050154 50.0844498,77.9139573 50.4508681,77.3023329 C50.5005452,77.029705 50.5959252,76.5047174 50.6984587,75.940783 C51.4515635,76.2801769 52.3572764,76.6863369 53.3981109,77.1540964 L53.1962232,78.2684531 L51.774266,80.6414287 L50.9575745,82.0041708 L50.3586674,82.6157953 L50.6026813,84.775358 L49.421956,86.2128145 L47.8875299,89.7688999 L45.7764519,91.3307478 L45.6524579,91.5874791 L47.2894176,95.1062073 L44.2948822,101.041627 L39.9515142,104.686734 L39.1151108,106.404369 L39.1151108,139.294582 L121.262193,139.294582 L121.084945,137.23795 L124.627915,130.544656 L124.850071,123.985292 L127.156678,119.911373 L128.747935,118.458417 L128.701835,116.714155 L125.206554,114.96115 L123.870836,113.004667 L122.569296,108.230102 C123.737304,108.755089 124.87034,109.264975 125.958467,109.752605 C126.200891,110.644409 126.407548,111.405064 126.531542,111.854543 C126.738993,112.160156 126.913062,112.412913 127.195625,112.827022 C128.066365,113.264577 131.535814,115.003673 131.535814,115.003673 L131.655436,119.627617 C131.655436,119.627617 129.876599,121.251065 129.461298,121.629406 C129.160851,122.161547 128.131939,123.978139 127.702729,124.738 C127.665372,125.807448 127.482163,131.25643 127.482163,131.25643 C127.482163,131.25643 124.617583,136.668054 124.019868,137.79791 C124.07034,138.396817 124.387478,142.07332 124.387478,142.07332 L36.2385287,142.07332 L36.2385287,105.784001 L37.6061988,102.973867 C37.6061988,102.973867 41.2518619,99.9141555 41.9664172,99.314851 C42.3030292,98.6475882 43.43368,96.406555 44.1128653,95.0593121" id="path80" fill="#432C91"></path>
                    </g>
                </g>
            </g>
        </g>
    </g>
</svg>