<?xml version="1.0" encoding="UTF-8"?>
<svg width="200px" height="200px" viewBox="0 0 200 200" version="1.1" xmlns="http://www.w3.org/2000/svg" xmlns:xlink="http://www.w3.org/1999/xlink">
    <!-- Generator: Sketch 54.1 (76490) - https://sketchapp.com -->
    <title>north-dakota</title>
    <desc>Created with Sketch.</desc>
    <g id="north-dakota" stroke="none" stroke-width="1" fill="none" fill-rule="evenodd">
        <g id="north-dakota_BGD" transform="translate(0.000000, -0.000000)">
            <g id="north-dakota" transform="translate(0.000000, 52.000000)">
                <g id="g10" transform="translate(99.999998, 48.307074) scale(-1, 1) rotate(-180.000000) translate(-99.999998, -48.307074) translate(0.000000, 0.024247)" fill-rule="nonzero">
                    <g id="g12">
                        <path d="M88.0141392,74.4415133 L65.1308065,77.5686849 C65.1308065,77.5686849 80.9382808,63.9205035 101.616159,58.5828268 L79.8419172,60.5841399 C79.8419172,60.5841399 95.1964623,46.681918 113.684846,42.7932313 C114.281815,42.6674737 114.882825,42.5521201 115.486866,42.4481808 C115.486866,42.4481808 114.72828,42.3048474 113.498987,42.1369686 C111.588886,41.8760596 108.53131,41.5554535 105.339391,41.6167666 L96.2316138,9.59414117 L56.8274733,55.5794936 L48.5602008,26.5805044 L25.406262,26.5805044 L39.4259586,75.8880789 L15.3975754,91.842826 L85.0230282,91.842826 L88.0141392,74.4415133" id="path14" fill="#100F0D"></path>
                        <path d="M88.9389877,96.4892905 L0,96.4892905 L12.8273734,87.972018 L34.028484,73.8944426 L20.9369692,27.8513124 L19.254444,21.9340399 L25.406262,21.9340399 L48.5602008,21.9340399 L52.0671704,21.9340399 L53.0285845,25.306666 L58.9253521,45.9903019 L92.703331,6.57070691 L98.3336339,0 L100.700806,8.32303009 L108.866664,37.0352516 C110.939391,37.1424233 112.786866,37.3501001 114.12727,37.5332314 C115.436361,37.7119182 116.259593,37.8654536 116.349492,37.8824233 L141.647471,42.6599989 L116.275755,47.0272716 C115.737371,47.1197968 115.187876,47.2251503 114.641411,47.3402008 C108.095957,48.7168675 101.92929,51.4750492 96.8081794,54.3586855 L101.190907,53.9558572 L102.777775,63.0818166 C98.3660581,64.2206045 93.8144421,65.8649478 89.2492907,67.9690892 C87.741614,68.6640387 86.231109,69.4093922 84.7254524,70.2013114 L87.3850483,69.837877 L93.6676744,68.9792912 L92.593432,75.228685 L89.602321,92.6299977 L88.9389877,96.4892905 L88.9389877,96.4892905 Z M85.0230282,91.842826 L88.0141392,74.4415133 L65.1308065,77.5685839 C65.1308065,77.5685839 80.9382808,63.9205035 101.616159,58.5828268 L79.8419172,60.5841399 C79.8419172,60.5841399 95.1964623,46.681918 113.684846,42.7932313 C114.281815,42.6674737 114.882825,42.5521201 115.486866,42.4481808 C115.486866,42.4481808 114.72828,42.3048474 113.498987,42.1369686 C111.750502,41.8981808 109.040401,41.6091909 106.145452,41.6091909 C105.877775,41.6091909 105.609088,41.6117161 105.339391,41.6167666 L96.2316138,9.59414117 L56.8274733,55.5793925 L48.5602008,26.5805044 L25.406262,26.5805044 L39.4259586,75.8880789 L15.3975754,91.842826 L85.0230282,91.842826 L85.0230282,91.842826 Z" id="path16" fill="#FFFFFF"></path>
                        <g id="g18" transform="translate(105.298953, 26.579852)" fill="#100F0D">
                            <path d="M88.3726057,56.6314122 C88.2765629,56.7876018 88.1757179,56.9422308 88.0712713,57.095299 C87.8635787,57.4015556 87.6378781,57.7013293 87.397771,57.99462 C85.834674,59.9009501 83.607681,61.5253944 80.8608562,62.7521014 C77.3204775,64.3338067 72.9181145,65.2537769 67.9635052,65.2631411 L22.2615265,65.2631411 L22.260326,65.2631411 L19.7548087,56.4035506 C27.357799,54.7423698 34.4637675,53.0498551 40.410019,51.4027207 C47.7260813,49.3768173 54.8812718,46.9458533 59.427699,43.7545903 C62.5130748,41.5889447 63.8804846,40.8279253 68.7762676,37.4822735 C73.4451495,34.2930514 75.9530678,29.9826494 75.9530678,25.8650533 C75.9530678,21.7475773 73.0621787,19.9520567 73.0621787,19.9520567 C73.0621787,19.9520567 74.4067783,21.7518993 72.1929911,23.0391132 C70.5302497,24.0067447 66.7389592,24.1446862 61.499823,23.3488513 C61.0928415,23.2708166 19.3466267,19.8276812 0.00936417552,0.000617652471 L52.1692625,0.000720321194 C52.5330247,-0.000120053532 52.8967869,0.00420187363 53.2605491,0.0135660492 C57.0758504,0.111529732 60.8575366,0.7681025 64.4411346,2.02458277 C64.9513621,2.2040628 65.4603891,2.39566824 65.9634134,2.59975924 C66.6345126,2.87204065 67.2972081,3.16605176 67.9514998,3.48239281 C68.2780455,3.64050332 68.60219,3.80425633 68.925134,3.97365187 C74.7777437,7.05050385 79.1068741,11.3855168 80.4418694,16.1774536 L89.539526,48.1948903 C90.3883045,51.2485719 89.9080904,54.1329781 88.3726057,56.6314122" id="path20"></path>
                        </g>
                        <g id="g22" transform="translate(94.283611, 21.927562)" fill="#FFFFFF">
                            <path d="M78.985825,74.5616818 L78.9821458,74.5616818 L78.9784667,74.5616818 L33.2764242,74.5616818 L29.7616371,74.5616818 L28.8050656,71.1799563 L26.2992162,62.3203874 L24.9557238,57.5700288 L29.77758,56.5162059 C37.8655146,54.7492467 44.731981,53.0875103 50.1856648,51.5769858 C55.6111421,50.0744327 63.3372965,47.7168519 67.7730902,44.6035796 C69.4004881,43.4619483 70.5827123,42.6855311 71.9525717,41.7867219 C73.28564,40.9115816 74.7965324,39.9199358 77.1695655,38.2979339 C79.4383569,36.7481655 81.063302,34.8498616 81.8297856,32.9315679 C80.8339701,33.0873173 79.7253283,33.1645789 78.4952755,33.1645789 C76.5735479,33.1645789 74.3562642,32.9770663 71.8998377,32.6073147 C71.8642728,32.6035129 71.818897,32.5989753 71.7649366,32.5934566 C67.8834638,32.198319 57.6003203,30.936871 45.959581,27.7673082 C38.5056816,25.7372918 31.7410043,23.2692147 25.8557595,20.4312633 C18.4244254,16.8480446 12.3143863,12.6309134 7.69819303,7.89723348 L0.00159428582,0.00649978065 L11.0244864,0.00662241802 L63.1839997,0.00662241802 L63.2722987,0.00649978065 C63.6438899,0.00649978065 64.021613,0.0112826381 64.3944306,0.0209709904 C68.7774902,0.133306822 73.0158378,0.897337641 76.9929677,2.29209246 C77.5754952,2.49616104 78.1580227,2.71617249 78.7246074,2.94624019 C79.4886382,3.25614483 80.2502162,3.59450133 80.9897196,3.95198927 C81.3662163,4.13410577 81.7402603,4.32308995 82.1032669,4.51415898 C89.3768894,8.33762428 94.2872897,13.6859627 95.9306305,19.5732923 L105.024191,51.5767405 L105.027871,51.5899854 L105.032776,51.6032302 C105.621435,53.7257152 105.767374,55.8586243 105.463233,57.9428464 C105.168904,59.9684479 104.455154,61.9113917 103.34406,63.7177176 C103.207932,63.9395686 103.068125,64.1556556 102.925866,64.363526 C102.6438,64.7782856 102.334754,65.1919414 102.007312,65.5916166 C99.9654,68.0801741 97.1962481,70.1169356 93.7709864,71.6465915 C89.5252806,73.5434237 84.4125286,74.5515029 78.985825,74.5616818 L78.985825,74.5616818 Z M78.9784667,69.9151971 C83.9330165,69.9058767 88.3356981,68.9859738 91.876239,67.4041969 C94.6220897,66.1774553 96.8491844,64.5530007 98.4128108,62.6467254 C98.6531801,62.3533768 98.8776065,62.0536511 99.08609,61.7473029 C99.1915581,61.5943741 99.2908944,61.4397284 99.3865516,61.2834884 C100.923198,58.7849973 101.40271,55.9005663 100.555286,52.8468958 L91.4568192,20.8298348 C90.1225246,16.0376569 85.792199,11.7027937 79.9399437,8.62594474 C79.6174074,8.45645989 79.2936448,8.292739 78.966203,8.1345368 C78.3125458,7.81825502 77.6490776,7.52429324 76.9782512,7.25203828 C76.475438,7.04784706 75.9664929,6.85628748 75.4563214,6.67674637 C71.8728575,5.42032651 68.0907209,4.76372603 64.2754723,4.66573877 C63.9406723,4.65715415 63.6058723,4.65286184 63.2722987,4.65286184 C63.2428657,4.65286184 63.2134327,4.65298448 63.1839997,4.65298448 L11.0244864,4.65286184 C30.3613339,24.4798908 72.1083212,27.9230577 72.5154773,28.001055 C74.8026642,28.348732 76.8151435,28.5182168 78.4952755,28.5180942 C80.6598251,28.5180942 82.2712801,28.2362735 83.2082296,27.691273 C85.4218342,26.4040712 84.0765022,24.6042451 84.0765022,24.6042451 C84.0765022,24.6042451 86.9682914,26.3997789 86.9682914,30.517206 C86.9682914,34.6347557 84.4603572,38.945214 79.7915525,42.1343988 C74.8946423,45.4800689 73.528462,46.2410338 70.4429057,48.4068098 C65.8967384,51.5979568 58.7420742,54.0288747 51.4255286,56.0548441 C45.4788425,57.701864 38.3732333,59.3943824 30.7697163,61.0556282 L33.2764242,69.9151971 L33.2764242,69.9151971 L78.9784667,69.9151971 L78.9784667,69.9151971 Z" id="path24"></path>
                        </g>
                        <path d="M79.3288869,91.842826 C90.8973715,89.8046442 104.62626,87.2667655 117.576765,84.5750484 L119.624239,91.842826 L119.624239,91.842826 L79.3288869,91.842826" id="path26" fill="#100F0D"></path>
                        <path d="M125.759593,96.4892905 L119.624239,96.4892905 L119.624239,96.4892905 L79.3288869,96.4892905 L78.5227253,87.2667655 C92.7681795,84.7569676 105.589896,82.320705 116.63131,80.0257556 L120.874744,79.1438364 L122.049492,83.3153515 L124.096967,90.583129 L125.759593,96.4892905 L125.759593,96.4892905 Z M119.624239,91.842826 L117.576765,84.5750484 C104.62626,87.2667655 90.8973715,89.8046442 79.3288869,91.842826 L119.624239,91.842826 L119.624239,91.842826 L119.624239,91.842826 Z" id="path28" fill="#FFFFFF"></path>
                        <path d="M113.684846,42.7932313 C95.1964623,46.681918 79.8419172,60.5841399 79.8419172,60.5841399 L101.616159,58.5828268 C80.9382808,63.9205035 65.1308065,77.5686849 65.1308065,77.5686849 L88.0141392,74.4415133 C64.6984832,81.1328263 51.5318169,96.514543 51.5318169,96.514543 C51.782524,93.8159573 53.0254532,91.842826 53.0254532,91.842826 L15.3975754,91.842826 L39.4259586,75.8880789 L25.406262,26.5805044 L48.5602008,26.5805044 L56.8274733,55.5794936 L96.2316138,9.59414117 L105.339391,41.6167666 C108.53131,41.5554535 111.588886,41.8760596 113.498987,42.1369686 C114.72828,42.3048474 115.486866,42.4481808 115.486866,42.4481808 C114.882825,42.5521201 114.281815,42.6674737 113.684846,42.7932313" id="path30" fill="#100F0D"></path>
                        <g id="g32" transform="translate(51.528674, 26.576075)" fill="#FFFFFF">
                            <path d="M115.224521,23.3455808 L115.251208,23.3496951 L115.270112,23.3523638 C120.508601,24.1483117 124.300417,24.0103163 125.962812,23.0426803 C128.175632,21.7554642 126.83126,19.9556301 126.83126,19.9556301 C126.83126,19.9556301 129.722382,21.7511275 129.722382,25.8685288 C129.722382,29.9861525 127.213778,34.2965917 122.545729,37.4858319 C117.649727,40.8314151 116.283116,41.5923359 113.1974,43.7581192 C108.650556,46.9492498 101.496144,49.3802379 94.1804951,51.4061354 C88.2336813,53.0531849 81.1270831,54.7457139 73.5245465,56.4068854 C71.0771013,56.9417428 68.5773934,57.4730419 66.0476624,57.9987812 C53.0973301,60.690415 39.3685078,63.2282633 27.8000201,65.2665037 C11.8449233,68.0776743 0.00300231811,69.9382219 0.00300231811,69.9382219 C0.00300231811,69.9382219 13.1696128,54.5565679 36.4852816,47.8652904 L13.6019466,50.9922603 C13.6019466,50.9922603 29.4093738,37.3442782 50.0872282,32.0066014 L28.3130829,34.0079244 C28.3130829,34.0079244 43.6674937,20.105746 62.1557686,16.2170769 C62.7528963,16.0913131 63.3533599,15.9758906 63.9582714,15.8720327 C63.9582714,15.8720327 63.1987961,15.7286998 61.9700697,15.5607924 C60.0597058,15.2999243 57.0023452,14.979121 53.8104362,15.0406129 L49.5336897,0.00433668171 L49.5336897,0.00433668171 L57.5690049,0.00433668171 L62.0723709,0.00433668171 C62.0723709,0.00433668171 86.0108539,18.3121389 115.224521,23.3455808" id="path34"></path>
                        </g>
                        <path d="M150.922218,67.0092913 C150.922218,67.0092913 148.552522,65.5887862 150.114138,63.7412105 C151.14242,62.525251 153.04141,62.1622207 154.718178,62.1686853 C155.276764,62.1708065 155.811107,62.2139378 156.279794,62.2803015 C156.657572,62.3338368 156.989895,62.4037358 157.297976,62.4797964 C157.589895,62.5517156 157.856562,62.6296954 158.112117,62.70616 C158.73535,62.8928267 159.289895,63.0685843 159.955552,63.125857 C160.107067,63.1389883 160.263632,63.1471701 160.430299,63.1463621 C161.114137,63.1432307 161.935349,63.0110085 163.048481,62.6570691 L163.049491,62.6570691 C163.049491,62.6570691 161.872723,63.9088873 159.009087,65.4992913 C158.84444,65.5906044 158.675754,65.6826246 158.499996,65.776059 C158.124238,65.976059 157.727269,66.1793923 157.297976,66.386362 C155.43939,67.2824226 153.077774,68.2279781 150.123229,69.0865639 C148.982825,69.4180791 147.754542,69.7365639 146.43333,70.0341397 C144.673734,70.4308063 142.748481,70.7904023 140.648481,71.0940386 L146.248481,67.3658569 C146.248481,67.3658569 149.142421,67.3102003 150.922218,67.0092913" id="path36" fill="#100F0D"></path>
                        <g id="g38" transform="translate(113.596867, 26.575179)" fill="#2EA35D">
                            <path d="M0.00409321202,0.00521884532 C0.00409321202,0.00521884532 23.9422204,18.3130306 53.1564979,23.3464534 L53.1831038,23.3505466 L53.2015232,23.3532072 C52.7942486,23.2752315 35.9517045,19.8321239 16.6133243,0.00521884532 L0.00409321202,0.00521884532" id="path40"></path>
                        </g>
                    </g>
                </g>
            </g>
        </g>
    </g>
</svg>