<svg width="200" height="200" viewBox="0 0 200 200" fill="none" xmlns="http://www.w3.org/2000/svg">
<path d="M67.2001 37.8999L74.5001 46.6999L66.4001 97.3999C73.4001 96.9999 81.0001 96.6999 88.9001 96.5999L91.3001 81.6999H101.8L103.3 83.5999L101.2 96.5999C108.4 96.6999 115.8 96.8999 123.4 97.3999L125.9 81.9999L120.2 75.1999L128 68.3999L131.4 46.6999L124 37.8999H67.2001ZM96.1001 51.1999H106.9L108.3 52.7999L106.1 66.2999L103.8 68.2999H93.4001L95.3001 56.4999L90.8001 51.1999H96.1001Z" fill="#011E41"/>
<path d="M65.4 98.3L73.6 46.9L65.3 37H124.6L132.5 46.4L129 68.8L121.6 75.2L127 81.6L124.3 98.2H123.5C116.2 97.8 108.8 97.5 101.3 97.4H100.3L102.5 83.8L101.5 82.5H92.1L89.7 97.4H89C81.6 97.5 74 97.8 66.6 98.2L65.4 98.3ZM69.1 38.7L75.5 46.3L67.5 96.3C74.4 95.9 81.4 95.7 88.2 95.5L90.6 80.6H102.3L104.3 83.1L102.3 95.5C109.2 95.6 116 95.8 122.7 96.2L125 82L119 74.9L127.2 67.8L130.5 46.8L123.6 38.6H69.1V38.7ZM104.2 69.2H92.4L94.4 56.8L89 50.3H107.4L109.4 52.5L107 66.8L104.2 69.2ZM94.5 67.4H103.6L105.4 65.8L107.4 53L106.5 52H92.7L96.2 56.2L94.5 67.4Z" fill="white"/>
<path d="M8.3 104.5C8.3 104.5 27.2 100.4 56.7 97.9998L59.4 95.5998L67.2 46.5998L59.8 37.7998H18.9L8.7 46.6998L1 95.6998L8.3 104.5ZM24.8 51.1998H32.1H42.5L43.9 52.7998L38.1 89.3998L36 91.1998H25.6L24.2 89.5998L29.4 56.6998L24.8 51.1998Z" fill="#011E41"/>
<path d="M8.5 106.1L0 95.9L7.9 46.2L18.7 37H60.3L68.2 46.4L60.3 96.1L57 98.9H56.7C30 101 11.8 104.7 8.9 105.3L8.5 106.1ZM1.9 95.4L8.7 103.5C11.9 102.8 30 99.2 56.4 97.1L58.7 95.1L66.4 46.8L59.5 38.6H19.3L9.5 47L1.9 95.4ZM36.3 92H25.2L23.3 89.8L28.5 56.9L22.9 50.3H42.9L44.8 52.5L38.9 89.8L36.3 92ZM26 90.3H35.6L37.3 88.9L43 53.1L42.2 52.1H26.8L30.5 56.5L25.3 89.4L26 90.3Z" fill="white"/>
<path d="M133.6 97.9999C148.5 99.1999 164 101.3 179.7 104.5L189.8 95.6999L199 37.8999H176.7L168.5 89.3999L166.4 91.1999H156.3L154.9 89.5999L163.1 37.8999H132.1L139.4 46.5999L131.6 95.6999L133.6 97.9999Z" fill="#011E41"/>
<path d="M179.8 105.5L179.4 105.3C164.8 102.3 149.3 100.2 133.6 98.9H133.2L130.7 96L138.5 46.9L130.2 37H164.1L155.8 89.3L156.6 90.3H165.9L167.5 88.9L175.8 37H200L190.6 96.1L179.8 105.5ZM134 97.2C149.6 98.5 164.9 100.6 179.4 103.6L189 95.2L198 38.7H177.4L169.3 89.8L166.7 92H155.9L154 89.8L162.1 38.7H134L140.4 46.3L132.6 95.4L134 97.2Z" fill="white"/>
<path d="M150.6 163.4L150.4 155.3C150.4 154.9 150.4 154.5 150.3 154.2C146.6 153.3 136.7 150.8 131.7 149.9C121.4 152.1 108.9 160.1 108.3 160.4L106.1 161.8L104.3 160.2C78.1 137.3 33.8 126.3 33.3 126.2L23 123.7L33 120.2C46.5 115.5 59.2 112.1 70.8 110.3L65.9 106.1L72.2 104.8C73.3 104.6 96.8 100 116.1 105.3L115.1 99.2002L121 102.7C123.8 104.4 148 119.2 151.1 133.3C153.1 135.1 154.7 136.7 155.9 137.8C161.3 143.2 161.3 149 160.5 151.3C160.5 151.5 156.6 160.3 150.6 163.4Z" fill="white"/>
<path d="M134.4 129.7C133.2 131.7 131.1 133.1 128.7 133.3C128.5 133.3 128.4 133.3 128.2 133.3C124.5 133.3 121.4 130.4 121.1 126.7C121 125.7 121.2 124.7 121.5 123.8C120.9 123.7 115.2 124.1 112.1 125C112.2 125.3 112.3 125.6 112.4 125.9C112.5 126 112.5 126.2 112.6 126.3C112.8 126.7 113 127.1 113.2 127.6C113.2 127.6 113.2 127.7 113.3 127.7C113.4 127.9 113.6 128.1 113.7 128.4L113.8 128.5C114 128.7 114.1 129 114.3 129.3C115.7 131.2 117.6 132.9 120 134C126.1 137 133.1 135.7 136.7 131.2L134.4 129.7Z" fill="white"/>
<path d="M128.6 132C130.4 131.9 132.1 130.9 133.1 129.3L131.9 128.5C131.5 130.1 130.1 131.3 128.4 131.4C126.3 131.5 124.4 129.9 124.3 127.8C124.3 127.1 124.4 126.4 124.7 125.8L129.4 126.8L125.5 124.2L123.5 122.9C123.3 123.2 123.1 123.5 122.9 123.9C122.5 124.7 122.4 125.7 122.4 126.6C122.7 129.8 125.4 132.2 128.6 132Z" fill="white"/>
<path d="M151.8 140.2C151.8 140.1 151.7 140.1 151.7 140C151.5 139.8 151.4 139.6 151.2 139.4C151.1 139.3 151.1 139.3 151 139.2C149.8 137.5 140.7 129.8 140.6 129.6L142.1 134.1C142.8 134.6 144.1 135.4 145.5 136.5C145.6 136.6 145.8 136.7 145.9 136.8C146 136.9 146.2 137 146.3 137.1C149.6 139.7 153.5 143.3 154.4 146.5C154.4 145.7 154.3 145 154 144.2C153.8 143.2 153 141.8 151.8 140.2Z" fill="#C6B784"/>
<path d="M108.2 142.4C111.3 142.5 114.7 142.7 117.8 143.1C117.8 143.1 117.5 143 116.9 142.8C115.2 142.2 111.9 140.8 108.7 138.7C106.2 137.1 103.8 135 102.3 132.6C102.2 132.6 99.9 134.3 96.9 136.6C95.2 138 93.2 139.7 91.2 141.5C91.1 141.6 91.1 141.6 91 141.7C94.6 144.2 99.8 148.3 105.4 154.2C105.8 154.7 106.3 155.1 106.7 155.6L110.9 149.7C110.3 148.7 109.1 147.6 107.6 146.7C106.2 145.9 104.7 145.1 103.2 144.4C101.4 143.6 99.7 143.1 98.5 142.7C98.3 142.6 98 142.5 97.8 142.5C97.7 142.5 97.6 142.4 97.5 142.4C97.4 142.4 97.2 142.3 97.1 142.3C97 142.3 96.9 142.2 96.9 142.2C96.9 142.2 97.5 142.2 98.5 142.2C99.5 142.2 101 142.2 102.7 142.2C104.4 142.3 106.3 142.3 108.2 142.4Z" fill="#A48D29"/>
<path d="M136.6 131.2C133 135.7 126 137 119.9 134C117.5 132.8 115.6 131.2 114.2 129.3C114.2 129.3 114.2 129.3 114.2 129.4C112.3 128.3 110.8 126.4 110.1 125.6C108.9 125.9 107.6 126.4 106.3 126.9C108.1 132.9 114.9 137.3 123.1 137.3C123.2 137.3 123.3 137.3 123.4 137.3C129.1 137.2 134.1 135 137.2 131.7L136.8 131.4L136.6 131.2Z" fill="#A48D29"/>
<path d="M151.4 150.3C151.4 150.3 151.3 150.2 151.1 150C151.1 150 150.8 149.8 150.7 149.7C150.2 149.3 149.8 149 149.4 148.8C148.7 148.4 148 148.1 148 148.1C148 148.1 142.7 146.2 140.4 145.4C140.2 145.3 140 145.3 139.9 145.2C139.7 145.1 139.5 145.1 139.4 145C138.8 144.8 138.5 144.7 138.5 144.7H138.4C138.6 145 138.8 145.3 138.9 145.6C138.9 145.8 139 146 139 146.1C139 146.2 139 146.4 138.9 146.5C138.9 146.6 138.9 146.6 138.8 146.6C138.8 146.7 138.7 146.9 138.6 147L139.1 147.1L151.4 150.3Z" fill="#A48D29"/>
<path d="M146.4 137.2C146.3 137.1 146.1 137 146 136.9C145.8 136.8 145.7 136.7 145.6 136.6C144.2 135.5 143 134.7 142.2 134.2L142.5 135.1L142.4 134.9L143 136.5C142.3 139.2 139.4 139.9 139.4 139.9L134.9 139.6L125.8 139L136.2 142.7C136.2 142.7 136.5 142.8 136.9 143C139.7 144 148.4 147.1 148.4 147.1C149.1 147.4 149.6 147.6 150.2 148C150.3 148 150.3 148.1 150.4 148.1L150.5 148.2C150.7 148.3 150.9 148.5 151.2 148.7C151.2 148.7 151.2 148.7 151.3 148.7C151.4 148.7 151.4 148.8 151.4 148.8C151.6 148.9 151.7 149.1 151.9 149.2L152 149.3C152.3 149.5 152.5 149.8 152.7 150.1L152.8 150C153.3 149.5 154.2 148.3 154.4 146.4C153.6 143.4 149.7 139.8 146.4 137.2Z" fill="#A48D29"/>
<path d="M96.6001 131.6L96.7001 131.5C98.7001 129.2 109.1 121.3 120.5 121H120.6C120.3 120.9 119.7 120.8 118.9 120.6C118.8 120.6 118.6 120.6 118.5 120.5C118.3 120.5 118.1 120.4 117.9 120.4C114.5 119.8 108 119 98.1001 119.1C97.7001 119.1 97.4001 119.1 97.0001 119.1C95.9001 119.1 94.8001 119.1 93.6001 119.2C92.3001 119.2 91.0001 119.3 89.7001 119.4C89.3001 119.4 88.9001 119.4 88.6001 119.5C88.4001 119.5 88.2001 119.5 88.0001 119.5H87.9001C87.8001 119.5 87.8001 119.5 87.7001 119.5C87.1001 119.5 86.6001 119.6 86.0001 119.6C85.8001 119.6 85.7001 119.6 85.5001 119.6C84.8001 119.7 84.1001 119.7 83.3001 119.8C82.6001 119.9 81.8001 119.9 81.1001 120C81.1001 120 81.1001 120 81.0001 120C81.0001 120 81.0001 120 80.9001 120C80.0001 120.1 79.1001 120.2 78.2001 120.3C77.9001 120.3 77.6001 120.4 77.3001 120.4C76.7001 120.5 76.0001 120.5 75.3001 120.6C75.0001 120.6 74.6001 120.7 74.3001 120.7C73.6001 120.8 72.9001 120.9 72.3001 121C72.0001 121 71.7001 121.1 71.4001 121.1C69.4001 121.4 67.4001 121.6 65.3001 122C65.0001 122.1 64.6001 122.1 64.3001 122.2C63.5001 122.3 62.8001 122.4 62.0001 122.6C61.6001 122.7 61.3001 122.7 60.9001 122.8C60.1001 122.9 59.3001 123.1 58.5001 123.2C58.2001 123.3 57.8001 123.3 57.5001 123.4C56.4001 123.6 55.2001 123.8 54.1001 124L57.6001 125.2C57.6001 125.2 57.6001 125.2 57.7001 125.2L58.3001 125.4C62.1001 126.7 66.0001 128.3 69.7001 130C70.4001 130.3 71.2001 130.7 71.9001 131C72.6001 131.3 73.3001 131.7 74.0001 132C74.7001 132.3 75.4001 132.7 76.1001 133H76.2001C76.8001 133.3 77.4001 133.6 78.0001 133.9C79.7001 134.8 81.3001 135.6 82.8001 136.5C82.9001 136.5 82.9001 136.6 83.0001 136.6C83.4001 136.9 83.9001 137.1 84.3001 137.3C84.3001 137.3 84.3001 137.3 84.4001 137.3C85.4001 137.9 86.3001 138.4 87.1001 138.9C91.4001 135.2 96.1001 132 96.6001 131.6C96.6001 131.7 96.5001 131.7 96.6001 131.6Z" fill="#A48D29"/>
<path d="M135.6 143.7L118.2 137.5L129 138.2C129 138.2 137.1 139 139.2 136.9C140.7 135.4 140.9 133.9 140.6 132.4L138.5 126.1L140 127.4C140 127.4 141.3 128.5 143.1 130.1C142.6 128.7 141.4 126.1 137.9 122.4C132.7 117.7 126.5 113 122.6 110.3L122.7 111.4V111.6V111.7L123.2 115.9L122.1 115.1C111.2 106.9 91.9 108.6 87.2 109.1L89.4 111.6L92.2 114.8C92.2 114.8 92.2 114.8 92.1 114.8C92.1 114.8 92 114.8 91.9 114.8C91.9 114.8 91.9 114.8 91.8 114.8C91.7 114.8 91.7 114.8 91.6 114.8C91.5 114.8 91.4 114.8 91.3 114.8C91.2 114.8 91.1 114.8 91 114.8C90.9 114.8 90.8 114.8 90.7 114.8C90.3 114.8 89.8 114.9 89.3 114.9C84.4 115.4 74.8 116.5 66.2 118.8C66.2 118.8 66.1 118.8 66 118.8C66 118.8 65.9 118.8 65.8 118.8C65.6 118.9 65.3 118.9 65 119C64.7 119.1 64.5 119.2 64.2 119.3C64.1 119.3 64 119.4 63.9 119.4C63.6 119.5 63.3 119.6 63 119.7H62.9C62.3 119.9 61.5 120.2 60.8 120.4H60.7C60.5 120.5 60.4 120.5 60.2 120.6C59.9 120.7 59.6 120.8 59.4 120.9C59.4 120.9 59.3 120.9 59.3 121C58.8 121.2 58.4 121.4 57.9 121.6H57.8C57.1 121.9 56.5 122.2 55.9 122.5C55.4 122.7 55 123 54.5 123.3C55.7 123.1 56.8 122.9 57.9 122.7C58.2 122.6 58.5 122.6 58.8 122.5C59.6 122.4 60.5 122.2 61.3 122.1C61.6 122 62 122 62.3 121.9C63.1 121.8 63.9 121.6 64.7 121.5C65 121.5 65.3 121.4 65.5 121.4C66.6 121.2 67.6 121.1 68.7 120.9C69.7 120.8 70.7 120.6 71.7 120.5C72 120.5 72.3 120.4 72.6 120.4C73.3 120.3 74 120.2 74.7 120.1C75 120.1 75.3 120 75.6 120C76.3 119.9 77 119.8 77.6 119.8C77.9 119.8 78.1 119.7 78.4 119.7C79.3 119.6 80.2 119.5 81.1 119.4H81.2C82.7 119.3 84.2 119.1 85.6 119C85.7 119 85.7 119 85.8 119C85.9 119 86 119 86.1 119C86.2 119 86.3 119 86.4 119C86.9 119 87.4 118.9 87.8 118.9C87.9 118.9 87.9 118.9 88 118.9C88.1 118.9 88.1 118.9 88.2 118.9C88.8 118.9 89.4 118.8 89.9 118.8C90.4 118.8 90.9 118.7 91.3 118.7C91.5 118.7 91.7 118.7 91.9 118.7C92.6 118.7 93.2 118.6 93.8 118.6C95 118.6 96.1 118.5 97.2 118.5C97.6 118.5 97.9 118.5 98.3 118.5C108.3 118.4 114.8 119.2 118.1 119.8C118.3 119.8 118.5 119.9 118.7 119.9C118.9 119.9 119 120 119.2 120H119.3C119.4 120 119.5 120.1 119.7 120.1C120.1 120.2 120.4 120.3 120.6 120.3C120.7 120.3 120.7 120.3 120.8 120.4C120.7 120.2 119.4 117.8 119.4 117.8L136.7 129.3C138.1 129.9 138.3 128.8 138.3 128.8L139.4 132.3L137.5 131.1C134.4 134.4 129.3 136.7 123.7 136.7C123.6 136.7 123.5 136.7 123.4 136.7C115.2 136.7 108.4 132.3 106.6 126.3C101.4 128.3 96.6 131.2 96.6 131.2C96.1 131.5 91.3 134.8 87.1 138.5C88.8 139.6 90.2 140.5 91.1 141.2C91.2 141.1 91.2 141.1 91.3 141C93.2 139.2 95.2 137.5 97 136.1C100.1 133.6 102.4 132.1 102.4 132.1C103.9 134.6 106.3 136.6 108.8 138.2C111.9 140.2 115.4 141.7 117 142.3C117.5 142.5 117.8 142.6 118 142.6H117.9C122.8 143.2 127.2 144 130.6 144.7C135 145.6 137.8 146.3 137.8 146.3C137.9 146.2 138.1 146 138.1 145.7C138 145.9 137.8 145 135.6 143.7Z" fill="#C6B784"/>
<path d="M123 123.9C123.2 123.6 123.3 123.2 123.6 122.9L125.6 124.2L129.5 126.8L124.8 125.8C124.5 126.4 124.3 127.1 124.4 127.8C124.5 129.9 126.4 131.5 128.5 131.4C130.2 131.3 131.6 130.1 132 128.5L133.2 129.3C132.2 130.8 130.5 131.9 128.7 132C125.5 132.2 122.8 129.8 122.6 126.7C122.4 125.7 122.6 124.8 123 123.9ZM121.6 123.9C121.3 124.8 121.1 125.8 121.2 126.8C121.4 130.5 124.6 133.4 128.3 133.4C128.5 133.4 128.6 133.4 128.8 133.4C131.2 133.2 133.3 131.9 134.5 129.8L136.8 131.2L137 131.4L139.4 132.9L138.3 129.4C138.3 129.4 138.1 130.5 136.7 129.9L119.4 118.4C119.4 118.4 120.7 120.8 120.8 121H120.7C109.3 121.3 98.9 129.2 96.9 131.5C96.9 131.6 96.8 131.6 96.8 131.6C96.8 131.7 96.7 131.7 96.7 131.8C96.8 131.8 96.8 131.8 96.7 131.8C96.7 131.8 101.5 128.9 106.7 126.9C108 126.4 109.2 126 110.5 125.6C111.1 126.4 112.7 128.3 114.6 129.4C114.6 129.4 114.6 129.4 114.6 129.3C114.4 129 114.3 128.8 114.1 128.5L114 128.4C113.9 128.2 113.7 127.9 113.6 127.7C113.6 127.7 113.6 127.6 113.5 127.6C113.2 127.1 113 126.7 112.9 126.3C112.8 126.2 112.8 126 112.7 125.9C112.5 125.5 112.4 125.2 112.4 125C115.3 124.1 121 123.8 121.6 123.9Z" fill="#011E41"/>
<path d="M144.2 139.3L144 138.7L143.8 138.2C143.2 139.3 142.3 139.9 141.6 140.3C141.6 140.3 142.2 140.4 142.8 140.4C143 140.4 143.3 140.4 143.5 140.4C143.8 140.4 144.1 140.3 144.3 140.3C144.4 140.3 144.5 140.2 144.5 140.2V140.1L144.2 139.3Z" fill="#011E41"/>
<path d="M154.6 146.6C154.4 148.4 153.5 149.6 153 150.2L152.9 150.3C152.7 150 152.4 149.7 152.2 149.5C152.1 149.4 152.1 149.4 152 149.3C151.8 149.2 151.7 149 151.5 148.9C151.1 148.6 150.7 148.3 150.4 148.1L150.3 148C150.1 147.9 150 147.8 149.8 147.7C149.7 147.6 139.8 144 137.1 143C136.6 142.8 136.3 142.7 136.3 142.7L126 139L128.9 139.2L139.6 139.9C139.6 139.9 142.4 139.2 143.2 136.5C143.2 136.4 140.8 129.6 140.8 129.6C140.9 129.7 141.1 129.8 141.2 130C141.3 130.1 141.4 130.2 141.5 130.2C143.2 131.7 146.6 134.7 148.6 136.6C148.7 136.6 148.7 136.7 148.8 136.7C148.9 136.8 149.1 136.9 149.2 137C149.3 137.1 150.2 137.9 151.2 139.1C151.3 139.2 151.3 139.2 151.4 139.3C151.6 139.5 151.7 139.7 151.9 139.9C151.9 140 152 140 152 140.1C152.9 141.3 153.8 142.7 154.3 144.2C154.5 145.4 154.6 146.1 154.6 146.6ZM139.2 147.3L138.8 147.2C138.9 147.1 138.9 147 139 146.8C139 146.7 139 146.7 139.1 146.6C139.2 146.3 139.2 146 139.1 145.7C139 145.2 138.6 144.7 138.6 144.7L148.4 148.1C150.3 148.8 151.6 150.2 151.7 150.3L139.2 147.3ZM137.7 146.8C137.7 146.8 134.9 146.1 130.5 145.2C127.1 144.5 122.7 143.7 117.8 143.1C114.7 142.8 111.4 142.5 108.2 142.4C106.2 142.3 104.4 142.3 102.7 142.2C101 142.2 99.5001 142.2 98.5001 142.2C97.5001 142.2 96.9001 142.2 96.9001 142.2C97.0001 142.2 97.0001 142.2 97.1001 142.3C97.2001 142.3 97.3001 142.4 97.5001 142.4C97.6001 142.4 97.7001 142.5 97.8001 142.5C98.0001 142.6 98.2001 142.6 98.5001 142.7C100.3 143.3 101.9 143.9 103.2 144.4C105.1 145.2 106.6 146 107.7 146.7C110.3 148.3 110.8 149.5 110.9 149.7L106.7 155.6C106.3 155.1 105.8 154.7 105.4 154.2C99.8001 148.2 94.6001 144.2 91.0001 141.7C89.3001 140.5 87.0001 139 87.0001 139C86.6001 138.8 86.2001 138.5 85.8001 138.3C85.7001 138.3 85.7001 138.2 85.7001 138.2C85.3001 138 84.9001 137.7 84.5001 137.5C84.4001 137.5 84.4001 137.4 84.4001 137.4C84.4001 137.4 84.4001 137.4 84.3001 137.4C83.9001 137.2 83.4001 136.9 83.0001 136.7C82.9001 136.7 82.9001 136.6 82.8001 136.6C82.3001 136.3 81.9001 136.1 81.4001 135.8C80.4001 135.2 79.3001 134.6 78.1001 134.1C78.1001 134.1 78.1001 134.1 78.0001 134.1C77.4001 133.8 76.9001 133.5 76.3001 133.2H76.2001C70.7001 130.4 64.5001 127.6 58.4001 125.5C58.3001 125.5 58.2001 125.4 58.1001 125.4C58.0001 125.4 57.9001 125.3 57.8001 125.3L54.3001 124.1C54.7001 123.8 55.2001 123.6 55.7001 123.3C56.3001 123 57.0001 122.7 57.6001 122.4H57.7001C58.2001 122.2 58.6001 122 59.1001 121.8C59.1001 121.8 59.2001 121.8 59.2001 121.7C59.5001 121.6 59.8001 121.5 60.0001 121.4C60.2001 121.3 60.3001 121.3 60.5001 121.2H60.6001C61.3001 120.9 62.1001 120.7 62.7001 120.5H62.8001C63.1001 120.4 63.4001 120.3 63.7001 120.2C63.8001 120.2 63.9001 120.1 64.0001 120.1C64.3001 120 64.6001 119.9 64.8001 119.8C65.1001 119.7 65.4001 119.6 65.6001 119.6C65.7001 119.6 65.7001 119.6 65.8001 119.6C65.9001 119.6 66.0001 119.6 66.0001 119.6C71.7001 118.1 77.9001 117.1 82.9001 116.4C83.7001 116.3 84.5001 116.2 85.2001 116.1C85.4001 116.1 85.7001 116 85.9001 116H86.0001C86.2001 116 86.4001 116 86.6001 115.9H86.7001C87.4001 115.8 88.0001 115.8 88.5001 115.7H88.6001C88.7001 115.7 88.9001 115.7 89.0001 115.7C89.1001 115.7 89.1001 115.7 89.2001 115.7C89.3001 115.7 89.4001 115.7 89.6001 115.7H89.7001C90.0001 115.7 90.3001 115.6 90.6001 115.6H90.7001C90.8001 115.6 90.9001 115.6 91.0001 115.6H91.1001C91.2001 115.6 91.3001 115.6 91.4001 115.6C91.5001 115.6 91.6001 115.6 91.7001 115.6C91.8001 115.6 91.8001 115.6 91.9001 115.6C91.9001 115.6 91.9001 115.6 92.0001 115.6C92.1001 115.6 92.2001 115.6 92.2001 115.6C92.3001 115.6 92.3001 115.6 92.3001 115.6L89.5001 112.4L87.3001 109.9C91.9001 109.4 111.3 107.7 122.2 115.9L123.3 116.7L122.8 112.4L122.6 111.1C126.5 113.8 132.7 118.5 137.9 123.2C141.4 126.9 142.6 129.5 143.1 130.9C141.3 129.3 140.1 128.2 140 128.2L138.5 126.9L140.6 133.2C140.9 134.6 140.7 136.1 139.2 137.7C137.1 139.8 129 139 129 139L118.2 138.3L135.6 144.5C137.8 145.8 138.1 146.7 138.1 147C138 146.4 137.9 146.6 137.7 146.8ZM153.7 140.3C152.2 138.8 150.3 137 148.3 135.2C146.4 121.8 119.5 105.7 119.5 105.7L120.3 110.2C100.8 102.5 73.0001 108.1 73.0001 108.1L78.3001 112.7C67.9001 113.9 53.1001 116.8 34.1001 123.4C34.1001 123.4 79.3001 134.4 106.4 158.1V158C107.3 157.4 120.6 148.9 131.5 146.8C137.6 147.8 152.4 151.6 152.4 151.6C153.2 152.8 153.5 154.2 153.4 155.7L153.2 158.2C153.2 158.2 157.4 150.6 157.5 150.5C157.6 150.5 159.1 145.6 153.7 140.3Z" fill="#011E41"/>
</svg>
