<?xml version="1.0" encoding="UTF-8"?>
<svg width="200px" height="200px" viewBox="0 0 200 200" version="1.1" xmlns="http://www.w3.org/2000/svg" xmlns:xlink="http://www.w3.org/1999/xlink">
    <title>pepperdine</title>
    <g id="pepperdine" stroke="none" stroke-width="1" fill="none" fill-rule="evenodd">
        <g id="Group" transform="translate(0.000000, -0.000000)" fill-rule="nonzero">
            <g id="pepperdine" transform="translate(7.000000, 0.000000)">
                <g id="g12" transform="translate(93.034826, 99.991264) scale(-1, 1) rotate(-180.000000) translate(-93.034826, -99.991264) translate(0.000000, 0.488776)">
                    <path d="M181.094527,122.686567 C181.094527,162.686567 116.915423,193.731343 61.5920398,193.731343 C44.5771144,193.731343 30.2487562,191.343284 19.800995,188.955224 C22.8855721,189.054726 26.1691542,189.154229 29.1542289,189.154229 C70.4477612,189.154229 146.865672,161.890547 146.865672,118.308458 C146.865672,88.358209 107.960199,75.6218905 97.0149254,72.6368159 L97.0149254,156.218905 C85.2736318,165.273632 69.3532338,167.960199 61.7910448,168.756219 L61.7910448,32.9353234 C61.7910448,16.2189055 57.6119403,8.75621891 52.6368159,4.37810945 L106.169154,4.37810945 C101.293532,8.75621891 97.0149254,16.119403 97.0149254,32.9353234 L97.0149254,70.2487562 C116.915423,71.1442786 181.094527,82.5870647 181.094527,122.686567" id="path14" fill="#1A3374"></path>
                    <path d="M97.0149254,70.2487562 L97.0149254,32.9353234 C97.0149254,16.2189055 101.19403,8.75621891 106.169154,4.37810945 L52.6368159,4.37810945 C57.5124378,8.75621891 61.7910448,16.119403 61.7910448,32.9353234 L61.7910448,168.756219 C69.3532338,167.960199 85.1741294,165.273632 97.0149254,156.218905 L97.0149254,72.6368159 C107.960199,75.6218905 146.865672,88.358209 146.865672,118.308458 C146.865672,161.791045 70.4477612,189.154229 29.1542289,189.154229 C26.1691542,189.154229 22.9850746,189.054726 19.800995,188.955224 C30.2487562,191.442786 44.6766169,193.731343 61.5920398,193.731343 C116.81592,193.731343 181.094527,162.686567 181.094527,122.686567 C181.094527,82.5870647 116.915423,71.1442786 97.0149254,70.2487562 L97.0149254,70.2487562 Z M61.6915423,198.109453 C24.8756219,198.109453 0,187.462687 0,187.462687 L0.895522388,183.283582 C0.895522388,183.283582 16.8159204,184.875622 29.0547264,184.875622 C76.4179104,184.875622 142.487562,154.726368 142.487562,118.40796 C142.487562,95.3233831 115.223881,83.2835821 101.293532,78.6069652 L101.293532,158.40796 C83.880597,173.034826 57.4129353,173.532338 57.4129353,173.532338 L57.4129353,32.9353234 C57.4129353,10.4477612 49.2537313,7.1641791 45.1741294,4.27860697 L45.1741294,0 L113.631841,0 L113.631841,4.27860697 C109.552239,7.06467662 101.393035,10.3482587 101.393035,32.9353234 L101.393035,66.2686567 C129.751244,68.4577114 185.472637,83.0845771 185.472637,122.78607 C185.472637,165.174129 120,198.109453 61.6915423,198.109453 L61.6915423,198.109453 Z" id="path16" fill="#FFFFFF"></path>
                </g>
            </g>
        </g>
    </g>
</svg>