<?xml version="1.0" encoding="UTF-8"?>
<svg width="200px" height="200px" viewBox="0 0 200 200" version="1.1" xmlns="http://www.w3.org/2000/svg" xmlns:xlink="http://www.w3.org/1999/xlink">
    <!-- Generator: Sketch 54.1 (76490) - https://sketchapp.com -->
    <title>portland-st</title>
    <desc>Created with Sketch.</desc>
    <g id="portland-st" stroke="none" stroke-width="1" fill="none" fill-rule="evenodd">
        <g id="portland-st_BGD">
            <g id="portland-st" transform="translate(23.000000, 0.000000)">
                <g id="g10" transform="translate(76.993910, 100.457177) scale(-1, 1) rotate(-180.000000) translate(-76.993910, -100.457177) translate(0.000000, 0.008168)" fill-rule="nonzero">
                    <g id="g12">
                        <polyline id="path14" fill="#1D4231" points="55.9279682 127.013233 38.7945287 138.498073 38.7945287 109.334615 55.9279682 120.820883 55.9279682 127.013233"></polyline>
                        <path d="M141.973302,156.565025 L133.336727,150.798538 C133.336727,135.216602 133.336727,115.737857 133.336727,108.033367 L115.08091,120.274277 L115.08091,138.50256 L97.9460432,127.013233 L97.9460432,120.818027 L133.336727,97.0879945 L133.339583,67.5378339 C133.339583,55.277956 126.304073,44.2452896 115.08091,36.5552807 C105.858366,30.2407603 94.8401803,26.184252 81.5393039,25.5648335 L81.5454226,98.1536718 L99.8055226,85.917249 L99.8055226,48.7947629 C110.029702,53.1857612 114.968938,60.6212314 115.08091,67.3473377 L115.08091,87.3508654 L81.5525611,109.829008 L81.5525611,138.000825 L141.973302,178.473311 L141.973302,156.565025 Z M72.3243057,109.837778 L38.7945287,87.3582079 L38.7945287,36.55834 L38.793101,36.55834 C27.5713661,44.2467173 20.5387118,55.2808114 20.5387118,67.5378339 C20.5387118,67.5378339 20.5415672,117.347285 20.5399356,150.816078 L11.8992405,156.589704 L11.8992405,178.487792 L72.3243057,137.993686 L72.3243057,109.837778 Z M76.9319068,146.009211 L2.67965321,195.734631 L2.67965321,151.628849 L11.9049717,145.483001 L11.9049717,67.1537822 C11.9049717,54.9712041 16.9735573,43.5663155 26.6309187,34.5067328 C32.1296095,29.0078379 40.879585,22.930316 46.1790095,19.9193137 C60.6895571,11.6739288 76.9319068,3.0357016 76.9319068,3.0357016 C76.9319068,3.0357016 93.1738485,11.6739288 107.686028,19.9193137 C112.985656,22.930316 121.734204,29.0078379 127.233099,34.5067328 C136.890073,43.5663155 141.960249,54.9712041 141.960249,67.1537822 L141.960249,145.483001 L151.184018,151.628849 L151.184018,195.734631 L76.9319068,146.009211 L76.9319068,146.009211 Z" id="path16" fill="#1D4231"></path>
                        <path d="M151.184018,151.628849 L141.960249,145.483001 L141.960249,67.1537822 C141.960249,54.9712041 136.890073,43.5663155 127.233099,34.5067328 C121.734204,29.0078379 112.985656,22.930316 107.686028,19.9193137 C93.1738485,11.6739288 76.9319068,3.0357016 76.9319068,3.0357016 C76.9319068,3.0357016 60.6895571,11.6739288 46.1790095,19.9193137 C40.879585,22.930316 32.1296095,29.0078379 26.6309187,34.5067328 C16.9735573,43.5663155 11.9049717,54.9712041 11.9049717,67.1537822 L11.9049717,145.483001 L2.67965321,151.628849 L2.67965321,195.734631 L76.9319068,146.009211 L151.184018,195.734631 L151.184018,151.628849 Z M76.9319068,149.235613 L0,200.753614 L0,150.193804 L9.22531849,144.047753 L9.22531849,67.1537822 C9.22531849,54.0741996 14.6093241,42.109448 24.7363586,32.610745 C30.1973174,27.1497862 38.9907357,20.9195002 44.8547143,17.588448 C59.2312618,9.42019976 75.5113436,0.756076115 75.6743056,0.670430333 L76.9319068,0.000239013571 L78.1911396,0.670430333 C78.3536936,0.756076115 94.6323477,9.42019976 109.010527,17.588448 C114.872874,20.9195002 123.666496,27.1497862 129.066472,32.5509855 C139.254347,42.109448 144.639637,54.0741996 144.639637,67.1537822 L144.639637,144.047753 L153.86361,150.193804 L153.86361,200.753614 L76.9319068,149.235613 L76.9319068,149.235613 Z" id="path18" fill="#FEFFFF"></path>
                        <path d="M38.7945287,138.498073 L55.9279682,127.013233 L55.9279682,120.820883 L38.7945287,109.334615 L38.7945287,138.498073 Z M11.8992405,156.589704 L20.5399356,150.816078 C20.5415672,117.347285 20.5387118,67.5378339 20.5387118,67.5378339 C20.5387118,55.2808114 27.5713661,44.2467173 38.793101,36.55834 L38.7945287,36.55834 L38.7945287,87.3582079 L72.3243057,109.837778 L72.3243057,137.993686 L11.8992405,178.487792 L11.8992405,156.589704 L11.8992405,156.589704 Z" id="path20" fill="#FEFFFF"></path>
                        <path d="M133.339583,67.5378339 L133.336727,97.0879945 L97.9460432,120.818027 L97.9460432,127.013233 L115.08091,138.50256 L115.08091,120.274277 L133.336727,108.033367 C133.336727,115.737857 133.336727,135.216602 133.336727,150.798538 L141.973302,156.565025 L141.973302,178.473311 L81.5525611,138.000825 L81.5525611,109.829008 L115.08091,87.3508654 L115.08091,67.3473377 C114.968938,60.6212314 110.029702,53.1857612 99.8055226,48.7947629 L99.8055226,85.917249 L81.5454226,98.1536718 L81.5393039,25.5648335 C94.8401803,26.184252 105.858366,30.2407603 115.08091,36.5552807 C126.304073,44.2452896 133.339583,55.277956 133.339583,67.5378339" id="path22" fill="#FEFFFF"></path>
                        <path d="M114.682378,11.5400919 L111.39642,11.5400919 L111.39642,3.0357016 L109.870003,3.0357016 L109.870003,11.5400919 L106.583638,11.5400919 L106.583638,13.0637147 L114.682378,13.0637147 L114.682378,11.5400919 Z M127.355065,3.0357016 L125.831504,3.0357016 L125.831504,11.5400919 L125.784797,11.5400919 L122.353419,3.0357016 L121.422761,3.0357016 L118.090505,11.5400919 L118.040944,11.5400919 L118.040944,3.0357016 L116.517382,3.0357016 L116.517382,13.0637147 L119.016472,13.0637147 L121.899817,5.98878006 L124.877595,13.0637147 L127.355065,13.0637147 L127.355065,3.0357016 L127.355065,3.0357016 Z" id="path24" fill="#FEFFFF"></path>
                    </g>
                </g>
            </g>
        </g>
    </g>
</svg>