<?xml version="1.0" encoding="UTF-8"?>
<svg width="200px" height="200px" viewBox="0 0 200 200" version="1.1" xmlns="http://www.w3.org/2000/svg" xmlns:xlink="http://www.w3.org/1999/xlink">
    <!-- Generator: Sketch 54.1 (76490) - https://sketchapp.com -->
    <title>queens-nc</title>
    <desc>Created with Sketch.</desc>
    <g id="queens-nc" stroke="none" stroke-width="1" fill="none" fill-rule="evenodd">
        <g id="queens-nc_BGD" fill="#FFFFFF">
            <g id="queens-nc" transform="translate(22.000000, 0.000000)">
                <g id="g10" transform="translate(78.431371, 100.067229) scale(-1, 1) rotate(-180.000000) translate(-78.431371, -100.067229) translate(0.140056, 0.207287)" fill-rule="nonzero">
                    <g id="g12" transform="translate(0.252101, 0.000000)">
                        <path d="M93.3803898,25.9126604 C54.6999986,44.8781501 55.4112031,72.7557405 55.4112031,72.7557405 C49.2459371,69.9955165 41.210083,63.8691861 41.210083,63.8691861 C41.210083,63.8691861 36.1551812,91.6414543 56.4571414,108.924367 C56.4571414,108.924367 50.3812312,111.750137 48.9364133,119.387952 C48.9364133,119.387952 54.8221275,109.945936 68.1915949,109.945936 C68.1915949,109.945936 51.1126038,98.1750676 48.005601,76.8302502 C48.005601,76.8302502 57.0142843,83.7243677 66.8904745,84.9764685 C66.8904745,84.9764685 51.2759091,59.1697464 93.3803898,25.9126604" id="path14"></path>
                        <path d="M42.7266096,121.744255 C16.9959099,99.0260479 30.2770301,64.1686258 30.2770301,64.1686258 C9.33714262,87.1745076 21.2414561,115.030529 42.7266096,121.744255" id="path16"></path>
                        <path d="M101.470025,104.13109 C100.596636,104.161342 99.9165241,104.954059 99.9501376,105.903359 C99.983751,106.850978 100.719325,107.592995 101.594395,107.561062 C102.466384,107.53081 103.146216,106.736412 103.112602,105.788793 C103.078989,104.841174 102.343415,104.098877 101.470025,104.13109 L101.470025,104.13109 Z M99.2871124,99.8929947 C96.188513,99.8694653 93.5697456,102.572546 93.6843114,105.790474 C93.7548996,107.737812 94.5997175,109.43277 95.8400536,110.447616 L98.491034,109.811202 C96.966104,109.18179 93.2179248,103.498317 99.2871124,99.8929947 C99.6403336,99.8946754 98.9518183,99.8156838 99.2871124,99.8929947 Z M92.0036392,102.434451 C86.9946757,105.337812 86.3543396,111.161062 86.7750679,113.392994 L93.2422946,111.258821 C88.8932751,106.909521 92.0036392,102.434451 92.0036392,102.434451 L92.0036392,102.434451 Z M132.442574,86.3784292 L115.442014,111.025207 C92.9798296,114.586552 73.1700262,125.228288 64.8252085,134.7577 C64.8252085,134.7577 69.1086817,133.862462 72.1518189,134.576187 C72.1518189,134.576187 61.0467772,142.156579 51.1067214,157.676187 C51.1067214,157.676187 53.5100827,146.031089 60.6310909,139.123526 L53.7910351,141.897475 C53.7910351,141.897475 56.2476176,129.9577 80.9893537,116.176748 C80.9893537,116.176748 78.6921549,102.878709 92.3915943,97.1364121 L81.0106422,90.1534991 L111.871986,99.3946754 C111.871986,99.3946754 115.103639,97.426048 113.353499,90.8420145 C108.034731,70.836973 129.249016,71.274508 129.249016,71.274508 C116.977868,75.7649841 121.149297,91.8652638 132.442574,86.3784292 L132.442574,86.3784292 Z" id="path18"></path>
                        <path d="M140.520445,82.2263285 C137.249296,82.4417346 136.818484,80.2285694 132.584871,80.4053201 C128.859381,80.5616226 129.635291,84.9072808 127.13333,83.2142836 C124.596075,81.4957963 126.386271,74.8442558 134.128288,71.5137237 C134.126607,71.5154044 139.196635,69.2736677 135.275907,63.1383738 C131.356299,57.0056008 117.448176,54.7971975 110.262182,55.4621835 C98.7232468,56.5308109 93.8221265,63.2529396 93.8221265,63.2529396 C99.9081208,60.0873935 104.364983,61.7450965 104.364983,61.7450965 C100.224367,64.5070012 93.4669444,74.9789897 101.142575,87.4302499 C101.142575,87.4302499 89.8854319,82.4215666 92.1224067,72.0722671 C92.1224067,72.0722671 88.1787093,72.2392139 83.3812304,76.1117628 C83.3812304,76.1117628 79.3257683,47.8016795 107.75798,29.0260497 C96.101118,18.3369463 88.2882331,12.1938372 83.0596618,10.0563583 C48.3159652,23.0411759 35.2436966,54.2873936 35.2436966,54.2873936 C35.2436966,54.2873936 29.9571421,54.2215673 25.5155736,45.8341725 C0.954568604,77.8504182 8.06635834,112.377868 27.6405035,124.612322 C22.101484,130.151257 12.9696355,128.53193 12.9696355,128.53193 C21.0097194,144.612321 34.4013997,146.352377 34.4013997,146.352377 C35.6957974,141.555739 40.5605032,125.302238 59.6154047,121.313442 C59.6154047,121.313442 32.3487387,144.026887 44.8745087,171.514001 C76.7137236,130.680949 121.00784,119.120725 121.00784,119.120725 L148.461061,80.4086815 C145.157419,76.8033594 145.695795,81.8879531 140.520445,82.2263285 Z M144.456579,61.0128836 C144.456579,61.0128836 144.042293,60.6854327 142.812882,62.6649844 C141.617083,64.5918751 142.222966,68.4369731 142.222966,68.4369731 L143.680389,69.2649843 C143.680389,69.2649843 145.951817,69.3019591 144.456579,61.0128836 L144.456579,61.0128836 Z M105.199437,48.7661052 C123.580389,45.5582622 138.930809,57.318486 138.930809,57.318486 C138.930809,57.318486 140.417083,55.4098025 142.648176,54.7299706 C142.648176,54.7299706 141.980669,53.0551807 141.332489,50.5820716 C137.63305,48.1633041 131.577588,51.4420155 131.577588,51.4420155 C132.066383,47.7240884 135.404759,44.3512594 140.277307,44.9218476 C140.111481,43.3271698 140.066943,41.6742287 140.231929,40.0761895 C140.885151,33.7504193 143.035851,30.8302513 143.035851,30.8302513 C113.619325,25.0526324 101.125768,49.47815 105.199437,48.7661052 Z M58.7383739,191.510359 C58.7053207,191.505878 60.8296904,191.898034 60.8296904,191.898034 L61.4927155,189.88627 C60.7002786,188.048735 60.2193262,185.81232 60.2193262,183.78655 C60.2193262,176.415122 66.276749,170.417923 73.7215668,170.417923 C77.402239,170.417923 80.9212865,172.021004 83.4831912,174.778427 L86.7918746,174.882909 L87.5372527,171.672545 C86.8187653,169.956298 86.4232471,168.25938 86.4232471,166.627447 C86.4232471,158.71036 94.200838,153.193273 101.18207,153.193273 C104.8563,153.193273 108.372266,154.792713 110.933891,157.544534 L113.492154,157.679268 L114.486832,155.021005 C113.774787,153.282349 113.327168,151.206159 113.327168,149.347335 C113.327168,142.031089 119.13193,136.514002 126.830529,136.514002 C130.334731,136.514002 134.217364,138.667223 137.078708,142.111481 C137.012041,142.119604 139.650417,142.243414 139.650417,142.243414 L139.93473,139.966943 C139.231089,139.356859 123.904479,125.417644 123.227728,124.830249 C87.2075608,137.228008 59.5364131,165.08655 53.9397746,174.145934 C54.1703068,174.984029 58.4826316,190.583189 58.7383739,191.510359 Z M156.065262,81.3913145 L129.916243,120.95798 L147.596355,137.646775 L145.451817,148.996915 L133.628288,148.30896 C132.795235,145.855178 130.474507,144.091313 127.740893,144.091313 C124.30756,144.091313 121.525487,146.873386 121.525487,150.306719 C121.525487,152.077587 122.265823,153.674786 123.452378,154.805598 L123.494675,154.795514 L118.850977,166.728567 L106.722967,165.589071 C105.889633,163.136691 103.570586,161.373105 100.837252,161.373105 C97.403639,161.373105 94.6215663,164.156859 94.6215663,167.586831 C94.6215663,169.357419 95.3605018,170.954618 96.548457,172.087391 L96.5100816,172.063861 L91.8647036,183.909239 L79.7854322,182.867502 L79.764984,182.857418 C78.9338916,180.405038 76.6126031,178.641452 73.87955,178.641452 C70.4473372,178.641452 67.6661048,181.425206 67.6661048,184.855177 C67.6661048,186.625766 68.4039199,188.222964 69.5915949,189.355738 L65.5697463,199.716242 L53.8182059,197.917642 L48.7672257,180.5112 L43.120167,187.304477 C43.120167,187.304477 33.459663,174.648175 33.459663,155.851817 C3.39669459,143.705038 0.730806704,118.368064 0.730806704,118.368064 C7.07851523,120.759661 10.9411202,119.692714 10.9411202,119.692714 C-3.040196,103.962462 -8.69112023,70.0190459 25.8235848,29.0210077 C25.8235848,29.0210077 28.8252094,36.7288506 32.6971981,40.5761895 C37.6235285,31.9042009 51.5358531,9.45378128 83.9240875,0 C84.9235273,0.552126037 100.572266,8.79408942 116.830529,25.0526324 C144.754338,16.3493553 151.764142,29.7246491 151.764142,29.7246491 C151.764142,29.7246491 144.498316,37.4834725 148.105318,51.9789903 C149.047615,55.7666653 153.592993,64.1417351 150.530528,73.8008385 C153.396075,75.3089617 155.673946,76.7901942 156.065262,81.3913145 L156.065262,81.3913145 Z" id="path20"></path>
                    </g>
                </g>
            </g>
        </g>
    </g>
</svg>