<?xml version="1.0" encoding="UTF-8"?>
<svg width="200px" height="200px" viewBox="0 0 200 200" version="1.1" xmlns="http://www.w3.org/2000/svg" xmlns:xlink="http://www.w3.org/1999/xlink">
    <!-- Generator: Sketch 54.1 (76490) - https://sketchapp.com -->
    <title>robert-morris</title>
    <desc>Created with Sketch.</desc>
    <defs>
        <polygon id="path-1" points="0 1.61067059 197.718605 1.61067059 197.718605 155.676471 0 155.676471"></polygon>
    </defs>
    <g id="robert-morris" stroke="none" stroke-width="1" fill="none" fill-rule="evenodd">
        <g id="robert-morris_BGD">
            <g id="Group-24" transform="translate(0.000000, 22.000000)">
                <g id="Group-3" transform="translate(0.000000, 0.712394)">
                    <mask id="mask-2" fill="white">
                        <use xlink:href="#path-1"></use>
                    </mask>
                    <g id="Clip-2"></g>
                    <path d="M55.5618605,155.630465 L54.4083721,155.630465 L54.4083721,149.798406 C53.7013953,150.0842 53.0153488,150.353729 52.3548837,150.600024 C46.5734884,152.7702 42.7176744,153.806494 42.7176744,153.806494 C42.7176744,153.806494 30.0176744,155.142524 15.5781395,148.550671 C9.61767442,145.829818 6.14790698,141.154876 4.15953488,137.6812 C3.14325581,135.9037 -0.000930232558,124.434759 -0.000930232558,124.434759 C-0.000930232558,124.434759 5.19674419,124.701965 12.4106977,124.434759 C12.7874419,124.420818 17.3409302,123.526259 17.8804651,123.321788 C19.0827907,122.476024 25.0153488,117.517612 30.5944186,113.755818 C36.8804651,109.5177 43.9572093,105.846524 48.3013953,103.613612 C48.7176744,103.399847 49.1386047,103.195376 49.5688372,103.0002 C45.8944186,101.359788 42.2386047,99.5683471 39.2409302,97.7745824 C32.82,93.9291412 28.0409302,89.3448176 24.8851163,85.7642588 C21.5711628,82.0047882 17.5804651,75.2642294 17.5804651,75.2642294 C17.5804651,75.2642294 43.3688372,48.3043176 83.7037209,28.8470824 C137.387442,2.9467 172.887442,1.61067059 172.887442,1.61067059 C172.887442,1.61067059 195.113023,21.3699647 197.42,58.4837 C197.852558,65.4078176 197.910698,75.7591412 196.964186,82.8877294 C196.036279,89.8606412 193.957209,99.0687882 193.957209,99.0687882 C193.957209,99.0687882 187.057209,104.919435 182.124651,107.881935 C176.417674,111.306818 167.675814,114.434288 166.575814,114.926876 L159.238605,126.807082 C159.238605,126.807082 157.96186,128.187259 156.773488,129.311847 C155.915349,130.125082 154.638605,131.2822 153.238605,132.278994 L159.96186,155.676935 L55.5339535,155.676935 L55.5618605,155.630465 Z" id="Fill-1" fill="#FFFFFF" mask="url(#mask-2)"></path>
                </g>
                <path d="M159.611163,10.3327353 C157.878605,14.6057059 157.30186,14.6057059 157.590233,19.6779706 C157.93907,25.8190588 167.404186,26.0862647 171.155349,21.8132941 C173.492558,19.1575 174.329767,15.6745294 174.329767,15.6745294 C174.329767,15.6745294 187.608837,31.6929412 191.36,61.0646765 C193.029767,74.1438235 187.897209,96.0454118 187.897209,96.0454118 C187.897209,96.0454118 183.278605,100.850471 178.66,103.253 C174.68093,105.323265 161.632093,110.730118 161.632093,110.730118 L153.983256,123.679147 C153.983256,123.679147 150.834419,126.874 148.353023,128.351765 C147.450698,128.890824 146.271628,129.420588 145.171628,129.864382 L150.950698,149.9815 L67.2506977,149.9815 L83.1227907,123.2795 L86.1925581,124.499353 L88.032093,119.006529 L83.1227907,117.672824 C83.1227907,117.672824 76.4855814,126.750853 66.3832558,135.828882 C56.2809302,144.906912 40.6948837,148.111059 40.6948837,148.111059 C40.6948837,148.111059 30.015814,148.912676 18.7623256,143.573206 C10.3762791,139.595324 8.08093023,130.222206 8.08093023,130.222206 C8.08093023,130.222206 13.2762791,130.756618 16.4506977,130.756618 C19.6274419,130.756618 22.2251163,129.153382 22.2251163,129.153382 C22.2251163,129.153382 43.8693023,113.934265 51.6646512,109.9285 C59.4576744,105.925059 71.5786047,105.390647 71.5786047,105.390647 C71.5786047,105.390647 54.8390698,100.048853 45.0274419,94.1749706 C33.7227907,87.4088529 25.9762791,76.8182059 25.9762791,76.8182059 C25.9762791,76.8182059 58.7553488,50.0325588 82.8344186,37.3019412 C109.099535,23.4165294 131.469302,15.8069706 159.611163,10.3327353" id="Fill-4" fill="#00214D"></path>
                <path d="M34.9246512,76.8186706 C36.9688372,75.0132882 41.792093,71.3839353 44.9037209,68.9419059 C54.2548837,61.6042 68.4246512,51.8616412 87.5409302,42.4211412 C119.857209,26.4608176 131.868837,22.0112588 150.601395,18.0357 C150.596744,18.8257 150.94093,21.7672882 151.24093,22.6153765 C155.859535,35.6991706 173.175814,27.9571706 174.04093,26.0867294 C173.175814,30.3597 169.431628,35.2832588 161.34093,35.6991706 C150.952558,36.2335824 147.775814,31.6934059 147.775814,31.6934059 C147.775814,31.6934059 111.410698,40.2393471 90.6293023,49.8517882 C69.847907,59.4642294 38.3874419,80.0228176 38.3874419,80.0228176 L34.9246512,76.8186706 Z" id="Fill-6" fill="#AF1C2E"></path>
                <path d="M56.2818605,123.279035 C48.7772093,128.086418 43.9586047,134.717771 39.3981395,137.429329 C35.3562791,139.834182 30.8818605,141.7023 24.2446512,139.299771 C23.5586047,139.051153 20.684186,137.192329 20.1330233,136.774094 C21.3330233,136.523153 22.3655814,136.186241 23.1772093,135.874888 C24.9655814,135.189447 26.2423256,134.369241 26.2423256,134.369241 C26.4911628,134.194976 47.7911628,119.250035 55.0283721,115.532388 C61.2027907,112.356124 77.3539535,110.195241 77.3539535,110.195241 C77.3539535,110.195241 63.7888372,118.473976 56.2818605,123.279035" id="Fill-8" fill="#AF1C2E"></path>
                <path d="M92.575814,127.035485 C93.4316279,124.105515 94.5548837,120.387868 95.5339535,117.539221 C97.9548837,110.505897 102.606047,99.7828088 102.606047,99.7828088 C102.606047,99.7828088 98.8548837,101.650926 96.4037209,98.84875 C92.1944186,94.0413676 93.0106977,83.9456324 95.392093,81.3595441 C98.7106977,77.7534265 104.050233,78.9570147 104.050233,78.9570147 L106.503721,83.2276618 C106.503721,83.2276618 111.84093,83.3833382 117.326977,77.8881912 C122.522326,72.6788382 122.954884,69.2098088 122.954884,69.2098088 C122.954884,69.2098088 131.047907,66.6074559 143.013023,68.27575 C153.550233,69.7442206 160.187442,75.3508971 160.187442,75.3508971 L162.208372,83.3601029 C162.208372,83.3601029 155.131628,80.0606912 146.766512,78.9570147 C132.624651,77.0865735 127.86186,78.1553971 127.86186,78.1553971 L119.780465,85.0957794 C119.780465,85.0957794 121.222326,84.8285735 123.822326,84.5636912 C126.42,84.2941618 129.306047,85.0957794 129.306047,85.0957794 L124.975814,87.4983088 C124.975814,87.4983088 126.408372,88.9133382 131.036279,89.36875 C134.17814,89.6777794 138.303721,89.7567794 142.436279,88.1674853 L143.592093,86.1646029 C143.592093,86.1646029 145.036279,85.3629853 146.766512,85.6301912 C148.49907,85.8973971 148.931628,86.6990147 148.931628,86.6990147 L150.085116,100.182456 C150.085116,100.182456 147.487442,99.1136324 145.901395,99.1136324 C144.601395,99.1136324 137.82,100.849309 137.82,100.849309 C137.82,100.849309 136.847907,99.8896912 136.664186,99.1136324 C136.333953,97.7264853 138.252558,95.7770441 138.252558,95.7770441 C138.252558,95.7770441 133.201395,96.04425 132.768837,98.9811912 C132.133953,103.286691 138.108372,103.521368 138.108372,103.521368 L146.622326,107.924456 L138.973488,106.59075 C138.973488,106.59075 136.136279,106.860279 134.49907,107.527132 C132.79907,108.217221 130.606047,110.062103 130.606047,110.062103 C130.606047,110.062103 132.768837,109.794897 134.357209,109.660132 C136.696744,109.464956 138.685116,109.929662 140.994419,110.46175 C143.301395,110.996162 146.910698,111.398132 146.910698,111.398132 C146.910698,111.398132 145.036279,114.202632 141.571163,113.665897 C138.108372,113.133809 133.922326,112.599397 133.922326,112.599397 C133.922326,112.599397 133.633953,113.800662 135.654884,115.401574 C137.675814,117.004809 136.231628,115.935985 139.696744,117.004809 C143.159535,118.073632 147.057209,121.143015 147.057209,121.143015 C147.057209,121.143015 140.622326,119.509574 133.489767,121.809868 C127.285116,123.81275 122.064186,124.516779 116.029302,120.743368 C110.687442,117.404456 105.636279,109.128044 105.636279,109.128044 C105.636279,109.128044 103.473488,114.599956 102.46186,121.143015 C102.14093,123.215603 101.403721,127.862662 101.003721,130.383691 L92.575814,127.035485 Z" id="Fill-10" fill="#FFFFFF"></path>
                <path d="M89.762093,99.2486294 C89.762093,99.2486294 81.3923256,98.9814235 80.8155814,104.323218 C80.2388372,109.660365 85.145814,113.134041 85.145814,113.134041 C85.145814,113.134041 84.5690698,109.395482 85.7225581,105.389718 C86.8783721,101.383953 89.762093,99.2486294 89.762093,99.2486294" id="Fill-12" fill="#AF1C2E"></path>
                <path d="M116.115581,92.4072294 C116.115581,92.4072294 114.906279,95.8739353 114.585349,98.1788765 C114.26907,100.439671 114.459767,104.0272 114.459767,104.0272 C114.459767,104.0272 116.008605,105.061171 117.906279,106.190406 C119.799302,107.319641 123.676047,107.926082 123.676047,107.926082 C123.676047,107.926082 121.420233,104.986818 119.06907,100.411788 C116.715581,95.8367588 116.115581,92.4072294 116.115581,92.4072294" id="Fill-14" fill="#00214D"></path>
                <path d="M155.282558,91.2387265 L156.724419,102.719285 C156.724419,102.719285 160.887209,99.2897559 160.763953,96.0437853 C160.622093,92.1727853 155.282558,91.2387265 155.282558,91.2387265" id="Fill-16" fill="#FFFFFF"></path>
                <polygon id="Fill-18" fill="#AF1C2E" points="116.633256 143.572509 78.965814 143.572509 86.1634884 131.462274"></polygon>
                <polygon id="Fill-20" fill="#00214D" points="58.7504651 146.134432 59.817907 146.134432 59.817907 145.042374 56.3923256 145.042374 56.3923256 146.134432 57.4597674 146.134432 57.4597674 150.003109 58.7504651 150.003109"></polygon>
                <polygon id="Fill-22" fill="#00214D" points="60.0972093 150.003109 61.3809302 150.003109 61.7948837 147.147491 61.8088372 147.147491 62.9483721 150.003109 63.46 150.003109 64.6530233 147.147491 64.6669767 147.147491 65.0274419 150.003109 66.3204651 150.003109 65.5693023 145.042374 64.2855814 145.042374 63.2181395 147.693521 62.2111628 145.042374 60.9390698 145.042374"></polygon>
            </g>
        </g>
    </g>
</svg>