<?xml version="1.0" encoding="UTF-8"?>
<svg version="1.1" xmlns="http://www.w3.org/2000/svg" width="200" height="200">
<path d="M0 0 C0.64624427 -0.00085442 1.29248854 -0.00170885 1.95831597 -0.00258917 C4.10937527 -0.00422756 6.26035543 0.00125035 8.41140747 0.00672913 C9.95907082 0.00701138 11.50673431 0.00685252 13.05439758 0.00628662 C17.24606914 0.00600013 21.43771199 0.01187291 25.62937689 0.01886058 C30.01359759 0.02511879 34.39781898 0.02569987 38.78204346 0.02688599 C47.07981111 0.02999202 55.37756557 0.03819561 63.67532742 0.04823548 C73.12389441 0.05941919 82.57246204 0.06491276 92.021034 0.06993091 C111.45341206 0.08037883 130.88577785 0.09796419 150.31814575 0.12025452 C150.1668856 1.7185764 150.01318587 3.31666754 149.85845947 4.91465759 C149.77313021 5.80461866 149.68780094 6.69457973 149.59988594 7.61150932 C149.26589003 10.58556367 148.67162243 13.41572791 147.93533325 16.31556702 C147.65882935 17.42681946 147.38232544 18.5380719 147.09744263 19.68299866 C146.79902466 20.85854309 146.50060669 22.03408752 146.19314575 23.24525452 C145.55209585 25.82919661 144.91319109 28.41352045 144.27908325 30.99916077 C144.11587585 31.66372787 143.95266846 32.32829498 143.78451538 33.01300049 C142.15268397 39.70808966 140.69297315 46.4373702 139.24932861 53.1750946 C136.8545261 64.32569784 134.39657953 75.46273782 131.75564575 86.55775452 C131.49912231 87.69414368 131.24259888 88.83053284 130.978302 90.00135803 C129.18166787 97.37856458 126.77789961 105.10842624 120.18704224 109.5594635 C114.19383455 112.74796447 108.6593021 113.28683122 101.931427 113.32337952 C101.11498215 113.32907959 100.29853729 113.33477966 99.45735168 113.34065247 C97.73005461 113.35008635 96.00273967 113.35663004 94.27542114 113.36048889 C91.65717338 113.37015657 89.03972383 113.4011789 86.42166138 113.43275452 C84.73742121 113.43928922 83.05317547 113.44453786 81.368927 113.44837952 C80.59672318 113.46072632 79.82451935 113.47307312 79.02891541 113.48579407 C71.90417827 113.45717777 65.09098679 112.19017934 59.81814575 107.12025452 C54.92804188 101.25212987 55.87594801 94.43125722 56.31814575 87.12025452 C57.09404161 82.71749662 58.11677137 78.42517937 59.31814575 74.12025452 C57.99814575 74.12025452 56.67814575 74.12025452 55.31814575 74.12025452 C55.22533325 75.12185608 55.13252075 76.12345764 55.03689575 77.15541077 C54.26057859 83.35638079 52.7424029 89.4118345 51.30691528 95.48622131 C50.81388953 97.5757935 50.3293025 99.66720409 49.8454895 101.75892639 C49.53478775 103.08651657 49.22360754 104.41399488 48.91189575 105.74134827 C48.6302356 106.94202942 48.34857544 108.14271057 48.05838013 109.379776 C47.31814575 112.12025452 47.31814575 112.12025452 46.31814575 113.12025452 C44.13219191 113.23043386 41.94263273 113.26940005 39.75393677 113.28138733 C39.06759659 113.28635223 38.38125641 113.29131714 37.67411804 113.2964325 C35.39008596 113.3111031 33.10612359 113.31786818 30.822052 113.32337952 C29.23317971 113.32913195 27.64430744 113.33488968 26.05543518 113.34065247 C22.71372148 113.35117975 19.37203192 113.35700944 16.03030396 113.36048889 C11.77024414 113.36594287 7.51050896 113.38989634 3.25055027 113.41846085 C-0.03794747 113.43719845 -3.32636926 113.44229895 -6.61491585 113.44382477 C-8.18363256 113.44683256 -9.75234854 113.45479703 -11.3210125 113.46800995 C-31.23167396 113.62358793 -31.23167396 113.62358793 -38.61935425 107.80775452 C-42.85941987 102.28282052 -44.2947347 98.04383534 -43.68185425 91.12025452 C-42.89130066 86.70347383 -41.86137825 82.35558865 -40.80685425 77.99525452 C-40.53744019 76.84154358 -40.26802612 75.68783264 -39.990448 74.49916077 C-38.75644994 69.28025189 -37.43206282 64.19350061 -35.68185425 59.12025452 C-30.23685425 58.62525452 -30.23685425 58.62525452 -24.68185425 58.12025452 C-25.46560425 57.25400452 -26.24935425 56.38775452 -27.05685425 55.49525452 C-31.4570607 50.16016001 -32.10804049 44.89791643 -31.68185425 38.12025452 C-31.23864407 35.44653734 -30.58248089 32.85855582 -29.86935425 30.24525452 C-29.68630737 29.55125549 -29.5032605 28.85725647 -29.31466675 28.14222717 C-28.94783978 26.76309886 -28.5760835 25.38527039 -28.19894409 24.00892639 C-27.7494625 22.3671938 -27.31760005 20.7206571 -26.8888855 19.07337952 C-25.51984814 14.08130961 -23.97311729 10.15470598 -20.68185425 6.12025452 C-20.02185425 6.12025452 -19.36185425 6.12025452 -18.68185425 6.12025452 C-18.68185425 5.46025452 -18.68185425 4.80025452 -18.68185425 4.12025452 C-12.41148389 0.68648027 -7.08287072 -0.0056663 0 0 Z " fill="#B82329" transform="translate(46.681854248046875,43.87974548339844)"/>
<path d="M0 0 C0.64624427 -0.00085442 1.29248854 -0.00170885 1.95831597 -0.00258917 C4.10937527 -0.00422756 6.26035543 0.00125035 8.41140747 0.00672913 C9.95907082 0.00701138 11.50673431 0.00685252 13.05439758 0.00628662 C17.24606914 0.00600013 21.43771199 0.01187291 25.62937689 0.01886058 C30.01359759 0.02511879 34.39781898 0.02569987 38.78204346 0.02688599 C47.07981111 0.02999202 55.37756557 0.03819561 63.67532742 0.04823548 C73.12389441 0.05941919 82.57246204 0.06491276 92.021034 0.06993091 C111.45341206 0.08037883 130.88577785 0.09796419 150.31814575 0.12025452 C150.1668856 1.7185764 150.01318587 3.31666754 149.85845947 4.91465759 C149.77313021 5.80461866 149.68780094 6.69457973 149.59988594 7.61150932 C149.26589003 10.58556367 148.67162243 13.41572791 147.93533325 16.31556702 C147.65882935 17.42681946 147.38232544 18.5380719 147.09744263 19.68299866 C146.79902466 20.85854309 146.50060669 22.03408752 146.19314575 23.24525452 C145.55209585 25.82919661 144.91319109 28.41352045 144.27908325 30.99916077 C144.11587585 31.66372787 143.95266846 32.32829498 143.78451538 33.01300049 C142.15268397 39.70808966 140.69297315 46.4373702 139.24932861 53.1750946 C136.8545261 64.32569784 134.39657953 75.46273782 131.75564575 86.55775452 C131.49912231 87.69414368 131.24259888 88.83053284 130.978302 90.00135803 C129.18166787 97.37856458 126.77789961 105.10842624 120.18704224 109.5594635 C114.19383455 112.74796447 108.6593021 113.28683122 101.931427 113.32337952 C101.11498215 113.32907959 100.29853729 113.33477966 99.45735168 113.34065247 C97.73005461 113.35008635 96.00273967 113.35663004 94.27542114 113.36048889 C91.65717338 113.37015657 89.03972383 113.4011789 86.42166138 113.43275452 C84.73742121 113.43928922 83.05317547 113.44453786 81.368927 113.44837952 C80.59672318 113.46072632 79.82451935 113.47307312 79.02891541 113.48579407 C71.90417827 113.45717777 65.09098679 112.19017934 59.81814575 107.12025452 C54.92804188 101.25212987 55.87594801 94.43125722 56.31814575 87.12025452 C57.09404161 82.71749662 58.11677137 78.42517937 59.31814575 74.12025452 C57.99814575 74.12025452 56.67814575 74.12025452 55.31814575 74.12025452 C55.22533325 75.12185608 55.13252075 76.12345764 55.03689575 77.15541077 C54.26057859 83.35638079 52.7424029 89.4118345 51.30691528 95.48622131 C50.81388953 97.5757935 50.3293025 99.66720409 49.8454895 101.75892639 C49.53478775 103.08651657 49.22360754 104.41399488 48.91189575 105.74134827 C48.6302356 106.94202942 48.34857544 108.14271057 48.05838013 109.379776 C47.31814575 112.12025452 47.31814575 112.12025452 46.31814575 113.12025452 C44.13219191 113.23043386 41.94263273 113.26940005 39.75393677 113.28138733 C39.06759659 113.28635223 38.38125641 113.29131714 37.67411804 113.2964325 C35.39008596 113.3111031 33.10612359 113.31786818 30.822052 113.32337952 C29.23317971 113.32913195 27.64430744 113.33488968 26.05543518 113.34065247 C22.71372148 113.35117975 19.37203192 113.35700944 16.03030396 113.36048889 C11.77024414 113.36594287 7.51050896 113.38989634 3.25055027 113.41846085 C-0.03794747 113.43719845 -3.32636926 113.44229895 -6.61491585 113.44382477 C-8.18363256 113.44683256 -9.75234854 113.45479703 -11.3210125 113.46800995 C-31.23167396 113.62358793 -31.23167396 113.62358793 -38.61935425 107.80775452 C-42.85941987 102.28282052 -44.2947347 98.04383534 -43.68185425 91.12025452 C-42.89130066 86.70347383 -41.86137825 82.35558865 -40.80685425 77.99525452 C-40.53744019 76.84154358 -40.26802612 75.68783264 -39.990448 74.49916077 C-38.75644994 69.28025189 -37.43206282 64.19350061 -35.68185425 59.12025452 C-30.23685425 58.62525452 -30.23685425 58.62525452 -24.68185425 58.12025452 C-25.46560425 57.25400452 -26.24935425 56.38775452 -27.05685425 55.49525452 C-31.4570607 50.16016001 -32.10804049 44.89791643 -31.68185425 38.12025452 C-31.23864407 35.44653734 -30.58248089 32.85855582 -29.86935425 30.24525452 C-29.68630737 29.55125549 -29.5032605 28.85725647 -29.31466675 28.14222717 C-28.94783978 26.76309886 -28.5760835 25.38527039 -28.19894409 24.00892639 C-27.7494625 22.3671938 -27.31760005 20.7206571 -26.8888855 19.07337952 C-25.51984814 14.08130961 -23.97311729 10.15470598 -20.68185425 6.12025452 C-20.02185425 6.12025452 -19.36185425 6.12025452 -18.68185425 6.12025452 C-18.68185425 5.46025452 -18.68185425 4.80025452 -18.68185425 4.12025452 C-12.41148389 0.68648027 -7.08287072 -0.0056663 0 0 Z M37.31814575 6.12025452 C37.31814575 7.44025452 37.31814575 8.76025452 37.31814575 10.12025452 C36.69359497 9.63347229 36.06904419 9.14669006 35.42556763 8.64515686 C31.10441764 6.52464281 27.35130967 6.689721 22.59939575 6.72181702 C21.66389893 6.71894684 20.7284021 6.71607666 19.76455688 6.71311951 C17.79103997 6.71108237 15.8175027 6.71658771 13.84402466 6.72914124 C10.82842735 6.74519977 7.81417027 6.72928057 4.7986145 6.71009827 C2.87803864 6.71208076 0.9574636 6.71592456 -0.96310425 6.72181702 C-1.86218506 6.71574432 -2.76126587 6.70967163 -3.68759155 6.70341492 C-8.50650019 6.75738366 -11.78125573 6.97439831 -15.68185425 10.12025452 C-19.81527387 15.03811874 -21.04742499 20.24916163 -22.43185425 26.37025452 C-22.65228394 27.2609967 -22.87271362 28.15173889 -23.099823 29.06947327 C-25.63650117 39.36598865 -25.63650117 39.36598865 -23.48458862 49.3497467 C-22.00225343 51.40783871 -20.39315888 53.24863159 -18.68185425 55.12025452 C-18.05923706 55.87048889 -17.43661987 56.62072327 -16.7951355 57.39369202 C-14.33713254 60.34843111 -14.33713254 60.34843111 -11.68185425 63.12025452 C-11.02185425 63.12025452 -10.36185425 63.12025452 -9.68185425 63.12025452 C-9.68185425 63.78025452 -9.68185425 64.44025452 -9.68185425 65.12025452 C-16.61185425 65.12025452 -23.54185425 65.12025452 -30.68185425 65.12025452 C-31.86541712 69.49943713 -33.04366865 73.8781599 -34.19454956 78.26576233 C-34.58928602 79.76797582 -34.99010923 81.26858901 -35.39279175 82.76869202 C-36.81627247 88.48324507 -38.58135767 95.63194713 -35.631073 101.04994202 C-33.87762952 103.21200507 -32.18270528 104.869829 -29.68185425 106.12025452 C-27.40459251 106.21233909 -25.12454778 106.2377505 -22.84542847 106.23377991 C-21.79160477 106.23399895 -21.79160477 106.23399895 -20.7164917 106.23422241 C-18.38981052 106.23352466 -16.06320898 106.2257387 -13.73654175 106.21791077 C-12.12514286 106.2160461 -10.51374341 106.21462243 -8.90234375 106.21362305 C-4.65756673 106.20980172 -0.41282383 106.1999747 3.8319397 106.18891907 C8.16197244 106.1786967 12.49201068 106.17412365 16.822052 106.16908264 C25.32076559 106.1583521 33.81945143 106.14128027 42.31814575 106.12025452 C42.58731812 104.90426575 42.85649048 103.68827698 43.13381958 102.43544006 C43.49341538 100.81344596 43.85303583 99.19145731 44.212677 97.56947327 C44.38931885 96.77118103 44.56596069 95.97288879 44.74795532 95.15040588 C46.0178856 89.42622074 47.33852229 83.71678372 48.7048645 78.01478577 C49.39751988 74.74562886 49.84555379 71.42839828 50.31814575 68.12025452 C55.92814575 68.12025452 61.53814575 68.12025452 67.31814575 68.12025452 C66.95720825 69.53177795 66.59627075 70.94330139 66.22439575 72.39759827 C65.75509668 74.28418052 65.28637751 76.17090709 64.81814575 78.05775452 C64.57966919 78.98394592 64.34119263 79.91013733 64.0954895 80.86439514 C61.47321352 91.41208493 61.47321352 91.41208493 64.13064575 101.55775452 C66.26240149 104.05495409 67.86561508 105.92250256 71.23301697 106.38095093 C72.3150666 106.38786201 72.3150666 106.38786201 73.41897583 106.39491272 C74.24025467 106.40444473 75.06153351 106.41397675 75.90769958 106.42379761 C76.79209213 106.4228862 77.67648468 106.42197479 78.587677 106.42103577 C79.95831551 106.42746346 79.95831551 106.42746346 81.35664368 106.434021 C83.29082409 106.43976506 85.22502612 106.440264 87.15921021 106.43592834 C90.10905195 106.43277758 93.05788183 106.45619442 96.00759888 106.48158264 C97.88845699 106.48385664 99.76931779 106.48455866 101.650177 106.48353577 C102.96765678 106.49735039 102.96765678 106.49735039 104.31175232 106.51144409 C110.51058297 106.46496573 114.84555226 105.45155696 119.50564575 101.05775452 C124.47914835 92.99725031 125.70596892 82.50764262 127.78689575 73.38197327 C128.11143381 71.97002585 128.43626886 70.55814666 128.76138306 69.14633179 C129.61141443 65.45149745 130.45750169 61.75577129 131.30270386 58.05982971 C132.15575126 54.33268429 133.01247292 50.60638394 133.868927 46.88002014 C135.41269093 40.16131256 136.95523021 33.44233089 138.48831177 26.72117615 C139.04896142 24.28833354 139.62003736 21.85787366 140.20071411 19.42973328 C140.47600952 18.27291046 140.75130493 17.11608765 141.03494263 15.92420959 C141.4056488 14.38885307 141.4056488 14.38885307 141.78384399 12.82247925 C142.44745991 9.9253399 142.44745991 9.9253399 142.31814575 6.12025452 C133.40814575 6.12025452 124.49814575 6.12025452 115.31814575 6.12025452 C112.02216904 17.12728371 109.36868147 28.21658228 106.85379028 39.42591858 C106.19103682 42.37965352 105.52266618 45.33207385 104.853302 48.28431702 C104.42198805 50.19309792 103.99098753 52.10194967 103.56033325 54.01087952 C103.36446625 54.87779419 103.16859924 55.74470886 102.96679688 56.63789368 C101.66430775 62.44908525 100.46231367 68.27587631 99.31814575 74.12025452 C97.99814575 74.45025452 96.67814575 74.78025452 95.31814575 75.12025452 C95.91925834 68.69561155 96.99230357 62.59673672 98.49783325 56.32728577 C98.71126373 55.41879379 98.92469421 54.51030182 99.14459229 53.57427979 C99.82249638 50.69257724 100.50747548 47.81261804 101.19314575 44.93275452 C102.08852233 41.14810365 102.98125411 37.36283292 103.87283325 33.57728577 C104.08663635 32.6696347 104.30043945 31.76198364 104.52072144 30.826828 C107.85699126 18.586389 107.85699126 18.586389 109.31814575 6.12025452 C85.55814575 6.12025452 61.79814575 6.12025452 37.31814575 6.12025452 Z " fill="#060101" transform="translate(46.681854248046875,43.87974548339844)"/>
<path d="M0 0 C0.79148437 -0.0033284 1.58296875 -0.0066568 2.3984375 -0.01008606 C4.07291075 -0.01515165 5.7473941 -0.0174945 7.421875 -0.01733398 C9.98975135 -0.01952252 12.55719959 -0.03768734 15.125 -0.05664062 C16.74999853 -0.05957416 18.3749991 -0.06155922 20 -0.0625 C21.15628906 -0.07327827 21.15628906 -0.07327827 22.3359375 -0.08427429 C27.7711728 -0.06085845 27.7711728 -0.06085845 30 2.16796875 C29.67 3.15796875 29.34 4.14796875 29 5.16796875 C28.85028669 6.49875374 28.72808579 7.83276236 28.625 9.16796875 C28.07082302 14.68248391 26.57483527 19.86899473 25 25.16796875 C24.07767578 25.24144531 24.07767578 25.24144531 23.13671875 25.31640625 C22.32847656 25.39117187 21.52023438 25.4659375 20.6875 25.54296875 C19.88699219 25.61257812 19.08648437 25.6821875 18.26171875 25.75390625 C15.72775559 26.06361301 15.72775559 26.06361301 13 28.16796875 C13.41588046 21.97278402 14.60251894 16.90107564 17 11.16796875 C17.66 11.16796875 18.32 11.16796875 19 11.16796875 C19 10.50796875 19 9.84796875 19 9.16796875 C11.74 9.16796875 4.48 9.16796875 -3 9.16796875 C-3.804375 12.32359375 -4.60875 15.47921875 -5.4375 18.73046875 C-5.71005615 19.71088135 -5.9826123 20.69129395 -6.26342773 21.70141602 C-6.85641211 24.32058524 -7.20817817 26.48316969 -7 29.16796875 C-5.10942174 32.09089772 -2.71641862 34.03066669 0 36.16796875 C1.18519877 37.48485628 2.35663631 38.81459949 3.5 40.16796875 C6.40125562 43.54947756 9.47747645 46.66316627 12.71484375 49.72265625 C14 51.16796875 14 51.16796875 14 53.16796875 C14.66 53.16796875 15.32 53.16796875 16 53.16796875 C18.6732735 58.51451576 15.46693547 67.28187036 14.25 72.98046875 C14.03307495 74.09240601 14.03307495 74.09240601 13.81176758 75.22680664 C13.65216553 75.93571045 13.49256348 76.64461426 13.328125 77.375 C13.1930957 78.00897705 13.05806641 78.6429541 12.91894531 79.29614258 C11.47915394 82.22889509 9.7662969 83.45208779 7 85.16796875 C4.27495692 85.57831263 1.93740791 85.77260139 -0.78515625 85.77734375 C-1.52326035 85.79388 -2.26136444 85.81041626 -3.02183533 85.82745361 C-5.36880815 85.87579778 -7.71513726 85.89724893 -10.0625 85.91796875 C-11.64391272 85.94614753 -13.22529527 85.97607763 -14.80664062 86.0078125 C-20.20457121 86.1096259 -25.60097575 86.16796875 -31 86.16796875 C-31.20956527 79.62560305 -30.54580496 73.95058034 -29 67.60546875 C-28.80921875 66.78755859 -28.6184375 65.96964844 -28.421875 65.12695312 C-27.95674873 63.13853831 -27.47964573 61.15293119 -27 59.16796875 C-22.05 59.16796875 -17.1 59.16796875 -12 59.16796875 C-12.99 60.15796875 -13.98 61.14796875 -15 62.16796875 C-16.0156449 65.24548286 -16.0156449 65.24548286 -16.6875 68.66796875 C-16.93886719 69.81265625 -17.19023437 70.95734375 -17.44921875 72.13671875 C-18.08938693 75.14643344 -18.08938693 75.14643344 -18 78.16796875 C-17.01 77.67296875 -17.01 77.67296875 -16 77.16796875 C-13.12089412 76.93522666 -10.25853505 76.74824118 -7.375 76.60546875 C-6.57320312 76.56228516 -5.77140625 76.51910156 -4.9453125 76.47460938 C-2.9637489 76.36845418 -0.98189729 76.2677002 1 76.16796875 C1.53364887 74.10874742 2.05142189 72.04540768 2.5625 69.98046875 C2.85253906 68.83191406 3.14257812 67.68335937 3.44140625 66.5 C4.00403258 63.14391424 3.9334077 61.39139073 3 58.16796875 C1.64964919 56.20032382 1.64964919 56.20032382 -0.1328125 54.4609375 C-0.77476563 53.79126953 -1.41671875 53.12160156 -2.078125 52.43164062 C-3.09132813 51.40393555 -3.09132813 51.40393555 -4.125 50.35546875 C-6.10144699 48.3145724 -8.07338368 46.27021116 -10.03222656 44.21240234 C-11.34702857 42.84637852 -12.6881272 41.50520049 -14.05371094 40.18994141 C-17.32232929 36.86615997 -19.43725006 34.53233802 -19.54296875 29.7421875 C-19.41265936 28.21228309 -19.23059096 26.685999 -19 25.16796875 C-18.89381348 24.40822754 -18.78762695 23.64848633 -18.67822266 22.86572266 C-18.29848099 20.54846334 -17.82245518 18.27233629 -17.3125 15.98046875 C-17.16361328 15.21283203 -17.01472656 14.44519531 -16.86132812 13.65429688 C-15.67784402 8.23811667 -13.904699 5.12186081 -10 1.16796875 C-6.84665706 -0.40870272 -3.46237759 0.00499834 0 0 Z " fill="#FAF6F7" transform="translate(47,55.83203125)"/>
<path d="M0 0 C13.2 0 26.4 0 40 0 C39.34 0.99 38.68 1.98 38 3 C37.34 3 36.68 3 36 3 C36 4.98 36 6.96 36 9 C27.42 9 18.84 9 10 9 C9.34 12.3 8.68 15.6 8 19 C7.32255522 22.3354647 6.63188166 25.66802414 5.9375 29 C5.67743164 30.26650391 5.67743164 30.26650391 5.41210938 31.55859375 C5.24388672 32.36425781 5.07566406 33.16992188 4.90234375 34 C4.67792603 35.0828125 4.67792603 35.0828125 4.44897461 36.1875 C4 38 4 38 3 40 C3.55719727 39.51104248 4.11439453 39.02208496 4.68847656 38.51831055 C7.40451194 36.73429871 8.77103038 36.64825056 11.984375 36.70703125 C12.91894531 36.71669922 13.85351562 36.72636719 14.81640625 36.73632812 C15.78449219 36.76146484 16.75257812 36.78660156 17.75 36.8125 C19.22533203 36.83280273 19.22533203 36.83280273 20.73046875 36.85351562 C23.15420415 36.88881274 25.57682145 36.93811946 28 37 C27.0409375 38.3921875 27.0409375 38.3921875 26.0625 39.8125 C23.91377907 42.84219943 23.91377907 42.84219943 23 46 C15.74 46 8.48 46 1 46 C0.67 48.97 0.34 51.94 0 55 C-0.49859742 57.48976724 -1.04077524 59.97125601 -1.62890625 62.44140625 C-1.8598423 63.42112648 -1.8598423 63.42112648 -2.09544373 64.42063904 C-2.57949527 66.46914274 -3.07083991 68.5158107 -3.5625 70.5625 C-3.89567078 71.96668106 -4.22835694 73.3709772 -4.56054688 74.77539062 C-5.3681166 78.18493825 -6.18222821 81.59288303 -7 85 C-7.61488281 85.06058594 -8.22976562 85.12117188 -8.86328125 85.18359375 C-9.67152344 85.26738281 -10.47976562 85.35117188 -11.3125 85.4375 C-12.11300781 85.51871094 -12.91351563 85.59992188 -13.73828125 85.68359375 C-16.16087179 85.95265693 -16.16087179 85.95265693 -19 87 C-18.56522207 78.98579206 -16.80192556 71.38396065 -14.8482666 63.62771606 C-14.11460653 60.71409602 -13.39644754 57.79672408 -12.67764282 54.87940979 C-12.31194648 53.39521875 -11.94555284 51.91119933 -11.57846069 50.42735291 C-9.9051661 43.65369422 -8.31133328 36.86283629 -6.75 30.0625 C-6.41802612 28.62197266 -6.41802612 28.62197266 -6.0793457 27.15234375 C-4.00623592 18.11164517 -2.01220219 9.05490984 0 0 Z " fill="#FBF7F8" transform="translate(88,56)"/>
<path d="M0 0 C4.95 0 9.9 0 15 0 C14.34 0.99 13.68 1.98 13 3 C12.34 3 11.68 3 11 3 C10.91145752 3.70133057 10.82291504 4.40266113 10.73168945 5.12524414 C9.25548537 15.73634963 6.72161784 26.03889438 4.1875 36.4375 C3.50891782 39.24780898 2.83232902 42.05859241 2.15600586 44.8694458 C1.71368321 46.70775331 1.27081913 48.54593063 0.82739258 50.38397217 C-1.54628241 60.2340005 -3.79961743 70.10985938 -6 80 C-3.03 79.01 -0.06 78.02 3 77 C2.67 79.64 2.34 82.28 2 85 C0.96359375 85.06058594 -0.0728125 85.12117188 -1.140625 85.18359375 C-2.51042873 85.26803371 -3.88021975 85.35267997 -5.25 85.4375 C-5.93191406 85.47681641 -6.61382812 85.51613281 -7.31640625 85.55664062 C-10.66567579 85.7680023 -13.7556273 86.17284558 -17 87 C-18.53245741 85.46754259 -18.15897936 84.07354205 -18.17016602 81.94384766 C-18.11542876 77.39206554 -17.39611321 73.29520212 -16.27734375 68.8984375 C-16.09640167 68.15112366 -15.91545959 67.40380981 -15.72903442 66.6338501 C-15.14090705 64.21192126 -14.53912309 61.79360778 -13.9375 59.375 C-13.31748031 56.83355147 -12.70127209 54.29119869 -12.08537292 51.74874878 C-11.66836632 50.02787687 -11.25024099 48.30727568 -10.83100891 46.58694458 C-8.8123209 38.2875379 -6.92158884 29.9613894 -5.0625 21.625 C-1.81127916 7.05261354 -1.81127916 7.05261354 0 0 Z " fill="#FBF7F7" transform="translate(133,56)"/>
<path d="M0 0 C4.95 0 9.9 0 15 0 C14.01 0.99 13.02 1.98 12 3 C11.2108214 4.96339277 11.2108214 4.96339277 10.76074219 7.17895508 C10.56308762 8.02386505 10.36543304 8.86877502 10.16178894 9.73928833 C9.95886734 10.65676849 9.75594574 11.57424866 9.546875 12.51953125 C9.21524101 13.95786819 9.21524101 13.95786819 8.87690735 15.42526245 C8.40373506 17.48400785 7.93558672 19.54391312 7.47195435 21.60482788 C6.74885781 24.81757481 6.01192794 28.0268624 5.27124023 31.2355957 C3.26233971 39.9580385 1.28319269 48.68685339 -0.64553833 57.42738342 C-1.11792738 59.56346537 -1.59560954 61.69828738 -2.07519531 63.83276367 C-2.63614856 66.34037714 -3.18437423 68.85088322 -3.71777344 71.36450195 C-3.96430664 72.4649585 -4.21083984 73.56541504 -4.46484375 74.69921875 C-4.667146 75.63596436 -4.86944824 76.57270996 -5.07788086 77.5378418 C-6.19355569 80.51681471 -7.56256683 81.98250979 -10 84 C-13.14930893 85.04976964 -15.38814456 85.10131595 -18.6875 85.0625 C-19.68136719 85.05347656 -20.67523438 85.04445313 -21.69921875 85.03515625 C-22.45847656 85.02355469 -23.21773437 85.01195312 -24 85 C-22.52283208 79.69713313 -20.06274298 75.52397629 -17.125 70.9375 C-16.69058594 70.24333984 -16.25617188 69.54917969 -15.80859375 68.83398438 C-13.40473688 65.03329176 -10.89459365 61.45331754 -8 58 C-9.98 58.495 -9.98 58.495 -12 59 C-12.47448066 50.8547486 -10.70703617 43.78231487 -8.625 35.9375 C-8.30789062 34.70966797 -7.99078125 33.48183594 -7.6640625 32.21679688 C-7.05155097 29.84714287 -6.43533628 27.47844215 -5.81494141 25.11083984 C-4.19672711 18.93370188 -2.69683861 12.7486916 -1.375 6.5 C-0.92125 4.355 -0.4675 2.21 0 0 Z " fill="#FBF7F7" transform="translate(166,56)"/>
<path d="M0 0 C7.26 0 14.52 0 22 0 C22 0.66 22 1.32 22 2 C18.69005287 3.65497356 15.00877 3.10084335 11.375 3.0625 C10.57320312 3.05798828 9.77140625 3.05347656 8.9453125 3.04882812 C6.96350994 3.03703168 4.98174567 3.01909605 3 3 C2.86078125 4.06863281 2.7215625 5.13726562 2.578125 6.23828125 C2 10 2 10 1.296875 12.23046875 C0.58382162 14.78218121 0.48104869 16.38072605 1 19 C4.16643665 23.48840822 8.06644957 27.18648749 12 31 C14.25878656 33.22252164 16.47919296 35.47745736 18.6875 37.75 C19.21625732 38.2562793 19.74501465 38.76255859 20.28979492 39.28417969 C23.02628107 42.09646501 23.97512547 43.80408735 24.47265625 47.72265625 C24.10707471 52.80442153 22.94418605 57.74664252 21.75 62.6875 C21.54503906 63.61111328 21.34007812 64.53472656 21.12890625 65.48632812 C19.9361484 70.50675436 18.85707813 74.32979581 15 78 C11.11538953 79.29487016 7.44116044 79.1232604 3.39453125 79.09765625 C2.55532639 79.0962413 1.71612152 79.09482635 0.85148621 79.09336853 C-1.82821216 79.08777215 -4.5078269 79.07522035 -7.1875 79.0625 C-9.00455608 79.05748453 -10.82161348 79.05292171 -12.63867188 79.04882812 C-17.09248013 79.03780391 -21.54622589 79.02054178 -26 79 C-25.34 78.01 -24.68 77.02 -24 76 C-21.42761089 75.69867064 -19.08277329 75.58295759 -16.5078125 75.59375 C-15.76546356 75.58291382 -15.02311462 75.57207764 -14.25827026 75.56091309 C-11.88042532 75.52657597 -9.50306052 75.51104734 -7.125 75.5 C-4.00214212 75.48542793 -0.88035646 75.45171307 2.2421875 75.40625 C2.95897675 75.40927124 3.67576599 75.41229248 4.41427612 75.41540527 C7.45060622 75.36985193 9.68111512 75.16679782 12.39208984 73.7487793 C14.26693477 71.70967905 14.82900583 70.29441332 15.484375 67.61328125 C15.69707031 66.75669922 15.90976562 65.90011719 16.12890625 65.01757812 C16.33386719 64.12490234 16.53882813 63.23222656 16.75 62.3125 C16.97042969 61.43916016 17.19085938 60.56582031 17.41796875 59.66601562 C18.70608675 54.30952493 19.23069281 49.50458672 19 44 C18.34 44 17.68 44 17 44 C15.51953125 42.49609375 15.51953125 42.49609375 13.8125 40.4375 C11.46720242 37.6746132 9.09170595 35.03320243 6.5 32.5 C-3.43258427 22.70224719 -3.43258427 22.70224719 -5 18 C-4.65454102 16.00708008 -4.65454102 16.00708008 -4.00390625 13.76953125 C-3.6956189 12.68442261 -3.6956189 12.68442261 -3.38110352 11.57739258 C-3.11096436 10.66497803 -2.8408252 9.75256348 -2.5625 8.8125 C-1.716875 5.904375 -0.87125 2.99625 0 0 Z " fill="#949190" transform="translate(44,65)"/>
<path d="M0 0 C1.20944199 3.53453504 0.78632815 5.99410415 -0.03222656 9.60375977 C-0.28288879 10.72915665 -0.53355103 11.85455353 -0.79180908 13.01405334 C-1.07191833 14.2275798 -1.35202759 15.44110626 -1.640625 16.69140625 C-2.06489777 18.57483986 -2.06489777 18.57483986 -2.4977417 20.49632263 C-3.09769336 23.15808258 -3.70347576 25.81842057 -4.31396484 28.4777832 C-5.08938969 31.85579268 -5.85504942 35.23590974 -6.6168251 38.61702061 C-7.35054646 41.87175232 -8.08923414 45.1253439 -8.828125 48.37890625 C-9.10013733 49.57826309 -9.37214966 50.77761993 -9.65240479 52.01332092 C-11.26899102 59.05918685 -13.0338481 66.04340211 -15 73 C-14.071875 72.505 -13.14375 72.01 -12.1875 71.5 C-9 70 -9 70 -6 70 C-6.7869459 75.82339966 -8.41588968 81.35230234 -10 87 C-16.6 87 -23.2 87 -30 87 C-27 84 -27 84 -23.42578125 83.70703125 C-22.05438087 83.72690662 -20.68313595 83.76258889 -19.3125 83.8125 C-18.61060547 83.82603516 -17.90871094 83.83957031 -17.18554688 83.85351562 C-15.45670171 83.88879818 -13.72825235 83.94260417 -12 84 C-12.020625 83.05125 -12.04125 82.1025 -12.0625 81.125 C-12 78 -12 78 -11 76 C-11.928125 76.495 -12.85625 76.99 -13.8125 77.5 C-17 79 -17 79 -20 79 C-19.30074006 72.2645185 -17.93001118 65.78373885 -16.41796875 59.1875 C-16.16251785 58.06037598 -15.90706696 56.93325195 -15.64387512 55.77197266 C-15.10352055 53.39134916 -14.56130217 51.01114805 -14.01733398 48.63134766 C-13.19672041 45.04034844 -12.38202925 41.44804693 -11.56835938 37.85546875 C-10.29095043 32.22668258 -8.99663537 26.60202318 -7.68988037 20.97998047 C-7.2515971 19.08678905 -6.81725834 17.19267677 -6.38824463 15.29736328 C-5.87003434 13.0080239 -5.33790739 10.72246085 -4.80078125 8.4375 C-4.52016846 7.21933594 -4.23955566 6.00117187 -3.95043945 4.74609375 C-3 2 -3 2 0 0 Z " fill="#949291" transform="translate(147,57)"/>
<path d="M0 0 C1.57112693 3.14225387 0.23603102 6.0778707 -0.5546875 9.35546875 C-0.81995239 10.4919838 -0.81995239 10.4919838 -1.09057617 11.65145874 C-1.67879354 14.16507164 -2.27673819 16.67626042 -2.875 19.1875 C-3.28595565 20.93140934 -3.69626637 22.67547078 -4.10595703 24.41967773 C-4.74563234 27.14292673 -5.38579749 29.86604894 -6.02853394 32.58857727 C-7.55630737 39.06910875 -9.03915378 45.55877193 -10.5 52.0546875 C-11.09857789 54.70261566 -11.69770216 57.35041969 -12.29693604 59.99819946 C-12.68037153 61.69912516 -13.06137874 63.4006002 -13.43988037 65.10263062 C-13.97104561 67.48805665 -14.51184331 69.87111503 -15.0546875 72.25390625 C-15.28393921 73.30147598 -15.28393921 73.30147598 -15.51782227 74.37020874 C-16.81905116 80.01369115 -18.05503577 84.70335718 -23 88 C-24.99291992 88.22705078 -24.99291992 88.22705078 -27.23046875 88.1953125 C-28.03291016 88.18886719 -28.83535156 88.18242187 -29.66210938 88.17578125 C-30.91217773 88.15064453 -30.91217773 88.15064453 -32.1875 88.125 C-33.4549707 88.11146484 -33.4549707 88.11146484 -34.74804688 88.09765625 C-36.83215243 88.07410703 -38.91611217 88.03823647 -41 88 C-40.34 86.68 -39.68 85.36 -39 84 C-38.26394531 84.03480469 -37.52789062 84.06960937 -36.76953125 84.10546875 C-29.29335109 84.52392857 -29.29335109 84.52392857 -23 81 C-21.06146964 76.89606992 -20.1042785 72.58251351 -19.1171875 68.17578125 C-18.94190018 67.40854233 -18.76661285 66.64130341 -18.58601379 65.85081482 C-18.20885816 64.1984908 -17.83343127 62.54577141 -17.45956421 60.8927002 C-16.86994745 58.29019862 -16.27349851 55.68935086 -15.67504883 53.08886719 C-13.86094034 45.19839967 -12.06239501 37.30496563 -10.31103516 29.40031433 C-9.61251486 26.25864608 -8.90204169 23.1197547 -8.18927002 19.98129272 C-7.85609175 18.49970112 -7.52868795 17.01679854 -7.20721436 15.53262329 C-6.76037911 13.47139954 -6.29454063 11.41534616 -5.82421875 9.359375 C-5.56729248 8.19889648 -5.31036621 7.03841797 -5.0456543 5.84277344 C-3.88475054 2.68667646 -2.86191936 1.67306509 0 0 Z " fill="#979392" transform="translate(181,56)"/>
<path d="M0 0 C-0.14168137 1.43791516 -0.28851043 2.8753237 -0.4375 4.3125 C-0.51871094 5.11300781 -0.59992188 5.91351563 -0.68359375 6.73828125 C-1 9 -1 9 -2 12 C-9.26 12 -16.52 12 -24 12 C-24.33 14.97 -24.66 17.94 -25 21 C-25.49621405 23.4176215 -26.03791147 25.82644105 -26.62890625 28.22265625 C-26.94150391 29.50205078 -27.25410156 30.78144531 -27.57617188 32.09960938 C-27.90482389 33.42060378 -28.23360142 34.74156696 -28.5625 36.0625 C-28.89570151 37.41849231 -29.22838782 38.77461133 -29.56054688 40.13085938 C-30.36864687 43.42181732 -31.18363244 46.71108319 -32 50 C-37.28 50 -42.56 50 -48 50 C-47 48 -47 48 -44 47 C-42.43881572 46.93259135 -40.8749748 46.91485544 -39.3125 46.9375 C-38.10013672 46.95103516 -38.10013672 46.95103516 -36.86328125 46.96484375 C-36.24839844 46.97644531 -35.63351563 46.98804688 -35 47 C-34.86859619 45.83597656 -34.73719238 44.67195313 -34.60180664 43.47265625 C-34.09109276 39.39813648 -33.28883618 35.44219426 -32.37109375 31.4375 C-32.21713638 30.76074219 -32.06317902 30.08398438 -31.90455627 29.38671875 C-31.41918261 27.25695981 -30.92844631 25.12848045 -30.4375 23 C-30.10445982 21.54305051 -29.77177442 20.08601988 -29.43945312 18.62890625 C-28.63104651 15.0848194 -27.81537537 11.54251859 -27 8 C-19.74 8 -12.48 8 -5 8 C-4.67 6.35 -4.34 4.7 -4 3 C-1.51724138 0 -1.51724138 0 0 0 Z " fill="#97908F" transform="translate(116,94)"/>
<path d="M0 0 C1 2 1 2 -2 13 C-14.375 13.495 -14.375 13.495 -27 14 C-28.52286526 21.43168381 -28.52286526 21.43168381 -30.02075195 28.8684082 C-30.21628662 29.79484131 -30.41182129 30.72127441 -30.61328125 31.67578125 C-30.80704346 32.62364502 -31.00080566 33.57150879 -31.20043945 34.5480957 C-32.05519286 37.16925248 -32.81830419 38.34459805 -35 40 C-35.66 40 -36.32 40 -37 40 C-36.40504302 36.70660175 -35.79729588 33.4156803 -35.1875 30.125 C-35.02185547 29.2071875 -34.85621094 28.289375 -34.68554688 27.34375 C-34.51474609 26.42851563 -34.34394531 25.51328125 -34.16796875 24.5703125 C-34.01610107 23.74289551 -33.8642334 22.91547852 -33.70776367 22.06298828 C-32.68871686 17.65286021 -31.30063208 13.33544026 -30 9 C-21.42 9 -12.84 9 -4 9 C-4 7.02 -4 5.04 -4 3 C-2 1.125 -2 1.125 0 0 Z " fill="#968C8B" transform="translate(128,56)"/>
<path d="M0 0 C1.58206057 0.00667536 3.16410534 0.0186375 4.74609375 0.03515625 C5.55240234 0.03966797 6.35871094 0.04417969 7.18945312 0.04882812 C9.18753131 0.06065107 11.18557158 0.07858711 13.18359375 0.09765625 C12.61873555 4.80480793 11.70835072 8.52338533 10.18359375 13.09765625 C4.57359375 13.09765625 -1.03640625 13.09765625 -6.81640625 13.09765625 C-4.76761785 0.12199636 -4.76761785 0.12199636 0 0 Z " fill="#0D0202" transform="translate(109.81640625,73.90234375)"/>
<path d="M0 0 C1.01591503 3.17844876 0.9458674 5.31039452 0.22729492 8.55322266 C0.03346725 9.44739899 -0.16036041 10.34157532 -0.36006165 11.2628479 C-0.6864991 12.69894913 -0.6864991 12.69894913 -1.01953125 14.1640625 C-1.34747932 15.64669083 -1.34747932 15.64669083 -1.68205261 17.15927124 C-2.14605192 19.24647985 -2.61453291 21.33269647 -3.0871582 23.41796875 C-3.81072789 26.61716478 -4.51669882 29.81988596 -5.22070312 33.0234375 C-5.67343245 35.04971332 -6.12717411 37.07576327 -6.58203125 39.1015625 C-6.79358353 40.06301178 -7.0051358 41.02446106 -7.22309875 42.01504517 C-7.4263829 42.90291718 -7.62966705 43.79078918 -7.83911133 44.70556641 C-8.01533524 45.48848053 -8.19155914 46.27139465 -8.37312317 47.07803345 C-9.38974957 50.19494867 -11.30151019 51.2010068 -14 53 C-13.33522513 46.84570164 -12.19931483 40.91449375 -10.8203125 34.8828125 C-10.60688202 33.9444455 -10.39345154 33.00607849 -10.17355347 32.03927612 C-9.72359732 30.07058725 -9.2713419 28.10242261 -8.81689453 26.13476562 C-8.12288153 23.11578457 -7.44613692 20.09323575 -6.76953125 17.0703125 C-6.32918352 15.15340236 -5.88781345 13.23672673 -5.4453125 11.3203125 C-5.24519562 10.415159 -5.04507874 9.51000549 -4.83889771 8.5774231 C-4.64214447 7.74250336 -4.44539124 6.90758362 -4.24267578 6.04736328 C-4.0747049 5.31204376 -3.90673401 4.57672424 -3.7336731 3.81912231 C-3 2 -3 2 0 0 Z " fill="#989493" transform="translate(147,57)"/>
<path d="M0 0 C0.99 0.66 1.98 1.32 3 2 C3.68082461 7.94947869 2.10369848 13.23786893 0.5 18.9375 C0.14228516 20.24944336 0.14228516 20.24944336 -0.22265625 21.58789062 C-0.8072292 23.72742764 -1.40252581 25.86402979 -2 28 C-7.28 28 -12.56 28 -18 28 C-17 26 -17 26 -14 24 C-11.73828125 23.8046875 -11.73828125 23.8046875 -9.3125 23.875 C-8.10013672 23.90207031 -8.10013672 23.90207031 -6.86328125 23.9296875 C-6.24839844 23.95289062 -5.63351563 23.97609375 -5 24 C-3.84475471 17.99945409 -2.79969635 12.07093863 -2.34375 5.97265625 C-1.9485556 3.70477932 -1.11185597 2.00403073 0 0 Z " fill="#988E8D" transform="translate(77,57)"/>
<path d="M0 0 C4.95 0 9.9 0 15 0 C14.34 3.63 13.68 7.26 13 11 C10 11 10 11 7.51953125 8.84765625 C6.62621094 7.92855469 5.73289062 7.00945312 4.8125 6.0625 C3.91144531 5.14597656 3.01039062 4.22945313 2.08203125 3.28515625 C0 1 0 1 0 0 Z " fill="#050001" transform="translate(59,91)"/>
<path d="M0 0 C4.95 0 9.9 0 15 0 C14.51171875 2.63671875 14.0234375 5.2734375 13.53515625 7.91015625 C12.95458085 11.26223755 12.48111364 14.6322045 12 18 C16.95 18 21.9 18 27 18 C27 18.33 27 18.66 27 19 C25.21142578 19.09087891 25.21142578 19.09087891 23.38671875 19.18359375 C21.82030075 19.26801149 20.25389512 19.35265887 18.6875 19.4375 C17.50897461 19.49647461 17.50897461 19.49647461 16.30664062 19.55664062 C15.54931641 19.59853516 14.79199219 19.64042969 14.01171875 19.68359375 C12.96697388 19.73858032 12.96697388 19.73858032 11.90112305 19.79467773 C9.7783428 19.95581153 9.7783428 19.95581153 7 21 C7.47186969 16.67452783 8.04409054 12.39725945 8.875 8.125 C9.01679688 7.38507813 9.15859375 6.64515625 9.3046875 5.8828125 C10 4 10 4 13 2 C8.71 1.67 4.42 1.34 0 1 C0 0.67 0 0.34 0 0 Z " fill="#AB9898" transform="translate(21,114)"/>
<path d="M0 0 C0.144375 0.639375 0.28875 1.27875 0.4375 1.9375 C0.81007181 3.97545146 0.81007181 3.97545146 2 5 C2.42535501 10.95497015 1.95659351 16.68254451 -1 22 C-2.31106302 22.70946176 -3.64369236 23.38141143 -5 24 C-4.35755277 20.56185817 -3.71046074 17.12460665 -3.0625 13.6875 C-2.78889648 12.22280273 -2.78889648 12.22280273 -2.50976562 10.72851562 C-2.33251953 9.79072266 -2.15527344 8.85292969 -1.97265625 7.88671875 C-1.81031494 7.02264404 -1.64797363 6.15856934 -1.48071289 5.26831055 C-1 3 -1 3 0 0 Z " fill="#999797" transform="translate(96,72)"/>
<path d="M0 0 C1.51553092 3.97450493 0.49888623 7.20481149 -0.4375 11.25 C-0.72496094 12.51328125 -1.01242188 13.7765625 -1.30859375 15.078125 C-1.53675781 16.04234375 -1.76492187 17.0065625 -2 18 C-2.66 17.34 -3.32 16.68 -4 16 C-4.66 17.98 -5.32 19.96 -6 22 C-7.33452988 17.66337904 -6.35456096 14.16284428 -5.25 9.875 C-5.07984375 9.14667969 -4.9096875 8.41835937 -4.734375 7.66796875 C-3.37184262 2.24789508 -3.37184262 2.24789508 0 0 Z " fill="#AAA8A7" transform="translate(147,57)"/>
<path d="M0 0 C0.99 0.33 1.98 0.66 3 1 C2.67 4.3 2.34 7.6 2 11 C0.68 11 -0.64 11 -2 11 C-1.85892253 9.54119891 -1.71197585 8.08296449 -1.5625 6.625 C-1.48128906 5.81289062 -1.40007813 5.00078125 -1.31640625 4.1640625 C-1 2 -1 2 0 0 Z " fill="#130303" transform="translate(42,115)"/>
<path d="M0 0 C1.65 0 3.3 0 5 0 C4.34 3.3 3.68 6.6 3 10 C1.68 9.34 0.36 8.68 -1 8 C-0.67 5.36 -0.34 2.72 0 0 Z " fill="#230506" transform="translate(51,74)"/>
<path d="M0 0 C1.31534494 3.65857532 0.65468309 6.08026481 -0.4375 9.75 C-0.72496094 10.73484375 -1.01242188 11.7196875 -1.30859375 12.734375 C-1.53675781 13.48203125 -1.76492187 14.2296875 -2 15 C-3.48828125 13.69921875 -3.48828125 13.69921875 -5 12 C-5.1875 8.8125 -5.1875 8.8125 -5 6 C-4.34 6 -3.68 6 -3 6 C-2.67 5.01 -2.34 4.02 -2 3 C-1.34 3 -0.68 3 0 3 C0 2.01 0 1.02 0 0 Z " fill="#988787" transform="translate(46,69)"/>
<path d="M0 0 C0.99 0 1.98 0 3 0 C3.44041451 5.28497409 3.44041451 5.28497409 3 8 C0.5 10.5 0.5 10.5 -2 12 C-1.44687265 7.97007218 -0.8441938 3.97977076 0 0 Z " fill="#9B9A99" transform="translate(83,128)"/>
<path d="M0 0 C4.95 0 9.9 0 15 0 C14.67 1.98 14.34 3.96 14 6 C13.34 6 12.68 6 12 6 C11.34 6.66 10.68 7.32 10 8 C10.375 5.5625 10.375 5.5625 11 3 C11.66 2.67 12.32 2.34 13 2 C8.71 1.67 4.42 1.34 0 1 C0 0.67 0 0.34 0 0 Z " fill="#B87E80" transform="translate(21,114)"/>
<path d="M0 0 C-0.33 2.64 -0.66 5.28 -1 8 C-5.95 8 -10.9 8 -16 8 C-16 7.67 -16 7.34 -16 7 C-11.38 7 -6.76 7 -2 7 C-2 5.35 -2 3.7 -2 2 C-2.99 1.67 -3.98 1.34 -5 1 C-2 0 -2 0 0 0 Z " fill="#E0E0DF" transform="translate(136,133)"/>
<path d="M0 0 C0.66 0.33 1.32 0.66 2 1 C1.34 4.63 0.68 8.26 0 12 C-2.26907773 7.46184454 -2.00210012 5.82830058 -1 1 C-0.67 0.67 -0.34 0.34 0 0 Z " fill="#918887" transform="translate(135,107)"/>
<path d="M0 0 C1.07310858 3.27185553 0.89263102 5.42947592 0.0625 8.75 C-0.22947266 9.94882813 -0.22947266 9.94882813 -0.52734375 11.171875 C-0.68332031 11.77515625 -0.83929688 12.3784375 -1 13 C-3.1202151 9.81967735 -3.2495865 9.45432601 -2.75 5.9375 C-2.66234375 5.24527344 -2.5746875 4.55304687 -2.484375 3.83984375 C-2 2 -2 2 0 0 Z " fill="#928B8B" transform="translate(147,57)"/>
<path d="M0 0 C0.144375 0.639375 0.28875 1.27875 0.4375 1.9375 C0.81007181 3.97545146 0.81007181 3.97545146 2 5 C2.14115161 7.67058851 2.04247107 10.32432238 2 13 C1.34 12.01 0.68 11.02 0 10 C-0.66 10.99 -1.32 11.98 -2 13 C-1.85851011 11.3954444 -1.71164314 9.79136233 -1.5625 8.1875 C-1.48128906 7.29417969 -1.40007812 6.40085937 -1.31640625 5.48046875 C-1 3 -1 3 0 0 Z " fill="#A3A09F" transform="translate(96,72)"/>
</svg>
