<?xml version="1.0" encoding="UTF-8"?>
<svg width="200px" height="200px" viewBox="0 0 200 200" version="1.1" xmlns="http://www.w3.org/2000/svg" xmlns:xlink="http://www.w3.org/1999/xlink">
    <!-- Generator: Sketch 54.1 (76490) - https://sketchapp.com -->
    <title>south-ala</title>
    <desc>Created with Sketch.</desc>
    <g id="south-ala" stroke="none" stroke-width="1" fill="none" fill-rule="evenodd">
        <g id="south-ala_BGD">
            <g id="south-ala" transform="translate(-6.000000, 26.000000)">
                <g id="g10" transform="translate(106.356900, 74.535735) scale(-1, 1) rotate(-180.000000) translate(-106.356900, -74.535735) translate(0.713805, 0.214394)" fill-rule="nonzero">
                    <g id="g12" transform="translate(5.139394, 0.000000)">
                        <path d="M76.5175792,2.49449862 C76.5175792,2.49449862 73.1558446,9.02889953 73.4168116,16.7066943 C73.6800628,24.3911779 79.0964128,32.5557774 80.2984599,32.0399301 C85.7861904,29.6838865 90.8296489,26.5283167 94.1354212,24.6256331 C97.4434777,22.7162607 111.266734,12.7873869 127.925222,10.0114848 C135.239151,8.7876982 132.189777,9.01323488 139.588791,8.37904516 C145.662984,7.85645179 153.923132,7.72467434 160.463296,12.825348 C163.452139,15.1612677 166.876117,20.1949378 168.716591,30.9702174 C168.716591,30.9702174 168.286024,39.0053262 169.028952,44.3136422 C169.279069,46.1605276 167.206751,44.3136422 162.593289,37.6430732 C162.448815,37.4309144 162.058221,39.2442407 161.645356,38.2594258 C161.188521,37.1830241 160.615193,36.5733604 160.470148,36.5398587 C160.211465,36.4884626 159.308074,38.431394 159.080228,38.3621608 C158.605119,38.2147758 158.255069,36.5175051 157.853626,38.5698032 C157.280298,41.4328327 156.999344,43.3488941 156.927964,43.599014 C156.648723,44.6017232 156.581911,45.0349594 156.002302,45.0349594 C154.240061,45.0282705 150.671037,32.2788447 148.212694,32.4106221 C130.884942,33.33295 128.203892,39.8606505 121.761947,49.9636649 C120.735781,51.5693489 115.355407,54.8410315 109.865964,49.3450827 C109.152159,48.6237655 111.846343,55.1246532 115.917314,58.2736484 C126.122437,66.1768655 135.910698,67.8250842 139.703,68.1309451 C141.268802,68.2561479 152.343624,63.8048713 155.901798,62.3801884 C156.414595,62.1749471 156.142779,49.0257296 157.333976,49.4478177 C158.437803,49.8386336 164.2733,58.5726489 166.050959,61.0492647 C166.842997,62.1526507 167.133087,60.1225347 167.327242,60.3569328 C167.623613,60.6788014 168.810242,62.7912426 169.225391,62.7912426 C169.515481,62.7912426 170.06197,60.4598393 170.255554,60.7388301 C171.204058,62.1011975 171.315411,62.3355956 171.482727,62.5882881 C171.839629,63.1216867 171.076715,54.3474807 171.583231,55.0397554 C176.160146,61.2190603 179.791985,65.3976348 183.059497,70.149627 C183.059497,70.149627 196.236332,76.340023 195.205598,86.5123278 C195.205598,86.5123278 198.892827,91.508437 200.492321,95.5972542 C200.492321,95.5972542 191.056394,103.965266 180.733065,111.156141 C180.733065,111.156141 181.063128,112.513935 181.453722,114.286785 C181.453722,114.286785 174.360217,121.350742 157.217483,130.500271 C157.217483,130.500271 135.424169,143.15548 106.854279,143.374442 C106.854279,143.374442 37.5438999,149.05145 21.8401966,86.4322894 C21.8401966,86.4322894 7.7336456,23.3549669 76.5175792,2.49449862" id="path14" fill="#1D2953"></path>
                        <path d="M179.977003,69.4996011 L172.270196,57.8471583 L172.749873,65.8887274 L170.47198,62.6328809 L169.397275,65.6160252 L167.318105,62.1526507 L166.247398,65.3370343 L158.116877,52.0539812 L157.958127,63.986101 L142.116231,69.7654429 C142.116231,69.7654429 167.541383,65.3301739 179.977003,69.4996011" id="path16" fill="#FFFFFF"></path>
                        <path d="M166.218275,32.4285164 L167.360362,42.415418 L162.582439,35.1150614 L162.0468,36.5085865 L160.411902,34.7957083 L158.912912,36.8189639 L157.440761,34.1145818 L155.816713,43.8111728 L151.462504,31.7719159 C151.462504,31.7719159 149.354781,30.3538648 146.075848,29.9005046 C142.740953,29.4382258 138.241699,29.9340063 138.241699,29.9340063 L119.972867,30.3471187 C119.972867,30.3471187 150.090857,22.624674 166.218275,32.4285164" id="path18" fill="#FFFFFF"></path>
                        <path d="M107.563515,47.0113926 C107.563515,47.0113926 109.493072,44.7915856 115.917314,42.5806973 C115.917314,42.5806973 111.09485,47.0560426 116.847545,48.7242708 C116.847545,48.7242708 119.303604,49.5952026 120.461109,47.5026567 C120.461109,47.5026567 121.56094,37.0155152 135.038714,32.8885083 C135.038714,32.8885083 108.114572,27.9955914 107.563515,47.0113926" id="path20" fill="#FFFFFF"></path>
                        <path d="M69.089442,10.6457317 C69.089442,10.6457317 59.0447824,23.9311288 76.6740452,34.3982035 L65.1326799,39.5792585 C65.1326799,39.5792585 58.4206315,43.797795 54.9852894,36.4817737 C54.9852894,36.4817737 50.9411004,28.0647675 56.7876177,21.262421 C56.7876177,21.262421 63.9660375,13.2585842 69.089442,10.6457317" id="path22" fill="#FFFFFF"></path>
                        <path d="M59.6386679,133.44797 C59.6386679,133.44797 58.8152228,140.01569 67.4277047,137.139454 L68.4561545,136.321919 C68.4561545,136.321919 61.2781345,133.240442 59.6386679,133.44797" id="path24" fill="#1D2953"></path>
                        <path d="M132.238887,120.510911 L128.710408,111.260763 L160.407333,105.257885 L148.796872,111.56891 L141.933497,110.85028 L143.391943,114.427424 L132.238887,120.510911 Z M42.6766125,63.3852416 C42.6766125,63.3852416 43.2811195,64.3525624 42.5561223,65.6943485 C41.8378635,67.0344194 41.5567957,67.2042151 40.8028467,66.9360866 C40.0511247,66.6633844 39.5291907,65.1963955 39.4733997,64.4817672 C39.42212,63.7739994 39.9976179,62.8181126 40.7693835,62.1903831 C41.5456604,61.5563649 42.834963,62.3916224 42.6766125,63.3852416 L42.6766125,63.3852416 Z M34.6819999,73.2694082 C34.6819999,73.2694082 35.0656842,74.7861353 33.7228177,76.1970974 C32.3844054,77.6086312 31.9873587,77.706964 31.1799028,77.0146321 C30.3701627,76.3177266 30.263092,74.1961382 30.4504515,73.2539723 C30.6400951,72.3089478 31.6661465,71.3376251 32.8194265,70.8688289 C33.9681952,70.4063215 35.2284888,72.0591138 34.6819999,73.2694082 L34.6819999,73.2694082 Z M39.5291907,85.7239499 C39.5291907,85.7239499 40.7047413,87.1977993 40.1581954,89.2547853 C39.6050253,91.3071977 39.2726207,91.581615 38.1149437,91.1642721 C36.9549825,90.7486443 35.7147897,88.5110002 35.3958046,87.421335 C35.0768196,86.3339566 35.5563821,84.8686828 36.4285944,83.9087941 C37.2985224,82.9368996 39.4087004,84.2009341 39.5291907,85.7239499 L39.5291907,85.7239499 Z M45.1392387,74.4865631 C45.1392387,74.4865631 45.554102,76.1679405 44.367416,77.6555108 C43.1785029,79.1407942 42.8126923,79.2322666 42.0297342,78.4370283 C41.244549,77.6400748 41.0549054,75.3063847 41.1909851,74.2813219 C41.3226107,73.2585459 42.2371373,72.2357699 43.2878007,71.7709757 C44.3451453,71.3153287 45.5875652,73.1847963 45.1392387,74.4865631 L45.1392387,74.4865631 Z M35.6121731,59.3970441 C35.6121731,59.3970441 36.069465,61.2304944 34.711009,62.867279 C33.3502688,64.5040636 32.9398596,64.6092569 32.0609662,63.7448425 C31.1799028,62.882715 30.9880321,60.3369232 31.1531208,59.2112407 C31.3114713,58.0924187 32.3576805,56.9647924 33.5510478,56.4511748 C34.7489263,55.9285814 36.1386184,57.9677875 35.6121731,59.3970441 L35.6121731,59.3970441 Z M90.8519196,125.531032 C90.8519196,125.531032 71.7996157,131.194318 69.8100993,131.326381 C68.5652239,131.417854 69.3595457,124.168665 79.8633246,110.785106 C90.3585378,97.4152685 73.6577921,131.596797 90.8519196,125.531032 L90.8519196,125.531032 Z M169.590859,79.0847673 C169.590859,79.0847673 128.547089,86.9456784 95.4956474,69.1245642 C95.4956474,69.1245642 133.806973,84.8686828 166.564327,76.7287808 L169.590859,79.0847673 Z M177.773345,85.1345245 C177.773345,85.1345245 116.040089,96.6514738 72.0674352,69.9083685 C72.0674352,69.9083685 122.597955,93.7769531 174.237442,81.257809 C174.237442,81.257809 176.501631,83.7430003 177.773345,85.1345245 L177.773345,85.1345245 Z M193.477048,87.2092333 C192.644467,76.4720863 183.472362,73.0996126 183.472362,73.0996126 C190.677221,79.4512287 190.320318,89.2547853 190.320318,89.2547853 L195.009159,94.5384609 L182.149824,95.4789118 L189.591096,89.1232937 C187.951629,79.0693314 180.226549,72.1574466 180.226549,72.1574466 C178.587082,70.9894582 176.602134,70.7842169 176.602134,70.7842169 C169.77188,68.7318045 151.172414,70.6452932 151.172414,70.6452932 C145.299229,71.4696884 141.540619,70.853393 141.540619,70.853393 C108.050044,66.1991619 104.924722,45.6625174 104.924722,45.6625174 C104.057306,33.6813455 117.411736,29.7285364 117.411736,29.7285364 C145.707525,20.0118215 166.981189,30.3426594 166.981189,30.3426594 C164.601079,18.0197808 157.054735,12.8320369 157.054735,12.8320369 C149.879,8.58222827 140.650933,10.3665693 140.650933,10.3665693 C134.22669,10.8399963 123.155865,14.7459258 123.155865,14.7459258 C111.262166,18.3704061 91.1014657,31.7138881 91.1014657,31.7138881 C80.3652721,38.8311284 64.6575714,43.1345056 64.6575714,43.1345056 C47.6464635,51.4130454 59.0830423,70.7659225 59.0830423,70.7659225 C24.4076665,37.8016063 60.9166638,12.1285568 60.9166638,12.1285568 C18.0191144,33.9381544 24.9675749,81.5659567 24.9675749,81.5659567 C31.8379165,117.587796 60.2074275,130.249865 60.2074275,130.249865 C62.6606314,123.889674 74.5549018,108.831027 74.5549018,108.831027 C75.3823442,107.805964 76.1275563,108.554322 76.1275563,108.554322 C75.4468722,110.135652 71.4786891,116.223141 71.4786891,116.223141 C64.0328496,125.667669 61.4363136,133.260451 61.4363136,133.260451 C60.5437722,136.409389 63.3481681,135.86227 63.3481681,135.86227 C64.4451432,135.792522 76.6740452,134.151164 76.6740452,134.151164 C78.6589933,133.943636 96.9792191,133.327341 96.9792191,133.327341 C96.1540609,133.463406 75.2418675,136.409389 75.2418675,136.409389 C87.5438631,140.308401 102.098626,140.37529 102.098626,140.37529 C130.394416,140.444467 152.071808,130.495697 152.071808,130.495697 C156.106803,128.836045 179.613248,114.079257 179.613248,114.079257 C179.066759,113.911748 178.408917,110.392346 178.408917,110.392346 C179.182681,109.968143 198.428569,94.9049223 198.428569,94.9049223 C197.971734,93.569425 193.477048,87.2092333 193.477048,87.2092333 L193.477048,87.2092333 Z" id="path26" fill="#FFFFFF"></path>
                        <path d="M9.87505969,69.3812587 C9.09432866,98.4197501 28.4808074,124.476812 58.3760901,139.901921 C23.2833955,125.924363 -0.220834042,99.1012196 0.591119542,68.9301853 C1.42984217,37.7435214 28.034708,11.5188931 65.7950906,0.00223321337 C33.095983,13.4059692 10.6869697,39.1973611 9.87505969,69.3812587" id="path28" fill="#1D2953"></path>
                    </g>
                </g>
            </g>
        </g>
    </g>
</svg>