<?xml version="1.0" encoding="UTF-8"?>
<svg width="200px" height="200px" viewBox="0 0 200 200" version="1.1" xmlns="http://www.w3.org/2000/svg" xmlns:xlink="http://www.w3.org/1999/xlink">
    <!-- Generator: Sketch 54.1 (76490) - https://sketchapp.com -->
    <title>southern-u</title>
    <desc>Created with Sketch.</desc>
    <g id="southern-u" stroke="none" stroke-width="1" fill="none" fill-rule="evenodd">
        <g id="southern-u_BGD">
            <g id="Group-24" transform="translate(0.000000, 39.000000)">
                <path d="M37.846718,94.5205967 C33.8441628,93.8296947 31.2832377,93.3792339 28.6340433,92.8940184 C26.4415933,92.4899435 25.0061797,92.1439193 23.5479223,91.597113 C20.5974842,90.4977595 17.4902647,90.4039689 13.799167,91.1976631 C12.3188078,91.5162785 10.9583468,91.7470424 8.59046368,92.1050642 C8.40360073,92.1333177 8.19356357,92.1649698 7.79579646,92.2248961 C7.47289277,92.2735843 7.23377844,92.3097965 6.99799178,92.345794 C6.39285299,92.4381805 5.88191593,92.5182826 5.3885221,92.5987062 L0.957959204,93.3208911 L2.37219093,89.0572926 C7.68968268,73.0262211 11.8302419,60.547988 15.8751453,48.3657773 L17.0109717,44.9449598 L19.9862338,46.9768008 C18.6693817,44.552241 17.8821317,41.6012949 17.975783,38.3325945 C18.0110042,36.9844486 18.1988537,35.7152608 18.5762954,34.5484354 C18.8282382,33.77282 19.020699,33.1326662 19.4430338,31.6894298 C20.9326977,26.5990681 21.8031686,24.3152707 23.6015024,21.6660743 C26.9744823,16.6878668 31.6647027,13.1583732 38.2480116,10.0459731 C44.6912345,6.99822759 51.0736685,5.23477625 61.5364038,3.17784148 C71.6705437,1.18937662 81.7008092,0.403718647 91.6114605,0.873108521 C107.25454,1.61461199 117.13502,2.83173081 127.194377,5.84225726 C130.676375,6.88599978 134.058403,6.81437234 139.169336,5.85303638 C140.089998,5.67915929 141.025744,5.52137307 142.2893,5.32225264 C142.362795,5.31067084 144.736435,4.94171422 145.469701,4.82386913 L149.877655,4.11545516 L148.482298,8.35945693 C147.322178,11.88798 146.121137,15.5418331 144.690806,19.8939126 C143.830148,22.5126455 140.632203,32.2437367 140.931337,31.3335138 C140.236381,33.448171 139.663222,35.1921469 139.128677,36.8185361 L199.330186,36.8185361 L187.212903,42.0368212 C185.781981,42.6530454 184.775516,43.0923659 184.20155,43.3511069 C177.213495,46.4989419 172.256968,50.1666349 168.786615,55.1739696 C167.498117,57.0369229 166.442367,59.1028094 165.736832,61.1608615 C163.812197,66.7672627 162.291799,71.3075992 158.944682,81.388134 C158.821509,81.7590961 158.821509,81.7590961 158.698325,82.1300825 C156.586363,88.4904667 155.480475,91.8063048 154.203648,95.5901571 C152.30944,101.197658 148.581037,105.543187 142.869231,109.624828 C136.390887,114.247077 128.881347,117.251218 120.263413,118.922012 C114.330137,120.068371 108.43385,120.863735 102.643568,121.283757 C96.9653087,121.697626 91.0302364,121.770042 84.7380826,121.536906 C74.2638612,121.148013 63.9547817,118.822032 53.8577724,114.652829 C49.7840674,112.958152 46.4121549,110.576089 43.8391582,107.394877 C40.8373814,103.683429 39.6166193,99.4639655 40.2397723,94.933293 C39.7401433,94.847145 38.3135191,94.6011736 37.846718,94.5205967 Z" id="Fill-1" fill="#FFFFFF" fill-rule="nonzero"></path>
                <path d="M43.4415415,92.7266875 C43.3941538,92.9703446 43.364885,93.223748 43.2979848,93.4701897 C42.120262,98.0022119 43.0373526,102.080336 45.9516938,105.683676 C48.3503458,108.649331 51.4570251,110.708582 54.9009931,112.141286 C64.4942072,116.102454 74.4888225,118.434601 84.8388454,118.818883 C90.7009779,119.036086 96.6007418,118.997101 102.446149,118.571049 C108.242775,118.150566 114.040795,117.354156 119.748221,116.251433 C127.46126,114.756075 134.795197,112.045215 141.291488,107.410161 C145.864398,104.142371 149.764123,100.23968 151.628967,94.7191065 C155.500818,83.2449452 159.236081,71.7262295 163.166469,60.2771301 C163.967878,57.9394142 165.149782,55.6532143 166.551899,53.6259872 C170.710864,47.6250607 176.582752,43.8003403 183.086012,40.8708857 C183.97244,40.4712881 184.879775,40.1148525 185.778746,39.7403167 C185.762021,39.6734851 185.743903,39.6052611 185.725784,39.5384294 L135.373605,39.5384294 C138.876111,28.882956 142.340986,18.3360841 145.900635,7.50935455 C143.613484,7.8769287 141.634352,8.15539397 139.673339,8.52575277 C135.246774,9.35836392 130.952615,9.80808532 126.41455,8.4477825 C115.044299,5.04493695 103.261496,4.1482788 91.4828743,3.58995594 C81.6053343,3.12213429 71.780757,3.93942985 62.0593176,5.84691692 C54.3114349,7.37012192 46.6151211,9.09660657 39.409409,12.5050214 C34.0936283,15.0181704 29.2461493,18.1815359 25.8509627,23.1925183 C23.3491729,26.8780061 22.5087388,31.2401645 21.1609779,35.389297 C20.8515644,36.3458251 20.7191577,37.3900699 20.6926763,38.4036835 C20.5519071,43.3172031 22.7637959,47.1126846 26.468396,50.0212543 C28.4377715,51.5695212 30.6496603,52.7933761 32.8448241,54.2232952 C27.7743442,53.3475219 22.8683275,52.2378379 18.4543062,49.2234514 C13.9441158,62.806987 9.47434425,76.2791366 4.95161005,89.9141883 C7.87292003,89.4380127 10.5754105,89.1094237 13.2277258,88.5385699 C17.0480076,87.7170974 20.7707266,87.660012 24.4962331,89.0481613 C25.9777944,89.6036995 27.5624935,89.9308962 29.1262864,90.2191078 C33.862265,91.0865271 38.6121813,91.888507 43.4415415,92.7266875" id="Fill-1" fill="#61AEE1"></path>
                <path d="M106.106707,25.555853 C103.13104,25.1729633 100.160949,24.7677963 97.1838888,24.4141454 C95.6061584,24.2261814 94.022853,24.1189723 92.4409414,23.9908782 C91.2869124,23.8975924 90.130096,23.832153 88.976067,23.7513981 C88.7168286,23.6539353 88.4617715,23.503564 88.1955644,23.4645789 C79.7619543,22.2992017 71.3060442,22.0026362 62.8403778,23.0162498 C57.781048,23.6246964 52.8624874,24.8234894 48.2268591,27.0567808 C47.5007129,27.407647 47.02823,27.8406605 46.8052292,28.6760563 C46.3912841,30.2340695 45.9480701,31.8004366 45.3278492,33.2846565 C44.5752216,35.0863267 45.260949,36.4675145 46.5710784,37.4059424 C47.982952,38.415379 49.5788012,39.3635532 51.2317944,39.7826435 C59.6068667,41.9073334 68.0321142,41.261294 76.444818,39.9190914 C84.4491516,39.9887077 92.4423351,40.1641409 100.308687,41.9296106 C100.921939,42.1718754 101.525435,42.4336328 102.144262,42.6536203 C106.207057,44.0877165 110.168108,45.7097766 113.235762,48.9357967 C115.507583,51.326421 116.176585,54.0887965 115.069944,57.2744391 C113.941002,60.5199518 112.891505,63.7960956 111.759776,67.0388237 C110.56951,70.4500232 108.289327,73.0132959 105.172891,74.6130789 C98.5678873,78.0006088 91.3984128,79.6115304 84.1899132,81.0386649 C85.3550922,77.4924097 86.492396,73.935016 87.7230815,70.4082534 C87.8554882,70.014225 88.4548027,69.6703204 88.9063793,69.5296955 C91.0248865,68.8725174 93.1879939,68.3406488 95.2953511,67.641701 C95.7887403,67.4801911 96.3225484,66.9149066 96.5079177,66.4094922 C97.3511394,64.0982304 98.0326855,61.7243141 98.8703321,59.4102677 C99.2006519,58.4913323 98.9692887,58.0095874 98.1218858,57.7993461 C94.5023046,56.9180036 90.9175674,55.631494 87.2492049,55.2903741 C80.1591744,54.6318037 73.0189688,54.4466243 65.8968819,54.1820823 C55.871604,53.8089389 46.1668896,51.8568974 36.9039954,47.9653453 C34.6739878,47.0283097 32.6028682,45.4661195 30.779837,43.8245668 C28.2432034,41.5355823 27.6229825,38.483603 28.6320609,35.1754356 C29.3846885,32.6957024 30.1178035,30.202046 31.0474379,27.7863598 C32.7422437,23.3880009 36.1708804,20.6033483 40.072,18.3477796 C45.9327388,14.957465 52.3551607,13.1683257 58.889083,11.7300526 C67.5554501,9.81978086 76.2998675,8.46087037 85.1878416,8.59731835 C90.8381234,8.68085793 96.5134928,8.84793709 102.131718,9.43271414 C108.538809,10.0968538 114.909662,11.1800837 121.266577,12.2577443 C123.942586,12.7102503 126.541939,13.6124778 129.176136,14.3086409 C127.668093,19.0272349 126.153081,23.7458288 124.621345,28.534039 C118.490218,26.682245 112.400903,25.4375053 106.106707,25.555853" id="Fill-6" fill="#FFFFFE"></path>
                <path d="M106.357861,96.0973703 C111.187222,95.7228345 115.938532,95.0503409 120.365097,92.8518576 C121.117724,92.4703602 121.521913,92.0289928 121.783939,91.2423284 C125.515021,79.993724 129.24889,68.7451196 133.04269,57.5201847 C134.646902,52.7737443 133.767442,48.7346056 130.05448,45.3790991 C129.896986,45.2370818 129.70186,45.1382267 129.370146,44.9210238 C129.745066,44.7609062 129.876079,44.6550894 130.00988,44.6550894 C138.995417,44.6620511 147.983741,44.6759743 156.969278,44.6912899 C154.092568,47.452273 151.84026,50.6170308 150.563581,54.4737747 C146.670824,66.2431092 142.725104,77.992951 138.833741,89.7595008 C137.901319,92.5775693 136.315226,94.9292085 134.249682,96.9870668 C129.056551,102.148421 122.593711,104.889911 115.750375,106.851699 C109.475691,108.657546 103.047694,109.556989 96.5514029,110.020634 C89.3819284,110.524656 82.2166352,110.636042 75.0555232,109.992787 C73.0568789,109.815962 71.0568408,109.636352 69.055409,109.462311 C64.6957441,108.572614 60.4712734,107.268004 56.5924539,105.009651 C53.9624387,103.479484 51.4913115,101.616552 50.7512277,98.481033 C50.3609764,96.8227723 50.3470388,94.8456689 50.8627281,93.2403167 C54.5269094,81.8343794 58.36531,70.4855275 62.1855918,59.1338909 C62.3040609,58.7774554 62.8406565,58.3179877 63.1751577,58.31938 C67.5822102,58.3667191 71.987869,58.4920285 76.3949216,58.5950606 C72.9147159,69.655701 69.4442666,80.719126 65.9333983,91.7672354 C65.6574349,92.640224 65.8971607,92.977167 66.6372445,93.3085407 C70.373901,94.9932555 74.2736268,96.1280015 78.284853,96.877073 C85.4891714,98.216491 92.7269398,98.2331989 99.9702833,97.3184405 C102.115272,97.0441522 104.229598,96.5122835 106.357861,96.0973703" id="Fill-8" fill="#FFFFFE"></path>
                <path d="M69.0558271,109.463285 C71.0572589,109.637326 73.0559033,109.815544 75.0559414,109.995154 C82.2184471,110.635624 89.3837403,110.527023 96.551821,110.020216 C103.048112,109.556571 109.474715,108.658521 115.750793,106.854066 C122.592735,104.890886 129.05697,102.149395 134.248706,96.9880414 C136.315644,94.9287908 137.900343,92.578544 138.834159,89.7604755 C142.726916,77.991141 146.672636,66.2440838 150.563999,54.4761417 C151.840679,50.6166131 154.09438,47.4532477 156.969696,44.6908722 L166.766398,44.6908722 C165.537107,45.7546095 164.286909,46.7389843 163.145423,47.8375297 C160.509833,50.3771329 158.661714,53.4332892 157.497929,56.930813 C153.744548,68.2142255 149.865728,79.454476 146.25451,90.7796583 C144.767373,95.4397746 142.03422,98.9442599 138.264113,101.770682 C132.902339,105.794505 126.783756,108.089059 120.372484,109.624795 C108.922788,112.373247 97.290511,112.831323 85.5857586,112.310593 C80.1096961,112.066936 74.7618591,111.071422 69.4767411,109.672134 C69.3276093,109.637326 69.1965963,109.531509 69.0558271,109.463285" id="Fill-10" fill="#FFC82F"></path>
                <path d="M16.1040175,78.9095195 C17.4977723,74.5473611 18.8831645,70.1838104 20.2880693,65.8272213 C21.2316413,62.8921974 22.2030883,59.9655274 23.1912605,56.942787 C28.6575666,64.418187 36.5782749,67.0357605 44.8362719,68.9780558 C47.5513062,69.6157412 50.3220906,70.0028079 53.2155255,70.5332843 C51.899821,74.4860987 50.5896915,78.4152436 49.2809558,82.3457808 C41.7518926,81.9141597 34.264642,81.0996488 26.9641546,79.1489996 C23.3097296,78.1729788 19.7514737,77.8360359 16.1040175,78.9095195" id="Fill-12" fill="#FEFEFE"></path>
                <path d="M84.1904707,81.0401964 C91.3989703,79.6116696 98.5684448,78.0035327 105.172055,74.6118258 C108.289884,73.0134352 110.570067,70.4501624 111.75894,67.0417475 C112.893456,63.7962349 113.94156,60.5214833 115.070501,57.2745783 C116.177142,54.090328 115.509534,51.3265603 113.234926,48.9373283 C110.167272,45.7113082 106.206221,44.0878557 102.144819,42.6537596 C101.525992,42.433772 100.919709,42.1720147 100.309244,41.9283576 C102.363639,42.2583389 104.43894,42.4908574 106.472428,42.9322248 C110.659267,43.8428063 114.763875,45.0666611 118.483807,47.2902062 C119.844111,48.1033248 121.136122,49.1002305 122.270638,50.2113069 C124.798909,52.6854708 125.46373,55.7388424 124.421202,59.1152338 C123.508292,62.0753195 122.529877,65.0159127 121.495711,67.9300517 C120.223212,71.5347846 117.636404,74.0590722 114.6022,76.1545234 C110.117097,79.2566264 105.12188,81.2392991 99.8952993,82.5578321 C94.1781173,83.9933206 88.4023976,85.1879366 82.6531592,86.4855847 C82.5737152,86.3658447 82.4984524,86.2419276 82.4190084,86.1166182 C83.0085666,84.4263341 83.5995187,82.7332653 84.1904707,81.0401964" id="Fill-14" fill="#FFC82F"></path>
                <path d="M106.357861,96.0973703 C104.229598,96.5122835 102.115272,97.0441522 99.9702833,97.3184405 C92.7269398,98.2331989 85.4891714,98.216491 78.284853,96.877073 C74.2736268,96.1280015 70.373901,94.9932555 66.6372445,93.3085407 C65.8971607,92.977167 65.6574349,92.640224 65.9333983,91.7672354 C69.4442666,80.719126 72.9147159,69.655701 76.3949216,58.5950606 C79.6131013,58.8108712 82.8298873,59.0238971 86.3254242,59.2550233 C82.6305804,70.3630028 79.0109992,81.2468177 75.3719056,92.1905026 C78.2416466,93.9462261 81.3497197,94.8609845 84.6069246,95.3719683 C91.8293618,96.4983603 99.0963991,96.2087564 106.357861,96.0973703" id="Fill-16" fill="#FFC82F"></path>
                <path d="M76.4445392,39.9189522 C68.0318355,41.2611548 59.606588,41.9071942 51.2315156,39.7825042 C49.5799162,39.3661986 47.9826733,38.4152398 46.5721935,37.4085878 C45.2606702,36.4687676 44.5763366,35.0861875 45.3275704,33.2831249 C45.9477913,31.8002974 46.3923991,30.2339303 46.8049505,28.6773094 C47.0279513,27.8419136 47.5018279,27.4075078 48.2279741,27.0566416 C52.8622087,24.8247425 57.782163,23.6245572 62.8414928,23.0161106 C71.3057654,22.002497 79.7616756,22.3004548 88.1938919,23.4672243 C88.4614928,23.5020325 88.7151561,23.653796 88.9757883,23.7526512 C88.4587053,23.8278368 87.9332597,23.9963083 87.420358,23.9684618 C78.3372582,23.4365931 69.3391775,23.9141611 60.504166,26.2852928 C56.6323153,27.3225759 56.6476466,27.3713073 55.4030236,31.1695736 C54.9012719,32.6983479 54.3967327,34.2271222 53.8573496,35.8631056 C56.2267327,37.4252957 58.7940289,38.4987793 61.5453008,38.7855986 C66.4959177,39.3007593 71.4771973,39.5541627 76.4445392,39.9189522" id="Fill-18" fill="#FFC82F"></path>
                <path d="M106.106707,25.555853 C112.400903,25.4375053 118.490218,26.682245 124.621345,28.534039 C126.153081,23.7458288 127.668093,19.0272349 129.176136,14.3086409 L136.921231,14.3086409 C134.360903,22.240724 131.804757,30.1658455 129.213767,38.1967838 C123.874292,30.5097501 115.801665,28.0397632 107.490705,26.0097514 C107.019616,25.896973 106.566646,25.7090089 106.106707,25.555853" id="Fill-20" fill="#FFC82F"></path>
                <path d="M16.1040175,78.9095195 C19.7514737,77.8360359 23.3097296,78.1729788 26.9641546,79.1489996 C34.264642,81.0996488 41.7518926,81.9141597 49.2809558,82.3457808 C48.9311234,83.4373647 48.6272848,84.5526181 48.1994021,85.6066091 C48.0725704,85.9198825 47.5680312,86.3166955 47.2809177,86.284672 C40.6564014,85.4980077 34.0081912,84.7948829 27.6066756,82.8038562 C23.5313366,81.5354469 19.471329,80.8225758 15.0461577,81.8083429 C15.447559,80.7097974 15.7764851,79.8061776 16.1040175,78.9095195" id="Fill-22" fill="#FFC82F"></path>
            </g>
        </g>
    </g>
</svg>