<?xml version="1.0" encoding="UTF-8"?>
<svg width="200px" height="200px" viewBox="0 0 200 200" version="1.1" xmlns="http://www.w3.org/2000/svg" xmlns:xlink="http://www.w3.org/1999/xlink">
    <!-- Generator: Sketch 54.1 (76490) - https://sketchapp.com -->
    <title>toledo</title>
    <desc>Created with Sketch.</desc>
    <g id="toledo" stroke="none" stroke-width="1" fill="none" fill-rule="evenodd">
        <g id="toledo_BGD">
            <g id="toledo" transform="translate(0.000000, 41.000000)">
                <g id="g10" transform="translate(100.000000, 59.283591) scale(-1, 1) rotate(-180.000000) translate(-100.000000, -59.283591) translate(0.000000, 0.783591)">
                    <g id="g12">
                        <polyline id="path18" fill="#FDDC04" fill-rule="nonzero" points="73.2451264 83.8157928 65.4022548 73.8494341 0 51.4925115 73.2451264 83.8157928 73.2451264 83.8157928"></polyline>
                        <path d="M119.718561,90.6231772 C126.653946,93.4211259 130.317945,95.2639976 136.813535,98.9690232 C143.661535,102.874664 147.380099,105.383382 153.620099,110.201433 C137.210663,110.058664 127.591792,108.220715 112.294972,102.278562 C99.1938437,97.1893309 92.0582541,93.0182541 81.1314852,84.1780492 L79.6418442,86.2379466 C83.7542543,90.338049 86.296203,92.4607156 90.9965105,95.8703566 C95.3296386,99.0141514 97.9101514,100.633844 102.648613,103.12492 C94.1468694,101.578664 90.6728182,100.827074 83.0711774,98.2125104 C77.4445109,96.2765104 68.2588701,90.6289208 67.4420496,86.4512799 C64.3495369,87.8810234 62.5025625,88.5247157 59.1868703,89.3070747 C55.6923063,90.1316901 53.6447166,90.4086131 50.0545629,90.48369 C59.9261523,95.5232797 65.8457419,97.8412283 76.5074853,100.869331 C88.9780491,104.411485 96.3643053,105.60451 109.313228,106.22892 C119.484715,110.923895 125.703381,112.866459 136.749945,114.733125 C150.114048,116.991587 158.104611,117.035074 171.500303,114.973946 C162.600201,104.600613 156.546047,99.3563052 144.99815,92.0463567 C131.491279,83.4970236 122.711792,79.8683057 107.098254,76.4369212 C97.0601001,68.6707675 91.3333311,64.5546651 79.2041006,58.2363062 C74.1489212,55.6032807 70.2326136,53.7275884 65.145024,51.6012295 C65.145024,51.6012295 65.2348702,52.6190756 68.394665,54.4155884 C75.1684084,57.8748703 81.0646134,60.9919985 88.1181516,66.4237932 C95.5454335,72.1439982 98.2531257,75.1048186 103.964715,81.4067672 C97.7784591,77.8572288 94.2387669,75.9351776 87.8802029,72.7044084 C81.5565108,69.4912803 77.9478955,67.7513829 71.4719982,64.855383 C75.3952802,70.1731265 80.7154852,79.7784595 80.7154852,79.7784595 C88.7019465,82.8779466 93.2525105,84.5124081 101.193433,87.7263568 L122.872202,96.5005104 C121.928202,94.1448182 120.7561,92.5091259 119.718561,90.6231772 L119.718561,90.6231772 Z M116.880407,85.3144594 C116.045125,84.1222543 115.157741,82.99528 113.967587,81.57128 C122.70851,84.6990748 127.527792,86.8918953 135.663997,91.362049 C142.475894,95.1044079 146.199791,97.4810232 152.461535,102.085741 L153.186868,104.785228 C146.818458,100.295792 143.075689,97.9417411 136.222766,94.2334335 C128.422151,90.0123054 125.180305,88.4402029 116.880407,85.3144594 Z M58.1489216,92.0073823 C59.7411267,91.9130233 60.6473831,91.7817413 62.1883061,91.3714849 C63.4211266,91.0428695 64.1078958,90.7999977 65.2705625,90.2761003 C67.5630752,92.7409208 68.4229726,93.7595874 71.84287,95.8715873 C75.7649212,98.2933309 79.5150749,99.7969206 84.4270748,101.23651 C78.4373314,100.277741 74.0274853,98.9050232 67.7140496,96.4270745 C63.8888189,94.9259463 61.7796908,93.9323053 58.1489216,92.0073823 L58.1489216,92.0073823 L58.1489216,92.0073823 Z" id="path20" fill="#FDDC04"></path>
                        <polyline id="path22" fill="#FFFFFF" fill-rule="nonzero" points="34.5892504 54.7314858 36.1381324 4.75478962 21.3530251 0.538621525 19.7133123 53.4445115 9.38157925 50.4984603 9.0226049 62.0771267 44.4713835 72.1854341 44.8303579 60.6067677 34.4985427 57.6611268 29.3522454 56.1932294 34.5892504 54.7314858 34.5892504 54.7314858"></polyline>
                        <polyline id="path26" fill="#FFFFFF" fill-rule="nonzero" points="86.1087158 29.3636095 80.8094339 25.6983788 85.9540491 26.4389327 96.7232796 27.727548 96.2084079 17.9844508 73.0096392 14.9115483 75.7571263 68.3130239 88.1673824 70.46687 86.1087158 29.3636095 86.1087158 29.3636095"></polyline>
                        <polyline id="path30" fill="#FFFFFF" fill-rule="nonzero" points="115.150356 59.8256395 110.489843 62.3967164 115.535177 62.6998959 126.764715 63.3616394 128.048407 72.9366136 104.571485 71.5265623 97.4244078 18.202256 121.784612 19.664738 123.067894 29.2397531 110.924305 28.5107275 112.710972 41.84164 123.161843 42.468922 124.385638 51.60205 113.935177 50.974768 115.150356 59.8256395 115.150356 59.8256395"></polyline>
                        <path d="M157.154868,27.9055993 C154.491073,19.3522457 159.300509,16.4229329 169.375996,15.1757945 C179.451893,13.9282048 185.660713,15.4929637 188.324098,24.0468097 L198.301944,56.0861524 C200.965739,64.6395881 196.156303,67.5688188 186.080816,68.8164085 C176.004919,70.063588 169.796098,68.4988701 167.132714,59.9450241 L157.154868,27.9055993 Z M179.290662,57.4075883 L175.276714,60.8127164 L183.279585,59.8219472 C185.52697,59.5433831 186.240406,58.9345626 185.631175,56.9776396 L176.059893,26.2429532 C175.450252,24.2855789 174.422149,23.8855789 172.175175,24.164102 C169.928201,24.4422968 169.216406,25.0572301 169.825637,27.0141121 L179.290662,57.4075883 Z" id="path34" fill="#FFFFFF"></path>
                        <path d="M123.462971,19.3230764 L139.066253,19.264738 C150.26215,19.2229329 154.311381,21.5934354 157.985227,38.7852708 L160.779483,51.859691 C164.453329,69.0514855 161.439175,71.5208187 150.242868,71.5626649 L134.639997,71.6209213 L123.462971,19.3230764 Z M144.728202,62.6190754 L147.894971,62.6071779 C150.495586,62.5973318 150.826253,61.4395882 149.992612,57.5388704 L144.898048,33.7012915 C144.064407,29.8006557 143.239381,28.6474249 140.639586,28.6569018 L137.46092,28.6690865 L144.089432,59.8006139 L139.739484,62.6379472 L144.728202,62.6190754 Z" id="path38" fill="#FFFFFF"></path>
                        <path d="M39.52324,17.0261329 C39.52324,8.34998953 45.1109732,7.45481007 55.3304602,9.98527155 C65.5499471,12.515692 71.1376392,16.1780509 71.1376392,24.8537019 L71.1376392,57.3505627 C71.1376392,66.0258445 65.5499471,66.9218445 55.3304602,64.391383 C45.1109732,61.8609215 39.52324,58.1981524 39.52324,49.5228706 L39.52324,17.0261329 Z M52.1690243,51.6459474 L47.2135373,53.2586653 L55.3304602,55.2689217 C57.6094345,55.8330242 58.491896,55.542973 58.491896,53.5577423 L58.491896,22.3839584 C58.491896,20.3987277 57.6094345,19.6660098 55.3304602,19.10162 C53.0514859,18.5370252 52.1690243,18.8336406 52.1690243,20.8189123 L52.1690243,51.6459474 Z" id="path42" fill="#FFFFFF"></path>
                    </g>
                </g>
            </g>
        </g>
    </g>
</svg>