<?xml version="1.0" encoding="UTF-8"?>
<svg width="200px" height="200px" viewBox="0 0 200 200" version="1.1" xmlns="http://www.w3.org/2000/svg" xmlns:xlink="http://www.w3.org/1999/xlink">
    <!-- Generator: Sketch 54.1 (76490) - https://sketchapp.com -->
    <title>towson</title>
    <desc>Created with Sketch.</desc>
    <g id="towson" stroke="none" stroke-width="1" fill="none" fill-rule="evenodd">
        <g id="towson_BGD">
            <g id="towson" transform="translate(1.000000, 31.000000)">
                <g id="g10" transform="translate(98.750703, 68.999141) scale(-1, 1) rotate(-180.000000) translate(-98.750703, -68.999141) translate(0.000000, 0.020779)" fill-rule="nonzero">
                    <g id="g12">
                        <path d="M34.2432127,61.2335714 L15.542651,71.6691233 C15.542651,71.6691233 33.7303322,90.7095744 34.2432127,90.7095744 C34.7560932,90.7095744 80.9724608,86.3866996 80.9724608,86.3866996 L78.2008635,45.0888267 L34.2432127,61.2335714" id="path14" fill="#BBBABA"></path>
                        <path d="M33.4957884,71.5740942 C37.1318222,71.9895222 40.3114044,72.3530217 40.3114044,72.3530217 C43.2261513,72.7038853 45.6131315,73.4476746 47.5595849,74.5783312 C47.5571616,74.579889 47.5554306,74.58162 47.5531804,74.5831778 C51.4374324,71.6445438 57.1331237,68.1343501 65.9528337,64.1637237 C65.0717801,62.6155619 64.2582336,60.9626777 63.5256955,59.2097445 C52.1865876,62.5515168 40.1109604,68.2408036 32.6365448,72.0035429 C32.9126314,71.8645476 33.2074122,71.7179361 33.4957884,71.5740942 Z M125.670266,83.5607505 C126.20738,83.4555087 126.740685,83.3478436 127.267587,83.2365435 C126.740685,83.3478436 126.207207,83.4555087 125.670266,83.5607505 Z M123.064321,45.3226781 C122.872358,45.1679311 122.681088,45.0130111 122.497607,44.8549754 C122.681088,45.0130111 122.872358,45.1679311 123.064321,45.3226781 Z M77.9065531,43.5719462 C77.8735472,43.5386129 77.839559,43.5054974 77.8065531,43.4719462 C77.8338615,43.4998329 77.8684391,43.5342556 77.9065531,43.5719462 Z M91.3797494,51.7049884 C91.346492,51.6718558 91.3130068,51.6381209 91.2797494,51.6049884 C91.3130068,51.6381209 91.346492,51.6718558 91.3797494,51.7049884 Z M92.6785301,52.1754606 C92.6430457,52.1421273 92.6075612,52.1092634 92.5720767,52.0754606 C92.6075612,52.1092634 92.6430457,52.1421273 92.6785301,52.1754606 Z M94.0124003,52.6142564 C93.9725884,52.5807681 93.9326035,52.5482099 93.8927916,52.5142564 C93.9326035,52.5482099 93.9725884,52.5807681 94.0124003,52.6142564 Z M90.1206563,51.1712631 C90.0875313,51.1502631 90.0544063,51.1272631 90.0206563,51.1052631 C90.0544063,51.1272631 90.0875313,51.1502631 90.1206563,51.1712631 Z M70.8204385,57.2471933 C70.6083971,57.1585687 70.402414,57.0702902 70.2024893,56.9823579 C70.402414,57.0702902 70.6083971,57.1585687 70.8204385,57.2471933 Z M70.7846078,58.3807925 C70.6942522,58.1765404 70.6044159,57.9705573 70.5161375,57.7590352 C70.6044159,57.9707304 70.6944253,58.1763673 70.7846078,58.3807925 Z M46.3302641,75.5784252 C46.3639933,75.5450919 46.3962974,75.5120535 46.4302641,75.4784252 C46.3962974,75.5120535 46.3639933,75.5450919 46.3302641,75.5784252 Z M45.9724767,75.8624741 C46.0062487,75.8288741 46.0387048,75.7960741 46.0724767,75.7624741 C46.0387048,75.7960741 46.0062487,75.8288741 45.9724767,75.8624741 Z M45.6271522,76.1411571 C45.6606208,76.1079047 45.693278,76.0748949 45.7271522,76.0411571 C45.693278,76.0748949 45.6606208,76.1079047 45.6271522,76.1411571 Z M45.3057148,76.4181091 C45.3393511,76.3846866 45.3720784,76.3515316 45.4057148,76.3181091 C45.3720784,76.3515316 45.3393511,76.3846866 45.3057148,76.4181091 Z M44.9908549,76.6903875 C45.0245111,76.6570542 45.0571988,76.6237209 45.0908549,76.5903875 C45.0571988,76.6237209 45.0245111,76.6570542 44.9908549,76.6903875 Z M44.6856884,76.9585117 C44.7191923,76.9250815 44.7519288,76.891942 44.7856884,76.8585117 C44.7519288,76.891942 44.7191923,76.9250815 44.6856884,76.9585117 Z M44.3909076,77.2230009 C44.4243331,77.1896676 44.457206,77.1566429 44.4909076,77.1230009 C44.457206,77.1566429 44.4243331,77.1896676 44.3909076,77.2230009 Z M123.308211,83.9959114 C123.022951,84.0457627 122.736305,84.0945755 122.448275,84.1425228 C122.736479,84.0945755 123.022778,84.0455896 123.308211,83.9959114 Z M125.091436,83.6708389 C124.74992,83.7359226 124.407365,83.8004871 124.061867,83.8629744 C124.407365,83.8004871 124.74992,83.7359226 125.091436,83.6708389 Z M121.567741,84.2858455 C121.330947,84.3235802 121.092249,84.3597571 120.853724,84.396107 C121.092422,84.3597571 121.330947,84.3234071 121.567741,84.2858455 Z M119.825367,84.5496423 C119.687929,84.5839796 119.548588,84.6159073 119.410458,84.6496423 C119.548588,84.6159073 119.687929,84.5839796 119.825367,84.5496423 Z M114.931964,85.1905313 C114.956702,85.1755313 114.981093,85.1585313 115.00618,85.1435313 C114.972556,85.1635313 114.939629,85.1855313 114.90618,85.2045313 C114.914716,85.1995313 114.923427,85.1955313 114.931964,85.1905313 L114.931964,85.1905313 Z M113.967312,85.2473883 C113.463606,85.2955087 112.959899,85.343456 112.449096,85.3862105 C112.959899,85.3432829 113.464644,85.2962011 113.967312,85.2473883 Z M106.669973,86.6817777 C106.703553,86.6486842 106.736268,86.6155907 106.770368,86.5817777 C106.736268,86.6155907 106.703726,86.6486842 106.669973,86.6817777 Z M125.81354,47.1418577 C125.780206,47.108414 125.746469,47.0749703 125.71354,47.0418577 C125.746267,47.0749703 125.780206,47.108414 125.81354,47.1418577 Z M126.121871,47.3000666 C126.072019,47.2664743 126.022514,47.2330763 125.973875,47.2000666 C126.022341,47.2330763 126.072193,47.2664743 126.121871,47.3000666 Z M126.440193,47.4790957 C126.373724,47.4398031 126.308121,47.4006837 126.243383,47.3620835 C126.307948,47.4006837 126.373724,47.4398031 126.440193,47.4790957 Z M126.762495,47.6684616 C126.682179,47.621726 126.603248,47.5751634 126.525182,47.5294664 C126.603075,47.5751634 126.682352,47.621726 126.762495,47.6684616 Z M127.094492,47.8609433 C126.999809,47.8064184 126.906684,47.7525858 126.814943,47.6990995 C126.90651,47.7525858 126.999982,47.8064184 127.094492,47.8609433 Z M88.9478134,41.0264599 C88.6481859,41.0946594 88.3466544,41.161474 88.0428727,41.2262116 C88.3466544,41.161474 88.6481859,41.0946594 88.9478134,41.0264599 Z M89.8273091,40.8201307 C89.7817851,40.8540016 89.7355688,40.8867973 89.6900448,40.9201307 C89.7355688,40.8867973 89.7817851,40.8540016 89.8273091,40.8201307 Z M96.6069214,53.287645 C96.6401798,53.3218792 96.673663,53.3534107 96.7069214,53.387645 C96.673663,53.3534107 96.6401798,53.3218792 96.6069214,53.287645 Z M95.2386053,52.9187795 C95.276167,52.9528454 95.3137286,52.985263 95.3512902,53.0187795 C95.3137286,52.985263 95.276167,52.9528454 95.2386053,52.9187795 Z M104.370925,59.8325404 C104.319516,59.8581501 104.268799,59.8809144 104.217909,59.9048981 C104.198522,59.9146542 104.179482,59.9227843 104.160095,59.9325404 C104.230718,59.897581 104.300302,59.8683127 104.370925,59.8325404 Z M102.962797,60.1162431 C102.917965,60.1522143 102.873653,60.1817107 102.828648,60.2162431 C102.873653,60.1817107 102.917965,60.1522143 102.962797,60.1162431 Z M101.608107,60.365673 C101.57443,60.381673 101.54144,60.394673 101.508107,60.410673 C101.54144,60.394673 101.57443,60.381673 101.608107,60.365673 Z M71.8082428,60.1402544 C71.775465,60.1059032 71.7410206,60.0738422 71.7082428,60.0402544 C71.7410206,60.0738422 71.775465,60.1059032 71.8082428,60.1402544 Z M72.038113,60.3069449 C72.0054207,60.2733734 71.9708053,60.2412306 71.938113,60.2069449 C71.9708053,60.2412306 72.0054207,60.2733734 72.038113,60.3069449 Z M72.2122917,60.3904039 C72.2002917,60.3824039 72.1872917,60.3744039 72.1762917,60.3674039 C72.1872917,60.3744039 72.2002917,60.3824039 72.2122917,60.3904039 Z M73.8767771,63.7969354 C73.7633998,63.6418422 73.6496764,63.4824217 73.5356068,63.3185008 C73.6496764,63.4824217 73.7633998,63.6418422 73.8767771,63.7969354 Z M73.4919869,63.2560135 C72.8196859,62.2842581 72.1392494,61.1601791 71.4870274,59.8671594 C71.5039907,59.8811801 71.5219926,59.8943353 71.539129,59.9080098 C71.5219926,59.8941622 71.5039907,59.881007 71.4870274,59.8671594 L71.4870274,59.8671594 C71.4865081,59.8668132 71.486335,59.866467 71.4858157,59.8662939 C71.264081,59.4268057 71.0458082,58.9686232 70.8320359,58.4901886 C71.6744893,60.3795206 72.590335,61.9538197 73.4919869,63.2560135 L73.4919869,63.2560135 Z M68.9582824,75.6271138 C70.0165853,74.5760809 71.1785721,73.4800433 72.4322992,72.3891986 C71.8629897,71.9083406 71.0760998,71.1709559 70.1606003,70.1474451 C64.1749749,71.7889051 61.3272158,72.5851421 56.9368339,74.2529125 L68.9582824,75.6271138 Z M67.6699362,76.9364045 C67.7102674,76.8946886 67.7504254,76.8527996 67.7911027,76.8107375 C67.7504254,76.8527996 67.7102674,76.8945155 67.6699362,76.9364045 Z M67.3394978,77.2820752 C67.3820792,77.2372436 67.4255261,77.1918927 67.4687998,77.1465418 C67.4255261,77.1918927 67.3822523,77.2372436 67.3394978,77.2820752 Z M66.93359,77.7125625 C66.9837876,77.658903 67.0339852,77.6054167 67.0850482,77.5512379 C67.0339852,77.6054167 66.9837876,77.658903 66.93359,77.7125625 Z M66.6228845,78.0462897 C66.6687547,77.9966114 66.7149711,77.94676 66.7617067,77.8967356 C66.7149711,77.94676 66.6687547,77.9966114 66.6228845,78.0462897 Z M66.3405665,78.3524947 C66.3793398,78.3102596 66.4188055,78.267332 66.4580981,78.2247506 C66.4188055,78.267332 66.3793398,78.3102596 66.3405665,78.3524947 Z M66.0122053,78.742602 C66.0456292,78.7091868 66.0785097,78.6760172 66.1122053,78.642602 C66.0785097,78.6760172 66.0456292,78.7091868 66.0122053,78.742602 Z M65.7361188,79.0697516 C65.7691927,79.0365348 65.8026557,79.003318 65.8361188,78.9697516 C65.8026557,79.003318 65.7691927,79.0365348 65.7361188,79.0697516 Z M54.985707,74.9748918 L68.1163483,76.4756256 C68.1147904,76.4771834 68.1130594,76.4789144 68.1116747,76.4804722 C68.1132325,76.4787413 68.1149635,76.4770103 68.1165213,76.4752794 L68.1163483,76.4756256 L54.9858801,74.9745456 C54.2469375,75.2553057 53.5214963,75.5421242 52.801248,75.8329238 C53.5213232,75.5422973 54.2467644,75.2554788 54.985707,74.9748918 L54.985707,74.9748918 Z M49.4421662,77.2514374 C48.9935039,77.4496312 48.545361,77.6519792 48.0970449,77.8569237 C48.545361,77.6518061 48.9935039,77.4496312 49.4421662,77.2514374 Z M47.6511521,78.0627337 C47.3189828,78.216269 46.985948,78.3717083 46.652567,78.5293978 C46.9861211,78.3717083 47.3189828,78.2164421 47.6511521,78.0627337 Z M43.5465502,80.0460563 C43.4326537,80.1033508 43.3187571,80.1606452 43.2045144,80.218459 C43.3187571,80.1606452 43.4326537,80.1033508 43.5465502,80.0460563 Z M44.6718408,79.4848823 C44.5814852,79.5293677 44.4904373,79.5750648 44.3997355,79.6198964 C44.4904373,79.5750648 44.5814852,79.5293677 44.6718408,79.4848823 Z M46.0282133,78.8259096 C45.9252218,78.8752417 45.8222303,78.9245738 45.7188926,78.9744251 C45.8222303,78.9245738 45.9252218,78.8752417 46.0282133,78.8259096 Z M41.9542492,80.874267 C42.0079086,80.8411407 42.0620874,80.8071863 42.1155737,80.774267 C42.0620874,80.8071863 42.0079086,80.8411407 41.9542492,80.874267 Z M44.1213987,77.4822972 C44.1545987,77.4489639 44.1877987,77.4156306 44.2213987,77.3822972 C44.2073987,77.3963323 44.1929987,77.4103674 44.1789987,77.4244025 C44.1593987,77.4437007 44.1409987,77.4625604 44.1213987,77.4822972 Z M43.7454363,77.7854139 C43.7544363,77.7784139 43.7624363,77.7704139 43.7704363,77.7624139 C43.7624363,77.7704139 43.7544363,77.7784139 43.7454363,77.7854139 Z M40.2054703,81.4136311 C40.2386225,81.3807165 40.2720464,81.3472994 40.3054703,81.3136311 C40.2720464,81.3472994 40.2386225,81.3807165 40.2054703,81.4136311 Z M39.9124205,81.6973827 C39.9759463,81.6295295 40.0406839,81.5601184 40.1057676,81.4900149 C40.0406839,81.5601184 39.9759463,81.6297026 39.9124205,81.6973827 Z M39.7150921,81.9068277 C39.7755023,81.8431287 39.8364317,81.7785643 39.8980536,81.7126151 C39.8364317,81.7785643 39.7755023,81.8431287 39.7150921,81.9068277 Z M39.4698165,82.1637007 C39.5338617,82.0974053 39.5989454,82.0293789 39.6643753,81.960314 C39.5989454,82.0293789 39.5338617,82.0974053 39.4698165,82.1637007 Z M102.615,87.3953242 C102.581949,87.3963242 102.548051,87.3993242 102.515,87.4003242 C102.548051,87.3993242 102.581949,87.3963242 102.615,87.3953242 Z M103.323997,87.3413186 C103.29114,87.3493186 103.257331,87.3553186 103.223997,87.3633186 C103.257331,87.3553186 103.29114,87.3493186 103.323997,87.3413186 Z M103.546598,87.3094691 C103.51344,87.3274691 103.479755,87.3424691 103.446598,87.3594691 C103.479755,87.3434691 103.51344,87.3274691 103.546598,87.3094691 Z M103.7872,87.2719075 C103.753866,87.2959075 103.7203,87.3179075 103.6872,87.3399075 C103.7203,87.3179075 103.753866,87.2949075 103.7872,87.2719075 Z M104.032995,87.2296723 C103.999504,87.2546723 103.966249,87.2806723 103.932995,87.3056723 C103.966249,87.2806723 103.99974,87.2546723 104.032995,87.2296723 Z M104.280694,87.1836291 C104.247449,87.2086291 104.213938,87.2346291 104.180694,87.2596291 C104.213938,87.2346291 104.247449,87.2086291 104.280694,87.1836291 Z M104.530297,87.1386244 C104.497141,87.1516244 104.463452,87.1666244 104.430297,87.1796244 C104.463452,87.1666244 104.497141,87.1516244 104.530297,87.1386244 Z M106.156524,86.7394673 C106.122922,86.7694673 106.089857,86.8004673 106.056524,86.8314673 C106.089857,86.8004673 106.123191,86.7694673 106.156524,86.7394673 Z M106.4472,86.6593243 C106.412754,86.693352 106.379346,86.7259909 106.345247,86.7593243 C106.379346,86.7259909 106.412927,86.6926576 106.4472,86.6593243 Z M102.342895,87.4001709 C102.309562,87.4021709 102.276483,87.4051709 102.242895,87.4061709 C102.276483,87.4051709 102.309562,87.4021709 102.342895,87.4001709 Z M99.9219881,87.250011 C99.8885904,87.219011 99.8559649,87.190011 99.8219881,87.158011 C99.8559649,87.190011 99.8885904,87.219011 99.9219881,87.250011 Z M101.193371,87.3818765 C101.160214,87.3708765 101.126527,87.3558765 101.093371,87.3428765 C101.126527,87.3558765 101.160214,87.3698765 101.193371,87.3818765 Z M101.481055,87.4074945 C101.448053,87.3954945 101.414454,87.3814945 101.381055,87.3684945 C101.414454,87.3814945 101.448053,87.3954945 101.481055,87.4074945 Z M101.774624,87.411535 C101.741549,87.404535 101.708086,87.395535 101.674624,87.387535 C101.708086,87.395535 101.741549,87.404535 101.774624,87.411535 Z M102.062654,87.40644 C102.02939,87.40444 101.996126,87.40244 101.962654,87.39844 C101.996126,87.40244 102.02939,87.40444 102.062654,87.40644 Z M98.3067144,86.8939922 C98.2663832,86.861948 98.2244943,86.8271414 98.1836438,86.7939922 C98.2244943,86.8271414 98.2663832,86.861948 98.3067144,86.8939922 Z M98.7474143,86.9988878 C98.7020634,86.966441 98.6560201,86.9323984 98.6098037,86.8988878 C98.655847,86.9323984 98.7020634,86.966441 98.7474143,86.9988878 Z M99.1633616,87.095821 C99.1193955,87.0632766 99.0750831,87.0301405 99.0305977,86.995821 C99.0750831,87.0301405 99.1193955,87.0632766 99.1633616,87.095821 Z M99.5543832,87.1823685 C99.5145714,87.1490351 99.4751057,87.1164264 99.4347746,87.0823685 C99.4751057,87.1164264 99.5145714,87.1490351 99.5543832,87.1823685 Z M96.803038,86.4866996 C96.7675536,86.4544416 96.7299919,86.4194953 96.6941613,86.3866996 C96.7299919,86.4194953 96.7675536,86.4544416 96.803038,86.4866996 Z M97.3367088,86.5697956 C97.3357088,86.5687956 97.3337088,86.5687956 97.3327088,86.5687956 C97.3337088,86.5687956 97.3357088,86.5687956 97.3367088,86.5697956 Z M97.91046,86.7290402 C97.914846,86.7300402 97.9183548,86.7310402 97.9227407,86.7320402 C97.8902846,86.7220402 97.8551969,86.7110402 97.8227407,86.7010402 C97.8508109,86.7100402 97.8815127,86.7200402 97.91046,86.7290402 L97.91046,86.7290402 Z M94.5822291,85.7478059 C94.9329195,85.8525284 95.2865527,85.9600204 95.6429553,86.0706281 C95.8480729,86.1343271 96.0476514,86.1952565 96.2422102,86.2535896 C96.0474783,86.1950835 95.8480729,86.1343271 95.6429553,86.0706281 C95.2865527,85.9600204 94.9334388,85.8528746 94.5822291,85.7478059 Z M74.2733377,64.3248752 C74.1622108,64.1808601 74.0503914,64.033037 73.9382258,63.8807134 C74.0505645,64.033037 74.1622108,64.1810332 74.2733377,64.3248752 Z M78.7860977,68.6143426 C78.8170977,68.6323426 78.8270977,68.6373426 78.8430977,68.6463426 C78.8280977,68.6383426 78.8090977,68.6273426 78.7860977,68.6143426 Z M78.7322652,68.5824931 C78.7685555,68.6094931 78.80162,68.6344931 78.8322652,68.6564931 C78.8032329,68.6344931 78.7669426,68.6084931 78.7322652,68.5824931 Z M78.6432944,68.527622 C78.6802029,68.5648669 78.7130105,68.5980302 78.7432944,68.627622 C78.7133259,68.5980302 78.6798874,68.5648669 78.6432944,68.527622 Z M86.782741,62.8753775 C86.782741,62.8753775 86.7122913,62.9043775 86.5819508,62.9443775 C86.7122913,62.9043775 86.782741,62.8753775 86.782741,62.8753775 Z M74.8909407,65.091686 C74.8305306,65.0200247 74.7699473,64.9474979 74.7090179,64.8730671 L74.7093641,64.8730671 C74.7093641,64.8730671 74.7093641,64.8730671 74.7093641,64.8732401 C75.2135898,64.936766 75.7581467,64.9663653 76.3276293,64.9679231 C75.7579736,64.9663653 75.2135898,64.936766 74.7093641,64.8730671 C74.58162,64.7174546 74.4528373,64.5561301 74.323016,64.3894396 C74.5148053,64.6357538 74.7041712,64.8696052 74.8909407,65.091686 L74.8909407,65.091686 Z M76.2862596,66.6026324 C76.1695936,66.4880435 76.050158,66.3679156 75.9284722,66.2424217 C76.050158,66.3679156 76.1694205,66.4880435 76.2862596,66.6026324 Z M76.3002794,66.617479 C76.2972794,66.613479 76.2942794,66.610479 76.2912794,66.607479 C76.2922794,66.608479 76.2932794,66.610479 76.2952794,66.611479 C76.2972794,66.613479 76.2982794,66.615479 76.3002794,66.617479 Z M78.2115954,68.2371686 C78.2720056,68.279923 78.3280884,68.3192156 78.3800169,68.354527 C78.3280884,68.3190425 78.2720056,68.2800961 78.2115954,68.2371686 Z M76.6236218,66.9256277 C76.620333,66.922512 76.6168711,66.9192232 76.6135823,66.9161075 C76.5090329,66.8183088 76.4024064,66.7163558 76.2930103,66.60921 C76.2926641,66.6088638 76.2923179,66.6085176 76.2919718,66.6081714 C77.0838814,67.3843295 77.7525474,67.9105383 78.2008635,68.2295524 C77.8165926,67.955543 77.2697855,67.5297293 76.6236218,66.9256277 L76.6236218,66.9256277 Z M78.5198776,68.4692089 C78.484047,68.4394732 78.445793,68.4070944 78.403904,68.370971 C78.4466584,68.4075349 78.4856048,68.4407948 78.5219548,68.470971 C78.5212624,68.4705305 78.5203969,68.4698697 78.5198776,68.4692089 Z M78.5259378,68.4528702 C78.5251062,68.4522271 78.5246904,68.451584 78.5238588,68.4509409 C78.5600334,68.4872753 78.5935054,68.5210374 78.6238588,68.5509409 C78.5941291,68.5216805 78.5610729,68.4885615 78.5259378,68.4528702 Z M75.9110085,66.2242655 C75.9120085,66.2252655 75.9120085,66.2252655 75.9130085,66.2262655 C75.9110085,66.2242655 75.9090085,66.2222655 75.9070085,66.2202655 C75.9090085,66.2222655 75.9100085,66.2232655 75.9110085,66.2242655 Z M75.341334,65.6113173 C75.5346811,65.827686 75.7235277,66.0305534 75.9077008,66.2209579 C75.9073546,66.2206117 75.9070085,66.2202655 75.9068354,66.2200924 C75.7231816,66.029861 75.5341618,65.8271667 75.341334,65.6113173 L75.341334,65.6113173 Z M74.9655447,65.1797914 C75.07546,65.3090934 75.1841637,65.4344142 75.2918288,65.5555807 C75.1841637,65.4344142 75.07546,65.3090934 74.9655447,65.1797914 Z M62.8223616,82.5893413 C62.7853043,82.6083413 62.7517893,82.6243413 62.7223616,82.6363413 C62.7515169,82.6243413 62.7853043,82.6083413 62.8223616,82.5893413 Z M62.9099476,82.5780901 C62.8736419,82.5950901 62.8417948,82.6090901 62.8099476,82.6230901 C62.8417948,82.6090901 62.8739604,82.5950901 62.9099476,82.5780901 Z M62.9935525,82.5628578 C62.9576302,82.5858578 62.9255914,82.6058578 62.8935525,82.6258578 C62.9251059,82.6058578 62.9581156,82.5848578 62.9935525,82.5628578 Z M94.5695931,85.744171 C76.3098005,80.2833696 65.0433925,82.2421127 62.96556,82.5626847 C64.9210144,82.2613263 75.0406679,80.5073545 91.4819243,84.8748878 C92.488818,85.1423196 93.5168293,85.4303497 94.5695931,85.744171 Z M40.9497788,81.380965 C40.8460949,81.4351438 40.7422379,81.4896687 40.6382078,81.5445398 C40.7422379,81.4896687 40.8460949,81.4351438 40.9497788,81.380965 Z M153.401298,53.4848002 C152.115895,53.6554718 150.946638,53.7977559 149.831387,53.901613 C140.450503,54.6338048 131.863086,50.5993064 127.108685,47.8690788 C132.132941,50.7559573 141.431086,55.0971802 151.421784,53.7363072 C150.887266,53.8091802 150.35448,53.8607625 149.82377,53.9024784 C150.941618,53.7984483 152.112952,53.655818 153.401298,53.4848002 L151.682638,58.2452591 L153.401817,53.4837616 L153.401298,53.4848002 Z M182.208462,91.0874408 C182.213655,91.1035386 195.297907,136.147014 195.297907,136.147014 L6.71122241,123.73264 L2.07625733,105.867504 C2.07625733,105.867504 14.1762736,107.218857 16.4386254,107.471403 C15.750088,105.021243 8.52060186,79.2944778 8.52060186,79.2944778 C7.93903724,77.3985681 7.64842803,75.5831477 7.64842803,73.8577366 C7.64842803,71.449985 8.21450064,69.2184442 9.3465247,67.1902899 C11.9314563,62.5575751 17.562739,58.9964915 25.6310436,56.8907907 L28.2574142,56.2053344 L26.6154349,58.3664256 C23.9823136,61.8328263 22.920895,65.7409654 22.920895,68.7718591 C22.920895,69.3474 22.9717849,69.8760321 23.044831,70.3795655 C23.6233146,70.4458609 27.0751752,70.8403444 30.7420199,71.2594074 C39.4563151,63.3392722 55.3509375,52.9023355 73.9830574,48.8974362 C74.3415372,49.334328 74.6586472,49.7083863 74.6586472,49.7083863 L74.957063,50.0312085 C74.1843669,49.1570787 72.9697592,47.6674231 72.2117762,46.1684203 C55.1326647,51.3022452 40.3134816,58.3214209 30.0558713,63.659671 C41.9900799,53.5825988 56.1350579,43.0880215 82.7899584,35.8464187 C86.6922123,34.786731 90.6318547,33.3685636 94.8707784,31.9476267 C115.126183,25.1624754 124.056501,9.06206036 126.723895,3.31977188 C132.008832,12.1256516 139.374544,9.87283738 143.350709,8.03349519 C143.350709,8.03349519 142.660233,10.8433811 142.660233,12.1338217 C142.660233,14.5671567 143.024945,18.3833824 149.179511,21.248451 C147.81933,22.1364284 146.945027,22.7038339 146.005468,23.1907501 C146.218894,26.6616513 146.284151,28.226084 144.004662,31.4200331 C142.438153,29.986114 140.347165,28.9395816 138.68251,28.421162 C136.083835,30.0058469 135.883218,31.4551714 136.069987,32.5996756 C136.518303,35.3363077 136.073276,37.7425014 132.890232,40.1414251 C138.932632,44.8312613 149.901144,46.7770223 153.565738,45.0843262 C153.063244,39.8938993 151.734566,36.1723566 151.734566,36.1723566 C152.953674,36.1408533 169.181851,35.9025015 170.520568,49.237741 C171.236662,49.6471107 179.056402,54.1081153 179.056402,54.1081153 C171.561042,60.6260079 158.155699,75.8997385 130.057878,82.6104589 L141.394736,83.9065943 C144.39378,84.2678436 146.818322,85.0535219 148.794201,86.2378379 C148.790047,86.2241634 148.370811,84.7467975 148.370811,84.7467975 L164.934272,86.6420148 C164.934272,86.6420148 165.825885,89.7823044 166.535747,92.2838735 C166.682878,90.8260673 168.190363,81.1053978 160.498713,71.6537179 C176.664229,77.3246566 180.1469,84.3128483 182.208462,91.0874408 L182.208462,91.0874408 Z" id="path16" fill="#BBBABA"></path>
                        <path d="M24.4811734,68.975765 L26.3114801,69.1850368 L30.2216963,69.6319682 C35.1800029,65.2123333 41.425617,60.831991 47.887773,57.2478857 C49.2893233,56.470516 50.6958934,55.7310541 52.1074832,55.0295 C45.1722585,57.9087624 38.0937112,61.232879 30.7750811,65.0414885 L24.4875779,68.3136766 C24.4816927,68.4672118 24.4787501,68.6200547 24.4787501,68.7718591 C24.4787501,68.8397123 24.4794425,68.9075655 24.4811734,68.975765 L24.4811734,68.975765 Z M38.9783998,70.6326304 L40.4883075,70.8052061 L40.492808,70.8057254 L40.4974816,70.8062447 C43.1835699,71.1295862 45.4611541,71.7638063 47.4242246,72.737985 C51.7580044,69.5731159 57.133643,66.518162 63.7856842,63.4403597 C63.3889504,62.677703 63.0096993,61.8965253 62.6500078,61.101673 C55.7921566,63.2231254 47.7174475,66.476273 38.9783998,70.6326304 L38.9783998,70.6326304 Z M64.0226513,73.4949295 L68.3960698,73.9948279 C68.9695336,73.4359041 69.5443821,72.8925589 70.1169804,72.3684272 C69.9708882,72.2225081 69.8180453,72.0665495 69.6594903,71.9005514 C67.4198139,72.5159041 65.6360699,73.0126868 64.0226513,73.4949295 Z M146.237415,82.9346658 L148.54806,83.1989819 L164.896711,85.0696197 C164.879055,84.9543384 164.860015,84.8378455 164.840282,84.7204871 C164.096666,80.3140074 162.229317,76.2485249 159.290337,72.6370706 L159.028617,72.3154601 C153.338118,75.8692737 146.477844,79.2837459 138.14505,81.9670647 L141.571639,82.3587788 L141.576313,82.359298 L141.581159,82.3598173 C143.341016,82.5718587 144.930201,82.9215106 146.374333,83.4167354 L146.237415,82.9346658 Z M197.414859,137.8475 L195.195781,137.701408 L6.60885402,125.287207 L5.48590015,125.213295 L5.20327061,124.124008 L0.568373043,106.258872 L0,104.068182 L2.24921387,104.319343 L14.3131917,105.666541 L7.02589183,79.733966 C6.40532891,77.7054656 6.09057294,75.7283744 6.09057294,73.8577366 C6.09057294,71.1834187 6.72839343,68.6847923 7.98630949,66.4309221 C10.7827459,61.4191292 16.7481539,57.5989224 25.2375986,55.3833062 L27.8639692,54.69785 L32.2237132,53.5599234 L29.497813,57.1476637 L27.8558337,59.308928 C26.327751,61.3206382 25.2445224,63.7263126 24.7612411,66.0913097 L29.0508817,62.4692967 C34.899589,57.5307229 41.5010865,52.2795396 50.1283148,47.3378502 C59.5863993,41.9203226 70.1365401,37.6698015 82.3816273,34.3432616 C85.3656122,33.5326577 88.380408,32.5065505 91.5721068,31.4200331 C92.4836252,31.1096737 93.4261275,30.7889287 94.3757267,30.470607 C113.635143,24.0190097 122.4256,8.87510044 125.310921,2.66343023 L126.548204,0 L128.059669,2.5181862 C130.340542,6.31905836 133.145201,8.16643216 136.633411,8.16643216 C138.463026,8.16643216 140.446348,7.66066585 142.696583,6.61953398 L145.636775,5.25931878 L144.863733,8.4051821 C144.613957,9.42178641 144.218089,11.3332573 144.218089,12.1338217 C144.218089,13.9116286 144.218089,17.2203917 149.836926,19.8359957 L152.379518,21.0194463 L150.031311,22.552895 C149.023898,23.210483 148.296899,23.6821669 147.615944,24.0804585 C147.769479,27.2122665 147.559515,29.120639 145.272756,32.3251469 L144.25063,33.757335 L142.952764,32.5692109 C141.734348,31.4537866 140.163165,30.6270848 138.898187,30.144496 C137.421513,31.2095495 137.540429,31.937241 137.60759,32.3483416 C137.965551,34.5343585 137.982168,37.2877808 135.408591,39.9901401 C139.776471,42.6867873 145.848817,44.1288418 149.840561,44.1288418 C150.719364,44.1288418 151.381799,44.0609886 151.873215,43.9714984 C151.326581,39.6974364 150.27901,36.7285108 150.26724,36.6963152 L149.544222,34.6705843 L151.694408,34.6150208 C151.836,34.6115589 151.991266,34.6096548 152.15588,34.6096548 C153.856538,34.6096548 158.272538,34.8026558 162.53933,36.5907272 C167.925874,38.8480592 171.17227,42.8761532 171.970238,48.2715247 C174.04357,49.4553214 179.828406,52.7550316 179.828406,52.7550316 L181.734182,53.8429337 L180.077662,55.2836035 C179.130833,56.108055 178.097456,57.064405 176.901369,58.1716937 C173.209252,61.591878 168.377998,66.0655186 161.849027,70.4816916 C169.009621,73.0829634 174.223589,76.1624967 177.770306,79.8817892 C181.199318,83.4781842 182.646392,87.1748012 183.69881,90.6337588 L183.704003,90.6467409 L183.707465,90.659723 C183.747277,90.8011417 196.663626,135.263364 196.795179,135.712373 L197.414859,137.8475 Z M74.7093641,64.8740671 C74.7093641,64.8740671 74.7093641,64.8740671 74.7093641,64.8730671 L74.7093641,64.8730671 C74.7093641,64.8730671 74.7093641,64.8730671 74.7093641,64.8740671 L74.7093641,64.8740671 L74.7093641,64.8740671 Z M76.294491,66.6098638 C76.293491,66.6098638 76.293491,66.6088638 76.292491,66.6088638 C76.293491,66.6088638 76.293491,66.6098638 76.294491,66.6098638 L76.294491,66.6098638 Z M89.8273091,40.8201307 C89.7817851,40.8540016 89.7355688,40.8867973 89.6900448,40.9201307 C89.7355688,40.8867973 89.7817851,40.8540016 89.8273091,40.8201307 L89.8273091,40.8201307 Z M88.9478134,41.0264599 C88.6481859,41.0946594 88.3466544,41.161474 88.0428727,41.2262116 C88.3466544,41.1613009 88.6481859,41.0946594 88.9478134,41.0264599 L88.9478134,41.0264599 Z M77.8065531,43.4719462 C77.839559,43.5054974 77.8735472,43.538395 77.9065531,43.5719462 C77.8684391,43.5342556 77.8338615,43.4998329 77.8065531,43.4719462 L77.8065531,43.4719462 Z M122.497607,44.8549754 C122.681088,45.0130111 122.872358,45.1679311 123.064321,45.3226781 C122.872358,45.1679311 122.681088,45.0130111 122.497607,44.8549754 L122.497607,44.8549754 Z M125.81354,47.1418577 C125.796772,47.1253014 125.780004,47.108414 125.763439,47.0918577 C125.746671,47.0753014 125.729903,47.058414 125.71354,47.0418577 C125.729903,47.058414 125.746671,47.0753014 125.763439,47.0918577 C125.780004,47.108414 125.796772,47.1253014 125.81354,47.1418577 L125.81354,47.1418577 Z M126.121871,47.3000666 C126.078943,47.2711345 126.036016,47.2422025 125.993954,47.213853 C125.987203,47.2091928 125.980452,47.2047267 125.973875,47.2000666 C125.980452,47.2047267 125.987203,47.2091928 125.993954,47.213853 C126.036016,47.2422025 126.078943,47.2711345 126.121871,47.3000666 L126.121871,47.3000666 Z M126.440193,47.4790957 C126.424441,47.4697486 126.408862,47.4604014 126.393284,47.4510543 C126.342913,47.421282 126.292889,47.3916827 126.243383,47.3620835 C126.292889,47.3916827 126.342913,47.421282 126.393284,47.4510543 C126.408862,47.4604014 126.424441,47.4697486 126.440193,47.4790957 L126.440193,47.4790957 Z M126.762495,47.6684616 C126.709009,47.6373045 126.655869,47.6063205 126.603594,47.5753365 C126.577284,47.5599311 126.551146,47.5446987 126.525182,47.5294664 C126.55132,47.5446987 126.577284,47.5599311 126.603594,47.5753365 C126.655869,47.6063205 126.709009,47.6373045 126.762495,47.6684616 L126.762495,47.6684616 Z M127.094492,47.8609433 C127.016772,47.8161117 126.940091,47.7717994 126.864275,47.7278332 C126.847831,47.7181399 126.831387,47.7086197 126.814943,47.6990995 C126.831387,47.7086197 126.847831,47.7181399 126.864275,47.7278332 C126.940091,47.7717994 127.016772,47.8161117 127.094492,47.8609433 L127.094492,47.8609433 Z M90.1206563,51.1712631 C90.0919063,51.1532631 90.0625313,51.1332631 90.0337813,51.1142631 C90.0294063,51.1112631 90.0250313,51.1082631 90.0206563,51.1052631 C90.0250313,51.1082631 90.0294063,51.1112631 90.0337813,51.1142631 C90.0625313,51.1332631 90.0919063,51.1522631 90.1206563,51.1712631 L90.1206563,51.1712631 Z M91.3608428,51.6857113 C91.3337357,51.6586028 91.3066286,51.6314944 91.2797494,51.6049884 C91.3066286,51.6314944 91.3337357,51.6586028 91.3608428,51.6857113 C91.3672209,51.6923378 91.3733712,51.6989643 91.3797494,51.7049884 C91.3733712,51.6989643 91.3672209,51.6923378 91.3608428,51.6857113 L91.3608428,51.6857113 Z M92.5720767,52.0754606 C92.6075612,52.1092634 92.6430457,52.1421273 92.6785301,52.1754606 C92.6430457,52.1421273 92.6075612,52.1092634 92.5720767,52.0754606 L92.5720767,52.0754606 Z M94.0124003,52.6142564 C93.9924944,52.5975123 93.9725884,52.5812332 93.9526825,52.564489 C93.9326035,52.5482099 93.9126976,52.5314658 93.8927916,52.5142564 C93.9126976,52.5314658 93.9326035,52.5477448 93.9526825,52.564489 C93.9725884,52.5812332 93.9924944,52.5975123 94.0124003,52.6142564 L94.0124003,52.6142564 Z M95.2386053,52.9187795 C95.276167,52.9528454 95.3137286,52.985263 95.3512902,53.0187795 C95.3137286,52.985263 95.276167,52.9528454 95.2386053,52.9187795 L95.2386053,52.9187795 Z M96.6069214,53.287645 C96.6401798,53.3218792 96.673663,53.3534107 96.7069214,53.387645 C96.673663,53.3534107 96.6401798,53.3218792 96.6069214,53.287645 L96.6069214,53.287645 Z M70.2024893,56.9823579 C70.402414,57.0702902 70.6083971,57.1585687 70.8204385,57.2471933 C70.6083971,57.1585687 70.402414,57.0702902 70.2024893,56.9823579 L70.2024893,56.9823579 Z M153.401298,53.4848002 C152.112952,53.655818 150.941618,53.7984483 149.82377,53.9024784 C150.349979,53.8611087 150.878092,53.8102188 151.408282,53.7382113 C151.41261,53.737692 151.417629,53.7369996 151.421784,53.7363072 C151.417283,53.7369996 151.412783,53.737692 151.408282,53.7382113 C150.114397,53.9137296 148.833494,53.9936995 147.570593,53.9936995 C139.087379,53.9936995 131.480027,50.3808605 127.108685,47.8690788 C131.478469,50.3784371 139.08461,53.9890259 147.5699,53.9890259 C148.317325,53.9890259 149.072192,53.9609845 149.831387,53.901613 C150.946638,53.7977559 152.115895,53.6554718 153.401298,53.4848002 L153.401817,53.4837616 L151.682638,58.2452591 L153.401298,53.4848002 L153.401298,53.4848002 Z M70.7846078,58.3807925 C70.7359681,58.270531 70.6873284,58.1599233 70.6390349,58.0481039 C70.5978383,57.9527286 70.5568148,57.8566608 70.5161375,57.7590352 C70.5568148,57.8564877 70.5978383,57.9525555 70.6390349,58.0481039 C70.6873284,58.1599233 70.7359681,58.2703579 70.7846078,58.3807925 L70.7846078,58.3807925 Z M104.239546,59.8947543 C104.283339,59.8743461 104.326959,59.8543461 104.370925,59.8327135 C104.326959,59.8547543 104.283339,59.8743461 104.239546,59.8947543 C104.232276,59.8980196 104.225179,59.9016931 104.217909,59.9049584 C104.198522,59.9143461 104.179482,59.9229175 104.160095,59.9327135 C104.186752,59.9196522 104.213235,59.9069992 104.239546,59.8947543 L104.239546,59.8947543 Z M71.7582428,60.0898727 C71.7415761,60.0738422 71.7249095,60.0570483 71.7082428,60.0402544 C71.7249095,60.0570483 71.7415761,60.0738422 71.7582428,60.0898727 C71.7749095,60.1066666 71.7915761,60.1234605 71.8082428,60.1402544 C71.7915761,60.1234605 71.7749095,60.1066666 71.7582428,60.0898727 L71.7582428,60.0898727 Z M102.942545,60.1320704 C102.949296,60.1277539 102.956046,60.1219985 102.962797,60.1162431 C102.956046,60.1219985 102.949296,60.1277539 102.942545,60.1320704 C102.904464,60.1608474 102.866729,60.1867467 102.828648,60.2162431 C102.866729,60.1867467 102.904464,60.1608474 102.942545,60.1320704 L102.942545,60.1320704 Z M71.938113,60.2069449 C71.9706489,60.2412306 72.0050986,60.2733734 72.038113,60.3069449 C72.0050986,60.2733734 71.9706489,60.2412306 71.938113,60.2069449 L71.938113,60.2069449 Z M72.1762917,60.3674039 C72.1872917,60.3744039 72.2002917,60.3824039 72.2122917,60.3904039 C72.2002917,60.3824039 72.1872917,60.3744039 72.1762917,60.3674039 L72.1762917,60.3674039 Z M101.608107,60.365673 C101.57443,60.381673 101.54144,60.394673 101.508107,60.410673 C101.54144,60.394673 101.57443,60.381673 101.608107,60.365673 L101.608107,60.365673 Z M86.782741,62.8753775 C86.782741,62.8753775 86.7122913,62.9043775 86.5819508,62.9453775 C86.7122913,62.9043775 86.782741,62.8753775 86.782741,62.8753775 L86.782741,62.8753775 Z M70.8320359,58.4901886 C71.0456351,58.9686232 71.264081,59.4268057 71.4858157,59.8662939 C71.486335,59.866467 71.4865081,59.8668132 71.4870274,59.8671594 L71.4870274,59.8671594 C71.4974131,59.875641 71.508145,59.8839496 71.5188769,59.8920851 C71.5256276,59.897451 71.5323783,59.9026438 71.539129,59.9080098 C71.5323783,59.9026438 71.5256276,59.897451 71.5188769,59.8920851 C71.508145,59.8839496 71.4974131,59.875641 71.4870274,59.8671594 C72.1392494,61.1601791 72.8196859,62.2842581 73.4919869,63.2560135 C72.590335,61.9538197 71.6744893,60.3795206 70.8320359,58.4901886 L70.8320359,58.4901886 Z M73.750937,63.6233211 C73.6792757,63.5234453 73.6074412,63.4220116 73.5356068,63.3185008 C73.6076143,63.4218385 73.6792757,63.5234453 73.750937,63.6233211 C73.7929991,63.6818272 73.8348881,63.7396409 73.8767771,63.7969354 C73.8348881,63.7396409 73.7929991,63.6818272 73.750937,63.6233211 L73.750937,63.6233211 Z M74.1265532,64.1327397 C74.0638928,64.0500003 74.0010593,63.9660492 73.9382258,63.8807134 C74.0010593,63.9660492 74.0638928,64.0500003 74.1265532,64.1327397 C74.1755391,64.1976503 74.224525,64.2616955 74.2733377,64.3248752 C74.224525,64.2616955 74.1755391,64.1976503 74.1265532,64.1327397 L74.1265532,64.1327397 Z M74.8909407,65.091686 C74.8886905,65.0890896 74.8866134,65.0866663 74.8845362,65.0840699 C74.8833246,65.0826851 74.8821129,65.0813003 74.8809012,65.0799156 C74.823953,65.0120623 74.7666585,64.9433436 74.7090179,64.8730671 L74.7093641,64.8730671 C74.58162,64.7174546 74.4528373,64.5561301 74.323016,64.3892665 C74.4528373,64.5563032 74.58162,64.7174546 74.7093641,64.8730671 C75.1782785,64.9322655 75.6816387,64.9620379 76.2078476,64.9670576 C76.2476594,64.9674038 76.2874713,64.96775 76.3276293,64.9679231 C76.2874713,64.96775 76.2476594,64.9674038 76.2078476,64.9670576 C75.6816387,64.9620379 75.1782785,64.9322655 74.7093641,64.8732401 C74.7668316,64.9431705 74.823953,65.0122354 74.8809012,65.0799156 C74.8821129,65.0813003 74.8833246,65.0826851 74.8845362,65.0840699 C74.8866134,65.0866663 74.8886905,65.0890896 74.8909407,65.091686 L74.8909407,65.091686 Z M75.179317,65.4278366 C75.1085212,65.3468281 75.037206,65.2642618 74.9655447,65.1797914 C75.037206,65.2642618 75.1085212,65.3468281 75.179317,65.4278366 C75.2168786,65.4709372 75.2544403,65.5135186 75.2918288,65.5555807 C75.2544403,65.5135186 75.2168786,65.4709372 75.179317,65.4278366 L75.179317,65.4278366 Z M75.485349,65.7709109 C75.4375748,65.7186362 75.3894544,65.6653229 75.341334,65.6113173 C75.3896275,65.6653229 75.4375748,65.7186362 75.485349,65.7709109 C75.6284986,65.927908 75.7690517,66.0774621 75.9066623,66.2200924 C75.9070085,66.2202655 75.9073546,66.2206117 75.9077008,66.2209579 C75.769571,66.0781545 75.6286717,65.9282542 75.485349,65.7709109 L75.485349,65.7709109 Z M75.9070085,66.2202655 C75.9090085,66.2222655 75.9110085,66.2242655 75.9130085,66.2262655 C75.9120085,66.2252655 75.9120085,66.2252655 75.9110085,66.2242655 C75.9100085,66.2232655 75.9090085,66.2222655 75.9070085,66.2202655 L75.9070085,66.2202655 Z M76.0520621,66.368781 C76.0110386,66.3272382 75.970015,66.2851761 75.9284722,66.2424217 C75.970015,66.2851761 76.0110386,66.3272382 76.0520621,66.368781 C76.1311665,66.4490971 76.2092323,66.527163 76.2862596,66.6026324 C76.2092323,66.527163 76.1311665,66.4490971 76.0520621,66.368781 L76.0520621,66.368781 Z M76.2919718,66.6081714 C76.2921448,66.6083445 76.2923179,66.6086907 76.292491,66.6088638 C76.2923179,66.6086907 76.2921448,66.6083445 76.2919718,66.6081714 C76.2917987,66.6081714 76.2917987,66.6079983 76.2916256,66.6079983 C76.2914525,66.6078252 76.2914525,66.6076521 76.2912794,66.607479 C76.2914525,66.6076521 76.2916256,66.6078252 76.2916256,66.6079983 C76.2921448,66.6083445 76.292491,66.6086907 76.2928372,66.60921 C76.2928372,66.6090369 76.2928372,66.6090369 76.2928372,66.6090369 L76.2930103,66.60921 C76.4024064,66.7163558 76.5090329,66.8183088 76.6135823,66.9161075 C76.6168711,66.9192232 76.620333,66.922512 76.6236218,66.9256277 C77.2697855,67.5297293 77.8164195,67.955543 78.2008635,68.2295524 C77.7525474,67.9105383 77.0838814,67.3843295 76.2919718,66.6081714 L76.2919718,66.6081714 Z M78.3138946,68.309003 C78.2813527,68.2865006 78.2470799,68.2624404 78.2115954,68.2371686 C78.2470799,68.2624404 78.2813527,68.2865006 78.3138946,68.309003 C78.33657,68.3247546 78.3585531,68.339987 78.3800169,68.354527 C78.3587262,68.339987 78.33657,68.3249277 78.3138946,68.309003 L78.3138946,68.309003 Z M78.5219548,68.470971 C78.5212624,68.4705305 78.52057,68.47009 78.5200507,68.4694292 C78.5056838,68.4575349 78.4909708,68.4452001 78.4759115,68.4324248 C78.4530629,68.4130415 78.4291758,68.3927772 78.403904,68.370971 C78.4291758,68.3925569 78.4530629,68.4130415 78.4759115,68.4324248 C78.4909708,68.4449798 78.5055107,68.4573146 78.5198776,68.4692089 C78.5198776,68.4694292 78.5200507,68.4694292 78.5200507,68.4694292 C78.5207431,68.47009 78.5212624,68.4705305 78.5219548,68.470971 L78.5219548,68.470971 Z M78.5238588,68.4509409 C78.5246904,68.451584 78.5251062,68.4522271 78.5259378,68.4528702 C78.5610729,68.4885615 78.5941291,68.5216805 78.6238588,68.5509409 C78.5935054,68.5210374 78.5600334,68.4872753 78.5238588,68.4509409 L78.5238588,68.4509409 Z M78.7000767,68.5847649 C78.6820956,68.5669077 78.6631682,68.5480302 78.6432944,68.527622 C78.6631682,68.5480302 78.6820956,68.5669077 78.7000767,68.5847649 C78.7152187,68.600071 78.7294142,68.6143567 78.7432944,68.627622 C78.7294142,68.6143567 78.7149032,68.600071 78.7000767,68.5847649 L78.7000767,68.5847649 Z M78.7846846,68.6214931 C78.7677491,68.6084931 78.7500071,68.5954931 78.7322652,68.5824931 C78.7508136,68.5964931 78.7677491,68.6084931 78.7846846,68.6214931 C78.80162,68.6334931 78.8177491,68.6464931 78.8322652,68.6564931 C78.8169426,68.6454931 78.8008136,68.6334931 78.7846846,68.6214931 L78.7846846,68.6214931 Z M78.7860977,68.6143426 C78.8090977,68.6273426 78.8280977,68.6383426 78.8430977,68.6463426 C78.8270977,68.6373426 78.8170977,68.6323426 78.7860977,68.6143426 L78.7860977,68.6143426 Z M47.5557768,74.5812738 C47.5569885,74.5802352 47.558027,74.5793697 47.5595849,74.5783312 C45.6131315,73.4476746 43.2261513,72.7038853 40.3114044,72.3530217 C40.3114044,72.3530217 37.1318222,71.9896953 33.4957884,71.5740942 C33.2222983,71.710493 32.942923,71.8494883 32.6794724,71.9820791 C32.6652786,71.989176 32.6505655,71.996446 32.6365448,72.003716 C32.6507386,71.996446 32.6651055,71.989176 32.6794724,71.9820791 C40.1571768,68.2189936 52.2080514,62.5451123 63.5256955,59.2097445 C64.2582336,60.9626777 65.0717801,62.6155619 65.9528337,64.1637237 C57.1352008,68.1333116 51.4398557,71.6431591 47.5557768,74.5812738 C47.5549113,74.5819662 47.5540458,74.5826585 47.5531804,74.5831778 C47.5540458,74.5824854 47.5547382,74.5819662 47.5557768,74.5812738 L47.5557768,74.5812738 Z M46.4302641,75.4784252 C46.3962974,75.5120535 46.3639933,75.5450919 46.3302641,75.5784252 C46.3639933,75.5450919 46.3962974,75.5120535 46.4302641,75.4784252 L46.4302641,75.4784252 Z M70.1606003,70.1474451 C71.0760998,71.1709559 71.8629897,71.9083406 72.4322992,72.3891986 C71.1785721,73.4800433 70.0165853,74.5760809 68.9582824,75.6271138 L56.9368339,74.2529125 C61.3272158,72.5851421 64.1749749,71.7889051 70.1606003,70.1474451 L70.1606003,70.1474451 Z M46.0726498,75.7624741 C46.0388037,75.796164 46.0062762,75.8290517 45.9726498,75.8624741 C46.0062762,75.8290517 46.0388037,75.796164 46.0726498,75.7624741 L46.0726498,75.7624741 Z M45.7271522,76.0413302 C45.693278,76.0749068 45.6606208,76.1079968 45.6271522,76.1413302 C45.6606208,76.1079968 45.693278,76.0749068 45.7271522,76.0413302 L45.7271522,76.0413302 Z M45.4057148,76.3181091 C45.3720784,76.3515316 45.3393511,76.3846866 45.3057148,76.4181091 C45.3393511,76.3846866 45.3720784,76.3515316 45.4057148,76.3181091 L45.4057148,76.3181091 Z M68.1144442,76.4773565 C68.1151366,76.4768372 68.1156559,76.4763179 68.1161752,76.4756256 L54.985707,74.9748918 C54.2467644,75.2554788 53.5213232,75.5421242 52.801248,75.8329238 C53.5214963,75.5421242 54.2469375,75.2553057 54.9858801,74.9745456 L68.1161752,76.4756256 L68.1165213,76.4752794 C68.115829,76.4761448 68.1151366,76.4768372 68.1144442,76.4773565 C68.1135787,76.4783951 68.1125402,76.4794336 68.1116747,76.4804722 C68.1125402,76.4794336 68.1135787,76.4783951 68.1144442,76.4773565 L68.1144442,76.4773565 Z M45.0908549,76.5903875 C45.0571988,76.6237209 45.0245111,76.6570542 44.9908549,76.6903875 C45.0245111,76.6570542 45.0571988,76.6237209 45.0908549,76.5903875 L45.0908549,76.5903875 Z M44.7856884,76.8585117 C44.7519288,76.891942 44.7191923,76.9250815 44.6856884,76.9585117 C44.7191923,76.9250815 44.7519288,76.891942 44.7856884,76.8585117 L44.7856884,76.8585117 Z M67.7911027,76.8107375 C67.7504254,76.8527996 67.7102674,76.8945155 67.6699362,76.9364045 C67.7102674,76.8946886 67.7504254,76.8527996 67.7911027,76.8107375 L67.7911027,76.8107375 Z M44.4909076,77.1230009 C44.4571126,77.1566429 44.4241486,77.1896676 44.3909076,77.2230009 C44.4241486,77.1896676 44.4571126,77.1566429 44.4909076,77.1230009 L44.4909076,77.1230009 Z M67.4687998,77.1465418 C67.4255261,77.1918927 67.3820792,77.2372436 67.3394978,77.2820752 C67.3822523,77.2372436 67.4255261,77.1918927 67.4687998,77.1465418 L67.4687998,77.1465418 Z M44.1249987,77.478773 C44.1433987,77.4607113 44.1605987,77.4426496 44.1785987,77.424588 C44.1929987,77.4104911 44.2073987,77.3963941 44.2213987,77.3822972 C44.1889987,77.4144558 44.1573987,77.4466144 44.1249987,77.478773 C44.1237987,77.4800946 44.1225987,77.4814162 44.1213987,77.4822972 C44.1225987,77.4814162 44.1237987,77.4800946 44.1249987,77.478773 L44.1249987,77.478773 Z M67.0850482,77.5512379 C67.0339852,77.6054167 66.9837876,77.658903 66.93359,77.7125625 C66.9837876,77.658903 67.0339852,77.6054167 67.0850482,77.5512379 L67.0850482,77.5512379 Z M43.7704363,77.762587 C43.7624363,77.769587 43.7544363,77.777587 43.7454363,77.785587 C43.7544363,77.777587 43.7624363,77.769587 43.7704363,77.762587 L43.7704363,77.762587 Z M49.4421662,77.2512643 C48.9935039,77.4496312 48.545361,77.6519792 48.0970449,77.8569237 C48.545361,77.6518061 48.9935039,77.4496312 49.4421662,77.2512643 L49.4421662,77.2512643 Z M66.7617067,77.8967356 C66.7149711,77.94676 66.6687547,77.9966114 66.6228845,78.0461166 C66.6687547,77.9966114 66.7149711,77.94676 66.7617067,77.8967356 L66.7617067,77.8967356 Z M66.4580981,78.2247506 C66.4188055,78.267332 66.3793398,78.3102596 66.3405665,78.3524947 C66.3793398,78.3102596 66.4188055,78.267332 66.4580981,78.2247506 L66.4580981,78.2247506 Z M46.9156715,78.4054618 C47.1611202,78.2900075 47.4063958,78.1757647 47.6511521,78.0627337 C47.4063958,78.1759378 47.1611202,78.2901805 46.9156715,78.4054618 C46.8280854,78.4464853 46.7403262,78.487855 46.652567,78.5293978 C46.7403262,78.487855 46.8280854,78.4464853 46.9156715,78.4054618 L46.9156715,78.4054618 Z M66.1122053,78.642602 C66.0785097,78.6760172 66.0456292,78.7091868 66.0122053,78.742602 C66.0456292,78.7091868 66.0785097,78.6760172 66.1122053,78.642602 L66.1122053,78.642602 Z M45.8736395,78.8999943 C45.9252218,78.8752417 45.9768041,78.8506622 46.0282133,78.8259096 C45.9768041,78.8506622 45.9252218,78.8752417 45.8736395,78.8999943 C45.8222303,78.9247469 45.770648,78.9494994 45.7188926,78.9744251 C45.770648,78.9494994 45.8222303,78.9247469 45.8736395,78.8999943 L45.8736395,78.8999943 Z M65.8361188,78.9697516 C65.8026557,79.003318 65.7691927,79.0365348 65.7361188,79.0697516 C65.7691927,79.0365348 65.8026557,79.003318 65.8361188,78.9697516 L65.8361188,78.9697516 Z M44.6718408,79.4848823 C44.5814852,79.5293677 44.4904373,79.5750648 44.3997355,79.6198964 C44.4904373,79.5750648 44.5816583,79.5293677 44.6718408,79.4848823 L44.6718408,79.4848823 Z M43.5465502,80.0460563 C43.4326537,80.1033508 43.3187571,80.1606452 43.2045144,80.218459 C43.3187571,80.1606452 43.4326537,80.1033508 43.5465502,80.0460563 L43.5465502,80.0460563 Z M42.1155737,80.774267 C42.0620874,80.8071863 42.0079086,80.8411407 41.9544223,80.874267 C42.0077355,80.8411407 42.0620874,80.8071863 42.1155737,80.774267 L42.1155737,80.774267 Z M40.3054703,81.3138042 C40.2720464,81.3473054 40.2386225,81.3808067 40.2054703,81.4138042 C40.2386225,81.3808067 40.2720464,81.3473054 40.3054703,81.3138042 L40.3054703,81.3138042 Z M40.7941664,81.4624928 C40.8460949,81.4351438 40.8980234,81.4079679 40.9497788,81.3807919 C40.8980234,81.4079679 40.8460949,81.4351438 40.7941664,81.4624928 C40.7422379,81.4896687 40.6903094,81.5171908 40.6380347,81.5445398 C40.6901363,81.5171908 40.7422379,81.4898418 40.7941664,81.4624928 L40.7941664,81.4624928 Z M40.0084882,81.5945643 C40.0406839,81.5599453 40.0732257,81.5249801 40.1057676,81.4900149 C40.0732257,81.5251532 40.0406839,81.5599453 40.0084882,81.5945643 C39.9762925,81.6291833 39.9442699,81.6634561 39.9124205,81.6973827 C39.9442699,81.6634561 39.9762925,81.6291833 40.0084882,81.5945643 L40.0084882,81.5945643 Z M39.8980536,81.7126151 C39.8364317,81.7785643 39.7755023,81.8431287 39.7150921,81.9068277 C39.7755023,81.8431287 39.8364317,81.7785643 39.8980536,81.7126151 L39.8980536,81.7126151 Z M39.4969924,82.1354862 C39.4985503,82.1337552 39.5002812,82.1320243 39.5020122,82.1302933 C39.5061665,82.125966 39.5101476,82.1218117 39.5143019,82.1174843 C39.5639802,82.065902 39.6140047,82.0134542 39.6643753,81.960314 C39.6140047,82.0134542 39.5639802,82.065902 39.5143019,82.1174843 C39.5101476,82.1218117 39.5061665,82.125966 39.5020122,82.1302933 C39.5002812,82.1320243 39.4985503,82.1337552 39.4969924,82.1354862 C39.4878184,82.1450064 39.4788175,82.1543535 39.4698165,82.1637007 C39.4788175,82.1543535 39.4878184,82.1450064 39.4969924,82.1354862 L39.4969924,82.1354862 Z M62.9666108,82.5798578 C62.9755914,82.5738578 62.9845719,82.5688578 62.9935525,82.5628578 C62.9845719,82.5688578 62.9753486,82.5738578 62.9666108,82.5798578 C62.9411253,82.5958578 62.9170962,82.6108578 62.8935525,82.6258578 C62.9173389,82.6108578 62.9411253,82.5958578 62.9666108,82.5798578 L62.9666108,82.5798578 Z M62.9099476,82.5780901 C62.8736419,82.5950901 62.8417948,82.6090901 62.8099476,82.6230901 C62.8417948,82.6090901 62.8739604,82.5950901 62.9099476,82.5780901 L62.9099476,82.5780901 Z M62.7695005,82.6153413 C62.7861218,82.6073413 62.8038329,82.5983413 62.8223616,82.5893413 C62.8038329,82.5983413 62.7861218,82.6073413 62.7695005,82.6153413 C62.7526068,82.6233413 62.7370755,82.6303413 62.7223616,82.6363413 C62.7370755,82.6303413 62.7526068,82.6233413 62.7695005,82.6153413 L62.7695005,82.6153413 Z M127.267587,83.2365435 C126.740685,83.3478436 126.20738,83.4555087 125.670266,83.5607505 C126.207207,83.4555087 126.740685,83.3478436 127.267587,83.2365435 L127.267587,83.2365435 Z M124.70353,83.7442312 C124.833005,83.7199979 124.962307,83.6954184 125.091436,83.6708389 C124.962307,83.6954184 124.833005,83.7199979 124.70353,83.7442312 C124.49045,83.7843893 124.276678,83.824028 124.061867,83.8629744 C124.276678,83.824028 124.49045,83.7843893 124.70353,83.7442312 L124.70353,83.7442312 Z M122.879282,84.0698229 C123.022605,84.0454165 123.165581,84.020837 123.308211,83.9959114 C123.165581,84.020837 123.022605,84.0454165 122.879282,84.0698229 C122.735959,84.0942293 122.592464,84.1184626 122.448275,84.1425228 C122.59229,84.1184626 122.735959,84.0942293 122.879282,84.0698229 L122.879282,84.0698229 Z M121.211338,84.341409 C121.330428,84.3230609 121.449171,84.3047129 121.567741,84.2858455 C121.449171,84.3047129 121.330428,84.323234 121.211338,84.341409 C121.092249,84.3597571 120.972987,84.377932 120.853724,84.396107 C120.972987,84.3777589 121.092249,84.3597571 121.211338,84.341409 L121.211338,84.341409 Z M119.677197,84.5857869 C119.726703,84.5740399 119.776208,84.5619917 119.825367,84.5496423 C119.776208,84.5619917 119.726703,84.5740399 119.677197,84.5857869 C119.588227,84.6071724 119.499083,84.6279555 119.410458,84.6496423 C119.499083,84.6279555 119.588227,84.6071724 119.677197,84.5857869 L119.677197,84.5857869 Z M115.00618,85.1435313 C114.981093,85.1585313 114.956702,85.1755313 114.931964,85.1905313 C114.923427,85.1955313 114.914716,85.1995313 114.90618,85.2045313 C114.939803,85.1855313 114.972556,85.1635313 115.00618,85.1435313 L115.00618,85.1435313 Z M112.553126,85.3773826 C113.028445,85.3368784 113.497879,85.2922199 113.967312,85.2473883 C113.498917,85.2929123 113.028618,85.3370515 112.553126,85.3773826 C112.518334,85.3803252 112.483715,85.3832679 112.449096,85.3862105 C112.483715,85.3832679 112.518334,85.3803252 112.553126,85.3773826 L112.553126,85.3773826 Z M70.9005815,81.9615257 C66.5898234,81.9615257 63.8817519,82.4216122 62.96556,82.5626847 C63.8834829,82.421093 66.5950162,81.9596217 70.9113134,81.9596217 C76.3639793,81.9596217 84.3775858,82.6961409 94.5695931,85.744171 C93.5168293,85.4303497 92.488818,85.1423196 91.4817512,84.8748878 C82.7433959,82.5535106 75.7908617,81.9615257 70.9005815,81.9615257 L70.9005815,81.9615257 Z M95.6538603,86.0739169 C95.6502253,86.0727053 95.6465903,86.0716667 95.6429553,86.0706281 C95.2865527,85.9600204 94.9334388,85.8528746 94.5822291,85.7478059 C94.9330926,85.8525284 95.2865527,85.9600204 95.6429553,86.0706281 C95.6465903,86.0716667 95.6502253,86.0727053 95.6538603,86.0739169 C95.8551698,86.1364042 96.0509402,86.196122 96.2422102,86.2535896 C96.0511133,86.196122 95.8551698,86.1364042 95.6538603,86.0739169 L95.6538603,86.0739169 Z M96.7486862,86.4366996 C96.7303381,86.420033 96.7119901,86.4028287 96.6941613,86.3866996 C96.7119901,86.4028287 96.7303381,86.420033 96.7486862,86.4366996 C96.7670343,86.4533663 96.7852092,86.4705706 96.803038,86.4866996 C96.7853823,86.4705706 96.7670343,86.4539039 96.7486862,86.4366996 L96.7486862,86.4366996 Z M97.3327088,86.5687956 C97.3337088,86.5687956 97.3357088,86.5687956 97.3367088,86.5697956 C97.3357088,86.5687956 97.3337088,86.5687956 97.3327088,86.5687956 L97.3327088,86.5687956 Z M106.719997,86.6321374 C106.736614,86.6155907 106.753405,86.5990439 106.770368,86.5817777 C106.753405,86.5990439 106.736614,86.6155907 106.719997,86.6321374 C106.70338,86.6486842 106.686763,86.6652309 106.669973,86.6817777 C106.686763,86.6652309 106.70338,86.6486842 106.719997,86.6321374 L106.719997,86.6321374 Z M106.379,86.7259909 C106.401676,86.7037687 106.424178,86.6815465 106.4472,86.6593243 C106.424178,86.6815465 106.401676,86.7037687 106.379,86.7259909 C106.367749,86.737102 106.356671,86.7482132 106.345247,86.7593243 C106.356498,86.7482132 106.367749,86.737102 106.379,86.7259909 L106.379,86.7259909 Z M97.8227407,86.7010402 C97.8551969,86.7110402 97.8902846,86.7220402 97.9227407,86.7320402 C97.9183548,86.7310402 97.914846,86.7300402 97.91046,86.7290402 C97.8815127,86.7200402 97.8508109,86.7100402 97.8227407,86.7010402 L97.8227407,86.7010402 Z M106.156524,86.7394673 C106.122922,86.7694673 106.089857,86.8004673 106.056524,86.8314673 C106.089857,86.8004673 106.123191,86.7694673 106.156524,86.7394673 L106.156524,86.7394673 Z M98.1836438,86.7939922 C98.2244943,86.8271414 98.2663832,86.861948 98.3067144,86.8939922 C98.2663832,86.861948 98.2244943,86.8271414 98.1836438,86.7939922 L98.1836438,86.7939922 Z M98.6099768,86.8988878 C98.6560201,86.9323984 98.7020634,86.966441 98.7474143,86.9988878 C98.7020634,86.966441 98.655847,86.9323984 98.6099768,86.8988878 L98.6099768,86.8988878 Z M99.0304246,86.995821 C99.0750831,87.0301405 99.1193955,87.0632766 99.1633616,87.095821 C99.1193955,87.0632766 99.0750831,87.0301405 99.0304246,86.995821 L99.0304246,86.995821 Z M99.5543832,87.1823685 C99.5344773,87.1657018 99.5145714,87.1490351 99.4948385,87.1330931 C99.4749326,87.1164264 99.4548536,87.0990351 99.4347746,87.0823685 C99.4548536,87.0990351 99.4749326,87.1164264 99.4948385,87.1330931 C99.5147445,87.1490351 99.5344773,87.1657018 99.5543832,87.1823685 L99.5543832,87.1823685 Z M104.530297,87.1386244 C104.497141,87.1516244 104.463452,87.1666244 104.430297,87.1796244 C104.463452,87.1666244 104.497141,87.1516244 104.530297,87.1386244 L104.530297,87.1386244 Z M99.9219881,87.250011 C99.8885904,87.219011 99.8557719,87.190011 99.8219881,87.158011 C99.8557719,87.190011 99.8885904,87.219011 99.9219881,87.250011 L99.9219881,87.250011 Z M104.280694,87.1836291 C104.247449,87.2086291 104.213938,87.2346291 104.180694,87.2596291 C104.213938,87.2346291 104.247449,87.2086291 104.280694,87.1836291 L104.280694,87.1836291 Z M104.032995,87.2296723 C103.99974,87.2546723 103.966249,87.2806723 103.932995,87.3056723 C103.966249,87.2806723 103.999504,87.2546723 104.032995,87.2296723 L104.032995,87.2296723 Z M103.7872,87.2719075 C103.753866,87.2959075 103.7203,87.3179075 103.6872,87.3399075 C103.7203,87.3179075 103.753866,87.2949075 103.7872,87.2719075 L103.7872,87.2719075 Z M103.546598,87.3094691 C103.51344,87.3274691 103.479755,87.3424691 103.446598,87.3594691 C103.479755,87.3424691 103.51344,87.3274691 103.546598,87.3094691 L103.546598,87.3094691 Z M103.323997,87.3413186 C103.29114,87.3493186 103.257331,87.3553186 103.223997,87.3633186 C103.257331,87.3553186 103.29114,87.3493186 103.323997,87.3413186 L103.323997,87.3413186 Z M101.093371,87.3428765 C101.126527,87.3558765 101.160214,87.3708765 101.193371,87.3818765 C101.160214,87.3708765 101.126527,87.3558765 101.093371,87.3428765 L101.093371,87.3428765 Z M101.381055,87.3684945 C101.414454,87.3814945 101.448053,87.3954945 101.481055,87.4074945 C101.448053,87.3954945 101.414454,87.3814945 101.381055,87.3684945 L101.381055,87.3684945 Z M101.774624,87.411535 C101.741549,87.404535 101.708086,87.395535 101.674624,87.387535 C101.708086,87.395535 101.741549,87.404535 101.774624,87.411535 L101.774624,87.411535 Z M102.615,87.3953242 C102.581949,87.3963242 102.548051,87.3993242 102.515,87.4003242 C102.548051,87.3993242 102.581949,87.3963242 102.615,87.3953242 L102.615,87.3953242 Z M101.962654,87.39844 C101.996126,87.40144 102.02939,87.40444 102.062654,87.40644 C102.02939,87.40444 101.996126,87.40144 101.962654,87.39844 L101.962654,87.39844 Z M102.342895,87.4001709 C102.309562,87.4021709 102.276483,87.4051709 102.242895,87.4061709 C102.276483,87.4051709 102.309562,87.4021709 102.342895,87.4001709 L102.342895,87.4001709 Z M195.297907,136.147014 C195.297907,136.147014 182.213655,91.1033655 182.208462,91.0874408 C180.1469,84.3128483 176.664229,77.3246566 160.498713,71.6537179 C168.190363,81.1053978 166.682878,90.8260673 166.535747,92.2838735 C165.825885,89.7823044 164.934272,86.6420148 164.934272,86.6420148 L148.370811,84.7467975 C148.370811,84.7467975 148.790047,86.2241634 148.794201,86.2378379 C146.818322,85.0535219 144.39378,84.2678436 141.394736,83.9065943 L130.058051,82.6104589 C158.155699,75.8997385 171.561042,60.6260079 179.056402,54.1081153 C179.056402,54.1081153 171.236662,49.6471107 170.520741,49.237741 C169.269091,36.7709191 155.00485,36.1675099 152.156053,36.1675099 C151.957513,36.1675099 151.813844,36.1704525 151.734566,36.1723566 C151.734566,36.1723566 153.063244,39.8938993 153.565738,45.0843262 C152.687454,45.4898879 151.389761,45.6866969 149.840561,45.6866969 C144.926393,45.6866969 137.484347,43.7071824 132.890232,40.1415982 C136.073276,37.7425014 136.518303,35.3363077 136.07016,32.5996756 C135.883218,31.4551714 136.083835,30.0058469 138.68251,28.421162 C140.347165,28.9395816 142.438153,29.986114 144.004662,31.4200331 C146.284151,28.226084 146.218894,26.6618244 146.005468,23.1907501 C146.945027,22.7038339 147.819503,22.1364284 149.179511,21.248451 C143.024945,18.3833824 142.660233,14.5671567 142.660233,12.1338217 C142.660233,10.8433811 143.350709,8.03349519 143.350709,8.03349519 C141.608681,8.83926977 139.216681,9.72428725 136.633411,9.72428725 C133.320373,9.72428725 129.69334,8.26772736 126.723895,3.31977188 C124.056501,9.06206036 115.126183,25.1624754 94.8709515,31.9476267 C90.6318547,33.3685636 86.6922123,34.786731 82.7899584,35.8464187 C56.1350579,43.0880215 41.9900799,53.5825988 30.0558713,63.659671 C40.3134816,58.3214209 55.1326647,51.3022452 72.2117762,46.1684203 C72.9697592,47.6674231 74.1843669,49.1570787 74.957063,50.0312085 L74.6586472,49.7083863 C74.6586472,49.7083863 74.3415372,49.334328 73.9830574,48.8974362 C55.3509375,52.9023355 39.4563151,63.3392722 30.7420199,71.2594074 C27.0751752,70.8403444 23.6233146,70.4458609 23.044831,70.3795655 C22.9717849,69.8760321 22.920895,69.3474 22.920895,68.7718591 C22.920895,65.7409654 23.9823136,61.8328263 26.6154349,58.3664256 L28.2574142,56.2053344 L25.6310436,56.8907907 C17.562739,58.9964915 11.9315256,62.5575751 9.3465247,67.1902899 C8.21450064,69.2186173 7.64842803,71.449985 7.64842803,73.8577366 C7.64842803,75.5831477 7.93903724,77.3985681 8.52060186,79.2944778 C8.52060186,79.2944778 15.750088,105.021243 16.4386254,107.471403 C14.1762736,107.218857 2.07625733,105.867504 2.07625733,105.867504 L6.71122241,123.73264 L195.297907,136.147014 L195.297907,136.147014 Z" id="path18" fill="#BBBABA"></path>
                        <path d="M146.631898,62.4068094 C144.326446,61.3903955 142.270597,63.3041339 142.270597,63.3041339 C140.893107,62.176593 138.972271,61.2335714 136.277701,61.2335714 C136.277701,61.2335714 130.280998,65.9266964 125.037777,64.99683 C125.01112,66.394226 125.094206,67.2264668 122.820949,67.290512 C121.340987,67.3322279 118.659918,66.9818836 116.471651,66.3036973 C121.229167,72.103938 131.701762,74.2987827 132.167733,73.8873359 C138.827218,70.7044648 145.25337,64.6383502 148.463244,67.6541846 C148.463244,67.6541846 149.656734,63.7420643 146.631898,62.4068094 L146.631898,62.4068094 Z M169.603164,54.9808603 C169.603164,54.9808603 151.138773,76.1361862 120.427045,79.5246942 C117.361359,78.1446076 111.247297,75.614651 110.478236,72.1854657 C108.990311,65.5448488 116.590394,57.7441491 116.590394,57.7441491 C103.45681,62.6155619 102.779489,70.8644046 103.059557,72.5337329 C103.545954,75.4303048 106.404272,78.254523 112.590688,80.160299 C110.745668,80.4311927 109.229529,80.7325511 107.963166,81.0320055 C104.110071,79.5470234 101.524724,76.2696425 101.524724,76.2696425 C101.643294,77.8797723 102.292227,80.153029 104.388234,82.0423611 C103.088118,82.4681748 102.282014,82.7768032 101.616464,82.8083065 C100.102921,82.8775445 97.7588687,81.6982482 91.2930777,79.728427 C94.4705828,77.6109557 99.5543832,75.9172211 99.5543832,75.9172211 C96.9624585,74.8009313 88.1159188,75.9172211 83.0326376,77.822824 C79.8880206,77.4643443 78.7386697,77.3857591 74.8744967,77.5946848 C79.9750874,74.6124309 86.4997307,72.3158063 90.0139056,72.1529239 C93.7721444,71.9775786 99.7918696,73.9250706 100.845326,74.3934657 C97.6570888,67.1376691 89.486312,63.3153851 89.486312,63.3153851 C89.486312,63.3153851 81.8909029,66.2148996 78.8044458,68.6247283 C78.8044458,68.6247283 76.9388278,67.5910049 74.7090179,64.8730671 C78.7438626,65.3823126 85.348995,63.7126381 86.782741,62.8753775 C86.782741,62.8753775 76.1152417,63.6321489 71.4858157,59.8662939 C71.0409615,58.9842017 70.6087433,58.0262939 70.2024893,56.9823579 C76.6004271,59.7944595 89.1899733,63.0770332 104.370925,59.8325404 C106.459489,59.6618687 108.582846,59.3361039 110.717627,58.8014134 C110.717627,58.8014134 90.6072753,60.4849355 82.089616,51.2726459 C82.089616,51.2726459 94.6050776,57.9213984 105.297329,55.388326 C105.297329,55.388326 98.0221462,49.1420195 94.8138302,39.4152916 C94.8423909,39.4061175 94.8688744,39.3959049 94.8963965,39.386904 C94.9685771,39.3638824 95.043008,39.3420724 95.1143231,39.3185315 C100.131828,50.556725 110.664313,54.9626854 112.9258,56.1878518 C112.9258,56.1878518 104.170308,46.7025915 103.648773,41.4013837 C103.648773,41.4013837 107.60209,44.2022341 112.095117,44.8368004 C114.208434,45.364394 115.6858,45.4000515 115.6858,45.4000515 C110.717627,41.8495267 108.910861,37.9213086 108.910861,37.9213086 C108.910861,37.9213086 112.710469,41.6203489 122.497607,44.8549754 C122.776637,45.094885 123.072975,45.3287364 123.363948,45.5639725 C123.327771,45.5435473 123.292633,45.5243338 123.27065,45.5151597 C128.43442,50.6076149 136.014078,53.6070052 136.014078,53.6070052 C130.794224,53.1039911 115.38548,46.9063243 115.38548,46.9063243 C115.38548,46.9063243 124.118988,53.2301774 135.035225,55.6389676 C135.035225,55.6389676 123.666864,55.284469 116.237973,53.3780005 C116.237973,53.3780005 125.372716,57.3610898 137.419609,57.0914078 C143.392079,56.9567399 151.421784,53.7363072 151.421784,53.7363072 C150.887266,53.8091802 150.35448,53.8607625 149.82377,53.9024784 C150.941618,53.7984483 152.112952,53.655818 153.401298,53.4848002 L151.682638,58.2452591 C151.682638,58.2452591 155.675074,55.1510127 156.760726,55.1011614 C157.841358,55.0532141 169.603164,54.9808603 169.603164,54.9808603 L169.603164,54.9808603 Z" id="path20" fill="#FBC707"></path>
                        <path d="M157.056026,43.8375229 C156.843292,42.689903 156.553012,40.973666 156.198513,39.7362097 C156.198513,39.7362097 159.270258,40.1332897 160.299134,41.3575907 L157.056026,43.8375229" id="path22" fill="#FFFFFF"></path>
                        <path d="M142.790055,26.8042816 C142.790055,26.8042816 141.003714,25.6667011 139.49121,25.0698696 C139.49121,25.0698696 142.046439,24.3812976 142.622153,23.9565224 C142.622153,23.9565224 143.318687,25.6585657 142.790055,26.8042816" id="path24" fill="#FFFFFF"></path>
                        <path d="M74.9380226,65.140845 C75.2729614,65.5363671 75.6013227,65.9040209 75.9118551,66.2254584 C75.6013227,65.9043671 75.2729614,65.5363671 74.9380226,65.140845 Z M86.782741,62.8753775 C85.348995,63.7126381 78.7440357,65.3823126 74.7093641,64.8730671 C73.6638702,63.5987416 72.5385796,61.9517426 71.4870274,59.8671594 C76.1173189,63.6318027 86.782741,62.8753775 86.782741,62.8753775 Z M105.297329,55.388326 C94.6050776,57.9213984 82.089616,51.2726459 82.089616,51.2726459 C90.6072753,60.4849355 110.717627,58.8014134 110.717627,58.8014134 C108.582846,59.3361039 106.459489,59.6618687 104.370925,59.8325404 C104.307226,59.8460418 104.244739,59.857466 104.180867,59.8707944 C104.271915,59.8517539 104.361405,59.8353099 104.452453,59.8157502 C104.452453,59.8157502 86.3051719,61.631863 75.6804271,50.8142904 C75.6804271,50.8142904 73.3152569,48.4254061 72.1539624,46.0538314 C72.1539624,46.0538314 78.4324646,44.2918973 78.6666622,44.2318333 C83.8698982,48.711186 90.6791097,51.985105 97.9946241,53.619295 C97.9946241,53.619295 91.4846939,49.2164503 88.0428727,41.2262116 C90.4490664,40.7121194 92.723881,40.0920931 94.8910306,39.388808 C94.8652394,39.3974628 94.8406599,39.4066368 94.8138302,39.4152916 C98.0221462,49.1420195 105.297329,55.388326 105.297329,55.388326 Z M74.7090179,64.8730671 L74.7093641,64.8730671 C74.7867375,64.9675769 74.8613415,65.0503163 74.9380226,65.140845 C74.8609953,65.0501432 74.7867375,64.9679231 74.7090179,64.8730671 L74.7090179,64.8730671 Z M115.6858,45.4000515 C115.6858,45.4000515 114.208434,45.364394 112.095117,44.8368004 C112.084558,44.8352425 112.073826,44.8328192 112.062575,44.8312613 C112.154315,44.8444166 112.244325,44.8620723 112.336065,44.8734965 C112.336065,44.8734965 106.876475,41.017459 104.596987,35.3138053 C106.677243,34.2179408 108.627158,33.0324131 110.4611,31.7734931 C113.116723,38.8989492 119.355933,43.8356188 122.497607,44.8549754 C112.710469,41.6203489 108.910861,37.9213086 108.910861,37.9213086 C108.910861,37.9213086 110.717627,41.8495267 115.6858,45.4000515 L115.6858,45.4000515 Z M77.5053678,67.6959005 C77.1512154,67.407178 76.7418457,67.0497368 76.2897215,66.6060943 C76.7421919,67.0497368 77.1512154,67.407178 77.5053678,67.6959005 Z M71.4768148,59.8479458 C71.4968148,59.8821801 71.5168148,59.9137116 71.5358148,59.9479458 C71.5328148,59.946144 71.5318148,59.9443422 71.5288148,59.9434413 C71.5108148,59.9110089 71.4948148,59.8794774 71.4768148,59.8479458 Z M153.401817,53.4837616 L153.401298,53.4848002 C152.115895,53.6554718 150.946638,53.7977559 149.831387,53.901613 C136.482646,54.9432987 124.7404,46.3335529 123.363256,45.5637994 C123.072975,45.3285633 122.776637,45.094885 122.497607,44.8549754 C122.497607,44.8549754 115.469431,37.8314722 117.308911,26.3154612 C121.823922,22.1649891 125.50773,17.6072244 128.707391,13.0932873 C128.707391,13.0932873 133.270175,16.7437053 138.046905,14.7198438 C138.046905,14.7198438 138.046905,18.7347653 140.455695,20.7423212 C140.455695,20.7423212 134.207139,24.9731094 129.287779,21.5560409 C112.411361,41.5135493 140.129758,51.5199987 153.632034,50.3661474 L163.367763,43.9914044 C163.367763,43.9914044 166.430333,45.5508173 166.580233,49.8427081 L153.401817,53.4837616 Z M77.5053678,67.6959005 C78.0076895,68.1047509 78.3962878,68.3706248 78.6114449,68.5073699 C78.3969802,68.3714903 78.0082088,68.1056164 77.5053678,67.6959005 Z M100.845326,74.3934657 C99.7918696,73.9250706 93.7721444,71.9775786 90.0139056,72.1529239 C86.4997307,72.3158063 79.9750874,74.6124309 74.8744967,77.5946848 C74.8744967,77.5946848 83.1482651,70.2135674 89.6452132,69.5291497 C92.4985113,69.2286568 99.6919937,73.406651 100.845326,74.3934657 L100.845326,74.3934657 Z" id="path26" fill="#FFFFFF"></path>
                        <path d="M137.419609,57.0914078 C125.372716,57.3610898 116.237973,53.3780005 116.237973,53.3780005 C123.666864,55.284469 135.035225,55.6389676 135.035225,55.6389676 C124.118988,53.2301774 115.38548,46.9063243 115.38548,46.9063243 C115.38548,46.9063243 130.794224,53.1039911 136.014078,53.6070052 C136.014078,53.6070052 128.43442,50.6076149 123.27065,45.5151597 C124.148588,45.881775 137.072207,55.6908961 151.421784,53.7363072 C151.421784,53.7363072 143.392079,56.9567399 137.419609,57.0914078" id="path28" fill="#231F20"></path>
                        <path d="M133.664486,67.0502561 C133.117333,67.0502561 132.658631,67.4056201 132.491594,67.895479 C132.454379,67.6725326 132.430492,67.445432 132.435511,67.2110613 C132.44832,66.6163069 132.602721,66.0596333 132.860286,65.5663126 C131.984772,66.2725402 130.945163,66.971671 129.080584,66.8250595 C129.125415,68.5615486 130.793878,70.2156445 132.269513,70.0454921 C132.401065,69.8999192 132.652572,69.6489315 132.997724,69.3345909 C133.006552,69.3408223 133.013129,69.3484385 133.021784,69.3539776 C133.486544,68.9312796 134.089953,68.4138986 134.825953,67.8598214 C134.649223,67.3883106 134.198138,67.0502561 133.664486,67.0502561 L133.664486,67.0502561 Z M148.463244,67.6541846 C148.463244,67.6541846 147.055116,64.3624368 143.491263,65.1446531 C139.497788,66.0205139 136.073449,70.4398026 132.167733,73.8873359 C131.701762,74.2987827 121.229167,72.103938 116.471651,66.3036973 C116.471651,66.3036973 122.107451,68.2601902 124.757536,68.2520547 C127.491745,68.2439193 125.037777,64.99683 125.037777,64.99683 C130.280998,65.9266964 136.277701,61.2335714 136.277701,61.2335714 C138.972271,61.2335714 140.893107,62.176593 142.270597,63.3041339 C142.270597,63.3041339 144.326446,61.3903955 146.631898,62.4068094 C149.656734,63.7420643 148.463244,67.6541846 148.463244,67.6541846 L148.463244,67.6541846 Z" id="path30" fill="#231F20"></path>
                        <path d="M133.021784,69.3539776 C133.013129,69.3484385 133.006552,69.3408223 132.997724,69.3345909 C132.652572,69.6489315 132.401065,69.8999192 132.269513,70.0454921 C130.793878,70.2156445 129.125415,68.5615486 129.080584,66.8250595 C130.945163,66.971671 131.984772,66.2725402 132.860286,65.5663126 C132.602721,66.0596333 132.44832,66.6163069 132.435511,67.2110613 C132.430492,67.445432 132.454379,67.6725326 132.491594,67.895479 C132.658631,67.4056201 133.117333,67.0502561 133.664486,67.0502561 C134.198138,67.0502561 134.649223,67.3883106 134.825953,67.8598214 C134.089953,68.4138986 133.486544,68.9312796 133.021784,69.3539776" id="path32" fill="#FFFFFF"></path>
                        <path d="M124.757536,68.2520547 C122.107451,68.2601902 116.471651,66.3036973 116.471651,66.3036973 C118.659918,66.9818836 121.340987,67.3322279 122.820949,67.290512 C125.094206,67.2264668 125.01112,66.394226 125.037777,64.99683 C125.037777,64.99683 127.491745,68.2439193 124.757536,68.2520547 L124.757536,68.2520547 Z M132.167733,73.8873359 C136.073449,70.4398026 139.497788,66.0205139 143.491263,65.1446531 C147.055116,64.3624368 148.463244,67.6541846 148.463244,67.6541846 C145.25337,64.6383502 138.827218,70.7044648 132.167733,73.8873359 L132.167733,73.8873359 Z" id="path34" fill="#FFFFFF"></path>
                        <path d="M156.198513,39.7362097 C156.553012,40.973666 156.843292,42.689903 157.056026,43.8375229 L160.299134,41.3575907 C159.270258,40.1332897 156.198513,39.7362097 156.198513,39.7362097 L156.198513,39.7362097 Z M131.759921,32.2043266 C131.628889,31.0290115 131.226096,29.1021178 133.950093,26.7350435 C132.016448,26.7442176 130.455477,27.1892449 129.844971,28.0886465 C127.447952,31.6177076 127.537615,34.7394761 129.086123,37.3680969 C132.261378,35.194716 131.912937,33.5600067 131.759921,32.2043266 L131.759921,32.2043266 Z M142.790055,26.8042816 C143.318687,25.6585657 142.622153,23.9565224 142.622153,23.9565224 C142.046439,24.3812976 139.49121,25.0698696 139.49121,25.0698696 C141.003714,25.6667011 142.790055,26.8042816 142.790055,26.8042816 Z M112.365664,84.4511512 C109.431184,84.713044 103.892663,86.5888746 101.984983,86.5655068 C97.8571866,86.516694 82.4053413,79.3689086 64.8424292,81.4067562 C64.8424292,81.4067562 68.0348205,77.3156556 73.9070687,72.346271 C73.9070687,72.346271 72.459129,71.404288 70.4830763,69.0993548 C55.9607512,72.5378872 44.1464975,78.6773941 44.1464975,78.6773941 C46.7645595,75.9691496 54.6047249,70.0467038 67.2643746,64.6097895 C66.1757801,62.8082167 65.0702223,60.6448752 64.0474039,58.0732027 C48.6132142,62.4933569 32.7199766,70.845018 32.7199766,70.845018 C38.6772145,65.2220266 54.9027945,53.7852931 74.6586472,49.7083863 L75.6804271,50.8142904 C86.3051719,61.631863 104.452453,59.8157502 104.452453,59.8157502 C89.2348049,63.0901885 76.6118513,59.7994792 70.2024893,56.9823579 C73.618,65.7567171 78.8044458,68.6247283 78.8044458,68.6247283 C81.8909029,66.2148996 89.486312,63.3153851 89.486312,63.3153851 C89.486312,63.3153851 97.6570888,67.1376691 100.845326,74.3934657 C99.6919937,73.406651 92.4985113,69.2286568 89.6452132,69.5291497 C83.1482651,70.2135674 74.8744967,77.5946848 74.8744967,77.5946848 C78.7386697,77.3857591 79.8880206,77.4643443 83.0326376,77.822824 C88.1159188,75.9172211 96.9624585,74.8009313 99.5543832,75.9172211 C99.5543832,75.9172211 94.4705828,77.6109557 91.2930777,79.728427 C97.7588687,81.6982482 100.102921,82.8775445 101.616464,82.8083065 C102.282014,82.7768032 103.088118,82.4681748 104.388234,82.0423611 C102.292227,80.153029 101.643294,77.8797723 101.524724,76.2696425 C101.524724,76.2696425 104.110071,79.5470234 107.963166,81.0320055 C109.229529,80.7325511 110.745668,80.4311927 112.590688,80.160299 C106.404272,78.254523 103.545954,75.4303048 103.059557,72.5337329 C102.779489,70.8644046 103.45681,62.6155619 116.590394,57.7441491 C116.590394,57.7441491 108.990311,65.5448488 110.478236,72.1854657 C111.247297,75.614651 117.361359,78.1446076 120.427045,79.5246942 C151.138773,76.1361862 169.603164,54.9808603 169.603164,54.9808603 C169.603164,54.9808603 157.841358,55.0532141 156.760726,55.1011614 C155.675074,55.1510127 151.682638,58.2452591 151.682638,58.2452591 L153.401817,53.4837616 L166.580233,49.8427081 C166.430333,45.5508173 163.367763,43.9914044 163.367763,43.9914044 L153.632034,50.3661474 C140.129758,51.5199987 112.411361,41.5135493 129.287779,21.5560409 C134.207139,24.9731094 140.455695,20.7423212 140.455695,20.7423212 C138.046905,18.7347653 138.046905,14.7198438 138.046905,14.7198438 C133.270175,16.7437053 128.707391,13.0932873 128.707391,13.0932873 C125.50773,17.6072244 121.823922,22.1649891 117.308911,26.3154612 C115.469431,37.8314722 122.497607,44.8549754 122.497607,44.8549754 C119.355933,43.8356188 113.116723,38.8989492 110.4611,31.7734931 C108.627158,33.0324131 106.677243,34.2179408 104.596987,35.3138053 C106.876475,41.017459 112.336065,44.8734965 112.336065,44.8734965 C107.743508,44.3092068 103.648773,41.4013837 103.648773,41.4013837 C104.170308,46.7025915 112.9258,56.1878518 112.9258,56.1878518 C110.664313,54.9626854 100.131828,50.556725 95.1143231,39.3185315 C92.8812244,40.0517619 90.5309404,40.6944637 88.0428727,41.2262116 C91.4846939,49.2164503 97.9946241,53.619295 97.9946241,53.619295 C90.2700862,51.8938839 83.1070685,48.3424936 77.8065531,43.4719462 C57.4656392,48.745805 37.7534064,58.7148659 37.7534064,58.7148659 C57.5804012,42.8853272 73.2245551,40.2779971 95.172483,32.8368157 C118.342116,24.9812449 126.89751,5.27127964 126.89751,5.27127964 C130.913487,11.2947956 136.909325,11.6572738 141.993645,9.59567765 C141.993645,9.59567765 139.953547,17.6205527 147.306104,21.3502309 C147.306104,21.3502309 146.073667,22.1549496 144.948376,22.6629834 C146.079899,26.9458733 143.832087,30.0563906 143.832087,30.0563906 C142.374627,28.8454179 140.483737,27.9603831 138.557709,27.4092486 C135.538412,29.1346597 134.847763,30.935194 135.143237,32.7502682 C135.582379,35.4309906 135.10204,37.6736096 131.343628,40.0713217 C137.622823,45.7574927 150.815259,48.0928906 154.525204,45.6515586 C154.525204,45.6515586 154.576094,42.5360215 152.978081,37.0790282 C152.978081,37.0790282 168.762788,36.6684469 169.658035,49.8264371 L177.479506,54.2893458 C163.053076,67.6735712 147.130758,81.3508465 112.365664,84.4511512 L112.365664,84.4511512 Z" id="path36" fill="#231F20"></path>
                        <path d="M131.759921,32.2043266 C131.628889,31.0290115 131.226096,29.1021178 133.950093,26.7350435 C132.016448,26.7442176 130.455477,27.1892449 129.844971,28.0886465 C127.447952,31.6177076 127.537615,34.7394761 129.086123,37.3680969 C132.261378,35.194716 131.912937,33.5600067 131.759921,32.2043266" id="path38" fill="#BBBABA"></path>
                        <path d="M175.201576,107.970436 L171.728078,125.474669 L163.899857,124.578383 L153.941008,89.4781765 L161.765076,90.3734239 L167.018509,108.879704 C173.624681,88.1834258 169.660632,80.3323555 169.660632,80.3323555 C173.813354,82.4763103 176.710965,86.9932245 178.317286,92.2721031 L188.277173,127.372136 L180.453279,126.474985 L175.201576,107.970436 Z M110.589882,104.703614 L112.662349,112.120908 L120.172768,112.979113 L127.167884,110.507316 L130.047146,120.693611 L114.566913,118.924234 C107.686041,118.13769 105.837559,115.207365 104.691843,111.209909 L100.752201,97.0358508 L116.190545,98.8005544 L114.14837,91.4715386 L106.638123,90.6133336 L99.6430079,93.0854765 L97.8400502,86.7058868 C102.640494,87.9703459 103.74761,87.2693111 107.103403,86.5044042 C109.066646,86.0562613 111.075587,85.5013187 112.449096,85.3862105 C113.287914,85.3157608 114.112712,85.235964 114.931798,85.1516667 C119.609171,86.3371945 121.135869,88.9694503 122.078544,92.3780372 L126.065788,106.514534 L110.589882,104.703614 Z M9.91050286,119.867602 L7.49724685,110.565649 L22.006261,112.185992 L12.2169939,77.8401335 C9.70860484,68.8906022 16.0526062,64.6118667 19.8482855,63.2613794 C17.7166204,67.8039118 19.6016251,74.8854017 20.8286956,79.3209613 L30.512669,113.16519 L190.084285,131.596347 L190.136213,131.757152 L9.91050286,119.867602 Z M41.7524204,83.1974241 L34.2432127,82.3388728 L40.2676114,103.846447 L47.7775115,104.704825 L41.7524204,83.1974241 Z M42.1711372,110.6496 C35.2906106,109.863057 33.442129,106.932731 32.2967593,102.935275 L24.3688348,74.6247206 L39.8494139,76.3937516 C41.5748249,76.6019849 42.9836452,76.9424628 44.1463244,77.3989143 C41.9651542,79.3760055 40.6115512,80.9828465 39.4698165,82.1637007 C41.8997243,80.8654881 44.1719425,79.7073094 46.4064259,78.644506 C48.2111145,80.0169764 49.0703581,81.8898644 49.6820759,84.1034034 L57.6522356,112.419151 L42.1711372,110.6496 Z M93.4557267,116.511117 L85.4429856,88.1908689 L78.2186923,87.3650326 L86.1885058,115.680434 L78.1754186,114.764588 L70.1635429,86.4443403 L62.9387303,85.6183309 L70.9085439,113.934078 L62.8954566,113.018232 L52.9804013,77.8946584 L65.4664367,79.3218268 C64.0008413,80.9736725 63.0332402,82.1995313 62.7223616,82.5974768 C63.8634039,82.4650591 74.1679229,80.2755803 91.4819243,84.8748878 C92.454199,86.068551 93.037183,87.5012584 93.4984812,89.1115613 L101.468295,117.426962 L93.4557267,116.511117 Z M142.836444,94.7506505 L135.327063,93.8924454 L141.351462,115.399847 L148.860843,116.258052 L142.836444,94.7506505 Z M143.254988,122.203 C136.375154,121.416802 134.52546,118.486304 133.379745,114.488674 L125.451647,86.177947 L140.932918,87.9476704 C147.765844,88.7707372 149.662273,91.6641934 150.765407,95.656976 L158.736086,123.97255 L143.254988,122.203 L143.254988,122.203 Z" id="path40" fill="#FFFFFF"></path>
                        <path d="M40.2676114,103.846447 L34.2432127,82.3388728 L41.7524204,83.1974241 L47.7775115,104.704825 L40.2676114,103.846447 Z M30.512669,113.16519 L20.8286956,79.3209613 C19.6016251,74.8854017 17.7166204,67.8039118 19.8482855,63.2613794 C16.0526062,64.6118667 9.70860484,68.8906022 12.2169939,77.8401335 L22.006261,112.185992 L7.49724685,110.565649 L9.91050286,119.867602 L190.136213,131.757152 L190.084285,131.596347 L30.512669,113.16519 Z M178.317286,92.2721031 C176.710965,86.9932245 173.813354,82.4763103 169.660632,80.3323555 C169.660632,80.3323555 173.624681,88.1834258 167.018509,108.879704 L161.765076,90.3734239 L153.941008,89.4781765 L163.899857,124.578383 L171.728078,125.474669 L175.201576,107.970436 L180.453279,126.474985 L188.277173,127.372136 L178.317286,92.2721031 Z M140.932918,87.9476704 L125.451647,86.177947 L133.379745,114.488674 C134.52546,118.486304 136.375154,121.416802 143.254988,122.203 L158.736086,123.97255 L150.765407,95.656976 C149.662273,91.6641934 147.765844,88.7707372 140.932918,87.9476704 L140.932918,87.9476704 Z M7.44957648,122.840855 L3.32728421,106.951772 C3.32728421,106.951772 13.4256817,108.079486 17.7192169,108.558959 C15.7865418,101.779 9.42448669,79.0414129 9.42448669,79.0414129 C5.68279572,66.838734 15.0738058,60.6157953 25.8680106,57.798674 C22.3744341,62.3976353 21.4618772,67.7426361 22.2305921,71.2310199 L40.2046048,73.2853114 C42.9652971,73.6178269 45.0967891,74.2923782 46.7647326,75.1916068 C45.772552,75.9713998 44.9091541,76.7075729 44.1463244,77.3989143 C42.9836452,76.9424628 41.5748249,76.6019849 39.8494139,76.3937516 L24.3688348,74.6247206 L32.2967593,102.935275 C33.442129,106.932731 35.2906106,109.863057 42.1711372,110.6496 L57.6522356,112.419151 L49.6820759,84.1034034 C49.0703581,81.8898644 48.2111145,80.0169764 46.4064259,78.644506 C47.4411879,78.15257 48.4679875,77.680713 49.4979028,77.2261655 C49.5172894,77.2457253 49.5378878,77.2645926 49.5571013,77.2844985 L49.5358106,77.2093753 C51.3205933,76.4223123 53.1174926,75.6844083 54.985707,74.9748918 L68.1163483,76.4756256 C67.1108393,77.5046754 66.2228619,78.4689877 65.4664367,79.3218268 L52.9804013,77.8946584 L62.8954566,113.018232 L70.9085439,113.934078 L62.9387303,85.6183309 L70.1635429,86.4443403 L78.1754186,114.764588 L86.1885058,115.680434 L78.2186923,87.3650326 L85.4429856,88.1908689 L93.4557267,116.511117 L101.468295,117.426962 L93.4984812,89.1115613 C93.037183,87.5012584 92.454199,86.068551 91.4819243,84.8748878 C92.8282573,85.2325021 94.2124981,85.6264663 95.6429553,86.0706281 C96.4556363,86.3228276 97.1817699,86.5324456 97.8400502,86.7058868 L99.6430079,93.0854765 L106.638123,90.6133336 L114.14837,91.4715386 L116.190545,98.8005544 L100.752201,97.0358508 L104.691843,111.209909 C105.837559,115.207365 107.686041,118.13769 114.566913,118.924234 L130.047146,120.693611 L127.167884,110.507316 L120.172768,112.979113 L112.662349,112.120908 L110.589882,104.703614 L126.065788,106.514534 L122.078544,92.3780372 C121.135869,88.9694503 119.609171,86.3371945 114.931798,85.1516667 C119.319237,84.6993695 123.424358,84.048186 127.267587,83.2365435 L141.288282,84.8392302 C145.757942,85.3777288 148.58943,86.806455 150.452798,88.6455895 L149.656215,85.8385077 L164.202946,87.5031624 C164.202946,87.5031624 165.857042,93.3297136 166.845934,96.8134237 C167.47548,93.2713805 170.035382,83.5339208 162.773354,73.2849652 C176.162253,78.9380752 179.322968,84.8307486 181.31183,91.3609309 L193.980654,135.119349 L7.44957648,122.840855 Z M135.327063,93.8924454 L142.836444,94.7506505 L148.860843,116.258052 L141.351462,115.399847 L135.327063,93.8924454 L135.327063,93.8924454 Z" id="path42" fill="#231F20"></path>
                        <path d="M166.845934,96.8134237 C165.857042,93.3297136 164.202946,87.5031624 164.202946,87.5031624 L149.656215,85.8385077 L150.452798,88.6455895 C148.58943,86.806455 145.757942,85.3777288 141.288282,84.8392302 L127.267587,83.2365435 L127.267587,83.2365435 C122.707399,84.199298 117.781461,84.9397984 112.449096,85.3862105 C111.075587,85.5013187 109.066646,86.0562613 107.103403,86.5044042 C103.287177,87.3742067 102.381198,88.1624813 95.6429553,86.0706281 C75.8204609,79.9169274 63.9518554,82.4550196 62.7223616,82.5974768 C63.1935262,81.9940676 65.1633474,79.4985568 68.1165213,76.4752794 L68.1163483,76.4756256 L54.9858801,74.9745456 C53.1176657,75.6844083 51.3205933,76.4223123 49.5358106,77.2093753 L49.5571013,77.2844985 C49.5378878,77.2645926 49.5172894,77.2457253 49.4979028,77.2261655 C49.5030957,77.2239153 49.5081154,77.221665 49.5129621,77.2195879 C46.2537561,78.6580074 43.030554,80.2615596 39.4698165,82.1637007 C41.0108814,80.570188 42.9343131,78.2019021 46.7647326,75.1916068 C45.0967891,74.2923782 42.9652971,73.6178269 40.2046048,73.2853114 L22.2305921,71.2310199 C21.4618772,67.7426361 22.3744341,62.3976353 25.8680106,57.798674 C15.0738058,60.6157953 5.68279572,66.838734 9.42448669,79.0414129 C9.42448669,79.0414129 15.7865418,101.779 17.7192169,108.558959 C13.4256817,108.079486 3.32728421,106.951772 3.32728421,106.951772 L7.44957648,122.840855 L193.980654,135.119349 L181.31183,91.3609309 C179.322968,84.8307486 176.162253,78.9380752 162.773354,73.2849652 C170.035382,83.5339208 167.47548,93.2713805 166.845934,96.8134237 L166.845934,96.8134237 Z M72.4322992,72.3891986 C71.8629897,71.9083406 71.0760998,71.1709559 70.1606003,70.1474451 C64.1749749,71.7889051 61.3272158,72.5851421 56.9368339,74.2529125 L56.9368339,74.2529125 L68.9582824,75.6271138 C70.0165853,74.5760809 71.1785721,73.4800433 72.4322992,72.3891986 Z M63.5256955,59.2097445 C52.1865876,62.5515168 40.1109604,68.2408036 32.6365448,72.0035429 C32.9126314,71.8645476 33.2074122,71.7179361 33.4957884,71.5740942 C37.1318222,71.9896953 40.3114044,72.3530217 40.3114044,72.3530217 C43.2261513,72.7038853 45.6131315,73.4476746 47.5595849,74.5783312 C47.5571616,74.579889 47.5554306,74.58162 47.5531804,74.5831778 C51.4374324,71.6445438 57.1331237,68.1343501 65.9528337,64.1637237 C65.0717801,62.6155619 64.2582336,60.9626777 63.5256955,59.2097445 L63.5256955,59.2097445 Z M182.208462,91.0874408 C182.213655,91.1033655 195.297907,136.147014 195.297907,136.147014 L6.71122241,123.73264 L2.07625733,105.867504 C2.07625733,105.867504 14.1762736,107.218857 16.4386254,107.471403 C15.750088,105.021243 8.52053262,79.2944778 8.52053262,79.2944778 C7.93903724,77.3985681 7.64842803,75.5831477 7.64842803,73.8579097 C7.64842803,71.449985 8.21450064,69.2186173 9.34659393,67.1902899 C11.9314563,62.5575751 17.562739,58.9964915 25.6310436,56.8907907 L28.2574142,56.2053344 L26.6154349,58.3664256 C23.9823136,61.8328263 22.920895,65.7409654 22.920895,68.7718591 C22.920895,69.3474 22.9717849,69.8760321 23.044831,70.3795655 C23.6233146,70.4458609 27.0751752,70.8401713 30.7420199,71.2594074 C39.4563151,63.3392722 55.3509375,52.9023355 73.9830574,48.8974362 C74.3415372,49.334328 74.6586472,49.7083863 74.6586472,49.7083863 C54.9027945,53.7852931 38.6772145,65.2220266 32.7199766,70.845018 C32.7199766,70.845018 48.6132142,62.4933569 64.0474039,58.0732027 C65.0702223,60.6448752 66.1757801,62.8082167 67.2643746,64.6097895 C54.6047249,70.0467038 46.7645595,75.9691496 44.1464975,78.6773941 C44.1464975,78.6773941 55.9607512,72.5378872 70.4830763,69.0993548 C72.459129,71.404288 73.9070687,72.346271 73.9070687,72.346271 C68.0348205,77.3156556 64.8424292,81.4067562 64.8424292,81.4067562 C82.4053413,79.3689086 97.8571866,86.516694 101.984983,86.5655068 C103.892663,86.5888746 109.431184,84.713044 112.365664,84.4511512 C147.130758,81.3508465 163.053076,67.6735712 177.479506,54.2893458 L169.658035,49.8264371 C168.762788,36.6684469 152.978081,37.0790282 152.978081,37.0790282 C154.576094,42.5360215 154.525204,45.6515586 154.525204,45.6515586 C150.815259,48.0928906 137.622823,45.7574927 131.343628,40.0713217 C135.10204,37.6736096 135.582379,35.4309906 135.143237,32.7502682 C134.847763,30.935194 135.538412,29.1346597 138.557709,27.4092486 C140.483737,27.9603831 142.374627,28.8454179 143.832087,30.0563906 C143.832087,30.0563906 146.079899,26.9458733 144.948376,22.6629834 C146.073667,22.1549496 147.306104,21.3502309 147.306104,21.3502309 C139.953547,17.6205527 141.993645,9.59567765 141.993645,9.59567765 C136.909325,11.6572738 130.913487,11.2947956 126.89751,5.27127964 C126.89751,5.27127964 118.342116,24.9812449 95.172483,32.8368157 C73.2245551,40.2779971 57.5804012,42.8853272 37.7534064,58.7148659 C37.7534064,58.7148659 57.4656392,48.745805 77.8065531,43.4719462 C78.0390197,43.6858917 78.7841937,44.3194194 78.7833282,44.3194194 C58.9454284,49.5004992 41.6087515,57.647389 30.0558713,63.659671 C41.9900799,53.5825988 56.1350579,43.0880215 82.7899584,35.8464187 C86.6922123,34.786731 90.6318547,33.3685636 94.8709515,31.9476267 C115.126183,25.1624754 124.056501,9.06206036 126.723895,3.31977188 C132.008832,12.1256516 139.374544,9.87283738 143.350709,8.03349519 C143.350709,8.03349519 142.660233,10.8433811 142.660233,12.1338217 C142.660233,14.5671567 143.024945,18.3833824 149.179511,21.248451 C147.819503,22.1364284 146.945027,22.7038339 146.005468,23.1907501 C146.218894,26.6616513 146.284151,28.226084 144.004662,31.4200331 C142.438153,29.986114 140.347165,28.9395816 138.68251,28.421162 C136.083835,30.0058469 135.883218,31.4551714 136.069987,32.5996756 C136.518303,35.3363077 136.073276,37.7425014 132.890405,40.1414251 C138.932632,44.8312613 149.901144,46.7770223 153.565738,45.0843262 C153.063244,39.8938993 151.734566,36.1723566 151.734566,36.1723566 C152.953674,36.1408533 169.181851,35.9025015 170.520568,49.237741 C171.236662,49.6471107 179.056402,54.1081153 179.056402,54.1081153 C171.561042,60.6260079 158.155699,75.8997385 130.057878,82.6104589 L141.394736,83.9065943 C144.39378,84.2678436 146.818322,85.0535219 148.794201,86.2378379 C148.790047,86.2241634 148.370811,84.7467975 148.370811,84.7467975 L164.934272,86.6420148 C164.934272,86.6420148 165.825885,89.7823044 166.535747,92.2838735 C166.682878,90.8260673 168.190363,81.1053978 160.498713,71.6537179 C176.664229,77.3246566 180.1469,84.3128483 182.208462,91.0874408 L182.208462,91.0874408 Z" id="path44" fill="#BBBABA"></path>
                    </g>
                </g>
            </g>
        </g>
    </g>
</svg>