<?xml version="1.0" encoding="utf-8"?>
<!-- Generator: Adobe Illustrator 24.2.1, SVG Export Plug-In . SVG Version: 6.00 Build 0)  -->
<svg version="1.1" id="Layer_1" xmlns="http://www.w3.org/2000/svg" xmlns:xlink="http://www.w3.org/1999/xlink" x="0px" y="0px"
	 width="200px" height="200px" viewBox="0 0 200 200" style="enable-background:new 0 0 200 200;" xml:space="preserve">
<style type="text/css">
	.st0{fill:#FFFFFF;}
	.st1{fill:#D41938;}
	.st2{fill:#231F20;}
	.st3{fill:#223A6A;}
</style>
<desc>Created with Sketch.</desc>
<g id="tulsa_1_">
	<g id="tulsa_BGL" transform="translate(0.000000, -0.000000)">
		<g id="tulsa" transform="translate(0.000000, 25.000000)">
			
				<g id="g10" transform="translate(100.000000, 75.231483) scale(-1, 1) rotate(-180.000000) translate(-100.000000, -75.231483) translate(0.000000, 0.231483)">
				<g id="g12">
					<polyline id="path52" class="st0" points="91.3,71.3 92.7,71.3 91.3,71.3 					"/>
					<path id="path58" class="st0" d="M114.5,11.9C114.6,11.8,114.6,11.8,114.5,11.9L114.5,11.9L114.5,11.9"/>
					<path id="path60" class="st0" d="M101.7,12c0.1,0,0.1,0,0.2,0L101.7,12L101.7,12"/>
					<path id="path66" class="st0" d="M137.3,67.5c-1-0.8-2.1-1.7-3.1-2.5C135.2,65.8,136.3,66.6,137.3,67.5"/>
					<path id="path78" class="st1" d="M102.7,57.5c-0.2-0.2-0.8-0.6-0.9-0.7c-0.3-0.3-0.1-0.4,0.1-0.4c3.8,0.9,10.3,4.9,17.4,10.1
						c-2.4-0.7-4.9-1.4-7.2-2C109.3,62.2,106.1,59.8,102.7,57.5"/>
					<path id="path82" class="st1" d="M134.5,61.2c-1.3-1.1-2.6-2-3.6-2.8c1.1-0.8,2.5-1.3,3.8-1.5
						C134.4,58.7,134.4,60.2,134.5,61.2"/>
					<path id="path90" class="st2" d="M134.5,61.2c0-1,0-2.5,0.2-4.3c0.2,0,0.5,0,0.7,0c0.2,0,0.4,0,0.6,0c-0.3,1.7-0.4,3.3-0.4,5.2
						C135.2,61.8,134.8,61.5,134.5,61.2"/>
					<path id="path98" class="st2" d="M137.1,13.1L137.1,13.1C137.1,13.1,137.1,13.1,137.1,13.1L137.1,13.1"/>
					<path id="path100" class="st1" d="M104.2,34.3l0.2-2.3c-3.2,1.8-4.1,5.6-4.1,5.6c1.4-16.2-0.8-21.9-0.8-21.9s3.3,2.8,5.5,5.8
						c0.4-3-5.6-7.3-5.6-10c0.7,0.2,1.5,0.4,2.3,0.5l0,0l0.1,0c4.3,0.7,8.6,0.4,12.8-0.2h0l0,0c2.7-0.4,5.3-0.8,7.7-1.1
						c5.7-0.7,10.6-0.4,12.8,2.6c2.9,3.9-3.3,11.7-3.3,11.7c1.6-0.4,4.5,0.6,7.7,1.8c2.3,0.8,4.9,1.6,6.8,2
						c-2.9,4.6-6.2,11.3-7.7,14.4c-8.2,0.1-14.7,2.6-18.9,7.2c-7.1-4.5-13.5-7-18.9-7.3C101.1,36.9,104.2,34.3,104.2,34.3 M119.2,47
						c6.2-5,12.5-5.8,12.5-5.8l2.1-4.9c-1.4-0.1-3.2-1-3.3-2.7c-0.1-2.5,3.1-3.9,3.4-6.3c-4.4,0-6-3.4-15.5-1.1
						c0.6,9.1-3.2,18.7-3.2,18.7S117.2,45.7,119.2,47"/>
					<path id="path122" class="st2" d="M121.7,91.4c-0.6-0.9-1.5-2-2.5-3.3C120.2,89.4,121,90.5,121.7,91.4L121.7,91.4"/>
					<path id="path126" class="st1" d="M123,129.1c0,0-6.3,1-11.2-6.1c0,0,0.2-0.7,0.4-1.7c0.1-0.5,0.3-1,0.5-1.5l0,0v0
						c-1,0.6-1.8,1.6-3,5.5c-1.4,4.5-3.4,9.1-9.4,10.1c-5.3,0.9-12.1-1.9-18.1-3c-0.4-0.1-0.7-0.1-1.1-0.2c-4.9-0.7-12,0.8-12,0.8
						c0,0,1.4-2.5,4.8-5.3c1.7-1.4,3.8-2.8,6.6-4.1c0,0-0.2-0.4-0.7-1.1c-0.1-0.2-0.3-0.4-0.4-0.7c-3.9,1.6-8,5.3-8,5.3
						s7-13.3,14.5-25c3.5,0.2,6.4,0.7,9,1.6c0.6,0.2,1.2,0.3,1.8,0.3c1.2,0,2.3-0.5,3-1.5c0.4-0.6,1-1.8,0.4-3.6
						c-1.7-5.3-6.1-8.9-12.9-10.8c-0.2-1.3-0.5-3.5-0.6-6c0.2,0,0.4-0.1,0.5-0.1c0.7,1.1,2.2,3.1,4.3,5.1c1.3,1.2,2.9,2.5,4.7,3.5h0
						l1-1.4h0v0c0,0-5.1-3-8.3-8.1c0.2-0.2,0.4-0.3,0.5-0.5c1.3,0.6,3.5,1.7,6.8,2.7c2.3,3.2,4.8,6.3,7.8,9.5
						c9.7,10.4,16.9,13.5,21.5,14C121.6,121.5,123,129.1,123,129.1 M106.9,99.3c-2.1,0.2-3.9-0.4-3.9-0.4c0,10.5-6.4,23.7-6.4,23.7
						c15.4,3.2,16.3-7.7,16.3-7.7l3,1.5c0.1-2.3,0.7-6.5,1.2-9.7C112.2,103.8,108.6,100.7,106.9,99.3"/>
					<path id="path128" class="st2" d="M114.4,85.1c0.3,0.3,0.6,0.6,0.9,0.9C115,85.7,114.7,85.4,114.4,85.1
						c-0.1-0.2-0.3-0.3-0.4-0.4C114.1,84.8,114.3,84.9,114.4,85.1"/>
					<path id="path134" class="st1" d="M133.3,86.5c-0.7-1.1-1.5-2.3-2.3-3.5c2-0.5,3.7-1,4.7-1.4C134.8,83.3,134.1,85,133.3,86.5"
						/>
					<path id="path140" class="st2" d="M79.9,0h1.6l-7.2,43.1c-0.6,0-1.1-0.1-1.7-0.1c0,0-0.1,0-0.1,0l0.4-2.3L79.9,0"/>
					<path id="path146" class="st2" d="M69.1,64.5c-0.1-0.1-0.1-0.2-0.2-0.3C69,64.4,69.1,64.4,69.1,64.5"/>
					<path id="path152" class="st2" d="M76.6,0l-5.2,40.5l-0.3,2.5c-1.3,0.1-2.4,0.4-3.4,0.7l6-43.8H76.6"/>
					<path id="path158" class="st2" d="M60.7,144.7c0,2.7-2.2,4.8-4.8,4.8c-2.7,0-4.8-2.2-4.8-4.8c0-2.1,1.3-3.9,3.2-4.5l4.8-35
						c0.2,0,0.4-0.1,0.6-0.1c1.4-0.3,2.9-0.5,4.3-0.8l-6,36.1C59.6,141.2,60.7,142.8,60.7,144.7"/>
					<path id="path164" class="st2" d="M64.5,66.8l0.4-2.8l0.4,0.6l0.1,0.1c1.5,2,3,4.1,4.4,6l-0.5,2.9
						C67.9,71.6,66.2,69.2,64.5,66.8"/>
					<path id="path172" class="st2" d="M61.6,87.8l0.8-5.6c0.1,0,0.3,0,0.4,0H67c0.3,0,0.5,0,0.7-0.1L67,87
						C65,87.2,63.2,87.5,61.6,87.8"/>
					<path id="path178" class="st2" d="M60.1,140.7c-0.3-0.5-0.1-1.2,0.4-1.5c1.9-1,4-3.4,4-3.4c0.2-0.2,0.5-0.4,0.8-0.4
						c0.3,0,0.5,0.1,0.7,0.3c0.4,0.4,0.5,1.1,0.1,1.5c-0.1,0.1-2.4,2.7-4.6,3.9C61.1,141.4,60.4,141.2,60.1,140.7"/>
					<path id="path180" class="st2" d="M90.1,79.9c0.2-0.4,0.3-0.9,0.4-1.3c0.8,0.4,2.3,1,4,1.7c0.6,1,1.3,2,2,3
						c-3.3-1-5.5-2.1-6.8-2.7C89.8,80.3,90,80.1,90.1,79.9"/>
					<path id="path182" class="st2" d="M97.5,89.2L97.5,89.2l-1,1.4h0c-1.8-1-3.4-2.3-4.7-3.5c-2.1-2-3.6-4-4.3-5.1
						c0.7-0.2,1.2-0.5,1.7-0.9C92.4,86.2,97.5,89.2,97.5,89.2"/>
					<path id="path184" class="st2" d="M124.8,129.8c0.1,0.3-0.2,0.7-0.5,0.7c-1.9,0.3-7.9,0.7-12.9-6.2c-1.2,3.8-2.2,8.3-6.2,10.9
						c-6.4,4.2-14.7,1.2-19.8,0c-5.5-1.4-8.8-1.5-16.7-0.1c-1.4,0.2-2,0-2.4-0.4c-0.4-0.4-0.3-1.1,0-2c1.4-3.9,13-23.9,17-30.6
						c0.1,0,0.2,0,0.3,0c0.8,0,1.6,0,2.4,0.1c-7.5,11.7-14.5,25-14.5,25s4.1-3.7,8-5.3c0.2,0.3,0.3,0.5,0.4,0.7
						c0.4,0.7,0.7,1.1,0.7,1.1c-2.7,1.3-4.9,2.8-6.6,4.1c-3.5,2.8-4.8,5.3-4.8,5.3v0c0,0,7.1-1.5,12-0.8c0.4,0.1,0.7,0.1,1.1,0.2
						c5.9,1.1,12.7,3.9,18.1,3c6-1,8-5.6,9.4-10.1c1.2-3.9,2-5,3-5.5v0c-0.2,0.5-0.4,1-0.5,1.5c-0.3,1-0.4,1.7-0.4,1.7
						c4.9,7.1,11.2,6.1,11.2,6.1s-1.4-7.6,2.7-22.4c0.5,0.1,1,0.1,1.4,0.1c0.1,0,0.3,0,0.4,0C125.3,114.5,123.8,122.9,124.8,129.8"
						/>
					<path id="path188" class="st2" d="M114,84.6L114,84.6c-0.5-0.5-1-1.1-1.5-1.6h0C113,83.6,113.5,84.1,114,84.6"/>
					<path id="path194" class="st2" d="M133.3,86.5c0.7-1.6,1.5-3.2,2.3-4.9c-0.9,0.4-2.7,0.9-4.7,1.4c-0.4-0.5-0.8-1-1.2-1.5
						c2.5-0.5,5.4-1.4,6.7-1.8c0.3,0.3,0.7,0.5,1,0.7l-3.4,7.4C133.9,87.5,133.6,87,133.3,86.5"/>
					<path id="path204" class="st2" d="M85,87.5l-0.1-0.4l-0.3-4.9H86c0.3,0,0.6,0,0.9-0.1c0,2.5,0.3,4.7,0.6,6
						C86.7,87.9,85.9,87.7,85,87.5"/>
					<path id="path214" class="st2" d="M113,114.8c0,0-0.9,10.9-16.3,7.7c0,0,6.4-13.2,6.4-23.7c0,0,1.7,0.7,3.9,0.4
						c1.6,1.5,5.3,4.5,10.3,7.3c-0.5,3.2-1.1,7.4-1.2,9.7L113,114.8"/>
					<path id="path216" class="st2" d="M96,7.4c-1.8-2.1-2.6-5.5-2.6-5.7c-0.1-0.6,0.2-1.2,0.8-1.3c0.1,0,0.2,0,0.2,0
						c0.5,0,0.9,0.3,1,0.8c0,0,0.7,3.1,2.2,4.8c0.4,0.5,0.3,1.1-0.1,1.5C97,8,96.3,7.9,96,7.4"/>
					<path id="path218" class="st2" d="M97.6,16.8c-1.3-5-1-6.5-0.1-7c0.8-0.5,2.3,0.3,5.7,0.6c5.9,0.6,11.5-0.3,18.8-1.3
						c6.9-0.9,11-0.2,13.8,2.3c0.6,0.5,1,1.1,1.3,1.7c0,0,0,0,0,0c1.4,2.8,0.3,6.3-1.9,10c0,0,5.8,3.1,13.2,4.4
						c0.4,0.1,0.6,0.5,0.4,0.8c-1.4,2.2-5.6,8.9-8.3,14.7c-0.4,0-0.8,0-1.2,0c-0.2,0-0.4,0-0.7,0c1.5-3.1,4.8-9.8,7.7-14.4
						c-1.9-0.4-4.5-1.1-6.8-2c-3.2-1.2-6.1-2.2-7.7-1.8c0,0,6.2-7.8,3.3-11.7c-2.2-3-7.1-3.3-12.8-2.6c-2.4,0.3-5,0.8-7.7,1.1
						c0,0,0,0,0,0c-4.1,0.6-8.5,0.9-12.8,0.2c0,0,0,0-0.1,0c-0.8-0.1-1.5-0.3-2.3-0.5c0,2.7,6,7,5.6,10c-2.2-3-5.5-5.8-5.5-5.8
						s2.2,5.7,0.8,21.9c0,0,0.9-3.8,4.1-5.6l-0.2,2.3c0,0-3,2.6-3.4,8.8c-0.4,0-0.7,0-1.1,0c-0.6,0-1.2,0-1.8,0.1
						C98.4,36.3,99.5,24.3,97.6,16.8"/>
					<path id="path220" class="st2" d="M138.3,46.3c-0.2,0-0.3,0-0.5,0C138,46.3,138.2,46.3,138.3,46.3"/>
					<path id="path222" class="st2" d="M100.5,46.2c0.2,0,0.3,0,0.5,0C100.9,46.2,100.7,46.2,100.5,46.2"/>
					<path id="path224" class="st2" d="M118.3,26.1c9.5-2.3,11.1,1.1,15.5,1.1c-0.3,2.4-3.5,3.8-3.4,6.3c0.1,1.8,1.9,2.6,3.3,2.8
						l-2.1,4.9c0,0-6.3,0.8-12.5,5.8c-1.9-1.3-4-2.2-4-2.2S118.9,35.2,118.3,26.1"/>
					<path id="path230" class="st3" d="M121.7,91.4c-1.8-1.3-4-3.1-6.4-5.5c-0.3-0.3-0.6-0.6-0.9-0.9c-0.1-0.2-0.3-0.3-0.4-0.4
						c-0.5-0.5-1-1.1-1.5-1.6c-0.6-0.6-1.1-1.2-1.6-1.8c-0.4-0.4-0.7-0.9-1.1-1.3c-1.2-1.5-2.4-3-3.4-4.5c0,0,0,0,0,0
						c2.2,1.7,4.3,3.7,6.5,5.8c0.6,0.6,1.1,1.1,1.7,1.7c1,1,1.9,2,2.9,3.1c0.7,0.8,1.3,1.5,1.8,2.1C120.2,89.4,121,90.5,121.7,91.4
						C121.7,91.4,121.7,91.4,121.7,91.4"/>
					<path id="path238" class="st2" d="M143.9,12.7c0.6,0,0.8,0.3,0.8,0.6c0,0.3-0.1,0.5-0.7,0.5h-0.8v-1.1H143.9z M143.2,12v-1.8
						h-0.7v4.2h1.4c0.8,0,1.6-0.2,1.6-1.2c0-0.5-0.3-0.9-0.9-1v0c0.6-0.1,0.7-0.4,0.7-0.8c0.1-0.4,0.1-0.8,0.2-1.2h-0.8
						c0,0.2-0.1,0.5-0.1,0.8c0,0.4,0,0.7-0.2,0.9c-0.2,0.2-0.4,0.2-0.6,0.2H143.2z M146.9,12.3c0,1.6-1.3,3-3,3c-1.6,0-3-1.3-3-3
						c0-1.6,1.3-3,3-3C145.6,9.3,146.9,10.6,146.9,12.3z M140.4,12.3c0,2,1.6,3.6,3.6,3.6c2,0,3.6-1.6,3.6-3.6c0-2-1.6-3.6-3.6-3.6
						C142,8.6,140.4,10.3,140.4,12.3L140.4,12.3z"/>
				</g>
			</g>
		</g>
	</g>
</g>
<g id="tulsa_2_">
	<g id="tulsa_BGD">
		<g id="tulsa_3_" transform="translate(0.000000, 65.000000)">
			
				<g id="g10_1_" transform="translate(99.999999, 35.384529) scale(-1, 1) rotate(-180.000000) translate(-99.999999, -35.384529) translate(-0.000001, 0.884529)">
				<g id="g12_1_" transform="translate(0.046066, 0.092379)">
					<g id="g14_1_" transform="translate(-0.000000, 0.000000)">
						<g id="g16-Clipped_1_" transform="translate(-0.000000, 0.000000)">
							<g id="g16_1_">
								<path id="path22_1_" class="st0" d="M186.4,17.7C186.4,17.7,186.4,17.7,186.4,17.7l12.5,17.5c1,1.3,1.2,2.9,0.5,4.3
									c-0.7,1.5-2.3,2.4-4.1,2.4h-4c-1.2,0-2.2-0.2-3.2-0.7c-1.7,1.1-3.9,1.7-6.6,1.7c-3.5,0-7.4-1-10.7-2.9
									c-5.4-2.9-10.8-8.8-15.6-16.9c-0.7-1.2-1.4-2.2-2.2-3c0.4,5.1-0.5,10.5-1.3,14.3l0,0.1c0,0.1,0,0.1,0,0.2
									c0,0.2,0,0.3,0.1,0.4c0.6,0.6,1,0.9,1.5,1.3c0.3,0.2,0.7,0.5,1.1,0.8c1.7,1.3,1.8,3.1,1.4,4.3c-1.1,3.1-5.6,3.4-7,3.4
									c-2.8,0-6-1.2-9.8-3.6c-0.5-0.3-1-0.7-1.5-1c-0.3-0.2-0.7-0.5-1-0.7c-0.6-0.4-1.1-0.9-1.7-1.3c-0.1-0.1-0.2-0.2-0.3-0.2
									c-2.2-1.8-4.5-3.6-6.7-5.3c-1.7-1.4-3.5-2.7-5.2-4c-1.1-0.8-2.1-1.6-3.2-2.4c-7.2-5.2-13.6-9.2-17.4-10.1
									c-0.2,0-0.5,0.1-0.1,0.4c0.2,0.1,0.7,0.5,0.9,0.7c3.4,2.4,6.5,4.7,9.5,7c0.9,0.7,1.7,1.3,2.5,2c1.1,0.9,2.2,1.9,3.3,2.8
									c4.2,3.7,7.7,7.2,10.6,10.7c0.4,0.5,0.9,1.1,1.3,1.6c0.4,0.5,0.8,1,1.2,1.5c0.9,1.2,1.6,2.4,2.3,3.5
									c0.3,0.5,0.5,0.9,0.8,1.4c0.4,0.7,0.7,1.4,1,2.1c1,2.2,1.6,4.3,1.7,6.2c0.3,3.2-0.7,6-2.7,7.9c-1.3,1.2-2.9,2-4.7,2.4
									c-0.6,0.1-1.3,0.2-1.9,0.2c-0.1,0-0.2,0-0.4,0c-0.5,0-0.9,0-1.4-0.1c-4.6-0.5-11.8-3.5-21.5-14c-3-3.2-5.6-6.3-7.8-9.5l0,0
									c-0.7-1-1.4-2-2-3c-0.6-0.9-1.1-1.8-1.6-2.6c-2.5-4.2-4.5-8.6-6.3-13.6c-3.7-3.8-7.4-5.9-9.9-6.8c0.2,0.3,0.4,0.6,0.6,0.9
									c3.1,4.4,11.2,15.7,12.4,17.4c0.2,0.3,0.4,0.6,0.5,0.9c0.3,0.7,0.4,1.4,0.3,2.1c0,0.5-0.2,0.9-0.4,1.3
									c-0.1,0.2-0.3,0.4-0.4,0.6c-0.2,0.2-0.3,0.4-0.5,0.5c-0.5,0.4-1.1,0.8-1.7,0.9c-0.2,0.1-0.4,0.1-0.5,0.1
									c-0.3,0.1-0.6,0.1-0.9,0.1h-1.4h-1.8h-1.2c-3.6,0-5.1-2.1-5.8-3.2l-0.2-0.3c0,0,0,0,0,0l0,0c-0.6-0.9-2.2-3.1-4.3-6
									c-0.5-0.6-1-1.3-1.5-2c-1.4-1.9-2.9-3.9-4.4-6l-0.1-0.1l-0.4-0.6l-0.3-0.4c-0.4-0.5-0.8-1.1-1.2-1.5c-1.7-2-3.5-3.4-4.8-4.1
									c-0.4-0.2-0.3,0.1-0.1,0.3c0.7,1,2.5,3.6,4.5,6.4c0.5,0.7,1,1.4,1.5,2.1c1.7,2.4,3.4,4.8,4.8,6.7c0.6,0.8,1.1,1.5,1.5,2.1
									c0,0,0,0,0,0c1,1.4,1.2,3,0.5,4.4c-0.3,0.7-0.8,1.2-1.5,1.6c-0.6,0.4-1.2,0.6-1.9,0.7c-0.2,0-0.5,0.1-0.7,0.1h-4.3
									c-0.1,0-0.3,0-0.4,0c-0.6,0-1.2-0.1-1.8-0.2c-1.5-0.3-2.8-0.9-3.9-1.9c-0.2-0.2-0.5-0.4-0.7-0.6c-1.5-1.3-3.2-2.9-5.5-4.2
									c0,0.1,0.1,0.1,0.1,0.2c4.6,7.1,7.1,11,8.7,12.9c0.1,0,0.3-0.1,0.5-0.1c0.6-0.1,1.2-0.3,1.9-0.4c1.6-0.3,3.4-0.6,5.4-0.8
									c0.6-0.1,1.2-0.1,1.8-0.2c1.9-0.2,3.9-0.2,5.9-0.2c3.1,0,5.9,0.2,8.4,0.6c0.6,0.1,1.2,0.2,1.8,0.3c0.9,0.2,1.7,0.4,2.5,0.6
									c6.7,1.9,11.1,5.5,12.8,10.8c0.6,1.8,0,3.1-0.4,3.6c-0.7,0.9-1.8,1.5-3,1.5c-0.6,0-1.2-0.1-1.8-0.3c-2.6-0.9-5.6-1.4-9-1.6
									c-0.8,0-1.6-0.1-2.4-0.1c-0.1,0-0.2,0-0.3,0c-0.7,0-1.4,0-2.1,0.1c-5,0.2-10.3,1-15.4,1.9c-0.6,0.1-1.2,0.2-1.9,0.3
									c-1.5,0.3-2.9,0.5-4.3,0.8c-0.2,0-0.4,0.1-0.6,0.1c-0.6,0.1-1.2,0.2-1.9,0.3c-5.9,1.1-11.4,2-15.9,2
									c-8.2,0-18.3-1.1-24.7-10.1c-0.9-1.2-1-2.8-0.3-4.1c0.6-1.2,1.9-2,3.3-2c0.2,0,0.4,0,0.6,0c4,0.6,8,0.9,11.7,0.9
									c3.4,0,6.5-0.2,9.4-0.7c-5.6-8-12.4-18.9-15.1-23.2l-0.6-0.9c-0.1-0.2-0.2-0.4-0.4-0.6c-5.6-9-8.9-11.8-10.7-12.6
									c-1.3-0.6-2.6-0.8-3.9-0.8c-1.6,0-3.2,0.4-4.9,1.2C5,14.8,4.3,15,3.7,15c-1.4,0-2.6-0.7-3.2-1.9c-0.7-1.3-0.6-2.9,0.2-4.2
									c3.2-5,11.4-9.3,17.9-9.3c0.9,0,1.7,0.1,2.5,0.2c4.3,0.8,7.1,2.5,12.7,9.8c3.7,4.9,7.9,11.4,11.3,16.6
									c0.8-0.5,1.7-0.9,2.6-1.2c-0.4-0.6-0.7-1-0.9-1.4c-4.6-6.6-4.6-11.4-3.7-14.2c0.8-2.8,2.8-4.9,5.6-6
									c1.5-0.6,3.1-0.9,4.9-0.9c4.4,0,8.4,1.7,10.5,2.7C64.4,5,65,4.6,65.7,4.2c0.6-0.3,1.2-0.6,1.9-0.9c1-0.3,2.1-0.6,3.4-0.7
									c0.5,0,1-0.1,1.5-0.1c0,0,0.1,0,0.1,0c0.5,0,1.1,0,1.7,0.1c0.6,0.1,1.2,0.1,1.8,0.2c3.7,0.6,7.7,2.3,12,4.9
									C89.5,6,91.9,3.9,96,3c0.6-0.1,1.2-0.2,1.8-0.3c0.6-0.1,1.2-0.1,1.8-0.1c0.4,0,0.7,0,1.1,0c5.4,0.3,11.8,2.7,18.9,7.3
									c4.2-4.6,10.7-7.1,18.9-7.3c0.2,0,0.4,0,0.7,0c0.4,0,0.8,0,1.2,0c0.7,0,1.3,0.1,1.9,0.1c5.9,0.4,10.8,1.8,13.3,2.7
									c1.5-1.4,3.2-2.3,5.1-2.6c0.8-0.1,1.7-0.2,2.6-0.2c3.6,0,6.9,1.2,9.2,2.3c1.3-1.4,3.1-2.2,5.2-2.2c2.3,0,5,1,7.9,3
									c2,1.4,3.6,3,4.9,4.9c1.4,2.1,1,3.8,0.5,4.6c-0.6,1.2-1.9,1.9-3.3,1.9c-0.7,0-1.3-0.1-2.1-0.4
									C185.8,17,186.1,17.3,186.4,17.7L186.4,17.7z M189.6,11.3c-0.8-1.1-1.7-2.1-2.7-3.1c-0.6-0.6-1.3-1.1-2-1.6
									c-2.7-1.9-5.2-2.8-7.3-2.8c-2.3,0-3.9,1.1-4.9,2.5c-0.8-0.4-1.8-0.9-3-1.3c-1.9-0.7-4.1-1.3-6.5-1.3c-0.8,0-1.6,0.1-2.4,0.2
									c-0.7,0.1-1.4,0.3-2,0.6c-0.4,0.2-0.9,0.4-1.3,0.7c-0.6,0.4-1.2,0.9-1.7,1.4c-1.6-0.6-3.4-1.1-5.4-1.6
									c-3.4-0.8-7.3-1.4-11.3-1.4c-3.2,0-6.2,0.4-8.9,1.1c-4.4,1.2-8,3.4-10.5,6.5c-2.4-1.6-4.8-2.9-7-4
									c-4.9-2.4-9.3-3.6-13.2-3.6c-3.5,0-6.3,1-8.3,2.5c-0.2,0.1-0.4,0.3-0.6,0.5c-1,0.8-1.7,1.7-2.3,2.6
									c-4.5-2.9-8.7-4.6-12.5-5.3c-0.6-0.1-1.2-0.2-1.8-0.2c-0.5,0-1-0.1-1.5-0.1c-0.1,0-0.2,0-0.3,0c-0.5,0-1,0-1.5,0.1
									c-1.3,0.1-2.5,0.5-3.4,0.9c-0.7,0.3-1.4,0.6-1.9,1c-0.4,0.2-0.7,0.5-1,0.7c-0.2,0.1-0.4,0.3-0.5,0.4
									c-2.5-1.3-6.6-2.9-10.6-2.9c-0.7,0-1.3,0.1-1.9,0.1c-0.6,0.1-1.3,0.2-1.9,0.4c-0.2,0.1-0.5,0.2-0.7,0.2
									c-1.6,0.6-2.9,1.7-3.9,3.1c-0.5,0.7-0.8,1.4-1.1,2.3c-0.2,0.8-0.4,1.8-0.4,2.9c0,2.6,1,6,4,10.3c0.2,0.2,0.4,0.5,0.6,0.9
									c0.1,0.1,0.2,0.3,0.3,0.5c0.3,0.4,0.6,0.8,0.9,1.3h0c-1,0.1-2.1,0.5-3.2,1c-0.6,0.3-1.1,0.7-1.6,1c-0.4-0.6-0.8-1.2-1.2-1.8
									c-3.4-5.3-7.3-11.2-10.7-15.7c-2.7-3.7-4.8-6-7.2-7.6c-1.4-0.9-3-1.5-4.8-1.9c-0.7-0.1-1.5-0.2-2.3-0.2h0
									c-6.1,0-14,4.1-17,8.8C1.5,9.6,1.4,9.7,1.3,9.8C1.2,10.2,1.1,10.6,1,11c0,0.1,0,0.3,0,0.4c0,0.4,0.1,0.8,0.3,1.1
									c0.2,0.3,0.4,0.5,0.6,0.7c0.5,0.4,1.1,0.6,1.7,0.6c0.3,0,0.6-0.1,0.9-0.1c0.2-0.1,0.4-0.1,0.6-0.2c1.9-0.9,3.7-1.3,5.4-1.3
									c1.5,0,2.9,0.3,4.3,0.9c1.1,0.5,2.3,1.4,3.6,2.7c0.2,0.2,0.4,0.5,0.7,0.7c1.6,1.7,3.3,4.1,5.3,7c0.5,0.8,1.1,1.7,1.7,2.6
									c0.1,0.2,0.3,0.4,0.4,0.6l0.6,0.9c1.2,1.9,3.1,4.9,5.3,8.4c2.4,3.8,5.2,8.1,7.9,12c0.2,0.3,0.4,0.6,0.6,0.8
									c0.8,1.1,1.5,2.2,2.2,3.2c-0.4,0.1-0.9,0.2-1.4,0.3c-1.2,0.2-2.5,0.4-4.1,0.5c-1.7,0.1-3.6,0.2-5.7,0.2
									c-3.8,0-7.8-0.3-11.9-0.9c0,0-0.1,0-0.1,0c-0.1,0-0.2,0-0.3,0c-0.9,0-1.7,0.4-2.2,1.1c-0.1,0.1-0.1,0.2-0.2,0.3
									c-0.1,0.1-0.1,0.2-0.2,0.4c-0.1,0.2-0.1,0.5-0.1,0.7c0,0.5,0.1,1,0.3,1.5c0.1,0.1,0.1,0.2,0.2,0.3c0.7,0.9,1.4,1.8,2.1,2.5
									c6.1,6.2,14.7,7.1,21.7,7.1c4.4,0,9.8-0.9,15.7-2c0.1,0,0.3-0.1,0.4-0.1c0.6-0.1,1.2-0.2,1.9-0.3c0.1,0,0.1,0,0.2,0
									c1.5-0.3,3.1-0.6,4.7-0.9c0.6-0.1,1.2-0.2,1.9-0.3c5.2-0.9,10.6-1.7,15.7-1.8c0.6,0,1.2,0,1.8,0h0c0,0,0,0,0,0
									c1.1,0,2.1,0,3,0.1c3.3,0.2,6.2,0.7,8.7,1.6c0.2,0.1,0.4,0.1,0.6,0.2c0.1,0,0.2,0,0.2,0c0.2,0,0.4,0.1,0.6,0.1
									c0.9,0,1.7-0.4,2.2-1c0.1-0.2,0.3-0.4,0.4-0.7c0.1-0.2,0.1-0.4,0.1-0.7c0-0.2,0-0.5-0.1-0.8c0-0.1-0.1-0.3-0.1-0.5
									c-0.9-2.6-2.5-4.8-4.7-6.6c-1.9-1.4-4.1-2.6-6.9-3.4c-0.8-0.2-1.7-0.5-2.6-0.7c-0.6-0.1-1.2-0.2-1.9-0.4
									c-2.6-0.4-5.4-0.6-8.6-0.6c-2.1,0-4.2,0.1-6.1,0.3c-0.6,0.1-1.2,0.1-1.8,0.2c-2,0.2-3.8,0.5-5.4,0.8c-0.5,0.1-1,0.2-1.5,0.3
									c-0.4,0.1-0.7,0.2-1,0.2c-1.5-1.6-4.1-5.5-9.2-13.5c-0.7-1.1-1.5-2.3-2.3-3.6c4.1,1.7,6.9,4.2,9.2,6.2
									c0.1,0.1,0.1,0.1,0.2,0.2c0.2,0.2,0.4,0.3,0.5,0.5c1,0.8,2.1,1.4,3.4,1.7c0,0,0,0,0,0c0.6,0.1,1.2,0.2,1.8,0.2
									c0.1,0,0.2,0,0.3,0H67c0.3,0,0.6,0,0.9-0.1c0.9-0.2,1.6-0.6,2-1.3c0.1-0.1,0.2-0.2,0.2-0.4c0.1-0.1,0.1-0.3,0.2-0.4
									c0.1-0.3,0.1-0.5,0.1-0.8c0-0.3,0-0.6-0.1-0.8c-0.1-0.4-0.3-0.8-0.6-1.2c-0.4-0.5-0.8-1.1-1.3-1.8c-1.2-1.7-2.8-3.9-4.3-6.1
									c-0.5-0.7-1-1.4-1.5-2.1c-0.4-0.5-0.7-1-1.1-1.5c-1.7-2.4-3.2-4.6-4.1-5.8c-0.1-0.1-0.2-0.2-0.2-0.4
									c-0.2-0.3-0.3-0.5-0.4-0.7c-0.1-0.2-0.3-0.5-0.3-0.7c0-0.1-0.1-0.2,0-0.2c0-0.2,0.2-0.4,0.5-0.4c0,0,0.1,0,0.1,0
									c0.2,0.1,0.5,0.1,0.8,0.2c1,0.3,2.2,1,3.5,1.9c0.7,0.5,1.4,1.2,2.1,1.9c0.5,0.5,1,1.1,1.6,1.8c0.1,0.2,0.2,0.3,0.3,0.5
									l0.7,1c0.6,0.8,1.1,1.5,1.7,2.3c2,2.7,3.9,5.3,5.4,7.4c1.5,2.1,2.7,3.7,3.1,4.4l0,0c0,0,0,0,0.1,0.1
									c0.1,0.1,0.1,0.2,0.2,0.3c0.3,0.4,0.6,0.8,1,1.2c0.8,0.8,2,1.5,4,1.5h1.1h2.2h1c0.4,0,0.9-0.1,1.2-0.2
									c0.9-0.3,1.5-0.8,1.9-1.6c0.2-0.4,0.3-0.8,0.3-1.2c0-0.5-0.1-1-0.4-1.5c-0.1-0.2-0.2-0.3-0.3-0.5c-0.4-0.6-1.7-2.3-3.2-4.5
									c-3-4.2-7.2-10.1-9.2-13c-0.1-0.1-0.1-0.2-0.2-0.3c-0.5-0.8-1.3-2-1.9-2.9v0c2.4,0.3,6.7,2,11.3,6c0.6,0.6,1.3,1.2,2,1.9
									c1.4,3.8,2.9,7.3,4.6,10.6c3.3,6.3,7.4,11.9,13,18c10.5,11.3,17.9,13.7,22.1,13.7c1.6,0,3-0.3,4.2-0.9
									c0.7-0.4,1.4-0.8,2-1.4c1.2-1.2,1.9-2.6,2.2-4.3c0.1-0.5,0.2-1.1,0.2-1.7c0-0.3,0-0.7,0-1.1c-0.1-1.5-0.5-3.1-1.2-4.9
									c-0.3-0.8-0.6-1.5-1-2.3c-0.2-0.5-0.5-0.9-0.8-1.4c-0.8-1.4-1.8-2.9-2.9-4.4c-0.4-0.5-0.8-1.1-1.2-1.6
									c-0.4-0.5-0.9-1.1-1.4-1.6c-1.7-2-3.6-4-5.7-6c-5.2-5.1-11.8-10.4-19.5-15.8c-0.1-0.1-0.2-0.2-0.4-0.3
									c-0.5-0.4-0.9-0.7-1.3-1.1c-0.3-0.3-0.4-0.5-0.5-0.8c-0.1-0.1-0.1-0.3-0.1-0.4c0-0.1,0-0.1,0.1-0.2c0.1-0.2,0.2-0.3,0.5-0.4
									c0.1,0,0.1,0,0.2,0c0,0,0,0,0,0c4.4,0,12.7,5.2,22.1,12.3c1.1,0.8,2.2,1.7,3.4,2.6c1.5,1.1,2.9,2.3,4.4,3.5
									c1.5,1.2,3.1,2.4,4.6,3.7c0.3,0.2,0.6,0.5,0.9,0.7c0.4,0.3,0.8,0.6,1.2,0.9c4.7,3.5,8.4,5.1,11.6,5.1c0.5,0,2.4,0,3.9-0.7
									c0.9-0.4,1.7-1,2-2c0.1-0.2,0.1-0.5,0.1-0.7c0-0.4-0.1-0.9-0.3-1.4c-0.2-0.3-0.4-0.7-0.8-1c-0.2-0.2-0.4-0.3-0.6-0.4
									c-0.2-0.1-0.3-0.2-0.5-0.4c-0.5-0.4-0.9-0.7-1.4-1.1c-0.1-0.1-0.2-0.2-0.3-0.3c-0.2-0.2-0.4-0.5-0.4-0.9c0-0.1,0-0.3,0-0.5
									c0,0,0-0.1,0-0.1c0,0,0,0,0,0c0,0,0-0.1,0-0.1c0.7-3.3,1.4-7.3,1.4-11.4c0-1.8-0.1-3.7-0.4-5.4c0.2,0.1,0.4,0.3,0.7,0.5
									c0.5,0.4,1.1,1,1.7,1.7c0.7,0.8,1.4,1.8,2.1,3c1.8,3,3.7,5.7,5.6,8c3.2,3.9,6.4,6.8,9.7,8.5c1,0.5,2,1,3.1,1.4
									c2.4,0.9,4.8,1.3,7.1,1.3c2.7,0,5-0.7,6.5-1.9c0.8,0.5,1.8,0.9,3.2,0.9h4c0.4,0,0.9-0.1,1.2-0.2c0.8-0.3,1.5-0.8,1.9-1.6
									c0.2-0.4,0.3-0.8,0.3-1.2c0-0.7-0.2-1.4-0.7-2l-8.8-12.3l-3.7-5.1l0,0c-0.4-0.5-0.7-1-1-1.4c-0.6-0.8-1-1.5-1.3-2.1v0
									c1,0.2,2,0.5,2.5,0.7c0.8,0.4,1.5,0.5,2.1,0.5c1,0,1.9-0.5,2.4-1.4c0.2-0.3,0.3-0.7,0.3-1.3
									C190.4,12.8,190.2,12.1,189.6,11.3L189.6,11.3z"/>
								<path id="path24_1_" class="st0" d="M139.5,17.3c1.7,2.3,1.5,6.6,1,9.8v0c-1.6-1.3-3.3-2.6-4.9-3.9
									c-0.1-0.1-0.1-0.1-0.2-0.2c-0.1-0.1-0.3-0.2-0.4-0.3c-0.2-0.2-0.5-0.4-0.7-0.5c-2.1-1.7-3.9-3.1-5.2-4.1
									c0.2-0.2,0.3-0.3,0.5-0.5c0.7-0.6,1.6-1.1,2.5-1.5c1-0.4,2.1-0.7,3.2-0.7c0.9,0,2,0.2,3,0.8
									C138.8,16.5,139.2,16.8,139.5,17.3 M137.6,17c-0.5-0.3-1.1-0.5-1.7-0.5c-0.2,0-0.4,0-0.6,0c-0.2,0-0.5,0-0.7,0
									c-1.3,0.1-2.7,0.7-3.8,1.5c1,0.8,2.2,1.8,3.6,2.9c0.3,0.3,0.7,0.5,1,0.8c0.6,0.5,1.2,0.9,1.8,1.4c0.8,0.7,1.7,1.3,2.5,2
									c0.3-3.2-0.1-5.8-1.1-7.1C138.4,17.5,138,17.2,137.6,17"/>
								<path id="path26_1_" class="st0" d="M121.6,51.1c-1.8-1.3-4-3.1-6.4-5.5c-0.3-0.3-0.6-0.6-0.9-0.9c-0.1-0.2-0.3-0.3-0.4-0.4
									c-0.5-0.5-1-1.1-1.5-1.6c-0.6-0.6-1.1-1.2-1.6-1.8c-0.4-0.4-0.7-0.9-1.1-1.3c-1.2-1.5-2.4-3-3.4-4.5c0,0,0,0,0,0
									c2.2,1.7,4.3,3.7,6.5,5.8c0.6,0.6,1.1,1.1,1.7,1.7c1,1,1.9,2,2.9,3.1c0.7,0.8,1.3,1.5,1.8,2.1
									C120.2,49.1,121,50.2,121.6,51.1C121.6,51.1,121.6,51.1,121.6,51.1"/>
								<path id="path28_1_" class="st0" d="M180.8,30.4C180.8,30.4,180.8,30.4,180.8,30.4c0.1,0.2,0.1,0.4,0,0.5
									c-0.1,0.1-0.2,0.1-0.3,0.1c0,0,0,0,0,0c0,0,0,0-0.1,0c-1-0.2-2.7-0.9-4.6-2c-1.8-1.1-3.7-2.6-5.3-4.5
									c-0.9-1.1-1.6-2.1-2.2-3c-0.6-0.9-1.1-1.8-1.4-2.5c-0.5-1.1-0.7-2-0.8-2.6c0-0.1,0-0.3,0.1-0.3c0.1-0.1,0.2-0.1,0.3-0.1
									c0,0,0.1,0,0.1,0c0.3,0.1,0.7,0.3,1.1,0.4c1.4,0.6,3.2,1.8,4.7,3.2c0.5,0.5,1,0.9,1.4,1.5c1.2,1.5,2.9,3.7,4.3,5.7
									C179.3,28.3,180.3,29.7,180.8,30.4 M167.9,17.7c-0.5-0.3-0.4,0.1-0.3,0.2c0.5,1.3,1.5,3.2,3.7,5.8c2.4,2.8,5.4,4.6,7.4,5.5
									c-1.6-2.3-4-5.5-5.7-7.5C171.5,20,169.5,18.5,167.9,17.7"/>
								<path id="path30_1_" class="st0" d="M52.3,43.5c2.6,4,4,5.9,5.1,7.1c0.1,0.1,0.1,0.1,0.2,0.2c0,0,0,0,0.1,0
									c0.1,0,0.1,0.1,0.2,0.1c0,0,0,0,0,0c0.5,0.2,1,0.3,1.3,0.2c0,0,0.1,0,0.1,0c0.5-0.1,1.1-0.3,1.8-0.4
									c1.5-0.3,3.3-0.6,5.3-0.8c0.6-0.1,1.2-0.1,1.8-0.2c4.8-0.4,10.3-0.5,15.3,0.4c0.6,0.1,1.3,0.2,1.9,0.4
									c0.8,0.2,1.6,0.4,2.4,0.7c4.5,1.5,8.1,4.1,9.5,8.4c0.2,0.5,0.1,0.8-0.1,0.9c-0.3,0.2-0.8,0.1-1.1,0
									c-4.3-1.5-9.2-1.9-14.4-1.8c-5,0.2-10.2,0.9-15.3,1.7c-0.6,0.1-1.2,0.2-1.9,0.3c-1.7,0.3-3.4,0.6-5,0.9
									c-0.6,0.1-1.2,0.2-1.9,0.3c-6.2,1.2-11.9,2.2-16.4,2.2c-4,0-7.8-0.3-11.2-1.3c-4.4-1.2-8.1-3.5-11-7.5
									c-0.3-0.4-0.2-1,0.2-1.1c0.1,0,0.2,0,0.3,0c9.2,1.3,16.1,1,20.7,0.4c2.1-0.3,3.6-0.6,4.7-0.9c0.6-0.1,1.4-0.5,0.7-1.3
									c-0.5-0.6-1-1.3-1.4-2c-4.9-7-10.9-16.5-14.3-21.8c-0.8-1.3-1.5-2.4-1.9-3.1c-1.1-1.8-5-8.3-9.1-12.1
									c-1.1-1-2.2-1.8-3.3-2.3c-1.7-0.7-3.5-1.1-5.4-1.1h0c0,0,0,0,0,0c-0.6,0-1.1,0.1-1.7,0.2c-1.4,0.2-2.8,0.6-4.3,1.3
									c-0.9,0.4-1.3,0-1.2-0.6c0-0.2,0.1-0.3,0.2-0.5C6.2,5.9,15,1.8,20.4,2.9c0.5,0.1,1,0.2,1.5,0.4c2.5,0.8,4.3,2.2,6.7,5
									C28.8,8.5,29,8.8,29.2,9c0.2,0.3,0.4,0.5,0.6,0.8c0.4,0.5,0.8,1.1,1.3,1.7c1.2,1.6,2.5,3.4,3.8,5.3c2,2.9,4,6,5.9,8.9
									c2.7,4.2,5.2,8.2,7.1,11.1C49.7,39.5,51.1,41.7,52.3,43.5"/>
								<path id="path32_1_" class="st0" d="M187,11.2c0.4,0.5,0.7,0.9,0.9,1.3c0.4,0.7,0.5,1.2,0.3,1.4c-0.1,0.2-0.4,0.2-0.8,0.2
									c-0.3,0-0.6-0.1-0.9-0.3c-1.3-0.6-5.1-1.6-5.7-0.8c-1.1,1.3,2.7,6.2,3.1,6.7l7.2,10.1l5.3,7.4c0.3,0.4,0.3,0.8,0.2,1.1
									c-0.2,0.4-0.7,0.6-1.3,0.6h-4c-2,0-2.6-1-3.4-2c-0.5,1.3-1.7,2.1-3.2,2.6c0,0,0,0,0,0c-3.3,1-8.3,0.2-12.4-2.1
									c-0.6-0.3-1.1-0.7-1.7-1c-2.1-1.4-4.2-3.3-6.3-5.8c-0.3-0.3-0.6-0.7-0.9-1.1c-0.4-0.5-0.8-1-1.2-1.5
									c-1.3-1.7-2.5-3.5-3.8-5.6c-0.2-0.3-0.3-0.5-0.5-0.8c-0.2-0.3-0.4-0.6-0.6-0.9c-4.5-6.9-8.7-6.4-8.7-6.4
									c0.8,2.1,1.2,4.4,1.4,6.7c0,0.1,0,0.2,0,0.3c0,0.5,0,1,0,1.4c0,0,0,0,0,0c0,1.4-0.1,2.8-0.2,4c0,0.3-0.1,0.6-0.1,1
									c0,0.2,0,0.3-0.1,0.5c0,0.3-0.1,0.5-0.1,0.8c-0.1,0.4-0.1,0.8-0.2,1.2c-0.3,2-0.7,3.5-0.8,3.9c-0.3,1.6,0.4,2.7,0.9,3.2
									c1.1,1.1,1.8,1.5,3,2.4c1.4,1.1-1.1,2-3.7,2c-1.9,0-5.2-0.7-11.1-5.3c-0.4-0.3-0.9-0.7-1.3-1c-1-0.8-2-1.6-3-2.4
									c-10.8-8.6-20.3-15.7-27.1-18.6c-3.4-1.5-6.1-1.9-7.9-1c-2.9,1.5-0.2,4.4,2.6,6.3c1.2,0.9,2.4,1.7,3.6,2.6
									c1.1,0.8,2.1,1.5,3.1,2.3c1.1,0.9,2.2,1.7,3.3,2.6c5.9,4.7,10.6,9.1,14.1,13.1c0.5,0.5,0.9,1.1,1.4,1.6
									c0.5,0.6,1,1.2,1.4,1.7c1.7,2.3,3.1,4.4,4,6.3c0.3,0.6,0.6,1.2,0.8,1.8c0.4,1,0.7,1.9,0.9,2.8c0.8,3.2,0.2,5.7-1.4,7.3
									c-0.4,0.4-0.8,0.7-1.4,1c-0.6,0.3-1.3,0.6-2.1,0.7c-0.6,0.1-1.2,0.1-1.9,0.1c-1.4-0.1-2.9-0.4-4.6-1.1
									c-0.2-0.1-0.4-0.2-0.7-0.3c-0.1,0-0.2-0.1-0.3-0.1c-4-1.8-8.9-5.4-14.5-11.5c-1.4-1.5-2.7-3-3.9-4.4c-0.5-0.6-1-1.3-1.6-1.9
									c-0.6-0.7-1.1-1.5-1.7-2.2c-0.6-0.8-1.2-1.6-1.7-2.4c-3.5-5.2-6.2-10.7-8.6-17.3c-5.2-5.6-11.1-8.5-14.8-8.8
									c-0.7-0.1-1.3-0.1-1.8,0c-0.2,0-0.3,0.1-0.5,0.1c-0.8,0.3-0.8,0.9,0,2.5c0.2,0.3,0.4,0.6,0.6,1c0.5,0.8,1.1,1.7,1.9,2.8
									c0.7,1.1,1.8,2.6,3,4.2c3,4.2,6.8,9.5,8.6,12c0.4,0.6,0.7,1,0.9,1.2c0.1,0.1,0.1,0.2,0.2,0.3c0,0,0,0,0,0c0,0.1,0,0.1,0,0.2
									c0,0,0,0.1,0,0.1c0,0,0,0,0,0.1c0,0.2-0.1,0.3-0.2,0.5c-0.2,0.3-0.7,0.5-1.2,0.5h-4.4c-1.7,0-2.4-0.6-3-1.4
									c-0.2-0.2-0.4-0.5-0.6-0.8c-0.5-0.7-1.5-2.2-3-4.2C73.4,30,71.2,27,69,24c0,0,0-0.1-0.1-0.1c-0.2-0.2-0.4-0.5-0.5-0.7
									c-0.4-0.6-0.9-1.2-1.3-1.8c-0.5-0.7-1.1-1.4-1.6-2c-0.5-0.6-1.1-1.1-1.6-1.6c-0.1-0.1-0.2-0.2-0.3-0.3
									c-3.5-3-6.7-3.7-7.9-3.5c-0.7,0.1-1.3,0.6-1.4,1.5c-0.1,0.9,0.4,2.4,1.7,4.3c0.6,0.9,1.7,2.4,3,4.2c0.4,0.6,0.9,1.2,1.3,1.9
									c0.7,1,1.4,2,2.1,3c0.5,0.7,1,1.4,1.5,2.1c1.7,2.4,3.3,4.6,4.3,6.1c0.2,0.3,0.3,0.5,0.3,0.7c0,0,0,0,0,0.1
									c0,0.6-0.6,0.9-1.4,0.9h-4.3c-1.3,0-2.8-0.3-4.1-1.4c-2.1-1.8-4.7-4.3-8.6-6.3c-1.1-0.5-2.2-1-3.4-1.5
									c-0.1,0-0.2-0.1-0.2-0.2c-0.1-0.2-0.1-0.5,0.2-0.7c0.1,0,0.2-0.1,0.3-0.1c0.4-0.2,1-0.4,1.6-0.5c1.5-0.4,3.4-0.5,4.9,0h0
									c-1.8-2.7-3.4-5.1-4.2-6.2c-2-3-3.1-5.5-3.5-7.7c-0.1-0.4-0.1-0.8-0.1-1.1c0-0.2,0-0.4,0-0.5c0-1.3,0.3-2.5,0.9-3.4
									c0.7-1.3,1.9-2.2,3.2-2.7c2.9-1.2,6.6-0.6,9.7,0.4c2.1,0.7,4,1.6,5.1,2.4c0,0,0.4-0.6,1.2-1.3c0.4-0.3,0.9-0.7,1.4-1
									C68,6.5,69.2,6,70.6,5.8C71,5.8,71.5,5.7,72,5.7c0.6,0,1.1,0,1.8,0c0.6,0,1.2,0.1,1.8,0.2c3.5,0.6,8,2.4,13.6,6.2
									c1.1-3,4.5-6.7,11.4-6.4c0.1,0,0.1,0,0.2,0c4.8,0.3,11.2,2.5,19.7,8.4c1.6-2.5,3.7-4.3,6.1-5.6c3.3-1.8,7.3-2.6,11.3-2.7
									c0.1,0,0.2,0,0.2,0c1.4,0,2.9,0,4.3,0.1c5.5,0.4,10.7,1.8,14.2,3.2c1.2-1.7,2.9-2.9,4.7-3.2c2.7-0.5,5.5,0.1,7.9,1
									c0.1,0,0.1,0,0.2,0.1c0,0,0,0,0,0c1.9,0.7,3.4,1.6,4.4,2.3h0c0.2-1.3,1.1-3,3.1-3.4c1.5-0.3,3.5,0.2,6.3,1.9c0,0,0,0,0,0
									c0.1,0,0.1,0.1,0.2,0.1c0.2,0.1,0.3,0.2,0.5,0.3C185.2,9.3,186.2,10.3,187,11.2 M125.6,55.5c0.1-0.1,0.1-0.2,0.1-0.3
									c0.2-0.7-0.4-2.2-2-4.5c-1.1-1.6-2.7-3.7-4.9-6.2c0,0,0-0.1-0.1-0.1c-0.5-0.6-1-1.2-1.6-1.7c-0.5-0.6-1.1-1.2-1.6-1.7
									c-3.3-3.4-7.2-7-11.8-10.2c-1.6-1.1-3-1.8-3.2-1.6c-0.3,0.2,0.6,2.1,1.9,4.1c3.2,4.9,6.1,8.5,10.4,13
									c6,6.1,11.3,9.4,12.5,9.3C125.5,55.5,125.6,55.5,125.6,55.5 M141.7,17c-0.2-0.3-0.3-0.6-0.6-0.9c-3.3-4.5-10.6-3.1-14,1.1
									c-0.1,0.1-0.1,0.1-0.2,0.2c-0.1,0.1-0.1,0.2-0.2,0.2c-0.2,0.2-0.3,0.4-0.5,0.7c0,0,3.6,2.9,7.8,6.3c1,0.8,2.1,1.6,3.1,2.5
									c1.6,1.3,3.2,2.5,4.6,3.6C141.9,30.7,144.3,22,141.7,17 M171.1,16c-2.5-1.7-5.1-2.6-6.1-2c-0.4,0.2-0.7,0.7-0.9,1.3
									c0,0.1-0.1,0.3-0.1,0.5c0,0,0,0,0,0c0,0.1,0,0.3,0,0.4c0,0.1,0,0.1,0,0.1c0,0.1,0,0.2,0,0.4c0,0.1,0,0.2,0,0.3
									c0,0.1,0,0.1,0,0.2c0.1,0.8,0.4,1.7,0.9,2.7c0.8,1.6,2,3.6,3.9,5.9c0.7,0.8,1.4,1.6,2.1,2.2h0c0,0,0.1,0,0.1,0.1
									c2.8,2.6,5.6,4,7.9,4.6c1.7,0.4,3.1,0.4,4,0c0.4-0.2,0.7-0.4,0.8-0.6c0.3-0.5,0.1-1-0.2-1.4c0,0,0,0,0,0c0,0,0,0,0,0
									c-0.1-0.2-0.3-0.4-0.4-0.5c-0.1-0.1-0.3-0.5-0.7-1c-0.8-1.2-2.3-3.2-3.9-5.3c-1.1-1.4-2.2-2.8-3.1-4
									C174.3,18.4,172.7,17.1,171.1,16"/>
							</g>
						</g>
					</g>
				</g>
			</g>
		</g>
	</g>
</g>
</svg>
