<?xml version="1.0" encoding="UTF-8"?>
<svg width="200px" height="200px" viewBox="0 0 200 200" version="1.1" xmlns="http://www.w3.org/2000/svg" xmlns:xlink="http://www.w3.org/1999/xlink">
    <!-- Generator: Sketch 54.1 (76490) - https://sketchapp.com -->
    <title>ucla</title>
    <desc>Created with Sketch.</desc>
    <g id="ucla" stroke="none" stroke-width="1" fill="none" fill-rule="evenodd">
        <g id="ucla_BGD">
            <g id="UCLA_WW_PRI_LOGO_ON_BLU" transform="translate(0.000000, 51.000000)">
                <path d="M133.420652,39.6913043 C135.532609,33.4597826 138.775,25.2228261 143.123913,17.9184783 C144.35,16.2021739 145.304348,15.4173913 145.832609,15.1119565 C145.883696,15.7847826 145.744565,17.2097826 144.821739,19.5619565 C141.388043,28.3347826 137.279348,34.4554348 133.420652,39.6913043 M155.396739,80.8456522 C155.218478,80.8456522 155.032609,80.8293478 154.843478,80.7967391 C153.246739,80.2086957 153.073913,77.2945652 154.295652,71.6434783 C156.488043,61.3173913 161.578261,56.4521739 162.719565,55.801087 L162.901087,55.6847826 C163.668478,55.1336957 164.392391,54.8282609 164.940217,54.8282609 C165.209783,54.8282609 165.566304,54.8880435 165.933696,55.3467391 C166.579348,56.1532609 167.107609,58.1021739 166.471739,60.9347826 C166.236957,61.8945652 163.138043,69.6054348 160.329348,76.4086957 C158.718478,79.3532609 157.059783,80.8456522 155.396739,80.8456522 M195.832609,76.9771739 C195.119565,75.2695652 193.607609,74.2913043 191.686957,74.2913043 C189.368478,74.2913043 186.536957,75.7326087 183.272826,78.5782609 C181.845652,79.823913 179.969565,80.8 179.002174,80.801087 C178.981522,80.801087 178.963043,80.8 178.947826,80.798913 C178.857609,80.4815217 178.691304,79.2076087 180.076087,75.6673913 L180.106522,75.5815217 C180.516304,74.3565217 182.468478,69.4380435 184.357609,64.6815217 C186.944565,58.1652174 188.561957,54.0728261 188.878261,53.0304348 C190.440217,48.7347826 189.615217,46.176087 188.644565,44.7847826 C187.467391,43.098913 185.458696,42.1695652 182.986957,42.1695652 C179.226087,42.1695652 174.68587,44.3804348 172.229348,48.1326087 C168.623913,43.3815217 164.405435,42.2869565 161.288043,42.2869565 C156.43587,42.2869565 151.167391,44.9184783 146.453261,49.6978261 C139.797826,56.4445652 135.663043,65.8206522 135.540217,74.3434783 C133.359783,76.5826087 128.334783,80.9945652 124.798913,80.9945652 C124.472826,80.9945652 124.166304,80.9532609 123.891304,80.8706522 C123.688043,80.8119565 123.447826,80.6869565 123.21087,80.2326087 C121.820652,77.5597826 123.432609,70.0706522 124.843478,65.6967391 C140.096739,49.6347826 148.630435,32.3695652 150.888043,27.4445652 C155.628261,17.248913 156.634783,9.83695652 153.882609,5.41413043 C152.138043,2.60978261 149.027174,1.13369565 144.638043,1.02826087 C144.302174,1.01086957 143.968478,1.00108696 143.63913,1.00108696 C134.658696,1.00108696 128.904348,7.56521739 126.257609,11.5021739 C123.53913,15.6880435 119.502174,24.9608696 115.725,35.7043478 C111.302174,48.273913 107.546739,61.8869565 105.125,74.1119565 C102.854348,76.0391304 99.9271739,77.5086957 97.5467391,78.7032609 C96.9945652,78.9804348 96.476087,79.2402174 96.0032609,79.4880435 C93.8902174,80.5923913 92.0173913,81.151087 90.4380435,81.151087 C88.5684783,81.1521739 87.2271739,80.3728261 86.3391304,78.7695652 C84.0619565,74.6576087 85.5717391,67.5847826 88.5043478,61.5793478 C88.5326087,63.1793478 89.1391304,64.6413043 90.2728261,65.8293478 C91.823913,67.4543478 94.2032609,68.3858696 96.8021739,68.3858696 C99.5521739,68.3858696 102.133696,67.35 104.070652,65.4684783 C106.31087,63.2934783 107.557609,60.1054348 107.677174,56.2456522 C107.796739,52.3826087 106.63587,49.0793478 104.323913,46.6934783 C101.843478,44.1358696 98.1065217,42.7282609 93.798913,42.7282609 C87.4304348,42.7282609 80.5576087,45.7532609 75.4130435,50.8184783 C71.1869565,54.9815217 66.1065217,62.4380435 65.7804348,74.3891304 C65.2804348,75.5293478 63.0076087,80.1228261 58.6108696,80.973913 C58.5119565,80.9934783 58.4206522,81.0032609 58.3413043,81.0032609 C58.1717391,81.0032609 58.0891304,80.973913 57.9586957,80.8086957 C56.9597826,79.5434783 56.6402174,74.5369565 59.0336957,64.5554348 C60.3163043,58.6543478 60.8532609,56.6576087 61.476087,54.3445652 C61.9532609,52.5717391 62.4945652,50.5630435 63.4521739,46.5032609 C64.2652174,43.0641304 66.5358696,34.6641304 68.7315217,26.5391304 C71.3445652,16.8728261 72.9565217,10.8880435 73.151087,9.70978261 C73.7163043,6.30326087 71.5934783,3.33152174 67.9804348,2.48369565 C66.7032609,2.18913043 65.5152174,2.04456522 64.348913,2.04456522 C62.3,2.04456522 60.3195652,2.50326087 58.4619565,3.40869565 C55.3945652,4.90543478 53.348913,7.87282609 52.5467391,11.9923913 C50.5826087,19.8826087 49.1445652,25.1086957 47.876087,29.7228261 C46.3956522,35.1086957 45.1163043,39.7597826 43.4771739,46.9054348 C43.3630435,47.3902174 43.2282609,47.9902174 43.0706522,48.6836957 C42.0815217,53.0728261 40.2380435,61.2423913 37.6054348,68.2902174 C33.6902174,78.7728261 30.4728261,80.3380435 28.9032609,80.3380435 C28.8032609,80.3380435 28.7043478,80.3326087 28.6021739,80.3217391 C27.3858696,80.1858696 26.9119565,79.7217391 26.6347826,79.3326087 C24.848913,76.8282609 26.5652174,69.1565217 27.1413043,66.5934783 C28.7663043,60.2706522 30.4163043,54.548913 32.0119565,49.0152174 C33.9869565,42.1652174 35.8532609,35.6956522 37.3391304,29.1793478 C39.3804348,21.3771739 38.2423913,13.6663043 34.2913043,8.54456522 C31.2619565,4.61630435 26.9,2.54021739 21.6782609,2.54021739 C18.5054348,2.54021739 15.0619565,3.31956522 11.4402174,4.85543478 C2.79456522,8.52391304 -0.116304348,18.8108696 1.10652174,24.826087 C1.84782609,28.4706522 4.04673913,30.6456522 6.98913043,30.6456522 L7.05869565,30.6456522 C12.0217391,30.5880435 12.2054348,25.4228261 12.3043478,22.6467391 C12.323913,22.0717391 12.3434783,21.526087 12.3858696,21.0456522 C12.7782609,18.8836957 13.8,16.3467391 16.4336957,16.3467391 C16.4652174,16.3467391 16.498913,16.3467391 16.5304348,16.3478261 C18.9967391,17.0336957 19.7826087,18.2771739 18.3978261,26.8967391 C18.076087,27.9934783 17.7402174,29.1293478 17.3923913,30.3054348 C14.5576087,39.898913 11.0293478,51.8380435 7.65434783,66.948913 C5.23152174,77.9336957 6.10217391,86.1163043 10.2413043,91.2663043 C13.0804348,94.8 17.4728261,96.7456522 22.6108696,96.7456522 C25.3902174,96.7456522 28.2586957,96.1728261 30.6902174,95.1326087 C34.9380435,93.3130435 37.3369565,91.4065217 39.7945652,87.4586957 C42.1728261,93.2315217 46.4847826,96.4576087 52.0347826,96.4576087 C57.6336957,96.4576087 63.9521739,93.0923913 69.0434783,87.5206522 C71.6369565,92.3706522 76.6065217,95.4065217 80.8543478,96.0206522 C82.2282609,96.2826087 83.6434783,96.4163043 85.0608696,96.4163043 C93.9032609,96.4163043 101.670652,91.2673913 106.052174,87.6315217 C107.96087,93.3815217 112.61087,96.6108696 119.183696,96.6108696 C126.159783,96.6108696 134.441304,92.8336957 139.333696,87.6706522 C141.579348,91.6771739 145.520652,96.3456522 151.691304,96.3456522 C156.13913,96.3456522 160.56087,93.7978261 163.603261,89.7652174 C164.154348,91.3869565 164.982609,92.7706522 166.070652,93.8673913 C167.911957,95.725 170.417391,96.7076087 173.31413,96.7086957 L173.315217,96.7086957 C175.882609,96.7086957 178.7,95.9217391 181.467391,94.4347826 C186.427174,91.9434783 187.508696,91.0445652 193.63913,85.2021739 L193.677174,85.1652174 C195.947826,82.8684783 196.854348,79.425 195.832609,76.9771739" id="Fill-1" fill="#FFFFFE"></path>
                <path d="M168.906522,61.4858696 C168.577174,62.9543478 163.208696,75.9706522 162.598913,77.451087 L162.568478,77.5141304 C160.444565,81.4347826 158.098913,83.3402174 155.396739,83.3402174 C155.023913,83.3402174 154.640217,83.3021739 154.256522,83.225 L154.188043,83.2086957 C150.104348,81.9423913 150.716304,76.3880435 151.855435,71.123913 C154.265217,59.776087 159.990217,54.4945652 161.475,53.6380435 C162.686957,52.7728261 163.852174,52.3336957 164.940217,52.3336957 C166.103261,52.3336957 167.120652,52.8358696 167.881522,53.7869565 C169.227174,55.4684783 169.61087,58.3467391 168.906522,61.4858696 L168.906522,61.4858696 Z M128.022826,49.0956522 C128.193478,47.9391304 132.894565,30.1934783 141.017391,16.5782609 L141.047826,16.5326087 C142.913043,13.9021739 144.747826,12.4521739 146.211957,12.4521739 C146.872826,12.4521739 147.441304,12.7521739 147.81413,13.2978261 C148.692391,14.5858696 148.454348,17.1326087 147.145652,20.4728261 C142.957609,31.1684783 137.840217,37.9804348 133.325,43.9913043 C131.872826,45.923913 130.502174,47.7478261 129.259783,49.576087 L127.58913,52.0369565 L128.022826,49.0956522 Z M193.529348,77.9391304 C193.21087,77.173913 192.590217,76.7858696 191.68587,76.7858696 C190.518478,76.7858696 188.395652,77.4228261 184.913043,80.4576087 C183.296739,81.8695652 180.841304,83.2956522 179.002174,83.2956522 C177.845652,83.2967391 177.229348,82.75 176.916304,82.2891304 C176.013043,80.9673913 176.286957,78.5043478 177.752174,74.7586957 C178.171739,73.5 180.05,68.7695652 182.03913,63.7597826 C184.022826,58.7641304 186.270652,53.101087 186.495652,52.2826087 L186.51413,52.2282609 C187.479348,49.598913 187.509783,47.5184783 186.597826,46.2130435 C185.901087,45.2141304 184.619565,44.6652174 182.986957,44.6652174 C179.133696,44.6652174 174.269565,47.6521739 173.173913,52.1 L172.753261,53.8097826 L171.91413,52.2608696 C169.267391,47.3684783 165.593478,44.7815217 161.288043,44.7815217 C157.108696,44.7815217 152.470652,47.15 148.230435,51.45 C141.928261,57.8380435 137.927174,67.1032609 138.034783,75.0565217 L138.038043,75.3271739 L137.856522,75.525 C137.558696,75.851087 130.495652,83.4891304 124.798913,83.4902174 C124.231522,83.4902174 123.686957,83.4130435 123.181522,83.2641304 C122.234783,82.9826087 121.5,82.35 120.997826,81.3836957 C118.568478,76.7119565 122.438043,65.0206522 122.603261,64.525 L122.651087,64.3804348 L122.756522,64.2728261 C137.918478,48.4065217 146.390217,31.2717391 148.623913,26.3956522 C152.925,17.1423913 154.01087,10.3434783 151.765217,6.73152174 C150.48913,4.6826087 148.061957,3.60217391 144.551087,3.52173913 C144.229348,3.50543478 143.932609,3.49565217 143.63913,3.49565217 C135.81413,3.49565217 130.697826,9.37065217 128.344565,12.8695652 C123.141304,20.8815217 112.670652,48.475 107.454348,75.1967391 L107.41087,75.4173913 L107.245652,75.5684783 C104.667391,77.9217391 101.33913,79.5913043 98.6652174,80.9336957 C98.126087,81.2032609 97.6206522,81.4576087 97.1586957,81.698913 C94.6858696,82.9913043 92.425,83.6467391 90.4380435,83.6467391 L90.4369565,83.6467391 C87.6576087,83.6467391 85.4858696,82.3782609 84.1565217,79.9782609 C81.2945652,74.8097826 82.9826087,65.3130435 88.2597826,56.8804348 C89.9891304,54.1195652 92.8793478,52.3347826 95.6228261,52.3347826 C97.0467391,52.3347826 98.2728261,52.8358696 99.073913,53.7456522 C99.9119565,54.6956522 100.251087,56.0347826 100.053261,57.6163043 L99.8413043,59.3054348 L98.8304348,57.9347826 C97.9630435,56.7619565 96.8043478,56.1141304 95.5608696,56.1141304 C93.6554348,56.1141304 91.4173913,57.7326087 91.0032609,61.2869565 C90.9597826,62.3478261 91.3293478,63.3228261 92.0771739,64.1065217 C93.1434783,65.223913 94.9097826,65.8902174 96.8032609,65.8902174 C100.529348,65.8902174 104.96087,63.3434783 105.183696,56.1695652 C105.282609,52.951087 104.391304,50.3478261 102.532609,48.4293478 C100.526087,46.3619565 97.426087,45.2228261 93.798913,45.2228261 C88.0706522,45.2228261 81.8532609,47.9804348 77.1652174,52.5967391 C73.2271739,56.473913 68.4880435,63.4717391 68.2684783,74.7847826 L68.2652174,74.9 L68.225,75.0086957 C68.1163043,75.3 65.4913043,82.1826087 59.0858696,83.423913 C58.8304348,83.4728261 58.5815217,83.4978261 58.3423913,83.4978261 L58.3413043,83.4978261 C57.4,83.4978261 56.5902174,83.1021739 56,82.3543478 C53.5923913,79.301087 54.9967391,70.6945652 56.598913,64.0119565 C57.8913043,58.0652174 58.4358696,56.0402174 59.0673913,53.6956522 C59.5391304,51.9402174 60.075,49.951087 61.025,45.9293478 C61.8456522,42.4532609 64.1228261,34.0326087 66.323913,25.8880435 C68.475,17.9336957 70.5054348,10.4184783 70.6902174,9.30217391 C71.0358696,7.21847826 69.7206522,5.45652174 67.4163043,4.91413043 C64.4391304,4.225 61.976087,4.47173913 59.5543478,5.65108696 C56.5913043,7.09673913 55.4358696,10.1793478 54.9869565,12.5119565 C53.0021739,20.4945652 51.5576087,25.748913 50.2826087,30.3847826 C48.8086957,35.7423913 47.5358696,40.3717391 45.9065217,47.4695652 C45.7934783,47.9532609 45.6608696,48.5478261 45.5054348,49.2336957 C41.9771739,64.876087 36.9,82.8315217 28.9043478,82.8336957 L28.9032609,82.8336957 C28.7119565,82.8336957 28.5163043,82.8228261 28.325,82.801087 C26.6793478,82.6173913 25.4282609,81.9380435 24.6032609,80.7804348 C22.8934783,78.3826087 22.9271739,73.9684783 24.7119565,66.0195652 C26.3543478,59.6304348 28.0119565,53.8826087 29.6152174,48.323913 C31.5836957,41.498913 33.4423913,35.0543478 34.9141304,28.5967391 C36.775,21.5054348 35.8021739,14.5880435 32.3152174,10.0673913 C29.7771739,6.775 26.098913,5.03478261 21.6771739,5.03478261 C18.8423913,5.03478261 15.7271739,5.74782609 12.4163043,7.15326087 C5.09130435,10.2608696 2.52608696,19.2804348 3.55326087,24.3282609 C3.84347826,25.7565217 4.675,28.151087 6.98913043,28.151087 C9.43369565,28.123913 9.69130435,25.9173913 9.80978261,22.5586957 C9.8326087,21.9173913 9.85434783,21.3097826 9.90869565,20.7402174 L9.91630435,20.6847826 C10.6793478,16.3423913 13.0554348,13.851087 16.4336957,13.851087 C16.5717391,13.851087 16.7097826,13.8565217 16.85,13.8641304 L16.9815217,13.8847826 C22.2119565,15.2467391 22.1630435,19.2434783 20.8434783,27.4065217 L20.825,27.4891304 C20.4923913,28.6228261 20.1456522,29.7956522 19.7858696,31.0119565 C16.9619565,40.5695652 13.4467391,52.4641304 10.0923913,67.4880435 C7.83913043,77.6956522 8.54347826,85.1706522 12.1847826,89.7032609 C15.2065217,93.4608696 19.5217391,94.25 22.6108696,94.25 C25.0608696,94.25 27.5815217,93.748913 29.7086957,92.8391304 C34.2663043,90.8858696 36.3456522,89.1228261 39.6684783,82.5380435 L40.5347826,80.8195652 L40.9402174,82.701087 C42.5054348,89.9630435 46.4456522,93.9619565 52.0358696,93.9619565 C57.6293478,93.9619565 64.1478261,90.0065217 69.0456522,83.6358696 L69.8706522,82.5663043 L70.2413043,83.8641304 C71.8271739,89.4358696 76.9804348,92.9576087 81.2478261,93.5554348 C82.5163043,93.801087 83.7858696,93.9206522 85.0619565,93.9206522 C94.8902174,93.9206522 103.43587,86.8206522 106.654348,83.7673913 L107.605435,82.8641304 L107.794565,84.1630435 C109.002174,92.3891304 114.654348,94.1173913 119.183696,94.1173913 C126.3,94.1173913 135.258696,89.5619565 139.153261,83.9663043 L139.847826,82.9673913 L140.334783,84.0826087 C143.863043,92.1543478 148.458696,93.85 151.691304,93.85 C156.240217,93.85 161.329348,90.6717391 165.290217,83.3521739 L165.284783,84.2163043 C165.254348,87.6630435 166.140217,90.3923913 167.842391,92.1108696 C169.206522,93.4858696 171.097826,94.2130435 173.31413,94.2130435 L173.315217,94.2130435 C175.477174,94.2130435 177.895652,93.526087 180.306522,92.226087 C185.081522,89.8282609 186.018478,89.0173913 191.917391,83.3967391 C193.625,81.6695652 194.082609,79.2630435 193.529348,77.9391304 L193.529348,77.9391304 Z" id="Fill-2" fill="#EFA72D"></path>
                <path d="M195.825,45.9891304 L195.825,45.0086957 L196.480435,45.0086957 C196.816304,45.0086957 197.178261,45.0782609 197.178261,45.4717391 C197.178261,45.9630435 196.81087,45.9891304 196.403261,45.9891304 L195.825,45.9891304 Z M197.681522,45.5021739 C197.681522,44.8782609 197.307609,44.5967391 196.555435,44.5967391 L195.342391,44.5967391 L195.342391,47.7836957 L195.825,47.7836957 L195.825,46.4021739 L196.381522,46.4021739 L197.225,47.7836957 L197.761957,47.7836957 L196.854348,46.3815217 C197.322826,46.3228261 197.681522,46.0717391 197.681522,45.5021739 L197.681522,45.5021739 Z M196.408696,48.4934783 C195.146739,48.4934783 194.157609,47.5119565 194.157609,46.1804348 C194.157609,44.8782609 195.146739,43.8880435 196.408696,43.8880435 C197.658696,43.8880435 198.644565,44.8782609 198.644565,46.1804348 C198.644565,47.5119565 197.658696,48.4934783 196.408696,48.4934783 L196.408696,48.4934783 Z M196.408696,43.4293478 C194.88913,43.4293478 193.603261,44.5967391 193.603261,46.1804348 C193.603261,47.7836957 194.88913,48.9543478 196.408696,48.9543478 C197.91413,48.9543478 199.202174,47.7836957 199.202174,46.1804348 C199.202174,44.5967391 197.91413,43.4293478 196.408696,43.4293478 L196.408696,43.4293478 Z" id="Fill-3" fill="#EFA72D"></path>
            </g>
        </g>
    </g>
</svg>