<?xml version="1.0" encoding="UTF-8"?>
<svg width="200px" height="200px" viewBox="0 0 200 200" version="1.1" xmlns="http://www.w3.org/2000/svg" xmlns:xlink="http://www.w3.org/1999/xlink">
    <title>ill-chicago_BGD</title>
    <defs>
        <polygon id="path-1" points="0.0352941176 0 199.851385 0 199.851385 84.6705882 0.0352941176 84.6705882"></polygon>
    </defs>
    <g id="ill-chicago_BGD" stroke="none" stroke-width="1" fill="none" fill-rule="evenodd">
        <g id="UIC-Primary-dark" transform="translate(0.000000, 58.000000)">
            <g id="Group-3">
                <mask id="mask-2" fill="white">
                    <use xlink:href="#path-1"></use>
                </mask>
                <g id="Clip-2"></g>
                <path d="M185.812353,2.78941176 C185.713529,2.73823529 185.563529,2.66235294 185.352941,2.56117647 C184.218235,2.02294118 180.769412,0.385882353 175.337059,0.00941176471 L25.8658824,0 L2.59705882,48.8494118 C-0.348235294,55.0241176 -0.804705882,61.7976471 1.31058824,67.9217647 C3.43588235,74.0711765 7.97470588,79.0652941 14.0652941,81.9676471 L14.2770588,82.0694118 C15.4182353,82.6170588 19.5670588,84.4282353 25.1447059,84.7029412 L136.235294,84.7058824 C154.555882,84.7058824 162.915882,84.5770588 169.163529,81.5358824 C176.102353,78.0970588 179.290588,73.5123529 182.741765,66.27 L197.260588,35.9758824 C200.209412,29.7864706 200.656471,22.9870588 198.522353,16.8294118 C196.391176,10.6882353 191.88,5.70470588 185.812353,2.78941176" id="Fill-1" fill="#FFFFFF" mask="url(#mask-2)"></path>
            </g>
            <path d="M129.876471,80.8229412 C152.085882,80.8229412 161.426471,80.9894118 167.438824,78.0623529 C173.403529,75.1041176 176.091176,71.2082353 179.242353,64.5923529 L193.757059,34.3064706 C198.945882,23.4147059 194.727059,11.3329412 184.062353,6.25352941 C184.062353,6.25352941 183.952941,6.19235294 183.743529,6.09176471 C182.827059,5.65882353 179.861176,4.21235294 175.067647,3.87882353 L28.3135294,3.87882353 L6.1,50.5188235 C0.927647059,61.3688235 5.05941176,73.38 15.7664706,78.48 L15.9541176,78.5711765 C16.9405882,79.0441176 20.5117647,80.5917647 25.1447059,80.8205882 L129.876471,80.8229412" id="Fill-4" fill="#DB0032"></path>
            <polyline id="Fill-5" fill="#FFFFFF" points="70.2835294 74.8264706 98.3594118 74.8323529 129.196471 10.0882353 101.125882 10.0788235 70.2835294 74.8264706"></polyline>
            <polyline id="Fill-6" fill="#001E61" points="96.3164706 71.5441176 124.082353 13.3158824 103.165294 13.3064706 75.3976471 71.5929412 96.3164706 71.5441176"></polyline>
            <path d="M59.4747059,10.0882353 L36.8517647,57.5294118 C36.38,58.6547059 38.0094118,59.9541176 39.3247059,60.0976471 C40.63,60.2382353 43.0452941,59.8647059 43.6952941,58.4982353 L66.6982353,10.0882353 L93.8964706,10.0882353 L69.2317647,62.0094118 C66.5070588,67.7352941 64.6405882,70.4858824 60.1511765,72.7182353 C56.8176471,74.3352941 51.3623529,75.28 39.2041176,75.2941176 L25.4329412,75.0152941 C21.7605882,74.9005882 18.4435294,73.2341176 18.4435294,73.2341176 C10.6782353,69.5358824 7.79764706,61.0676471 11.5976471,53.1 L32.0529412,10.0882353 L59.4747059,10.0882353" id="Fill-7" fill="#FFFFFF"></path>
            <path d="M68.7347059,13.3158824 L46.8511765,59.3770588 C45.3935294,62.4270588 40.9564706,63.7847059 37.8494118,63.1858824 C34.7694118,62.5964706 32.2082353,59.7747059 33.5905882,56.8717647 L54.3511765,13.3158824 L34.1329412,13.3158824 L14.51,54.4894118 C10.8488235,62.1811765 14.8605882,69.7988235 23.4835294,71.5082353 C24.1617647,71.6435294 24.8541176,71.7388235 25.5470588,71.7947059 L38.9147059,72.0749773 C49.8123529,72.0911765 55.5488235,71.3582353 58.7135294,69.8241176 C62.1058824,68.1411765 63.5958824,66.3341176 66.3176471,60.6241176 L88.8,13.3158824 L68.7347059,13.3158824" id="Fill-8" fill="#001E61"></path>
            <path d="M125.371176,75.3241176 C118.270588,75.3241176 112.516471,69.5652941 112.516471,62.4647059 C112.516471,60.4741176 112.971765,58.6788235 113.774118,56.9976471 L129.955882,23.0523529 C132.682353,17.3270588 134.548235,14.5747059 139.036471,12.3441176 C142.408235,10.7070588 147.948235,9.76117647 160.391765,9.76935843 L173.921176,9.76935843 C178.197059,10.1058824 180.907647,11.5564706 180.907647,11.5564706 C188.667059,15.2558824 191.546471,23.7211765 187.754706,31.6847059 L183.926471,39.6923529 L156.729412,39.6923529 L162.495294,27.5288235 C162.968235,26.4035294 161.340588,25.1052941 160.025294,24.9629412 C158.717647,24.8223529 156.305882,25.1935294 155.656471,26.56 L140.931176,57.5294118 C140.459412,58.6547059 142.085882,59.9541176 143.404118,60.0976471 C144.708824,60.2382353 147.123529,59.8647059 147.770588,58.4982353 L154.085882,45.2482353 L181.284118,45.2482353 L173.31,62.0094118 C170.582353,67.7352941 168.717059,70.4858824 164.226471,72.7182353 C160.850588,74.3594118 155.291765,75.3041176 142.777059,75.2929412 L125.371176,75.3241176" id="Fill-9" fill="#FFFFFF"></path>
            <path d="M125.357647,72.0747059 C120.051176,72.0747059 115.748824,67.7729412 115.748824,62.4647059 C115.748824,60.9782353 116.121765,59.5847059 116.725882,58.3276471 L132.871176,24.4382353 C135.593529,18.7282353 137.085882,16.9211765 140.475294,15.2370588 C143.607647,13.7176471 149.26,12.9911765 159.931176,12.9876471 L173.805882,12.9941176 C174.494118,13.05 175.188235,13.1411765 175.865882,13.2770588 C184.487647,14.9876471 188.502941,22.6105882 184.841176,30.2964706 L181.894706,36.47 L161.841765,36.47 L165.759412,28.1852941 C167.14,25.2805882 164.58,22.4647059 161.498824,21.8723529 C158.391765,21.2735294 153.952941,22.6323529 152.501176,25.6841176 L137.667059,56.8717647 C136.285882,59.7747059 138.844706,62.5964706 141.925294,63.1858824 C145.034706,63.7847059 149.475882,62.4270588 150.930588,59.3770588 L156.122353,48.4717647 L176.184706,48.4717647 L170.394706,60.6241176 C167.674118,66.3341176 166.183529,68.1411765 162.792941,69.8241176 C159.527059,71.4076471 153.539412,72.1352941 141.991765,72.0747059 L125.357647,72.0747059" id="Fill-10" fill="#001E61"></path>
            <polyline id="Fill-11" fill="#FFFFFF" points="185.985294 81.0876471 184.937059 81.0876471 183.723529 83.6129412 182.502353 83.6129412 183.715294 81.0876471 182.662941 81.0876471 183.052353 80.2758824 186.374706 80.2758824 185.985294 81.0876471"></polyline>
            <polyline id="Fill-12" fill="#FFFFFF" points="190.411176 83.6129412 189.229412 83.6129412 190.234706 81.5188235 188.508824 83.6129412 187.32 83.6129412 187.613529 81.4905882 186.595294 83.6129412 185.411176 83.6129412 187.016471 80.2758824 188.718235 80.2758824 188.445294 82.4988235 190.308824 80.2758824 192.015882 80.2758824 190.411176 83.6129412"></polyline>
        </g>
    </g>
</svg>