<?xml version="1.0" encoding="UTF-8"?>
<svg width="200px" height="200px" viewBox="0 0 200 200" version="1.1" xmlns="http://www.w3.org/2000/svg" xmlns:xlink="http://www.w3.org/1999/xlink">
    <!-- Generator: Sketch 54.1 (76490) - https://sketchapp.com -->
    <title>incarnate-word</title>
    <desc>Created with Sketch.</desc>
    <g id="incarnate-word" stroke="none" stroke-width="1" fill="none" fill-rule="evenodd">
        <g id="incarnate-word_BGD">
            <g id="incarnate-word" transform="translate(0.000000, 44.000000)">
                <g id="g10" transform="translate(99.999998, 55.747128) scale(-1, 1) rotate(-180.000000) translate(-99.999998, -55.747128) translate(0.000000, 0.114945)" fill-rule="nonzero">
                    <g id="g12">
                        <path d="M167.517697,83.545745 C153.328272,110.620687 74.0216073,121.237698 15.7801835,79.2809176 C36.226114,83.2804577 56.2754009,84.9448255 56.2754009,84.9448255 L45.6560908,80.1287336 L55.705286,80.4772394 C55.705286,80.4772394 41.8631254,74.3006878 29.3363671,65.4032168 C69.6680442,69.7967799 94.2634459,24.9605051 96.8689631,6.2914941 L139.903445,34.8051486 L194.506202,53.2514929 C185.047352,72.8257453 167.517697,83.545745 167.517697,83.545745" id="path14" fill="#FFFFFF"></path>
                        <path d="M104.195859,111.032641 C89.1724116,111.032641 73.492412,108.722296 58.851033,104.351722 C42.351815,99.4266642 27.1373786,91.9958598 13.6302066,82.2652853 L0,72.4459752 L16.4861605,75.6708027 C22.1984362,76.7885038 27.8992637,77.7232164 33.1348957,78.4896532 L27.2261143,75.810113 L39.5170565,76.2358602 C35.6332405,74.0013775 31.3628038,71.3540212 27.2063441,68.4022971 L15.6808732,60.2156307 L29.7347119,61.7466651 C31.4371486,61.9319525 33.1521371,62.0262053 34.8320911,62.0262053 C53.8427573,62.0262053 67.7117224,50.2197689 75.998159,40.3153553 C86.2303427,28.0854706 92.1011471,13.8417928 93.2262046,5.78303434 L94.0331011,0 L98.9006872,3.22521371 L141.534709,31.4739762 L195.683673,49.7668953 L199.6308,51.1006884 L197.817926,54.8519527 C189.096547,72.9011476 174.062984,83.641837 170.290111,86.1360898 C166.037697,93.5287333 157.626203,99.7599975 145.885054,104.197699 C134.055629,108.668963 119.639537,111.032641 104.195859,111.032641 Z M104.195859,107.35448 C134.887353,107.35448 160.100686,97.6979286 167.517697,83.545745 C167.517697,83.545745 185.047352,72.8257453 194.506202,53.2514929 L139.903445,34.8051486 L96.8689631,6.2914941 C94.3839057,24.0978845 71.9002281,65.7043662 34.8320911,65.7043662 C33.0364589,65.7043662 31.1999073,65.6059754 29.3363671,65.4032168 C41.8631254,74.3006878 55.705286,80.4772394 55.705286,80.4772394 L45.6560908,80.1287336 L56.2754009,84.9448255 C56.2754009,84.9448255 36.226114,83.2804577 15.7801835,79.2809176 C43.5784817,99.3066642 76.1705728,107.35448 104.195859,107.35448 L104.195859,107.35448 Z" id="path16" fill="#FFFFFF"></path>
                        <path d="M167.517697,83.545745 C153.328272,110.620687 74.0216073,121.237698 15.7801835,79.2809176 C36.226114,83.2804577 56.2754009,84.9448255 56.2754009,84.9448255 L45.6560908,80.1287336 L55.705286,80.4772394 C55.705286,80.4772394 41.8631254,74.3006878 29.3363671,65.4032168 C69.6680442,69.7967799 94.2634459,24.9605051 96.8689631,6.2914941 L139.903445,34.8051486 L194.506202,53.2514929 C185.047352,72.8257453 167.517697,83.545745 167.517697,83.545745" id="path18" fill="#231F20"></path>
                        <polyline id="path20" fill="#231F20" points="114.068503 10.1512181 115.347124 10.1512181 115.347124 6.2914941 115.81425 6.2914941 115.81425 10.1512181 117.158158 10.1512181 117.158158 10.6165515 114.068503 10.6165515 114.068503 10.1512181"></polyline>
                        <polyline id="path22" fill="#231F20" points="119.625284 7.09696534 118.516779 10.6165515 117.772871 10.6165515 117.772871 6.2914941 118.239078 6.2914941 118.239078 9.96496527 119.398618 6.2914941 119.860687 6.2914941 121.019307 9.96496527 121.019307 6.2914941 121.481836 6.2914941 121.481836 10.6165515 120.738388 10.6165515 119.625284 7.09696534"></polyline>
                        <path d="M138.640916,68.8119523 C138.640916,68.8119523 131.03402,73.0432166 136.569652,80.7848256 C133.611951,80.1209175 131.220686,77.9531015 130.831721,75.4809177 C130.831721,75.4809177 128.107583,78.3806877 127.69287,81.9503428 C119.330572,86.929653 100.679078,85.2744806 100.679078,85.2744806 C138.364594,96.1880436 153.344364,79.2891934 157.944824,77.6059751 C157.944824,77.6059751 164.656088,76.9218372 164.656088,80.8101129 C164.656088,85.6381588 149.415169,103.086894 101.950342,103.086894 C66.8694236,103.086894 36.9484588,86.5595381 36.9484588,86.5595381 C47.6781597,88.6528713 66.6620673,89.6239058 71.5986189,89.2013771 C69.5995385,88.1291932 62.2358605,84.2372393 62.2358605,84.2372393 C62.2358605,84.2372393 69.9843661,84.4321818 72.5268947,84.3416071 C72.5268947,84.3416071 61.4225272,80.3650555 48.1241367,69.0321822 C82.6680439,61.6993088 75.5935613,46.9048264 101.420227,46.9048264 C119.93333,46.9048264 131.354479,56.3310331 131.354479,56.3310331 C131.354479,56.3310331 121.796319,40.8422978 98.5094228,36.1075853 C98.5094228,36.1075853 101.929193,30.2051027 103.813331,26.5034016 C131.37333,43.4205966 139.457468,48.7250563 137.066663,63.9393087 C132.868043,68.3954006 131.978847,71.366435 131.978847,71.366435 C133.287813,69.7563201 136.208272,68.9480443 138.640916,68.8119523" id="path24" fill="#D12636"></path>
                        <path d="M169.164134,78.0482739 C169.164134,78.0482739 173.292869,73.9245959 174.057467,70.5462051 C162.037697,77.342067 156.725054,71.0271247 149.274479,58.2933319 C149.274479,58.2933319 154.601835,62.9940214 158.958157,61.864826 L178.399536,57.9429871 C150.482755,58.375171 146.800456,54.6381596 143.071721,44.111723 L189.382984,55.9370101 C182.207352,68.3250558 169.164134,78.0482739 169.164134,78.0482739" id="path26" fill="#D12636"></path>
                        <path d="M150.656088,74.5935614 L146.581146,74.0344809 C143.871721,73.6685039 143.900226,77.5498831 145.166893,78.6050555 C145.166893,78.6050555 148.739307,76.4317222 150.656088,74.5935614" id="path28" fill="#FFFFFF"></path>
                    </g>
                </g>
            </g>
        </g>
    </g>
</svg>