<?xml version="1.0" encoding="UTF-8"?>
<svg version="1.1" xmlns="http://www.w3.org/2000/svg" width="200" height="200">
<path d="M0 0 C1.0209375 1.051875 1.0209375 1.051875 2.0625 2.125 C5.20780513 5.27934337 8.5888386 8.13934304 12 11 C12.33 10.34 12.66 9.68 13 9 C13.60585938 9.51949219 14.21171875 10.03898437 14.8359375 10.57421875 C25.33947953 19.31639758 35.38796967 23.6614214 49.00390625 25.37890625 C56.69260315 26.35151105 62.33918067 28.86421241 69.06640625 32.5390625 C71.90136372 34.22289135 71.90136372 34.22289135 75 34 C76.051875 33.319375 77.10375 32.63875 78.1875 31.9375 C81.64747056 29.88633602 83.97923482 29.71812057 87.91015625 30.25 C90.94593892 31.33947714 93.37492666 33.15313989 96 35 C96.91136719 34.46890625 97.82273437 33.9378125 98.76171875 33.390625 C107.57301552 28.50291013 115.68836686 25.95407344 125.61303711 24.29125977 C135.4133961 22.64746282 142.30365247 19.98913644 150.015625 13.6171875 C152.21655134 11.82351918 154.51167544 10.36456508 157 9 C157.33 9.66 157.66 10.32 158 11 C159.04800781 9.80890625 159.04800781 9.80890625 160.1171875 8.59375 C161.036168 7.56224127 161.95545473 6.5310053 162.875 5.5 C163.33519531 4.97535156 163.79539063 4.45070313 164.26953125 3.91015625 C165.47172076 2.56858245 166.73245946 1.28000815 168 0 C168.66 0 169.32 0 170 0 C170.99 3.96 171.98 7.92 173 12 C174.093125 10.906875 175.18625 9.81375 176.3125 8.6875 C178.54166667 6.45833333 180.77083333 4.22916667 183 2 C185.02789777 4.02789777 184.23994401 8.03911695 184.25 10.8125 C184.23088224 23.86856477 181.47795226 35.3783167 172.25 45.125 C170 47 170 47 168 47 C167.9175 47.86625 167.835 48.7325 167.75 49.625 C166.05371181 57.25829687 160.25399128 62.63146504 154 67 C144.43010339 72.46478632 133.66490249 74.61047995 123.0625 77.1875 C120.39473795 77.84281168 117.7278144 78.50120365 115.06211853 79.16487122 C113.41512904 79.57424418 111.76686685 79.97854063 110.11720276 80.3769989 C106.52146736 81.26467428 103.22448901 82.10459952 100 84 C101.15886282 87.3712373 102.69374984 90.0758331 104.6875 93 C106.22598757 95.44967515 106.97429456 96.64869238 107.1875 99.5625 C105.42267735 103.18503069 103.05923275 106.35931899 100 109 C99.01 109 98.02 109 97 109 C96.505 110.485 96.505 110.485 96 112 C91.11602571 114.69116951 86.61719798 115.96848241 81 115 C75.46603647 113.02812794 70.53248827 109.68264672 66 106 C66 105.01 66 104.02 66 103 C65.34 103 64.68 103 64 103 C62.7578125 100.3984375 62.7578125 100.3984375 62 97 C63.5546875 93.7890625 63.5546875 93.7890625 65.875 90.625 C66.63554688 89.56539063 67.39609375 88.50578125 68.1796875 87.4140625 C68.78039062 86.61742187 69.38109375 85.82078125 70 85 C66.55291141 82.90493748 66.55291141 82.90493748 63 81 C63 83.31 63 85.62 63 88 C61.125 89.0625 61.125 89.0625 59 90 C58.34 89.67 57.68 89.34 57 89 C57 86.36 57 83.72 57 81 C58.32 81 59.64 81 61 81 C58.89595769 80.43703502 56.79175446 79.87467147 54.6875 79.3125 C53.69435791 79.04566406 53.69435791 79.04566406 52.68115234 78.7734375 C48.82428335 77.7404271 44.96252531 76.73389221 41.08984375 75.76171875 C24.16268794 71.48545466 24.16268794 71.48545466 18 68 C17.2471875 67.58234375 16.494375 67.1646875 15.71875 66.734375 C8.77364224 62.52100962 3.66757989 57.06019452 0.5625 49.5 C-0.96673839 46.074506 -2.31678464 44.4659934 -4.875 41.8125 C-13.81708216 32.16229715 -15.0328125 21.09375016 -15.23046875 8.515625 C-15 6 -15 6 -13 2 C-9.7 5.63 -6.4 9.26 -3 13 C-2.690625 11.040625 -2.38125 9.08125 -2.0625 7.0625 C-1.125 1.125 -1.125 1.125 0 0 Z " fill="#672135" transform="translate(15,43)"/>
<path d="M0 0 C1.0209375 1.051875 1.0209375 1.051875 2.0625 2.125 C5.20780513 5.27934337 8.5888386 8.13934304 12 11 C12.33 10.34 12.66 9.68 13 9 C13.60585938 9.51949219 14.21171875 10.03898437 14.8359375 10.57421875 C25.33947953 19.31639758 35.38796967 23.6614214 49.00390625 25.37890625 C56.69260315 26.35151105 62.33918067 28.86421241 69.06640625 32.5390625 C71.90136372 34.22289135 71.90136372 34.22289135 75 34 C76.051875 33.319375 77.10375 32.63875 78.1875 31.9375 C81.64747056 29.88633602 83.97923482 29.71812057 87.91015625 30.25 C90.94593892 31.33947714 93.37492666 33.15313989 96 35 C96.91136719 34.46890625 97.82273437 33.9378125 98.76171875 33.390625 C107.57301552 28.50291013 115.68836686 25.95407344 125.61303711 24.29125977 C135.4133961 22.64746282 142.30365247 19.98913644 150.015625 13.6171875 C152.21655134 11.82351918 154.51167544 10.36456508 157 9 C157.33 9.66 157.66 10.32 158 11 C159.04800781 9.80890625 159.04800781 9.80890625 160.1171875 8.59375 C161.036168 7.56224127 161.95545473 6.5310053 162.875 5.5 C163.33519531 4.97535156 163.79539063 4.45070313 164.26953125 3.91015625 C165.47172076 2.56858245 166.73245946 1.28000815 168 0 C168.66 0 169.32 0 170 0 C170.99 3.96 171.98 7.92 173 12 C174.093125 10.906875 175.18625 9.81375 176.3125 8.6875 C178.54166667 6.45833333 180.77083333 4.22916667 183 2 C185.02789777 4.02789777 184.23994401 8.03911695 184.25 10.8125 C184.23088224 23.86856477 181.47795226 35.3783167 172.25 45.125 C170 47 170 47 168 47 C167.9175 47.86625 167.835 48.7325 167.75 49.625 C166.05371181 57.25829687 160.25399128 62.63146504 154 67 C144.43010339 72.46478632 133.66490249 74.61047995 123.0625 77.1875 C120.39473795 77.84281168 117.7278144 78.50120365 115.06211853 79.16487122 C113.41512904 79.57424418 111.76686685 79.97854063 110.11720276 80.3769989 C106.52146736 81.26467428 103.22448901 82.10459952 100 84 C101.15886282 87.3712373 102.69374984 90.0758331 104.6875 93 C106.22598757 95.44967515 106.97429456 96.64869238 107.1875 99.5625 C105.42267735 103.18503069 103.05923275 106.35931899 100 109 C99.01 109 98.02 109 97 109 C96.505 110.485 96.505 110.485 96 112 C91.11602571 114.69116951 86.61719798 115.96848241 81 115 C75.46603647 113.02812794 70.53248827 109.68264672 66 106 C66 105.01 66 104.02 66 103 C65.34 103 64.68 103 64 103 C62.7578125 100.3984375 62.7578125 100.3984375 62 97 C63.5546875 93.7890625 63.5546875 93.7890625 65.875 90.625 C66.63554688 89.56539063 67.39609375 88.50578125 68.1796875 87.4140625 C68.78039062 86.61742187 69.38109375 85.82078125 70 85 C66.55291141 82.90493748 66.55291141 82.90493748 63 81 C63 83.31 63 85.62 63 88 C61.125 89.0625 61.125 89.0625 59 90 C58.34 89.67 57.68 89.34 57 89 C57 86.36 57 83.72 57 81 C58.32 81 59.64 81 61 81 C58.89595769 80.43703502 56.79175446 79.87467147 54.6875 79.3125 C53.69435791 79.04566406 53.69435791 79.04566406 52.68115234 78.7734375 C48.82428335 77.7404271 44.96252531 76.73389221 41.08984375 75.76171875 C24.16268794 71.48545466 24.16268794 71.48545466 18 68 C17.2471875 67.58234375 16.494375 67.1646875 15.71875 66.734375 C8.77364224 62.52100962 3.66757989 57.06019452 0.5625 49.5 C-0.96673839 46.074506 -2.31678464 44.4659934 -4.875 41.8125 C-13.81708216 32.16229715 -15.0328125 21.09375016 -15.23046875 8.515625 C-15 6 -15 6 -13 2 C-9.7 5.63 -6.4 9.26 -3 13 C-2.690625 11.040625 -2.38125 9.08125 -2.0625 7.0625 C-1.125 1.125 -1.125 1.125 0 0 Z M1 7 C1 11.29 1 15.58 1 20 C-2.75976562 17.36328125 -2.75976562 17.36328125 -6.51953125 14.7265625 C-8.33267878 13.46449761 -10.16188211 12.22541192 -12 11 C-12.91338643 18.91601575 -9.78399309 24.18671604 -6 31 C-5.67 31.66 -5.34 32.32 -5 33 C-5.66 33 -6.32 33 -7 33 C-5.32802294 39.13058255 -0.7693149 43.24610056 4.4609375 46.55859375 C6.61818864 47.75971308 8.78481802 48.90998982 11 50 C9.68 50.66 8.36 51.32 7 52 C9.25240288 58.81556103 14.34903925 61.83872892 20.3359375 65.3828125 C30.00021761 70.2301959 40.87783067 72.11561605 51.34033203 74.54296875 C66.65993314 78.11832641 66.65993314 78.11832641 73 82 C73.33 82.66 73.66 83.32 74 84 C72.32917545 87.08214775 70.44499263 89.99761434 68.56640625 92.95703125 C66.98805272 96.02320931 66.64425231 97.62351758 67 101 C68.485 101.495 68.485 101.495 70 102 C70 102.99 70 103.98 70 105 C71.72526042 105.68359375 73.45052083 106.3671875 75.17578125 107.05078125 C77 108 77 108 78.44921875 109.5859375 C80.51588068 111.47040002 81.74323775 111.37222985 84.5 111.3125 C85.66015625 111.30669922 85.66015625 111.30669922 86.84375 111.30078125 C89.29324946 111.11825461 89.29324946 111.11825461 92 109 C92 108.34 92 107.68 92 107 C93.175625 106.7834375 93.175625 106.7834375 94.375 106.5625 C96.96421018 106.12201075 96.96421018 106.12201075 99 105 C99 104.01 99 103.02 99 102 C100.32 101.34 101.64 100.68 103 100 C102.41734728 95.57676318 100.73233789 92.4844136 98.4375 88.6875 C97.79683594 87.61886719 97.15617187 86.55023438 96.49609375 85.44921875 C95.75552734 84.23685547 95.75552734 84.23685547 95 83 C99.35961882 79.8097053 103.46438523 77.94191535 108.6875 76.5 C109.42154053 76.28843262 110.15558105 76.07686523 110.91186523 75.85888672 C115.62917233 74.53837907 120.35723716 73.49929114 125.16772461 72.58300781 C138.73305926 69.9885978 152.76717775 66.03142399 162 55 C162.33 54.01 162.66 53.02 163 52 C161.68 51.34 160.36 50.68 159 50 C159.72445312 49.5875 160.44890625 49.175 161.1953125 48.75 C167.57753931 44.93768319 172.08764716 41.3555099 176 35 C175.67 34.34 175.34 33.68 175 33 C174.34 33 173.68 33 173 33 C174.1446875 31.7625 174.1446875 31.7625 175.3125 30.5 C180.2721521 24.49769377 181.40921845 18.63874447 181 11 C180.46890625 11.39832031 179.9378125 11.79664063 179.390625 12.20703125 C175.92708333 14.8046875 172.46354167 17.40234375 169 20 C169 16.04 169 12.08 169 8 C165.85035332 7.65160716 165.85035332 7.65160716 163.8125 10.125 C163.18214844 10.79982422 163.18214844 10.79982422 162.5390625 11.48828125 C159.64237059 14.3335091 156.28583948 16.62734668 153 19 C152.01 18.505 152.01 18.505 151 18 C148.95939245 19.10230043 148.95939245 19.10230043 146.6875 20.6875 C138.16144565 25.94929354 129.08421148 27.89358033 119.3125 29.4375 C109.35527254 31.03211306 101.99841333 34.91425072 94 41 C93.62875 40.1028125 93.62875 40.1028125 93.25 39.1875 C91.7457326 36.55503205 90.67492092 35.4459032 88 34 C83.75350057 33.45953644 81.74176808 33.51623821 78.125 35.875 C75.96047153 37.8155338 75.96047153 37.8155338 75 40 C72.28173507 38.69787309 69.81082433 37.24376229 67.3125 35.5625 C60.27363635 31.19045537 53.27651808 29.84306971 45.1875 28.625 C36.6117054 27.31563076 28.15515187 25.50263914 21.36328125 19.77734375 C20.58339844 19.19082031 19.80351563 18.60429688 19 18 C18.01 18.33 17.02 18.66 16 19 C13.94921875 17.7421875 13.94921875 17.7421875 11.6875 15.875 C10.50414062 14.91013672 10.50414062 14.91013672 9.296875 13.92578125 C8.53890625 13.29027344 7.7809375 12.65476562 7 12 C6.36578125 11.47792969 5.7315625 10.95585938 5.078125 10.41796875 C3.71075151 9.2882578 2.35400651 8.14569781 1 7 Z " fill="#D4D1CF" transform="translate(15,43)"/>
<path d="M0 0 C4.64210196 2.32105098 8.87467245 5.10269185 13.22265625 7.9296875 C21.61347037 12.8330477 30.48343232 14.61033226 40 15.875 C48.50082117 17.14145419 56.19928091 18.33273409 63 24 C63.99 25.485 63.99 25.485 65 27 C4.93196854 23.78937784 4.93196854 23.78937784 -7.59375 10.28125 C-8.77407932 8.89108435 -9.89478289 7.45059746 -11 6 C-10.67 5.34 -10.34 4.68 -10 4 C-9.154375 4.598125 -8.30875 5.19625 -7.4375 5.8125 C-4.11600768 8.0400402 -0.70795447 9.51681821 3 11 C2.01 7.37 1.02 3.74 0 0 Z " fill="#868688" transform="translate(21,61)"/>
<path d="M0 0 C-0.33 2.97 -0.66 5.94 -1 9 C3.29 7.02 7.58 5.04 12 3 C9.19230317 10.01924208 4.56469202 14.01022838 -2.25 17.25 C-7.65995232 19.43840085 -13.31106926 20.75256686 -19 22 C-19.692146 22.16209961 -20.38429199 22.32419922 -21.09741211 22.49121094 C-25.12754814 23.19764575 -29.15965841 23.46350376 -33.23828125 23.75390625 C-34.55943184 23.85166603 -34.55943184 23.85166603 -35.90727234 23.95140076 C-38.70880889 24.15802933 -41.51063898 24.36032367 -44.3125 24.5625 C-46.21681789 24.70218775 -48.12111504 24.84215852 -50.02539062 24.98242188 C-54.68335985 25.32489411 -59.34159707 25.66348064 -64 26 C-56.53492475 18.24897713 -49.98841658 16.53509454 -39.5 15.1875 C-26.00793828 13.19347761 -14.66814927 9.24884396 -3.6015625 1.06640625 C-2 0 -2 0 0 0 Z " fill="#868588" transform="translate(178,62)"/>
<path d="M0 0 C-5.84824035 3.8889314 -10.76575975 7 -18 7 C-18 7.66 -18 8.32 -18 9 C-16.7934375 9.433125 -16.7934375 9.433125 -15.5625 9.875 C-13 11 -13 11 -12 13 C-18.6719357 13.8477283 -23.93253432 12.60511277 -30.0625 10.125 C-31.06325562 9.721604 -31.06325562 9.721604 -32.08422852 9.31005859 C-36.85923522 7.28152957 -36.85923522 7.28152957 -38 5 C-36.91203125 4.96261719 -35.8240625 4.92523438 -34.703125 4.88671875 C-24.45268438 4.45742379 -15.17912187 3.16811294 -5.4375 -0.25 C-3 -1 -3 -1 0 0 Z " fill="#858285" transform="translate(182,84)"/>
<path d="M0 0 C0.54785156 0.18175781 1.09570312 0.36351563 1.66015625 0.55078125 C13.55246105 4.32151204 25.54742091 6.39102058 38 7 C36.41077198 10.17845605 33.21414888 10.8545974 30.0625 12.125 C29.38823975 12.39779785 28.71397949 12.6705957 28.01928711 12.95166016 C22.60101601 15.01987984 17.80310868 15.73733616 12 15 C15.75 11.125 15.75 11.125 18 10 C17.20335938 9.68546875 16.40671875 9.3709375 15.5859375 9.046875 C4.68546638 4.64425163 4.68546638 4.64425163 0 1 C0 0.67 0 0.34 0 0 Z " fill="#848185" transform="translate(17,82)"/>
<path d="M0 0 C0.66 0.99 1.32 1.98 2 3 C1.1875 6 1.1875 6 0 9 C-0.33 9.99 -0.66 10.98 -1 12 C1.97 12.495 1.97 12.495 5 13 C4.67 13.99 4.34 14.98 4 16 C5.98 16.33 7.96 16.66 10 17 C10 17.99 10 18.98 10 20 C11.65 20 13.3 20 15 20 C15 19.01 15 18.02 15 17 C16.98 17 18.96 17 21 17 C20.34 17.66 19.68 18.32 19 19 C20.32 19.33 21.64 19.66 23 20 C22.01 20 21.02 20 20 20 C19.67 20.99 19.34 21.98 19 23 C16.67313547 24.16343227 15.15278587 24.19895988 12.5625 24.25 C11.78003906 24.27578125 10.99757813 24.3015625 10.19140625 24.328125 C7.46395305 23.91973629 6.81969505 23.00166455 5 21 C3.19809386 20.02284391 3.19809386 20.02284391 1.3125 19.3125 C-0.3271875 18.6628125 -0.3271875 18.6628125 -2 18 C-2 17.01 -2 16.02 -2 15 C-2.99 14.67 -3.98 14.34 -5 14 C-4.53411505 8.29290936 -3.06242216 4.84060277 0 0 Z " fill="#703143" transform="translate(87,130)"/>
<path d="M0 0 C0.99 0 1.98 0 3 0 C4.33568021 0.32380126 5.66923011 0.65657551 7 1 C7.66 1 8.32 1 9 1 C10.32 1 11.64 1 13 1 C13 3.31 13 5.62 13 8 C10 9 10 9 7 8 C5.9275 8.165 4.855 8.33 3.75 8.5 C-0.1117402 9.01489869 -3.18737899 8.70027733 -7 8 C-7.33 5.69 -7.66 3.38 -8 1 C-5.2761601 -0.36191995 -3.01903173 -0.06161289 0 0 Z " fill="#878A8C" transform="translate(129,124)"/>
<path d="M0 0 C2.4375 1.6875 2.4375 1.6875 4 4 C3.625 6.625 3.625 6.625 3 9 C3.66 9.66 4.32 10.32 5 11 C2.625 11.625 2.625 11.625 0 12 C-0.66 11.34 -1.32 10.68 -2 10 C-4.61580479 10.3269756 -6.64078137 10.82039068 -9 12 C-9.33 10.68 -9.66 9.36 -10 8 C-10.66 8.66 -11.32 9.32 -12 10 C-11.74327938 6.2347642 -11.40674134 4.44160489 -8.8125 1.625 C-5.47589307 -0.30281734 -3.79079343 -0.64524143 0 0 Z " fill="#888588" transform="translate(103,79)"/>
<path d="M0 0 C0.886875 0.185625 1.77375 0.37125 2.6875 0.5625 C5.85178811 0.98042484 7.94839642 0.80777742 11 0 C11.33 0.99 11.66 1.98 12 3 C11.01 3.66 10.02 4.32 9 5 C9.99 5 10.98 5 12 5 C12 5.99 12 6.98 12 8 C8.7220142 9.09266193 8.15868803 8.8361233 5 8 C3.33376361 7.96213099 1.66602403 7.95372155 0 8 C0 5.36 0 2.72 0 0 Z " fill="#888A8C" transform="translate(59,124)"/>
<path d="M0 0 C1.32 0 2.64 0 4 0 C8.01761103 6.33078101 8.01761103 6.33078101 7.9375 9.375 C7 11 7 11 4 12 C3.67 12.99 3.34 13.98 3 15 C1.68 14.67 0.36 14.34 -1 14 C-1.33 12.68 -1.66 11.36 -2 10 C-0.35 9.67 1.3 9.34 3 9 C2.01 6.03 1.02 3.06 0 0 Z " fill="#6F3345" transform="translate(110,133)"/>
<path d="M0 0 C5.1045614 0.50208801 6.50155344 1.48463779 9.8125 5.375 C9.6875 9.1875 9.6875 9.1875 8.8125 12.375 C7.8225 12.045 6.8325 11.715 5.8125 11.375 C6.1425 9.065 6.4725 6.755 6.8125 4.375 C1.22525333 3.01599093 1.22525333 3.01599093 -4.12109375 4.421875 C-5.95227126 5.93657693 -5.95227126 5.93657693 -8.1875 8.375 C-8.5175 7.715 -8.8475 7.055 -9.1875 6.375 C-3.1875 0.375 -3.1875 0.375 0 0 Z " fill="#733749" transform="translate(99.1875,76.625)"/>
<path d="M0 0 C0.33 0.99 0.66 1.98 1 3 C3.97 3.495 3.97 3.495 7 4 C6.67 4.99 6.34 5.98 6 7 C8.97 7.495 8.97 7.495 12 8 C12 8.99 12 9.98 12 11 C13.65 11 15.3 11 17 11 C17 10.01 17 9.02 17 8 C18.98 8 20.96 8 23 8 C21.68 8.33 20.36 8.66 19 9 C18.67 10.32 18.34 11.64 18 13 C15.69 13 13.38 13 11 13 C10.67 11.68 10.34 10.36 10 9 C9.113125 9.103125 8.22625 9.20625 7.3125 9.3125 C4 9 4 9 1.0625 6.75 C-1 4 -1 4 -0.8125 1.6875 C-0.4103125 0.8521875 -0.4103125 0.8521875 0 0 Z " fill="#81757B" transform="translate(85,139)"/>
<path d="M0 0 C2 0 4 0 6 0 C6 2.64 6 5.28 6 8 C3.69 8 1.38 8 -1 8 C-1.04241723 5.66705225 -1.04092937 3.33297433 -1 1 C-0.67 0.67 -0.34 0.34 0 0 Z " fill="#878A8D" transform="translate(52,124)"/>
<path d="M0 0 C2 0 4 0 6 0 C6 2.31 6 4.62 6 7 C4.125 8.0625 4.125 8.0625 2 9 C1.34 8.67 0.68 8.34 0 8 C0 5.36 0 2.72 0 0 Z " fill="#878A8C" transform="translate(72,124)"/>
<path d="M0 0 C0.66 0 1.32 0 2 0 C2 0.99 2 1.98 2 3 C2.66 3.33 3.32 3.66 4 4 C2.68 5.32 1.36 6.64 0 8 C-0.99 6.35 -1.98 4.7 -3 3 C-2.34 3 -1.68 3 -1 3 C-0.67 2.01 -0.34 1.02 0 0 Z " fill="#CBC2C2" transform="translate(99,90)"/>
<path d="M0 0 C2.6331963 0.36319949 3.84431322 0.85505024 5.8125 2.6875 C7.40689803 5.79238037 6.82845843 7.68616626 6 11 C5.01 10.67 4.02 10.34 3 10 C3.33 7.69 3.66 5.38 4 3 C2.68 2.34 1.36 1.68 0 1 C0 0.67 0 0.34 0 0 Z " fill="#734251" transform="translate(102,78)"/>
<path d="M0 0 C0.33 0.99 0.66 1.98 1 3 C3.97 3.495 3.97 3.495 7 4 C6.67 5.65 6.34 7.3 6 9 C2.60620325 7.86873442 1.21867135 6.77333918 -1 4 C-0.75 1.75 -0.75 1.75 0 0 Z " fill="#7D6870" transform="translate(85,139)"/>
<path d="M0 0 C-1.28813342 0.83878455 -2.58063256 1.67086783 -3.875 2.5 C-4.59429687 2.9640625 -5.31359375 3.428125 -6.0546875 3.90625 C-8 5 -8 5 -10 5 C-9.875 3.125 -9.875 3.125 -9 1 C-5.3931275 -0.64661571 -3.8148779 -1.27162597 0 0 Z " fill="#81777D" transform="translate(182,84)"/>
<path d="M0 0 C0.66 0 1.32 0 2 0 C2 0.66 2 1.32 2 2 C2.66 2 3.32 2 4 2 C4 2.99 4 3.98 4 5 C4.66 5 5.32 5 6 5 C6 5.99 6 6.98 6 8 C4.68 7.34 3.36 6.68 2 6 C2 5.01 2 4.02 2 3 C1.34 3 0.68 3 0 3 C0 2.01 0 1.02 0 0 Z " fill="#B1989D" transform="translate(108,111)"/>
<path d="M0 0 C0.66 0.33 1.32 0.66 2 1 C1.4409112 4.24271506 0.5867822 5.93057424 -2 8 C-2.66 8 -3.32 8 -4 8 C-4.33 6.68 -4.66 5.36 -5 4 C-3.35 3.67 -1.7 3.34 0 3 C0 2.01 0 1.02 0 0 Z " fill="#7E6E75" transform="translate(113,139)"/>
<path d="M0 0 C-1.32 1.32 -2.64 2.64 -4 4 C-4 3.01 -4 2.02 -4 1 C-5.65 1.33 -7.3 1.66 -9 2 C-9.33 1.34 -9.66 0.68 -10 0 C-6.30581799 -1.231394 -3.7943739 -0.64432764 0 0 Z " fill="#7A4655" transform="translate(105,89)"/>
<path d="M0 0 C0.66 0.99 1.32 1.98 2 3 C1.125 6.1875 1.125 6.1875 0 9 C-0.66 8.01 -1.32 7.02 -2 6 C-1.125 2.8125 -1.125 2.8125 0 0 Z " fill="#733D4D" transform="translate(87,130)"/>
<path d="M0 0 C1 3 1 3 -0.3125 5.6875 C-0.869375 6.450625 -1.42625 7.21375 -2 8 C-2.66 8 -3.32 8 -4 8 C-3.50168276 4.31245243 -2.89932357 2.39509338 0 0 Z " fill="#B39BA0" transform="translate(90,111)"/>
<path d="M0 0 C0.33 0.99 0.66 1.98 1 3 C1.66 3.33 2.32 3.66 3 4 C2.01 4 1.02 4 0 4 C-0.33 5.32 -0.66 6.64 -1 8 C-1.66 7.67 -2.32 7.34 -3 7 C-1.125 2.25 -1.125 2.25 0 0 Z " fill="#764D5A" transform="translate(107,111)"/>
<path d="M0 0 C0.66 0 1.32 0 2 0 C2 0.66 2 1.32 2 2 C1.34 2 0.68 2 0 2 C0 1.34 0 0.68 0 0 Z " fill="#87898D" transform="translate(121,160)"/>
</svg>
