<?xml version="1.0" encoding="UTF-8"?>
<svg width="200px" height="200px" viewBox="0 0 200 200" version="1.1" xmlns="http://www.w3.org/2000/svg" xmlns:xlink="http://www.w3.org/1999/xlink">
    <!-- Generator: Sketch 54.1 (76490) - https://sketchapp.com -->
    <title>unc-wilmington</title>
    <desc>Created with Sketch.</desc>
    <g id="unc-wilmington" stroke="none" stroke-width="1" fill="none" fill-rule="evenodd">
        <g id="unc-wilmington_BGD">
            <g id="unc-wilmington" transform="translate(0.000000, 3.000000)">
                <g id="g10" transform="translate(100.000000, 96.983627) scale(-1, 1) rotate(-180.000000) translate(-100.000000, -96.983627) translate(0.000000, 0.483627)" fill-rule="nonzero">
                    <g id="g12">
                        <path d="M150.372842,143.559805 C150.372842,143.559805 145.507394,164.3298 123.594079,178.471399 C123.594079,178.471399 122.596342,174.391367 120.907221,168.22631 C115.828021,176.914609 108.819492,186.365601 99.7764988,192.900491 C90.743949,186.365601 83.7284574,176.914609 78.6541321,168.22631 C76.9650111,174.391367 75.9714515,178.471399 75.9714515,178.471399 C54.0515913,164.3298 49.1981885,143.559805 49.1981885,143.559805 L0,143.559805 L99.7764988,0.28075907 L199.556479,143.559805 L150.372842,143.559805" id="path14" fill="#F9DB05"></path>
                        <path d="M144.165706,133.924594 C140.426106,143.778217 135.141511,154.236831 127.612181,163.059805 C126.288596,158.605055 124.813922,153.97725 123.144993,149.214073 C119.353174,157.442521 112.193557,169.539569 99.7883352,179.706503 C87.3879874,169.539569 80.2346368,157.442521 76.4365516,149.214073 C74.7745847,153.97725 73.2964298,158.605055 71.9693629,163.059805 C64.4405206,154.236831 59.1552292,143.778217 55.4163955,133.924594 L26.7221577,133.924594 L99.7764988,15.7566202 L172.568142,133.924594 L144.165706,133.924594" id="path16" fill="#1F2954"></path>
                        <path d="M129.415488,136.936295 C127.236898,133.131894 120.123931,121.07183 110.530894,108.618207 L108.84595,106.429908 L109.037421,109.187611 C109.047865,109.350896 110.206438,125.572635 114.139597,144.074083 C113.104958,145.619709 107.848213,153.211764 99.7883352,160.369091 C91.730546,153.211764 86.4696236,145.620407 85.4342886,144.074083 C89.3764991,125.571937 90.535768,109.350896 90.5476044,109.187611 L90.7397714,106.430606 L89.0541318,108.618207 C79.4569171,121.07183 72.3425569,133.132591 70.1653594,136.936295 C68.3793194,133.773869 64.0685101,124.078646 67.6996328,109.028513 C67.9767433,109.105968 68.3053073,109.156908 68.6888059,109.156908 C72.1141844,109.156908 78.7738884,105.097112 91.1644886,86.0918519 C91.9658811,90.2130542 94.2015642,99.3591087 99.1352456,105.598132 L99.7883352,106.425024 L100.443514,105.598829 C105.380676,99.3598065 107.615663,90.2151476 108.415663,86.0918519 C120.807656,105.09781 127.465271,109.156908 130.890162,109.156908 C131.2738,109.156908 131.602434,109.105968 131.877455,109.028513 C135.508439,124.078646 131.199997,133.773869 129.415488,136.936295" id="path18" fill="#FFFFFF"></path>
                        <path d="M81.4210598,88.5180999 C80.9427308,87.2118197 79.7040885,86.2718841 78.2370738,86.2718841 C76.3502157,86.2718841 74.8275003,87.804949 74.8275003,89.6917982 C74.8275003,91.1739237 75.7688406,92.42438 77.0826787,92.8995812 C74.9430791,94.8722597 73.1028702,96.2664625 71.5411644,97.2294255 C70.6938189,95.7263659 70.1674482,93.9804722 70.1674482,92.0936231 C70.1674482,86.602641 74.3234098,82.1583577 79.451347,82.1583577 C81.5993017,82.1583577 83.5390754,82.963618 85.1174913,84.2657113 C83.8140971,85.841342 82.5858987,87.2488031 81.4210598,88.5180999" id="path20" fill="#F9DB05"></path>
                        <path d="M118.131242,88.5180999 C118.610267,87.2118197 119.850998,86.2718841 121.317316,86.2718841 C123.204174,86.2718841 124.726194,87.804949 124.726194,89.6917982 C124.726194,91.1739237 123.783461,92.42438 122.469623,92.8995812 C124.609919,94.8722597 126.449431,96.2664625 128.011833,97.2294255 C128.860571,95.7263659 129.386942,93.9804722 129.386942,92.0936231 C129.386942,86.602641 125.229588,82.1583577 120.101651,82.1583577 C117.953696,82.1583577 116.013922,82.963618 114.43481,84.2657113 C115.738204,85.841342 116.968491,87.2488031 118.131242,88.5180999" id="path22" fill="#F9DB05"></path>
                        <path d="M99.7764988,36.6137694 C99.7764988,36.6137694 109.561703,64.1739781 116.440032,65.7635647 C116.440032,65.7635647 116.285463,70.3215893 109.980154,71.1924428 L107.354567,65.0427381 C107.354567,65.0427381 105.029762,74.5307143 99.7764988,82.0062374 C94.525324,74.5307143 92.1977349,65.0427381 92.1977349,65.0427381 L89.5728437,71.1924428 C83.2682312,70.3215893 83.1129657,65.7635647 83.1129657,65.7635647 C89.992687,64.1739781 99.7764988,36.6137694 99.7764988,36.6137694" id="path24" fill="#F9DB05"></path>
                    </g>
                </g>
            </g>
        </g>
    </g>
</svg>