<?xml version="1.0" encoding="UTF-8"?>
<svg width="200px" height="200px" viewBox="0 0 200 200" version="1.1" xmlns="http://www.w3.org/2000/svg" xmlns:xlink="http://www.w3.org/1999/xlink">
    <!-- Generator: Sketch 54.1 (76490) - https://sketchapp.com -->
    <title>ut-martin</title>
    <desc>Created with Sketch.</desc>
    <g id="ut-martin" stroke="none" stroke-width="1" fill="none" fill-rule="evenodd">
        <g id="ut-martin_BGD">
            <g id="ut-martin" transform="translate(-1.000000, 20.000000)">
                <g id="g10" transform="translate(100.702051, 80.669460) scale(-1, 1) rotate(-180.000000) translate(-100.702051, -80.669460) translate(0.202051, 0.669460)" fill-rule="nonzero">
                    <g id="g12" transform="translate(0.646564, 0.161240)">
                        <path d="M117.020586,156.25909 C89.8725161,163.489796 60.5764131,152.816384 44.5858345,129.949151 C41.5441157,128.320311 38.4968239,126.408178 38.2117096,125.344436 C37.3930125,122.165499 36.7754263,119.348969 36.4255401,116.80671 C33.6928646,117.193621 31.0271041,117.559039 25.4000014,118.324674 C21.3763957,118.872135 19.2030968,119.170327 16.7701029,119.511372 C11.2979583,120.27843 6.74163706,120.958169 2.35825886,121.673479 C0.734903811,121.938389 -0.378050191,120.083432 0.619647031,118.775739 C8.80241652,108.050496 15.4738094,99.2180117 29.8741456,80.087262 L30.4780681,79.2849543 C43.5113177,61.9703683 49.5653634,53.9503117 56.9754774,44.2143408 C57.717876,43.2389212 59.010584,43.3237662 59.7268619,44.0397194 C63.3582679,45.0724506 67.5810384,43.3532141 71.440848,39.7243188 C79.9909547,31.1139568 86.7140625,21.3741079 95.0581065,6.5761544 C95.3431154,6.09458101 95.6000841,5.60701617 96.0228196,4.76340638 C96.262513,4.28378133 96.386769,4.03581611 96.5129786,3.78788584 C97.0595684,2.7141468 97.5023802,1.93158123 98.020229,1.17177337 C98.2168899,0.88322485 98.4924714,0.657400811 98.8140432,0.521285751 C99.9140637,0.0556686452 101.191441,0.175733595 102.238495,0.811712966 C102.528804,0.988046225 102.763923,1.24216378 102.917213,1.54527288 C111.675216,18.8630564 119.875823,31.2372009 130.285103,41.4040658 C133.272015,44.258117 138.170147,45.2612785 141.469243,43.6278205 C142.509564,43.112734 143.748736,43.6918298 144.035609,44.7976974 C157.16411,62.9184596 168.866848,78.8292036 191.410982,109.309648 C192.220085,110.403583 193.240966,111.783793 195.070864,114.257777 C196.53324,116.234907 197.645599,117.738918 198.730115,119.205466 C199.692696,120.507126 198.602455,122.323099 197.001078,122.085458 C193.709216,121.596951 190.244353,121.092209 186.424717,120.543593 C182.024817,119.911633 168.399621,117.984474 163.001745,117.218479 C162.481591,121.165067 162.059055,123.376981 161.280194,125.900451 C161.172568,126.249152 160.962517,126.557405 160.677352,126.785127 C159.096419,128.047602 157.445174,129.031686 155.253445,130.10171 C145.85155,143.099261 131.967608,152.554035 117.020586,156.25909 Z" id="Path" fill="#FFFFFF"></path>
                        <path d="M154.046011,128.665547 C155.895992,127.780338 157.771836,126.778229 159.542613,125.364152 C160.55287,122.090974 160.993342,118.685578 161.431389,115.158447 C172.920833,116.799873 185.272631,118.506602 197.268012,120.286695 C178.870839,95.4089279 160.417091,70.5117316 142.333502,45.5477819 L142.27612,45.2574687 C138.131644,47.3094934 132.42814,45.966926 129.02883,42.7188207 C117.031025,31.0006008 108.537597,16.6882663 101.294463,2.36593487 C100.731952,2.02426667 100.067608,1.96533333 99.5228776,2.19590697 C98.354213,3.91061701 97.6130889,5.82945727 96.6230376,7.50232544 C89.9319075,19.3695313 82.6750339,30.9917326 72.7312015,41.0056424 C68.9749875,44.5384982 63.7294938,47.4030128 58.6602698,45.6072795 C58.5576277,45.5566501 58.4098878,45.4785291 58.4224958,45.3156764 C39.5701418,70.0853316 20.9350334,95.1461062 2.06538379,119.878757 C14.0753925,117.918881 25.9421065,116.473361 38.0216208,114.742447 C38.3278498,118.288927 39.3753644,122.57147 39.9727088,124.890912 C40.0557115,125.200493 44.1495128,127.664245 45.8283973,128.55026 C61.3080305,151.012647 89.973126,161.581143 116.552567,154.501888 C131.099451,150.895748 144.798528,141.638136 154.046011,128.665547 L154.046011,128.665547" id="path14" fill="#0C2950"></path>
                        <path d="M146.533744,132.853764 C148.833088,130.259408 150.13349,126.487997 148.839553,123.060834 C144.857527,114.910943 135.058848,113.941889 127.077014,114.036214 C118.524588,114.895625 109.850122,117.051408 104.546681,124.241113 C102.581934,126.778229 102.081655,130.981764 103.837885,133.681733 C103.985786,133.835718 103.896884,134.104989 104.072264,134.269454 L103.896884,134.388772 C101.159493,133.382632 97.9824386,134.059842 95.2636366,134.269454 C95.0163259,133.808307 95.6645064,133.70995 95.7978602,133.268152 C97.3479976,130.300524 96.7248715,126.278384 94.7310295,123.650168 C92.5626152,120.528555 89.2619055,118.685578 86.273163,116.924834 C76.497114,112.861579 63.563731,112.214199 54.4019987,117.930168 C51.5552578,119.91423 49.7200665,122.902012 49.7311389,126.310633 C51.2727093,134.783004 60.6419079,138.691469 68.0025551,140.404648 C73.484772,141.638136 79.7064965,141.696183 85.4471774,140.349826 C92.1132531,137.730477 100.452313,135.29978 107.799706,138.338353 C119.129933,143.240058 133.831184,142.258105 144.168936,134.977299 L146.533744,132.853764 L146.533744,132.853764" id="path18" fill="#FFFFFF"></path>
                        <path d="M143.338909,131.319563 C144.738721,129.667656 146.115094,127.648927 145.763525,125.364152 C145.408723,123.359935 143.630671,121.369423 141.863127,120.524524 C141.693404,120.58902 141.751594,120.70592 141.801703,120.763966 C142.951779,121.725764 143.364772,123.226105 143.043914,124.596648 C140.839131,128.855811 136.080419,130.317454 132.046668,131.554167 C125.12924,133.191563 116.691579,133.835718 110.457084,130.321485 C109.126779,129.447563 107.944375,128.131842 108.332313,126.487997 C108.240986,126.055067 108.624075,125.643904 108.451928,125.244028 C106.793491,126.881423 105.992559,129.270198 106.736108,131.496121 C109.467841,136.744493 115.455833,137.718384 120.987189,138.163407 C129.37555,138.272245 137.279796,136.713051 143.338909,131.319563 L143.338909,131.319563" id="path20" fill="#0C2950"></path>
                        <path d="M91.0625865,133.504369 C92.219128,132.291036 92.8713495,130.786663 92.7800223,129.077516 C92.60545,127.70778 91.868367,126.572648 91.178968,125.421392 L91.0043957,125.421392 C91.3656634,126.291284 91.2452408,127.441733 90.883165,128.311625 C87.4062666,132.586105 81.6688185,132.616741 76.4591284,132.620772 C69.9829809,132.336183 63.6846385,130.96564 58.6008667,127.074105 C57.5552917,126.055067 56.3587441,124.890912 56.2946534,123.359935 C56.3587441,122.223191 56.8291194,121.176741 57.769951,120.408431 L57.769951,120.229454 C56.3862231,120.632555 55.0854977,122.016803 54.2188594,123.239811 C53.2395573,124.758695 53.2095729,127.058788 54.1020738,128.607501 C57.3453201,133.795408 63.0633712,135.785919 68.5345157,137.100834 C75.3316823,138.481051 83.1769293,138.423811 89.1148122,135.095811 L91.0625865,133.504369 L91.0625865,133.504369" id="path22" fill="#0C2950"></path>
                        <path d="M103.485507,110.615501 L99.9326376,88.2014862 L96.1518541,110.737238 C97.5120633,111.919935 98.7219463,113.055067 99.8170642,114.446571 C100.676186,113.009114 102.06145,111.74499 103.485507,110.615501 L103.485507,110.615501" id="path24" fill="#F68B1A"></path>
                        <path d="M93.3158623,92.2123388 L87.9291753,106.427284 C89.5156819,106.996462 91.0666275,107.718013 92.6595998,108.433114 C92.944088,103.05978 93.1986726,97.6646798 93.3158623,92.2123388 L93.3158623,92.2123388" id="path26" fill="#F68B1A"></path>
                        <path d="M111.703337,106.369238 C109.98186,101.542509 108.152892,96.7641527 106.438689,91.9188815 L106.850873,108.37668 L111.703337,106.369238 L111.703337,106.369238" id="path28" fill="#F68B1A"></path>
                        <path d="M84.6195754,105.365517 C84.504002,102.782447 84.504002,100.052649 84.3819631,97.5187573 C83.3595836,99.7148503 82.0818113,102.264866 81.1305539,104.66009 C82.2596165,104.918075 83.4137333,105.154292 84.6195754,105.365517 L84.6195754,105.365517" id="path30" fill="#F68B1A"></path>
                        <path d="M118.562573,104.718943 C117.608083,102.248742 116.336777,99.7430673 115.310356,97.2236875 C115.008087,99.7148503 115.008087,102.705052 115.071936,105.365517 C116.205039,105.213951 117.356731,104.785052 118.562573,104.718943 L118.562573,104.718943" id="path32" fill="#F68B1A"></path>
                        <path d="M122.880813,101.82468 C122.797568,102.619594 122.838787,103.520928 123.116001,104.362602 L124.951435,104.362602 L122.880813,101.82468 L122.880813,101.82468" id="path34" fill="#F68B1A"></path>
                        <polyline id="path36" fill="#F68B1A" points="76.8163551 101.768246 74.8031161 104.246509 76.6369335 104.246509 76.8163551 101.768246 76.8163551 101.768246"></polyline>
                        <path d="M71.6720487,92.1518737 C70.8391934,90.5886489 71.2827363,88.7053622 72.2045751,87.2598428 C73.2742345,85.7554708 74.84191,84.8412382 76.7541233,84.8984785 C77.2358135,85.0355328 77.7700371,85.0903545 78.234755,85.364463 C79.1577253,84.2502925 79.940876,82.9386026 80.6601785,81.5922461 C78.7908001,80.3587577 76.2489951,81.0029128 74.3868905,81.7671918 C70.1376713,84.0753468 66.1383492,88.320804 66.878665,93.3345714 L67.1738216,94.097238 C68.7807758,93.8295791 70.2908262,93.1830055 71.6720487,92.1518737 L71.6720487,92.1518737" id="path38" fill="#FFFFFF"></path>
                        <path d="M133.106224,92.8605249 C133.286454,88.1232847 129.965539,84.412339 126.356095,82.2847732 C124.378417,81.1947887 121.3921,80.3764942 119.331985,81.6535174 C119.929248,82.9974553 120.739878,84.2414243 121.635369,85.4265406 C122.709474,84.8412382 124.363062,84.8412382 125.541425,85.4265406 C127.480309,86.4463855 128.779902,88.5239668 128.672411,90.6797497 L128.25861,92.2123388 C129.56467,93.1991295 131.11804,93.7279977 132.812038,93.9827574 L133.106224,92.8605249 L133.106224,92.8605249" id="path40" fill="#FFFFFF"></path>
                        <path d="M156.408394,93.569176 C152.12814,89.8364629 147.149596,87.3888351 141.563283,86.7857963 C141.769375,88.0265405 142.124985,89.5623544 142.634154,90.6797497 C147.36862,90.8119668 151.949527,92.1381683 156.408394,93.569176 L156.408394,93.569176" id="path42" fill="#F68B1A"></path>
                        <path d="M57.7115178,90.4386955 C57.8936872,89.1600598 58.1898136,87.8798118 58.6008667,86.6076258 C53.0138256,87.3009591 47.7699484,89.4817342 43.5205676,93.3918117 C48.0026306,91.9019512 52.7808201,90.8393776 57.7115178,90.4386955 L57.7115178,90.4386955" id="path44" fill="#F68B1A"></path>
                        <path d="M155.996209,86.4294553 C150.531127,82.1396569 144.415438,78.9922461 137.367082,78.9938573 C138.337736,80.5070988 139.331828,81.9969592 140.144883,83.5392228 C145.654417,83.4706956 150.90775,84.8815483 155.996209,86.4294553 L155.996209,86.4294553" id="path46" fill="#F68B1A"></path>
                        <path d="M59.9584088,83.3054243 C60.6513639,81.8212073 61.4974738,80.491781 62.5623648,79.0567423 C62.2213831,79.1946027 62.2356075,78.9350058 62.0262824,78.8229438 C55.1454666,79.1059206 49.1612735,81.951812 44.1109614,85.9610522 L44.1731932,86.0182925 L43.7532498,86.3681839 C48.8345162,84.8573623 54.1226022,83.3771763 59.9584088,83.3054243 L59.9584088,83.3054243" id="path48" fill="#F68B1A"></path>
                        <path d="M64.9260415,76.3438741 C66.7460386,74.4807424 68.7681678,72.7529719 70.9023142,71.2665781 C61.4699948,69.9070805 52.7644135,73.1649409 45.6500264,78.4633779 C51.7194851,76.823564 58.216646,75.5820137 64.9260415,76.3438741 L64.9260415,76.3438741" id="path50" fill="#F68B1A"></path>
                        <path d="M154.399196,78.4633779 C147.28295,73.2842587 138.621416,69.9989874 129.325441,71.4486184 C131.143902,72.9596013 133.389904,74.58313 135.179271,76.5188198 C141.665117,75.6094245 148.196222,76.9267578 154.399196,78.4633779 L154.399196,78.4633779" id="path52" fill="#F68B1A"></path>
                        <path d="M125.779037,63.4873783 C125.012858,65.118324 124.169092,66.6532511 123.233999,68.0858712 L125.541425,69.2692944 C133.997675,67.1766371 142.836206,68.3327301 151.086363,70.3230805 C143.822216,65.5167488 135.179271,62.6273225 125.779037,63.4873783 L125.779037,63.4873783" id="path54" fill="#F68B1A"></path>
                        <path d="M74.5056966,69.0873348 C75.2864228,68.7156759 76.0849294,68.3012883 76.9335448,67.8490092 C76.0388617,66.4574247 75.1950956,65.0257721 74.5671202,63.4873783 C65.3547943,62.2982311 56.9181837,65.128724 49.7311389,70.0295425 C57.4763301,68.2600107 66.4044911,67.2217038 74.5056966,69.0873348 L74.5056966,69.0873348" id="path56" fill="#F68B1A"></path>
                        <path d="M145.348107,61.3590869 C140.131143,58.1607242 134.422791,56.0662126 128.139804,55.8155645 C127.84885,57.2862374 127.422926,58.8082652 127.018824,60.1813071 C132.947816,59.2041102 139.436087,60.2093629 145.348107,61.3590869 L145.348107,61.3590869" id="path58" fill="#F68B1A"></path>
                        <path d="M73.2053755,60.0656978 L72.0256385,55.5737041 C65.6537494,55.8428948 60.2134783,58.2180451 55.1133,61.2986218 C60.6854701,59.7054869 67.1738216,59.5240916 73.2053755,60.0656978 L73.2053755,60.0656978" id="path60" fill="#F68B1A"></path>
                        <path d="M103.011091,72.8046494 C112.959287,67.9963828 118.936772,56.9473909 118.9198,45.9637818 L119.03699,45.8428516 C123.357654,47.9871864 128.042011,50.3859585 133.349494,49.2692081 C127.49324,47.6776051 123.04892,42.885785 118.621572,38.6450037 C114.654094,34.7188829 111.10769,30.5808117 107.681708,26.2030568 C105.486623,40.8516579 103.15576,56.1968979 101.237889,70.9198308 C100.957442,71.4712727 100.421602,71.7493316 99.9326376,71.7420758 C99.4355914,71.73482 98.9749145,71.3380882 98.8730807,70.8578339 L92.9570193,25.7877017 C87.1815856,32.9824054 80.6488637,39.9400053 73.4463014,45.7855307 C71.3726895,47.4527555 69.1265259,48.5467709 66.7587274,49.2692081 C71.9157226,50.2392298 76.9432433,48.0155647 81.3657416,45.8428516 C81.2841129,48.6047368 81.773077,51.5095616 82.3727652,53.7508824 C84.3439774,61.342721 89.1899753,69.1694867 96.7434602,72.8046494 C96.7434602,72.8046494 100.017499,74.3977036 103.011091,72.8046494 L103.011091,72.8046494" id="path62" fill="#FFFFFF"></path>
                        <path d="M91.0625865,58.3720296 L88.8044614,62.7230186 C89.4720388,64.2614124 90.2414501,65.0805132 92.0922398,65.7931953 L91.0625865,58.3720296 L91.0625865,58.3720296" id="path64" fill="#0C2950"></path>
                        <path d="M96.711132,72.7633719 C93.9236326,73.7132385 91.5822624,75.2168044 89.2942337,77.1121842 C82.6443221,82.2323701 79.9732042,90.4999668 72.8517857,94.8679667 C67.4263856,98.9199356 60.5970525,99.4939511 55.4668897,104.067532 C54.2741406,105.004339 53.2095729,106.2604 52.3919118,107.429393 C59.309016,103.666044 67.5283811,103.504804 74.6277356,100.172773 C80.7975734,96.8552534 86.1341517,91.2811761 89.2942337,85.0726181 C91.2137208,81.3350678 93.4766951,77.1750679 97.3342581,74.8088664 C99.2852653,73.9012447 102.089737,73.9761408 103.837885,75.4602772 C110.381921,81.0230678 111.325905,89.5131761 118.146348,95.1009589 C122.633503,99.7430673 128.466319,102.206013 134.767086,103.183129 C139.211406,104.284401 143.497317,105.844401 147.655533,107.900214 C144.029116,102.675222 137.898881,99.7269433 132.22124,97.757393 C125.899459,95.5000287 120.475595,89.5413932 117.081942,83.8947576 C113.768301,79.2857035 108.978877,74.7056726 103.659271,72.9819331 C102.100244,72.4547579 101.22819,71.6366246 96.711132,72.7633719 L96.711132,72.7633719" id="path66" fill="#FFFFFF"></path>
                        <path d="M108.967562,58.8750187 L110.995349,63.346293 C110.248568,64.8443767 109.43713,65.6180883 107.55482,66.2388635 L108.967562,58.8750187 L108.967562,58.8750187" id="path68" fill="#0C2950"></path>
                    </g>
                </g>
            </g>
        </g>
    </g>
</svg>