<?xml version="1.0" encoding="UTF-8"?>
<svg width="200px" height="200px" viewBox="0 0 200 200" version="1.1" xmlns="http://www.w3.org/2000/svg" xmlns:xlink="http://www.w3.org/1999/xlink">
    <!-- Generator: Sketch 54.1 (76490) - https://sketchapp.com -->
    <title>utah-st</title>
    <desc>Created with Sketch.</desc>
    <g id="utah-st" stroke="none" stroke-width="1" fill="none" fill-rule="evenodd">
        <g id="utah-st_BGD" fill="#FFFFFF">
            <g id="utah-st" transform="translate(2.000000, 24.000000)">
                <g id="g10" transform="translate(98.000000, 76.383557) scale(-1, 1) rotate(-180.000000) translate(-98.000000, -76.383557) translate(0.000000, 0.883557)" fill-rule="nonzero">
                    <g id="g12">
                        <path d="M125.239819,107.185064 L125.239819,146.588441 L179.216707,146.588441 L179.216707,107.185064 L182.900262,107.185064 L182.900262,150.352352 L121.559819,150.352352 L121.559819,107.185064 L125.239819,107.185064 Z" id="path14"></path>
                        <path d="M146.367098,55.608343 C157.377158,54.257652 168.338406,52.4287153 179.216707,50.1260787 L179.216707,34.8649947 C179.288529,33.5374925 179.334751,26.4696882 173.163729,19.2811373 C164.877862,9.63135976 149.581863,4.41166922 127.688886,3.76250302 L127.650486,3.76250302 L71.5786648,3.76250302 C49.6400343,4.40888878 34.3208524,9.63135976 26.0344171,19.2811373 C19.7152706,26.6446927 19.9394128,34.061368 19.9855639,34.8841947 L19.9855639,50.158861 C37.8069323,53.9241942 55.8463986,56.413083 73.9580425,57.6186297 L73.9580425,43.7355367 C73.9580425,31.7725148 73.9580425,24.5575105 94.8433754,24.5575105 L104.355908,24.5575105 C125.239819,24.5575105 125.239819,31.7725148 125.239819,43.7355367 L125.239819,57.6082952 C124.013465,57.6905361 122.786783,57.7669399 121.559819,57.8375097 L121.559819,43.7355367 C121.559819,38.1633413 121.559819,34.1405858 119.622753,31.8299725 C117.582575,29.4016704 112.874308,28.3150215 104.355908,28.3150215 L94.8433754,28.3150215 C86.3235533,28.3150215 81.616709,29.4016704 79.5786646,31.8299725 C77.6366202,34.1405858 77.6366202,38.1633413 77.6366202,43.7355367 L77.6366202,57.8480341 C57.0408519,56.6797497 36.5247279,53.8589142 16.301084,49.3824699 L16.301084,34.9697413 C16.2258484,33.2530481 16.2624707,24.9599994 23.2686216,16.7985774 C32.2608347,6.33250118 48.4930832,0.676944339 71.5167982,0 L71.5480871,0 L71.5786648,0 L127.650486,0 L127.680352,0 L127.707375,0 L127.793419,0.00416667012 C150.747374,0.680555361 166.940085,6.33250118 175.932084,16.7985774 C182.77084,24.7652972 182.998395,32.6605503 182.900262,34.9697413 L182.900262,49.3361054 C170.812429,52.0184227 158.619425,54.1081434 146.367103,55.6083802 Z M146.204034,55.628312 C139.232285,56.478956 132.241397,57.1387593 125.239819,57.6082951 Z" id="path16"></path>
                        <path d="M19.9855639,107.185064 L19.9855639,146.588441 L73.9580425,146.588441 L73.9580425,107.185064 L77.6366202,107.185064 L77.6366202,150.352352 L16.301084,150.352352 L16.301084,107.185064 L19.9855639,107.185064 Z" id="path18"></path>
                        <polyline id="path26" points="176.833062 107.171553 176.833062 144.129419 127.619197 144.129419 127.619197 107.171553 176.833062 107.171553"></polyline>
                        <path d="M176.833062,50.592781 C160.56924,53.9350031 144.127641,56.2060786 127.619197,57.4185941 L127.619197,43.7355367 C127.619197,31.6622214 127.619197,22.0969239 104.355908,22.0969239 L94.8433754,22.0969239 C71.5786648,22.0969239 71.5786648,31.6622214 71.5786648,43.7355367 L71.5786648,57.4619719 C55.0711452,56.2666653 38.6277679,54.017492 22.3600349,50.6980254 L22.3600349,34.7953058 C22.3600349,34.7953058 20.1277861,7.74058647 71.5786648,6.21860962 L127.619197,6.21860962 C179.072351,7.74058647 176.833062,34.7953058 176.833062,34.7953058 L176.833062,50.592781" id="path28"></path>
                        <polyline id="path30" points="71.5786648 107.171553 71.5786648 144.129419 22.3600349 144.129419 22.3600349 107.171553 71.5786648 107.171553"></polyline>
                        <path d="M42.0671989,101.085153 C42.0486389,98.3175087 42.0291545,95.5491532 42.0100256,92.7807977 C46.8863988,92.9386643 51.7636253,93.0744866 56.6430563,93.1889754 C56.5791985,83.0193757 56.5144163,72.8483537 56.4514119,62.6794651 C60.9458473,63.1138829 65.445545,63.4730651 69.9487982,63.759714 C69.9957315,73.656887 70.0419538,83.5541312 70.088176,93.4513754 C75.349687,93.531731 80.6104868,93.589331 85.8741311,93.621331 C87.1562644,96.1678198 88.4348422,98.7071975 89.7127088,101.24302 C73.8293314,101.232353 57.9455274,101.178309 42.0671989,101.085153" id="path34"></path>
                        <path d="M92.126931,101.292797 C97.5349308,101.296353 102.941508,101.292797 108.350931,101.284975 C114.698308,88.9976867 121.091197,76.5155536 127.508975,63.4210829 C122.475019,63.8094206 117.436086,64.1024695 112.392175,64.3064162 C111.267197,66.8238917 110.144353,69.3311272 109.020797,71.8279093 C102.580264,71.9943093 96.1354642,72.0383982 89.6927977,71.9580426 C88.5983977,69.4869316 87.5018644,67.0102739 86.40462,64.5241584 C81.9402646,64.4211184 77.4780425,64.2439095 73.0179537,63.9958028 C79.427198,76.7729759 85.8023089,89.0652422 92.126931,101.292797 L92.126931,101.292797 Z M105.929597,79.3272869 C103.851731,84.2837312 101.779553,89.2117311 99.712353,94.133331 C99.6462197,94.133331 99.5800863,94.133331 99.5118197,94.133331 C97.2967086,89.2223978 95.0730642,84.3157312 92.8444421,79.3948425 C97.2056864,79.4126202 101.569064,79.3912869 105.929597,79.3272869 L105.929597,79.3272869 Z" id="path36"></path>
                        <path d="M0.255559055,59.9169407 C0.256113721,63.0258473 0.259441721,66.1355361 0.261112832,69.245296 C4.88777938,69.9969405 9.52554638,70.6908427 14.1710929,71.3301316 C14.1639107,69.5744694 14.1560885,67.818025 14.1499729,66.0630739 C14.1471996,65.3716606 14.8472174,64.8214028 15.6747373,64.957225 C18.5180439,65.4222206 21.3655461,65.8624695 24.2158216,66.2769761 C24.7150216,66.3502917 25.6110926,67.0030205 25.6155726,67.7113583 C25.6278038,69.8766916 25.6402482,72.0419538 25.6539015,74.207287 C25.6428082,74.2599093 6.34751979,73.4115537 6.01002647,73.3439982 C3.42222209,73.1647982 0.120831947,76.0263092 0.123612391,78.4398203 C0.126385725,83.584709 0.128888836,88.73102 0.132223947,93.8766199 C0.13333328,97.583642 3.32944342,100.829153 7.12113755,100.841953 C15.7922129,100.926575 24.4652793,100.999109 33.1411191,101.056709 C37.1047101,101.068797 39.9000167,98.2079975 39.8808167,95.4168865 C39.8641767,92.9436421 39.8472523,90.4725311 39.8302567,87.9999978 C35.1783102,87.7703089 30.5308436,87.5164423 25.8872171,87.2305756 C25.8949682,88.7608867 25.9041415,90.2919089 25.9130304,91.8207977 C25.9177949,92.4963532 25.0269149,93.1384866 24.1588616,93.1043532 C21.1352883,92.9870199 18.1113595,92.8611532 15.0894218,92.7274643 C14.2522307,92.6919088 13.6877507,91.8207977 13.6858307,91.3059533 C13.6775107,89.1505755 13.6683374,86.99662 13.6597329,84.8419534 C13.6555374,84.851909 30.9900081,84.6321757 32.4536169,84.5518201 C35.055288,84.5141312 40.3886212,83.8115535 40.4238923,80.3107535 C40.3927456,75.7439981 40.3613856,71.1765316 40.3297412,66.6111272 C40.3102567,63.6905229 35.1255457,60.0683363 31.8291903,59.5144518 C23.4983105,58.1944163 15.1991462,56.617243 6.94499533,54.7825053 C3.42527986,53.9741853 0.255559055,57.0269141 0.255559055,59.9169407" id="path38"></path>
                        <path d="M172.136173,66.475305 C172.119107,69.521136 172.101329,72.5674649 172.086396,75.6145759 C179.098662,74.8487092 186.097418,73.9697759 193.073417,72.9784871 C193.071995,75.9722648 193.067728,78.9639091 193.065595,81.9569757 C186.069684,82.6531535 179.059551,83.2682646 172.038751,83.8044423 C172.023818,86.5834645 172.009596,89.3617755 171.99324,92.1407977 C179.464173,91.8193755 186.929417,91.4474644 194.381862,91.0236422 C194.381862,91.2327088 194.381862,91.4375088 194.381862,91.6472866 C194.38044,94.6588421 194.376173,97.6696864 194.374751,100.684797 C194.374751,100.727464 194.374751,100.770842 194.374751,100.813509 C167.744351,101.085153 137.474485,101.240886 110.818486,101.282131 C112.102753,98.7320864 113.386308,96.1713754 114.671997,93.5985754 C119.932797,93.5388421 125.195019,93.4570643 130.453686,93.3496866 C130.511286,83.2895979 130.568174,73.2295093 130.627908,63.1686384 C135.124974,62.7902562 139.614219,62.332514 144.099907,61.8047273 C144.031641,72.209776 143.959819,82.6140424 143.888707,93.0211532 C147.668263,92.9116421 155.066663,92.7914643 158.843374,92.6577755 C158.916618,81.8730646 158.990574,71.0905582 159.060974,60.3044252 C171.240173,58.5235896 183.352529,56.1919275 195.365328,53.3105764 C195.361062,56.381083 195.361062,59.4480341 195.358217,62.5180429 C187.648351,64.0199806 179.905773,65.340585 172.136173,66.475305" id="path40"></path>
                        <path d="M187.890129,19.9338662 L188.375817,19.9338662 C188.942573,19.9338662 189.400529,20.1152706 189.400529,20.5575106 C189.400529,20.9464173 189.103995,21.2066839 188.456884,21.2066839 C188.186662,21.2066839 187.998217,21.1810839 187.890129,21.1547017 L187.890129,19.9338662 Z M187.863106,17.518364 L186.838395,17.518364 L186.838395,21.7777772 C187.243017,21.8566395 187.809773,21.9080528 188.53724,21.9080528 C189.373506,21.9080528 189.751106,21.7777772 190.074662,21.5963728 C190.317862,21.4149684 190.507017,21.0766928 190.507017,20.6614039 C190.507017,20.1941328 190.129417,19.8299728 189.589684,19.6735995 L189.589684,19.6224706 C190.021329,19.4658128 190.263817,19.1544173 190.398929,18.5827551 C190.53404,17.9335818 190.614395,17.673884 190.723195,17.518364 L189.616706,17.518364 C189.481595,17.673884 189.400529,18.063644 189.266129,18.5572262 C189.185062,19.0244262 188.915551,19.2327817 188.348795,19.2327817 L187.863106,19.2327817 L187.863106,17.518364 Z M185.13884,19.7525328 C185.13884,17.8561418 186.595906,16.3491551 188.591995,16.3491551 C190.53404,16.3491551 191.964084,17.8561418 191.964084,19.7260795 C191.964084,21.622755 190.53404,23.1552705 188.564262,23.1552705 C186.595906,23.1552705 185.13884,21.622755 185.13884,19.7525328 Z M193.096173,19.7525328 C193.096173,17.3361062 191.127106,15.4397152 188.564262,15.4397152 C186.029151,15.4397152 184.00604,17.3361062 184.00604,19.7525328 C184.00604,22.1164083 186.029151,24.0122305 188.564262,24.0122305 C191.127106,24.0122305 193.096173,22.1164083 193.096173,19.7525328 L193.096173,19.7525328 Z" id="path42"></path>
                    </g>
                </g>
            </g>
        </g>
    </g>
</svg>