<?xml version="1.0" encoding="UTF-8"?>
<svg width="200px" height="200px" viewBox="0 0 200 200" version="1.1" xmlns="http://www.w3.org/2000/svg" xmlns:xlink="http://www.w3.org/1999/xlink">
    <!-- Generator: Sketch 54.1 (76490) - https://sketchapp.com -->
    <title>utsa</title>
    <desc>Created with Sketch.</desc>
    <g id="utsa" stroke="none" stroke-width="1" fill="none" fill-rule="evenodd">
        <g id="utsa_BGD" transform="translate(0.000000, 0.000000)">
            <g id="utsa" transform="translate(0.000000, 54.000000)">
                <g id="g10" transform="translate(100.000000, 46.883085) scale(-1, 1) rotate(-180.000000) translate(-100.000000, -46.883085) translate(0.000000, 0.821765)">
                    <g id="Group-3" transform="translate(100.000000, 46.181198) scale(1, -1) translate(-100.000000, -46.181198) translate(0.000000, 0.558557)" fill="#FFFFFF">
                        <path d="M98.3434211,90.548134 L96.675,89.3163226 C87.1714912,82.3000868 61.452193,65.5293792 27.970614,61.3329736 L12.3916667,59.3808509 L34.6188596,52.1338698 C34.220614,51.4679547 33.9995614,50.7020208 33.9995614,49.8746717 C33.9995614,48.5893415 34.5346491,47.4522849 35.4355263,46.6047566 C27.2223684,42.7628038 17.579386,41.7880585 17.4390351,41.7740208 L0.000438596491,40.1035302 L16.7346491,34.9279925 C23.9530702,32.6959925 31.079386,31.9344453 37.1241228,31.8432 C31.6328947,30.2060491 26.8942982,29.7542094 26.8065789,29.7454358 L7.83903509,28.0328321 L26.1688596,22.8722094 C33.1030702,20.9200868 39.3723684,20.2313604 44.870614,20.2717189 C41.879386,19.3180302 39.225,18.6222849 37.4679825,18.230983 L22.5469298,14.9136906 L37.4197368,11.3902189 C47.6714912,8.96169057 56.3416667,8.62303019 63.402193,9.29596415 C61.1907895,8.24488868 59.2671053,7.42543585 57.9653509,6.92007736 L42.3469298,0.849633962 L59.0872807,0.142483019 C109.280263,-1.97721509 129.064474,20.0532566 136.191667,32.5038509 L143.556579,29.1295302 L142.254825,37.8022189 C159.674123,40.1605585 185.555702,44.8140679 196.098684,65.5469264 L199.188158,71.6217566 L192.449561,70.6075302 C160.800439,65.8452283 124.832018,78.3502189 100.226754,89.6804264 L98.3434211,90.548134 Z" id="Fill-1"></path>
                    </g>
                    <g id="g12" transform="translate(17.543860, 5.264151)" fill-rule="nonzero">
                        <polyline id="path14" fill="#0C2950" points="19.2859391 34.8794079 20.1374755 34.8794079 20.1374755 37.4345819 20.8414636 37.4345819 20.8414636 38.1565344 18.5818683 38.1565344 18.5818683 37.4345819 19.2859391 37.4345819 19.2859391 34.8794079"></polyline>
                        <polyline id="path16" fill="#0C2950" points="22.1692747 36.7655864 22.9210805 34.8794079 23.2600653 34.8794079 24.0466176 36.7655864 24.055511 36.7655864 24.2945997 34.8794079 25.1460948 34.8794079 24.6507509 38.1565344 23.8033924 38.1565344 23.0993629 36.4046101 22.4344233 38.1565344 21.5957513 38.1565344 21.0396011 34.8794079 21.8865461 34.8794079 22.1603812 36.7655864 22.1692747 36.7655864"></polyline>
                        <path d="M96.9415853,26.2902417 C100.120266,28.8849266 108.475548,34.7825959 124.058507,40.0321629 C141.739077,37.6600628 157.071159,33.6694652 165.181355,25.0918833 C165.181355,25.0918833 124.29801,29.7233431 96.9415853,26.2902417 Z M107.964279,16.92116 C102.207949,18.4463829 98.5126216,21.1242475 96.7475842,22.6693086 L133.197653,22.682341 C124.421691,21.3772412 116.750583,19.4023184 107.964279,16.92116 Z M79.40724,6.57719417 L91.119692,18.4048448 L99.2921418,13.4934578 L79.40724,6.57719417 Z M83.6041158,23.0596594 L88.4537286,20.2767084 L74.0846203,11.6674972 L83.6041158,23.0596594 Z M38.2773606,30.0435673 C48.235737,43.6642666 69.9307639,52.5173902 86.2007931,48.7531009 C84.0965641,47.0981954 82.4388685,45.1329952 81.9836485,43.4267877 C79.902377,35.6282526 85.7947973,31.6726149 93.7507022,30.7984111 C89.6183555,28.6869586 80.2498416,27.5984445 74.2192628,32.2472808 C71.2141078,34.5668376 70.9293109,39.0946589 71.4645718,40.1080817 C66.5481548,40.0454021 53.8865866,39.0878325 38.2773606,30.0435673 Z M104.308455,39.0785236 L105.919408,38.1017157 C102.695433,35.3171304 96.8352776,32.275621 91.0830842,36.2769756 C86.4156834,39.5205902 88.5236352,45.0783833 91.5900102,46.790383 L96.5428283,43.7871434 C96.0330067,43.3430081 95.6048807,42.8190237 95.2971264,42.2323597 C94.0838959,39.9101136 95.2121217,37.4680938 97.8261722,36.787307 C100.158942,36.1727165 102.89626,37.1801402 104.308455,39.0785236 Z M103.5885,52.2401935 L106.339468,57.7996415 L109.977505,40.5638013 C109.977505,40.5638013 101.532461,53.2980919 72.2455398,58.8767781 C72.2455398,58.8767781 91.4942506,61.1555829 103.5885,52.2401935 Z M121.353247,51.4721106 L116.863302,49.4144425 C111.860846,59.8585508 94.2532849,85.0757932 41.4645209,82.8439463 C41.4645209,82.8439463 60.1272988,75.5907026 66.4207511,66.8575597 C66.4207511,66.8575597 50.8473056,78.8852056 20.4570188,71.6874012 C20.4570188,71.6874012 43.550963,66.568365 49.8146326,57.2353188 C49.8146326,57.2353188 34.0043735,67.182128 9.34747987,60.2420751 C9.34747987,60.2420751 26.8931385,58.6893601 35.2126402,49.7832795 C35.2126402,49.7832795 17.7517382,53.7008545 3.03164893e-14,48.2121537 C3.03164893e-14,48.2121537 21.8058846,46.1571748 29.7152541,34.8620314 L10.6356841,28.6420693 C45.9064833,24.2216099 72.2846296,6.42496355 80.9877902,0 C111.782046,14.1798298 146.09831,23.7358952 175.199917,19.3551122 C165.256432,38.9097233 140.635257,43.0482281 120.484379,45.679114 L121.353247,51.4721106 Z" id="path18" fill="#0C2950"></path>
                        <path d="M123.527383,37.3977603 C121.665966,36.9060465 115.825872,34.0430601 114.765278,33.4367441 C114.765278,33.4367441 126.219613,35.4491091 136.137866,34.9255384 C132.887831,36.4552916 127.858488,37.5727665 123.527383,37.3977603" id="path20" fill="#0C2950"></path>
                        <path d="M109.977505,40.5638013 L106.339468,57.7996415 L103.5885,52.2401935 C91.4942506,61.1555829 72.2455398,58.8767781 72.2455398,58.8767781 C101.532461,53.2980919 109.977505,40.5638013 109.977505,40.5638013" id="path22" fill="#F36018"></path>
                        <path d="M93.7507022,30.7984111 C85.7947973,31.6726149 79.902377,35.6282526 81.9836485,43.4267877 C82.4388685,45.1329952 84.0965641,47.0981954 86.2007931,48.7531009 C69.9307639,52.5173902 48.235737,43.6642666 38.2773606,30.0435673 C53.8865866,39.0878325 66.5481548,40.0454021 71.4645718,40.1080817 C70.9293109,39.0946589 71.2141078,34.5668376 74.2192628,32.2472808 C80.2498416,27.5984445 89.6183555,28.6869586 93.7507022,30.7984111" id="path24" fill="#F36018"></path>
                        <polygon id="path26" fill="#F36018" points="83.6041158 23.0596594 74.0846203 11.6674972 88.4537286 20.2767084"></polygon>
                        <polygon id="path28" fill="#F36018" points="79.40724 6.57719417 99.2921418 13.4934578 91.119692 18.4048448"></polygon>
                        <path d="M96.5428283,43.7871434 L91.5900102,46.790383 C88.5236352,45.0783833 86.4156834,39.5205902 91.0830842,36.2769756 C96.8352776,32.275621 102.695433,35.3171304 105.919408,38.1017157 L104.308455,39.0785236 C102.89626,37.1801402 100.158942,36.1727165 97.8261722,36.787307 C95.2121217,37.4680938 94.0838959,39.9101136 95.2971264,42.2323597 C95.6048807,42.8190237 96.0330067,43.3430081 96.5428283,43.7871434" id="path30" fill="#FFFFFF"></path>
                        <path d="M114.765278,33.4367441 C115.825872,34.0430601 121.665966,36.9060465 123.527383,37.3977603 C127.858488,37.5727665 132.887831,36.4552916 136.137866,34.9255384 C126.219613,35.4491091 114.765278,33.4367441 114.765278,33.4367441 Z M124.058507,40.0321629 C108.475548,34.7825959 100.120266,28.8849266 96.9415853,26.2902417 C124.29801,29.7233431 165.181355,25.0918833 165.181355,25.0918833 C157.071159,33.6694652 141.739077,37.6600628 124.058507,40.0321629 L124.058507,40.0321629 Z" id="path32" fill="#FFFFFF"></path>
                        <path d="M107.964279,16.92116 C116.750583,19.4023184 124.421691,21.3772412 133.197653,22.682341 L96.7475842,22.6693086 C98.5126216,21.1242475 102.207949,18.4463829 107.964279,16.92116" id="path34" fill="#FFFFFF"></path>
                    </g>
                </g>
            </g>
        </g>
    </g>
</svg>