<?xml version="1.0" encoding="UTF-8"?>
<svg width="200px" height="200px" viewBox="0 0 200 200" version="1.1" xmlns="http://www.w3.org/2000/svg" xmlns:xlink="http://www.w3.org/1999/xlink">
    <!-- Generator: Sketch 54.1 (76490) - https://sketchapp.com -->
    <title>virginia-tech</title>
    <desc>Created with Sketch.</desc>
    <g id="virginia-tech" stroke="none" stroke-width="1" fill="none" fill-rule="evenodd">
        <g id="virginia-tech_BGD" transform="translate(0.000000, 0.000000)">
            <g id="virginia-tech" transform="translate(0.000000, 52.000000)">
                <g id="g10" transform="translate(100.000000, 47.963332) scale(-1, 1) rotate(-180.000000) translate(-100.000000, -47.963332) translate(0.000000, 0.463332)" fill-rule="nonzero">
                    <g id="g12">
                        <polyline id="path14" fill="#D33922" points="50.2563321 65.3379984 66.444665 94.212331 199.999995 94.212331 183.932662 64.2689984 149.959663 64.2689984 116.235997 0.907029977 81.222998 0.907029977 115.202664 64.0129984 85.0456645 64.0129984 50.4089987 0 0 94.212331 34.7246658 94.212331 50.2563321 65.3379984"></polyline>
                        <polyline id="path16" fill="#672238" points="33.3799992 91.967331 50.2123321 60.6639985 67.766665 91.967331 196.240995 91.967331 182.586329 66.5169983 148.610996 66.5169983 114.88633 3.15468659 84.9926645 3.15468659 118.967664 66.2609983 83.7059979 66.2609983 50.4196654 4.74529988 3.75766657 91.967331 33.3799992 91.967331"></polyline>
                        <polyline id="path18" fill="#FFFFFF" points="7.50626648 89.7166644 32.0338659 89.7166644 50.1723321 55.9929986 69.0829983 89.7166644 192.482995 89.7166644 181.238662 68.7649983 147.260996 68.7649983 113.534664 5.40599986 88.7543311 5.40599986 122.73033 68.5089983 82.3646646 68.5089983 50.4313321 9.49166643 7.50626648 89.7166644"></polyline>
                    </g>
                </g>
            </g>
        </g>
    </g>
</svg>