<?xml version="1.0" encoding="UTF-8"?>
<svg width="200px" height="200px" viewBox="0 0 200 200" version="1.1" xmlns="http://www.w3.org/2000/svg" xmlns:xlink="http://www.w3.org/1999/xlink">
    <title>Teams/BGD/virginia</title>
    <defs>
        <polygon id="path-1" points="0.0437956204 0.353284672 199.470803 0.353284672 199.470803 155.430657 0.0437956204 155.430657"></polygon>
        <polygon id="path-3" points="0.0437956204 0.153682597 199.470803 0.153682597 199.470803 74.8372263 0.0437956204 74.8372263"></polygon>
    </defs>
    <g id="Teams/BGD/virginia" stroke="none" stroke-width="1" fill="none" fill-rule="evenodd">
        <g id="virginia_ForBlueBackground_FullColor_RGB" transform="translate(0.000000, 19.000000)">
            <path d="M147.262774,6.92262774 C149.272263,2.91678832 157.558394,0.384671533 162.064964,0.369343066 L117.521168,0.352554745 L125.750365,6.92262774 L147.262774,6.92262774" id="Fill-1" fill="#FF6A14"></path>
            <path d="M162.111679,0.369343066 C162.112409,0.369343066 162.112409,0.369343066 162.113139,0.369343066 C162.112409,0.369343066 162.112409,0.369343066 162.111679,0.369343066" id="Fill-3" fill="#FF6A14"></path>
            <g id="Group-8" transform="translate(37.226277, 0.000000)">
                <path d="M124.886861,0.367881795 C120.390511,0.365693431 112.052555,2.90291971 110.036496,6.92262774 L62.5087591,101.667153 L14.9810219,6.92262774 C12.9642336,2.90291971 4.6270073,0.365693431 0.129927007,0.367881795 L0.129927007,0.369343066 C0.129927007,0.369343066 0.131386861,0.369343066 0.131386861,0.369343066 L0.129927007,0.369343066 C0.129927007,0.369343066 4.99562044,2.40510949 8.92554745,9.23576642 L62.5087591,116.053285 L116.091971,9.23576642 C120.021168,2.40510949 124.886861,0.369343066 124.886861,0.369343066 L124.885401,0.369343066 C124.886861,0.369343066 124.886861,0.369343066 124.886861,0.369343066 L124.886861,0.367881795" id="Fill-4" fill="#F84C1E"></path>
                <path d="M62.5087591,64.5919708 L86.2656934,17.1978102 C88.0481752,13.6459854 88.8474453,9.89635036 88.5240876,6.92262774 L80.2948905,0.352554745 C82.5518248,4.20948905 82.7116788,9.81532847 80.7094891,13.889781 L62.5087591,50.1722628 L44.3072993,13.889781 C42.3058394,9.81532847 42.4656934,4.20948905 44.7218978,0.352554745 L36.4927007,6.92262774 C36.170073,9.89635036 36.9693431,13.6459854 38.7518248,17.1978102 L62.5087591,64.5919708" id="Fill-6" fill="#F84C1E"></path>
                <path d="M14.9810219,6.92262774 C12.9715328,2.91678832 4.68540146,0.384671533 0.17810219,0.369343066 L44.7218978,0.352554745 L36.4927007,6.92262774 L14.9810219,6.92262774" id="Fill-7" fill="#FF6A14"></path>
            </g>
            <path d="M37.3576642,0.369343066 C37.3576642,0.369343066 37.3569343,0.369343066 37.3562044,0.369343066 C37.3569343,0.369343066 37.3576642,0.369343066 37.3576642,0.369343066" id="Fill-9" fill="#FF6A14"></path>
            <path d="M147.262774,6.92262774 L125.750365,6.92262774 C126.073723,9.89635036 125.274453,13.6459854 123.491971,17.1978102 L99.7343066,64.5934307 L99.7343066,83.1270073 L133.791241,15.2357664 C135.554015,11.8394161 141.561314,6.92262774 147.262774,6.92262774" id="Fill-10" fill="#C8C9C7"></path>
            <path d="M133.791241,15.2357664 L99.7343066,83.1270073 L99.7343066,101.667883 L147.262774,6.92262774 C141.561314,6.92262774 135.554015,11.8394161 133.791241,15.2357664" id="Fill-11" fill="#FFFFFF"></path>
            <path d="M52.2072993,6.92262774 L73.7189781,6.92262774 C73.3963504,9.89635036 74.1956204,13.6459854 75.9781022,17.1978102 L99.7350365,64.5934307 L99.7350365,83.1270073 L65.6781022,15.2357664 C63.9153285,11.8394161 57.9087591,6.92262774 52.2072993,6.92262774" id="Fill-12" fill="#FFFFFF"></path>
            <g id="Group-17" transform="translate(0.000000, 6.569343)">
                <mask id="mask-2" fill="white">
                    <use xlink:href="#path-1"></use>
                </mask>
                <g id="Clip-14"></g>
                <path d="M65.6781022,8.66642336 L99.7350365,76.5576642 L99.7350365,95.0985401 L52.2072993,0.353284672 C57.9087591,0.353284672 63.9153285,5.27007299 65.6781022,8.66642336" id="Fill-13" fill="#C8C9C7" mask="url(#mask-2)"></path>
                <path d="M173.821898,138.876642 C171.776642,141.624088 168.465693,143.409489 164.727737,143.409489 C160.551825,143.409489 156.911679,141.182482 154.971533,137.878102 C156.556204,138.146715 173.821898,138.876642 173.821898,138.876642 Z M34.7437956,143.409489 C31.0051095,143.409489 27.6941606,141.624088 25.6489051,138.876642 C25.6489051,138.876642 42.9153285,138.146715 44.4992701,137.878102 C42.5591241,141.182482 38.9189781,143.409489 34.7437956,143.409489 Z M198.036496,76.0547445 C197.89635,76.150365 197.756934,76.2474453 197.616788,76.3416058 C197.610219,76.3467153 197.60292,76.3510949 197.594891,76.3569343 L197.594891,76.3562044 C168.348905,96.2087591 134.405109,111.336496 99.7350365,120.456204 C65.0649635,111.336496 31.1211679,96.2087591 1.87591241,76.3547445 L1.87591241,76.3562044 C1.86861314,76.3518248 1.86131387,76.3467153 1.8540146,76.3423358 C1.71386861,76.2474453 1.57445255,76.150365 1.43430657,76.0554745 C-0.230656934,74.9445255 -0.564963504,75.1080292 1.0649635,76.6372263 C5.24671533,80.859854 15.780292,90.9014599 32.6277372,101.065693 L32.6277372,101.064964 C43.9532847,108.080292 56.7956204,114.59635 67.8372263,118.358394 C73.680292,120.508759 79.2094891,122.385401 84.4948905,124.060584 C73.9467153,126.283942 63.3846715,127.946715 52.919708,128.994161 C52.3343066,127.121898 50.8328467,125.663504 49.1518248,125.507299 C47.0824818,125.315328 45.5021898,127.231387 45.6510949,129.715328 C45.659854,129.881022 45.679562,130.044526 45.7029197,130.207299 C37.7554745,131.1 23.9620438,131.364964 23.5715328,131.372263 L23.5518248,131.372263 C23.6021898,130.859854 23.6744526,130.375912 23.7927007,129.885401 L23.7963504,129.865693 C23.8021898,129.823358 23.8087591,129.781022 23.8087591,129.735766 C23.8087591,129.282482 23.4408759,128.913139 22.9861314,128.913139 C22.6167883,128.913139 22.3072993,129.158394 22.2043796,129.494891 C21.9313869,130.081752 21.6905109,130.687591 21.4868613,131.305109 L19.5394161,131.316058 L15.189781,131.335036 C15.1350365,131.052555 14.8934307,130.823358 14.5781022,130.819708 C14.3941606,130.816788 14.059854,130.813869 13.8722628,130.811679 C13.5985401,130.808029 13.3532847,130.978102 13.270073,131.237226 C13.1372263,131.661314 13.0211679,132.090511 12.9218978,132.527007 C12.9029197,132.524818 12.8846715,132.521168 12.8642336,132.521168 C12.5978102,132.521168 12.3751825,132.709489 12.3240876,132.968613 C12.1912409,133.646715 12.1,134.337956 12.0569343,135.040146 C12.0175182,135.7 12.019708,136.349635 12.0620438,136.988321 C12.0810219,137.281022 12.319708,137.509489 12.6094891,137.521168 C12.6547445,137.962774 12.7189781,138.40073 12.8014599,138.829927 C12.8591241,139.135036 13.1248175,139.356204 13.4328467,139.358394 C13.640146,139.359854 13.8437956,139.362044 14.0437956,139.362774 C14.3905109,139.365693 14.659854,139.091241 14.6773723,138.762044 C16.870073,138.815328 19.6408759,138.816058 20.9043796,138.794891 C22.1072993,145.773723 28.2080292,150.960584 35.9737226,150.963504 C44.2985401,150.966423 51.6445255,145.009489 53.3686131,137.268613 C66.0372263,135.683212 81.029927,133.489051 99.7350365,128.510219 C118.440876,133.489051 133.433577,135.683212 146.10146,137.268613 C147.826277,145.009489 155.172993,150.965693 163.49708,150.963504 C171.262774,150.960584 177.364234,145.773723 178.565693,138.794161 C179.830657,138.815328 182.60073,138.815328 184.793431,138.762044 C184.810949,139.091971 185.081022,139.364234 185.426277,139.362044 C185.627737,139.361314 185.831387,139.359854 186.037956,139.358394 C186.345985,139.356204 186.610949,139.134307 186.670073,138.830657 C186.752555,138.40073 186.816058,137.962774 186.861314,137.519708 C187.151095,137.509489 187.389781,137.280292 187.408759,136.989051 C187.451095,136.350365 187.454745,135.7 187.413869,135.039416 C187.370073,134.337956 187.280292,133.647445 187.147445,132.969343 C187.09635,132.708029 186.872993,132.520438 186.608029,132.520438 C186.586861,132.520438 186.567883,132.525547 186.548175,132.527737 C186.449635,132.091241 186.334307,131.661314 186.20073,131.237226 C186.118978,130.977372 185.873723,130.808029 185.6,130.812409 C185.410949,130.814599 185.078102,130.816788 184.892701,130.818978 C184.577372,130.824088 184.335036,131.051825 184.281022,131.334307 L179.930657,131.314599 L177.983942,131.305839 C177.780292,130.687591 177.539416,130.082482 177.267883,129.494161 C177.162774,129.159124 176.854015,128.913139 176.484672,128.913139 C176.029927,128.913139 175.661314,129.281752 175.661314,129.736496 C175.661314,129.780292 175.667153,129.823358 175.675182,129.865693 L175.668613,129.867883 C175.786131,130.357664 175.868613,130.859854 175.918248,131.372993 L175.89927,131.372263 C175.508029,131.364964 161.715328,131.1 153.767883,130.207299 C153.775912,130.152555 153.778832,130.09708 153.785401,130.042336 C153.79854,129.933577 153.813869,129.825547 153.821168,129.715328 C153.970073,127.232117 152.389051,125.315328 150.318978,125.508029 C148.637226,125.662774 147.135766,127.121898 146.551095,128.994891 C136.086131,127.946715 125.524088,126.283942 114.975182,124.060584 C120.260584,122.385401 125.790511,120.508759 131.635036,118.357664 C142.675182,114.59562 155.517518,108.081022 166.843796,101.064964 L166.843796,101.065693 C183.691241,90.9007299 194.224088,80.8591241 198.405839,76.6364964 C200.035766,75.1080292 199.70292,74.9437956 198.036496,76.0547445 L198.036496,76.0547445 Z" id="Fill-15" fill="#F84C1E" mask="url(#mask-2)"></path>
                <path d="M186.027737,146.931387 C186.854745,146.931387 187.589051,146.993431 187.589051,147.869343 C187.589051,148.805839 186.308029,148.648175 185.370803,148.648175 L184.307299,148.648175 L184.307299,146.931387 L186.027737,146.931387 Z M186.745255,149.648175 C187.665693,149.618978 188.586861,149.116788 188.586861,147.758394 C188.586861,146.305839 187.462044,145.931387 186.214599,145.931387 L183.310219,145.931387 L183.310219,152.833577 L184.307299,152.833577 L184.307299,149.648175 L185.587591,149.648175 L187.353285,152.833577 L188.493431,152.833577 L186.745255,149.648175 Z M185.683212,155.475182 C189.118248,155.475182 191.836496,152.757664 191.836496,149.337226 C191.836496,145.916058 189.118248,143.19854 185.683212,143.19854 C182.246715,143.19854 179.529197,145.916058 179.529197,149.337226 C179.529197,152.757664 182.246715,155.475182 185.683212,155.475182 Z M185.683212,144.19781 C188.493431,144.19781 190.837956,146.432117 190.837956,149.337226 C190.837956,152.225547 188.493431,154.475182 185.683212,154.475182 C182.870803,154.475182 180.529197,152.225547 180.529197,149.337226 C180.529197,146.432117 182.870803,144.19781 185.683212,144.19781 L185.683212,144.19781 Z" id="Fill-16" fill="#F84C1E" mask="url(#mask-2)"></path>
            </g>
            <path d="M148.517518,144.167153 C148.517518,144.167153 150.362044,153.182482 160.342336,156.589051 C160.342336,156.589051 150.016058,155.023358 146.821898,143.964964 L148.517518,144.167153" id="Fill-18" fill="#FF6A14"></path>
            <path d="M146.551825,135.564234 L148.343796,135.759124 C148.343796,135.759124 149.824818,137.264234 149.554745,139.968613 C134.982482,138.563504 120.889781,136.20365 107.30365,132.982482 C109.794161,132.255474 112.367883,131.462044 114.986131,130.632117 C125.531387,132.854015 136.090511,134.516058 146.551825,135.564234" id="Fill-19" fill="#FF6A14"></path>
            <path d="M179.931387,137.890511 L184.281752,137.909489 C184.281752,137.908759 184.282482,137.908029 184.282482,137.907299 L184.283942,137.909489 C184.283942,137.909489 185.256204,140.770803 184.79635,145.336496 L184.79562,145.343066 C184.79562,145.340876 184.794161,145.338686 184.794161,145.336496 C184.375182,145.346715 183.932117,145.354015 183.485401,145.361314 C183.187591,139.392701 178.866423,138.016058 178.390511,137.882482 L179.931387,137.890511" id="Fill-20" fill="#FF6A14"></path>
            <g id="Group-24" transform="translate(0.000000, 81.751825)">
                <mask id="mask-4" fill="white">
                    <use xlink:href="#path-3"></use>
                </mask>
                <g id="Clip-22"></g>
                <path d="M39.1291971,74.8372263 C39.1291971,74.8372263 49.4562044,73.2715328 52.650365,62.2131387 L50.9540146,62.4153285 C50.9540146,62.4153285 49.1094891,71.4306569 39.1291971,74.8372263" id="Fill-21" fill="#FF6A14" mask="url(#mask-4)"></path>
                <path d="M49.9175182,58.2167883 C49.6474453,55.5124088 51.1284672,54.0072993 51.1284672,54.0072993 L52.9189781,53.8124088 L52.9211679,53.8124088 C65.8817518,52.5138686 78.9912409,50.2781022 92.0408759,47.1905109 C64.7832117,39.1985401 39.7510949,27.640146 17.2423358,13.2189781 C9.61021898,8.18467153 1.8919708,2.15839416 0.000145196094,0.225547445 C-0.0197080292,0.0248175182 0.496350365,0.245985401 1.4350365,0.871532847 C1.57445255,0.967153285 1.71459854,1.06350365 1.85547445,1.15839416 C1.86131387,1.16350365 1.86788321,1.16934307 1.87591241,1.17372263 L1.87591241,1.17226277 C31.1218978,21.0262774 65.0656934,36.1532847 99.7357664,45.2729927 C134.405839,36.1532847 168.350365,21.0262774 197.59562,1.17226277 L197.59562,1.17372263 C197.60292,1.16934307 197.610219,1.16350365 197.616788,1.15839416 C197.757664,1.06350365 197.89708,0.967153285 198.037226,0.871532847 C198.626277,0.478832117 199.026277,0.264963504 199.254015,0.194890511 C199.278832,0.187591241 199.309489,0.175182482 199.329927,0.171532847 C199.368613,0.164233577 199.392701,0.168613139 199.413139,0.176642336 C199.432847,0.183211679 199.450365,0.191970803 199.454015,0.212408759 C199.455474,0.218978102 199.470827,0.215328467 199.470827,0.225547445 C199.464964,0.231386861 199.456934,0.239416058 199.451095,0.244525547 C197.532847,2.19416058 189.840146,8.19927007 182.229197,13.2189781 C144.686861,37.2729927 100.128467,53.3751825 49.9175182,58.2167883" id="Fill-23" fill="#FF6A14" mask="url(#mask-4)"></path>
            </g>
            <path d="M19.5394161,137.890511 L15.1890511,137.909489 C15.1890511,137.908759 15.1883212,137.908029 15.1883212,137.907299 L15.1868613,137.909489 C15.1868613,137.909489 14.2145985,140.770803 14.6744526,145.336496 L14.6751825,145.343066 C14.6751825,145.340876 14.6766423,145.338686 14.6766423,145.336496 C15.0956204,145.346715 15.5386861,145.354015 15.9854015,145.361314 C16.2832117,139.392701 20.6051095,138.016058 21.0810219,137.882482 L19.5394161,137.890511" id="Fill-25" fill="#FF6A14"></path>
            <path d="M49.1525547,131.988321 C47.0824818,131.79635 45.5029197,133.712409 45.6510949,136.19635 C45.6605839,136.359854 45.679562,136.521898 45.7029197,136.683212 C45.7058394,136.719708 45.7087591,136.743796 45.7116788,136.778102 C37.6379562,137.677372 23.5532847,137.942336 23.5532847,137.942336 C23.5510949,137.969343 23.5510949,137.99635 23.550365,138.023358 C23.5007299,138.882482 23.5759124,139.817518 23.7576642,140.759124 C29.4080292,140.972263 44.4708029,139.79635 45.8452555,139.710949 C45.8291971,140.254015 45.629927,141.765693 45.2277372,142.824088 C45.2277372,142.824088 45.1817518,142.945255 45.1693431,142.975182 C43.5262774,147.060584 39.5043796,149.890511 34.7437956,149.890511 C34.4861314,149.890511 34.2364964,149.862044 33.9832117,149.845985 C33.919708,149.842336 33.8569343,149.838686 33.7941606,149.834307 C33.5554745,149.814599 33.319708,149.791971 33.0854015,149.758394 C32.7970803,149.718248 32.5175182,149.667153 32.2459854,149.606569 C32.0518248,149.564234 31.8627737,149.511679 31.6729927,149.458394 C31.5,149.410219 31.329927,149.359124 31.1649635,149.30292 C29.6846715,148.816058 28.3445255,148.042336 27.2116788,147.039416 C27.1182482,146.960584 27.0240876,146.881022 26.9386861,146.805839 C26.9386861,146.805839 30.6248175,151.048905 36.4459854,150.708759 C41.2525547,150.429197 44.8766423,147.956204 46.779562,143.564964 C47.0656934,142.946715 47.2773723,142.327737 47.4291971,141.716788 C47.4306569,141.712409 47.4328467,141.708759 47.4343066,141.70438 L47.4328467,141.70438 C47.4817518,141.510219 47.5175182,141.318248 47.5547445,141.125547 L47.5751825,141.121898 C47.6051095,140.964234 47.6145985,140.813139 47.6379562,140.656934 C47.6715328,140.437226 47.7029197,140.218978 47.7248175,140.00365 C47.740146,139.852555 47.7525547,139.705109 47.7620438,139.556204 C47.8613139,138.190511 47.7708029,136.926277 47.7284672,135.882482 C47.6036496,132.775182 49.9905109,132.037226 51.0883212,132.783212 C50.5080292,132.338686 49.8452555,132.052555 49.1525547,131.988321" id="Fill-26" fill="#FF6A14"></path>
            <path d="M150.318978,131.988321 C152.389051,131.79635 153.968613,133.712409 153.819708,136.19635 C153.810949,136.359854 153.791971,136.521898 153.767883,136.683212 C153.764964,136.719708 153.762044,136.743796 153.759854,136.778102 C161.833577,137.677372 175.918248,137.942336 175.918248,137.942336 C175.919708,137.969343 175.919708,137.99635 175.920438,138.023358 C175.970803,138.882482 175.89562,139.817518 175.713869,140.759124 C170.062774,140.972263 155.00073,139.79635 153.625547,139.710949 C153.640876,140.254015 153.840876,141.765693 154.243066,142.824088 C154.243066,142.824088 154.289781,142.945255 154.30219,142.975182 C155.944526,147.060584 159.966423,149.890511 164.727007,149.890511 C164.984672,149.890511 165.234307,149.862044 165.488321,149.845985 C165.551095,149.842336 165.614599,149.838686 165.677372,149.834307 C165.915328,149.814599 166.151825,149.791971 166.385401,149.758394 C166.673723,149.718248 166.953285,149.667153 167.224818,149.606569 C167.418978,149.564234 167.608029,149.511679 167.79854,149.458394 C167.970803,149.410219 168.140876,149.359124 168.306569,149.30292 C169.786861,148.816058 171.127007,148.042336 172.259124,147.039416 C172.352555,146.960584 172.447445,146.881022 172.532117,146.805839 C172.532117,146.805839 168.846715,151.048905 163.025547,150.708759 C158.218248,150.429197 154.594161,147.956204 152.691971,143.564964 C152.405109,142.946715 152.194161,142.327737 152.041606,141.716788 C152.040146,141.712409 152.037956,141.708759 152.037226,141.70438 L152.037956,141.70438 C151.989781,141.510219 151.953285,141.318248 151.916058,141.125547 L151.89562,141.121898 C151.865693,140.964234 151.856204,140.813139 151.833577,140.656934 C151.79927,140.437226 151.768613,140.218978 151.745985,140.00365 C151.731387,139.852555 151.718978,139.705109 151.708759,139.556204 C151.609489,138.190511 151.7,136.926277 151.743066,135.882482 C151.867883,132.775182 149.480292,132.037226 148.381752,132.783212 C148.962044,132.338686 149.625547,132.052555 150.318978,131.988321" id="Fill-27" fill="#FF6A14"></path>
        </g>
    </g>
</svg>