<?xml version="1.0" encoding="UTF-8"?>
<svg width="200px" height="200px" viewBox="0 0 200 200" version="1.1" xmlns="http://www.w3.org/2000/svg" xmlns:xlink="http://www.w3.org/1999/xlink">
    <!-- Generator: Sketch 54.1 (76490) - https://sketchapp.com -->
    <title>washington-st</title>
    <desc>Created with Sketch.</desc>
    <g id="washington-st" stroke="none" stroke-width="1" fill="none" fill-rule="evenodd">
        <g id="washington-st_BGD" fill="#FFFFFF">
            <g id="washington-st">
                <g id="g10" transform="translate(100.000000, 100.209936) scale(-1, 1) rotate(-180.000000) translate(-100.000000, -100.209936) translate(0.000000, 0.714986)" fill-rule="nonzero">
                    <g id="g12">
                        <path d="M121.786316,0.200363856 C121.786316,0.200363856 131.899259,4.50677976 137.423246,21.2176952 C142.293245,11.0353288 141.022671,0.578828917 141.022671,0.578828917 C136.556249,-0.443860261 121.786316,0.200363856 121.786316,0.200363856" id="path14"></path>
                        <path d="M176.028107,95.7251233 C176.028107,95.7251233 182.194683,62.1630198 160.385834,61.0078554 C139.340684,59.908971 129.41546,91.5775025 129.41546,91.5775025 C129.41546,91.5775025 134.489919,29.69143 163.992384,33.7682735 C197.239961,38.3626434 176.028107,95.7251233 176.028107,95.7251233" id="path16"></path>
                        <path d="M15.771681,8.196823 C15.7869977,8.196823 15.8078711,8.196823 15.8148171,8.196823 C40.4218495,13.7972866 59.2507089,42.5159635 64.7982053,54.0480165 L68.3060866,61.3391237 L70.4265595,53.5194121 C70.5362699,53.0951751 72.8198835,44.4750767 72.8198835,33.1003939 C72.8198835,31.8550747 72.7835509,30.5471351 72.7180096,29.2280819 C81.2112999,28.9150156 87.2681657,30.6375748 91.0321566,34.5474662 C96.4293355,40.1546977 98.0671542,50.7435268 96.0382252,66.9286519 C95.0657927,74.6760543 92.1994319,87.0038635 89.6643393,97.8776545 C88.370256,103.432275 87.1456321,108.695878 86.4054435,112.413919 C81.6608274,136.205746 87.5438664,150.968555 93.3221819,159.159786 C94.232279,160.451019 95.2175349,161.668519 96.2580021,162.826177 C79.2425692,157.104854 64.9695386,148.180203 50.2370069,133.471537 L60.6003599,121.449705 L64.8316883,125.415307 C68.8289917,110.486864 65.9530135,96.7338885 65.9530135,96.7338885 C60.5127341,105.044803 54.0661828,111.787715 54.0661828,111.787715 L56.8976358,116.510246 L47.5601458,127.357678 L46.4662482,128.565561 C34.9941084,112.795055 31.2692998,99.8827179 31.2692998,99.8827179 L39.4173587,92.4469925 L44.1747981,88.138012 L45.756693,92.7184188 C54.5060928,76.3245591 46.5093487,60.9871957 46.5093487,60.9871957 C45.0734968,66.5849165 39.3047988,74.8498811 39.3047988,74.8498811 L41.5809322,82.3522162 L29.4646359,93.3346489 C16.8583833,53.9326069 0,41.177711 0,41.177711 C0,41.177711 18.241446,44.4711585 28.3848796,47.88429 C28.3848796,47.88429 28.1066142,27.120076 15.771681,8.196823" id="path18"></path>
                        <path d="M115.37218,137.20062 C121.248095,141.319032 131.227105,144.483178 140.581693,143.764005 C142.967893,143.57878 144.975806,144.214601 142.418272,145.55606 C135.408565,149.253084 119.070273,148.013144 113.293382,144.057516 C104.038888,137.75024 105.594424,126.508848 105.828448,126.204295 C107.670371,129.448943 110.80139,133.989099 115.37218,137.20062 L115.37218,137.20062 Z M199.700251,150.277166 L170.587471,149.059666 C170.608487,145.629793 170.15611,142.145778 169.042978,138.87299 C171.759021,126.990434 169.88504,120.520373 169.88504,120.520373 C165.015041,131.874325 161.281684,135.01603 161.281684,135.01603 C134.556885,146.90856 119.54616,120.03202 121.143727,102.71987 C122.454196,88.4607314 127.620556,69.57203 131.658466,39.928153 C135.050938,14.993913 122.430687,4.19371346 107.887655,1.72674818 C107.570278,1.67109155 107.268575,1.61264942 106.941581,1.56673493 C106.867847,1.5597783 106.78414,1.54586147 106.71468,1.54586147 C104.363032,1.23279517 101.852873,1.11452528 99.1995216,1.18131324 C99.1061966,1.18131324 99.0146526,1.18131324 98.9295202,1.19105181 C98.6445583,1.20496508 98.3521161,1.2188819 98.0614549,1.23279517 C96.9411984,1.3093217 95.8255724,1.41785301 94.7163581,1.56673493 C83.4126308,3.13207711 58.0973255,7.71680464 31.9538496,8.36381069 C47.3332449,17.3384373 59.3632689,32.8777674 66.0769719,43.8837807 C66.4652325,40.8368253 66.7936512,37.1145101 66.7936512,33.023846 C66.7936512,30.9645687 66.7099436,28.8245758 66.5151009,26.6191842 L66.2564979,23.6345998 L69.2592842,23.3702264 C81.2921579,22.3127327 89.8381661,24.6224916 95.3788946,30.3662555 C102.211925,37.4692877 104.325631,49.3130179 102.018508,67.6798828 C101.002974,75.7264952 98.0920883,88.2142393 95.5331302,99.2454717 C94.2490205,104.748443 93.0343703,109.963602 92.3148414,113.581194 C87.9930376,135.280332 93.1526295,148.44593 98.246324,155.691087 C102.239709,161.355417 107.744105,165.490927 113.780311,167.47355 C113.884678,167.507033 113.994389,167.525199 114.098756,167.545859 L124.026473,198.04569 L127.140751,198.04569 L120.461956,168.73985 C122.022835,168.993109 123.592619,169.254562 125.196955,169.498205 L133.756855,196.530405 L136.856884,196.530405 L131.249546,170.344185 C140.104382,171.501843 149.751055,172.377032 160.418961,173.175638 C162.158298,172.452191 164.013044,170.470637 165.65763,167.679435 L193.677937,176.302027 L194.711992,173.289623 L167.946587,162.877827 C168.159596,162.340673 168.361206,161.774311 168.551775,161.189783 L197.820214,164.828391 L198.308568,161.678493 L169.891808,155.998489 C169.991901,155.482352 170.082376,154.953748 170.15896,154.419444 L199.719486,153.480138 L199.700251,150.277166 L199.700251,150.277166 Z" id="path20"></path>
                    </g>
                </g>
            </g>
        </g>
    </g>
</svg>