<?xml version="1.0" encoding="UTF-8"?>
<svg width="200px" height="200px" viewBox="0 0 200 200" version="1.1" xmlns="http://www.w3.org/2000/svg" xmlns:xlink="http://www.w3.org/1999/xlink">
    <!-- Generator: Sketch 54.1 (76490) - https://sketchapp.com -->
    <title>william-mary</title>
    <desc>Created with Sketch.</desc>
    <g id="william-mary" stroke="none" stroke-width="1" fill="none" fill-rule="evenodd">
        <g id="william-mary_BGD" fill="#ECAC2E">
            <g id="william-mary" transform="translate(0.000000, 18.000000)">
                <path d="M188.387591,144.822982 L177.721898,80.5452321 L149.452555,132.328232 L149.243066,132.328232 L122.674453,83.7000357 C123.940146,84.5947143 126.140146,85.715625 129.540876,86.0985357 C135.605109,86.7801607 140.608029,81.1185 140.608029,74.9970536 C140.608029,70.4065179 137.906569,65.8364821 133.844526,64.7704821 C135.391971,82.7438571 85.6394161,69.5323393 86.4218978,100.141036 C87.220438,116.366786 110.238686,116.301625 108.578102,101.863036 C94.9321168,101.93625 99.0671533,86.5590536 109.406569,88.6690893 L109.583212,88.8045357 C113.030657,92.0157143 115.029927,96.7826964 115.029927,101.862304 C115.029927,111.552946 107.170803,119.435196 97.5109489,119.435196 C87.8510949,119.435196 80.0335766,111.703036 79.9912409,101.862304 C79.9489051,92.0230357 84.4189781,83.7403036 97.4664234,76.6905 C94.4087591,74.9436071 86.6430657,70.5536786 86.4313869,60.024 L86.4430657,60.024 C86.4430657,53.9025536 91.4226277,48.9225179 97.5109489,48.9225179 C101.936496,48.9225179 105.615328,52.4858571 105.615328,56.8530893 C105.615328,61.2203214 102.071533,64.8510179 97.7182482,64.7741429 C93.3248175,64.6965357 91.4861314,61.587125 91.4671533,61.5549107 C91.4868613,67.9296786 97.2459854,72.5992857 103.021168,73.1139821 C114.221898,74.1118929 121.465693,66.1037143 121.416058,56.2146607 C121.383212,49.6583214 115.183212,35.1970357 97.5109489,35.7439464 C93.4635036,35.8691429 89.6467153,36.9263571 86.2890511,38.7047321 L89.4481752,19.6221607 C92.529927,6.083375 101.128467,1.47014286 101.128467,1.47014286 L77.7591241,1.481125 C76.7116788,1.481125 75.8744526,2.32089286 75.770073,3.16139286 L71.1627737,35.6099643 L70.9547445,35.6099643 L50.5437956,0.366071429 L30.2284672,35.6099643 L30.0189781,35.6099643 L25.3065693,3.16139286 C25.2029197,2.32089286 24.259854,1.481125 23.3182482,1.481125 L0,1.47014286 C0,1.47014286 8.27226277,5.904 11.4985401,18.8438929 L22.1642336,83.1216429 L50.4335766,31.3379107 L50.6430657,31.3379107 L76.8036496,79.2193214 C70.6948905,84.844375 66.8532847,92.9089286 66.8532847,101.862304 C66.8532847,118.818732 80.6058394,132.613768 97.5109489,132.613768 C103.172993,132.613768 108.477372,131.060161 113.033577,128.364411 L110.437956,144.043982 C107.356204,157.5835 98.7583942,162.196732 98.7583942,162.196732 L122.127007,162.18575 C123.174453,162.18575 124.011679,161.34525 124.116058,160.505482 L128.723358,128.056911 L128.932117,128.056911 L149.342336,163.300804 L169.657664,128.056911 L169.867153,128.056911 L174.578832,160.505482 C174.683942,161.34525 175.626277,162.18575 176.567883,162.18575 L199.886131,162.196732 C199.886131,162.196732 191.613869,157.763607 188.387591,144.822982" id="Fill-2"></path>
            </g>
        </g>
    </g>
</svg>