<?xml version="1.0" encoding="UTF-8"?>
<svg width="200px" height="200px" viewBox="0 0 200 200" version="1.1" xmlns="http://www.w3.org/2000/svg" xmlns:xlink="http://www.w3.org/1999/xlink">
    <!-- Generator: Sketch 54.1 (76490) - https://sketchapp.com -->
    <title>wofford</title>
    <desc>Created with Sketch.</desc>
    <g id="wofford" stroke="none" stroke-width="1" fill="none" fill-rule="evenodd">
        <g id="wofford_BGD">
            <g id="wofford" transform="translate(9.000000, 0.000000)">
                <path d="M84.4876364,198.305085 C82.6276364,198.305085 80.7676364,198.305085 78.9414545,198.101695 C74.3455616,197.612942 69.8887044,196.231266 65.82,194.033898 L63.0807273,192.779661 C35.3836364,180.508475 18.4745455,166.881356 6.77345455,147.322034 C3.93272727,142.576271 0.00981818182,136.135593 3.12109091,131.016949 L3.62836364,130.305085 C3.97932436,129.925538 4.26502262,129.490247 4.47381818,129.016949 C4.74198094,128.043377 4.90078421,127.04282 4.94727273,126.033898 C4.68755011,124.038703 5.49746756,122.054214 7.07781818,120.813559 C8.36546698,120.003781 9.85266748,119.569475 11.3727273,119.559322 C11.8254524,119.0375 12.2221793,118.469404 12.5563636,117.864407 C13.3222837,116.142382 14.6611133,114.74047 16.344,113.898305 C18.1017194,113.223149 19.9746303,112.90066 21.8563636,112.949153 C23.9833903,113.000588 26.1059285,113.170341 28.2141818,113.457627 L30.9534545,113.728814 L33.7603636,111.762712 C38.0552727,108.813559 42.5192727,105.728814 43.2632727,100.508475 C43.5408102,97.1158235 43.4159381,93.7021503 42.8912727,90.3389831 C42.5458285,87.3577452 42.3989576,84.3567469 42.4516364,81.3559322 C43.0251591,69.2156427 44.7692863,57.159464 47.6596364,45.3559322 C48.7522197,39.0155781 50.769069,32.8707435 53.6454545,27.1186441 C58.4377822,20.3313119 64.3642624,14.4251951 71.1632727,9.66101695 L72.5836364,8.47457627 C74.6383455,6.44404794 77.3224179,5.17655569 80.1927273,4.88135593 L81.9174545,4.88135593 L81.9174545,6.37288136 C81.7010421,10.4369545 80.5431761,14.3946319 78.5356364,17.9322034 C76.8104394,21.0919177 75.6650082,24.5363529 75.1538182,28.1016949 C74.8544386,34.671122 75.7952836,41.2381382 77.9269091,47.4576271 C78.2650909,48.7118644 78.6370909,49.9322034 78.9752727,51.1525424 L84.5214545,49.7288136 L86.4152727,49.2542373 C87.4974545,46.7457627 88.512,44.1355932 89.4589091,41.5932203 C90.4058182,39.0508475 91.2512727,36.9830508 92.1981818,34.8135593 L92.8745455,33.3220339 C94.5155908,28.7444979 96.7074043,24.3846354 99.4014545,20.3389831 C101.586178,17.7858364 104.073247,15.5091584 106.807636,13.559322 C107.923636,12.7118644 109.005818,11.8644068 109.986545,11.0169492 L112.455273,8.88135593 C115.037959,6.43932062 117.846205,4.24869267 120.842182,2.33898305 L120.842182,2.33898305 C121.417145,1.95832444 122.081993,1.73618345 122.769818,1.69491525 C123.588986,1.72290388 124.370136,2.04815012 124.968,2.61016949 L125.407636,3.01694915 L125.407636,3.59322034 C125.439937,6.35325395 124.190171,8.97145291 122.025818,10.6779661 C121.443314,11.2978411 120.901108,11.9545587 120.402545,12.6440678 C116.378182,18.5084746 114.721091,28.3050847 115.735636,40.3389831 C118.373455,41.6949153 121.078909,42.9830508 123.919636,44.3050847 C129.799602,46.8803377 135.455495,49.9417559 140.828727,53.4576271 C141.708,54.0338983 142.485818,54.6440678 143.229818,55.220339 C144.960636,56.9880367 147.26203,58.0813861 149.722909,58.3050847 C150.687514,58.2830971 151.644058,58.1232954 152.563636,57.8305085 L153.747273,57.6271186 L154.288364,57.8305085 C158.515636,59.5932203 158.684727,63.4237288 158.786182,66.8135593 C158.786182,67.5254237 158.786182,68.2372881 158.786182,68.9491525 C159.034147,70.8528568 159.429893,72.7342705 159.969818,74.5762712 C160.701555,77.1644385 161.155043,79.8236284 161.322545,82.5084746 C167.143792,83.6024434 172.344472,86.8439388 175.898182,91.5932203 C179.450251,96.690757 180.758442,103.02662 179.516727,109.118644 C178.521671,114.318017 175.90454,119.066128 172.042909,122.677966 C171.468,123.186441 170.893091,123.627119 170.284364,124.067797 C168.728727,125.220339 167.443636,126.135593 167.139273,128.101695 C170.111631,132.551208 171.239611,137.985636 170.284364,143.254237 C169.729031,145.659403 168.056147,147.651447 165.786545,148.610169 C164.937121,148.947622 164.028292,149.109062 163.114909,149.084746 C162.540492,149.118479 161.964598,149.118479 161.390182,149.084746 L159.868364,149.084746 L158.786182,149.084746 C156.989495,149.862335 155.323906,150.914372 153.848727,152.20339 L151.785818,153.728814 C145.664727,157.932203 139.036364,161.59322 132.610909,165.118644 L129.567273,166.779661 L129.973091,167.152542 C131.073633,167.97686 131.822604,169.187739 132.069818,170.542373 C132.153595,171.932239 131.785766,173.311891 131.021455,174.474576 C130.60945,175.017208 130.289523,175.624219 130.074545,176.271186 C129.918181,177.497838 129.918181,178.73945 130.074545,179.966102 C130.406895,182.252617 130.150793,184.586334 129.330545,186.745763 C127.842545,189.457627 123.48,190.745763 119.996727,191.79661 L118.102909,192.372881 C107.236129,196.232063 95.8122915,198.281775 84.2847273,198.440678 L84.4876364,198.305085 Z M15.0927273,123.118644 C12.9283636,125.762712 7.24690909,132.711864 7.21309091,134.915254 C7.21309091,135.898305 7.788,138.576271 11.8461818,145.355932 C22.9385455,163.898305 40.2872727,177.457627 66.4963636,188.033898 L69.4385455,189.288136 C72.2141524,190.679131 75.1756306,191.661018 78.2312727,192.20339 C81.0507621,192.503189 83.8843345,192.650295 86.7196364,192.644068 C98.0618306,192.712507 109.293012,190.403216 119.692364,185.864407 C118.79727,185.396669 118.057074,184.678273 117.561818,183.79661 C116.327296,181.657727 116.351514,179.014976 117.625024,176.899185 C118.898534,174.783394 121.219615,173.5297 123.682909,173.627119 L124.900364,173.627119 C124.952834,171.982335 124.628923,170.347343 123.953455,168.847458 C120.727425,169.53753 117.578042,170.548175 114.552,171.864407 C112.556727,172.644068 110.527636,173.457627 108.363273,174.135593 L106.266545,174.813559 C101.485052,176.671935 96.4399096,177.758867 91.3189091,178.033898 C90.3840383,178.087552 89.4468708,178.087552 88.512,178.033898 C81.5434518,176.426316 74.8989812,173.640719 68.8636364,169.79661 L65.7523636,168.101695 C42.6207273,155.627119 26.0498182,140.983051 15.0250909,123.084746 L15.0250909,123.084746 L15.0927273,123.118644 Z M95.8843636,52.2033898 C100.46577,52.0616944 105.038403,52.6919211 109.411636,54.0677966 C116.175273,56.5084746 119.962909,63.6271186 123.716727,70.4745763 L125.170909,73.1186441 L126.354545,75.1525424 C129.108111,79.143314 130.955125,83.690791 131.765455,88.4745763 C131.765455,95.0508475 125.678182,101.016949 121.62,104.983051 L120.740727,105.830508 L117.933818,108.474576 C114.998466,111.169642 112.210064,114.02123 109.580727,117.016949 C102.817091,125.084746 95.6476364,134.881356 94.7345455,146.305085 C94.0467048,150.924625 95.2680127,155.625559 98.1163636,159.322034 C100.001532,161.390893 102.694832,162.530208 105.488727,162.440678 C106.130332,162.489962 106.774759,162.489962 107.416364,162.440678 C110.719796,161.648638 113.605074,159.639889 115.498909,156.813559 C117.85142,153.815281 120.939104,151.479433 124.460727,150.033898 C125.550625,149.659848 126.690933,149.454106 127.842545,149.423729 C129.753862,149.497076 131.625081,149.994935 133.321091,150.881356 C134.654726,151.577455 136.116321,151.992747 137.616,152.101695 C140.422909,152.101695 142.012364,150.372881 144.007636,148.169492 C146.251974,144.902248 149.811119,142.783999 153.747273,142.372881 L154.288364,142.372881 C155.687003,142.421055 157.078803,142.591188 158.448,142.881356 C159.559725,143.130075 160.691603,143.277568 161.829818,143.322034 C162.832299,143.391887 163.823739,143.076783 164.602909,142.440678 C165.472173,141.235899 165.858394,139.747845 165.685091,138.271186 C165.655069,136.873118 165.403947,135.488677 164.941091,134.169492 C160.849091,140.542373 148.640727,142.372881 142.012364,142.372881 L140.794909,142.372881 C139.332118,142.308118 137.874959,142.149602 136.432364,141.898305 C134.769741,141.583813 133.084785,141.402449 131.393455,141.355932 C130.852953,141.320132 130.310683,141.320132 129.770182,141.355932 C124.731273,142.033898 122.059636,146 119.185091,150.237288 C116.310545,154.474576 113.165455,159.322034 107.179636,159.661017 L106.401818,159.661017 C104.223078,159.756724 102.08757,159.031108 100.416,157.627119 C99.0767422,156.292864 98.406304,154.426124 98.5898182,152.542373 C99.0632727,147.661017 105.353455,143.254237 108.498545,140.915254 L109.445455,140.237288 C116.70551,134.574013 124.917264,130.257507 133.693091,127.491525 C136.388019,126.774216 139.136159,126.275431 141.910909,126 C144.376984,125.772472 146.82016,125.341636 149.215636,124.711864 C151.9299,124.071502 154.185076,122.187737 155.302909,119.627119 C156.399891,116.709205 156.10073,113.448117 154.491273,110.779661 C152.315311,109.626949 149.88409,109.043939 147.423273,109.084746 L145.833818,108.915254 L144.176727,108.915254 C144.194948,109.004727 144.194948,109.096968 144.176727,109.186441 L143.500364,110.440678 L142.181455,109.898305 C138.454848,108.767494 135.568673,105.797675 134.538545,102.033898 C133.885111,98.8915475 134.750108,95.6244159 136.872,93.220339 C140.898228,89.0002414 146.435073,86.5606972 152.259273,86.440678 C151.035202,86.0341992 149.962412,85.2661052 149.181818,84.2372881 C147.239508,82.0559706 146.241901,79.1902014 146.408727,76.2711864 C147.310211,73.6151197 149.041594,71.3209502 151.346182,69.7288136 C153.104727,68.2033898 155.269091,66.3389831 155.201455,64.9830508 C154.893439,63.9089185 154.02414,63.0895808 152.935636,62.8474576 C152.23293,63.4698511 151.608345,64.175597 151.075636,64.9491525 C149.856265,66.5806736 148.727289,68.2781497 147.693818,70.0338983 C146.686811,71.8710401 145.556958,73.6377862 144.312,75.3220339 L142.857818,77.2881356 L141.674182,75.1864407 C135.214909,64.0338983 128.552727,52.5084746 112.455273,51.2542373 C111.001091,51.2542373 109.479273,51.0847458 107.957455,51.0847458 C103.596329,51.1047288 99.2473551,51.547468 94.9712727,52.4067797 L95.952,52.4067797 L95.8843636,52.2033898 Z M137.548364,134.237288 L137.548364,135.59322 C137.548364,136.067797 137.548364,136.610169 137.548364,137.050847 C139.070182,136.779661 139.848,135.694915 140.930182,134 C141.432634,133.110033 142.033911,132.279897 142.722545,131.525424 L143.804727,130.40678 L143.804727,130.40678 C143.336953,130.155808 142.813439,130.027535 142.282909,130.033898 C140.751193,130.218915 139.288107,130.777602 138.021818,131.661017 L137.480727,131.932203 L137.548364,134.237288 Z M130.006909,134.237288 C130.336858,134.855958 130.532767,135.53749 130.581818,136.237288 L130.581818,136.237288 C131.625718,135.856362 132.532424,135.171771 133.185818,134.271186 C133.773832,133.527033 134.511199,132.914954 135.350182,132.474576 L135.958909,132.237288 L135.485455,132.20339 C135.276212,132.138184 135.052152,132.138184 134.842909,132.20339 C133.689977,132.40861 132.594404,132.859437 131.630182,133.525424 L130.006909,134.40678 L130.006909,134.237288 Z M124.697455,136 C124.688798,136.078858 124.688798,136.15843 124.697455,136.237288 C125.265531,136.015546 125.783131,135.681191 126.219273,135.254237 C125.659631,135.35062 125.121479,135.545732 124.629818,135.830508 L124.697455,136 Z M151.346182,135.59322 L151.616727,135.59322 C153.645818,135.59322 155.404364,132.983051 156.554182,131.254237 L159.327273,132.813559 C159.276999,133.048172 159.276999,133.290811 159.327273,133.525424 C162.032727,133.084746 162.709091,130.610169 163.351636,125.661017 C163.127575,125.625488 162.899334,125.625488 162.675273,125.661017 C161.425472,125.735742 160.235873,126.224633 159.293455,127.050847 L158.414182,127.79661 L157.433455,127.220339 C157.129584,127.027308 156.778604,126.921765 156.418909,126.915254 C155.383298,127.110153 154.422735,127.591572 153.645818,128.305085 C153.114456,128.697919 152.561195,129.060088 151.988727,129.389831 L151.515273,129.627119 L151.887273,132 C152.103662,133.138962 151.986199,134.316373 151.549091,135.389831 C151.549091,135.389831 151.549091,135.694915 151.549091,135.864407 L151.346182,135.59322 Z M145.225091,131.932203 C145.894126,132.83621 146.163136,133.976086 145.969091,135.084746 C146.985767,134.476613 147.825381,133.611632 148.404,132.576271 C148.674545,132.20339 148.945091,131.79661 149.215636,131.457627 L150.636,129.59322 C150.242902,129.545315 149.845462,129.545315 149.452364,129.59322 C148.259033,129.675821 147.101239,130.035587 146.070545,130.644068 L145.394182,130.949153 L144.684,131.254237 L144.312,131.084746 L145.225091,131.932203 Z M20.7065455,120.372881 C20.8673338,121.528772 21.3609406,122.612567 22.1269091,123.491525 C23.2772357,122.501925 24.2895797,121.361764 25.1367273,120.101695 L23.7501818,120.101695 C22.7211006,120.084819 21.6952651,120.221921 20.7065455,120.508475 L20.7065455,120.372881 Z M162.032727,88.1355932 L162.235636,88.4745763 C164.41248,91.3874848 165.054624,95.1737541 163.960364,98.6440678 C163.175749,100.778241 162.031907,102.761776 160.578545,104.508475 C159.456165,105.702674 158.60274,107.124565 158.076,108.677966 C158.076,108.881356 158.414182,109.898305 158.617091,110.576271 C158.82,111.254237 159.090545,112.067797 159.259636,112.745763 L159.496364,113.830508 C160.274182,116.983051 161.119636,120.610169 163.250182,121.050847 C163.643151,121.100837 164.040849,121.100837 164.433818,121.050847 C169.844727,121.050847 174.579273,111.830508 174.985091,105.864407 C175.232106,100.547569 173.2878,95.3627273 169.608,91.5254237 C167.291179,89.6900359 164.521306,88.5185443 161.593091,88.1355932 L162.032727,88.3728814 L162.032727,88.1355932 Z M146.104364,103.457627 C145.279099,103.410974 144.501387,103.846995 144.109091,104.576271 C143.907508,105.088125 143.907508,105.657638 144.109091,106.169492 C144.128396,106.395066 144.128396,106.621883 144.109091,106.847458 L144.819273,106.305085 L145.394182,105.864407 C146.408727,105.152542 146.983636,104.677966 147.152727,103.864407 C146.780691,103.590759 146.328986,103.447778 145.867636,103.457627 L146.104364,103.457627 Z M80.9367273,79.220339 L83.4054545,79.8305085 C86.4035791,80.4412551 89.3365658,81.3379922 92.1643636,82.5084746 L93.2803636,83.0169492 L93.0774545,84.2033898 C91.5894545,93.1864407 93.6523636,103.898305 99.5705455,105.59322 C100.27054,105.81616 101.000432,105.930475 101.734909,105.932203 C106.706182,105.932203 109.851273,100.271186 112.590545,95.2881356 C113.266909,94.1016949 113.909455,92.9491525 114.518182,91.8983051 L114.518182,91.7288136 C106.76124,84.6648172 97.7891815,79.0712736 88.0385455,75.220339 C85.4564809,76.1663807 83.0289068,77.4915721 80.8352727,79.1525424 L80.9367273,79.220339 Z M153.916364,86.1355932 C154.890053,86.1723517 155.860981,86.2628845 156.824727,86.4067797 L156.824727,85.7627119 C156.824727,84.5762712 156.824727,83.4237288 156.824727,82.3728814 C156.283636,84.9152542 155.133818,85.7627119 154.085455,86.2033898 L153.916364,86.1355932 Z M154.356,77.7288136 C155.192886,77.9431657 155.946659,78.4035841 156.520364,79.0508475 C156.403776,78.0011889 156.223073,76.9596857 155.979273,75.9322034 C155.527984,76.606826 154.981164,77.2120363 154.356,77.7288136 L154.356,77.7288136 Z" id="Shape" fill="#000000" fill-rule="nonzero"></path>
                <path d="M122.938909,3.18644068 C123.377956,3.21050194 123.790385,3.40504619 124.088727,3.72881356 C124.562182,6.94915254 121.281818,9.08474576 119.523273,11.6271186 C114.754909,18.6101695 113.605091,29.8305085 114.653455,41.2542373 C123.040364,45.6610169 132.238909,49.0169492 140.524364,54.8135593 C143.906182,57.1186441 146.205818,59.9661017 150.297818,59.9661017 C151.445868,59.9565747 152.585934,59.7737319 153.679636,59.4237288 C157.704,61.0847458 157.061455,65.0508475 157.332,69.1864407 C157.737818,73.8983051 160.105091,79.1864407 159.766909,84.1355932 C165.639375,84.7205796 170.986108,87.7826246 174.47094,92.5565122 C177.955772,97.3303998 179.249468,103.365108 178.028727,109.152542 C177.038316,113.946008 174.59314,118.315128 171.028364,121.661017 C168.999273,123.525424 165.820364,124.610169 165.549818,128.644068 C168.931636,133.389831 171.772364,144.508475 165.245455,147.288136 C164.586338,147.534467 163.885627,147.649609 163.182545,147.627119 C162.134182,147.627119 161.052,147.627119 159.800727,147.627119 C159.339898,147.576987 158.875011,147.576987 158.414182,147.627119 C155.651362,148.86887 153.087194,150.513825 150.805091,152.508475 C143.331273,157.627119 135.045818,161.966102 127.369091,166.067797 C127.639636,168.033898 130.108364,168.440678 130.412727,170.644068 C130.717091,172.847458 129.06,173.79661 128.586545,175.830508 C128.011636,178.40678 129.296727,183.491525 127.977818,186 C126.658909,188.508475 120.639273,189.830508 117.697091,190.745763 C107.017761,194.492707 95.8014673,196.473375 84.4876364,196.610169 C82.6952727,196.610169 80.8690909,196.610169 79.0429091,196.440678 C73.6976519,195.654249 68.5404437,193.896644 63.8247273,191.254237 C40.4901818,180.881356 21.2476364,168.20339 8.12618182,146.372881 C5.31927273,141.762712 1.90363636,135.966102 4.47381818,131.762712 C5.1054221,131.034019 5.61894983,130.210428 5.99563636,129.322034 C6.87490909,125.932203 5.556,123.627119 7.82181818,122 C8.90519917,121.355096 10.1467616,121.026359 11.4065455,121.050847 L11.7109091,121.050847 C13.8414545,119.457627 13.9090909,116.542373 16.8850909,115.288136 C18.4754876,114.707764 20.1661403,114.454141 21.8563636,114.542373 C25.0014545,114.542373 28.62,115.152542 31.4269091,115.389831 C36.2629091,111.627119 43.8043636,108.135593 44.9541818,100.711864 C45.7996364,94.6779661 43.872,87.9322034 44.0410909,81.5254237 C44.6016569,69.4865752 46.3346203,57.5314518 49.2152727,45.8305085 C50.2297075,39.5733442 52.1792418,33.5051841 54.9981818,27.8305085 C59.2592727,20.8135593 66.6654545,15.0847458 72.9556364,10.1694915 C74.8541275,8.18987158 77.3497452,6.89145822 80.0574545,6.47457627 L80.2603636,6.47457627 C80.4632727,13.5254237 73.9701818,20.0338983 73.26,27.8644068 C72.4145455,36.9830508 75.8301818,45.3559322 77.8254545,53.1864407 C81.2072727,52.440678 84.3185455,51.559322 87.5650909,50.7457627 C89.7632727,45.7966102 91.5556364,40.5762712 93.6523636,35.4915254 C95.4274264,30.5433356 97.7770262,25.8216249 100.652727,21.4237288 C103.776442,18.021666 107.244537,14.9543319 111.001091,12.2711864 C114.306547,9.12911541 117.870041,6.27156648 121.653818,3.72881356 C122.019228,3.42458388 122.466453,3.23583254 122.938909,3.18644068 L122.938909,3.18644068 Z M83.6421818,54.2372881 C87.6665455,54.2372881 91.8261818,53.9661017 95.8843636,53.9661017 C100.284504,53.8010483 104.679518,54.4090889 108.870545,55.7627119 C115.870909,58.3050847 119.76,66.8813559 123.784364,74.0677966 C126.286909,78.5423729 130.074545,84.2372881 130.176,88.7118644 C130.176,95.0169492 123.412364,101.220339 119.523273,104.881356 C115.57757,108.434773 111.818687,112.191247 108.261818,116.135593 C101.667273,124 94.0581818,134.20339 93.0436364,146.338983 C92.2996364,155.694915 96.4254545,164.20339 105.522545,164.20339 C106.232727,164.20339 106.909091,164.20339 107.653091,164.20339 C115.194545,163.186441 117.392727,154.237288 125.001818,151.661017 C125.983378,151.332159 127.010547,151.160558 128.045455,151.152542 C131.799273,151.152542 133.963636,153.762712 137.785091,153.830508 L137.785091,153.830508 C144.548727,153.830508 145.8,144.779661 153.781091,144.338983 L154.254545,144.338983 C156.757091,144.338983 159.462545,145.288136 161.863636,145.288136 C163.237229,145.352136 164.58603,144.905494 165.651273,144.033898 C168.424364,141.728814 167.443636,133.322034 164.738182,131.220339 C163.148727,138.271186 150.771273,141.016949 141.877091,141.016949 L140.693455,141.016949 C137.852727,141.016949 134.504727,139.966102 131.258182,139.966102 C130.650496,139.915635 130.039686,139.915635 129.432,139.966102 C118.069091,141.457627 117.358909,157.491525 106.909091,158.271186 L106.401818,158.271186 C104.653151,158.36687 102.930874,157.811538 101.565818,156.711864 C96.2901818,151.084746 107.213455,144.135593 110.392364,141.79661 C117.471076,136.237866 125.489686,132.000898 134.065091,129.288136 C139.239273,127.762712 144.616364,127.932203 149.587636,126.542373 C156.655636,124.508475 159.733091,117.389831 155.674909,110.067797 C153.578182,108.101695 149.587636,108 145.935273,107.627119 C147.321818,106.542373 148.945091,105.762712 148.978909,103.322034 C148.276407,102.409727 147.186348,101.882245 146.036727,101.898305 C144.606618,101.878608 143.291883,102.682497 142.654909,103.966102 C141.809455,105.864407 143.398909,107.355932 142.654909,108.508475 C139.347327,107.633566 136.764114,105.044232 135.891273,101.728814 C134.234182,93.5254237 144.312,87.8644068 153.307636,87.8644068 C155.918405,87.7993215 158.506036,88.3692513 160.849091,89.5254237 C162.764304,92.0367971 163.332674,95.3284915 162.370909,98.3389831 C161.254909,102.101695 156.520364,105.864407 156.283636,108.745763 C156.613044,110.279432 157.019378,111.795481 157.501091,113.288136 C158.448,117.050847 159.293455,121.966102 162.675273,122.779661 C163.192707,122.827775 163.713474,122.827775 164.230909,122.779661 C170.994545,122.779661 175.932,112.372881 176.371636,106.135593 C176.740736,100.302536 174.669891,94.5788664 170.656364,90.3389831 C167.111633,87.6952889 162.88834,86.1195608 158.481818,85.7966102 C158.278909,79.2881356 157.839273,72.9830508 154.525091,69.6271186 C153.442909,70.5762712 154.694182,73.0169492 154.829455,74.5084746 C154.322182,76.3728814 151.447636,77.220339 151.785818,79.0847458 L152.293091,79.0847458 C153.474255,78.9754376 154.638292,79.4271002 155.438182,80.3050847 C155.201455,83.6949153 154.220727,84.8135593 153.037091,84.8135593 C150.636,84.8135593 147.321818,79.559322 147.829091,76.3728814 C148.471636,72.4067797 156.790909,68.6440678 156.655636,64.779661 C156.346727,62.7808375 154.738494,61.2382793 152.732727,61.0169492 L152.394545,61.0169492 C151.650545,61.0169492 150.094909,63.1186441 149.655273,63.7627119 C146.577818,68 145.935273,70.1016949 142.891636,74.1355932 C136.364727,62.8474576 129.364364,50.7118644 112.455273,49.4237288 C110.899636,49.4237288 109.344,49.220339 107.822182,49.220339 C99.029082,49.4836059 90.3371623,51.1780236 82.0865455,54.2372881 L83.6421818,54.2372881 L83.6421818,54.2372881 Z M101.734909,107.694915 C109.005818,107.694915 112.624364,98.1355932 115.870909,92.9830508 C117.054545,93.4915254 118.407273,93.8983051 119.523273,94.5084746 C110.694621,85.4003317 99.9984605,78.3220585 88.1738182,73.7627119 C84.2592843,75.030312 80.7088273,77.2284369 77.8254545,80.1694915 C82.4627271,81.2282512 87.0356747,82.5524549 91.5218182,84.1355932 C89.9661818,93.559322 92.1305455,105.288136 99.1309091,107.322034 C99.9799215,107.555068 100.854762,107.680341 101.734909,107.694915 L101.734909,107.694915 Z M21.8563636,125.762712 C24.2734364,123.973223 26.2512735,121.654482 27.6392727,118.983051 C26.4102674,118.508365 25.1008111,118.278092 23.784,118.305085 C22.1712483,118.241479 20.5678842,118.579216 19.1170909,119.288136 C19.1589575,121.720531 20.1410007,124.0417 21.8563636,125.762712 L21.8563636,125.762712 Z M86.8210909,194.237288 C100.482951,194.347741 113.944186,190.939442 125.914909,184.338983 C124.944738,184.671169 123.92994,184.854037 122.905091,184.881356 C116.141455,184.881356 117.392727,175.254237 123.750545,175.254237 C124.701314,175.252408 125.643295,175.436644 126.523636,175.79661 C127.010713,172.820216 126.358476,169.769234 124.697455,167.254237 C119.049818,167.966102 113.875636,170.847458 107.957455,172.745763 C102.652902,174.830246 97.0677996,176.109865 91.3865455,176.542373 C90.5193057,176.593873 89.6497852,176.593873 88.7825455,176.542373 C81.7483636,175.59322 73.1585455,170.305085 66.564,166.745763 C44.9541818,154.983051 27.1658182,140.474576 15.4309091,120.271186 C13.3341818,122.983051 5.72509091,131.59322 5.69127273,134.915254 C6.55262086,138.953672 8.20812522,142.779573 10.5610909,146.169492 C23.0738182,167.084746 42.7221818,180.067797 65.9552727,189.491525 C69.8155605,191.436701 73.9063819,192.883271 78.1298182,193.79661 C81.017307,194.094714 83.9183306,194.241806 86.8210909,194.237288 L86.8210909,194.237288 Z M158.177455,125.762712 C157.633139,125.410281 156.999268,125.222022 156.351273,125.220339 C154.356,125.220339 152.698909,127.050847 151.177091,127.898305 C150.55171,127.707756 149.902982,127.605083 149.249455,127.59322 C147.562185,127.717425 145.928197,128.240146 144.481091,129.118644 C143.800596,128.768472 143.04781,128.582732 142.282909,128.576271 C140.122607,128.87765 138.061802,129.678394 136.263273,130.915254 C135.82427,130.688418 135.33679,130.572076 134.842909,130.576271 C132.78,130.576271 130.514182,132.576271 128.349818,133.389831 C126.185455,134.20339 122.668364,134.169492 123.175636,136.779661 C123.378545,137.830508 123.953455,138.20339 124.596,138.20339 C126.297939,137.826389 127.767518,136.75842 128.654182,135.254237 C129.161455,136.067797 128.857091,137.694915 129.567273,138.305085 L129.871636,138.305085 C133.253455,138.305085 134.437091,134.915254 135.958909,134.338983 C135.81447,135.893395 135.917204,137.460938 136.263273,138.983051 L136.601455,138.983051 C141.065455,138.983051 141.708,135.152542 143.872364,132.881356 C144.616364,133.661017 143.872364,136.067797 144.481091,136.847458 C147.862909,136.610169 148.776,134.20339 150.264,132.271186 C150.602182,134.305085 149.486182,134.949153 149.655273,136.847458 C150.272028,137.127613 150.93968,137.277614 151.616727,137.288136 C154.491273,137.288136 156.520364,134.271186 157.873091,132.271186 C157.467273,133.186441 157.399636,134.779661 158.177455,135.322034 C163.825091,135.322034 164.230909,130 164.941091,124.949153 C164.295136,124.359994 163.446842,124.044167 162.573818,124.067797 C160.969703,124.158613 159.443712,124.791966 158.245091,125.864407 L158.177455,125.762712 Z M119.218909,181.59322 C119.895273,178.711864 122.600727,177.932203 125.306182,176.983051 C124.840697,176.872602 124.364162,176.815738 123.885818,176.813559 C121.146545,176.813559 118.339636,178.813559 119.218909,181.59322 L119.218909,181.59322 Z M122.938909,7.52707358e-16 L122.938909,7.52707358e-16 C121.94979,0.0237843772 120.987895,0.329498231 120.165818,0.881355932 L120.165818,0.881355932 C117.088819,2.86980332 114.201969,5.13936401 111.542182,7.66101695 L109.073455,9.79661017 C108.126545,10.6101695 107.078182,11.4237288 105.996,12.3050847 C103.121286,14.3490598 100.518777,16.7526862 98.2516364,19.4576271 C95.4857233,23.5821372 93.2154539,28.0196511 91.488,32.6779661 L90.8792727,34.1694915 C89.8985455,36.4745763 88.9854545,38.8135593 88.14,41.1186441 C87.2945455,43.4237288 86.3476364,45.7288136 85.4007273,47.8983051 L84.2509091,48.2033898 C82.932,48.5423729 81.5792727,48.9152542 80.2265455,49.220339 C79.9898182,48.4745763 79.7869091,47.7627119 79.584,47.0169492 C77.3899357,40.9250528 76.3574744,34.4741293 76.5403636,28 C77.1128921,24.6856772 78.2572858,21.4967251 79.9221818,18.5762712 C82.1164871,14.8297548 83.3806909,10.6096335 83.6083636,6.27118644 L83.6083636,3.28813559 L80.3618182,3.38983051 L80.0574545,3.38983051 C76.8374711,3.66879652 73.8136641,5.05849081 71.5014545,7.3220339 L70.9941818,7.72881356 L70.1825455,8.37288136 C63.2417255,13.2286256 57.1895358,19.2492827 52.2927273,26.1694915 C49.2830215,32.1437537 47.2071556,38.5461663 46.1378182,45.1525424 C43.2241723,57.0226517 41.4574757,69.1463849 40.8621818,81.3559322 C40.8589278,84.3382262 41.0623263,87.3171457 41.4709091,90.2711864 C41.979999,93.5677898 42.0935341,96.9136299 41.8090909,100.237288 C41.2003636,104.745763 37.0069091,107.627119 32.9825455,110.40678 L30.6490909,112.033898 L28.62,111.864407 C26.3767067,111.568344 24.1186177,111.398586 21.8563636,111.355932 C19.719745,111.297586 17.5929271,111.666339 15.6,112.440678 C13.5345904,113.378171 11.8601935,115.008582 10.8654545,117.050847 L10.2905455,118.033898 C8.70017932,118.142269 7.16370719,118.65564 5.82654545,119.525424 C3.82671546,121.041579 2.77271959,123.502435 3.05345455,126 C3.08087463,126.878296 2.98987087,127.756282 2.78290909,128.610169 C2.63541429,128.862198 2.46564178,129.100442 2.27563636,129.322034 C2.03473529,129.595278 1.81963252,129.890327 1.63309091,130.20339 C-1.81636364,136.101695 2.37709091,143.050847 5.42072727,148.135593 C17.3923636,168.033898 34.4705455,181.79661 62.4381818,194.237288 L65.1774545,195.491525 C69.3727817,197.756693 73.9668014,199.184213 78.7047273,199.694915 C80.5647273,199.694915 82.4585455,199.898305 84.3523636,199.898305 C96.0200625,199.730335 107.581373,197.6462 118.576364,193.728814 L120.402545,193.186441 C124.190182,192.067797 128.890909,190.677966 130.548,187.389831 C131.666861,184.978533 132.077422,182.297684 131.731636,179.661017 C131.621719,178.533759 131.621719,177.398444 131.731636,176.271186 C131.899305,175.771135 132.126392,175.293123 132.408,174.847458 C133.345638,173.402003 133.774176,171.68379 133.625455,169.966102 C133.48313,168.794844 132.987606,167.695014 132.205091,166.813559 L133.354909,166.169492 C139.814182,162.779661 146.476364,158.949153 152.665091,154.711864 L154.795636,153.152542 C156.117289,152.029981 157.570998,151.073724 159.124364,150.305085 L159.868364,150.305085 L161.254909,150.305085 C161.874373,150.341634 162.495445,150.341634 163.114909,150.305085 C164.271966,150.335881 165.423008,150.128202 166.496727,149.694915 C169.224846,148.548803 171.246316,146.170149 171.941455,143.288136 C172.944779,137.819703 171.871157,132.172859 168.931636,127.457627 C169.269818,126.542373 170.013818,125.932203 171.332727,124.983051 C171.941455,124.508475 172.584,124.033898 173.226545,123.491525 C177.314046,119.668507 180.094966,114.650992 181.173818,109.152542 C182.497481,102.64457 181.090984,95.8773854 177.284727,90.440678 C173.688297,85.8028934 168.574666,82.5857975 162.844364,81.3559322 C162.577907,78.9875557 162.137069,76.6421757 161.525455,74.3389831 C161.053202,72.5015289 160.714136,70.6322466 160.510909,68.7457627 L160.510909,66.6779661 C160.510909,63.2881356 160.206545,58.440678 155.032364,56.3050847 L153.747273,55.8644068 L152.665091,56.2033898 C151.888391,56.4539527 151.079708,56.5909554 150.264,56.6101695 C148.159077,56.3817406 146.204487,55.4081398 144.751636,53.8644068 C143.973818,53.2542373 143.162182,52.6440678 142.282909,52.0338983 C136.775323,48.4668377 130.984129,45.3603016 124.968,42.7457627 C122.431636,41.559322 119.996727,40.440678 117.629455,39.3559322 C116.817818,28.1016949 118.373455,19.0169492 122.093455,13.5932203 C122.566997,12.9556515 123.075031,12.3445663 123.615273,11.7627119 C126.073026,9.70125219 127.414601,6.59700792 127.233818,3.38983051 L127.233818,2.23728814 L126.185455,1.3220339 C125.27028,0.460963312 124.058757,-0.012650066 122.803636,7.52707358e-16 L122.938909,7.52707358e-16 Z M97.0341818,154.237288 C96.2732213,151.713516 96.0090473,149.065517 96.2563636,146.440678 C97.1694545,135.457627 104.102182,125.932203 110.764364,118.033898 C113.348363,115.083259 116.091749,112.276791 118.982182,109.627119 L121.789091,106.983051 L122.668364,106.135593 C126.963273,101.966102 133.456364,95.6949153 133.456364,88.440678 C132.662685,83.3722863 130.731628,78.5505897 127.808727,74.3389831 L126.692727,72.3389831 L125.238545,69.6949153 C121.552364,62.9152542 117.358909,55.2542373 110.088,52.7457627 L109.851273,52.7457627 L112.421455,52.7457627 C127.673455,53.9322034 134.132727,65.0847458 140.355273,75.8983051 L142.756364,80.0677966 L144.751636,77.3898305 C145.001474,80.278529 146.189438,83.0054125 148.133455,85.1525424 L148.133455,85.1525424 C143.330527,86.0199413 138.952132,88.4647719 135.688364,92.1016949 C133.296513,94.9049736 132.323773,98.6551447 133.050545,102.271186 C133.689945,105.307001 135.56577,107.93692 138.224727,109.525424 L137.954182,109.728814 L138.664364,109.728814 C139.621194,110.283743 140.615627,110.770811 141.640364,111.186441 L144.244364,112.271186 L145.292727,110.440678 L145.867636,110.440678 L147.457091,110.440678 C149.508265,110.492933 151.534333,110.905991 153.442909,111.661017 C154.67479,113.96998 154.786883,116.716536 153.747273,119.118644 C152.798923,121.212968 150.939562,122.751513 148.708364,123.288136 C146.38508,123.873988 144.023097,124.293128 141.640364,124.542373 C138.776469,124.817162 135.938376,125.315855 133.152,126.033898 C124.237413,128.861031 115.891297,133.244803 108.498545,138.983051 L107.585455,139.661017 C104.203636,142.169492 97.44,146.847458 97.0003636,152.40678 C96.9494655,152.993243 96.9494655,153.583028 97.0003636,154.169492 L97.0341818,154.237288 Z M150.737455,67.7966102 C151.177091,67.1525424 151.650545,66.440678 152.225455,65.6610169 C152.506861,65.259111 152.811758,64.874257 153.138545,64.5084746 C153.257929,64.6038993 153.360768,64.7184353 153.442909,64.8474576 C152.702282,65.9676757 151.789125,66.9630869 150.737455,67.7966102 L150.737455,67.7966102 Z M84.8596364,78.5423729 C85.9521571,77.9499906 87.0817922,77.4291273 88.2414545,76.9830508 C97.1796748,80.612778 105.445157,85.7236203 112.692,92.1016949 L111.305455,94.5084746 C108.769091,99.1186441 105.894545,104.338983 101.836364,104.338983 C101.250555,104.343367 100.667969,104.251764 100.111636,104.067797 C95.2756364,102.677966 93.348,92.6440678 94.7683636,84.4745763 L95.1741818,82.0677966 L92.9421818,81.0508475 C90.3585692,79.986646 87.6883452,79.1473887 84.9610909,78.5423729 L84.8596364,78.5423729 Z M159.665455,108.745763 C160.272323,107.617753 160.985775,106.550717 161.796,105.559322 C163.426799,103.690539 164.709688,101.543497 165.583636,99.220339 C166.474826,96.4098892 166.355163,93.3752433 165.245455,90.6440678 C166.488571,91.1372229 167.633825,91.8489627 168.627273,92.7457627 C171.93175,96.3384069 173.64029,101.121419 173.361818,106 C172.941906,109.279043 171.78564,112.419948 169.98,115.186441 C168.187636,118.067797 166.090909,119.694915 164.264727,119.694915 L163.453091,119.694915 C162.269455,119.423729 161.356364,115.661017 160.882909,113.661017 C160.882909,113.288136 160.882909,112.915254 160.612364,112.576271 C160.341818,112.237288 160.206545,111.084746 159.969818,110.338983 L159.530182,108.847458 L159.665455,108.745763 Z M8.87018182,134.983051 C10.4281382,131.589623 12.5301532,128.474935 15.0927273,125.762712 C26.1174545,142.949153 42.5192727,157.288136 65.076,169.491525 L68.1534545,171.186441 C74.3685095,175.168252 81.2383699,178.014522 88.4443636,179.59322 C89.4416165,179.731879 90.4473858,179.799844 91.4541818,179.79661 C96.7500666,179.477194 101.964097,178.333565 106.909091,176.40678 L109.005818,175.728814 C111.170182,175.016949 113.266909,174.20339 115.262182,173.423729 C117.802941,172.325163 120.426392,171.429716 123.108,170.745763 C123.209238,171.170715 123.288254,171.60068 123.344727,172.033898 C118.821663,172.269775 115.287467,176.036557 115.329818,180.576271 C115.293193,182.268979 115.84293,183.922099 116.885455,185.254237 C107.340187,189.063543 97.1626755,191.03026 86.8887273,191.050847 C84.0977758,191.046742 81.3091754,190.888309 78.5356364,190.576271 C75.6456442,190.047618 72.8447997,189.111791 70.2163636,187.79661 L67.1389091,186.440678 C41.3018182,176.271186 24.1898182,162.711864 13.3003636,144.542373 C9.20836364,137.762712 8.87018182,135.457627 8.87018182,134.983051 L8.87018182,134.983051 Z M158.549455,129.627119 L160.274182,128.135593 C160.594678,127.867503 160.94676,127.639816 161.322545,127.457627 C160.68,131.355932 159.936,132 158.211273,132.033898 L155.235273,130.372881 C154.716787,131.192801 154.140404,131.97446 153.510545,132.711864 C153.510545,132.40678 153.510545,132.033898 153.510545,131.661017 L153.307636,130.372881 L154.592727,129.491525 C155.148939,129.029793 155.777391,128.663282 156.452727,128.40678 L156.689455,128.40678 L158.549455,129.627119 Z M139.104,133.016949 C139.427649,132.810078 139.766853,132.628741 140.118545,132.474576 C139.915636,132.745763 139.746545,133.016949 139.577455,133.288136 L139.137818,134 L139.104,133.016949 Z M157.873091,141.220339 C160.178119,140.387853 162.327286,139.173217 164.230909,137.627119 L164.230909,137.898305 C164.415365,139.053644 164.238147,140.23789 163.723636,141.288136 C163.231151,141.663061 162.613337,141.833059 161.998909,141.762712 C160.930231,141.711339 159.86728,141.575321 158.82,141.355932 L157.873091,141.186441 L157.873091,141.220339 Z M121.721455,149.322034 C123.428419,146.06391 126.486878,143.730498 130.074545,142.949153 C130.547318,142.913122 131.022137,142.913122 131.494909,142.949153 C133.105498,143.006321 134.710133,143.176227 136.297091,143.457627 C137.794752,143.727416 139.308623,143.897281 140.828727,143.966102 L142.113818,143.966102 C143.466545,143.966102 144.954545,143.966102 146.510182,143.762712 C145.288078,144.793423 144.156639,145.927543 143.128364,147.152542 C141.065455,149.355932 139.746545,150.542373 137.988,150.542373 L137.988,150.542373 C136.632282,150.347857 135.331274,149.874692 134.166545,149.152542 C132.269902,148.171456 130.178683,147.627145 128.045455,147.559322 C126.663061,147.573306 125.292249,147.813766 123.987273,148.271186 C123.207622,148.525593 122.44986,148.84302 121.721455,149.220339 L121.721455,149.322034 Z" id="Shape" fill="#FFFFFF" fill-rule="nonzero"></path>
                <path d="M142.959273,74.1694915 C145.935273,70.1694915 146.577818,68.0677966 149.722909,63.7966102 C150.162545,63.1864407 151.718182,61.1864407 152.462182,61.0508475 C154.575947,61.0855336 156.365794,62.6233229 156.723273,64.7118644 C156.723273,68.6101695 148.539273,72.3728814 147.896727,76.3050847 C147.118909,81.0847458 154.660364,90.3050847 155.505818,80.2711864 C154.563937,79.2850725 153.19723,78.828424 151.853455,79.0508475 C151.38,77.220339 154.389818,76.3728814 154.897091,74.4745763 C154.897091,72.8813559 153.510545,70.5762712 154.592727,69.5932203 C157.974545,72.9830508 158.346545,79.2542373 158.549455,85.7627119 C162.935582,86.110027 167.133568,87.696817 170.656364,90.3389831 C174.715942,94.5816472 176.813792,100.336736 176.439273,106.20339 C175.965818,112.983051 170.182909,124.474576 162.742909,122.677966 C159.361091,121.898305 158.515636,116.983051 157.568727,113.220339 C157.085971,111.716532 156.67963,110.189145 156.351273,108.644068 C156.588,105.79661 161.322545,102.033898 162.438545,98.2711864 C163.394447,95.2492861 162.826999,91.9502904 160.916727,89.4237288 C151.549091,84.5762712 133.862182,90.9830508 135.958909,101.627119 C136.838086,104.938882 139.41861,107.52552 142.722545,108.40678 C143.466545,107.118644 141.877091,105.762712 142.722545,103.830508 C143.332086,102.690202 144.470438,101.931264 145.755244,101.808612 C147.04005,101.685959 148.300859,102.215864 149.114182,103.220339 C149.114182,105.661017 147.457091,106.440678 146.070545,107.491525 C149.722909,107.898305 153.713455,108 155.810182,109.932203 C159.834545,117.254237 156.790909,124.40678 149.722909,126.40678 C144.751636,127.830508 139.374545,127.661017 134.200364,129.152542 C125.636428,131.892786 117.622487,136.127287 110.527636,141.661017 C107.348727,144.033898 96.4254545,150.983051 101.701091,156.610169 C103.255451,157.822294 105.224278,158.370486 107.179636,158.135593 C117.629455,157.389831 118.339636,141.186441 129.702545,139.830508 C133.474132,139.847853 137.238892,140.153828 140.964,140.745763 C149.892,141.016949 163.351636,138.338983 165.008727,130.983051 C167.714182,133.084746 168.694909,141.491525 165.921818,143.79661 C163.148727,146.101695 158.076,143.79661 154.051636,144.101695 C146.036727,144.542373 144.988364,153.694915 137.920364,153.559322 C133.152,153.559322 130.987636,149.457627 125.137091,151.423729 C117.528,154 115.329818,162.915254 107.788364,163.932203 C97.2709091,165.355932 92.3672727,156.271186 93.1789091,146.237288 C94.1934545,134.101695 101.802545,123.898305 108.397091,116.033898 C111.981818,111.830508 115.938545,108.338983 119.658545,104.745763 C123.378545,101.152542 130.345091,94.9152542 130.074545,88.5084746 C130.074545,84.2033898 126.185455,78.3389831 123.682909,73.8644068 C119.658545,66.7118644 115.769455,58.1355932 108.769091,55.559322 C100.889455,52.7118644 90.9807273,54.2372881 81.9850909,54.0338983 C91.7217964,50.4782694 102.072509,48.9219841 112.421455,49.4576271 C129.330545,50.779661 136.330909,63.0169492 142.857818,74.1694915 M135.857455,91.1186441 C137.175938,89.8249477 138.724441,88.7901667 140.422909,88.0677966 C142.249091,87.2881356 144.481091,87.2881356 145.901455,85.9322034 C141.437455,83.7966102 134.606182,87.559322 135.756,91.1186441" id="Shape" fill="#FFFFFF"></path>
                <path d="M119.523273,94.3389831 C118.407273,93.7288136 117.054545,93.3220339 115.870909,92.8135593 C112.252364,98.5762712 108.194182,109.762712 99.1309091,107.152542 C92.1305455,105.118644 89.9661818,93.3898305 91.5218182,83.9661017 C87.0356747,82.3829633 82.4627271,81.0587597 77.8254545,80 C80.7159706,77.0601702 84.2632294,74.8524055 88.1738182,73.559322 C99.9956149,78.1401183 110.689701,85.2285824 119.523273,94.3389831 M100.044,86.3728814 C97.9472727,86.7457627 96.2225455,90.2711864 96.0872727,93.3898305 C95.7829091,101.016949 104.778545,104.20339 108.261818,97.6949153 C107.450182,95.8644068 104.88,95.7627119 104.000727,94 C105.860727,93.0847458 108.025091,93.5932203 109.783636,93.0847458 C110.324727,92.5423729 110.020364,91.0847458 110.088,90.0677966 C106.503273,89.5254237 103.053818,85.8644068 99.9425455,86.3728814" id="Shape" fill="#FFFFFF"></path>
                <path d="M146.002909,86.0677966 C144.582545,87.4237288 142.350545,87.4237288 140.524364,88.2033898 C138.825896,88.9257599 137.277393,89.9605409 135.958909,91.2542373 C134.741455,87.6949153 141.538909,83.9322034 146.104364,86.0677966" id="Shape" fill="#000000" fill-rule="nonzero"></path>
                <path d="M27.6054545,119.050847 C26.2286256,121.700919 24.2614248,123.997558 21.8563636,125.762712 C20.1570172,124.058514 19.1762852,121.764718 19.1170909,119.355932 C21.8153573,118.169899 24.8634722,118.06078 27.6392727,119.050847" id="Shape" fill="#8A6E4B"></path>
                <path d="M124.697455,167.254237 C126.415339,169.733958 127.1286,172.77553 126.692727,175.762712 C116.986909,172.169492 115.093091,187.932203 126.084,184.305085 C111.506229,192.313316 94.8217603,195.627343 78.2989091,193.79661 C73.9711096,192.908302 69.7764987,191.461208 65.82,189.491525 C42.7221818,180.101695 23.0738182,167.050847 10.5610909,146.169492 C8.20162436,142.770758 6.54573568,138.932443 5.69127273,134.881356 C5.69127273,131.491525 13.3341818,122.983051 15.4309091,120.237288 C27.1658182,140.576271 44.9541818,154.983051 66.564,166.610169 C73.3276364,170.169492 81.7483636,175.457627 88.7825455,176.372881 C95.2756364,177.254237 102.309818,174.542373 107.957455,172.711864 C113.605091,170.881356 119.049818,167.966102 124.697455,167.254237 M9.34363636,137.627119 C9.34363636,143.79661 19.4890909,147.084746 20.6050909,140.711864 C21.0626027,138.441025 20.3316472,136.093228 18.6668376,134.48628 C17.0020279,132.879331 14.6338741,132.23573 12.3872727,132.779661 C10.3561963,133.469979 9.08600999,135.492946 9.34363636,137.627119 M26.2527273,152.576271 C23.9530909,159.118644 35.9585455,165.762712 37.8185455,158.372881 C38.456694,155.989921 37.7529302,153.447586 35.9810426,151.734932 C34.209155,150.022278 31.6489222,149.409731 29.2963636,150.135593 C27.9851717,150.485162 26.8807864,151.370763 26.2527273,152.576271 M45.4276364,170.271186 C44.3454545,176.135593 52.8676364,180.915254 56.9934545,175.457627 C59.4283636,166.983051 46.6450909,163.830508 45.4276364,170.271186 M69.2018182,184.305085 C69.4723636,191.355932 80.9367273,192.169492 81.3763636,185.830508 C81.3915326,183.758702 80.4114557,181.80608 78.7427292,180.583478 C77.0740027,179.360877 74.9204025,179.017593 72.9556364,179.661017 C71.8092459,179.691497 70.7335641,180.223272 70.0116294,181.11642 C69.2896948,182.009567 68.9938058,183.174642 69.2018182,184.305085 M95.3770909,186.745763 C96.5945455,192.338983 108.329455,191.322034 107.551636,184.305085 C107.314909,182 105.454909,180.440678 102.377455,180.338983 C98.0149091,180.338983 94.3287273,181.864407 95.3770909,186.745763" id="Shape" fill="#8A6E4B"></path>
                <path d="M164.873455,124.813559 C164.230909,129.898305 163.825091,135.186441 158.109818,135.186441 C157.332,134.677966 157.399636,133.084746 157.805455,132.135593 C156.182182,134.576271 153.510545,138.542373 149.587636,136.711864 C149.587636,134.847458 150.534545,134.20339 150.196364,132.135593 C148.708364,134.101695 147.66,136.508475 144.413455,136.711864 C143.669455,135.966102 144.413455,133.525424 143.804727,132.745763 C141.572727,135.118644 140.964,139.050847 136.195636,138.847458 C135.875927,137.344535 135.773424,135.803348 135.891273,134.271186 C134.335636,134.949153 132.949091,138.474576 129.499636,138.237288 C128.789455,137.661017 129.093818,136.033898 128.586545,135.186441 C127.741091,136.847458 123.784364,140.067797 123.108,136.711864 C122.600727,134.169492 125.678182,134.338983 128.282182,133.322034 C130.886182,132.305085 133.726909,129.525424 136.195636,130.881356 C138.765818,129.525424 141.437455,127.491525 144.413455,129.050847 C146.408006,127.737468 148.850834,127.296717 151.177091,127.830508 C153.172364,126.779661 155.302909,124.033898 158.177455,125.694915 C159.665455,124.40678 162.844364,122.949153 164.941091,124.779661" id="Shape" fill="#FFFFFF"></path>
                <path d="M12.3872727,132.779661 C14.6338741,132.23573 17.0020279,132.879331 18.6668376,134.48628 C20.3316472,136.093228 21.0626027,138.441025 20.6050909,140.711864 C19.3538182,147.084746 9.47890909,143.79661 9.34363636,137.661017 C9.08241025,135.517946 10.3509999,133.483393 12.3872727,132.779661 M18.1701818,141.59322 C21.2814545,138.915254 17.4938182,133.898305 13.9090909,133.966102 C15.7352727,136.135593 18.6098182,137.355932 18.1701818,141.59322" id="Shape" fill="#000000" fill-rule="nonzero"></path>
                <path d="M13.9090909,133.966102 C17.4938182,133.966102 21.2814545,138.915254 18.1701818,141.59322 C18.6098182,137.220339 15.7352727,136.135593 13.9090909,133.966102" id="Shape" fill="#FFFFFF"></path>
                <path d="M29.1272727,150.169492 C31.4798313,149.443629 34.0400641,150.056176 35.8119517,151.76883 C37.5838393,153.481484 38.2876031,156.02382 37.6494545,158.40678 C35.8232727,165.762712 23.784,159.118644 26.0836364,152.610169 C26.6908143,151.387603 27.8040615,150.494896 29.1272727,150.169492 M30.3447273,151.966102 C33.0501818,153.152542 35.6203636,154.40678 35.5189091,158.40678 C38.4272727,155.423729 32.9487273,150.40678 30.3447273,151.966102" id="Shape" fill="#000000" fill-rule="nonzero"></path>
                <path d="M35.3836364,158.40678 C35.3836364,154.40678 32.9149091,153.152542 30.2094545,152 C32.8134545,150.40678 38.292,155.389831 35.3836364,158.40678" id="Shape" fill="#FFFFFF"></path>
                <path d="M56.8243636,175.457627 C52.6985455,180.915254 44.1763636,176.135593 45.2585455,170.271186 C46.476,163.830508 59.2592727,166.881356 56.8243636,175.457627 M48.6065455,169.050847 C51.7747887,168.95084 54.639261,170.929124 55.6745455,173.932203 C56.8243636,170.372881 51.7516364,167.457627 48.6741818,169.050847" id="Shape" fill="#000000" fill-rule="nonzero"></path>
                <path d="M55.6745455,173.932203 C54.6467883,170.953497 51.8177787,168.980828 48.6741818,169.050847 C51.7516364,167.457627 56.8243636,170.372881 55.6745455,173.932203" id="Shape" fill="#FFFFFF"></path>
                <path d="M125.306182,176.983051 C122.702182,177.932203 119.895273,178.711864 119.218909,181.559322 C118.170545,178.169492 122.228727,176.135593 125.306182,176.983051" id="Shape" fill="#FFFFFF"></path>
                <path d="M72.9556364,179.661017 C74.9216723,178.980704 77.0946223,179.296362 78.7870975,180.508137 C80.4795728,181.719912 81.4822034,183.6779 81.4778182,185.762712 C81.0381818,192.101695 69.5738182,191.288136 69.3032727,184.237288 C69.3032727,182.372881 69.5738182,180.440678 72.9556364,179.661017 M72.6512727,180.881356 C74.5450909,181.220339 78.6709091,182 79.6516364,184.271186 C79.2256223,182.852668 78.2255453,181.678307 76.8947956,181.03391 C75.564046,180.389512 74.0246572,180.334172 72.6512727,180.881356" id="Shape" fill="#000000" fill-rule="nonzero"></path>
                <path d="M102.478909,180.372881 C105.556364,180.372881 107.416364,182 107.653091,184.338983 C108.430909,191.322034 96.696,192.338983 95.4785455,186.779661 C94.4301818,181.864407 98.1163636,180.237288 102.478909,180.372881 M96.2563636,184.915254 C98.949654,182.134853 103.271473,181.759408 106.401818,184.033898 C105.082909,180.067797 97.0003636,180.813559 96.2563636,184.915254" id="Shape" fill="#000000" fill-rule="nonzero"></path>
                <path d="M79.6516364,184.305085 C78.6709091,182.067797 74.5450909,181.288136 72.6512727,180.915254 C74.0246572,180.36807 75.564046,180.423411 76.8947956,181.067808 C78.2255453,181.712205 79.2256223,182.886566 79.6516364,184.305085" id="Shape" fill="#FFFFFF"></path>
                <path d="M106.131273,184 C102.984673,181.742907 98.6613726,182.147371 95.9858182,184.949153 C96.6283636,180.813559 104.710909,180.101695 106.131273,184" id="Shape" fill="#FFFFFF"></path>
                <path d="M110.088,90.0338983 C110.088,91.0847458 110.324727,92.5084746 109.783636,93.0847458 C108.025091,93.5932203 105.860727,93.0847458 104.000727,94 C104.913818,95.7627119 107.382545,95.8644068 108.261818,97.6610169 C104.88,104.20339 95.7829091,101.050847 96.0872727,93.3898305 C96.0872727,90.2711864 97.9472727,86.6101695 100.044,86.3728814 C103.053818,85.8644068 106.503273,89.5254237 110.189455,90.0338983" id="Shape" fill="#000000" fill-rule="nonzero"></path>
            </g>
        </g>
    </g>
</svg>