<?xml version="1.0" encoding="UTF-8"?>
<svg width="200px" height="200px" viewBox="0 0 200 200" version="1.1" xmlns="http://www.w3.org/2000/svg" xmlns:xlink="http://www.w3.org/1999/xlink">
    <!-- Generator: Sketch 54.1 (76490) - https://sketchapp.com -->
    <title>wyoming</title>
    <desc>Created with Sketch.</desc>
    <g id="wyoming" stroke="none" stroke-width="1" fill="none" fill-rule="evenodd">
        <g id="wyoming_BGD" fill="#FBBF16">
            <g id="wyoming" transform="translate(42.000000, 0.000000)">
                <g id="g10" transform="translate(58.000000, 100.144818) scale(-1, 1) rotate(-180.000000) translate(-58.000000, -100.144818) translate(0.000000, 0.652432)" fill-rule="nonzero">
                    <g id="g12">
                        <path d="M88.8221169,42.2606343 C87.6717398,39.449888 85.2922001,37.5513026 84.7362947,34.4247025 C83.8635948,33.5138609 82.9517777,31.4557545 81.9991905,30.4267838 C81.1667097,33.474118 81.2460461,38.6594841 81.0873734,42.4590735 C81.0477052,42.8541381 81.0477052,43.2505218 81.008037,43.606723 C80.8096961,46.7329383 80.4124634,50.9286367 80.6504725,54.2916598 L80.9683688,54.1333481 C83.9831503,51.046271 86.2839045,46.5355984 88.7433315,42.3791481 C88.7829997,42.3402848 88.7829997,42.3001572 88.8221169,42.2606343 L88.8221169,42.2606343 Z M19.1654042,73.8436978 C17.5390089,74.8331456 16.1506778,75.7824658 14.564116,76.6933074 C15.158753,77.0495086 15.6746046,77.326554 16.1902909,77.6030497 C18.689331,78.9497981 20.5537353,79.7012287 22.5769776,81.3239231 C21.9818998,80.0184017 21.3868221,78.7909367 20.8315778,77.5640215 C20.2761131,76.3376559 19.7208689,75.110191 19.1654042,73.8436978 L19.1654042,73.8436978 Z M68.8695748,118.645894 C68.8293557,118.764627 68.7505703,118.922939 68.7103512,119.041673 C67.5208568,122.247484 69.3852611,125.255405 69.7026066,128.144592 C70.1780737,128.223748 70.4954192,128.223748 70.4166337,128.619527 L70.1780737,129.688131 L70.5747555,128.38206 C71.2099973,126.165697 70.0992883,124.265957 70.5747555,121.851705 C70.8133155,120.941413 70.9317691,119.991543 71.0513246,119.041673 C71.1703291,118.210537 71.2496655,117.339823 71.4083382,116.548264 C71.6457963,115.281771 72.0033608,114.134012 72.7961734,113.144564 C72.8363925,111.957227 73.6688733,111.640603 74.0264379,110.453266 C73.6688733,108.909727 71.804469,109.226351 70.7334282,108.434792 C70.5747555,108.434792 70.5747555,108.434792 70.4166337,108.434792 C68.432674,110.690733 69.345593,113.738233 69.2265884,116.548264 C69.1863693,117.260667 69.1075839,117.973069 68.8695748,118.645894 L68.8695748,118.645894 Z M114.44831,47.1291022 C111.790542,48.3957603 110.045143,52.6298822 106.752684,53.5792574 C106.59346,53.7381187 106.59346,53.7381187 106.59346,53.89698 C106.752684,53.89698 106.911357,54.054742 107.228151,54.054742 C108.57742,54.2916598 109.291447,55.4795468 109.806583,56.7856179 C109.965806,57.0236351 110.045143,57.1819467 110.283152,57.0236351 C110.441824,56.7856179 110.599946,57.0236351 110.75917,56.7856179 C111.551982,55.7565922 111.869879,54.6879886 112.901251,54.6088328 C113.059373,54.6088328 113.13926,55.0843174 113.13926,55.0843174 C113.33705,56.152921 112.901251,56.9439295 112.186673,57.8943491 C110.362488,60.189868 108.339411,62.3666531 105.72076,62.6827267 C104.134033,62.8415881 102.269629,63.2373672 101.318144,63.7914579 L100.009094,64.8985401 C99.9292065,65.3344468 99.5727438,65.8093817 100.08843,65.9676934 C101.000798,66.3640222 101.476816,65.5719143 102.269629,65.3344468 C103.063543,64.9386677 104.213921,63.6325966 104.967616,64.5824665 C104.967616,64.5824665 104.967616,64.7402284 105.08662,64.8985401 C103.380889,70.0442183 99.3744029,72.5772046 95.3673661,74.6748339 C95.3673661,74.8331456 95.2880298,74.9914572 95.2880298,74.9914572 L96.0422761,76.2585001 L97.3111068,75.3086302 L98.4223667,74.3576609 C98.8983848,74.4379161 99.3744029,74.5962278 99.4934075,74.9123014 C99.5727438,75.7824658 99.2950666,76.0996387 99.0565066,76.6933074 C98.8587166,77.0495086 98.5804885,77.3661319 98.3028112,77.6030497 C96.8356396,78.9497981 94.5745535,78.8695429 92.3525847,80.0184017 C92.2341311,80.2954471 91.7977811,81.0067501 92.1547947,81.4025292 C92.2737993,81.4025292 92.5911447,81.4025292 92.5911447,81.4025292 L94.4158808,79.5819453 L95.5260388,79.2664214 C95.5260388,79.5033391 95.6059261,80.1761636 95.7645988,80.5323648 C95.4472534,81.0864556 95.5260388,81.7202519 95.0902398,82.5112604 C94.5745535,84.2922664 93.1464992,85.6379154 91.4798848,85.953989 C91.7178938,90.308109 88.5846588,93.8695713 89.3780223,97.9862238 C89.3780223,98.1445355 89.1394623,98.6986262 88.9020042,98.6986262 C88.7433315,98.5403146 88.4259861,98.5403146 88.2667624,98.5403146 L87.5130671,98.5007367 L86.9979317,91.4954463 L86.2436854,90.6241826 C85.9268909,90.7835936 85.7285501,90.7835936 85.3709855,90.9413556 C83.6261367,93.5139198 82.9517777,97.3133993 80.095118,98.9360937 C80.095118,98.9360937 79.9369962,98.9360937 79.6989872,99.0944054 C79.0642963,99.4901845 79.1436327,100.281743 78.98496,100.914989 C79.1436327,101.192035 79.4609781,101.27119 79.6989872,101.46908 C80.4917998,101.46908 81.5231724,102.22106 81.9204051,103.131352 L82.118746,105.149826 C82.1980823,105.624761 82.5154277,106.337163 82.8718904,106.416319 C83.467464,106.258007 83.9434821,105.545605 84.4988366,105.308137 C84.8955183,104.674891 86.0062273,104.754047 86.4816945,105.228982 C86.3235727,106.851676 85.7285501,108.593104 85.0536401,109.859597 C84.5781729,110.453266 83.9434821,111.284402 83.5468003,111.640603 C81.9991905,111.878071 80.8096961,110.690733 79.4609781,110.611578 C79.1436327,110.967779 79.5403145,111.403136 79.6989872,111.878071 C79.3414226,113.382031 79.0642963,114.965148 78.8262873,116.548264 C78.7464,117.379401 78.6273954,118.210537 78.54861,119.041673 C77.7546955,126.957255 78.072041,135.38735 76.0891831,142.115595 C75.4539413,144.371536 74.0264379,145.558874 74.1057742,147.260724 C74.6611287,148.764684 73.5102006,149.79371 73.5900879,150.704002 C73.8677651,150.624846 74.1057742,150.189489 74.1057742,150.031178 C75.9305103,149.79371 77.9541383,150.704002 79.3816417,151.297671 C79.8576599,151.139359 80.333678,150.704002 80.9683688,151.060203 C82.118746,151.297671 82.356755,152.603742 82.7534368,153.316144 L83.5468003,153.632767 C83.3881276,153.474456 83.5468003,153.474456 83.8635948,153.711923 C84.3401639,153.870235 84.5781729,154.503482 85.6492137,154.107702 C86.0062273,153.632767 86.7593717,154.028547 86.9185954,154.186858 C87.5130671,155.690819 88.6634442,156.680267 90.0920495,157.94676 C90.2903904,159.529876 89.298686,160.756792 89.298686,162.260752 C87.6717398,163.210622 87.949417,165.545719 86.3235727,165.862342 C86.0062273,166.020654 85.8073355,166.337277 85.5302092,166.337277 L85.2922001,167.287147 C84.816182,167.841238 84.0228184,168.395329 83.5468003,168.474484 C83.3881276,168.474484 83.0707822,168.632796 82.9517777,168.791108 C80.8096961,169.740978 77.5569056,169.740978 74.5817923,168.395329 C73.6688733,167.841238 72.6375007,167.841238 72.1625845,167.366303 L71.7653518,166.258121 C71.7653518,166.09981 71.6860154,165.941498 71.36867,165.704031 C70.0992883,165.466563 69.7026066,164.239648 69.7819429,163.210622 L70.0992883,160.40059 C69.9406156,160.202701 69.3852611,160.202701 68.9489112,160.123545 C67.7588659,161.310882 67.7588659,163.606401 66.0928025,164.437537 C65.6162334,164.595849 64.6647481,164.595849 64.4658563,164.00218 C64.4658563,163.527245 64.5457436,162.814843 64.5457436,162.49822 C63.7127118,162.260752 63.2763619,161.944129 62.6416711,162.181596 C60.8566031,162.102441 60.2213613,159.529876 58.3575079,159.292409 C56.6121082,160.717214 53.2403131,165.031206 52.2091058,166.733056 C51.0981214,169.147309 54.549363,170.413802 55.7394083,172.234386 C57.6434808,173.777924 63.1964746,175.915132 63.2763619,177.023313 C66.3308115,176.073443 69.3053738,174.727794 72.8363925,175.835976 C75.2958195,176.785846 77.635691,177.894027 79.3023054,180.229124 C79.0642963,181.021232 79.1436327,181.772663 79.3023054,182.683504 C78.1519283,185.810159 76.2478558,187.591165 73.2330743,188.698797 C72.4793789,189.253438 71.4480063,189.253438 70.8926519,189.806979 C70.019952,191.469251 70.7334282,193.171101 70.4166337,195.149997 C69.8607283,196.099867 69.2657057,196.772691 68.432674,196.772691 C68.1549967,196.535224 67.6789786,196.851847 67.3621841,196.535224 C67.1236241,196.258178 66.3308115,196.456068 66.1721388,196.614379 C66.0134661,196.772691 66.0134661,196.931003 65.9341297,197.089314 C65.4581116,197.643405 64.3071835,198.039184 63.1964746,198.039184 L61.1739485,196.099867 L59.4285487,194.675062 C56.0567537,195.427042 52.6851239,195.070841 49.313384,193.171101 C48.2031158,192.459248 48.4404637,191.033894 48.2031158,189.648667 C48.995708,185.41383 52.2091058,183.90987 54.4700266,181.337306 C54.7080357,180.704059 54.4303584,180.229124 54.1923494,179.675033 C51.2569594,176.785846 48.995708,174.094548 45.8619771,171.759451 C44.7514885,170.25549 42.8475262,169.740978 43.0060887,167.287147 C43.3239851,162.973155 45.1481152,158.89663 47.5677638,156.442799 C48.2825072,154.899261 49.313384,154.503482 50.5034844,153.236988 C51.0191707,152.44543 51.5748557,151.891339 52.0502678,151.297671 C54.2716857,143.896601 48.995708,134.200013 54.4700266,127.827969 C55.0650493,126.957255 54.7080357,126.324009 54.3510221,125.53245 C53.3196495,124.02849 53.3196495,121.772549 53.0816404,119.951965 C51.0981214,120.22901 49.313384,121.297614 47.409587,120.466478 C46.6952843,120.664367 46.5365014,121.297614 46.1002616,121.772549 C41.5383662,127.511346 32.930482,125.453294 26.8611958,126.403164 L25.869271,127.43219 C27.2974356,130.717157 28.1305224,134.318747 27.7732884,137.999492 C27.7732884,140.057544 27.0594265,142.036439 26.5835737,144.371536 C26.1073352,146.587899 24.4413819,147.735659 23.1322219,149.635398 C22.3389134,150.189489 21.3868221,150.189489 20.5141222,150.54569 C17.6978469,151.535138 14.2466604,152.603742 11.1921557,150.981047 C8.69311565,150.031178 8.45505149,146.746211 6.47186302,144.371536 C4.64707179,142.036439 2.86188262,139.582609 4.64707179,135.901863 C3.89321114,133.764656 3.3379338,131.904494 2.3860463,129.925598 C2.30663282,128.817417 1.90978025,127.63008 1.83036677,126.403164 C1.27511146,123.988912 -1.14453164,119.674919 1.07668793,119.002095 C1.11649936,119.002095 1.19591284,118.962517 1.27511146,118.962517 C1.43393843,118.131381 1.43393843,117.300245 1.35452495,116.548264 C1.23530004,115.440083 0.957672383,114.411057 0.79906028,113.461187 C0.561249559,111.640603 0.759463726,109.938753 0.481836072,108.434792 C-0.589281839,108.751416 1.67175466,107.72239 1.19591284,107.009988 C2.14780584,104.754047 -0.510083222,101.864859 0.759463726,99.8068078 C0.878473766,99.8068078 1.03708587,99.6484961 1.19591284,99.6484961 C4.36900889,101.707097 3.45694935,107.009988 7.4235687,108.513948 C8.93112471,110.611578 9.2881383,113.540343 9.60559391,116.429531 C9.60559391,116.469109 9.64520699,116.508686 9.64520699,116.548264 C9.88321605,117.379401 9.88321605,118.170959 9.88321605,119.041673 C9.88321605,120.506056 9.80382461,122.010016 10.636691,123.751444 C12.2236936,126.244853 13.0963935,129.846443 13.7704219,133.170987 C14.405278,133.448033 15.317591,133.6855 15.9522268,133.764656 L17.2217737,131.350403 L17.7770731,130.321378 C18.0150821,129.688131 18.3325378,129.411086 18.689331,128.540372 C19.086178,126.878099 19.6810354,125.611606 19.8002603,123.672288 C19.4432467,122.722419 18.0150821,122.010016 16.9043732,120.901835 C16.5473045,120.387322 15.9126688,119.674919 15.317591,119.041673 C15.1988069,118.883361 15.0399689,118.725049 14.8811309,118.566738 C14.326107,117.973069 13.7704219,117.300245 13.2945691,116.548264 C12.6599333,115.67755 12.0648556,114.688103 11.4303851,113.698655 C10.3989024,110.690733 9.36758485,107.880702 8.45505149,104.595735 C8.0980379,102.695995 8.25665551,100.281743 9.20874686,98.0653797 C9.60559391,96.4822632 10.795529,95.097586 11.0335381,93.5139198 C11.906238,92.0896647 12.5804868,90.7835936 13.1757849,89.4379446 C12.7393248,87.8938564 12.3028647,87.4584994 10.8747001,86.4300234 C9.04990886,85.0838247 8.53427766,83.9750934 5.99562452,81.5613905 C5.04347808,80.8094102 3.57575554,79.3450275 2.62385702,77.6030497 C1.87017819,76.2975283 1.43393843,74.793018 1.75116815,73.3291849 C3.3379338,70.598309 6.7097068,70.8352268 9.36758485,69.6489888 C12.0648556,68.4209742 14.4847246,67.6299657 16.9835443,66.8384074 L15.2381996,63.6325966 C14.9605223,63.3159733 14.8019598,62.6035709 15.0399689,61.8120127 C12.4614823,59.437338 24.3223223,52.3138086 27.4560532,46.5355984 C28.0513513,44.8732162 28.7253797,43.4879893 29.6379131,42.3791481 C30.1535443,41.7856993 30.7087886,41.2711865 31.3833129,40.8752425 L30.510613,39.1338144 C30.0349805,37.2737075 31.9385572,36.165471 32.6134671,34.9782986 C33.5648973,33.1582643 34.4378176,31.5343057 36.6598967,30.2678675 C37.3335394,29.9517939 37.9285621,30.3481776 38.365463,30.9807646 C39.9119709,34.7796394 38.8410954,38.5407504 37.6507196,42.3791481 C37.45315,43.0527422 37.2540929,43.7248521 37.0558622,44.3971269 C33.8031268,48.553962 30.114372,53.1840279 26.8611958,57.2611025 C25.7108738,58.5264963 25.4726443,59.9513011 26.3453442,61.7328568 C26.2661731,61.8911685 26.4247908,61.8911685 26.4247908,61.8911685 C26.980035,61.6531513 26.6627998,61.7328568 26.980035,61.3376274 C27.8925133,60.8621428 29.1616195,59.5961993 30.5900044,60.1101625 C30.9076804,60.0315563 31.2246953,59.7929895 31.1452487,59.437338 C31.1452487,59.437338 30.9864107,59.3191539 30.9864107,59.0019809 C30.2725488,57.9729552 30.510613,57.8140939 29.8759222,56.7465897 C29.8759222,54.5302266 32.930482,53.8178242 33.8825733,52.1551122 C34.5964352,51.9176447 34.5964352,51.6015711 35.3896886,51.5223053 C36.0243794,51.2056271 37.0558622,50.6911142 37.4127105,51.6015711 C37.2540929,51.9176447 37.6507196,53.3428893 38.0077882,54.054742 C36.8176327,58.6853577 37.4925427,60.3476299 35.231071,64.8199339 C33.6443439,65.8093817 30.5900044,68.1049006 28.9240512,68.6199631 C31.2246953,71.7466182 32.4541884,74.4379161 34.0807489,77.6030497 C34.8740574,79.1471379 35.7467573,80.8094102 36.8970793,82.6695721 C38.1267928,83.3819745 39.7137953,82.1951868 40.7052794,81.3239231 C41.1417395,79.8595403 41.9748263,78.8695429 42.3712326,77.6030497 L42.3712326,77.5640215 C42.3712326,77.4062595 42.212615,77.2479479 42.212615,77.2479479 L39.3963397,75.7038596 L38.0077882,73.0917175 L40.1102016,70.0442183 C40.5070487,69.8859066 40.5070487,69.569833 40.7851116,69.4505496 L41.3797486,68.9365864 C41.7367622,69.2136318 41.8953798,69.2136318 42.0539974,69.2136318 C42.4510648,69.0553202 42.7282462,69.292238 42.4510648,68.8568809 C42.4510648,66.443178 43.4819416,64.4247045 44.6723175,62.4452592 C46.0208151,61.2974998 45.9414236,59.9513011 46.8539019,59.437338 C47.6472103,59.5159441 48.4404637,59.7929895 48.995708,60.3872078 C49.154546,62.3666531 49.0757606,64.0679536 49.0757606,66.126005 C48.9165369,66.5217841 49.313384,67.3924982 49.6308396,67.7085718 C49.6308396,67.5508098 49.9089025,67.3924982 50.0670793,67.2347362 C51.3364059,65.4141523 52.0502678,63.8700641 54.0342276,62.0494801 C54.9063765,61.1001599 55.898081,59.437338 57.4054717,59.3581821 C57.7228171,59.0805871 58.1988352,58.9239245 58.4368443,58.3687344 L58.1200498,57.5771761 C57.6434808,57.5771761 57.7228171,56.9439295 56.9294536,56.3903885 C55.8187446,51.8779019 58.2385034,47.0895793 59.9839032,42.3791481 C60.6588132,40.5587291 61.2532849,38.7374306 61.4912939,36.9576339 C62.6416711,35.2954166 62.8791292,33.316521 62.7204565,31.4557545 C63.2763619,29.3186022 63.5931564,27.4584404 64.6647481,25.4009387 C64.9820935,22.0356069 65.6162334,19.3448586 65.0614299,15.9803513 C62.403662,12.2214392 66.2514752,7.82774129 66.0134661,3.59295972 C67.3621841,1.93055551 69.7819429,2.40552343 71.2893336,0.941107717 C72.0821462,0.664760446 73.153738,-0.324687343 74.1057742,0.466354177 C73.7487606,3.75182106 71.6061281,8.06520876 71.6860154,11.6667987 C70.5747555,15.8225344 69.8607283,19.2658677 69.1863693,23.0651823 C69.7819429,24.7670874 69.1075839,26.5085155 68.7505703,28.2110254 C68.432674,29.3186022 69.0276966,30.3481776 68.5918976,31.4557545 C68.3930058,34.9385557 68.1952158,38.6985673 68.2745522,42.3791481 C68.3142204,45.7438753 68.5918976,49.107558 69.2657057,52.2347627 C69.5439339,52.709093 69.7026066,52.709093 70.1780737,52.9471102 C72.6375007,53.8178242 74.3437833,56.4695443 76.8032102,56.310683 C76.8032102,56.310683 77.3585647,46.0599489 77.4379011,46.5355984 C77.5569056,45.2289777 77.6759101,43.8435858 77.7949147,42.4590735 C78.3497182,35.5718023 78.5882782,28.0124212 78.5882782,28.0124212 C78.31005,28.0124212 78.1519283,27.6173567 77.5569056,27.5374313 C76.4461966,25.7170123 72.9956162,25.3206285 72.4000426,22.5112014 C72.4793789,21.7195333 72.0821462,20.7697733 72.8363925,20.4536997 C74.4231196,20.057316 75.6131649,21.5612766 76.8825466,22.4319907 C76.9618829,22.7480643 77.874251,22.9069256 78.4687227,22.8283195 C78.5089418,22.5112014 78.5089418,22.1944682 78.5089418,21.7195333 C77.635691,19.7011148 75.6131649,19.5428581 73.9465506,18.4346766 C73.6688733,18.1179433 73.6688733,17.3268798 73.7487606,16.6925888 C74.740465,15.2294704 76.4065285,13.8831618 78.3899373,13.0124477 C84.5781729,14.3585364 90.2110541,20.0182328 97.5496668,21.1654975 C101.159471,22.1944682 101.952834,25.9545347 105.403966,27.3006235 L114.368974,30.5850404 C114.527096,30.7432971 114.527096,30.7432971 114.527096,30.9017737 L114.44831,32.0103949 L109.092555,34.8990328 C108.617088,35.2954166 109.01377,36.165471 109.212111,36.6404609 C109.727246,37.0361851 110.283152,36.8773237 110.917842,36.8773237 C112.186673,36.7987176 113.13926,35.6114902 113.57561,34.9782986 C113.734283,35.0568497 113.734283,35.0568497 113.932073,35.0568497 L114.844992,35.6114902 C115.162337,35.7693071 115.083001,36.5612501 114.685768,37.3529183 C113.734283,39.4900705 111.63187,40.7176454 109.568573,42.3791481 C109.251228,42.6172752 108.894765,42.8938809 108.57742,43.2109989 C108.260075,44.1603191 107.069478,45.7047921 107.546047,46.6543322 C110.045143,47.484259 112.26656,44.3971269 114.170633,43.5270725 C114.527096,43.4485213 115.479683,43.289605 115.400346,43.7645949 C115.558468,44.1603191 115.955701,44.4774371 115.955701,44.6356938 C115.637805,45.545491 114.924328,46.5355984 114.44831,47.1291022 L114.44831,47.1291022 Z" id="path18"></path>
                        <path d="M85.4503219,5.77023958 C85.4503219,6.40304641 85.2128638,6.91750429 84.7765138,7.35275138 C84.3401639,7.78821834 83.8244776,7.98660263 83.2294549,7.98660263 C82.5942131,7.98660263 82.0796287,7.78821834 81.6427278,7.35275138 C81.2063779,6.91750429 81.008037,6.40304641 81.008037,5.77023958 C81.008037,5.17651594 81.2063779,4.66095867 81.6427278,4.22615133 C82.0796287,3.79068437 82.5942131,3.63308732 83.2294549,3.63308732 C83.8244776,3.63308732 84.3401639,3.79068437 84.7765138,4.22615133 C85.2128638,4.66095867 85.4503219,5.17651594 85.4503219,5.77023958 Z M85.1335274,5.77023958 C85.1335274,5.29486489 84.9346356,4.81921535 84.5781729,4.42415083 C84.1809402,4.06789466 83.7451412,3.91007773 83.2294549,3.91007773 C82.7132177,3.91007773 82.1980823,4.06789466 81.8410687,4.42415083 C81.4840551,4.81921535 81.2851633,5.29486489 81.2851633,5.77023958 C81.2851633,6.28431267 81.4840551,6.75902774 81.8410687,7.15502673 C82.1980823,7.51166769 82.7132177,7.70961221 83.2294549,7.70961221 C83.7451412,7.70961221 84.1809402,7.51166769 84.5781729,7.15502673 C84.9748547,6.75902774 85.1335274,6.28431267 85.1335274,5.77023958 Z" id="path54"></path>
                        <path d="M83.2294549,7.92712582 C82.5969679,7.92712582 82.1066251,7.73154497 81.6845998,7.31108463 C81.2631254,6.89045938 81.0669883,6.40068273 81.0669883,5.77023958 C81.0669883,5.17332771 81.2686349,4.68179204 81.6845998,4.26803796 C82.0845872,3.86995013 82.5606054,3.69195947 83.2294549,3.69195947 C83.8624929,3.69195947 84.3407148,3.87489737 84.7346418,4.26803796 C85.1704408,4.701581 85.3913706,5.20746366 85.3913706,5.77023958 C85.3913706,6.36610702 85.1765013,6.87028564 84.7346418,7.31108463 C84.3192279,7.72549835 83.8272323,7.92712582 83.2294549,7.92712582 Z M85.1335274,5.77023958 C85.1335274,5.29486489 84.9346356,4.81921535 84.5781729,4.42415083 C84.1809402,4.06789466 83.7451412,3.91007773 83.2294549,3.91007773 C82.7132177,3.91007773 82.1980823,4.06789466 81.8410687,4.42415083 C81.4840551,4.81921535 81.2851633,5.29486489 81.2851633,5.77023958 C81.2851633,6.28431267 81.4840551,6.75902774 81.8410687,7.15502673 C82.1980823,7.51166769 82.7132177,7.70961221 83.2294549,7.70961221 C83.7451412,7.70961221 84.1809402,7.51166769 84.5781729,7.15502673 C84.9748547,6.75902774 85.1335274,6.28431267 85.1335274,5.77023958 Z M83.2294549,3.57361052 C83.8961007,3.57361052 84.401319,3.76770719 84.8189367,4.18431968 C85.2773245,4.64122468 85.5092732,5.17503176 85.5092732,5.77023958 C85.5092732,6.39919856 85.283385,6.93064196 84.8189367,7.39507776 C84.379832,7.83329319 83.8597382,8.04547477 83.2294549,8.04547477 C82.5727262,8.04547477 82.0405115,7.83329319 81.6008559,7.39507776 C81.1617512,6.95658748 80.9485347,6.4249242 80.9485347,5.77023958 C80.9485347,5.14023618 81.1617512,4.62193045 81.6008559,4.18431968 C82.0190246,3.76770719 82.5363637,3.57361052 83.2294549,3.57361052 Z M85.1335274,5.77023958 C85.1335274,5.29486489 84.9346356,4.81921535 84.5781729,4.42415083 C84.1809402,4.06789466 83.7451412,3.91007773 83.2294549,3.91007773 C82.7132177,3.91007773 82.1980823,4.06789466 81.8410687,4.42415083 C81.4840551,4.81921535 81.2851633,5.29486489 81.2851633,5.77023958 C81.2851633,6.28431267 81.4840551,6.75902774 81.8410687,7.15502673 C82.1980823,7.51166769 82.7132177,7.70961221 83.2294549,7.70961221 C83.7451412,7.70961221 84.1809402,7.51166769 84.5781729,7.15502673 C84.9748547,6.75902774 85.1335274,6.28431267 85.1335274,5.77023958 Z" id="path56"></path>
                        <path d="M83.2294549,3.85082081 C83.7743414,3.85082081 84.2156499,4.01897196 84.6222487,4.38440801 C84.9902812,4.79173068 85.1924787,5.28431078 85.1924787,5.77023958 C85.1924787,6.33752298 85.0001983,6.81789988 84.6178411,7.19878231 C84.1908573,7.58208339 83.736877,7.76848436 83.2294549,7.76848436 C82.6845684,7.76848436 82.1628217,7.55998572 81.796993,7.1944947 C81.423451,6.78052074 81.226212,6.28816053 81.226212,5.77023958 C81.226212,5.28370611 81.4289604,4.79173068 81.7991968,4.38226421 C82.1424367,4.03980533 82.6504097,3.85082081 83.2294549,3.85082081 Z M85.1335274,5.77023958 C85.1335274,5.29486488 84.9346356,4.81921535 84.5781729,4.42415083 C84.1809402,4.06789466 83.7451412,3.91007773 83.2294549,3.91007773 C82.7132177,3.91007773 82.1980823,4.06789466 81.8410687,4.42415083 C81.4840551,4.81921535 81.2851633,5.29486488 81.2851633,5.77023958 C81.2851633,6.28431267 81.4840551,6.75902774 81.8410687,7.15502673 C82.1980823,7.51166769 82.7132177,7.70961221 83.2294549,7.70961221 C83.7451412,7.70961221 84.1809402,7.51166769 84.5781729,7.15502673 C84.9748547,6.75902774 85.1335274,6.28431267 85.1335274,5.77023958 Z" id="path60"></path>
                        <path d="M82.1980823,7.15502673 L82.1980823,7.03623802 C82.3170868,7.03623802 82.356755,6.99715484 82.4355404,6.91750429 C82.4757595,6.91750429 82.5154277,6.75902774 82.5154277,6.64051388 L82.5154277,5.25512207 C82.5154277,5.09620576 82.4757595,4.97813165 82.4355404,4.93860871 C82.3964232,4.89952552 82.3170868,4.85939792 82.1980823,4.81921535 L82.1980823,4.74126885 L83.2294549,4.74126885 L83.2294549,4.81921535 C83.0707822,4.85939792 82.9908949,4.89952552 82.9517777,4.93860871 C82.9126604,4.93860871 82.8718904,5.09620576 82.8718904,5.25512207 L82.8718904,5.88836865 L83.1104504,5.88836865 L83.9831503,4.74126885 L84.5385048,4.74126885 L84.5385048,4.81921535 C84.4586174,4.85939792 84.4195002,4.85939792 84.3401639,4.89952552 C84.3401639,4.93860871 84.2211593,5.0176546 84.1809402,5.09620576 L83.5468003,5.96757944 C83.7451412,5.96757944 83.903263,6.04722999 84.0228184,6.12649575 C84.1021548,6.24456985 84.141272,6.36330359 84.141272,6.52112051 C84.141272,6.71955976 84.0619357,6.8382935 83.9434821,6.95702723 C83.8244776,7.0764206 83.5859176,7.15502673 83.3484594,7.15502673 L82.1980823,7.15502673 Z M82.8718904,6.00710239 L82.8718904,6.91750429 C83.0305631,6.95702723 83.1104504,6.99715484 83.1501186,6.99715484 C83.3484594,6.99715484 83.467464,6.91750429 83.5468003,6.8382935 C83.6658049,6.75902774 83.6658049,6.64051388 83.6658049,6.48203732 C83.6658049,6.32378065 83.6658049,6.24456985 83.5468003,6.12649575 C83.4272448,6.04722999 83.2685721,5.96757944 83.0305631,5.96757944 C83.0305631,5.96757944 82.9517777,5.96757944 82.8718904,6.00710239 Z" id="path62"></path>
                        <path d="M84.0129014,4.80014099 L84.4305192,4.80014099 C84.4272135,4.80118541 84.4233568,4.80272455 84.4195002,4.80398884 C84.3875453,4.81432308 84.3561413,4.82526197 84.3142694,4.84670001 L84.2812125,4.86258614 L84.2812125,4.89952552 L84.2806616,4.89952552 C84.276254,4.89952552 84.2509105,4.92486638 84.2338311,4.94141215 C84.1958158,4.97923104 84.1528419,5.02216208 84.1286003,5.06938073 L83.4305505,6.02639662 L83.5468003,6.02639662 C83.736877,6.02639662 83.8834289,6.10610213 83.9798446,6.16876716 C84.0514677,6.2787058 84.0823207,6.38545623 84.0823207,6.52112051 C84.0823207,6.69916614 84.0129014,6.80371779 83.9016101,6.91536049 C83.7936245,7.02359508 83.571042,7.09615459 83.3484594,7.09615459 L82.2570336,7.0916471 C82.3540003,7.07900416 82.4035855,7.03348956 82.4674953,6.96906551 C82.5699715,6.92074748 82.574379,6.64309744 82.574379,6.64051388 L82.574379,5.25512207 C82.574379,5.09620576 82.5363637,4.95559423 82.4779633,4.89677706 C82.4443556,4.86324577 82.3909137,4.83191326 82.315434,4.80014099 L83.0862087,4.80014099 C83.0112799,4.82652626 82.9578381,4.85445068 82.9214756,4.88578319 C82.8140409,4.93476086 82.8129391,5.24137974 82.8129391,5.25512207 L82.8129391,5.94784546 L83.1402015,5.94784546 L83.1578318,5.9246484 L84.0129014,4.80014099 Z M82.8718904,6.00710239 L82.8718904,6.91750429 C83.0305631,6.95702723 83.1104504,6.99715484 83.1501186,6.99715484 C83.3484594,6.99715484 83.467464,6.91750429 83.5468003,6.8382935 C83.6658049,6.75902774 83.6658049,6.64051388 83.6658049,6.48203732 C83.6658049,6.32378065 83.6658049,6.24456985 83.5468003,6.12649575 C83.4272448,6.04722999 83.2685721,5.96757944 83.0305631,5.96757944 C83.0305631,5.96757944 82.9517777,5.96757944 82.8718904,6.00710239 Z M84.5974561,4.68179204 L84.5974561,4.85615473 L84.5655011,4.87204086 C84.5214254,4.89397362 84.4900214,4.90447276 84.4575156,4.91607129 C84.4360286,4.92316233 84.4145417,4.92981362 84.3880962,4.9418519 C84.3748735,4.96889681 84.348979,4.99357803 84.3170241,5.0253503 C84.2856201,5.05673778 84.2492576,5.09257778 84.2288726,5.13100134 L83.6575407,5.91585331 C83.7903189,5.93448791 83.9219952,5.98797306 84.0558753,6.07685845 L84.0724037,6.09340422 C84.1611061,6.22653992 84.2002234,6.35797157 84.2002234,6.52112051 C84.2002234,6.75199166 84.0971963,6.88721619 83.9853541,6.99891386 C83.8547796,7.12968587 83.6046498,7.21428366 83.3484594,7.21428366 L82.13858,7.21428366 L82.13858,6.97742085 L82.1980823,6.97742085 C82.2933961,6.97742085 82.3181887,6.95142036 82.3936685,6.87567264 L82.4107478,6.85802748 L82.4151554,6.85802748 C82.4322347,6.8252108 82.4559255,6.73115829 82.4559255,6.64051388 L82.4559255,5.25512207 C82.4559255,5.09406195 82.4140535,5.00066908 82.3936685,4.98027546 C82.3716306,4.95773804 82.3165359,4.92206295 82.1793501,4.87528405 L82.13858,4.86154172 L82.13858,4.68179204 L83.2884062,4.68179204 L83.2884062,4.86538958 L83.2437795,4.8769881 C83.1137561,4.90942 83.0289102,4.94465534 82.9936496,4.98027546 L82.9765703,4.99748086 L82.9727137,4.99748086 C82.9561852,5.03266122 82.9313926,5.13380477 82.9313926,5.25512207 L82.9313926,5.82971638 L83.0806992,5.82971638 L83.9357688,4.70498909 L83.9533991,4.68179204 L84.5974561,4.68179204 Z M82.8718904,6.00710239 L82.8718904,6.91750429 C83.0305631,6.95702723 83.1104504,6.99715484 83.1501186,6.99715484 C83.3484594,6.99715484 83.467464,6.91750429 83.5468003,6.8382935 C83.6658049,6.75902774 83.6658049,6.64051388 83.6658049,6.48203732 C83.6658049,6.32378065 83.6658049,6.24456985 83.5468003,6.12649575 C83.4272448,6.04722999 83.2685721,5.96757944 83.0305631,5.96757944 C83.0305631,5.96757944 82.9517777,5.96757944 82.8718904,6.00710239 Z" id="path64"></path>
                    </g>
                </g>
            </g>
        </g>
    </g>
</svg>